<svg viewBox="0 0 421.58 490.39" xmlns="http://www.w3.org/2000/svg" xmlns:xlink="http://www.w3.org/1999/xlink" id="Capa_1" overflow="hidden"><style>
.MsftOfcThm_Background1_Fill_v2 {
 fill:#FFFFFF; 
}
</style>
<path d="M4267.73-71C4290.04-69.31 4311.63-67.66 4333.21-66 4352.48-64.57 4371.75-63.21 4391.02-61.76 4398.72-61.18 4401.74-56.35 4398.55-49.38 4393.21-37.73 4387.65-26.18 4382.2-14.58 4381.71-13.58 4381.27-12.51 4380.49-10.77 4382.75-10.63 4384.49-10.45 4386.17-10.45 4398.34-10.45 4410.5-10.51 4422.67-10.45 4428.2-10.45 4431.18-8.19 4431.89-3.94 4432.71 0.16585 4430.04 4.15649 4425.94 4.97335 4425.76 5.00859 4425.58 5.0375 4425.4 5.06 4424.07 5.17725 4422.73 5.20397 4421.4 5.14L4125 5.14C4118.56 5.14 4115.44 3.21 4114.72-1.21 4113.83-6.66 4117.41-10.39 4123.72-10.42 4131.72-10.42 4139.72-10.42 4148.28-10.42 4147.9-11.7774 4147.45-13.1128 4146.92-14.42 4138.63-32.14 4130.32-49.7933 4122-67.38 4117.65-76.55 4120.93-81.8 4131-81.08 4170.04-78.2667 4209.08-75.39 4248.11-72.45 4249.11-72.37 4250.11-72.32 4251.59-72.23L4251.59-79.83C4242.97-80.7 4234.22-80.64 4225.94-82.59 4187.57-91.59 4166.19-122.59 4169.34-162.88 4173.03-210.06 4197.89-245.34 4233.55-274.19 4238.36-278.019 4243.37-281.597 4248.55-284.91 4251.06-286.54 4252.22-288.22 4252.09-291.31 4251.85-297.63 4251.99-303.97 4252.03-310.31 4252.08-316.83 4254.82-320.31 4259.85-320.39 4264.88-320.47 4267.67-316.82 4267.67-310.39 4267.67-232.743 4267.67-155.077 4267.67-77.39ZM4140.73-64.81C4141.58-62.75 4142.13-61.21 4142.82-59.73 4149.74-44.96 4156.82-30.27 4163.51-15.4 4165.21-11.61 4167.27-10.4 4171.37-10.4 4223.68-10.54 4275.99-10.57 4328.3-10.49 4338.63-10.49 4348.96-10.42 4359.3-10.61 4360.84-10.61 4363.19-11.46 4363.76-12.61 4369.3-23.75 4374.54-35.05 4380.19-46.97ZM4242.03-260.08C4241.36-259.84 4240.71-259.539 4240.1-259.18 4220.58-243.02 4204.56-224.06 4194.5-200.59 4185.79-180.29 4181.41-159.24 4186.94-137.28 4193.38-111.69 4221.07-92.72 4245.83-96.47 4245.83-96.78 4246-97.16 4245.88-97.41 4245.3-98.61 4244.65-99.77 4244.02-100.94 4235.19-117.43 4229.65-135.483 4227.73-154.09 4225.16-177.92 4228.53-201.3 4233.46-224.51 4236-236.21 4239.07-247.77 4242.06-260.1ZM4251.89-231.67C4239.75-193.4 4240.04-139.32 4251.89-123.15Z" class="MsftOfcThm_Background1_Fill_v2" fill="#FFFFFF" transform="translate(-4010.44 320.38)"/><path d="M4068.68-47.86C4045.56-41.5 4030-21.71 4027.78 3 4026.78 14.43 4027.62 25.58 4031.71 36.42 4033.59 41.42 4031.9 45.49 4027.65 47.21 4023.4 48.93 4019.39 47 4017.19 42.21 3996.13-3.28 4026.67-59 4076.52-65.92 4079.65-66.36 4082.95-67.3 4085.91-66.7 4088.99-66.1079 4091.8-64.5325 4093.91-62.21 4096.19-59.33 4094.7-55.99 4092.17-53.27 4083.96-44.45 4077.76-34.45 4075.84-22.37 4072.36-0.46 4083.94 19.31 4105.53 25.7 4117.63 29.3522 4130.16 31.3701 4142.79 31.7 4188.59 32.46 4234.41 32.13 4280.22 32.21 4281.88 32.21 4283.56 32.12 4285.22 32.28 4289.71 32.72 4292.75 35.95 4292.72 40.11 4292.69 44.27 4289.55 47.46 4285.11 47.83 4283.78 47.94 4282.44 47.83 4281.11 47.83 4239.3 47.83 4197.48 47.94 4155.67 47.83 4137.49 47.78 4119.35 46.9 4101.86 41.2 4065.3 29.29 4049.33-8.96 4066.47-43.36 4067.15-44.62 4067.77-46 4068.68-47.86Z" class="MsftOfcThm_Background1_Fill_v2" fill="#FFFFFF" transform="translate(-4010.44 320.38)"/><path d="M4214.9 74.8 4384.9 74.8C4391.79 74.8 4395.9 78.9 4394.39 84.27 4393.39 87.84 4391.04 89.95 4387.23 90.16 4385.9 90.24 4384.57 90.16 4383.23 90.16 4270.91 90.16 4158.58 90.16 4046.23 90.16 4038.04 90.16 4034.62 87.96 4034.53 82.62 4034.44 77.08 4037.94 74.77 4046.39 74.77Z" class="MsftOfcThm_Background1_Fill_v2" fill="#FFFFFF" transform="translate(-4010.44 320.38)"/><path d="M4214.88 129.38 4089.94 129.38C4088.11 129.497 4086.28 129.406 4084.47 129.11 4080.58 128.17 4078.56 125.46 4078.66 121.47 4078.76 117.48 4080.85 114.9 4084.81 114.1 4086.14 113.919 4087.48 113.869 4088.81 113.95L4340.18 113.95C4341.35 113.903 4342.52 113.927 4343.68 114.02 4347.69 114.379 4350.71 117.809 4350.57 121.83 4350.32 126.01 4348 128.6 4343.81 129.24 4342.15 129.408 4340.48 129.454 4338.81 129.38Z" class="MsftOfcThm_Background1_Fill_v2" fill="#FFFFFF" transform="translate(-4010.44 320.38)"/><path d="M4214.52 170C4200.86 170 4187.2 170 4173.52 170 4166.96 170 4163.63 167.21 4163.71 162 4163.78 157.12 4167.18 154.33 4173.33 154.32 4200.66 154.28 4228 154.28 4255.33 154.32 4262.48 154.32 4266.45 158.08 4265.33 163.57 4264.27 168.57 4260.77 170.06 4256.07 170.04 4242.18 169.94 4228.35 170 4214.52 170Z" class="MsftOfcThm_Background1_Fill_v2" fill="#FFFFFF" transform="translate(-4010.44 320.38)"/><path d="M4376.33 47.89C4364.5 47.89 4352.67 47.89 4340.84 47.89 4334.84 47.89 4331.22 44.89 4331.2 40.12 4331.18 35.35 4334.8 32.26 4340.76 32.25 4364.92 32.25 4389.08 32.25 4413.24 32.25 4419.14 32.25 4422.84 35.53 4422.68 40.25 4422.52 44.97 4419.03 47.81 4413.31 47.84 4401 47.93 4388.66 47.89 4376.33 47.89Z" class="MsftOfcThm_Background1_Fill_v2" fill="#FFFFFF" transform="translate(-4010.44 320.38)"/></svg>