<svg viewBox="0 0 250.1 230.14" xmlns="http://www.w3.org/2000/svg" xmlns:xlink="http://www.w3.org/1999/xlink" id="Capa_1" overflow="hidden"><style>
.MsftOfcThm_Background1_Fill_v2 {
 fill:#FFFFFF; 
}
</style>
<path d="M2354.42 455.12C2350.48 458.65 2346.62 462.12 2342.77 465.58 2341.38 467.295 2338.85 467.555 2337.14 466.16 2335.43 464.765 2335.17 462.245 2336.56 460.53 2339.62 455.387 2340.78 449.331 2339.84 443.42 2339.36 440.043 2338.17 436.807 2336.34 433.93 2335.54 432.848 2334.64 431.843 2333.65 430.93 2331.65 428.8 2329.59 426.7 2327.54 424.6 2322.76 420.007 2322.61 412.41 2327.21 407.633 2328.62 406.164 2330.38 405.079 2332.33 404.48 2336.54 402.995 2341.23 404.101 2344.33 407.31 2352.66 415.512 2360.56 424.137 2368 433.15 2376.02 442.783 2383.41 452.917 2390.14 463.49L2390.5 464.02C2391.44 463.41 2392.36 462.81 2393.29 462.23 2403.32 455.872 2414.45 451.436 2426.11 449.15 2426.86 449 2426.85 448.61 2426.85 448.05 2426.85 434.457 2426.85 420.87 2426.85 407.29 2426.62 397.484 2434.37 389.345 2444.18 389.111 2444.45 389.104 2444.73 389.104 2445 389.11L2537.16 389.11C2545.84 388.905 2553.39 395.012 2555 403.54 2555.22 404.754 2555.33 405.986 2555.32 407.22 2555.32 451.127 2555.32 495.037 2555.32 538.95L2555.32 593.41 2555.51 593.2C2557.85 594.291 2560.13 595.499 2562.34 596.82 2567.27 600.08 2570.43 604.82 2572.57 610.22 2573.08 611.511 2573.52 612.829 2573.88 614.17 2574.47 616.3 2573.22 618.502 2571.09 619.089 2570.79 619.171 2570.48 619.219 2570.17 619.23L2413.17 619.23C2411.52 619.23 2410.03 619 2408.97 617.57 2408.22 616.634 2407.97 615.395 2408.29 614.24 2410.17 607.62 2413.29 601.78 2418.87 597.48 2420.91 595.872 2423.22 594.646 2425.7 593.86 2426.49 593.748 2427.04 593.019 2426.92 592.232 2426.92 592.225 2426.92 592.217 2426.92 592.21 2426.88 572.657 2426.88 553.11 2426.92 533.57L2426.92 478.77C2418.75 480.767 2411.02 484.266 2404.13 489.09 2404.82 490.7 2405.51 492.27 2406.13 493.86 2410.85 504.944 2414.1 516.595 2415.81 528.52 2417.11 537.482 2417.23 546.578 2416.15 555.57 2415.08 563.93 2412.98 571.98 2408.53 579.27 2404.99 585.06 2400.44 589.81 2394.17 592.6 2384.85 596.74 2375.92 595.69 2367.51 590.12 2361.13 585.9 2356.88 579.9 2353.79 573.01 2350.8 566.119 2348.97 558.779 2348.38 551.29 2347.78 545.048 2347.84 538.762 2348.53 532.53 2349.71 522.208 2352.63 512.159 2357.16 502.81 2360.86 495.111 2365.56 487.941 2371.16 481.49 2371.7 481.037 2371.76 480.235 2371.31 479.7 2371.31 479.697 2371.3 479.693 2371.3 479.69 2366.32 471.302 2360.82 463.233 2354.83 455.53 2354.67 455.41 2354.57 455.3 2354.42 455.12ZM2547.25 592.37 2547.25 591.25C2547.25 575.503 2547.25 559.757 2547.25 544.01 2547.25 518.677 2547.25 493.343 2547.25 468.01 2547.25 447.79 2547.25 427.567 2547.25 407.34 2547.35 404.687 2546.38 402.105 2544.56 400.17 2542.51 398.06 2539.64 396.944 2536.7 397.11 2529.63 397.11 2522.56 397.11 2515.49 397.11L2481.03 397.11C2469.03 397.11 2457.03 397.11 2445.03 397.11 2439.66 396.894 2435.13 401.072 2434.92 406.441 2434.91 406.724 2434.91 407.007 2434.92 407.29L2434.92 592.29ZM2376.14 488.27 2375.8 488.27C2374.16 490.54 2372.44 492.75 2370.89 495.08 2362.03 508.38 2356.81 522.92 2356.09 538.97 2355.67 548.56 2356.65 557.97 2360.01 567.02 2362.26 573.1 2365.54 578.51 2370.72 582.61 2377.7 588.447 2387.83 588.543 2394.92 582.84 2398.99 579.533 2402.14 575.231 2404.07 570.35 2407.2 563.14 2408.36 555.5 2408.71 547.72 2409.09 537.808 2408.08 527.892 2405.71 518.26 2402.53 505.494 2397.72 493.188 2391.42 481.64 2385.55 470.74 2378.85 460.312 2371.37 450.45 2369.83 448.38 2368.22 446.36 2366.59 444.24L2360.52 449.71 2360.94 450.28C2364.52 455.28 2368.22 460.17 2371.65 465.28 2379.88 477.274 2386.67 490.192 2391.89 503.77 2396.09 514.572 2398.61 525.954 2399.36 537.52 2399.85 546.37 2399.36 555.11 2396.48 563.58 2395.33 567.475 2393.25 571.032 2390.42 573.95 2387.93 576.37 2385.04 577.82 2381.42 577.03 2378.74 576.332 2376.36 574.755 2374.68 572.55 2371.54 568.67 2369.39 564.085 2368.41 559.19 2366.07 549.009 2366.1 538.427 2368.5 528.26 2370.8 518.308 2375.09 508.924 2381.11 500.67 2381.41 500.26 2381.67 499.92 2381.39 499.35 2379.62 495.62 2377.89 491.94 2376.14 488.27ZM2418.05 611.1 2564.05 611.1C2564.04 611.008 2564.03 610.918 2564 610.83 2560.57 604.27 2555.38 600.51 2547.77 600.51 2509.96 600.51 2472.15 600.51 2434.33 600.51 2432.73 600.503 2431.13 600.697 2429.57 601.09 2424.1 602.5 2420.58 606.16 2418.05 611.1ZM2385.21 508.92C2384.72 509.72 2384.34 510.31 2383.99 510.92 2378.89 519.445 2375.82 529.023 2374.99 538.92 2374.28 546.034 2374.99 553.218 2377.06 560.06 2377.84 562.9 2379.28 565.515 2381.26 567.69 2383.08 569.52 2383.4 569.5 2385.19 567.61 2386.68 565.907 2387.81 563.921 2388.51 561.77 2390.78 555.7 2391.4 549.35 2391.43 542.94 2391.39 533.235 2389.88 523.591 2386.95 514.34 2386.42 512.61 2385.83 510.87 2385.21 508.92ZM2426.81 457.22C2415.32 459.628 2404.41 464.292 2394.73 470.94L2400.55 481.67 2400.99 481.41C2408.58 476.361 2417.04 472.739 2425.93 470.72 2426.7 470.55 2426.93 470.23 2426.87 469.48 2426.87 465.69 2426.87 461.89 2426.87 458.1 2426.87 457.86 2426.84 457.61 2426.81 457.22ZM2351.25 426.12C2349.25 428.12 2347.35 430.07 2345.41 431.92 2344.95 432.225 2344.82 432.845 2345.13 433.306 2345.13 433.307 2345.13 433.309 2345.13 433.31 2347.24 437.795 2348.3 442.704 2348.22 447.66 2348.22 448.32 2348.22 448.98 2348.22 449.84L2361.53 437.84ZM2345.66 420.12C2343.15 417.57 2340.85 415.12 2338.41 412.81 2336.82 411.461 2334.45 411.616 2333.05 413.16 2331.61 414.697 2331.61 417.083 2333.05 418.62 2333.72 419.34 2334.43 420.03 2335.11 420.74L2340.18 426Z" class="MsftOfcThm_Background1_Fill_v2" fill="#FFFFFF" transform="translate(-2323.9 -389.11)"/><path d="M2491 410.5 2534.44 410.5C2535.68 410.381 2536.92 410.758 2537.89 411.55 2538.8 412.406 2539.29 413.62 2539.23 414.87 2539.23 432.037 2539.23 449.207 2539.23 466.38 2539.23 469.53 2539.23 472.68 2539.23 475.83 2539.4 483.941 2532.97 490.657 2524.86 490.83 2524.65 490.834 2524.44 490.834 2524.23 490.83L2458 490.83C2449.89 491.044 2443.14 484.642 2442.93 476.532 2442.92 476.255 2442.92 475.977 2442.93 475.7L2442.93 415.19C2442.93 412.06 2444.43 410.52 2447.58 410.52 2462.06 410.52 2476.54 410.52 2491.02 410.52ZM2515.07 418.62 2467.07 418.62 2467.07 482.69 2515.07 482.69ZM2458.89 482.62 2458.89 418.62 2451 418.62 2451 419.35C2451 438.27 2451 457.187 2451 476.1 2450.99 479.767 2453.96 482.745 2457.63 482.751 2458.06 482.751 2458.48 482.711 2458.9 482.63ZM2523.24 482.62C2526.86 483.317 2530.35 480.95 2531.05 477.332 2531.14 476.864 2531.18 476.387 2531.17 475.91 2531.17 457.13 2531.17 438.357 2531.17 419.59L2531.17 418.59 2523.24 418.59Z" class="MsftOfcThm_Background1_Fill_v2" fill="#FFFFFF" transform="translate(-2323.9 -389.11)"/><path d="M2491.06 533.61 2463 533.61C2460.79 533.687 2458.94 531.96 2458.86 529.753 2458.8 527.893 2460.02 526.234 2461.82 525.75 2462.33 525.618 2462.85 525.561 2463.37 525.58L2519 525.58C2521.21 525.58 2523 527.371 2523 529.58 2523 531.789 2521.21 533.58 2519 533.58Z" class="MsftOfcThm_Background1_Fill_v2" fill="#FFFFFF" transform="translate(-2323.9 -389.11)"/><path d="M2491 517.55 2463.13 517.55C2461.61 517.624 2460.18 516.809 2459.47 515.46 2458.39 513.531 2459.08 511.094 2461.01 510.018 2461.53 509.73 2462.1 509.56 2462.69 509.52 2462.91 509.52 2463.13 509.52 2463.34 509.52L2518.8 509.52C2520.83 509.324 2522.68 510.685 2523.1 512.68 2523.54 514.596 2522.51 516.547 2520.67 517.25 2520.03 517.468 2519.35 517.567 2518.67 517.54 2509.45 517.56 2500.23 517.563 2491 517.55Z" class="MsftOfcThm_Background1_Fill_v2" fill="#FFFFFF" transform="translate(-2323.9 -389.11)"/></svg>