<svg viewBox="0 0 235.28 248.85" xmlns="http://www.w3.org/2000/svg" xmlns:xlink="http://www.w3.org/1999/xlink" id="Capa_1" overflow="hidden"><style>
.MsftOfcThm_Accent1_lumMod_60_lumOff_40_Fill_v2 {
 fill:#8FAADC; 
}
</style>
<path d="M2072.23 630.85C2067.13 627.8 2065.65 623.27 2065.66 617.44 2065.82 569.37 2065.75 521.31 2065.75 473.24 2065.75 462.58 2068.75 458.6 2079.03 459.93 2092.19 461.64 2091.76 450.81 2097.03 443.22 2088.03 443.22 2080.03 443.22 2072.08 443.22 2071.49 443.22 2070.82 443.85 2070.33 444.33 2068.33 446.33 2066.62 449.68 2064.33 450.06 2059.45 450.928 2054.46 450.823 2049.62 449.75 2047.47 449.23 2044.84 445.37 2044.62 442.87 2044.02 434.08 2044.29 425.21 2044.47 416.37 2044.56 414.547 2045.22 412.798 2046.36 411.37 2050.62 406.24 2066.19 407.68 2069.76 413.21 2070.57 414.46 2072.27 415.92 2073.58 415.94 2085.71 416.15 2097.84 416.06 2110.4 416.06L2110.4 408.49C2104.35 408.19 2098.22 407.54 2097 399.64 2095.55 390.28 2097.35 385.75 2104.18 381.92L2149.54 381.92C2155.92 386 2158.74 395.76 2155.54 402.63 2153.07 407.86 2148.24 408.24 2142.95 408.37L2142.95 416.07 2158.36 416.07C2171.07 416.07 2183.8 416.28 2196.51 415.99 2204.24 415.82 2210.36 418.71 2214.41 424.94 2220.32 434.02 2225.66 443.47 2231.14 452.84 2235.04 459.51 2238.86 466.22 2242.52 473.02 2246.52 480.43 2244.42 488.41 2237.72 492.17 2231.02 495.93 2223.06 493.63 2218.83 486.31 2212.12 474.68 2205.47 463.02 2199.06 451.22 2196.23 446.01 2192.4 443.09 2186.38 443.13 2177.61 443.19 2168.84 443.13 2159.19 443.13 2161.86 448.55 2164.06 453.34 2166.62 457.92 2167.15 458.92 2169.03 459.36 2170.34 459.49 2173.08 459.74 2175.88 459.41 2178.62 459.69 2183.81 460.22 2187.25 463.61 2187.28 468.69 2187.42 488.22 2187.43 507.75 2187.2 527.28 2187.2 528.85 2185.04 530.41 2183.88 531.97 2182.72 530.4 2180.6 528.85 2180.57 527.25 2180.29 514.92 2180.41 502.59 2180.41 489.62 2178.16 489.52 2176.21 489.36 2174.27 489.36 2163.03 489.36 2151.79 489.36 2140.54 489.3 2137.83 489.3 2133.94 490.42 2134.03 485.69 2134.12 481.4 2137.74 482.41 2140.3 482.4 2153.37 482.32 2166.44 482.4 2180.3 482.4 2180.3 477.92 2180.72 473.7 2180.04 469.67 2179.84 468.48 2176.54 467.04 2174.65 467.03 2145.71 466.86 2116.78 466.91 2087.84 466.91 2084.34 466.91 2080.84 467.07 2077.34 466.91 2073.84 466.75 2072.74 468.23 2072.88 471.48 2073.04 474.92 2072.88 478.38 2072.88 482.48L2110.39 482.48C2112.6 482.48 2114.93 482.1 2116.99 482.67 2118.4 483.07 2119.43 484.82 2120.63 485.97 2119.43 487.11 2118.3 489.14 2117.02 489.24 2112.07 489.65 2107.08 489.45 2102.1 489.45L2073.2 489.45 2073.2 597.39 2180.33 597.39 2180.33 574.61C2180.33 565.21 2180.21 555.81 2180.49 546.42 2180.49 544.97 2182.49 543.58 2183.55 542.16 2184.8 543.59 2187.11 545.01 2187.12 546.45 2187.34 571.51 2187.26 596.57 2187.28 621.63 2187.28 626.41 2183.96 628.63 2180.49 630.85ZM2070.59 436.13 2077 436.13C2112.38 436.13 2147.75 436.29 2183.13 436.03 2193.77 435.95 2201.31 439.41 2206.26 449.36 2211.91 460.7 2218.59 471.53 2224.91 482.53 2226.91 486.06 2229.82 488.26 2234.02 485.99 2237.79 483.99 2238.5 480.52 2236.53 476.99 2227.75 461.463 2218.85 446.003 2209.82 430.61 2206.58 425.11 2201.53 422.92 2194.95 422.95 2155.34 423.12 2115.73 423.03 2076.11 423.05 2074.34 423.05 2072.57 423.23 2070.55 423.35ZM2073.03 605.13C2073.03 609.73 2073.27 613.77 2072.97 617.76 2072.62 622.33 2074.36 623.91 2078.97 623.82 2091.11 623.59 2103.26 623.74 2115.4 623.74 2135.09 623.74 2154.77 623.83 2174.46 623.6 2176.46 623.6 2180.03 621.87 2180.2 620.6 2180.88 615.6 2180.48 610.46 2180.48 605.15ZM2159.22 459.3C2156.54 453.97 2154.35 449.18 2151.7 444.66 2151.1 443.66 2148.89 443.17 2147.42 443.16 2134.53 443.04 2121.64 443.04 2108.76 443.16 2107.27 443.16 2105 443.55 2104.42 444.53 2101.7 449.17 2099.42 454.08 2096.8 459.31ZM2126.66 401C2132.73 401 2138.8 400.82 2144.86 401.06 2149.08 401.23 2149.73 399.06 2149.59 395.58 2149.45 392.41 2150.05 389.06 2145.19 389.08 2132.88 389.14 2120.56 389.08 2108.25 389.08 2103.15 389.08 2104.41 392.83 2104.25 395.76 2104.04 398.85 2104.41 401.17 2108.5 401.02 2114.53 400.82 2120.6 401 2126.66 401ZM2063 416.33 2051.78 416.33 2051.78 443.09 2063 443.09ZM2118.28 415.85 2135 415.85 2135 408.68 2118.36 408.68Z" class="MsftOfcThm_Accent1_lumMod_60_lumOff_40_Fill_v2" fill="#8FAADC" transform="translate(-2009.35 -382)"/><path d="M2132.36 547.65C2131.47 549.82 2130.13 551.71 2130 553.65 2129.68 558.78 2129.91 563.95 2129.89 569.1 2129.89 571.71 2130.04 574.99 2126.29 574.35 2124.92 574.11 2123.23 571.14 2123.08 569.35 2122.65 564.05 2123.01 558.69 2122.9 553.35 2122.8 548.66 2120.69 547.48 2116.9 550.05 2111.46 553.78 2105.72 553.83 2100.19 550.92 2090.47 545.79 2085.65 537.12 2084.44 526.48 2083.95 522.13 2086.36 518.73 2090.77 518.12 2099.33 516.94 2107.77 517.79 2115.13 522.79 2120.43 526.37 2123.87 531.22 2123.26 538.05 2123.03 540.59 2122.93 543.24 2126.26 543.31 2129.59 543.38 2129.57 540.98 2129.48 538.31 2129.1 527.65 2137.88 519.39 2150.72 518.05 2151.82 517.94 2152.93 517.98 2154.03 517.88 2169.18 516.43 2170.59 524.35 2166.03 535.35 2164.56 538.903 2162.54 542.198 2160.03 545.11 2152.16 554.15 2143.23 555.1 2132.36 547.65ZM2116.22 537.57C2114.5 527.82 2102.95 522.48 2092.02 525.65 2092.54 538.49 2103.61 548.84 2112.12 543.9 2110.17 542.62 2108.06 541.7 2106.66 540.15 2105.53 538.89 2105.26 536.86 2104.6 535.15 2106.52 534.85 2108.53 534.04 2110.32 534.38 2112.11 534.72 2113.85 536.23 2116.22 537.57ZM2160.64 525.23C2147.17 523.6 2137.64 528.39 2136.98 537.23 2138.89 536.23 2140.52 534.8 2142.35 534.43 2144.18 534.06 2146.18 534.75 2148.11 534.97 2147.41 536.77 2147.11 538.9 2145.92 540.29 2144.6 541.84 2142.49 542.73 2140.47 544.07 2149.77 548.33 2160.91 537.66 2160.64 525.23Z" class="MsftOfcThm_Accent1_lumMod_60_lumOff_40_Fill_v2" fill="#8FAADC" transform="translate(-2009.35 -382)"/><path d="M2023.62 426.74C2026.74 426.74 2029.92 426.36 2032.94 426.9 2034.43 427.17 2035.61 429.15 2036.94 430.35 2035.77 431.55 2034.65 433.72 2033.42 433.78 2026.42 434.11 2019.49 434.1 2012.55 433.78 2011.35 433.72 2009.4 431.53 2009.36 430.28 2009.32 429.03 2011.36 427.14 2012.66 426.97 2016.27 426.52 2019.97 426.82 2023.66 426.82Z" class="MsftOfcThm_Accent1_lumMod_60_lumOff_40_Fill_v2" fill="#8FAADC" transform="translate(-2009.35 -382)"/><path d="M2037.54 418.59C2035.64 419.43 2033.54 421.19 2032.37 420.72 2026.82 418.45 2021.39 415.883 2016.11 413.03 2015.23 412.202 2014.85 410.971 2015.11 409.79 2015.62 408.69 2017.54 407.14 2018.18 407.4 2024.18 409.92 2030.05 412.75 2035.92 415.59 2036.4 415.84 2036.58 416.79 2037.54 418.59Z" class="MsftOfcThm_Accent1_lumMod_60_lumOff_40_Fill_v2" fill="#8FAADC" transform="translate(-2009.35 -382)"/><path d="M2019.17 453.89C2017.93 452.89 2016.17 452.19 2016.01 451.2 2015.78 449.88 2016.35 447.57 2017.32 447.04 2022.3 444.32 2027.43 441.883 2032.68 439.74 2033.68 439.33 2035.9 440.35 2036.68 441.38 2037.26 442.14 2036.87 444.79 2036.14 445.2 2030.72 448.23 2025.11 450.9 2019.17 453.89Z" class="MsftOfcThm_Accent1_lumMod_60_lumOff_40_Fill_v2" fill="#8FAADC" transform="translate(-2009.35 -382)"/></svg>