<svg viewBox="0 0 214.05 214.21" xmlns="http://www.w3.org/2000/svg" xmlns:xlink="http://www.w3.org/1999/xlink" id="Capa_1" overflow="hidden"><style>
.MsftOfcThm_Background1_Fill_v2 {
 fill:#FFFFFF; 
}
</style>
<path d="M1483.6 507C1486.85 507 1490.1 507 1493.35 507 1495.79 506.787 1497.95 508.594 1498.16 511.037 1498.18 511.291 1498.18 511.546 1498.16 511.8 1498.16 514.19 1498.16 516.59 1498.16 518.98 1498.04 519.733 1498.46 520.469 1499.16 520.76 1500.42 521.36 1501.57 522.19 1502.83 522.76 1503.36 522.984 1503.96 522.984 1504.49 522.76 1506.68 521.61 1508.81 520.33 1510.97 519.1 1513.63 517.59 1516.09 518.26 1517.65 520.91 1520.86 526.41 1524.07 531.907 1527.27 537.4 1528.93 540.27 1528.27 542.69 1525.38 544.4 1523.38 545.57 1521.32 546.76 1519.26 547.89 1518.56 548.134 1518.14 548.848 1518.26 549.58 1518.39 550.612 1518.39 551.658 1518.26 552.69 1518 554.29 1518.62 555.13 1520.04 555.81 1521.94 556.73 1523.74 557.88 1525.57 558.95 1527.8 560.028 1528.73 562.708 1527.65 564.935 1527.57 565.105 1527.47 565.271 1527.37 565.43 1524.1 571.09 1520.81 576.757 1517.48 582.43 1516.4 584.631 1513.74 585.54 1511.54 584.459 1511.35 584.366 1511.16 584.259 1510.99 584.14 1508.82 582.93 1506.65 581.73 1504.53 580.44 1503.94 580.008 1503.14 580.041 1502.59 580.52 1501.51 581.266 1500.38 581.934 1499.2 582.52 1498.42 582.773 1497.93 583.545 1498.03 584.36 1498.11 586.75 1498.03 589.14 1498.03 591.54 1498.03 594.54 1496.28 596.3 1493.33 596.31 1486.74 596.31 1480.15 596.31 1473.56 596.31 1470.56 596.31 1468.89 594.53 1468.86 591.54 1468.86 589.24 1468.8 586.93 1468.86 584.63 1469.03 583.684 1468.48 582.757 1467.57 582.45 1466.38 581.906 1465.24 581.254 1464.17 580.5 1463.68 580.086 1462.97 580.065 1462.46 580.45 1460.33 581.72 1458.17 582.93 1456.01 584.15 1453.34 585.66 1450.86 585 1449.32 582.37L1439.65 565.76C1438.08 563.06 1438.75 560.54 1441.46 558.98 1443.53 557.78 1445.6 556.58 1447.7 555.43 1448.39 555.17 1448.81 554.461 1448.7 553.73 1448.59 552.425 1448.59 551.115 1448.7 549.81 1448.83 548.998 1448.38 548.203 1447.61 547.91 1445.54 546.79 1443.51 545.61 1441.49 544.43 1438.78 542.84 1438.14 540.36 1439.72 537.64 1442.87 532.22 1446.03 526.797 1449.18 521.37 1450.99 518.27 1453.31 517.66 1456.44 519.47 1458.44 520.61 1460.44 521.72 1462.44 522.91 1463.02 523.345 1463.83 523.315 1464.38 522.84 1465.55 522.07 1466.84 521.49 1468 520.71 1468.47 520.374 1468.78 519.862 1468.87 519.29 1468.96 516.9 1468.87 514.51 1468.87 512.12 1468.87 508.81 1470.6 507.12 1473.87 507.12ZM1455.19 574.3C1457.41 573.03 1459.44 571.84 1461.49 570.71 1463.11 569.669 1465.22 569.811 1466.68 571.06 1469.17 573.085 1471.97 574.69 1474.98 575.81 1476.81 576.428 1478.03 578.167 1477.98 580.1 1477.98 581.19 1477.98 582.27 1477.98 583.35L1477.98 587.35 1489.26 587.35C1489.26 585 1489.26 582.84 1489.26 580.68 1489.26 577.95 1490.26 576.75 1492.7 575.61 1495.14 574.469 1497.48 573.131 1499.7 571.61 1502.38 569.78 1503.7 569.55 1506.51 571.18L1511.97 574.31 1517.5 564.81C1517.35 564.63 1517.31 564.54 1517.24 564.5 1515.36 563.42 1513.48 562.337 1511.61 561.25 1509.47 560.01 1508.89 558.5 1509.04 556.07 1509.22 553.156 1509.22 550.234 1509.04 547.32 1508.87 544.72 1509.44 543.26 1511.73 541.94L1517.56 538.6 1512 529 1505.79 532.54C1504.1 533.648 1501.88 533.484 1500.38 532.14 1497.96 530.176 1495.23 528.619 1492.31 527.53 1490.44 526.916 1489.22 525.132 1489.31 523.17 1489.31 521.27 1489.31 519.38 1489.31 517.48 1489.31 517.01 1489.24 516.54 1489.21 516.1L1478.03 516.1 1478.03 522.55C1478.03 525.35 1477.03 526.55 1474.56 527.73 1472.08 528.904 1469.69 530.264 1467.42 531.8 1464.94 533.49 1463.57 533.73 1460.97 532.24L1455.27 528.99C1453.37 532.28 1451.54 535.41 1449.68 538.62 1451.83 539.87 1453.82 541.01 1455.8 542.17 1457.58 543.021 1458.57 544.968 1458.2 546.91 1457.67 550.027 1457.67 553.213 1458.2 556.33 1458.61 558.213 1457.72 560.139 1456.02 561.05 1455.21 561.54 1454.38 562.05 1453.56 562.48L1449.69 564.73Z" class="MsftOfcThm_Background1_Fill_v2" fill="#FFFFFF" transform="translate(-1438.95 -399.92)"/><path d="M1586.07 409 1532.53 409 1532.53 430.5C1532.53 433.96 1530.83 435.64 1527.36 435.65L1505.79 435.65 1505.79 493C1505.79 496.15 1503.89 498.2 1501.09 498.08 1498.93 497.996 1497.15 496.349 1496.9 494.2 1496.85 493.705 1496.84 493.207 1496.85 492.71 1496.85 472.583 1496.85 452.447 1496.85 432.3 1496.77 430.352 1497.55 428.467 1498.98 427.14 1507.39 418.82 1515.75 410.457 1524.06 402.05 1525.38 400.615 1527.27 399.829 1529.22 399.9 1549.35 399.95 1569.48 399.9 1589.61 399.9 1593.45 399.9 1595.04 401.48 1595.04 405.32L1595.04 514.54C1595.07 515.173 1595.07 515.807 1595.04 516.44 1594.77 518.888 1592.56 520.653 1590.12 520.382 1587.92 520.139 1586.23 518.32 1586.15 516.11 1586.15 515.3 1586.15 514.49 1586.15 513.68L1586.15 409ZM1523.51 416 1512.74 426.66 1523.51 426.66Z" class="MsftOfcThm_Background1_Fill_v2" fill="#FFFFFF" transform="translate(-1438.95 -399.92)"/><path d="M1653 565 1653 573.66C1653 576.73 1651.19 578.53 1648.11 578.56 1646.11 578.56 1644.11 578.56 1642.11 578.56 1641.36 578.56 1640.79 578.69 1640.54 579.49 1640.46 579.797 1640.31 580.084 1640.11 580.33 1638.38 582.21 1638.67 584 1640.11 585.91 1640.87 587.023 1641.54 588.193 1642.11 589.41 1643.42 591.492 1642.79 594.238 1640.71 595.545 1640.61 595.607 1640.5 595.666 1640.4 595.72 1635.39 598.68 1630.36 601.61 1625.31 604.51 1623.27 605.885 1620.51 605.348 1619.13 603.311 1619.02 603.138 1618.91 602.957 1618.82 602.77 1617.76 600.99 1616.82 599.14 1615.69 597.39 1615.33 596.941 1614.81 596.642 1614.24 596.55 1611.13 595.86 1609.16 597.14 1608.11 600.12 1607.68 601.114 1607.15 602.062 1606.53 602.95 1605.39 605.085 1602.74 605.895 1600.61 604.759 1600.55 604.727 1600.49 604.694 1600.43 604.66 1595.17 601.68 1589.94 598.64 1584.75 595.54 1582.68 594.293 1582.02 591.607 1583.27 589.541 1583.28 589.517 1583.3 589.493 1583.31 589.47 1584.34 587.57 1585.41 585.693 1586.54 583.84 1586.98 583.355 1586.95 582.612 1586.48 582.16 1586.26 581.926 1586.1 581.65 1585.99 581.35 1585.24 578.82 1583.47 578.22 1581.04 578.55 1579.78 578.655 1578.52 578.655 1577.26 578.55 1574.83 578.704 1572.73 576.859 1572.58 574.428 1572.57 574.239 1572.57 574.049 1572.58 573.86 1572.58 568 1572.58 562.133 1572.58 556.26 1572.42 553.824 1574.26 551.717 1576.69 551.553 1576.88 551.541 1577.06 551.54 1577.24 551.55 1579.24 551.51 1581.27 551.51 1583.33 551.55 1584.15 551.55 1584.71 551.4 1585 550.55 1585.15 550.074 1585.39 549.633 1585.71 549.25 1587.15 547.71 1586.8 546.25 1585.71 544.74 1584.83 543.425 1584.04 542.056 1583.34 540.64 1582.06 538.548 1582.72 535.815 1584.81 534.535 1584.88 534.495 1584.94 534.457 1585.01 534.42 1590.06 531.44 1595.13 528.487 1600.21 525.56 1602.7 524.13 1605.21 524.89 1606.68 527.4 1607.68 529.2 1608.68 531.03 1609.81 532.79 1610.18 533.169 1610.65 533.438 1611.17 533.57 1611.39 533.66 1611.71 533.5 1611.97 533.57 1614.64 534.19 1616.1 532.89 1617.06 530.57 1617.6 529.425 1618.22 528.321 1618.92 527.27 1620.02 525.115 1622.66 524.26 1624.81 525.359 1624.91 525.409 1625.01 525.463 1625.1 525.52 1630.31 528.493 1635.5 531.517 1640.65 534.59 1642.73 535.78 1643.45 538.431 1642.26 540.512 1642.22 540.586 1642.18 540.659 1642.13 540.73 1641.13 542.59 1640.06 544.44 1638.96 546.25 1638.51 546.777 1638.51 547.553 1638.96 548.08 1639.35 548.52 1639.66 549.028 1639.86 549.58 1640.4 551.42 1641.66 551.74 1643.37 551.58 1644.95 551.49 1646.52 551.49 1648.1 551.58 1651.1 551.67 1652.83 553.45 1652.85 556.47 1652.85 556.516 1652.85 556.563 1652.85 556.61ZM1632.31 590.12C1631.31 588.42 1630.5 586.88 1629.59 585.38 1628.32 583.26 1628.59 581.38 1629.98 579.38 1631.39 577.35 1632.62 575.202 1633.66 572.96 1634.79 570.58 1635.97 569.63 1638.66 569.62L1644 569.62 1644 560.77C1643.86 560.69 1643.79 560.61 1643.71 560.61 1641.95 560.61 1640.19 560.61 1638.43 560.55 1636.03 560.55 1634.78 559.55 1633.75 557.35 1632.69 555.115 1631.48 552.959 1630.11 550.9 1628.52 548.57 1628.29 547.12 1629.69 544.67 1630.55 543.15 1631.42 541.67 1632.34 540.02L1624.63 535.54 1621.98 540.17C1620.61 542.54 1619.16 543.17 1616.49 542.9 1614.12 542.705 1611.73 542.705 1609.36 542.9 1606.49 543.13 1605.12 542.58 1603.68 540.05L1601.1 535.54 1593.4 540.05 1596.12 544.79C1597.42 547.06 1597.19 548.64 1595.71 550.79 1594.36 552.751 1593.16 554.818 1592.14 556.97 1590.88 559.69 1589.82 560.54 1586.76 560.54L1581.76 560.54 1581.76 569.42C1581.93 569.5 1582.01 569.57 1582.09 569.57L1587.09 569.57C1589.73 569.57 1590.92 570.57 1592.09 572.96 1593.15 575.19 1594.38 577.337 1595.77 579.38 1597.15 581.43 1597.42 583 1596.22 585.16 1595.32 586.77 1594.4 588.37 1593.41 590.09L1600.99 594.51C1601.1 594.419 1601.21 594.319 1601.31 594.21L1603.88 589.75C1605.12 587.62 1606.61 587.02 1609.07 587.18 1611.58 587.35 1614.1 587.35 1616.61 587.18 1619.22 587 1620.61 587.57 1621.97 589.9 1622.85 591.41 1623.72 592.9 1624.65 594.56Z" class="MsftOfcThm_Background1_Fill_v2" fill="#FFFFFF" transform="translate(-1438.95 -399.92)"/><path d="M1561.72 600.44C1562.3 601.704 1562.74 603.025 1563.05 604.38 1563.22 606.097 1562.24 607.722 1560.65 608.38 1559.14 609.235 1557.26 609.047 1555.95 607.91 1555.45 607.314 1554.56 607.237 1553.96 607.739 1553.96 607.742 1553.95 607.746 1553.95 607.75 1553.65 607.96 1553.31 608.109 1552.95 608.19 1551.43 608.372 1550.24 609.609 1550.13 611.14 1549.79 613.14 1547.63 614.27 1545.52 614.06 1543.5 613.897 1541.88 612.332 1541.64 610.32 1541.68 609.503 1541.1 608.785 1540.3 608.64 1539.19 608.3 1538.13 607.77 1536.95 607.28 1536.7 607.48 1536.4 607.75 1536.08 607.98 1534.26 609.333 1531.72 609.123 1530.15 607.49 1528.6 605.899 1528.49 603.393 1529.91 601.68 1530.47 601.203 1530.55 600.36 1530.08 599.79 1529.93 599.564 1529.82 599.318 1529.74 599.06 1529.23 597.41 1528.66 596.06 1526.5 595.82 1524.64 595.57 1523.56 593.38 1523.72 591.39 1523.82 589.417 1525.29 587.783 1527.24 587.47 1528.28 587.474 1529.15 586.684 1529.24 585.65 1529.3 585.384 1529.4 585.13 1529.54 584.9 1530.42 583.811 1530.39 582.245 1529.47 581.19 1528.24 579.57 1528.85 577.19 1530.4 575.8 1531.96 574.362 1534.34 574.281 1536 575.61 1536.55 576.219 1537.48 576.294 1538.12 575.78 1538.27 575.676 1538.44 575.595 1538.61 575.54 1540.31 575.03 1541.61 574.4 1541.95 572.23 1542.25 570.34 1544.44 569.31 1546.41 569.49 1548.43 569.619 1550.07 571.164 1550.32 573.17 1550.32 574.074 1550.98 574.843 1551.87 574.99 1552.81 575.295 1553.72 575.669 1554.6 576.11 1555.85 575.524 1557.15 575.068 1558.49 574.75 1560.22 574.554 1561.87 575.518 1562.55 577.12 1563.41 578.571 1563.27 580.407 1562.2 581.71 1561.51 582.314 1561.44 583.362 1562.04 584.052 1562.05 584.055 1562.05 584.057 1562.05 584.06 1562.18 584.245 1562.28 584.452 1562.34 584.67 1562.8 586.27 1563.41 587.41 1565.43 587.67 1567.45 587.93 1568.5 590.25 1568.26 592.2 1568.12 594.221 1566.56 595.856 1564.55 596.1 1563.69 596.083 1562.94 596.7 1562.8 597.55 1562.5 598.534 1562.14 599.499 1561.72 600.44ZM1554.93 591.94C1554.99 587.02 1551.06 582.978 1546.14 582.913 1541.22 582.848 1537.18 586.785 1537.11 591.705 1537.05 596.589 1540.93 600.615 1545.81 600.73 1550.75 600.83 1554.83 596.91 1554.93 591.973 1554.93 591.962 1554.93 591.951 1554.93 591.94Z" class="MsftOfcThm_Background1_Fill_v2" fill="#FFFFFF" transform="translate(-1438.95 -399.92)"/><path d="M1546 458C1554.89 458 1563.78 458 1572.68 458 1575.13 457.967 1577.14 459.923 1577.17 462.369 1577.19 463.955 1576.36 465.431 1575 466.24 1574.25 466.656 1573.42 466.882 1572.56 466.9 1554.82 466.9 1537.08 466.9 1519.34 466.9 1516.87 467.017 1514.78 465.112 1514.66 462.646 1514.55 460.18 1516.45 458.087 1518.92 457.97 1519.06 457.963 1519.2 457.963 1519.34 457.97 1528.23 457.97 1537.13 457.97 1546.02 457.97Z" class="MsftOfcThm_Background1_Fill_v2" fill="#FFFFFF" transform="translate(-1438.95 -399.92)"/><path d="M1546 493.63 1572.28 493.63C1575.06 493.63 1576.95 495.24 1577.17 497.68 1577.44 500.078 1575.72 502.243 1573.32 502.516 1573.31 502.517 1573.29 502.519 1573.28 502.52 1572.28 502.602 1571.28 502.629 1570.28 502.6L1520.28 502.6C1519.65 502.617 1519.02 502.583 1518.39 502.5 1515.97 502.083 1514.34 499.781 1514.76 497.359 1515.08 495.525 1516.5 494.081 1518.33 493.74 1518.96 493.657 1519.59 493.623 1520.22 493.64Z" class="MsftOfcThm_Background1_Fill_v2" fill="#FFFFFF" transform="translate(-1438.95 -399.92)"/><path d="M1552.46 520.44C1545.97 520.44 1539.47 520.44 1532.98 520.44 1530.52 520.665 1528.34 518.849 1528.11 516.385 1527.91 514.149 1529.39 512.108 1531.58 511.61 1532.11 511.508 1532.65 511.461 1533.19 511.47 1546.13 511.47 1559.07 511.47 1572.02 511.47 1572.83 511.46 1573.64 511.599 1574.4 511.88 1576.32 512.633 1577.45 514.635 1577.1 516.67 1576.78 518.652 1575.17 520.172 1573.17 520.38 1572.67 520.43 1572.17 520.43 1571.68 520.43Z" class="MsftOfcThm_Background1_Fill_v2" fill="#FFFFFF" transform="translate(-1438.95 -399.92)"/><path d="M1557 449 1542 449C1539 449 1537 447.19 1537 444.5 1537 441.81 1539 440.07 1541.91 440.07 1552.02 440.07 1562.12 440.07 1572.23 440.07 1575.16 440.07 1577.15 441.88 1577.15 444.5 1577.15 447.12 1575.15 449 1572.15 449Z" class="MsftOfcThm_Background1_Fill_v2" fill="#FFFFFF" transform="translate(-1438.95 -399.92)"/><path d="M1554.84 538.26 1541.84 538.26C1539.01 538.26 1537.04 536.47 1537 533.9 1536.93 531.438 1538.87 529.387 1541.34 529.32 1541.48 529.316 1541.63 529.319 1541.78 529.33 1550.49 529.33 1559.2 529.33 1567.91 529.33 1570.4 529.17 1572.54 531.055 1572.7 533.54 1572.71 533.62 1572.71 533.7 1572.71 533.78 1572.71 536.39 1570.71 538.25 1567.83 538.26Z" class="MsftOfcThm_Background1_Fill_v2" fill="#FFFFFF" transform="translate(-1438.95 -399.92)"/><path d="M1530.25 475.81 1541.08 475.81C1543.93 475.81 1545.95 477.7 1545.93 480.32 1545.88 482.816 1543.82 484.799 1541.32 484.749 1541.25 484.748 1541.18 484.745 1541.11 484.74 1533.89 484.74 1526.67 484.74 1519.46 484.74 1516.96 484.884 1514.82 482.975 1514.68 480.478 1514.67 480.409 1514.67 480.339 1514.67 480.27 1514.68 477.801 1516.68 475.805 1519.15 475.811 1519.24 475.811 1519.34 475.814 1519.43 475.82 1523.04 475.82 1526.64 475.82 1530.25 475.82Z" class="MsftOfcThm_Background1_Fill_v2" fill="#FFFFFF" transform="translate(-1438.95 -399.92)"/><path d="M1552.75 417.79C1554.86 417.79 1556.98 417.79 1559.1 417.79 1561.57 417.673 1563.66 419.578 1563.78 422.044 1563.89 424.51 1561.99 426.603 1559.52 426.72 1559.38 426.727 1559.24 426.727 1559.1 426.72 1554.77 426.72 1550.44 426.72 1546.1 426.72 1543.64 426.885 1541.51 425.022 1541.34 422.559 1541.18 420.096 1543.04 417.965 1545.5 417.8 1545.7 417.787 1545.9 417.787 1546.1 417.8 1548.33 417.77 1550.54 417.79 1552.75 417.79Z" class="MsftOfcThm_Background1_Fill_v2" fill="#FFFFFF" transform="translate(-1438.95 -399.92)"/><path d="M1548.16 556.12C1546 556.12 1543.83 556.12 1541.67 556.12 1539.21 556.12 1537.21 554.123 1537.21 551.66 1537.21 549.197 1539.21 547.2 1541.67 547.2 1546 547.2 1550.33 547.2 1554.67 547.2 1557.14 547.083 1559.23 548.988 1559.35 551.454 1559.46 553.92 1557.56 556.013 1555.09 556.13 1554.95 556.137 1554.81 556.137 1554.67 556.13 1552.48 556.14 1550.32 556.12 1548.16 556.12Z" class="MsftOfcThm_Background1_Fill_v2" fill="#FFFFFF" transform="translate(-1438.95 -399.92)"/><path d="M1554.85 480.3C1554.8 477.876 1556.72 475.871 1559.15 475.821 1559.19 475.82 1559.23 475.82 1559.27 475.82 1561.72 475.781 1563.74 477.737 1563.78 480.189 1563.78 480.199 1563.78 480.21 1563.78 480.22 1563.78 482.684 1561.8 484.692 1559.34 484.73 1556.88 484.747 1554.87 482.763 1554.85 480.3 1554.85 480.3 1554.85 480.3 1554.85 480.3Z" class="MsftOfcThm_Background1_Fill_v2" fill="#FFFFFF" transform="translate(-1438.95 -399.92)"/><path d="M1488.05 551.61C1488.07 554.079 1486.09 556.1 1483.62 556.125 1481.16 556.15 1479.13 554.169 1479.11 551.7 1479.09 549.231 1481.07 547.21 1483.54 547.185 1486 547.16 1488.03 549.141 1488.05 551.61Z" class="MsftOfcThm_Background1_Fill_v2" fill="#FFFFFF" transform="translate(-1438.95 -399.92)"/><path d="M1626.22 565.08C1626.14 572.48 1620.08 578.417 1612.68 578.339 1605.28 578.262 1599.34 572.2 1599.42 564.8 1599.5 557.435 1605.5 551.513 1612.87 551.54 1620.29 551.595 1626.27 557.656 1626.22 565.08ZM1617.22 565.08C1617.36 562.632 1615.49 560.532 1613.05 560.389 1610.6 560.247 1608.5 562.115 1608.35 564.563 1608.35 564.699 1608.35 564.834 1608.35 564.97 1608.33 567.435 1610.28 569.468 1612.74 569.56 1615.22 569.577 1617.24 567.58 1617.26 565.1 1617.26 565.1 1617.26 565.1 1617.26 565.1Z" class="MsftOfcThm_Background1_Fill_v2" fill="#FFFFFF" transform="translate(-1438.95 -399.92)"/></svg>