<svg viewBox="0 0 237.67 231.95" xmlns="http://www.w3.org/2000/svg" xmlns:xlink="http://www.w3.org/1999/xlink" id="Capa_1" overflow="hidden"><style>
.MsftOfcThm_Background1_Fill_v2 {
 fill:#FFFFFF; 
}
</style>
<path d="M1784.74 461.34C1785.38 461.34 1785.95 461.34 1786.51 461.34 1787.7 461.285 1788.89 461.548 1789.95 462.1 1792.28 463.26 1794.64 464.36 1796.95 465.48 1797.16 465.58 1797.39 465.67 1797.73 465.81L1797.73 448.43C1797.68 435.992 1807.14 425.575 1819.52 424.43 1820.18 424.36 1820.32 424.14 1820.32 423.52 1820.32 419.58 1820.32 415.64 1820.32 411.69 1820.4 402.99 1827.12 395.794 1835.79 395.11 1836.79 395.04 1837.87 395.04 1838.91 395.04 1845.51 395.04 1852.1 395.04 1858.7 395.04 1866.75 395.016 1873.7 400.673 1875.31 408.56 1875.52 409.705 1875.62 410.866 1875.62 412.03 1875.62 415.8 1875.62 419.57 1875.62 423.34L1875.62 424.27C1876.41 424.27 1877.15 424.32 1877.88 424.27 1880.06 424.136 1882.23 424.599 1884.17 425.61 1903.01 434.39 1921.93 443.01 1940.74 451.88 1951.04 456.74 1957.2 464.97 1959.08 476.27 1959.3 477.616 1959.4 478.977 1959.4 480.34 1959.4 521.233 1959.4 562.12 1959.4 603 1959.36 614.706 1950.88 624.673 1939.33 626.59 1937.79 626.842 1936.23 626.969 1934.67 626.97 1870.43 626.97 1806.19 626.97 1741.95 626.97 1730.83 627.02 1721.78 618.048 1721.73 606.93 1721.73 606.864 1721.73 606.797 1721.73 606.73L1721.73 482C1721.47 471.86 1728.81 463.117 1738.84 461.62 1739.35 461.53 1739.39 461.29 1739.39 460.88 1739.39 457.97 1739.39 455.07 1739.39 452.17 1739.34 444.959 1744.66 438.838 1751.81 437.89 1752.35 437.81 1752.89 437.77 1753.44 437.77 1759.24 437.77 1765.04 437.65 1770.84 437.77 1778.57 437.939 1784.75 444.265 1784.73 452 1784.73 454.8 1784.73 457.61 1784.73 460.41ZM1850.32 594 1917.32 594C1919.35 594.067 1921.34 593.427 1922.95 592.19 1925.53 590.23 1926.99 587.145 1926.89 583.91 1926.89 574.963 1926.89 566.013 1926.89 557.06 1926.89 535.34 1926.89 513.62 1926.89 491.9 1926.89 485.11 1923.81 479.99 1917.63 476.9 1904.83 470.46 1892.04 464.017 1879.25 457.57 1878.88 457.388 1878.47 457.292 1878.05 457.29 1865.23 457.29 1852.41 457.29 1839.6 457.29 1839.1 457.286 1838.61 457.323 1838.12 457.4 1833.62 458.315 1830.38 462.284 1830.4 466.88 1830.33 471.57 1830.4 476.25 1830.4 480.94 1830.44 481.254 1830.62 481.533 1830.89 481.7 1832.15 482.35 1833.44 482.91 1834.71 483.55 1844.84 488.67 1850.27 496.88 1850.31 508.26 1850.42 536.4 1850.31 564.55 1850.31 592.69ZM1730.94 544.15C1730.94 564.883 1730.94 585.61 1730.94 606.33 1730.92 606.975 1730.95 607.62 1731.03 608.26 1731.77 613.871 1736.64 618.007 1742.3 617.82 1771.46 617.82 1800.62 617.82 1829.77 617.82 1831.03 617.825 1832.29 617.647 1833.5 617.29 1838.22 615.831 1841.37 611.385 1841.18 606.45 1841.18 592.837 1841.18 579.227 1841.18 565.62 1841.18 546.57 1841.18 527.53 1841.18 508.49 1841.18 500.73 1837.58 495.12 1830.59 491.72 1828.05 490.48 1825.49 489.28 1822.94 488.06 1810.89 482.313 1798.84 476.563 1786.78 470.81 1786.42 470.647 1786.03 470.562 1785.64 470.56 1771.09 470.56 1756.53 470.56 1741.98 470.56 1740.97 470.563 1739.96 470.698 1738.98 470.96 1734.1 472.318 1730.79 476.848 1730.98 481.91ZM1847.05 617.82 1934.48 617.82C1934.88 617.82 1935.27 617.82 1935.67 617.82 1943.83 617.613 1950.33 610.921 1950.29 602.76L1950.29 481.25C1950.31 480.382 1950.27 479.513 1950.18 478.65 1949.12 470.03 1944.62 463.77 1936.82 460.11 1917.82 451.22 1898.82 442.48 1879.82 433.69 1879.42 433.508 1878.98 433.412 1878.54 433.41 1874.1 433.41 1869.66 433.41 1865.23 433.41L1822.16 433.41C1813.83 433.309 1807 439.978 1806.9 448.306 1806.9 448.461 1806.9 448.615 1806.9 448.77 1807.06 455.66 1806.9 462.55 1806.9 469.44 1806.83 469.932 1807.11 470.407 1807.58 470.58 1811.89 472.58 1816.17 474.67 1820.47 476.73 1820.66 476.82 1820.86 476.89 1821.17 477.01L1821.17 476.11C1821.17 473.24 1821.17 470.36 1821.17 467.49 1821.17 466.373 1821.25 465.257 1821.4 464.15 1822.69 454.922 1830.58 448.055 1839.9 448.05 1853.01 448.14 1866.13 448.05 1879.24 448.05 1880.23 448.056 1881.2 448.281 1882.09 448.71 1895.32 455.33 1908.56 461.93 1921.74 468.66 1931.08 473.43 1935.89 481.28 1935.93 491.66 1936.06 522.45 1935.93 553.25 1935.99 584.04 1936.07 594.489 1927.67 603.027 1917.22 603.11 1917.14 603.11 1917.07 603.11 1916.99 603.11 1895.1 602.98 1873.21 603.11 1851.32 603.11L1850.32 603.11C1850.61 608.34 1850.09 613.27 1847.05 617.8ZM1829.51 424.19 1866.51 424.19 1866.51 423.31C1866.51 419.62 1866.41 415.92 1866.51 412.23 1866.62 407.924 1863.22 404.343 1858.91 404.231 1858.8 404.229 1858.69 404.228 1858.58 404.23 1851.52 404.23 1844.45 404.23 1837.38 404.23 1833.12 404.105 1829.57 407.455 1829.45 411.711 1829.44 411.884 1829.44 412.057 1829.45 412.23L1829.45 423.46C1829.47 423.67 1829.5 423.91 1829.51 424.17ZM1748.61 461.31 1775.55 461.31C1775.55 461.05 1775.55 460.83 1775.55 460.62 1775.55 457.84 1775.55 455.06 1775.55 452.29 1775.66 449.42 1773.42 447.008 1770.55 446.902 1770.43 446.897 1770.32 446.897 1770.21 446.9 1764.76 446.9 1759.3 446.9 1753.85 446.9 1751 446.832 1748.64 449.086 1748.57 451.935 1748.57 452.04 1748.57 452.145 1748.57 452.25L1748.57 461.31Z" class="MsftOfcThm_Background1_Fill_v2" fill="#FFFFFF" transform="translate(-1721.78 -395)"/><path d="M1878.62 568.71 1895.79 568.71C1898.31 568.677 1900.39 570.697 1900.42 573.221 1900.45 575.335 1899.02 577.191 1896.97 577.71 1896.47 577.839 1895.95 577.903 1895.43 577.9L1861.75 577.9C1859.74 577.988 1857.9 576.779 1857.19 574.9 1856.29 572.525 1857.48 569.869 1859.86 568.968 1860.41 568.758 1861 568.657 1861.59 568.67Z" class="MsftOfcThm_Background1_Fill_v2" fill="#FFFFFF" transform="translate(-1721.78 -395)"/><path d="M1878.55 540C1872.88 540 1867.2 540 1861.55 540 1859.52 540.042 1857.71 538.726 1857.12 536.78 1856.48 534.877 1857.22 532.781 1858.91 531.7 1859.73 531.195 1860.66 530.909 1861.62 530.87 1872.97 530.82 1884.32 530.87 1895.67 530.87 1898.2 530.889 1900.23 532.956 1900.22 535.485 1900.2 538.014 1898.13 540.049 1895.6 540.03Z" class="MsftOfcThm_Background1_Fill_v2" fill="#FFFFFF" transform="translate(-1721.78 -395)"/><path d="M1878.56 502.05C1872.89 502.05 1867.21 502.05 1861.56 502.05 1859.04 502.088 1856.96 500.073 1856.92 497.549 1856.9 496.343 1857.36 495.179 1858.2 494.31 1859.17 493.321 1860.52 492.803 1861.9 492.89L1883 492.89C1887.21 492.89 1891.42 492.89 1895.64 492.89 1898.17 492.841 1900.26 494.852 1900.31 497.381 1900.33 498.403 1900 499.403 1899.39 500.22 1898.51 501.422 1897.08 502.104 1895.59 502.04Z" class="MsftOfcThm_Background1_Fill_v2" fill="#FFFFFF" transform="translate(-1721.78 -395)"/><path d="M1878.55 511.86 1895.8 511.86C1898.32 511.881 1900.34 513.94 1900.32 516.458 1900.3 518.562 1898.85 520.381 1896.8 520.86 1896.31 520.965 1895.82 521.015 1895.32 521.01 1884.15 521.01 1872.97 521.01 1861.79 521.01 1859.24 521.167 1857.05 519.23 1856.89 516.683 1856.84 515.859 1857.01 515.036 1857.39 514.3 1858.15 512.735 1859.76 511.769 1861.5 511.84Z" class="MsftOfcThm_Background1_Fill_v2" fill="#FFFFFF" transform="translate(-1721.78 -395)"/><path d="M1878.55 558.91C1872.87 558.91 1867.2 558.91 1861.55 558.91 1859.03 559.009 1856.91 557.048 1856.81 554.53 1856.71 552.012 1858.67 549.889 1861.19 549.79L1861.71 549.79 1895.61 549.79C1898.13 549.703 1900.25 551.676 1900.34 554.199 1900.4 556.197 1899.17 558.009 1897.28 558.67 1896.66 558.848 1896.02 558.932 1895.38 558.92 1889.79 558.92 1884.18 558.917 1878.55 558.91Z" class="MsftOfcThm_Background1_Fill_v2" fill="#FFFFFF" transform="translate(-1721.78 -395)"/><path d="M1824.59 557.75C1824.59 570.323 1824.59 582.893 1824.59 595.46 1824.76 600.256 1821.02 604.286 1816.22 604.46 1816.01 604.468 1815.8 604.468 1815.59 604.46L1754.59 604.46C1749.79 604.56 1745.82 600.752 1745.72 595.953 1745.72 595.842 1745.72 595.731 1745.72 595.62 1745.72 570.38 1745.72 545.14 1745.72 519.9 1745.63 515.074 1749.46 511.085 1754.29 510.99 1754.4 510.988 1754.52 510.988 1754.63 510.99L1815.7 510.99C1820.51 510.884 1824.49 514.697 1824.6 519.506 1824.6 519.634 1824.6 519.762 1824.6 519.89 1824.61 532.51 1824.6 545.13 1824.59 557.75ZM1815.4 595.29 1815.4 520.22 1755 520.22 1755 595.29Z" class="MsftOfcThm_Background1_Fill_v2" fill="#FFFFFF" transform="translate(-1721.78 -395)"/><path d="M1785.73 583.77C1775.29 583.77 1767.12 576.65 1765.73 566.91 1765.29 563.484 1765.87 560.004 1767.41 556.91 1768.89 553.611 1770.56 550.399 1772.41 547.29 1775.27 542.66 1778.41 538.17 1781.48 533.7 1782.85 531.643 1785.62 531.083 1787.68 532.448 1788.14 532.755 1788.54 533.146 1788.86 533.6 1793.89 540.183 1798.29 547.228 1802 554.64 1803.28 557.052 1804.16 559.656 1804.6 562.35 1805.34 567.884 1803.5 573.451 1799.6 577.45 1796.06 581.4 1791.03 583.691 1785.73 583.77ZM1785.17 544.05C1783.76 546.25 1782.45 548.23 1781.17 550.25 1778.87 553.812 1776.92 557.586 1775.34 561.52 1774.81 562.731 1774.6 564.055 1774.72 565.37 1775.06 569.413 1777.84 572.839 1781.72 574.01 1785.63 575.522 1790.06 574.441 1792.83 571.3 1795.7 568.3 1796.5 564.68 1794.67 560.82 1793.1 557.51 1791.39 554.26 1789.6 551.07 1788.27 548.72 1786.72 546.51 1785.17 544.05Z" class="MsftOfcThm_Background1_Fill_v2" fill="#FFFFFF" transform="translate(-1721.78 -395)"/></svg>