<svg viewBox="0 0 527.25 66.15" xmlns="http://www.w3.org/2000/svg" xmlns:xlink="http://www.w3.org/1999/xlink" id="Capa_1" overflow="hidden"><defs><clipPath id="clip-path" transform="translate(-930.12 -467.26)"><rect x="1335.9" y="523.85" width="9.55" height="9.56" fill="none"/></clipPath><clipPath id="clip-path-3" transform="translate(-930.12 -467.26)"><rect x="1237.94" y="523.85" width="9.56" height="9.56" fill="none"/></clipPath><clipPath id="clip-path-4" transform="translate(-930.12 -467.26)"><rect x="1237.94" y="523.85" width="9.56" height="9.56" fill="none"/></clipPath><clipPath id="clip-path-5" transform="translate(-930.12 -467.26)"><rect x="1153.99" y="523.85" width="9.57" height="9.56" fill="none"/></clipPath><clipPath id="clip-path-7" transform="translate(-930.12 -467.26)"><rect x="1307.91" y="509.7" width="9.55" height="9.56" fill="none"/></clipPath><clipPath id="clip-path-8" transform="translate(-930.12 -467.26)"><rect x="1307.91" y="509.71" width="9.55" height="9.55" fill="none"/></clipPath><clipPath id="clip-path-9" transform="translate(-930.12 -467.26)"><rect x="1181.98" y="509.7" width="9.55" height="9.56" fill="none"/></clipPath><clipPath id="clip-path-10" transform="translate(-930.12 -467.26)"><rect x="1181.98" y="509.71" width="9.55" height="9.55" fill="none"/></clipPath><clipPath id="clip-path-11" transform="translate(-930.12 -467.26)"><rect x="1140" y="509.7" width="9.55" height="9.56" fill="none"/></clipPath><clipPath id="clip-path-12" transform="translate(-930.12 -467.26)"><rect x="1140" y="509.71" width="9.55" height="9.55" fill="none"/></clipPath><clipPath id="clip-path-13" transform="translate(-930.12 -467.26)"><rect x="1279.92" y="495.56" width="9.56" height="9.56" fill="none"/></clipPath><clipPath id="clip-path-14" transform="translate(-930.12 -467.26)"><rect x="1279.92" y="495.56" width="9.56" height="9.56" fill="none"/></clipPath><clipPath id="clip-path-15" transform="translate(-930.12 -467.26)"><rect x="1223.95" y="495.56" width="9.56" height="9.56" fill="none"/></clipPath><clipPath id="clip-path-16" transform="translate(-930.12 -467.26)"><rect x="1223.95" y="495.56" width="9.56" height="9.56" fill="none"/></clipPath><clipPath id="clip-path-17" transform="translate(-930.12 -467.26)"><rect x="1321.9" y="481.41" width="9.56" height="9.56" fill="none"/></clipPath><clipPath id="clip-path-19" transform="translate(-930.12 -467.26)"><rect x="1209.96" y="481.41" width="9.55" height="9.56" fill="none"/></clipPath><clipPath id="clip-path-21" transform="translate(-930.12 -467.26)"><rect x="1181.98" y="481.41" width="9.55" height="9.56" fill="none"/></clipPath><clipPath id="clip-path-23" transform="translate(-930.12 -467.26)"><rect x="1251.94" y="467.26" width="9.55" height="9.55" fill="none"/></clipPath><clipPath id="clip-path-24" transform="translate(-930.12 -467.26)"><rect x="1251.94" y="467.26" width="9.55" height="9.55" fill="none"/></clipPath><clipPath id="clip-path-25" transform="translate(-930.12 -467.26)"><rect x="1167.99" y="467.26" width="9.55" height="9.55" fill="none"/></clipPath><clipPath id="clip-path-26" transform="translate(-930.12 -467.26)"><rect x="1167.99" y="467.26" width="9.55" height="9.55" fill="none"/></clipPath><clipPath id="clip-path-27" transform="translate(-930.12 -467.26)"><rect x="1153.99" y="467.26" width="9.57" height="9.55" fill="none"/></clipPath><clipPath id="clip-path-28" transform="translate(-930.12 -467.26)"><rect x="1153.99" y="467.26" width="9.57" height="9.55" fill="none"/></clipPath><clipPath id="clip-path-29" transform="translate(-930.12 -467.26)"><rect x="1112.02" y="523.85" width="9.55" height="9.56" fill="none"/></clipPath><clipPath id="clip-path-30" transform="translate(-930.12 -467.26)"><rect x="1112.02" y="523.85" width="9.55" height="9.56" fill="none"/></clipPath><clipPath id="clip-path-31" transform="translate(-930.12 -467.26)"><rect x="1070.05" y="523.85" width="9.56" height="9.56" fill="none"/></clipPath><clipPath id="clip-path-33" transform="translate(-930.12 -467.26)"><rect x="1000.09" y="523.85" width="9.55" height="9.56" fill="none"/></clipPath><clipPath id="clip-path-34" transform="translate(-930.12 -467.26)"><rect x="1000.09" y="523.85" width="9.55" height="9.56" fill="none"/></clipPath><clipPath id="clip-path-35" transform="translate(-930.12 -467.26)"><rect x="972.1" y="523.85" width="9.56" height="9.56" fill="none"/></clipPath><clipPath id="clip-path-36" transform="translate(-930.12 -467.26)"><rect x="972.1" y="523.85" width="9.55" height="9.56" fill="none"/></clipPath><clipPath id="clip-path-37" transform="translate(-930.12 -467.26)"><rect x="958.11" y="523.85" width="9.55" height="9.56" fill="none"/></clipPath><clipPath id="clip-path-39" transform="translate(-930.12 -467.26)"><rect x="930.12" y="523.85" width="9.57" height="9.56" fill="none"/></clipPath><clipPath id="clip-path-41" transform="translate(-930.12 -467.26)"><rect x="1014.08" y="509.7" width="9.56" height="9.56" fill="none"/></clipPath><clipPath id="clip-path-42" transform="translate(-930.12 -467.26)"><rect x="1014.08" y="509.71" width="9.56" height="9.55" fill="none"/></clipPath><clipPath id="clip-path-43" transform="translate(-930.12 -467.26)"><rect x="958.11" y="509.7" width="9.55" height="9.56" fill="none"/></clipPath><clipPath id="clip-path-44" transform="translate(-930.12 -467.26)"><rect x="958.11" y="509.71" width="9.55" height="9.55" fill="none"/></clipPath><clipPath id="clip-path-45" transform="translate(-930.12 -467.26)"><rect x="944.12" y="509.7" width="9.55" height="9.56" fill="none"/></clipPath><clipPath id="clip-path-46" transform="translate(-930.12 -467.26)"><rect x="944.12" y="509.71" width="9.55" height="9.55" fill="none"/></clipPath><clipPath id="clip-path-47" transform="translate(-930.12 -467.26)"><rect x="930.12" y="509.7" width="9.57" height="9.56" fill="none"/></clipPath><clipPath id="clip-path-48" transform="translate(-930.12 -467.26)"><rect x="930.12" y="509.71" width="9.57" height="9.55" fill="none"/></clipPath><clipPath id="clip-path-49" transform="translate(-930.12 -467.26)"><rect x="1126.02" y="495.56" width="9.55" height="9.56" fill="none"/></clipPath><clipPath id="clip-path-50" transform="translate(-930.12 -467.26)"><rect x="1126.02" y="495.56" width="9.55" height="9.56" fill="none"/></clipPath><clipPath id="clip-path-51" transform="translate(-930.12 -467.26)"><rect x="972.1" y="495.56" width="9.56" height="9.56" fill="none"/></clipPath><clipPath id="clip-path-52" transform="translate(-930.12 -467.26)"><rect x="972.1" y="495.56" width="9.55" height="9.56" fill="none"/></clipPath><clipPath id="clip-path-53" transform="translate(-930.12 -467.26)"><rect x="1126.02" y="481.41" width="9.55" height="9.56" fill="none"/></clipPath><clipPath id="clip-path-54" transform="translate(-930.12 -467.26)"><rect x="1126.02" y="481.41" width="9.55" height="9.56" fill="none"/></clipPath><clipPath id="clip-path-55" transform="translate(-930.12 -467.26)"><rect x="1070.05" y="481.41" width="9.56" height="9.56" fill="none"/></clipPath><clipPath id="clip-path-57" transform="translate(-930.12 -467.26)"><rect x="1000.09" y="481.41" width="9.55" height="9.56" fill="none"/></clipPath><clipPath id="clip-path-58" transform="translate(-930.12 -467.26)"><rect x="1000.09" y="481.41" width="9.55" height="9.56" fill="none"/></clipPath><clipPath id="clip-path-59" transform="translate(-930.12 -467.26)"><rect x="972.1" y="481.41" width="9.56" height="9.56" fill="none"/></clipPath><clipPath id="clip-path-60" transform="translate(-930.12 -467.26)"><rect x="972.1" y="481.41" width="9.55" height="9.56" fill="none"/></clipPath><clipPath id="clip-path-61" transform="translate(-930.12 -467.26)"><rect x="958.11" y="481.41" width="9.55" height="9.56" fill="none"/></clipPath><clipPath id="clip-path-63" transform="translate(-930.12 -467.26)"><rect x="930.12" y="481.41" width="9.57" height="9.56" fill="none"/></clipPath><clipPath id="clip-path-65" transform="translate(-930.12 -467.26)"><rect x="1126.02" y="467.26" width="9.55" height="9.55" fill="none"/></clipPath><clipPath id="clip-path-66" transform="translate(-930.12 -467.26)"><rect x="1126.02" y="467.26" width="9.55" height="9.55" fill="none"/></clipPath><clipPath id="clip-path-67" transform="translate(-930.12 -467.26)"><rect x="1419.84" y="523.85" width="9.56" height="9.56" fill="none"/></clipPath><clipPath id="clip-path-69" transform="translate(-930.12 -467.26)"><rect x="1447.82" y="509.7" width="9.55" height="9.56" fill="none"/></clipPath><clipPath id="clip-path-70" transform="translate(-930.12 -467.26)"><rect x="1447.82" y="509.71" width="9.55" height="9.55" fill="none"/></clipPath><clipPath id="clip-path-71" transform="translate(-930.12 -467.26)"><rect x="1433.83" y="467.26" width="9.56" height="9.55" fill="none"/></clipPath><clipPath id="clip-path-72" transform="translate(-930.12 -467.26)"><rect x="1433.83" y="467.26" width="9.55" height="9.55" fill="none"/></clipPath><clipPath id="clip-path-73" transform="translate(-930.12 -467.26)"><rect x="1056.05" y="467.26" width="9.56" height="9.55" fill="none"/></clipPath><clipPath id="clip-path-74" transform="translate(-930.12 -467.26)"><rect x="1056.05" y="467.26" width="9.56" height="9.55" fill="none"/></clipPath><clipPath id="clip-path-75" transform="translate(-930.12 -467.26)"><rect x="1014.08" y="467.26" width="9.56" height="9.55" fill="none"/></clipPath><clipPath id="clip-path-76" transform="translate(-930.12 -467.26)"><rect x="1014.08" y="467.26" width="9.56" height="9.55" fill="none"/></clipPath><clipPath id="clip-path-77" transform="translate(-930.12 -467.26)"><rect x="986.1" y="467.26" width="9.55" height="9.55" fill="none"/></clipPath><clipPath id="clip-path-78" transform="translate(-930.12 -467.26)"><rect x="986.1" y="467.26" width="9.55" height="9.55" fill="none"/></clipPath><clipPath id="clip-path-79" transform="translate(-930.12 -467.26)"><rect x="930.12" y="467.26" width="9.57" height="9.55" fill="none"/></clipPath><clipPath id="clip-path-80" transform="translate(-930.12 -467.26)"><rect x="930.12" y="467.26" width="9.57" height="9.55" fill="none"/></clipPath></defs><g opacity="0.65"><g clip-path="url(#clip-path)"><g clip-path="url(#clip-path)"><path d="M1335.9 528.63C1335.91 525.996 1338.05 523.865 1340.68 523.87 1343.31 523.875 1345.45 526.016 1345.44 528.65 1345.43 531.28 1343.3 533.41 1340.67 533.41 1338.03 533.404 1335.9 531.266 1335.9 528.63" fill="#B0B3B2" transform="translate(-930.12 -467.26)"/></g></g></g><g opacity="0.25"><g clip-path="url(#clip-path-3)"><g clip-path="url(#clip-path-4)"><path d="M1237.94 528.63C1237.93 525.985 1240.07 523.836 1242.72 523.83 1245.37 523.825 1247.51 525.965 1247.52 528.61 1247.53 531.255 1245.39 533.404 1242.74 533.41 1242.74 533.41 1242.73 533.41 1242.73 533.41 1240.09 533.41 1237.95 531.271 1237.94 528.63" fill="#B0B3B2" transform="translate(-930.12 -467.26)"/></g></g></g><path d="M1196 528.63C1196 525.99 1198.14 523.85 1200.78 523.85 1203.42 523.85 1205.56 525.99 1205.56 528.63 1205.56 531.27 1203.42 533.41 1200.78 533.41 1198.14 533.405 1196.01 531.268 1196 528.63" fill="#B0B3B2" transform="translate(-930.12 -467.26)"/><g opacity="0.65"><g clip-path="url(#clip-path-5)"><g clip-path="url(#clip-path-5)"><path d="M1154 528.63C1154 525.99 1156.14 523.85 1158.78 523.85 1161.42 523.85 1163.56 525.99 1163.56 528.63 1163.56 531.266 1161.43 533.405 1158.79 533.41 1156.15 533.41 1154.01 531.272 1154 528.63" fill="#B0B3B2" transform="translate(-930.12 -467.26)"/></g></g></g><path d="M1140 528.63C1140 525.99 1142.14 523.85 1144.78 523.85 1147.42 523.85 1149.56 525.99 1149.56 528.63 1149.56 531.27 1147.42 533.41 1144.78 533.41 1142.14 533.405 1140.01 531.268 1140 528.63" fill="#B0B3B2" transform="translate(-930.12 -467.26)"/><g opacity="0.25"><g clip-path="url(#clip-path-7)"><g clip-path="url(#clip-path-8)"><path d="M1307.91 514.48C1307.91 511.84 1310.05 509.7 1312.69 509.7 1315.33 509.7 1317.47 511.84 1317.47 514.48 1317.47 517.12 1315.33 519.26 1312.69 519.26 1312.69 519.26 1312.68 519.26 1312.68 519.26 1310.05 519.266 1307.92 517.139 1307.91 514.51 1307.91 514.5 1307.91 514.49 1307.91 514.48" fill="#B0B3B2" transform="translate(-930.12 -467.26)"/></g></g></g><path d="M1279.92 514.48C1279.92 511.84 1282.06 509.7 1284.7 509.7 1287.34 509.7 1289.48 511.84 1289.48 514.48 1289.48 517.12 1287.34 519.26 1284.7 519.26 1282.07 519.266 1279.93 517.134 1279.92 514.5 1279.92 514.493 1279.92 514.487 1279.92 514.48" fill="#B0B3B2" transform="translate(-930.12 -467.26)"/><path d="M1210 514.48C1210 511.84 1212.14 509.7 1214.78 509.7 1217.42 509.7 1219.56 511.84 1219.56 514.48 1219.56 517.12 1217.42 519.26 1214.78 519.26 1212.14 519.26 1210 517.12 1210 514.48" fill="#B0B3B2" transform="translate(-930.12 -467.26)"/><g opacity="0.25"><g clip-path="url(#clip-path-9)"><g clip-path="url(#clip-path-10)"><path d="M1182 514.48C1182 511.84 1184.14 509.7 1186.78 509.7 1189.42 509.7 1191.56 511.84 1191.56 514.48 1191.56 517.12 1189.42 519.26 1186.78 519.26 1184.15 519.266 1182.01 517.134 1182 514.5 1182 514.493 1182 514.487 1182 514.48" fill="#B0B3B2" transform="translate(-930.12 -467.26)"/></g></g></g><path d="M1168 514.48C1168 511.84 1170.14 509.7 1172.78 509.7 1175.42 509.7 1177.56 511.84 1177.56 514.48 1177.56 517.12 1175.42 519.26 1172.78 519.26 1170.15 519.266 1168.01 517.134 1168 514.5 1168 514.493 1168 514.487 1168 514.48" fill="#B0B3B2" transform="translate(-930.12 -467.26)"/><g opacity="0.65"><g clip-path="url(#clip-path-11)"><g clip-path="url(#clip-path-12)"><path d="M1140 514.48C1140 511.84 1142.14 509.7 1144.78 509.7 1147.42 509.7 1149.56 511.84 1149.56 514.48 1149.56 517.12 1147.42 519.26 1144.78 519.26 1142.14 519.26 1140 517.12 1140 514.48" fill="#B0B3B2" transform="translate(-930.12 -467.26)"/></g></g></g><g opacity="0.65"><g clip-path="url(#clip-path-13)"><g clip-path="url(#clip-path-14)"><path d="M1279.92 500.34C1279.91 497.7 1282.05 495.556 1284.69 495.55 1287.33 495.544 1289.47 497.68 1289.48 500.32 1289.49 502.96 1287.35 505.104 1284.71 505.11 1284.71 505.11 1284.7 505.11 1284.7 505.11 1282.06 505.11 1279.93 502.976 1279.92 500.34" fill="#B0B3B2" transform="translate(-930.12 -467.26)"/></g></g></g><path d="M1251.94 500.34C1251.93 497.7 1254.07 495.556 1256.71 495.55 1259.35 495.544 1261.49 497.68 1261.5 500.32 1261.51 502.96 1259.37 505.104 1256.73 505.11 1256.73 505.11 1256.72 505.11 1256.72 505.11 1254.08 505.11 1251.95 502.976 1251.94 500.34" fill="#B0B3B2" transform="translate(-930.12 -467.26)"/><g opacity="0.65"><g clip-path="url(#clip-path-15)"><g clip-path="url(#clip-path-16)"><path d="M1224 500.34C1223.99 497.7 1226.13 495.556 1228.77 495.55 1231.41 495.544 1233.55 497.68 1233.56 500.32 1233.57 502.96 1231.43 505.104 1228.79 505.11 1226.15 505.116 1224.01 502.98 1224 500.34" fill="#B0B3B2" transform="translate(-930.12 -467.26)"/></g></g></g><path d="M1196 500.34C1195.99 497.7 1198.13 495.556 1200.77 495.55 1203.41 495.544 1205.55 497.68 1205.56 500.32 1205.57 502.96 1203.43 505.104 1200.79 505.11 1200.79 505.11 1200.78 505.11 1200.78 505.11 1198.14 505.11 1196.01 502.976 1196 500.34" fill="#B0B3B2" transform="translate(-930.12 -467.26)"/><path d="M1182 500.34C1181.99 497.7 1184.13 495.556 1186.77 495.55 1189.41 495.544 1191.55 497.68 1191.56 500.32 1191.57 502.96 1189.43 505.104 1186.79 505.11 1186.79 505.11 1186.78 505.11 1186.78 505.11 1184.15 505.116 1182.01 502.984 1182 500.35 1182 500.347 1182 500.343 1182 500.34" fill="#B0B3B2" transform="translate(-930.12 -467.26)"/><path d="M1154 500.34C1153.99 497.7 1156.13 495.556 1158.77 495.55 1161.41 495.544 1163.55 497.68 1163.56 500.32 1163.57 502.96 1161.43 505.104 1158.79 505.11 1156.15 505.116 1154.01 502.98 1154 500.34" fill="#B0B3B2" transform="translate(-930.12 -467.26)"/><g opacity="0.65"><g clip-path="url(#clip-path-17)"><g clip-path="url(#clip-path-17)"><path d="M1321.9 486.19C1321.9 483.55 1324.04 481.41 1326.68 481.41 1329.32 481.41 1331.46 483.55 1331.46 486.19 1331.46 488.83 1329.32 490.97 1326.68 490.97 1324.04 490.97 1321.9 488.83 1321.9 486.19" fill="#B0B3B2" transform="translate(-930.12 -467.26)"/></g></g></g><path d="M1265.93 486.19C1265.93 483.55 1268.07 481.41 1270.71 481.41 1273.35 481.41 1275.49 483.55 1275.49 486.19 1275.49 488.83 1273.35 490.97 1270.71 490.97 1268.07 490.97 1265.93 488.83 1265.93 486.19" fill="#B0B3B2" transform="translate(-930.12 -467.26)"/><path d="M1224 486.19C1224 483.55 1226.14 481.41 1228.78 481.41 1231.42 481.41 1233.56 483.55 1233.56 486.19 1233.56 488.826 1231.43 490.964 1228.79 490.97 1226.15 490.975 1224.01 488.84 1224 486.2 1224 486.197 1224 486.193 1224 486.19" fill="#B0B3B2" transform="translate(-930.12 -467.26)"/><g opacity="0.25"><g clip-path="url(#clip-path-19)"><g clip-path="url(#clip-path-19)"><path d="M1210 486.19C1210 483.55 1212.14 481.41 1214.78 481.41 1217.42 481.41 1219.56 483.55 1219.56 486.19 1219.56 488.83 1217.42 490.97 1214.78 490.97 1212.14 490.965 1210.01 488.828 1210 486.19" fill="#B0B3B2" transform="translate(-930.12 -467.26)"/></g></g></g><g opacity="0.65"><g clip-path="url(#clip-path-21)"><g clip-path="url(#clip-path-21)"><path d="M1182 486.19C1182 483.55 1184.14 481.41 1186.78 481.41 1189.42 481.41 1191.56 483.55 1191.56 486.19 1191.56 488.83 1189.42 490.97 1186.78 490.97 1184.15 490.976 1182.01 488.844 1182 486.21 1182 486.203 1182 486.197 1182 486.19" fill="#B0B3B2" transform="translate(-930.12 -467.26)"/></g></g></g><path d="M1154 486.19C1154 483.55 1156.14 481.41 1158.78 481.41 1161.42 481.41 1163.56 483.55 1163.56 486.19 1163.56 488.826 1161.43 490.964 1158.79 490.97 1156.15 490.975 1154.01 488.84 1154 486.2 1154 486.197 1154 486.193 1154 486.19" fill="#B0B3B2" transform="translate(-930.12 -467.26)"/><path d="M1140 486.19C1140 483.55 1142.14 481.41 1144.78 481.41 1147.42 481.41 1149.56 483.55 1149.56 486.19 1149.56 488.83 1147.42 490.97 1144.78 490.97 1142.14 490.965 1140.01 488.828 1140 486.19" fill="#B0B3B2" transform="translate(-930.12 -467.26)"/><g opacity="0.65"><g clip-path="url(#clip-path-23)"><g clip-path="url(#clip-path-24)"><path d="M1251.94 472C1251.93 469.36 1254.07 467.216 1256.71 467.21 1259.35 467.204 1261.49 469.34 1261.5 471.98 1261.51 474.62 1259.37 476.764 1256.73 476.77 1256.73 476.77 1256.72 476.77 1256.72 476.77 1254.08 476.77 1251.95 474.636 1251.94 472" fill="#B0B3B2" transform="translate(-930.12 -467.26)"/></g></g></g><path d="M1210 472C1209.99 469.36 1212.13 467.216 1214.77 467.21 1217.41 467.204 1219.55 469.34 1219.56 471.98 1219.57 474.62 1217.43 476.764 1214.79 476.77 1214.79 476.77 1214.78 476.77 1214.78 476.77 1212.15 476.765 1210.01 474.634 1210 472" fill="#B0B3B2" transform="translate(-930.12 -467.26)"/><g opacity="0.25"><g clip-path="url(#clip-path-25)"><g clip-path="url(#clip-path-26)"><path d="M1168 472C1167.99 469.36 1170.13 467.216 1172.77 467.21 1175.41 467.204 1177.55 469.34 1177.56 471.98 1177.57 474.62 1175.43 476.764 1172.79 476.77 1172.79 476.77 1172.78 476.77 1172.78 476.77 1170.14 476.77 1168.01 474.636 1168 472" fill="#B0B3B2" transform="translate(-930.12 -467.26)"/></g></g></g><g opacity="0.65"><g clip-path="url(#clip-path-27)"><g clip-path="url(#clip-path-28)"><path d="M1154 472C1153.99 469.36 1156.13 467.216 1158.77 467.21 1161.41 467.204 1163.55 469.34 1163.56 471.98 1163.57 474.62 1161.43 476.764 1158.79 476.77 1156.15 476.776 1154.01 474.64 1154 472" fill="#B0B3B2" transform="translate(-930.12 -467.26)"/></g></g></g><g opacity="0.65"><g clip-path="url(#clip-path-29)"><g clip-path="url(#clip-path-30)"><path d="M1112 528.63C1112 525.99 1114.14 523.85 1116.78 523.85 1119.42 523.85 1121.56 525.99 1121.56 528.63 1121.56 531.27 1119.42 533.41 1116.78 533.41 1116.78 533.41 1116.77 533.41 1116.77 533.41 1114.13 533.405 1112 531.266 1112 528.63" fill="#B0B3B2" transform="translate(-930.12 -467.26)"/></g></g></g><g opacity="0.65"><g clip-path="url(#clip-path-31)"><g clip-path="url(#clip-path-31)"><path d="M1070.05 528.63C1070.05 525.99 1072.19 523.85 1074.83 523.85 1077.47 523.85 1079.61 525.99 1079.61 528.63 1079.61 531.27 1077.47 533.41 1074.83 533.41 1072.19 533.405 1070.06 531.268 1070.05 528.63" fill="#B0B3B2" transform="translate(-930.12 -467.26)"/></g></g></g><path d="M1042.06 528.63C1042.06 525.99 1044.2 523.85 1046.84 523.85 1049.48 523.85 1051.62 525.99 1051.62 528.63 1051.62 531.27 1049.48 533.41 1046.84 533.41 1044.2 533.405 1042.07 531.268 1042.06 528.63" fill="#B0B3B2" transform="translate(-930.12 -467.26)"/><g opacity="0.65"><g clip-path="url(#clip-path-33)"><g clip-path="url(#clip-path-34)"><path d="M1000.09 528.63C1000.09 525.99 1002.23 523.85 1004.87 523.85 1007.51 523.85 1009.65 525.99 1009.65 528.63 1009.65 531.27 1007.51 533.41 1004.87 533.41 1002.23 533.41 1000.09 531.27 1000.09 528.63" fill="#B0B3B2" transform="translate(-930.12 -467.26)"/></g></g></g><g opacity="0.65"><g clip-path="url(#clip-path-35)"><g clip-path="url(#clip-path-36)"><path d="M972.1 528.63C972.1 525.99 974.24 523.85 976.88 523.85 979.52 523.85 981.66 525.99 981.66 528.63 981.66 531.27 979.52 533.41 976.88 533.41 974.242 533.405 972.106 531.268 972.1 528.63" fill="#B0B3B2" transform="translate(-930.12 -467.26)"/></g></g></g><g opacity="0.65"><g clip-path="url(#clip-path-37)"><g clip-path="url(#clip-path-37)"><path d="M958.11 528.63C958.11 525.99 960.25 523.85 962.89 523.85 965.53 523.85 967.67 525.99 967.67 528.63 967.67 531.27 965.53 533.41 962.89 533.41 960.252 533.405 958.116 531.268 958.11 528.63" fill="#B0B3B2" transform="translate(-930.12 -467.26)"/></g></g></g><g opacity="0.25"><g clip-path="url(#clip-path-39)"><g clip-path="url(#clip-path-39)"><path d="M930.12 528.63C930.115 525.985 932.255 523.836 934.9 523.83 937.545 523.825 939.694 525.965 939.7 528.61 939.705 531.255 937.565 533.404 934.92 533.41 934.917 533.41 934.913 533.41 934.91 533.41 932.268 533.41 930.125 531.271 930.12 528.63" fill="#B0B3B2" transform="translate(-930.12 -467.26)"/></g></g></g><path d="M1112 514.48C1112 511.84 1114.14 509.7 1116.78 509.7 1119.42 509.7 1121.56 511.84 1121.56 514.48 1121.56 517.12 1119.42 519.26 1116.78 519.26 1116.78 519.26 1116.77 519.26 1116.77 519.26 1114.14 519.26 1112 517.124 1112 514.49 1112 514.487 1112 514.483 1112 514.48" fill="#B0B3B2" transform="translate(-930.12 -467.26)"/><path d="M1098 514.48C1098 511.84 1100.14 509.7 1102.78 509.7 1105.42 509.7 1107.56 511.84 1107.56 514.48 1107.56 517.12 1105.42 519.26 1102.78 519.26 1100.15 519.266 1098.01 517.134 1098 514.5 1098 514.493 1098 514.487 1098 514.48" fill="#B0B3B2" transform="translate(-930.12 -467.26)"/><path d="M1084 514.48C1084 511.84 1086.14 509.7 1088.78 509.7 1091.42 509.7 1093.56 511.84 1093.56 514.48 1093.56 517.12 1091.42 519.26 1088.78 519.26 1088.78 519.26 1088.77 519.26 1088.77 519.26 1086.14 519.26 1084 517.124 1084 514.49 1084 514.487 1084 514.483 1084 514.48" fill="#B0B3B2" transform="translate(-930.12 -467.26)"/><path d="M1056.05 514.48C1056.05 511.84 1058.19 509.7 1060.83 509.7 1063.47 509.7 1065.61 511.84 1065.61 514.48 1065.61 517.12 1063.47 519.26 1060.83 519.26 1058.2 519.266 1056.06 517.134 1056.05 514.5 1056.05 514.493 1056.05 514.487 1056.05 514.48" fill="#B0B3B2" transform="translate(-930.12 -467.26)"/><path d="M1042.06 514.48C1042.06 511.84 1044.2 509.7 1046.84 509.7 1049.48 509.7 1051.62 511.84 1051.62 514.48 1051.62 517.12 1049.48 519.26 1046.84 519.26 1044.21 519.266 1042.07 517.134 1042.06 514.5 1042.06 514.493 1042.06 514.487 1042.06 514.48" fill="#B0B3B2" transform="translate(-930.12 -467.26)"/><g opacity="0.65"><g clip-path="url(#clip-path-41)"><g clip-path="url(#clip-path-42)"><path d="M1014.08 514.48C1014.08 511.84 1016.22 509.7 1018.86 509.7 1021.5 509.7 1023.64 511.84 1023.64 514.48 1023.64 517.12 1021.5 519.26 1018.86 519.26 1018.86 519.26 1018.85 519.26 1018.85 519.26 1016.22 519.26 1014.08 517.124 1014.08 514.49 1014.08 514.487 1014.08 514.483 1014.08 514.48" fill="#B0B3B2" transform="translate(-930.12 -467.26)"/></g></g></g><path d="M1000.09 514.48C1000.09 511.84 1002.23 509.7 1004.87 509.7 1007.51 509.7 1009.65 511.84 1009.65 514.48 1009.65 517.12 1007.51 519.26 1004.87 519.26 1002.24 519.266 1000.1 517.134 1000.09 514.5 1000.09 514.493 1000.09 514.487 1000.09 514.48" fill="#B0B3B2" transform="translate(-930.12 -467.26)"/><path d="M986.1 514.48C986.1 511.84 988.24 509.7 990.88 509.7 993.52 509.7 995.66 511.84 995.66 514.48 995.66 517.12 993.52 519.26 990.88 519.26 990.877 519.26 990.873 519.26 990.87 519.26 988.241 519.266 986.105 517.139 986.1 514.51 986.1 514.5 986.1 514.49 986.1 514.48" fill="#B0B3B2" transform="translate(-930.12 -467.26)"/><g opacity="0.25"><g clip-path="url(#clip-path-43)"><g clip-path="url(#clip-path-44)"><path d="M958.11 514.48C958.11 511.84 960.25 509.7 962.89 509.7 965.53 509.7 967.67 511.84 967.67 514.48 967.67 517.12 965.53 519.26 962.89 519.26 960.256 519.266 958.116 517.134 958.11 514.5 958.11 514.493 958.11 514.487 958.11 514.48" fill="#B0B3B2" transform="translate(-930.12 -467.26)"/></g></g></g><g opacity="0.65"><g clip-path="url(#clip-path-45)"><g clip-path="url(#clip-path-46)"><path d="M944.12 514.48C944.12 511.84 946.26 509.7 948.9 509.7 951.54 509.7 953.68 511.84 953.68 514.48 953.68 517.12 951.54 519.26 948.9 519.26 946.26 519.26 944.12 517.12 944.12 514.48" fill="#B0B3B2" transform="translate(-930.12 -467.26)"/></g></g></g><g opacity="0.25"><g clip-path="url(#clip-path-47)"><g clip-path="url(#clip-path-48)"><path d="M930.12 514.48C930.115 511.835 932.255 509.686 934.9 509.68 937.545 509.674 939.694 511.815 939.7 514.46 939.705 517.105 937.565 519.254 934.92 519.26 934.917 519.26 934.913 519.26 934.91 519.26 932.27 519.265 930.125 517.13 930.12 514.49 930.12 514.487 930.12 514.483 930.12 514.48" fill="#B0B3B2" transform="translate(-930.12 -467.26)"/></g></g></g><g opacity="0.65"><g clip-path="url(#clip-path-49)"><g clip-path="url(#clip-path-50)"><path d="M1126 500.34C1125.99 497.7 1128.13 495.556 1130.77 495.55 1133.41 495.544 1135.55 497.68 1135.56 500.32 1135.57 502.96 1133.43 505.104 1130.79 505.11 1130.78 505.11 1130.78 505.11 1130.77 505.11 1128.14 505.104 1126.01 502.972 1126 500.34" fill="#B0B3B2" transform="translate(-930.12 -467.26)"/></g></g></g><path d="M1112 500.34C1111.99 497.7 1114.13 495.556 1116.77 495.55 1119.41 495.544 1121.55 497.68 1121.56 500.32 1121.57 502.96 1119.43 505.104 1116.79 505.11 1116.78 505.11 1116.78 505.11 1116.77 505.11 1114.14 505.104 1112.01 502.972 1112 500.34" fill="#B0B3B2" transform="translate(-930.12 -467.26)"/><path d="M1098 500.34C1097.99 497.7 1100.13 495.556 1102.77 495.55 1105.41 495.544 1107.55 497.68 1107.56 500.32 1107.57 502.96 1105.43 505.104 1102.79 505.11 1102.79 505.11 1102.78 505.11 1102.78 505.11 1100.14 505.11 1098.01 502.976 1098 500.34" fill="#B0B3B2" transform="translate(-930.12 -467.26)"/><path d="M1084 500.34C1083.99 497.7 1086.13 495.556 1088.77 495.55 1091.41 495.544 1093.55 497.68 1093.56 500.32 1093.57 502.96 1091.43 505.104 1088.79 505.11 1088.78 505.11 1088.78 505.11 1088.77 505.11 1086.14 505.104 1084.01 502.972 1084 500.34" fill="#B0B3B2" transform="translate(-930.12 -467.26)"/><path d="M1070.05 500.34C1070.04 497.7 1072.18 495.556 1074.82 495.55 1077.46 495.544 1079.6 497.68 1079.61 500.32 1079.62 502.96 1077.48 505.104 1074.84 505.11 1074.84 505.11 1074.83 505.11 1074.83 505.11 1072.19 505.11 1070.06 502.976 1070.05 500.34" fill="#B0B3B2" transform="translate(-930.12 -467.26)"/><path d="M1056.05 500.34C1056.04 497.7 1058.18 495.556 1060.82 495.55 1063.46 495.544 1065.6 497.68 1065.61 500.32 1065.62 502.96 1063.48 505.104 1060.84 505.11 1060.84 505.11 1060.83 505.11 1060.83 505.11 1058.19 505.11 1056.06 502.976 1056.05 500.34" fill="#B0B3B2" transform="translate(-930.12 -467.26)"/><path d="M1042.06 500.34C1042.05 497.7 1044.19 495.556 1046.83 495.55 1049.47 495.544 1051.61 497.68 1051.62 500.32 1051.63 502.96 1049.49 505.104 1046.85 505.11 1046.85 505.11 1046.84 505.11 1046.84 505.11 1044.2 505.11 1042.07 502.976 1042.06 500.34" fill="#B0B3B2" transform="translate(-930.12 -467.26)"/><path d="M1028.07 500.34C1028.06 497.7 1030.2 495.556 1032.84 495.55 1035.48 495.544 1037.62 497.68 1037.63 500.32 1037.64 502.96 1035.5 505.104 1032.86 505.11 1032.86 505.11 1032.85 505.11 1032.85 505.11 1030.21 505.11 1028.08 502.976 1028.07 500.34" fill="#B0B3B2" transform="translate(-930.12 -467.26)"/><path d="M1014.08 500.34C1014.07 497.7 1016.21 495.556 1018.85 495.55 1021.49 495.544 1023.63 497.68 1023.64 500.32 1023.65 502.96 1021.51 505.104 1018.87 505.11 1018.86 505.11 1018.86 505.11 1018.85 505.11 1016.22 505.104 1014.09 502.972 1014.08 500.34" fill="#B0B3B2" transform="translate(-930.12 -467.26)"/><path d="M986.1 500.34C986.094 497.7 988.23 495.556 990.87 495.55 993.51 495.544 995.654 497.68 995.66 500.32 995.665 502.96 993.53 505.104 990.89 505.11 990.883 505.11 990.877 505.11 990.87 505.11 988.236 505.11 986.1 502.974 986.1 500.34" fill="#B0B3B2" transform="translate(-930.12 -467.26)"/><g opacity="0.65"><g clip-path="url(#clip-path-51)"><g clip-path="url(#clip-path-52)"><path d="M972.1 500.34C972.094 497.7 974.23 495.556 976.87 495.55 979.51 495.544 981.654 497.68 981.66 500.32 981.665 502.96 979.53 505.104 976.89 505.11 976.887 505.11 976.883 505.11 976.88 505.11 974.244 505.11 972.105 502.976 972.1 500.34" fill="#B0B3B2" transform="translate(-930.12 -467.26)"/></g></g></g><path d="M944.12 500.34C944.115 497.7 946.25 495.556 948.89 495.55 951.53 495.544 953.674 497.68 953.68 500.32 953.685 502.96 951.55 505.104 948.91 505.11 948.907 505.11 948.903 505.11 948.9 505.11 946.266 505.105 944.131 502.974 944.12 500.34" fill="#B0B3B2" transform="translate(-930.12 -467.26)"/><g opacity="0.65"><g clip-path="url(#clip-path-53)"><g clip-path="url(#clip-path-54)"><path d="M1126 486.19C1126 483.55 1128.14 481.41 1130.78 481.41 1133.42 481.41 1135.56 483.55 1135.56 486.19 1135.56 488.83 1133.42 490.97 1130.78 490.97 1130.78 490.97 1130.77 490.97 1130.77 490.97 1128.13 490.964 1126 488.826 1126 486.19" fill="#B0B3B2" transform="translate(-930.12 -467.26)"/></g></g></g><path d="M1112 486.19C1112 483.55 1114.14 481.41 1116.78 481.41 1119.42 481.41 1121.56 483.55 1121.56 486.19 1121.56 488.83 1119.42 490.97 1116.78 490.97 1116.78 490.97 1116.77 490.97 1116.77 490.97 1114.13 490.964 1112 488.826 1112 486.19" fill="#B0B3B2" transform="translate(-930.12 -467.26)"/><path d="M1084 486.19C1084 483.55 1086.14 481.41 1088.78 481.41 1091.42 481.41 1093.56 483.55 1093.56 486.19 1093.56 488.83 1091.42 490.97 1088.78 490.97 1088.78 490.97 1088.77 490.97 1088.77 490.97 1086.13 490.964 1084 488.826 1084 486.19" fill="#B0B3B2" transform="translate(-930.12 -467.26)"/><g opacity="0.65"><g clip-path="url(#clip-path-55)"><g clip-path="url(#clip-path-55)"><path d="M1070.05 486.19C1070.05 483.55 1072.19 481.41 1074.83 481.41 1077.47 481.41 1079.61 483.55 1079.61 486.19 1079.61 488.83 1077.47 490.97 1074.83 490.97 1072.19 490.97 1070.05 488.83 1070.05 486.19" fill="#B0B3B2" transform="translate(-930.12 -467.26)"/></g></g></g><path d="M1056.05 486.19C1056.05 483.55 1058.19 481.41 1060.83 481.41 1063.47 481.41 1065.61 483.55 1065.61 486.19 1065.61 488.83 1063.47 490.97 1060.83 490.97 1058.19 490.97 1056.05 488.83 1056.05 486.19" fill="#B0B3B2" transform="translate(-930.12 -467.26)"/><path d="M1028.07 486.19C1028.07 483.55 1030.21 481.41 1032.85 481.41 1035.49 481.41 1037.63 483.55 1037.63 486.19 1037.63 488.83 1035.49 490.97 1032.85 490.97 1030.21 490.97 1028.07 488.83 1028.07 486.19" fill="#B0B3B2" transform="translate(-930.12 -467.26)"/><path d="M1014.08 486.19C1014.08 483.55 1016.22 481.41 1018.86 481.41 1021.5 481.41 1023.64 483.55 1023.64 486.19 1023.64 488.83 1021.5 490.97 1018.86 490.97 1018.86 490.97 1018.85 490.97 1018.85 490.97 1016.21 490.964 1014.08 488.826 1014.08 486.19" fill="#B0B3B2" transform="translate(-930.12 -467.26)"/><g opacity="0.65"><g clip-path="url(#clip-path-57)"><g clip-path="url(#clip-path-58)"><path d="M1000.09 486.19C1000.09 483.55 1002.23 481.41 1004.87 481.41 1007.51 481.41 1009.65 483.55 1009.65 486.19 1009.65 488.83 1007.51 490.97 1004.87 490.97 1002.24 490.976 1000.1 488.844 1000.09 486.21 1000.09 486.203 1000.09 486.197 1000.09 486.19" fill="#B0B3B2" transform="translate(-930.12 -467.26)"/></g></g></g><path d="M986.1 486.19C986.1 483.55 988.24 481.41 990.88 481.41 993.52 481.41 995.66 483.55 995.66 486.19 995.66 488.83 993.52 490.97 990.88 490.97 990.877 490.97 990.873 490.97 990.87 490.97 988.236 490.97 986.1 488.834 986.1 486.2 986.1 486.197 986.1 486.193 986.1 486.19" fill="#B0B3B2" transform="translate(-930.12 -467.26)"/><g opacity="0.25"><g clip-path="url(#clip-path-59)"><g clip-path="url(#clip-path-60)"><path d="M972.1 486.19C972.1 483.55 974.24 481.41 976.88 481.41 979.52 481.41 981.66 483.55 981.66 486.19 981.66 488.83 979.52 490.97 976.88 490.97 974.24 490.97 972.1 488.83 972.1 486.19" fill="#B0B3B2" transform="translate(-930.12 -467.26)"/></g></g></g><g opacity="0.65"><g clip-path="url(#clip-path-61)"><g clip-path="url(#clip-path-61)"><path d="M958.11 486.19C958.11 483.55 960.25 481.41 962.89 481.41 965.53 481.41 967.67 483.55 967.67 486.19 967.67 488.83 965.53 490.97 962.89 490.97 960.25 490.97 958.11 488.83 958.11 486.19" fill="#B0B3B2" transform="translate(-930.12 -467.26)"/></g></g></g><g opacity="0.25"><g clip-path="url(#clip-path-63)"><g clip-path="url(#clip-path-63)"><path d="M930.12 486.19C930.115 483.545 932.255 481.396 934.9 481.39 937.545 481.384 939.694 483.525 939.7 486.17 939.705 488.815 937.565 490.964 934.92 490.97 934.917 490.97 934.913 490.97 934.91 490.97 932.268 490.97 930.125 488.832 930.12 486.19" fill="#B0B3B2" transform="translate(-930.12 -467.26)"/></g></g></g><g opacity="0.65"><g clip-path="url(#clip-path-65)"><g clip-path="url(#clip-path-66)"><path d="M1126 472C1125.99 469.36 1128.13 467.216 1130.77 467.21 1133.41 467.204 1135.55 469.34 1135.56 471.98 1135.57 474.62 1133.43 476.764 1130.79 476.77 1130.78 476.77 1130.78 476.77 1130.77 476.77 1128.14 476.764 1126.01 474.632 1126 472" fill="#B0B3B2" transform="translate(-930.12 -467.26)"/></g></g></g><path d="M1098 472C1097.99 469.36 1100.13 467.216 1102.77 467.21 1105.41 467.204 1107.55 469.34 1107.56 471.98 1107.57 474.62 1105.43 476.764 1102.79 476.77 1102.79 476.77 1102.78 476.77 1102.78 476.77 1100.14 476.77 1098.01 474.636 1098 472" fill="#B0B3B2" transform="translate(-930.12 -467.26)"/><g opacity="0.65"><g clip-path="url(#clip-path-67)"><g clip-path="url(#clip-path-67)"><path d="M1419.84 528.63C1419.84 525.99 1421.98 523.85 1424.62 523.85 1427.26 523.85 1429.4 525.99 1429.4 528.63 1429.4 531.27 1427.26 533.41 1424.62 533.41 1424.62 533.41 1424.61 533.41 1424.61 533.41 1421.97 533.405 1419.84 531.266 1419.84 528.63" fill="#B0B3B2" transform="translate(-930.12 -467.26)"/></g></g></g><g opacity="0.25"><g clip-path="url(#clip-path-69)"><g clip-path="url(#clip-path-70)"><path d="M1447.82 514.48C1447.82 511.84 1449.96 509.7 1452.6 509.7 1455.24 509.7 1457.38 511.84 1457.38 514.48 1457.38 517.116 1455.25 519.254 1452.61 519.26 1449.97 519.265 1447.83 517.13 1447.82 514.49 1447.82 514.487 1447.82 514.483 1447.82 514.48" fill="#B0B3B2" transform="translate(-930.12 -467.26)"/></g></g></g><path d="M1405.84 486.19C1405.84 483.55 1407.98 481.41 1410.62 481.41 1413.26 481.41 1415.4 483.55 1415.4 486.19 1415.4 488.83 1413.26 490.97 1410.62 490.97 1407.98 490.97 1405.84 488.83 1405.84 486.19" fill="#B0B3B2" transform="translate(-930.12 -467.26)"/><g opacity="0.25"><g clip-path="url(#clip-path-71)"><g clip-path="url(#clip-path-72)"><path d="M1433.83 472C1433.82 469.36 1435.96 467.216 1438.6 467.21 1441.24 467.204 1443.38 469.34 1443.39 471.98 1443.4 474.62 1441.26 476.764 1438.62 476.77 1438.62 476.77 1438.61 476.77 1438.61 476.77 1435.97 476.77 1433.84 474.636 1433.83 472" fill="#B0B3B2" transform="translate(-930.12 -467.26)"/></g></g></g><path d="M1377.86 514.48C1377.86 511.84 1380 509.7 1382.64 509.7 1385.28 509.7 1387.42 511.84 1387.42 514.48 1387.42 517.116 1385.29 519.254 1382.65 519.26 1380.01 519.265 1377.87 517.13 1377.86 514.49 1377.86 514.487 1377.86 514.483 1377.86 514.48" fill="#B0B3B2" transform="translate(-930.12 -467.26)"/><path d="M1363.87 472C1363.86 469.36 1366 467.216 1368.64 467.21 1371.28 467.204 1373.42 469.34 1373.43 471.98 1373.44 474.62 1371.3 476.764 1368.66 476.77 1368.66 476.77 1368.65 476.77 1368.65 476.77 1366.01 476.77 1363.88 474.636 1363.87 472" fill="#B0B3B2" transform="translate(-930.12 -467.26)"/><g opacity="0.65"><g clip-path="url(#clip-path-73)"><g clip-path="url(#clip-path-74)"><path d="M1056.05 472C1056.04 469.36 1058.18 467.216 1060.82 467.21 1063.46 467.204 1065.6 469.34 1065.61 471.98 1065.62 474.62 1063.48 476.764 1060.84 476.77 1060.84 476.77 1060.83 476.77 1060.83 476.77 1058.19 476.77 1056.06 474.636 1056.05 472" fill="#B0B3B2" transform="translate(-930.12 -467.26)"/></g></g></g><g opacity="0.65"><g clip-path="url(#clip-path-75)"><g clip-path="url(#clip-path-76)"><path d="M1014.08 472C1014.07 469.36 1016.21 467.216 1018.85 467.21 1021.49 467.204 1023.63 469.34 1023.64 471.98 1023.65 474.62 1021.51 476.764 1018.87 476.77 1018.86 476.77 1018.86 476.77 1018.85 476.77 1016.22 476.764 1014.09 474.632 1014.08 472" fill="#B0B3B2" transform="translate(-930.12 -467.26)"/></g></g></g><g opacity="0.25"><g clip-path="url(#clip-path-77)"><g clip-path="url(#clip-path-78)"><path d="M986.1 472C986.094 469.36 988.23 467.216 990.87 467.21 993.51 467.204 995.654 469.34 995.66 471.98 995.665 474.62 993.53 476.764 990.89 476.77 990.883 476.77 990.877 476.77 990.87 476.77 988.236 476.77 986.1 474.634 986.1 472" fill="#B0B3B2" transform="translate(-930.12 -467.26)"/></g></g></g><g opacity="0.65"><g clip-path="url(#clip-path-79)"><g clip-path="url(#clip-path-80)"><path d="M930.12 472C930.109 469.355 932.245 467.201 934.89 467.19 937.535 467.179 939.689 469.315 939.7 471.96 939.711 474.605 937.575 476.759 934.93 476.77 934.923 476.77 934.917 476.77 934.91 476.77 932.272 476.77 930.131 474.638 930.12 472" fill="#B0B3B2" transform="translate(-930.12 -467.26)"/></g></g></g></svg>