<svg viewBox="0 0 201.95 155.46" xmlns="http://www.w3.org/2000/svg" xmlns:xlink="http://www.w3.org/1999/xlink" id="OBJECTS" overflow="hidden"><defs></defs><rect x="0" y="0" rx="9.04" width="201.95" height="155.46" stroke-width="0.885965" fill="#FFFFFF"/><path d="M234.68 207.8 32.68 207.8 32.68 201.61C32.6524 196.64 36.6594 192.588 41.6299 192.56 41.6466 192.56 41.6633 192.56 41.68 192.56L225.64 192.56C230.611 192.56 234.64 196.589 234.64 201.56 234.64 201.577 234.64 201.593 234.64 201.61Z" stroke-width="0.885965" fill="#2E5290" transform="translate(-32.73 -192.56)"/><path d="M45.61 200.18C45.61 201.539 44.5086 202.64 43.15 202.64 41.7914 202.64 40.69 201.539 40.69 200.18 40.69 198.821 41.7914 197.72 43.15 197.72 44.5086 197.72 45.61 198.821 45.61 200.18Z" stroke-width="0.885965" fill="#FFDD6D" transform="translate(-32.73 -192.56)"/><path d="M54.4 200.18C54.4 201.539 53.2986 202.64 51.94 202.64 50.5814 202.64 49.48 201.539 49.48 200.18 49.48 198.821 50.5814 197.72 51.94 197.72 53.2986 197.72 54.4 198.821 54.4 200.18Z" stroke-width="0.885965" fill="#FFFFFF" transform="translate(-32.73 -192.56)"/><path d="M222 202.42C221.867 202.422 221.74 202.367 221.65 202.27 221.454 202.076 221.453 201.759 221.647 201.563 221.648 201.562 221.649 201.561 221.65 201.56L225.12 198.09C225.314 197.894 225.631 197.893 225.827 198.087 225.828 198.088 225.829 198.089 225.83 198.09 226.023 198.271 226.033 198.575 225.852 198.768 225.845 198.776 225.837 198.783 225.83 198.79L222.35 202.27C222.26 202.367 222.133 202.422 222 202.42Z" stroke-width="0.885965" fill="#FFFFFF" transform="translate(-32.73 -192.56)"/><path d="M225.44 202.42C225.305 202.42 225.175 202.366 225.08 202.27L221.61 198.79C221.417 198.597 221.417 198.283 221.61 198.09 221.803 197.897 222.117 197.897 222.31 198.09L225.79 201.56C225.986 201.754 225.987 202.071 225.793 202.267 225.792 202.268 225.791 202.269 225.79 202.27 225.698 202.364 225.572 202.418 225.44 202.42Z" stroke-width="0.885965" fill="#FFFFFF" transform="translate(-32.73 -192.56)"/><path d="M187.15 245.82C187.426 245.82 187.65 245.596 187.65 245.32 187.65 245.044 187.426 244.82 187.15 244.82 186.874 244.82 186.65 245.044 186.65 245.32 186.65 245.596 186.874 245.82 187.15 245.82Z" stroke-width="0.885965" fill="#FFDD6D" transform="translate(-32.73 -192.56)"/></svg>