<svg viewBox="0 0 2011.12 2007.72" xmlns="http://www.w3.org/2000/svg" xmlns:xlink="http://www.w3.org/1999/xlink" id="Capa_1" overflow="hidden"><style>
.MsftOfcThm_Accent1_lumMod_60_lumOff_40_Fill_v2 {
 fill:#8FAADC; 
}
</style>
<path d="M2835 1271.44 2835 1245C2835 1105.52 2835 966.033 2835 826.54 2835 792.89 2842.94 785.13 2877 785.08 2899.3 785.08 2921.61 785.08 2947.43 785.08L2947.43 760.66C2947.43 621.18 2947.43 481.697 2947.43 342.21 2947.43 304.96 2954.24 298.02 2990.66 298.02L4115.88 298.02C4151.18 298.02 4159 305.74 4159.02 340.58 4159.02 401.38 4159.02 462.19 4159.02 525.42L4182.22 525.42C4262.79 525.42 4343.36 525.93 4423.92 525.2 4462.69 524.84 4491.31 540.2 4512.08 572.81 4551.72 634.99 4591.79 696.897 4632.29 758.53 4645.83 779.12 4651.97 800.81 4651.79 825.42 4651.23 904.64 4651.79 983.86 4651.41 1063.08 4651.36 1074.25 4652.61 1083.2 4665.03 1086.48 4666.28 1086.96 4667.46 1087.63 4668.5 1088.48 4707.32 1114.48 4708.81 1211.48 4669.73 1237.13 4659.12 1244.13 4644.73 1247.72 4631.81 1248.26 4596.81 1249.75 4561.66 1248.77 4522.75 1248.77 4543.88 1279.77 4540.29 1312.54 4540.32 1344.77 4540.39 1413.16 4540.51 1481.55 4540.17 1549.94 4540.12 1560.94 4540.9 1570.17 4553.54 1573.32 4554.18 1573.55 4554.78 1573.89 4555.31 1574.32 4582.39 1591.86 4594.03 1645.56 4580.89 1692.37 4572.89 1720.95 4549.1 1735.82 4511.16 1735.88 4479.4 1735.88 4447.64 1735.88 4414.92 1735.88 4438.92 1801.27 4424.08 1867.8 4427.5 1933.2 4429.27 1966.96 4428.21 2000.9 4427.59 2034.75 4427.38 2046.54 4429.19 2054.34 4441.33 2060.38 4461.76 2070.56 4470.89 2089.38 4471.52 2111.99 4471.96 2127.55 4471.88 2143.14 4471.61 2158.71 4470.95 2196.71 4447.46 2221.15 4409.61 2222.03 4377.12 2222.78 4344.61 2222.63 4312.12 2222.03 4300.3 2221.8 4292.5 2224.9 4285.03 2234.96 4215.09 2329.12 4083.16 2328.76 4012.08 2235.33 4006.99 2228.65 3995.95 2222.84 3987.65 2222.8 3822.46 2222.08 3657.27 2222.08 3492.07 2222.8 3483.89 2222.8 3473.12 2229.1 3467.96 2235.8 3396.75 2328.92 3265.26 2328.48 3194.25 2234.94 3189.25 2228.3 3178.13 2226.1 3169.64 2222.34 3167.38 2221.34 3164.26 2222.44 3161.59 2222.15 3133.48 2219.05 3113.49 2226.43 3092.71 2250.31 3023.57 2329.72 2899.34 2322.13 2836.4 2237.66 2827.69 2226 2819 2221 2804.67 2222 2786.46 2223.17 2768.11 2222.75 2749.85 2222.14 2712.95 2220.93 2689.32 2197.08 2688.43 2160.42 2688.03 2144.18 2685.54 2127.25 2689.16 2111.85 2692.97 2095.66 2700.36 2078.68 2711.08 2066.27 2719.22 2056.85 2723.81 2049.45 2723.79 2037.1 2723.51 1797.4 2723.44 1557.7 2723.59 1318 2723.59 1276.44 2728.59 1271.52 2770.66 1271.48 2791.49 1271.42 2812.32 1271.44 2835 1271.44ZM3877.92 1329.71 2782.28 1329.71 2782.28 2050C2807.96 2055.37 2825.19 2051.2 2842.67 2029.28 2905.45 1950.57 3026.27 1946.85 3092.17 2022.79 3113.17 2047.05 3133.31 2055.79 3162.42 2052.01 3164.44 2051.73 3166.48 2051.73 3168.5 2052.01 3180.5 2053.77 3188.07 2048.82 3195.38 2038.91 3264.76 1944.79 3397.94 1944.78 3467.61 2039.04 3475.11 2049.19 3482.61 2052.21 3494.45 2052.18 3615.63 2051.83 3736.81 2051.98 3857.99 2051.92 3864.48 2051.92 3870.99 2051.29 3877.87 2050.92ZM3996.14 784C4044.66 787.21 4046.96 789.67 4046.96 835 4046.96 886.46 4046.98 937.917 4047.01 989.37 4047.01 996.6 4047.69 1003.82 4048.01 1011.21L4100.53 1011.21 4100.53 356.4 3005.83 356.4 3005.83 783.4 3110.47 783.4M3858.97 783.81 3939.27 783.81M3719.88 783.98 3801.13 783.98M3581.75 783.44 3663 783.44M3443.62 783.6 3524.87 783.6M3306.46 783.77 3386.74 783.77M3167.35 783.94 3248.61 783.94M3894.51 1271.35C3929.28 1273.5 3935.34 1279.83 3935.37 1314.35 3935.41 1347.53 3935.41 1380.71 3935.37 1413.89L3935.37 1497.2 3988.49 1497.2 3988.49 843.48 2892.74 843.48 2892.74 1270.1ZM3936.11 2052.03C3954.95 2052.03 3971.89 2053.27 3988.5 2051.5 3996.5 2050.64 4006.5 2046.07 4011.25 2039.85 4083.68 1944.39 4214.04 1944.55 4286.97 2040.5 4290.65 2045.35 4296.8 2051.16 4302.08 2051.5 4324.18 2052.73 4346.39 2052.02 4369.64 2052.02L4369.64 1893C4330.48 1888.14 4320.53 1882.87 4320.48 1865 4320.41 1830.4 4349 1836.22 4369.58 1832.77 4373.99 1800.21 4369.49 1772.63 4350.23 1745.42 4312.76 1692.47 4278.38 1637.29 4244.07 1582.19 4231.87 1562.6 4216.75 1554.88 4194.07 1555.11 4114.91 1555.91 4035.73 1555.42 3956.56 1555.42L3936.11 1555.42ZM4483.38 1346.11C4481.74 1322.19 4488.16 1299.11 4473.38 1276.91 4432.48 1215.58 4392.68 1153.52 4353.12 1091.32 4342.9 1075.24 4330.01 1068.91 4311.12 1069.07 4235.33 1069.72 4159.54 1069.34 4083.74 1069.33L4048.42 1069.33 4048.42 1497.89C4095.69 1497.89 4141.57 1497.99 4187.42 1497.73 4191.26 1497.73 4195.13 1495.45 4198.93 1494.07 4276.07 1466.21 4348.93 1488.18 4398.87 1554.07 4402.27 1558.56 4407.5 1564.51 4412.12 1564.72 4435.44 1565.81 4458.84 1565.22 4482.12 1565.22L4482.12 1405.94C4460.29 1403.45 4432.61 1408.01 4432.26 1376.84 4431.87 1344.28 4460.64 1349.15 4483.38 1346.08ZM4593.57 1078.32 4593.57 919.72C4572.83 916.72 4546.4 922.07 4544.57 891.86 4542.47 856.63 4573.26 863.97 4593.08 859.53 4597.57 827.65 4593.81 800.6 4575 773.82 4536.55 719.06 4501.3 662.03 4465.48 605.46 4455 588.8 4441.74 581.83 4422 582 4344.85 582.71 4267.69 582.29 4190.54 582.29L4160.78 582.29 4160.78 1012.38C4205.78 1012.38 4249.03 1012.5 4292.29 1012.21 4297.52 1012.21 4302.91 1010.41 4307.92 1008.6 4388.53 979.46 4459.84 1000.4 4511.47 1067.98 4515.02 1072.63 4521.54 1077.54 4526.91 1077.82 4548.4 1079 4570 1078.29 4593.57 1078.29ZM2970.57 2248.39C3031.39 2248.39 3081.79 2198.15 3082.02 2137.39 3082.25 2076.63 3032.11 2025.96 2971.4 2025.39 2909.93 2024.83 2858.8 2075.89 2859.08 2137.56 2859.37 2198.39 2909.69 2248.39 2970.59 2248.36ZM4260.42 2137.78C4260.81 2076.93 4211.12 2026.23 4150.3 2025.42 4088.93 2024.59 4037.35 2075.68 4037.47 2137.18 4037.58 2197.96 4087.88 2248.25 4148.7 2248.38 4209.52 2248.51 4260.05 2198.59 4260.44 2137.75ZM3220.31 2137.13C3220.31 2198.32 3270.03 2248.22 3331.09 2248.37 3392 2248.52 3442.4 2198.76 3443.09 2137.83 3443.75 2076.68 3392.09 2024.99 3330.83 2025.41 3269.87 2025.81 3220.31 2075.93 3220.33 2137.1ZM3981.23 2110.83 3499.12 2110.83 3499.12 2163.76 3981.25 2163.76ZM4413.86 2110.22 4317.12 2110.22 4317.12 2163.63 4413.86 2163.63ZM4428.91 1622.88 4428.91 1677.75 4524.65 1677.75 4524.65 1622.88ZM4540.54 1190.27 4637.08 1190.27 4637.08 1137 4540.54 1137ZM4480.14 1183.27C4493.38 1126.7 4452.72 1064.69 4399.5 1058.79 4426.51 1100.44 4452.6 1140.72 4480.16 1183.25ZM4368 1669.48C4382.08 1613.73 4339.38 1548.82 4288 1545.89ZM2802.3 2164.17 2802.3 2110.4 2746.48 2110.4 2746.48 2164.17ZM3163.55 2110.25 3138.31 2110.25 3138.31 2163.59 3163.55 2163.59Z" class="MsftOfcThm_Accent1_lumMod_60_lumOff_40_Fill_v2" fill="#8FAADC" transform="translate(-2687.22 -298.02)"/><path d="M4142.32 1799.13C4094.93 1799.13 4047.53 1799.26 4000.14 1799.13 3970.08 1799.03 3960.87 1790.13 3960.75 1760.84 3960.57 1714.12 3960.57 1667.4 3960.75 1620.67 3960.86 1591.2 3970.21 1581.99 3999.75 1581.94 4060.69 1581.83 4121.62 1582.32 4182.55 1581.65 4200.11 1581.45 4211.68 1587.9 4220.99 1602.58 4252.17 1651.71 4284.81 1699.92 4315.16 1749.58 4320.9 1758.96 4323.28 1775.48 4318.79 1784.5 4314.79 1792.5 4299.19 1798.24 4288.51 1798.56 4239.84 1799.94 4191.07 1799.13 4142.32 1799.13ZM4018.72 1638.77 4018.72 1740.77 4242.42 1740.77C4220.64 1707.14 4200.78 1676 4180.21 1645.35 4177.82 1641.79 4171.44 1639.14 4166.88 1639.1 4118.24 1638.61 4069.6 1638.77 4018.72 1638.77Z" class="MsftOfcThm_Accent1_lumMod_60_lumOff_40_Fill_v2" fill="#8FAADC" transform="translate(-2687.22 -298.02)"/><path d="M4014.66 1891C4005.91 1891 3997.14 1891.48 3988.42 1890.93 3971.65 1889.87 3962.19 1879.68 3961.42 1863.81 3960.66 1848.63 3969.57 1836.97 3984.72 1835.51 4004.79 1833.5 4025.02 1833.46 4045.1 1835.39 4060.92 1836.98 4070.41 1848.57 4069.1 1865.06 4067.88 1880.16 4058.55 1889.6 4042.94 1890.83 4033.54 1891.55 4024.08 1891 4014.66 1891Z" class="MsftOfcThm_Accent1_lumMod_60_lumOff_40_Fill_v2" fill="#8FAADC" transform="translate(-2687.22 -298.02)"/><path d="M4255.27 1313.09C4207.27 1313.09 4159.27 1313.24 4111.33 1313.09 4082.75 1312.98 4073.33 1303.7 4073.27 1275.73 4073.11 1227.06 4073.11 1178.4 4073.27 1129.73 4073.4 1105.29 4083.27 1095.21 4107.77 1095.09 4170.62 1094.79 4233.47 1095.17 4296.32 1094.86 4312.01 1094.78 4323.1 1100.65 4331.61 1114 4363.56 1164.11 4396.31 1213.71 4428.2 1263.87 4444.94 1290.21 4432.69 1312.59 4401.2 1312.97 4352.6 1313.52 4303.93 1313.08 4255.27 1313.09ZM4354.93 1255.17C4343.37 1237.17 4330.83 1222.59 4323.68 1205.68 4304.46 1160.24 4272.34 1144.39 4223.85 1151.04 4193.58 1155.2 4162.27 1151.82 4131.79 1151.82L4131.79 1255.17Z" class="MsftOfcThm_Accent1_lumMod_60_lumOff_40_Fill_v2" fill="#8FAADC" transform="translate(-2687.22 -298.02)"/><path d="M4126.08 1403.94C4116.62 1403.94 4107.08 1404.78 4097.73 1403.73 4083.06 1402.07 4074.56 1393.01 4073.62 1378.27 4072.62 1362.51 4080.62 1350.8 4095.87 1349.27 4116.69 1347.28 4137.64 1347.28 4158.46 1349.27 4173.97 1350.73 4181.63 1362.72 4180.62 1378.27 4179.67 1392.84 4171.28 1402.27 4156.45 1403.69 4146.42 1404.76 4136.21 1404 4126.08 1403.94Z" class="MsftOfcThm_Accent1_lumMod_60_lumOff_40_Fill_v2" fill="#8FAADC" transform="translate(-2687.22 -298.02)"/><path d="M4366.38 826.1C4317.71 826.1 4269.05 826.25 4220.38 826.03 4194.87 825.92 4184.81 816.09 4184.62 790.28 4184.24 741.613 4184.24 692.947 4184.62 644.28 4184.81 618.6 4194.67 608.53 4220.5 608.36 4283.36 607.95 4346.22 608.31 4409.08 608.18 4424.7 608.18 4435.56 614.71 4444.08 628.05 4475.61 677.64 4508.52 726.37 4539.18 776.49 4544.88 785.81 4547.12 802.34 4542.59 811.32 4538.59 819.32 4523.04 825.16 4512.4 825.48 4463.74 826.92 4415.05 826.1 4366.38 826.1ZM4242.45 767.55 4466.19 767.55C4454.58 749.43 4442.13 734.55 4434.72 717.55 4415.79 674.1 4385.44 657.55 4337.92 664.23 4307 668.6 4274.97 665.06 4242.45 665.06Z" class="MsftOfcThm_Accent1_lumMod_60_lumOff_40_Fill_v2" fill="#8FAADC" transform="translate(-2687.22 -298.02)"/><path d="M4239.44 862C4248.91 862 4258.44 861.23 4267.83 862.17 4283.61 863.73 4292.34 873.53 4292.83 889.03 4293.31 903.64 4285.51 915.19 4271.03 916.44 4249.53 918.307 4227.91 918.243 4206.42 916.25 4191.73 914.88 4184.51 902.6 4185.24 888.36 4185.97 874.12 4193.99 863.96 4209 862.36 4219 861.3 4229.26 862.16 4239.41 862.16Z" class="MsftOfcThm_Accent1_lumMod_60_lumOff_40_Fill_v2" fill="#8FAADC" transform="translate(-2687.22 -298.02)"/><path d="M3006.49 2137.59C3006.39 2157.52 2990.14 2173.6 2970.21 2173.49 2950.28 2173.39 2934.21 2157.15 2934.31 2137.21 2934.31 2136.59 2934.33 2135.96 2934.37 2135.33 2935.24 2115.27 2951.37 2100.47 2971.62 2101.02 2991.87 2101.57 3006.82 2117.24 3006.49 2137.59Z" class="MsftOfcThm_Accent1_lumMod_60_lumOff_40_Fill_v2" fill="#8FAADC" transform="translate(-2687.22 -298.02)"/><path d="M4185.26 2136.87C4185.27 2156.69 4169.42 2172.87 4149.61 2173.28 4129 2173.62 4112.61 2156.9 4113.04 2136.05 4113.48 2115.8 4129.04 2100.79 4149.44 2100.99 4169.15 2100.92 4185.19 2116.84 4185.26 2136.55 4185.26 2136.66 4185.26 2136.76 4185.26 2136.87Z" class="MsftOfcThm_Accent1_lumMod_60_lumOff_40_Fill_v2" fill="#8FAADC" transform="translate(-2687.22 -298.02)"/><path d="M3367.46 2136.92C3367.46 2157.05 3351.94 2172.98 3332 2173.31 3311.72 2173.65 3294.31 2156.14 3294.9 2136.02 3295.49 2116.39 3311.97 2100.78 3331.9 2101.02 3352.28 2101.19 3367.45 2116.53 3367.46 2136.92Z" class="MsftOfcThm_Accent1_lumMod_60_lumOff_40_Fill_v2" fill="#8FAADC" transform="translate(-2687.22 -298.02)"/></svg>