<svg viewBox="0 0 699.99 302.4" xmlns="http://www.w3.org/2000/svg" xmlns:xlink="http://www.w3.org/1999/xlink" id="Layer_1" overflow="hidden"><path d="M4219 214.49C4211.08 213.72 4203.14 213.1 4195.24 212.16 4130.1 204.39 4066.1 190.79 4002.69 174.28 3999.7 173.311 3996.42 173.908 3993.97 175.87 3983.42 183.46 3972.63 190.72 3962.1 198.33 3955.37 203.353 3947.12 205.922 3938.72 205.61 3934.56 205.48 3930.27 206.17 3926.26 205.38 3923.35 204.81 3919.53 203.01 3918.45 200.68 3917.37 198.35 3918.24 193.87 3919.98 191.75 3931.81 177.32 3943.98 163.2 3956.3 149.16 3958.74 146.38 3959.04 144.22 3957.65 140.78 3944.51 108.37 3931.58 75.86 3918.65 43.37 3915.49 35.44 3918.74 30.53 3927.19 30.51 3949.69 30.51 3972.19 30.58 3994.69 30.43 4000.12 30.43 4003.27 32.53 4005.25 37.62 4011.85 54.62 4019.45 71.02 4030.01 85.98 4033.93 91.54 4038.4 94.22 4045.74 94.18 4100.74 93.83 4155.74 94 4210.74 94L4217.53 94 4218.99 91.92C4217.43 91.04 4215.61 90.43 4214.34 89.24 4200.61 76.35 4186.88 63.47 4173.34 50.39 4165.63 42.95 4166.51 31.18 4175.06 25.3 4176.94 23.9282 4179.15 23.0608 4181.46 22.78 4207.2 21.2 4232.07 23.78 4254.46 38.32 4268.3 47.32 4282.24 56.12 4296.11 65.03 4309.43 73.59 4322.62 82.34 4336.11 90.61 4339.45 92.6332 4343.26 93.7499 4347.17 93.85 4394.67 94.06 4442.17 94.57 4489.66 93.85 4541.21 93.06 4578.18 117.32 4605.72 158.72 4609.74 165.033 4613.04 171.783 4615.54 178.84 4622.38 197.1 4611.02 221.94 4585.43 221.69 4509.29 220.94 4433.13 220.94 4356.98 220.69 4354.33 220.69 4351.68 221.47 4348.15 222.03 4349.31 223.56 4349.57 224.2 4350.04 224.47 4364.38 232.59 4366.44 255.16 4356.41 268.28 4351.32 274.95 4344.47 277.64 4336.21 276.75 4317.33 274.75 4298.46 272.5 4279.56 270.64 4276.82 270.454 4274.08 271.121 4271.73 272.55 4253.26 284.18 4234.95 296.06 4216.58 307.85 4199.45 319.052 4179.38 324.929 4158.91 324.74 4154.41 324.74 4149.91 324.68 4145.41 324.74 4138 324.86 4132.47 321.82 4129.47 314.95 4126.65 308.49 4128.38 301.84 4134.12 296.39 4160.95 270.917 4187.8 245.473 4214.67 220.06 4216.32 218.5 4218.21 217.2 4219.99 215.77ZM4378.27 204 4378.57 205.19C4380.69 205.19 4382.81 205.19 4384.93 205.19 4432.76 205.45 4480.58 205.693 4528.41 205.92 4547.24 205.98 4566.07 205.71 4584.9 205.45 4597.9 205.27 4604.42 197.17 4600.28 185.02 4597.49 176.8 4592.57 169.28 4588.35 161.58 4587.82 160.58 4585.35 159.69 4584.43 160.12 4570.88 166.24 4556.53 166.01 4542.18 165.7 4532.15 165.698 4522.73 160.858 4516.89 152.7 4513.5 148.17 4510.4 143.41 4507.42 138.6 4503.71 132.6 4507.21 126.22 4514.31 125.87 4518.13 125.68 4521.97 125.87 4525.8 125.87L4548.75 125.87C4548.35 124.87 4548.31 124.47 4548.1 124.31 4547.43 123.832 4546.73 123.395 4546 123 4530.64 114.441 4513.33 109.994 4495.75 110.09 4345.92 110.15 4196.1 110.23 4046.28 110.33 4034.37 110.33 4025.64 106.33 4018.76 97.33 4014.88 92.5106 4011.41 87.3837 4008.36 82 4002.92 71.71 3997.95 61.15 3993.14 50.54 3991.76 47.54 3990.28 46.31 3986.89 46.36 3973.73 46.57 3960.56 46.45 3947.39 46.46L3937.74 46.46C3937.84 47.2875 3938.01 48.1063 3938.23 48.91 3949.15 76.3 3960.04 103.7 3971.17 131.01 3971.72 132.36 3974.38 133.61 3976.07 133.63 3992.4 133.83 4008.74 133.81 4025.07 133.73 4029.78 133.73 4034.3 133.88 4036.07 139.28 4037.96 144.93 4034.44 147.96 4030.24 150.56 4029.39 151.09 4028.59 151.69 4027.77 152.27L4015.58 161C4017.66 161.59 4018.43 161.85 4019.22 162 4049.28 168.78 4079.22 176 4109.42 182.21 4149.59 190.41 4190.1 196.58 4231.08 199.26 4234.37 199.686 4237.67 198.529 4239.98 196.14 4249.14 187.14 4258.4 178.26 4267.98 169.73 4270.52 167.451 4273.75 166.086 4277.16 165.85 4321.16 165.61 4365.16 165.71 4409.16 165.65 4413.51 165.65 4416.67 167.11 4417.96 171.43 4419.25 175.75 4417.47 178.76 4413.78 181.08 4405.33 186.42 4396.96 191.89 4388.57 197.32 4385.11 199.53 4381.7 201.78 4378.27 204ZM4144.48 308.71C4166.66 309.5 4186.79 307.78 4204.66 296.35 4262.59 259.31 4320.44 222.143 4378.19 184.85 4379.32 184.12 4380.33 183.21 4382.32 181.66L4375.53 181.66C4345.39 181.66 4315.25 181.76 4285.11 181.53 4280.84 181.349 4276.69 183 4273.71 186.07 4238.38 219.697 4202.97 253.263 4167.5 286.77 4160.17 293.72 4152.87 300.71 4144.48 308.71ZM4185.35 38.71C4185.56 39.3259 4185.85 39.9136 4186.21 40.46 4204.44 57.7933 4222.7 75.0967 4240.99 92.37 4242.26 93.3962 4243.84 93.9542 4245.47 93.95 4266.13 94.05 4286.79 94.01 4307.47 93.95 4308.35 93.8552 4309.21 93.7015 4310.07 93.49 4308.16 92.11 4306.92 91.13 4305.59 90.28 4285.84 77.56 4266.18 64.71 4246.27 52.28 4240.49 48.668 4234.33 45.7003 4227.9 43.43 4214.27 38.62 4200.08 37.9 4185.35 38.68ZM3943.62 188.71C3949.09 188.17 3998.47 154.56 4001.16 149.86 3994.23 149.86 3987.4 149.62 3980.61 149.99 3978.24 150.169 3976.02 151.195 3974.34 152.88 3965.34 162.94 3956.7 173.25 3947.94 183.49 3946.59 185.06 3945.28 186.68 3943.62 188.7ZM4529.14 141.91C4532.75 147.34 4537.05 149.6 4542.33 149.7 4548.82 149.82 4555.33 149.89 4561.81 149.4 4566.24 149.06 4570.6 147.72 4574.99 146.83L4575.23 145.18C4573.25 143.186 4571.13 141.34 4568.88 139.66 4567.42 138.871 4565.73 138.586 4564.09 138.85 4557.53 139.73 4551.04 141.15 4544.46 141.85 4539.73 142.29 4534.91 141.9 4529.14 141.9ZM4346.5 249.15C4346.5 242.42 4343.2 237.45 4338.84 237.53 4334.48 237.61 4331.26 242.53 4331.26 249.26 4331.26 255.99 4334.55 260.89 4338.95 260.87 4343.35 260.85 4346.53 255.84 4346.5 249.15ZM4315.82 258.4C4315.41 253.55 4315.07 249.54 4314.68 244.79L4298.18 255.42 4298.51 256.48Z" fill="#8FAADC" transform="translate(-3917.46 -22.38)"/><path d="M4426.37 141.61C4426.58 146.023 4423.18 149.774 4418.77 149.988 4414.35 150.203 4410.6 146.799 4410.39 142.386 4410.17 137.972 4413.58 134.221 4417.99 134.007 4418.06 134.004 4418.12 134.002 4418.19 134 4422.42 133.724 4426.08 136.931 4426.35 141.164 4426.36 141.312 4426.37 141.461 4426.37 141.61Z" fill="#8FAADC" transform="translate(-3917.46 -22.38)"/><path d="M4458.24 141.68C4458.4 145.935 4455.08 149.515 4450.83 149.676 4450.69 149.681 4450.55 149.682 4450.41 149.68 4446.09 149.897 4442.41 146.572 4442.2 142.253 4441.98 137.934 4445.3 134.257 4449.62 134.04 4449.77 134.032 4449.91 134.029 4450.06 134.03 4454.41 133.863 4458.07 137.252 4458.24 141.601 4458.24 141.627 4458.24 141.654 4458.24 141.68Z" fill="#8FAADC" transform="translate(-3917.46 -22.38)"/><path d="M4140.11 141.77C4140.19 146.049 4136.78 149.582 4132.5 149.661 4132.4 149.663 4132.29 149.663 4132.18 149.66 4128.01 149.904 4124.44 146.724 4124.19 142.555 4124.18 142.344 4124.17 142.132 4124.18 141.92 4124.05 137.658 4127.4 134.1 4131.67 133.972 4131.79 133.969 4131.91 133.968 4132.03 133.97 4136.4 133.876 4140.01 137.34 4140.11 141.707 4140.11 141.728 4140.11 141.749 4140.11 141.77Z" fill="#8FAADC" transform="translate(-3917.46 -22.38)"/><path d="M4227.47 149.67C4223.14 149.626 4219.67 146.08 4219.71 141.75 4219.75 137.42 4223.3 133.946 4227.63 133.99 4231.86 133.877 4235.38 137.214 4235.49 141.443 4235.5 141.598 4235.5 141.754 4235.49 141.91 4235.45 146.45 4232.14 149.65 4227.47 149.67Z" fill="#8FAADC" transform="translate(-3917.46 -22.38)"/><path d="M4267.36 141.8C4267.39 146.102 4263.94 149.618 4259.63 149.653 4259.54 149.653 4259.45 149.652 4259.36 149.65 4255.04 149.667 4251.53 146.179 4251.51 141.86 4251.49 137.541 4254.98 134.027 4259.3 134.01 4263.62 133.877 4267.22 137.269 4267.36 141.586 4267.36 141.658 4267.36 141.729 4267.36 141.8Z" fill="#8FAADC" transform="translate(-3917.46 -22.38)"/><path d="M4394.52 141.6C4394.76 145.802 4391.54 149.401 4387.34 149.638 4387.17 149.648 4386.99 149.652 4386.82 149.65 4382.51 149.953 4378.76 146.702 4378.46 142.388 4378.16 138.074 4381.41 134.332 4385.72 134.029 4385.94 134.013 4386.16 134.007 4386.38 134.01 4390.56 133.706 4394.2 136.849 4394.5 141.03 4394.51 141.22 4394.52 141.41 4394.52 141.6Z" fill="#8FAADC" transform="translate(-3917.46 -22.38)"/><path d="M4100.24 149.66C4095.92 149.627 4092.44 146.094 4092.47 141.77 4092.5 137.446 4096.04 133.967 4100.36 134 4104.72 133.939 4108.3 137.422 4108.36 141.779 4108.36 141.823 4108.36 141.866 4108.36 141.91 4108.35 146.207 4104.85 149.68 4100.56 149.667 4100.45 149.667 4100.35 149.665 4100.24 149.66Z" fill="#8FAADC" transform="translate(-3917.46 -22.38)"/><path d="M4362.75 142.09C4362.7 146.508 4359.07 150.047 4354.66 149.996 4350.24 149.944 4346.7 146.32 4346.75 141.902 4346.8 137.484 4350.43 133.945 4354.84 133.997 4354.9 133.997 4354.95 133.998 4355 134 4359.27 133.984 4362.74 137.432 4362.76 141.702 4362.76 141.831 4362.76 141.961 4362.75 142.09Z" fill="#8FAADC" transform="translate(-3917.46 -22.38)"/><path d="M4164.15 149.66C4159.8 149.85 4156.12 146.48 4155.93 142.132 4155.93 142.105 4155.93 142.077 4155.93 142.05 4155.81 137.632 4159.3 133.956 4163.72 133.84 4168.14 133.724 4171.81 137.212 4171.93 141.63 4172.11 145.884 4168.8 149.477 4164.55 149.654 4164.42 149.659 4164.28 149.661 4164.15 149.66Z" fill="#8FAADC" transform="translate(-3917.46 -22.38)"/><path d="M4299.19 141.85C4299.16 146.185 4295.63 149.678 4291.29 149.651 4291.26 149.651 4291.22 149.651 4291.19 149.65 4287 149.823 4283.46 146.564 4283.28 142.37 4283.27 142.187 4283.27 142.003 4283.28 141.82 4283.28 137.29 4286.56 134.08 4291.28 134.01 4295.57 133.932 4299.11 137.348 4299.19 141.638 4299.19 141.709 4299.19 141.779 4299.19 141.85Z" fill="#8FAADC" transform="translate(-3917.46 -22.38)"/><path d="M4195.92 134C4200.17 133.973 4203.64 137.398 4203.67 141.651 4203.67 141.791 4203.67 141.93 4203.66 142.07 4203.7 146.251 4200.34 149.671 4196.16 149.709 4195.96 149.711 4195.75 149.705 4195.55 149.69 4191.24 149.702 4187.74 146.22 4187.73 141.913 4187.73 141.838 4187.73 141.764 4187.73 141.69 4187.9 137.319 4191.55 133.893 4195.92 134Z" fill="#8FAADC" transform="translate(-3917.46 -22.38)"/><path d="M4322.71 149.67C4318.55 149.727 4315.13 146.401 4315.08 142.243 4315.08 142.015 4315.08 141.787 4315.1 141.56 4315.14 137.335 4318.6 133.942 4322.82 133.982 4322.97 133.983 4323.13 133.989 4323.28 134 4327.61 134.157 4330.99 137.793 4330.83 142.12 4330.67 146.447 4327.04 149.827 4322.71 149.67Z" fill="#8FAADC" transform="translate(-3917.46 -22.38)"/></svg>