<svg viewBox="0 0 211.14 211.06" xmlns="http://www.w3.org/2000/svg" xmlns:xlink="http://www.w3.org/1999/xlink" id="Capa_1" overflow="hidden"><style>
.MsftOfcThm_Accent1_lumMod_60_lumOff_40_Fill_v2 {
 fill:#8FAADC; 
}
</style>
<path d="M1335.9 507.29C1305.21 507.566 1280.11 482.911 1279.83 452.222 1279.83 452.038 1279.83 451.854 1279.83 451.67 1279.74 420.3 1304.55 395.08 1335.57 394.99 1366.59 394.9 1392.07 420.3 1392.13 451.1 1392.24 482.028 1367.25 507.185 1336.32 507.29 1336.18 507.291 1336.04 507.291 1335.9 507.29ZM1367.9 447.61 1384.9 447.61C1383.67 435.88 1379.53 425.93 1371.41 417.48 1368.5 419.48 1365.95 421.25 1363.7 422.81 1365.19 431.15 1366.53 439.14 1367.94 447.61ZM1303.53 447.76C1305.02 439.95 1306.53 432.62 1307.75 425.26 1307.88 424.048 1307.47 422.84 1306.63 421.96 1304.48 420.343 1302.24 418.851 1299.92 417.49 1292.27 426.36 1287.37 435.9 1287 447.76ZM1367.89 455.09C1366.46 463.6 1365.1 471.69 1363.73 479.82 1366.32 481.53 1368.89 483.24 1371.59 485.04 1379.31 476.847 1383.99 466.262 1384.87 455.04ZM1300.09 485.09C1302.28 483.783 1304.39 482.354 1306.42 480.81 1307.34 480.001 1307.85 478.832 1307.83 477.61 1306.56 470.14 1305.04 462.72 1303.59 455.23L1286.85 455.23C1287.67 466.398 1292.37 476.927 1300.13 485ZM1360.84 447.72 1357.33 426.49 1339.56 430.49 1339.56 447.75ZM1310.84 447.58 1332.11 447.58 1332.11 430.42 1314.19 426.42C1313.06 433.59 1312 440.38 1310.85 447.53ZM1339.44 472.15 1357.44 476.15C1358.53 469.24 1359.62 462.35 1360.76 455.15L1339.45 455.15ZM1332.06 472.15 1332.06 455.07 1310.77 455.07C1312.01 462.37 1313.17 469.21 1314.34 476.07ZM1339.4 423.58 1354.72 419.76C1350.89 412.24 1347.41 405.76 1339.4 402.59ZM1339.4 499.83C1347.47 496.83 1350.96 490.29 1354.79 482.65L1339.4 479.3ZM1331.95 499.37 1331.95 479.11 1317.21 482.78C1321.6 492.69 1325.66 497.17 1331.93 499.37ZM1332.1 402.56C1324.3 406.15 1320.47 412.24 1317.17 419.86L1332.1 423.38ZM1366.66 489.96 1360.84 486.42 1355.75 495.59 1356.43 496.2ZM1305.32 490.16 1315.4 496.16 1315.97 495.24C1314.24 492.33 1312.51 489.42 1310.64 486.24ZM1310.73 416.33 1315.93 407.12 1315.31 406.41 1305.37 412.41ZM1366.61 412.43 1356.74 406.61 1356.09 407.61 1361.09 416.23Z" class="MsftOfcThm_Accent1_lumMod_60_lumOff_40_Fill_v2" fill="#8FAADC" transform="translate(-1180.99 -394.99)"/><path d="M1276.3 522 1276.3 528.19C1284.71 530.9 1286.4 533.31 1286.41 542.39L1286.41 549.89C1286.41 559.12 1285.09 560.99 1276.31 564.25L1276.31 570.63C1285.31 571.89 1287.11 578.23 1286.44 586.21 1286.24 588.52 1286.44 590.87 1286.44 593.21 1286.44 602.26 1282.72 606 1273.77 606.01 1251.44 606.01 1229.11 606.01 1206.77 606.01 1202.1 606.01 1197.44 606.07 1192.77 606.01 1185.6 605.89 1181.33 601.62 1181.18 594.47 1181.11 591.31 1181.18 588.14 1181.18 584.97 1181.18 575.89 1183.12 573.19 1191.77 570.38L1191.77 564.1C1182.66 562.58 1180.48 556.24 1181.16 548 1181.33 545.85 1181.16 543.67 1181.16 541.51 1181.16 533.72 1183.74 530.44 1191.64 528.37L1191.64 522.16C1182.34 518.37 1181.15 516.61 1181.15 506.62 1181.15 503.46 1181.04 500.29 1181.15 497.13 1181.44 490.96 1185.48 486.73 1191.63 486.7 1219.79 486.6 1247.95 486.6 1276.11 486.7 1282.51 486.7 1286.18 490.7 1286.37 497.13 1286.48 500.79 1286.37 504.46 1286.37 508.13 1286.39 516.8 1284.67 519.2 1276.3 522ZM1233.63 493.24C1220.8 493.24 1207.97 493.24 1195.15 493.24 1188.93 493.24 1188.15 494.02 1188.15 500.03 1188.15 502.2 1188.15 504.36 1188.15 506.53 1188.15 514.53 1188.45 514.79 1196.21 514.79 1219.2 514.79 1242.2 514.79 1265.21 514.79 1281.21 514.79 1279.9 516.65 1279.86 500 1279.86 494.38 1278.74 493.27 1273.16 493.26 1260 493.2 1246.79 493.23 1233.63 493.22ZM1233.63 556.93C1244.28 556.93 1254.94 556.93 1265.63 556.93 1280.85 556.85 1279.91 558.93 1279.85 542.78 1279.85 536.38 1279.03 535.55 1272.67 535.55 1249.34 535.55 1226.02 535.55 1202.73 535.55 1185.73 535.55 1188.35 533.91 1188.18 550.21 1188.12 556.33 1188.8 556.92 1195.18 556.93 1207.99 556.93 1220.8 556.923 1233.63 556.91ZM1234.24 577.85C1223.58 577.85 1212.93 577.79 1202.24 577.85 1186.04 577.96 1188.24 575.85 1188.11 591.85 1188.05 598.79 1188.36 599.04 1195.57 599.04 1218.88 599.04 1242.18 599.11 1265.49 599.04 1281.12 598.98 1279.7 601.52 1279.83 584.04 1279.83 579.64 1278.27 577.75 1273.65 577.82 1260.54 578 1247.39 577.83 1234.24 577.83ZM1213 528.49 1254.85 528.49 1254.85 521.66 1213 521.66ZM1254.82 570.66 1254.82 564.15 1213 564.15 1213 570.66ZM1205.63 528.59 1205.63 521.75 1198.9 521.75 1198.9 528.59ZM1269 521.7 1262.43 521.7 1262.43 528.45 1269 528.45ZM1198.77 570.7 1205.71 570.7 1205.71 564.13 1198.77 564.13ZM1268.71 570.88 1268.71 564 1262.45 564 1262.45 570.85Z" class="MsftOfcThm_Accent1_lumMod_60_lumOff_40_Fill_v2" fill="#8FAADC" transform="translate(-1180.99 -394.99)"/><path d="M1367.28 574.28C1367.28 581.1 1367.28 587.92 1367.28 594.74 1367.28 601.56 1363.18 605.87 1356.61 605.94 1342.8 606.087 1328.99 606.087 1315.18 605.94 1308.63 605.88 1304.3 601.5 1304.18 594.85 1304.04 581.21 1304.04 567.57 1304.18 553.93 1304.24 546.98 1308.55 542.93 1315.52 542.93 1329 542.883 1342.48 542.883 1355.95 542.93 1363.43 542.93 1367.18 546.78 1367.23 554.35 1367.32 561 1367.28 567.62 1367.28 574.28ZM1325.28 549.63 1318.16 549.63C1311.6 549.63 1311.16 550.15 1311.16 556.8 1311.16 568.62 1311.16 580.44 1311.16 592.26 1311.16 598.37 1311.73 598.97 1317.61 598.98 1329.77 598.98 1341.92 598.98 1354.07 598.98 1359.83 598.98 1360.57 598.22 1360.6 592.27 1360.6 582.11 1360.6 571.96 1360.6 561.8 1360.6 548.73 1360.6 548.73 1347.49 549.8 1347.21 549.8 1346.94 550.1 1346.22 550.52 1346.22 557.52 1346.35 564.85 1346.13 572.13 1346.08 573.88 1345.32 576.45 1344.13 577.06 1342.94 577.67 1340.72 576.23 1339.13 575.36 1337.91 574.504 1336.79 573.518 1335.79 572.42 1335.16 573.093 1334.46 573.699 1333.7 574.23 1331.7 575.34 1329.6 576.32 1327.54 577.36 1326.8 575.16 1325.54 572.98 1325.44 570.75 1325.14 564 1325.32 557.2 1325.32 549.63ZM1338.98 564.34 1338.98 550.07 1332.42 550.07 1332.42 564.34Z" class="MsftOfcThm_Accent1_lumMod_60_lumOff_40_Fill_v2" fill="#8FAADC" transform="translate(-1180.99 -394.99)"/><path d="M1272.07 448.12 1272.07 454.76C1264.54 454.76 1257.27 454.76 1249.99 454.76 1241.2 454.82 1237.3 458.76 1237.24 467.61 1237.24 471.24 1237.24 474.87 1237.24 478.82L1230.24 478.82C1230.58 472.56 1230.24 466.2 1231.45 460.18 1232.65 453.663 1238.11 448.783 1244.72 448.31 1253.7 447.53 1262.85 448.12 1272.07 448.12Z" class="MsftOfcThm_Accent1_lumMod_60_lumOff_40_Fill_v2" fill="#8FAADC" transform="translate(-1180.99 -394.99)"/><path d="M1332.69 515.06 1338.93 515.06 1338.93 535.22 1332.69 535.22Z" class="MsftOfcThm_Accent1_lumMod_60_lumOff_40_Fill_v2" fill="#8FAADC" transform="translate(-1180.99 -394.99)"/><path d="M1209.68 501 1215.84 501 1215.84 507 1209.68 507Z" class="MsftOfcThm_Accent1_lumMod_60_lumOff_40_Fill_v2" fill="#8FAADC" transform="translate(-1180.99 -394.99)"/><path d="M1223.56 506.89 1223.56 501.13 1230 501.13 1230 506.89Z" class="MsftOfcThm_Accent1_lumMod_60_lumOff_40_Fill_v2" fill="#8FAADC" transform="translate(-1180.99 -394.99)"/><path d="M1201.85 507 1195.42 507 1195.42 501.1 1201.85 501.1Z" class="MsftOfcThm_Accent1_lumMod_60_lumOff_40_Fill_v2" fill="#8FAADC" transform="translate(-1180.99 -394.99)"/><path d="M1201.87 549.38 1195.49 549.38 1195.49 543.18 1201.87 543.18Z" class="MsftOfcThm_Accent1_lumMod_60_lumOff_40_Fill_v2" fill="#8FAADC" transform="translate(-1180.99 -394.99)"/><path d="M1215.94 543.21 1215.94 549.35 1209.64 549.35 1209.64 543.21Z" class="MsftOfcThm_Accent1_lumMod_60_lumOff_40_Fill_v2" fill="#8FAADC" transform="translate(-1180.99 -394.99)"/><path d="M1223.64 543.12 1229.92 543.12 1229.92 549.27 1223.64 549.27Z" class="MsftOfcThm_Accent1_lumMod_60_lumOff_40_Fill_v2" fill="#8FAADC" transform="translate(-1180.99 -394.99)"/><path d="M1229.87 591.79 1223.77 591.79 1223.77 585.26 1229.87 585.26Z" class="MsftOfcThm_Accent1_lumMod_60_lumOff_40_Fill_v2" fill="#8FAADC" transform="translate(-1180.99 -394.99)"/><path d="M1195.49 585.18 1201.79 585.18 1201.79 591.61 1195.49 591.61Z" class="MsftOfcThm_Accent1_lumMod_60_lumOff_40_Fill_v2" fill="#8FAADC" transform="translate(-1180.99 -394.99)"/><path d="M1215.79 591.75 1209.64 591.75 1209.64 585.38 1215.79 585.38Z" class="MsftOfcThm_Accent1_lumMod_60_lumOff_40_Fill_v2" fill="#8FAADC" transform="translate(-1180.99 -394.99)"/></svg>