<svg viewBox="0 0 334.4 357.78" xmlns="http://www.w3.org/2000/svg" xmlns:xlink="http://www.w3.org/1999/xlink" id="Capa_1" overflow="hidden"><style>
.MsftOfcThm_Accent1_lumMod_60_lumOff_40_Fill_v2 {
 fill:#8FAADC; 
}
</style>
<path d="M-293.88 613.4C-291.02 620.1-288.38 626.4-285.66 632.64-284.13 636.17-283.36 641-280.66 642.78-277.96 644.56-273.17 643.31-269.3 643.34-264.55 643.34-259.8 643.29-255.05 643.34-245.194 643.339-237.17 651.265-237.05 661.12-236.923 670.994-244.824 679.102-254.698 679.229-254.832 679.231-254.966 679.231-255.1 679.23-315.1 679.29-375.1 679.29-435.1 679.23-444.964 679.307-453.022 671.374-453.099 661.511-453.1 661.477-453.1 661.443-453.1 661.41-453.133 651.469-445.101 643.383-435.16 643.35-435.107 643.35-435.053 643.35-435 643.35-426.38 643.26-417.77 643.35-409.07 643.35-404.83 633.48-400.67 623.77-396.21 613.35L-400.59 613.35C-423.463 613.35-446.34 613.35-469.22 613.35-488.45 613.35-501.11 600.68-501.12 581.44-501.12 520.773-501.12 460.127-501.12 399.5-501.12 380.5-488.41 367.76-469.43 367.76-427.303 367.76-385.177 367.76-343.05 367.76L-339.39 367.76-339.39 379.76-468.85 379.76C-481.85 379.76-489.06 386.92-489.06 399.88L-489.06 553.23-201.06 553.23-201.06 481.79-189 481.79-189 485.73C-189 517.677-189 549.62-189 581.56-189 600.76-201.71 613.38-221 613.39-243.747 613.39-266.497 613.39-289.25 613.39ZM-489.06 565.61-489.06 581.34C-489.06 594.27-481.85 601.41-468.8 601.41L-339.8 601.41C-299.92 601.41-260.04 601.41-220.16 601.41-210.33 601.41-202.58 595.69-201.47 586.54-200.64 579.7-201.31 572.68-201.31 565.61ZM-294.44 643.19C-294.84 642.04-295.1 641.1-295.44 640.19-298.87 632.19-302.44 624.19-305.7 616.13-306.62 613.86-307.83 613.32-310.13 613.33-331.87 613.41-353.62 613.65-375.35 613.2-381.44 613.08-384.35 614.84-386.35 620.56-388.94 628.17-392.54 635.44-395.84 643.17ZM-345.44 667.31-258 667.31C-256.753 667.387-255.501 667.354-254.26 667.21-251.03 666.62-249.07 664.63-249.07 661.32-249.07 658.01-251.07 656.02-254.25 655.42-255.368 655.29-256.496 655.26-257.62 655.33L-432.42 655.33C-433.544 655.259-434.672 655.29-435.79 655.42-439.02 656.02-440.97 658-440.97 661.32-440.97 664.64-438.97 666.62-435.79 667.21-434.549 667.354-433.297 667.387-432.05 667.31Z" class="MsftOfcThm_Accent1_lumMod_60_lumOff_40_Fill_v2" fill="#8FAADC" transform="translate(501.07 -321.52)"/><path d="M-292.16 342.65C-292.68 330.65-292.68 330.65-281.9 326.54-278.17 325.12-274.44 323.71-270.75 322.19-267.37 320.8-264.69 321.6-262.43 324.36-260.69 326.48-258.48 328.36-257.16 330.67-254.04 336.23-249.02 336.6-243.65 336.16-242.464 335.961-241.374 335.386-240.54 334.52-237.43 331.45-234.41 328.28-231.46 325.06-229.523 322.606-226.106 321.893-223.35 323.37-217.65 325.9-211.96 328.45-206.24 330.95-203.542 331.912-201.901 334.647-202.32 337.48-202.51 340.22-202.37 343.02-202.93 345.68-204.02 350.9-202.93 355.04-198.67 358.57-196.82 360.1-195.25 361.1-192.79 360.91-188.79 360.59-184.79 360.57-180.79 360.44-177.684 360.123-174.792 362.058-173.9 365.05-171.76 370.77-169.557 376.46-167.29 382.12-165.92 385.53-166.84 388.12-169.56 390.4-172.56 392.87-175.46 395.4-178.38 397.95-182.45 401.49-182.66 409.42-178.82 413.07-175.92 415.82-173.07 418.63-170.13 421.33-167.58 423.68-167.13 426.33-168.54 429.45-171.04 435.02-173.54 440.58-175.97 446.19-177.35 449.4-179.72 450.62-183.12 450.34-187.47 449.97-191.83 449.63-196.2 449.42-200.06 449.23-206.2 455.35-206.07 459.21-205.96 463.33-205.8 467.44-205.64 471.55-205.5 475.08-206.93 477.48-210.36 478.75-216.09 480.87-221.79 483.08-227.47 485.33-230.72 486.62-233.29 485.82-235.47 483.24-238.3 479.91-241.13 476.57-244.02 473.3-246.49 470.52-255.02 470.39-257.65 473.07-260.6 476.07-263.57 479.16-266.43 482.29-268.438 484.853-272.008 485.581-274.86 484.01-280.43 481.5-286.02 479.01-291.63 476.59-294.45 475.591-296.16 472.726-295.7 469.77-295.36 465.42-295 461.07-294.78 456.71-294.56 452.58-300.57 446.49-304.68 446.6-308.79 446.71-312.93 446.88-317.05 447.03-320.285 447.381-323.3 445.343-324.18 442.21-326.25 436.6-328.43 431.03-330.67 425.49-332.02 422.14-331.34 419.49-328.57 417.17-325.57 414.7-322.67 412.17-319.74 409.63-315.52 406-315.32 398.06-319.33 394.25-322.23 391.5-325.09 388.71-328.01 385.99-330.319 384.085-330.959 380.815-329.54 378.18-327.02 372.48-324.44 366.81-321.94 361.1-321.011 358.387-318.291 356.711-315.45 357.1-312.45 357.3-309.45 357.32-306.45 357.78-301.86 358.51-298.4 357.52-294.72 354.15-290.61 350.33-292.58 346.17-292.16 342.65ZM-279.94 348.13C-278.33 353.49-281.26 357.94-286.08 362.21-295.66 370.69-295.49 371.02-308.19 369.49-311.5 369.09-313.03 369.98-314.27 373.06-316.99 379.84-317.46 380.13-311.6 384.89-306.01 389.42-304.26 394.58-304.46 401.73-304.68 409.57-306.51 415.51-313.3 420.08-318.6 423.64-317.99 424.08-316.02 430.3-314.83 434.11-313.02 435.04-309.09 434.87-294.39 434.25-298.58 433.26-288.39 443.01-283.55 447.64-281.97 452.44-282.74 458.92-283.74 467.28-283.33 467.22-275.44 470.71-273.44 471.61-272.32 471.19-270.99 469.71-268.59 467.01-266.12 464.34-263.47 461.88-262.25 460.74-260.59 459.41-259.09 459.37-248.69 459.04-237.77 457.62-231.64 469.26-231.102 470.103-230.445 470.864-229.69 471.52-229.27 471.95-228.58 472.67-228.25 472.52-224.96 471.39-221.52 470.44-218.58 468.69-217.66 468.14-217.95 465.3-217.98 463.51-218.25 449-219.37 453.15-209.81 443.16-205.1 438.23-200.14 436.1-193.57 437.5-193.447 437.51-193.323 437.51-193.2 437.5-185.45 438.05-185.54 438.01-182.27 430.95-181.18 428.61-181.1 427.01-183.27 425.23-185.992 423.033-188.524 420.611-190.84 417.99-192.141 416.686-193.001 415.008-193.3 413.19-194.01 402.31-194.12 391.53-182.3 385.52-182.19 385.47-182.12 385.34-182.02 385.28-179.88 384.05-179.85 382.47-180.71 380.28-183.71 372.57-183.71 372.2-192.19 372.91-198.47 373.43-202.62 371.16-207.31 366.99-214.68 360.42-216.73 353.14-214.64 344.07-213.99 341.29-214.97 339.91-217.64 338.8-224.93 335.8-224.87 335.65-230.23 341.27-231.79 342.89-233.23 344.62-234.95 346.07-236.05 347-237.49 348.07-238.81 348.07-249.22 348.36-260.12 349.77-266.24 338.15-266.52 337.62-267.12 337.25-267.45 336.73-268.65 334.73-270.07 334.73-272.17 335.52-280.2 338.67-280.23 338.59-279.94 348.13Z" class="MsftOfcThm_Accent1_lumMod_60_lumOff_40_Fill_v2" fill="#8FAADC" transform="translate(501.07 -321.52)"/><path d="M-267.2 529.78-267.2 541.33-446.75 541.33-446.75 529.78Z" class="MsftOfcThm_Accent1_lumMod_60_lumOff_40_Fill_v2" fill="#8FAADC" transform="translate(501.07 -321.52)"/><path d="M-446.88 517.36-446.88 505.82-297.26 505.82-297.26 517.36Z" class="MsftOfcThm_Accent1_lumMod_60_lumOff_40_Fill_v2" fill="#8FAADC" transform="translate(501.07 -321.52)"/><path d="M-315.19 481.87-315.19 493.39-446.87 493.39-446.87 481.87Z" class="MsftOfcThm_Accent1_lumMod_60_lumOff_40_Fill_v2" fill="#8FAADC" transform="translate(501.07 -321.52)"/><path d="M-333.2 457.91-333.2 469.43-446.74 469.43-446.74 457.91Z" class="MsftOfcThm_Accent1_lumMod_60_lumOff_40_Fill_v2" fill="#8FAADC" transform="translate(501.07 -321.52)"/><path d="M-451.29 399.65C-448.43 402.5-445.8 405.13-443.14 407.77L-456.7 421-442.38 434.73-451.63 443.11C-457.4 437.47-463.63 431.57-469.63 425.4-471.92 423.03-471.63 419.97-469.34 417.62-463.51 411.63-457.51 405.82-451.29 399.65Z" class="MsftOfcThm_Accent1_lumMod_60_lumOff_40_Fill_v2" fill="#8FAADC" transform="translate(501.07 -321.52)"/><path d="M-388.92 421.91-403.33 408.32-394.71 400.14C-388.71 405.97-382.46 411.86-376.47 418.01-374.17 420.38-374.47 423.46-376.75 425.79-382.58 431.79-388.59 437.57-394.65 443.55L-402.38 435.05Z" class="MsftOfcThm_Accent1_lumMod_60_lumOff_40_Fill_v2" fill="#8FAADC" transform="translate(501.07 -321.52)"/><path d="M-422.82 396.38-411.19 399.28C-415.19 415.4-419.19 431.14-423.19 447.16L-434.8 444.16C-430.78 428.12-426.83 412.39-422.82 396.38Z" class="MsftOfcThm_Accent1_lumMod_60_lumOff_40_Fill_v2" fill="#8FAADC" transform="translate(501.07 -321.52)"/><path d="M-459.37 469.55-470.77 469.55-470.77 457.9-459.37 457.9Z" class="MsftOfcThm_Accent1_lumMod_60_lumOff_40_Fill_v2" fill="#8FAADC" transform="translate(501.07 -321.52)"/><path d="M-459.25 493.42-470.79 493.42-470.79 481.84-459.25 481.84Z" class="MsftOfcThm_Accent1_lumMod_60_lumOff_40_Fill_v2" fill="#8FAADC" transform="translate(501.07 -321.52)"/><path d="M-459.35 517.42-470.82 517.42-470.82 505.77-459.35 505.77Z" class="MsftOfcThm_Accent1_lumMod_60_lumOff_40_Fill_v2" fill="#8FAADC" transform="translate(501.07 -321.52)"/><path d="M-284.71 505.65-273.31 505.65-273.31 517.3-284.71 517.3Z" class="MsftOfcThm_Accent1_lumMod_60_lumOff_40_Fill_v2" fill="#8FAADC" transform="translate(501.07 -321.52)"/><path d="M-249.17 505.85-249.17 517.34-260.84 517.34-260.84 505.85Z" class="MsftOfcThm_Accent1_lumMod_60_lumOff_40_Fill_v2" fill="#8FAADC" transform="translate(501.07 -321.52)"/><path d="M-459.21 529.72-459.21 541.26-470.83 541.26-470.83 529.72Z" class="MsftOfcThm_Accent1_lumMod_60_lumOff_40_Fill_v2" fill="#8FAADC" transform="translate(501.07 -321.52)"/><path d="M-254.79 529.6-243.31 529.6-243.31 541.25-254.79 541.25Z" class="MsftOfcThm_Accent1_lumMod_60_lumOff_40_Fill_v2" fill="#8FAADC" transform="translate(501.07 -321.52)"/><path d="M-219.26 541.33-230.83 541.33-230.83 529.81-219.26 529.81Z" class="MsftOfcThm_Accent1_lumMod_60_lumOff_40_Fill_v2" fill="#8FAADC" transform="translate(501.07 -321.52)"/><path d="M-350.76 577.61-339.25 577.61-339.25 589.26-350.76 589.26Z" class="MsftOfcThm_Accent1_lumMod_60_lumOff_40_Fill_v2" fill="#8FAADC" transform="translate(501.07 -321.52)"/><path d="M-249.06 446.37C-272.681 446.321-291.79 427.132-291.741 403.511-291.741 403.447-291.74 403.384-291.74 403.32-291.449 379.774-272.167 360.899-248.62 361.11-225.094 361.379-206.194 380.583-206.3 404.11-206.595 427.521-225.647 446.35-249.06 446.37ZM-218.31 403.7C-218.387 386.736-232.176 373.032-249.14 373.06-265.956 373.168-279.577 386.745-279.74 403.56-279.768 420.526-266.066 434.317-249.1 434.4-232.142 434.373-218.387 420.658-218.31 403.7Z" class="MsftOfcThm_Accent1_lumMod_60_lumOff_40_Fill_v2" fill="#8FAADC" transform="translate(501.07 -321.52)"/></svg>