<svg viewBox="0 0 527.25 66.15" xmlns="http://www.w3.org/2000/svg" xmlns:xlink="http://www.w3.org/1999/xlink" id="Capa_1" overflow="hidden"><defs><clipPath id="clip-path" transform="translate(-32.74 -227.95)"><rect x="438.52" y="284.54" width="9.55" height="9.56" fill="none"/></clipPath><clipPath id="clip-path-2" transform="translate(-32.74 -227.95)"><rect x="438.52" y="284.54" width="9.55" height="9.56" fill="none"/></clipPath><clipPath id="clip-path-3" transform="translate(-32.74 -227.95)"><rect x="340.57" y="284.54" width="9.56" height="9.56" fill="none"/></clipPath><clipPath id="clip-path-4" transform="translate(-32.74 -227.95)"><rect x="340.57" y="284.54" width="9.56" height="9.56" fill="none"/></clipPath><clipPath id="clip-path-5" transform="translate(-32.74 -227.95)"><rect x="256.61" y="284.54" width="9.57" height="9.56" fill="none"/></clipPath><clipPath id="clip-path-6" transform="translate(-32.74 -227.95)"><rect x="256.61" y="284.54" width="9.57" height="9.56" fill="none"/></clipPath><clipPath id="clip-path-7" transform="translate(-32.74 -227.95)"><rect x="410.53" y="270.4" width="9.55" height="9.56" fill="none"/></clipPath><clipPath id="clip-path-8" transform="translate(-32.74 -227.95)"><rect x="410.53" y="270.4" width="9.55" height="9.56" fill="none"/></clipPath><clipPath id="clip-path-9" transform="translate(-32.74 -227.95)"><rect x="284.6" y="270.4" width="9.56" height="9.56" fill="none"/></clipPath><clipPath id="clip-path-10" transform="translate(-32.74 -227.95)"><rect x="284.6" y="270.4" width="9.56" height="9.56" fill="none"/></clipPath><clipPath id="clip-path-11" transform="translate(-32.74 -227.95)"><rect x="242.63" y="270.4" width="9.55" height="9.56" fill="none"/></clipPath><clipPath id="clip-path-12" transform="translate(-32.74 -227.95)"><rect x="242.63" y="270.4" width="9.55" height="9.56" fill="none"/></clipPath><clipPath id="clip-path-13" transform="translate(-32.74 -227.95)"><rect x="382.55" y="256.25" width="9.56" height="9.55" fill="none"/></clipPath><clipPath id="clip-path-14" transform="translate(-32.74 -227.95)"><rect x="382.55" y="256.25" width="9.56" height="9.55" fill="none"/></clipPath><clipPath id="clip-path-15" transform="translate(-32.74 -227.95)"><rect x="326.58" y="256.25" width="9.56" height="9.55" fill="none"/></clipPath><clipPath id="clip-path-16" transform="translate(-32.74 -227.95)"><rect x="326.58" y="256.25" width="9.56" height="9.55" fill="none"/></clipPath><clipPath id="clip-path-17" transform="translate(-32.74 -227.95)"><rect x="424.52" y="242.1" width="9.56" height="9.55" fill="none"/></clipPath><clipPath id="clip-path-18" transform="translate(-32.74 -227.95)"><rect x="424.52" y="242.1" width="9.56" height="9.55" fill="none"/></clipPath><clipPath id="clip-path-19" transform="translate(-32.74 -227.95)"><rect x="312.59" y="242.1" width="9.55" height="9.55" fill="none"/></clipPath><clipPath id="clip-path-20" transform="translate(-32.74 -227.95)"><rect x="312.59" y="242.1" width="9.55" height="9.55" fill="none"/></clipPath><clipPath id="clip-path-21" transform="translate(-32.74 -227.95)"><rect x="284.6" y="242.1" width="9.56" height="9.55" fill="none"/></clipPath><clipPath id="clip-path-22" transform="translate(-32.74 -227.95)"><rect x="284.6" y="242.1" width="9.56" height="9.55" fill="none"/></clipPath><clipPath id="clip-path-23" transform="translate(-32.74 -227.95)"><rect x="354.56" y="227.95" width="9.55" height="9.55" fill="none"/></clipPath><clipPath id="clip-path-24" transform="translate(-32.74 -227.95)"><rect x="354.56" y="227.95" width="9.55" height="9.55" fill="none"/></clipPath><clipPath id="clip-path-25" transform="translate(-32.74 -227.95)"><rect x="270.61" y="227.95" width="9.55" height="9.55" fill="none"/></clipPath><clipPath id="clip-path-26" transform="translate(-32.74 -227.95)"><rect x="270.61" y="227.95" width="9.55" height="9.55" fill="none"/></clipPath><clipPath id="clip-path-27" transform="translate(-32.74 -227.95)"><rect x="256.61" y="227.95" width="9.57" height="9.55" fill="none"/></clipPath><clipPath id="clip-path-28" transform="translate(-32.74 -227.95)"><rect x="256.61" y="227.95" width="9.57" height="9.55" fill="none"/></clipPath><clipPath id="clip-path-29" transform="translate(-32.74 -227.95)"><rect x="214.64" y="284.54" width="9.55" height="9.56" fill="none"/></clipPath><clipPath id="clip-path-30" transform="translate(-32.74 -227.95)"><rect x="214.64" y="284.54" width="9.55" height="9.56" fill="none"/></clipPath><clipPath id="clip-path-31" transform="translate(-32.74 -227.95)"><rect x="172.67" y="284.54" width="9.55" height="9.56" fill="none"/></clipPath><clipPath id="clip-path-32" transform="translate(-32.74 -227.95)"><rect x="172.67" y="284.54" width="9.55" height="9.56" fill="none"/></clipPath><clipPath id="clip-path-33" transform="translate(-32.74 -227.95)"><rect x="102.71" y="284.54" width="9.55" height="9.56" fill="none"/></clipPath><clipPath id="clip-path-34" transform="translate(-32.74 -227.95)"><rect x="102.71" y="284.54" width="9.55" height="9.56" fill="none"/></clipPath><clipPath id="clip-path-35" transform="translate(-32.74 -227.95)"><rect x="74.73" y="284.54" width="9.56" height="9.56" fill="none"/></clipPath><clipPath id="clip-path-36" transform="translate(-32.74 -227.95)"><rect x="74.73" y="284.54" width="9.56" height="9.56" fill="none"/></clipPath><clipPath id="clip-path-37" transform="translate(-32.74 -227.95)"><rect x="60.73" y="284.54" width="9.55" height="9.56" fill="none"/></clipPath><clipPath id="clip-path-38" transform="translate(-32.74 -227.95)"><rect x="60.73" y="284.54" width="9.55" height="9.56" fill="none"/></clipPath><clipPath id="clip-path-39" transform="translate(-32.74 -227.95)"><rect x="32.74" y="284.54" width="9.57" height="9.56" fill="none"/></clipPath><clipPath id="clip-path-40" transform="translate(-32.74 -227.95)"><rect x="32.74" y="284.54" width="9.57" height="9.56" fill="none"/></clipPath><clipPath id="clip-path-41" transform="translate(-32.74 -227.95)"><rect x="116.7" y="270.4" width="9.56" height="9.56" fill="none"/></clipPath><clipPath id="clip-path-42" transform="translate(-32.74 -227.95)"><rect x="116.7" y="270.4" width="9.56" height="9.56" fill="none"/></clipPath><clipPath id="clip-path-43" transform="translate(-32.74 -227.95)"><rect x="60.73" y="270.4" width="9.55" height="9.56" fill="none"/></clipPath><clipPath id="clip-path-44" transform="translate(-32.74 -227.95)"><rect x="60.73" y="270.4" width="9.55" height="9.56" fill="none"/></clipPath><clipPath id="clip-path-45" transform="translate(-32.74 -227.95)"><rect x="46.74" y="270.4" width="9.55" height="9.56" fill="none"/></clipPath><clipPath id="clip-path-46" transform="translate(-32.74 -227.95)"><rect x="46.74" y="270.4" width="9.55" height="9.56" fill="none"/></clipPath><clipPath id="clip-path-47" transform="translate(-32.74 -227.95)"><rect x="32.74" y="270.4" width="9.57" height="9.56" fill="none"/></clipPath><clipPath id="clip-path-48" transform="translate(-32.74 -227.95)"><rect x="32.74" y="270.4" width="9.57" height="9.56" fill="none"/></clipPath><clipPath id="clip-path-49" transform="translate(-32.74 -227.95)"><rect x="228.64" y="256.25" width="9.55" height="9.55" fill="none"/></clipPath><clipPath id="clip-path-50" transform="translate(-32.74 -227.95)"><rect x="228.64" y="256.25" width="9.55" height="9.55" fill="none"/></clipPath><clipPath id="clip-path-51" transform="translate(-32.74 -227.95)"><rect x="74.73" y="256.25" width="9.56" height="9.55" fill="none"/></clipPath><clipPath id="clip-path-52" transform="translate(-32.74 -227.95)"><rect x="74.73" y="256.25" width="9.56" height="9.55" fill="none"/></clipPath><clipPath id="clip-path-53" transform="translate(-32.74 -227.95)"><rect x="228.64" y="242.1" width="9.55" height="9.55" fill="none"/></clipPath><clipPath id="clip-path-54" transform="translate(-32.74 -227.95)"><rect x="228.64" y="242.1" width="9.55" height="9.55" fill="none"/></clipPath><clipPath id="clip-path-55" transform="translate(-32.74 -227.95)"><rect x="172.67" y="242.1" width="9.55" height="9.55" fill="none"/></clipPath><clipPath id="clip-path-56" transform="translate(-32.74 -227.95)"><rect x="172.67" y="242.1" width="9.55" height="9.55" fill="none"/></clipPath><clipPath id="clip-path-57" transform="translate(-32.74 -227.95)"><rect x="102.71" y="242.1" width="9.55" height="9.55" fill="none"/></clipPath><clipPath id="clip-path-58" transform="translate(-32.74 -227.95)"><rect x="102.71" y="242.1" width="9.55" height="9.55" fill="none"/></clipPath><clipPath id="clip-path-59" transform="translate(-32.74 -227.95)"><rect x="74.73" y="242.1" width="9.56" height="9.55" fill="none"/></clipPath><clipPath id="clip-path-60" transform="translate(-32.74 -227.95)"><rect x="74.73" y="242.1" width="9.56" height="9.55" fill="none"/></clipPath><clipPath id="clip-path-61" transform="translate(-32.74 -227.95)"><rect x="60.73" y="242.1" width="9.55" height="9.55" fill="none"/></clipPath><clipPath id="clip-path-62" transform="translate(-32.74 -227.95)"><rect x="60.73" y="242.1" width="9.55" height="9.55" fill="none"/></clipPath><clipPath id="clip-path-63" transform="translate(-32.74 -227.95)"><rect x="32.74" y="242.1" width="9.57" height="9.55" fill="none"/></clipPath><clipPath id="clip-path-64" transform="translate(-32.74 -227.95)"><rect x="32.74" y="242.1" width="9.57" height="9.55" fill="none"/></clipPath><clipPath id="clip-path-65" transform="translate(-32.74 -227.95)"><rect x="228.64" y="227.95" width="9.55" height="9.55" fill="none"/></clipPath><clipPath id="clip-path-66" transform="translate(-32.74 -227.95)"><rect x="228.64" y="227.95" width="9.55" height="9.55" fill="none"/></clipPath><clipPath id="clip-path-67" transform="translate(-32.74 -227.95)"><rect x="522.46" y="284.54" width="9.55" height="9.56" fill="none"/></clipPath><clipPath id="clip-path-68" transform="translate(-32.74 -227.95)"><rect x="522.46" y="284.54" width="9.55" height="9.56" fill="none"/></clipPath><clipPath id="clip-path-69" transform="translate(-32.74 -227.95)"><rect x="550.44" y="270.4" width="9.55" height="9.56" fill="none"/></clipPath><clipPath id="clip-path-70" transform="translate(-32.74 -227.95)"><rect x="550.44" y="270.4" width="9.55" height="9.56" fill="none"/></clipPath><clipPath id="clip-path-71" transform="translate(-32.74 -227.95)"><rect x="536.45" y="227.95" width="9.56" height="9.55" fill="none"/></clipPath><clipPath id="clip-path-72" transform="translate(-32.74 -227.95)"><rect x="536.45" y="227.95" width="9.56" height="9.55" fill="none"/></clipPath><clipPath id="clip-path-73" transform="translate(-32.74 -227.95)"><rect x="158.68" y="227.95" width="9.56" height="9.55" fill="none"/></clipPath><clipPath id="clip-path-74" transform="translate(-32.74 -227.95)"><rect x="158.68" y="227.95" width="9.56" height="9.55" fill="none"/></clipPath><clipPath id="clip-path-75" transform="translate(-32.74 -227.95)"><rect x="116.7" y="227.95" width="9.56" height="9.55" fill="none"/></clipPath><clipPath id="clip-path-76" transform="translate(-32.74 -227.95)"><rect x="116.7" y="227.95" width="9.56" height="9.55" fill="none"/></clipPath><clipPath id="clip-path-77" transform="translate(-32.74 -227.95)"><rect x="88.72" y="227.95" width="9.55" height="9.55" fill="none"/></clipPath><clipPath id="clip-path-78" transform="translate(-32.74 -227.95)"><rect x="88.72" y="227.95" width="9.55" height="9.55" fill="none"/></clipPath><clipPath id="clip-path-79" transform="translate(-32.74 -227.95)"><rect x="32.74" y="227.95" width="9.57" height="9.55" fill="none"/></clipPath><clipPath id="clip-path-80" transform="translate(-32.74 -227.95)"><rect x="32.74" y="227.95" width="9.57" height="9.55" fill="none"/></clipPath></defs><g opacity="0.65"><g clip-path="url(#clip-path)"><g clip-path="url(#clip-path-2)"><path d="M438.52 289.32C438.52 286.68 440.66 284.54 443.3 284.54 445.94 284.54 448.08 286.68 448.08 289.32 448.08 291.96 445.94 294.1 443.3 294.1 443.297 294.1 443.293 294.1 443.29 294.1 440.654 294.094 438.52 291.956 438.52 289.32" fill="#FFFFFF" transform="translate(-32.74 -227.95)"/></g></g></g><g opacity="0.25"><g clip-path="url(#clip-path-3)"><g clip-path="url(#clip-path-4)"><path d="M340.57 289.32C340.57 286.68 342.71 284.54 345.35 284.54 347.99 284.54 350.13 286.68 350.13 289.32 350.13 291.96 347.99 294.1 345.35 294.1 342.712 294.095 340.576 291.958 340.57 289.32" fill="#FFFFFF" transform="translate(-32.74 -227.95)"/></g></g></g><path d="M298.6 289.32C298.6 286.68 300.74 284.54 303.38 284.54 306.02 284.54 308.16 286.68 308.16 289.32 308.16 291.96 306.02 294.1 303.38 294.1 300.74 294.1 298.6 291.96 298.6 289.32" fill="#FFFFFF" transform="translate(-32.74 -227.95)"/><g opacity="0.65"><g clip-path="url(#clip-path-5)"><g clip-path="url(#clip-path-6)"><path d="M256.61 289.32C256.604 286.675 258.745 284.526 261.39 284.52 264.035 284.514 266.184 286.655 266.19 289.3 266.195 291.945 264.055 294.094 261.41 294.1 261.407 294.1 261.403 294.1 261.4 294.1 258.758 294.1 256.616 291.962 256.61 289.32" fill="#FFFFFF" transform="translate(-32.74 -227.95)"/></g></g></g><path d="M242.63 289.32C242.63 286.68 244.77 284.54 247.41 284.54 250.05 284.54 252.19 286.68 252.19 289.32 252.19 291.96 250.05 294.1 247.41 294.1 247.407 294.1 247.403 294.1 247.4 294.1 244.764 294.094 242.63 291.956 242.63 289.32" fill="#FFFFFF" transform="translate(-32.74 -227.95)"/><g opacity="0.25"><g clip-path="url(#clip-path-7)"><g clip-path="url(#clip-path-8)"><path d="M410.53 275.18C410.552 272.54 412.71 270.418 415.35 270.44 417.99 270.462 420.112 272.62 420.09 275.26 420.068 277.888 417.928 280.005 415.3 280 412.668 279.995 410.536 277.862 410.53 275.23" fill="#FFFFFF" transform="translate(-32.74 -227.95)"/></g></g></g><path d="M382.55 275.18C382.544 272.54 384.68 270.396 387.32 270.39 389.96 270.384 392.104 272.52 392.11 275.16 392.115 277.8 389.98 279.944 387.34 279.95 387.337 279.95 387.333 279.95 387.33 279.95 384.696 279.956 382.556 277.824 382.55 275.19 382.55 275.187 382.55 275.183 382.55 275.18" fill="#FFFFFF" transform="translate(-32.74 -227.95)"/><path d="M312.59 275.18C312.584 272.54 314.72 270.396 317.36 270.39 320 270.384 322.144 272.52 322.15 275.16 322.155 277.8 320.02 279.944 317.38 279.95 317.373 279.95 317.367 279.95 317.36 279.95 314.728 279.944 312.595 277.812 312.59 275.18" fill="#FFFFFF" transform="translate(-32.74 -227.95)"/><g opacity="0.25"><g clip-path="url(#clip-path-9)"><g clip-path="url(#clip-path-10)"><path d="M284.6 275.18C284.594 272.54 286.73 270.396 289.37 270.39 292.01 270.384 294.154 272.52 294.16 275.16 294.165 277.8 292.03 279.944 289.39 279.95 286.75 279.956 284.605 277.82 284.6 275.18" fill="#FFFFFF" transform="translate(-32.74 -227.95)"/></g></g></g><path d="M270.61 275.18C270.604 272.54 272.74 270.396 275.38 270.39 278.02 270.384 280.164 272.52 280.17 275.16 280.175 277.8 278.04 279.944 275.4 279.95 275.397 279.95 275.393 279.95 275.39 279.95 272.754 279.95 270.616 277.816 270.61 275.18" fill="#FFFFFF" transform="translate(-32.74 -227.95)"/><g opacity="0.65"><g clip-path="url(#clip-path-11)"><g clip-path="url(#clip-path-12)"><path d="M242.63 275.18C242.652 272.54 244.81 270.418 247.45 270.44 250.09 270.462 252.212 272.62 252.19 275.26 252.168 277.888 250.028 280.005 247.4 280 244.768 279.995 242.636 277.862 242.63 275.23" fill="#FFFFFF" transform="translate(-32.74 -227.95)"/></g></g></g><g opacity="0.65"><g clip-path="url(#clip-path-13)"><g clip-path="url(#clip-path-14)"><path d="M382.55 261C382.544 258.36 384.68 256.216 387.32 256.21 389.96 256.204 392.104 258.34 392.11 260.98 392.115 263.62 389.98 265.764 387.34 265.77 387.337 265.77 387.333 265.77 387.33 265.77 384.696 265.776 382.556 263.644 382.55 261.01 382.55 261.007 382.55 261.003 382.55 261" fill="#FFFFFF" transform="translate(-32.74 -227.95)"/></g></g></g><path d="M354.56 261C354.554 258.36 356.69 256.216 359.33 256.21 361.97 256.204 364.114 258.34 364.12 260.98 364.125 263.62 361.99 265.764 359.35 265.77 359.347 265.77 359.343 265.77 359.34 265.77 356.704 265.77 354.566 263.636 354.56 261" fill="#FFFFFF" transform="translate(-32.74 -227.95)"/><g opacity="0.65"><g clip-path="url(#clip-path-15)"><g clip-path="url(#clip-path-16)"><path d="M326.58 261C326.574 258.36 328.71 256.216 331.35 256.21 333.99 256.204 336.134 258.34 336.14 260.98 336.145 263.62 334.01 265.764 331.37 265.77 331.367 265.77 331.363 265.77 331.36 265.77 328.726 265.776 326.586 263.644 326.58 261.01 326.58 261.007 326.58 261.003 326.58 261" fill="#FFFFFF" transform="translate(-32.74 -227.95)"/></g></g></g><path d="M298.6 261C298.594 258.36 300.73 256.216 303.37 256.21 306.01 256.204 308.154 258.34 308.16 260.98 308.165 263.62 306.03 265.764 303.39 265.77 303.387 265.77 303.383 265.77 303.38 265.77 300.746 265.776 298.606 263.644 298.6 261.01 298.6 261.007 298.6 261.003 298.6 261" fill="#FFFFFF" transform="translate(-32.74 -227.95)"/><path d="M284.6 261C284.594 258.36 286.73 256.216 289.37 256.21 292.01 256.204 294.154 258.34 294.16 260.98 294.165 263.62 292.03 265.764 289.39 265.77 286.75 265.776 284.605 263.64 284.6 261" fill="#FFFFFF" transform="translate(-32.74 -227.95)"/><path d="M256.61 261C256.599 258.355 258.735 256.201 261.38 256.19 264.025 256.179 266.179 258.315 266.19 260.96 266.201 263.605 264.065 265.759 261.42 265.77 261.413 265.77 261.407 265.77 261.4 265.77 258.762 265.77 256.621 263.638 256.61 261" fill="#FFFFFF" transform="translate(-32.74 -227.95)"/><g opacity="0.65"><g clip-path="url(#clip-path-17)"><g clip-path="url(#clip-path-18)"><path d="M424.52 246.88C424.52 244.24 426.66 242.1 429.3 242.1 431.94 242.1 434.08 244.24 434.08 246.88 434.08 249.52 431.94 251.66 429.3 251.66 426.66 251.66 424.52 249.52 424.52 246.88" fill="#FFFFFF" transform="translate(-32.74 -227.95)"/></g></g></g><path d="M368.56 246.88C368.56 244.24 370.7 242.1 373.34 242.1 375.98 242.1 378.12 244.24 378.12 246.88 378.12 249.52 375.98 251.66 373.34 251.66 373.337 251.66 373.333 251.66 373.33 251.66 370.696 251.66 368.56 249.524 368.56 246.89 368.56 246.887 368.56 246.883 368.56 246.88" fill="#FFFFFF" transform="translate(-32.74 -227.95)"/><path d="M326.58 246.88C326.58 244.24 328.72 242.1 331.36 242.1 334 242.1 336.14 244.24 336.14 246.88 336.14 249.52 334 251.66 331.36 251.66 328.726 251.666 326.586 249.534 326.58 246.9 326.58 246.893 326.58 246.887 326.58 246.88" fill="#FFFFFF" transform="translate(-32.74 -227.95)"/><g opacity="0.25"><g clip-path="url(#clip-path-19)"><g clip-path="url(#clip-path-20)"><path d="M312.59 246.88C312.59 244.24 314.73 242.1 317.37 242.1 320.01 242.1 322.15 244.24 322.15 246.88 322.15 249.52 320.01 251.66 317.37 251.66 317.367 251.66 317.363 251.66 317.36 251.66 314.724 251.654 312.59 249.516 312.59 246.88" fill="#FFFFFF" transform="translate(-32.74 -227.95)"/></g></g></g><g opacity="0.65"><g clip-path="url(#clip-path-21)"><g clip-path="url(#clip-path-22)"><path d="M284.6 246.88C284.6 244.24 286.74 242.1 289.38 242.1 292.02 242.1 294.16 244.24 294.16 246.88 294.16 249.516 292.026 251.654 289.39 251.66 286.75 251.666 284.606 249.53 284.6 246.89 284.6 246.887 284.6 246.883 284.6 246.88" fill="#FFFFFF" transform="translate(-32.74 -227.95)"/></g></g></g><path d="M256.61 246.88C256.604 244.235 258.745 242.086 261.39 242.08 264.035 242.074 266.184 244.215 266.19 246.86 266.195 249.505 264.055 251.654 261.41 251.66 261.407 251.66 261.403 251.66 261.4 251.66 258.758 251.66 256.616 249.522 256.61 246.88" fill="#FFFFFF" transform="translate(-32.74 -227.95)"/><path d="M242.63 246.88C242.63 244.24 244.77 242.1 247.41 242.1 250.05 242.1 252.19 244.24 252.19 246.88 252.19 249.52 250.05 251.66 247.41 251.66 247.407 251.66 247.403 251.66 247.4 251.66 244.764 251.654 242.63 249.516 242.63 246.88" fill="#FFFFFF" transform="translate(-32.74 -227.95)"/><g opacity="0.65"><g clip-path="url(#clip-path-23)"><g clip-path="url(#clip-path-24)"><path d="M354.56 232.73C354.554 230.09 356.69 227.946 359.33 227.94 361.97 227.934 364.114 230.07 364.12 232.71 364.125 235.35 361.99 237.494 359.35 237.5 359.347 237.5 359.343 237.5 359.34 237.5 356.704 237.5 354.566 235.366 354.56 232.73" fill="#FFFFFF" transform="translate(-32.74 -227.95)"/></g></g></g><path d="M312.59 232.73C312.584 230.09 314.72 227.946 317.36 227.94 320 227.934 322.144 230.07 322.15 232.71 322.155 235.35 320.02 237.494 317.38 237.5 317.373 237.5 317.367 237.5 317.36 237.5 314.728 237.495 312.595 235.362 312.59 232.73" fill="#FFFFFF" transform="translate(-32.74 -227.95)"/><g opacity="0.25"><g clip-path="url(#clip-path-25)"><g clip-path="url(#clip-path-26)"><path d="M270.61 232.73C270.604 230.09 272.74 227.946 275.38 227.94 278.02 227.934 280.164 230.07 280.17 232.71 280.175 235.35 278.04 237.494 275.4 237.5 275.397 237.5 275.393 237.5 275.39 237.5 272.754 237.5 270.616 235.366 270.61 232.73" fill="#FFFFFF" transform="translate(-32.74 -227.95)"/></g></g></g><g opacity="0.65"><g clip-path="url(#clip-path-27)"><g clip-path="url(#clip-path-28)"><path d="M256.61 232.73C256.599 230.085 258.735 227.931 261.38 227.92 264.025 227.909 266.179 230.045 266.19 232.69 266.201 235.335 264.065 237.489 261.42 237.5 261.413 237.5 261.407 237.5 261.4 237.5 258.762 237.5 256.621 235.368 256.61 232.73" fill="#FFFFFF" transform="translate(-32.74 -227.95)"/></g></g></g><g opacity="0.65"><g clip-path="url(#clip-path-29)"><g clip-path="url(#clip-path-30)"><path d="M214.64 289.32C214.64 286.68 216.78 284.54 219.42 284.54 222.06 284.54 224.2 286.68 224.2 289.32 224.2 291.96 222.06 294.1 219.42 294.1 216.782 294.095 214.645 291.958 214.64 289.32" fill="#FFFFFF" transform="translate(-32.74 -227.95)"/></g></g></g><g opacity="0.65"><g clip-path="url(#clip-path-31)"><g clip-path="url(#clip-path-32)"><path d="M172.67 289.32C172.67 286.68 174.81 284.54 177.45 284.54 180.09 284.54 182.23 286.68 182.23 289.32 182.23 291.96 180.09 294.1 177.45 294.1 174.812 294.095 172.675 291.958 172.67 289.32" fill="#FFFFFF" transform="translate(-32.74 -227.95)"/></g></g></g><path d="M144.69 289.32C144.69 286.68 146.83 284.54 149.47 284.54 152.11 284.54 154.25 286.68 154.25 289.32 154.25 291.96 152.11 294.1 149.47 294.1 149.467 294.1 149.463 294.1 149.46 294.1 146.824 294.094 144.69 291.956 144.69 289.32" fill="#FFFFFF" transform="translate(-32.74 -227.95)"/><g opacity="0.65"><g clip-path="url(#clip-path-33)"><g clip-path="url(#clip-path-34)"><path d="M102.71 289.32C102.71 286.68 104.85 284.54 107.49 284.54 110.13 284.54 112.27 286.68 112.27 289.32 112.27 291.96 110.13 294.1 107.49 294.1 104.852 294.095 102.715 291.958 102.71 289.32" fill="#FFFFFF" transform="translate(-32.74 -227.95)"/></g></g></g><g opacity="0.65"><g clip-path="url(#clip-path-35)"><g clip-path="url(#clip-path-36)"><path d="M74.73 289.32C74.73 286.68 76.8701 284.54 79.51 284.54 82.1499 284.54 84.29 286.68 84.29 289.32 84.29 291.96 82.1499 294.1 79.51 294.1 79.5067 294.1 79.5033 294.1 79.5 294.1 76.864 294.094 74.73 291.956 74.73 289.32" fill="#FFFFFF" transform="translate(-32.74 -227.95)"/></g></g></g><g opacity="0.65"><g clip-path="url(#clip-path-37)"><g clip-path="url(#clip-path-38)"><path d="M60.73 289.32C60.73 286.68 62.8701 284.54 65.51 284.54 68.1499 284.54 70.29 286.68 70.29 289.32 70.29 291.956 68.156 294.094 65.52 294.1 62.8785 294.1 60.7355 291.962 60.73 289.32" fill="#FFFFFF" transform="translate(-32.74 -227.95)"/></g></g></g><g opacity="0.25"><g clip-path="url(#clip-path-39)"><g clip-path="url(#clip-path-40)"><path d="M32.74 289.32C32.7345 286.675 34.8746 284.526 37.52 284.52 40.1654 284.514 42.3145 286.655 42.32 289.3 42.3255 291.945 40.1854 294.094 37.54 294.1 37.5367 294.1 37.5333 294.1 37.53 294.1 34.8907 294.095 32.751 291.959 32.74 289.32" fill="#FFFFFF" transform="translate(-32.74 -227.95)"/></g></g></g><path d="M214.64 275.18C214.634 272.54 216.77 270.396 219.41 270.39 222.05 270.384 224.194 272.52 224.2 275.16 224.206 277.8 222.07 279.944 219.43 279.95 219.427 279.95 219.423 279.95 219.42 279.95 216.784 279.95 214.646 277.816 214.64 275.18" fill="#FFFFFF" transform="translate(-32.74 -227.95)"/><path d="M200.66 275.18C200.654 272.54 202.79 270.396 205.43 270.39 208.07 270.384 210.214 272.52 210.22 275.16 210.226 277.8 208.09 279.944 205.45 279.95 205.443 279.95 205.437 279.95 205.43 279.95 202.796 279.95 200.66 277.814 200.66 275.18" fill="#FFFFFF" transform="translate(-32.74 -227.95)"/><path d="M186.66 275.18C186.654 272.54 188.79 270.396 191.43 270.39 194.07 270.384 196.214 272.52 196.22 275.16 196.226 277.8 194.09 279.944 191.45 279.95 191.447 279.95 191.443 279.95 191.44 279.95 188.804 279.95 186.666 277.816 186.66 275.18" fill="#FFFFFF" transform="translate(-32.74 -227.95)"/><path d="M158.68 275.18C158.674 272.54 160.81 270.396 163.45 270.39 166.09 270.384 168.234 272.52 168.24 275.16 168.245 277.8 166.11 279.944 163.47 279.95 163.467 279.95 163.463 279.95 163.46 279.95 160.824 279.95 158.686 277.816 158.68 275.18" fill="#FFFFFF" transform="translate(-32.74 -227.95)"/><path d="M144.69 275.18C144.684 272.54 146.82 270.396 149.46 270.39 152.1 270.384 154.244 272.52 154.25 275.16 154.256 277.8 152.12 279.944 149.48 279.95 149.473 279.95 149.467 279.95 149.46 279.95 146.826 279.95 144.69 277.814 144.69 275.18" fill="#FFFFFF" transform="translate(-32.74 -227.95)"/><g opacity="0.65"><g clip-path="url(#clip-path-41)"><g clip-path="url(#clip-path-42)"><path d="M116.7 275.18C116.694 272.54 118.83 270.396 121.47 270.39 124.11 270.384 126.254 272.52 126.26 275.16 126.266 277.8 124.13 279.944 121.49 279.95 121.487 279.95 121.483 279.95 121.48 279.95 118.844 279.95 116.706 277.816 116.7 275.18" fill="#FFFFFF" transform="translate(-32.74 -227.95)"/></g></g></g><path d="M102.71 275.18C102.704 272.54 104.84 270.396 107.48 270.39 110.12 270.384 112.264 272.52 112.27 275.16 112.276 277.8 110.14 279.944 107.5 279.95 107.497 279.95 107.493 279.95 107.49 279.95 104.854 279.95 102.716 277.816 102.71 275.18" fill="#FFFFFF" transform="translate(-32.74 -227.95)"/><path d="M88.72 275.18C88.7421 272.54 90.9 270.418 93.5398 270.44 96.1797 270.462 98.3018 272.62 98.2797 275.26 98.2577 277.888 96.1181 280.005 93.49 280 90.8579 279.995 88.7255 277.862 88.72 275.23" fill="#FFFFFF" transform="translate(-32.74 -227.95)"/><g opacity="0.25"><g clip-path="url(#clip-path-43)"><g clip-path="url(#clip-path-44)"><path d="M60.73 275.18C60.7521 272.54 62.91 270.418 65.5498 270.44 68.1897 270.462 70.3118 272.62 70.2897 275.26 70.2677 277.88 68.1403 279.994 65.52 280 62.8801 280.006 60.7355 277.87 60.73 275.23" fill="#FFFFFF" transform="translate(-32.74 -227.95)"/></g></g></g><g opacity="0.65"><g clip-path="url(#clip-path-45)"><g clip-path="url(#clip-path-46)"><path d="M46.74 275.18C46.7621 272.54 48.92 270.418 51.5598 270.44 54.1997 270.462 56.3218 272.62 56.2997 275.26 56.2777 277.88 54.1503 279.994 51.53 280 48.8923 280 46.751 277.868 46.74 275.23" fill="#FFFFFF" transform="translate(-32.74 -227.95)"/></g></g></g><g opacity="0.25"><g clip-path="url(#clip-path-47)"><g clip-path="url(#clip-path-48)"><path d="M32.74 275.18C32.7566 272.535 34.9145 270.404 37.5599 270.42 40.2053 270.437 42.3364 272.595 42.3198 275.24 42.3033 277.874 40.1637 280 37.53 280 34.8923 280 32.751 277.868 32.74 275.23" fill="#FFFFFF" transform="translate(-32.74 -227.95)"/></g></g></g><g opacity="0.65"><g clip-path="url(#clip-path-49)"><g clip-path="url(#clip-path-50)"><path d="M228.64 261C228.634 258.36 230.77 256.216 233.41 256.21 236.05 256.204 238.194 258.34 238.2 260.98 238.206 263.62 236.07 265.764 233.43 265.77 233.423 265.77 233.417 265.77 233.41 265.77 230.778 265.764 228.646 263.632 228.64 261" fill="#FFFFFF" transform="translate(-32.74 -227.95)"/></g></g></g><path d="M214.64 261C214.634 258.36 216.77 256.216 219.41 256.21 222.05 256.204 224.194 258.34 224.2 260.98 224.206 263.62 222.07 265.764 219.43 265.77 219.427 265.77 219.423 265.77 219.42 265.77 216.784 265.77 214.646 263.636 214.64 261" fill="#FFFFFF" transform="translate(-32.74 -227.95)"/><path d="M200.66 261C200.654 258.36 202.79 256.216 205.43 256.21 208.07 256.204 210.214 258.34 210.22 260.98 210.226 263.62 208.09 265.764 205.45 265.77 205.443 265.77 205.437 265.77 205.43 265.77 202.796 265.77 200.66 263.634 200.66 261" fill="#FFFFFF" transform="translate(-32.74 -227.95)"/><path d="M186.66 261C186.654 258.36 188.79 256.216 191.43 256.21 194.07 256.204 196.214 258.34 196.22 260.98 196.226 263.62 194.09 265.764 191.45 265.77 191.447 265.77 191.443 265.77 191.44 265.77 188.804 265.77 186.666 263.636 186.66 261" fill="#FFFFFF" transform="translate(-32.74 -227.95)"/><path d="M172.67 261C172.664 258.36 174.8 256.216 177.44 256.21 180.08 256.204 182.224 258.34 182.23 260.98 182.236 263.62 180.1 265.764 177.46 265.77 177.457 265.77 177.453 265.77 177.45 265.77 174.816 265.765 172.681 263.634 172.67 261" fill="#FFFFFF" transform="translate(-32.74 -227.95)"/><path d="M158.68 261C158.674 258.36 160.81 256.216 163.45 256.21 166.09 256.204 168.234 258.34 168.24 260.98 168.245 263.62 166.11 265.764 163.47 265.77 163.467 265.77 163.463 265.77 163.46 265.77 160.824 265.77 158.686 263.636 158.68 261" fill="#FFFFFF" transform="translate(-32.74 -227.95)"/><path d="M144.69 261C144.684 258.36 146.82 256.216 149.46 256.21 152.1 256.204 154.244 258.34 154.25 260.98 154.256 263.62 152.12 265.764 149.48 265.77 149.473 265.77 149.467 265.77 149.46 265.77 146.826 265.77 144.69 263.634 144.69 261" fill="#FFFFFF" transform="translate(-32.74 -227.95)"/><path d="M130.7 261C130.694 258.36 132.83 256.216 135.47 256.21 138.11 256.204 140.254 258.34 140.26 260.98 140.266 263.62 138.13 265.764 135.49 265.77 135.487 265.77 135.483 265.77 135.48 265.77 132.844 265.77 130.706 263.636 130.7 261" fill="#FFFFFF" transform="translate(-32.74 -227.95)"/><path d="M116.7 261C116.694 258.36 118.83 256.216 121.47 256.21 124.11 256.204 126.254 258.34 126.26 260.98 126.266 263.62 124.13 265.764 121.49 265.77 121.487 265.77 121.483 265.77 121.48 265.77 118.844 265.77 116.706 263.636 116.7 261" fill="#FFFFFF" transform="translate(-32.74 -227.95)"/><path d="M88.72 261C88.7145 258.36 90.8501 256.216 93.49 256.21 96.1299 256.204 98.2745 258.34 98.28 260.98 98.2855 263.62 96.1499 265.764 93.51 265.77 93.5033 265.77 93.4967 265.77 93.49 265.77 90.8579 265.764 88.7255 263.632 88.72 261" fill="#FFFFFF" transform="translate(-32.74 -227.95)"/><g opacity="0.65"><g clip-path="url(#clip-path-51)"><g clip-path="url(#clip-path-52)"><path d="M74.73 261C74.7245 258.36 76.8601 256.216 79.5 256.21 82.1399 256.204 84.2845 258.34 84.29 260.98 84.2955 263.62 82.1599 265.764 79.52 265.77 79.5133 265.77 79.5067 265.77 79.5 265.77 76.8679 265.764 74.7355 263.632 74.73 261" fill="#FFFFFF" transform="translate(-32.74 -227.95)"/></g></g></g><path d="M46.74 261C46.7345 258.36 48.8701 256.216 51.51 256.21 54.1499 256.204 56.2945 258.34 56.3 260.98 56.3055 263.62 54.1699 265.764 51.53 265.77 48.8923 265.77 46.751 263.638 46.74 261" fill="#FFFFFF" transform="translate(-32.74 -227.95)"/><g opacity="0.65"><g clip-path="url(#clip-path-53)"><g clip-path="url(#clip-path-54)"><path d="M228.64 246.88C228.64 244.24 230.78 242.1 233.42 242.1 236.06 242.1 238.2 244.24 238.2 246.88 238.2 249.52 236.06 251.66 233.42 251.66 233.417 251.66 233.413 251.66 233.41 251.66 230.774 251.654 228.64 249.516 228.64 246.88" fill="#FFFFFF" transform="translate(-32.74 -227.95)"/></g></g></g><path d="M214.64 246.88C214.64 244.24 216.78 242.1 219.42 242.1 222.06 242.1 224.2 244.24 224.2 246.88 224.2 249.52 222.06 251.66 219.42 251.66 216.78 251.66 214.64 249.52 214.64 246.88" fill="#FFFFFF" transform="translate(-32.74 -227.95)"/><path d="M186.66 246.88C186.66 244.24 188.8 242.1 191.44 242.1 194.08 242.1 196.22 244.24 196.22 246.88 196.22 249.52 194.08 251.66 191.44 251.66 188.8 251.66 186.66 249.52 186.66 246.88" fill="#FFFFFF" transform="translate(-32.74 -227.95)"/><g opacity="0.65"><g clip-path="url(#clip-path-55)"><g clip-path="url(#clip-path-56)"><path d="M172.67 246.88C172.67 244.24 174.81 242.1 177.45 242.1 180.09 242.1 182.23 244.24 182.23 246.88 182.23 249.52 180.09 251.66 177.45 251.66 174.812 251.654 172.675 249.518 172.67 246.88" fill="#FFFFFF" transform="translate(-32.74 -227.95)"/></g></g></g><path d="M158.68 246.88C158.68 244.24 160.82 242.1 163.46 242.1 166.1 242.1 168.24 244.24 168.24 246.88 168.24 249.52 166.1 251.66 163.46 251.66 160.82 251.66 158.68 249.52 158.68 246.88" fill="#FFFFFF" transform="translate(-32.74 -227.95)"/><path d="M130.7 246.88C130.7 244.24 132.84 242.1 135.48 242.1 138.12 242.1 140.26 244.24 140.26 246.88 140.26 249.52 138.12 251.66 135.48 251.66 132.84 251.66 130.7 249.52 130.7 246.88" fill="#FFFFFF" transform="translate(-32.74 -227.95)"/><path d="M116.7 246.88C116.7 244.24 118.84 242.1 121.48 242.1 124.12 242.1 126.26 244.24 126.26 246.88 126.26 249.52 124.12 251.66 121.48 251.66 118.84 251.66 116.7 249.52 116.7 246.88" fill="#FFFFFF" transform="translate(-32.74 -227.95)"/><g opacity="0.65"><g clip-path="url(#clip-path-57)"><g clip-path="url(#clip-path-58)"><path d="M102.71 246.88C102.71 244.24 104.85 242.1 107.49 242.1 110.13 242.1 112.27 244.24 112.27 246.88 112.27 249.52 110.13 251.66 107.49 251.66 104.85 251.66 102.71 249.52 102.71 246.88" fill="#FFFFFF" transform="translate(-32.74 -227.95)"/></g></g></g><path d="M88.72 246.88C88.72 244.24 90.8601 242.1 93.5 242.1 96.1399 242.1 98.28 244.24 98.28 246.88 98.28 249.52 96.1399 251.66 93.5 251.66 93.4967 251.66 93.4933 251.66 93.49 251.66 90.854 251.654 88.72 249.516 88.72 246.88" fill="#FFFFFF" transform="translate(-32.74 -227.95)"/><g opacity="0.25"><g clip-path="url(#clip-path-59)"><g clip-path="url(#clip-path-60)"><path d="M74.73 246.88C74.73 244.24 76.8701 242.1 79.51 242.1 82.1499 242.1 84.29 244.24 84.29 246.88 84.29 249.52 82.1499 251.66 79.51 251.66 79.5067 251.66 79.5033 251.66 79.5 251.66 76.864 251.654 74.73 249.516 74.73 246.88" fill="#FFFFFF" transform="translate(-32.74 -227.95)"/></g></g></g><g opacity="0.65"><g clip-path="url(#clip-path-61)"><g clip-path="url(#clip-path-62)"><path d="M60.73 246.88C60.73 244.24 62.8701 242.1 65.51 242.1 68.1499 242.1 70.29 244.24 70.29 246.88 70.29 249.516 68.156 251.654 65.52 251.66 62.8801 251.666 60.7355 249.53 60.73 246.89 60.73 246.887 60.73 246.883 60.73 246.88" fill="#FFFFFF" transform="translate(-32.74 -227.95)"/></g></g></g><g opacity="0.25"><g clip-path="url(#clip-path-63)"><g clip-path="url(#clip-path-64)"><path d="M32.74 246.88C32.7345 244.235 34.8746 242.086 37.52 242.08 40.1654 242.074 42.3145 244.215 42.32 246.86 42.3255 249.505 40.1854 251.654 37.54 251.66 37.5367 251.66 37.5333 251.66 37.53 251.66 34.8885 251.66 32.7455 249.522 32.74 246.88" fill="#FFFFFF" transform="translate(-32.74 -227.95)"/></g></g></g><g opacity="0.65"><g clip-path="url(#clip-path-65)"><g clip-path="url(#clip-path-66)"><path d="M228.64 232.73C228.634 230.09 230.77 227.946 233.41 227.94 236.05 227.934 238.194 230.07 238.2 232.71 238.206 235.35 236.07 237.494 233.43 237.5 233.423 237.5 233.417 237.5 233.41 237.5 230.778 237.495 228.646 235.362 228.64 232.73" fill="#FFFFFF" transform="translate(-32.74 -227.95)"/></g></g></g><path d="M200.66 232.73C200.654 230.09 202.79 227.946 205.43 227.94 208.07 227.934 210.214 230.07 210.22 232.71 210.226 235.35 208.09 237.494 205.45 237.5 205.443 237.5 205.437 237.5 205.43 237.5 202.796 237.5 200.66 235.364 200.66 232.73" fill="#FFFFFF" transform="translate(-32.74 -227.95)"/><g opacity="0.65"><g clip-path="url(#clip-path-67)"><g clip-path="url(#clip-path-68)"><path d="M522.46 289.32C522.46 286.68 524.6 284.54 527.24 284.54 529.88 284.54 532.02 286.68 532.02 289.32 532.02 291.96 529.88 294.1 527.24 294.1 527.237 294.1 527.233 294.1 527.23 294.1 524.594 294.094 522.46 291.956 522.46 289.32" fill="#FFFFFF" transform="translate(-32.74 -227.95)"/></g></g></g><g opacity="0.25"><g clip-path="url(#clip-path-69)"><g clip-path="url(#clip-path-70)"><path d="M550.44 275.18C550.435 272.54 552.57 270.396 555.21 270.39 557.85 270.384 559.995 272.52 560 275.16 560.005 277.8 557.87 279.944 555.23 279.95 552.592 279.95 550.451 277.818 550.44 275.18" fill="#FFFFFF" transform="translate(-32.74 -227.95)"/></g></g></g><path d="M508.47 246.88C508.47 244.24 510.61 242.1 513.25 242.1 515.89 242.1 518.03 244.24 518.03 246.88 518.03 249.52 515.89 251.66 513.25 251.66 510.61 251.66 508.47 249.52 508.47 246.88" fill="#FFFFFF" transform="translate(-32.74 -227.95)"/><g opacity="0.25"><g clip-path="url(#clip-path-71)"><g clip-path="url(#clip-path-72)"><path d="M536.45 232.73C536.445 230.09 538.58 227.946 541.22 227.94 543.86 227.934 546.005 230.07 546.01 232.71 546.016 235.35 543.88 237.494 541.24 237.5 541.237 237.5 541.233 237.5 541.23 237.5 538.594 237.5 536.456 235.366 536.45 232.73" fill="#FFFFFF" transform="translate(-32.74 -227.95)"/></g></g></g><path d="M480.49 275.18C480.484 272.54 482.62 270.396 485.26 270.39 487.9 270.384 490.044 272.52 490.05 275.16 490.055 277.8 487.92 279.944 485.28 279.95 485.277 279.95 485.273 279.95 485.27 279.95 482.634 279.95 480.496 277.816 480.49 275.18" fill="#FFFFFF" transform="translate(-32.74 -227.95)"/><path d="M466.49 232.73C466.484 230.09 468.62 227.946 471.26 227.94 473.9 227.934 476.044 230.07 476.05 232.71 476.055 235.35 473.92 237.494 471.28 237.5 468.642 237.5 466.501 235.368 466.49 232.73" fill="#FFFFFF" transform="translate(-32.74 -227.95)"/><g opacity="0.65"><g clip-path="url(#clip-path-73)"><g clip-path="url(#clip-path-74)"><path d="M158.68 232.73C158.674 230.09 160.81 227.946 163.45 227.94 166.09 227.934 168.234 230.07 168.24 232.71 168.245 235.35 166.11 237.494 163.47 237.5 163.467 237.5 163.463 237.5 163.46 237.5 160.824 237.5 158.686 235.366 158.68 232.73" fill="#FFFFFF" transform="translate(-32.74 -227.95)"/></g></g></g><g opacity="0.65"><g clip-path="url(#clip-path-75)"><g clip-path="url(#clip-path-76)"><path d="M116.7 232.73C116.694 230.09 118.83 227.946 121.47 227.94 124.11 227.934 126.254 230.07 126.26 232.71 126.266 235.35 124.13 237.494 121.49 237.5 121.487 237.5 121.483 237.5 121.48 237.5 118.844 237.5 116.706 235.366 116.7 232.73" fill="#FFFFFF" transform="translate(-32.74 -227.95)"/></g></g></g><g opacity="0.25"><g clip-path="url(#clip-path-77)"><g clip-path="url(#clip-path-78)"><path d="M88.72 232.73C88.7145 230.09 90.8501 227.946 93.49 227.94 96.1299 227.934 98.2745 230.07 98.28 232.71 98.2855 235.35 96.1499 237.494 93.51 237.5 93.5033 237.5 93.4967 237.5 93.49 237.5 90.8579 237.495 88.7255 235.362 88.72 232.73" fill="#FFFFFF" transform="translate(-32.74 -227.95)"/></g></g></g><g opacity="0.65"><g clip-path="url(#clip-path-79)"><g clip-path="url(#clip-path-80)"><path d="M32.74 232.73C32.729 230.085 34.8645 227.931 37.51 227.92 40.1554 227.909 42.3089 230.045 42.3199 232.69 42.331 235.335 40.1954 237.489 37.55 237.5 37.5433 237.5 37.5367 237.5 37.53 237.5 34.8923 237.5 32.751 235.368 32.74 232.73" fill="#FFFFFF" transform="translate(-32.74 -227.95)"/></g></g></g></svg>