<svg viewBox="0 0 260.89 213.11" xmlns="http://www.w3.org/2000/svg" xmlns:xlink="http://www.w3.org/1999/xlink" overflow="hidden"><defs></defs><g id="OBJECTS"><path d="M244.63 265.38C244.63 267.446 242.956 269.12 240.89 269.12L112.29 269.12C110.224 269.12 108.55 267.446 108.55 265.38 108.55 263.314 110.224 261.64 112.29 261.64L124.55 261.64C136.061 261.64 145.394 252.311 145.4 240.8L145.4 230.17 207.79 230.17 207.79 240.8C207.79 252.31 217.12 261.64 228.63 261.64L240.89 261.64C242.95 261.634 244.624 263.3 244.63 265.36 244.63 265.367 244.63 265.373 244.63 265.38Z" fill="#CBCFD7" transform="translate(-45.12 -56.01)"/><path d="M228.63 261.64 124.55 261.64C136.061 261.64 145.394 252.311 145.4 240.8L145.4 230.17 207.79 230.17 207.79 240.8C207.79 252.31 217.12 261.64 228.63 261.64Z" fill="#AAAFBA" transform="translate(-45.12 -56.01)"/><path d="M162.67 176.91 100.27 183.09 100.27 174.16 162.67 174.16 162.67 176.91Z" fill="#8F97A2"/><path d="M305.37 63.71 305.37 221.65 45.77 221.65 45.77 63.71C45.7644 59.7391 48.979 56.5155 52.9499 56.5099 52.9666 56.5099 52.9833 56.5099 53 56.51L298.18 56.51C302.151 56.51 305.37 59.7291 305.37 63.7 305.37 63.7033 305.37 63.7067 305.37 63.71Z" fill="#202135" transform="translate(-45.12 -56.01)"/><rect x="7.01" y="9.54" width="246.86" height="148.88" fill="#FFFFFF"/><path d="M305.86 221.65 304.86 221.65 304.86 63.71C304.854 60.0103 301.86 57.011 298.16 57L53 57C49.3004 57.011 46.3055 60.0103 46.3 63.71L46.3 221.65 45.3 221.65 45.3 63.71C45.2945 59.4574 48.7374 56.0055 52.99 56 52.9933 56 52.9967 56 53 56L298.18 56C302.427 56.0055 305.866 59.4529 305.86 63.7Z" fill="#676D77" transform="translate(-45.12 -56.01)"/><path d="M151 60.94C151 62.0777 150.078 63 148.94 63 147.802 63 146.88 62.0777 146.88 60.9399 146.88 59.8022 147.802 58.88 148.94 58.88 148.943 58.88 148.947 58.88 148.95 58.88 150.082 58.88 151 59.7978 151 60.93 151 60.9333 151 60.9367 151 60.94Z" fill="#7DBFE6" transform="translate(-45.12 -56.01)"/><path d="M305.86 217.14 305.86 218.51C305.888 225.137 300.538 230.532 293.91 230.56 293.877 230.56 293.843 230.56 293.81 230.56L57.33 230.56C50.675 230.566 45.2755 225.175 45.27 218.52 45.27 218.517 45.27 218.513 45.27 218.51L45.27 217.14Z" fill="#CBCFD7" transform="translate(-45.12 -56.01)"/><path d="M74.07 223.85C74.0645 225.971 72.3408 227.686 70.22 227.68 68.0993 227.674 66.3845 225.951 66.39 223.83 66.3955 221.713 68.1131 220 70.23 220 72.3508 220 74.07 221.719 74.07 223.84 74.07 223.843 74.07 223.847 74.07 223.85Z" fill="#AAAFBA" transform="translate(-45.12 -56.01)"/><path d="M305.87 205 305.98 214.12 305.98 218.68C305.963 223.449 303.187 227.776 298.86 229.78 296.715 230.693 294.386 231.09 292.06 230.94L289.78 230.94 253.29 231.15C193.91 231.41 120.73 231.34 61.29 230.94L59.01 230.94 57.91 230.94C55.961 230.986 54.0266 230.593 52.25 229.79 47.9228 227.786 45.1468 223.459 45.13 218.69L45.13 214.13 45.24 205.01 45.35 214.13C45.47 217.13 45.05 220.29 46.35 223.06 48.3104 227.646 52.9187 230.527 57.9 230.28L61.32 230.28C133.04 229.8 218.08 229.8 289.8 230.28L292.08 230.28 293.79 230.28 294.34 230.28C298.917 230.102 302.981 227.297 304.77 223.08 306.05 220.31 305.63 217.17 305.77 214.15L305.89 205.03Z" fill="#676D77" transform="translate(-45.12 -56.01)"/><path d="M70.23 228.84C67.4686 228.84 65.23 226.601 65.23 223.84 65.23 221.079 67.4686 218.84 70.23 218.84 72.9914 218.84 75.23 221.079 75.23 223.84 75.23 226.601 72.9914 228.84 70.23 228.84ZM70.23 219.44C67.7944 219.44 65.82 221.414 65.82 223.85 65.82 226.286 67.7944 228.26 70.23 228.26 72.6656 228.26 74.64 226.286 74.64 223.85 74.64 221.414 72.6656 219.44 70.23 219.44Z" fill="#676D77" transform="translate(-45.12 -56.01)"/><rect x="35.21" y="166.08" rx="1.67" width="35.03" height="3.5" fill="#AAAFBA"/><rect x="7.03" y="9.54" width="246.86" height="10.8" fill="#9DA2AD"/><path d="M285.66 71C285.66 72.204 284.684 73.18 283.48 73.18 282.276 73.18 281.3 72.204 281.3 71 281.3 69.796 282.276 68.82 283.48 68.82 284.682 68.8255 285.655 69.7983 285.66 71Z" fill="#AAAFBA" transform="translate(-45.12 -56.01)"/><path d="M278 71C278 72.204 277.024 73.18 275.82 73.18 274.616 73.18 273.64 72.204 273.64 71 273.64 69.796 274.616 68.82 275.82 68.82 277.022 68.8255 277.995 69.7983 278 71Z" fill="#8B929D" transform="translate(-45.12 -56.01)"/><path d="M293.29 71C293.29 72.204 292.314 73.18 291.11 73.18 289.906 73.18 288.93 72.204 288.93 71 288.93 69.796 289.906 68.82 291.11 68.82 292.312 68.8255 293.285 69.7983 293.29 71Z" fill="#E5E7EB" transform="translate(-45.12 -56.01)"/><path d="M257.05 71C257.049 71.7737 256.739 72.515 256.19 73.06 255.644 73.6144 254.898 73.9246 254.12 73.92L109.91 73.92C108.295 73.8255 107.062 72.4393 107.156 70.8239 107.243 69.3404 108.426 68.1568 109.91 68.07L254.12 68.07C255.736 68.0755 257.044 69.3841 257.05 71Z" fill="#E5E7EB" transform="translate(-45.12 -56.01)"/><path d="M104.75 71C104.75 71.7769 104.441 72.5219 103.89 73.07 103.348 73.6229 102.605 73.9331 101.83 73.93L94.09 73.93C92.4757 73.9245 91.17 72.6143 91.17 71 91.1453 70.2126 91.4455 69.4496 92 68.89 92.5473 68.3224 93.3015 68.0013 94.09 68L101.83 68C103.443 67.9994 104.75 69.3062 104.751 70.9189 104.751 70.9459 104.751 70.973 104.75 71Z" fill="#AAAFBA" transform="translate(-45.12 -56.01)"/><path d="M59 73.56C58.8868 73.5579 58.779 73.5111 58.7 73.43L56.5 71.25C56.4175 71.1762 56.3702 71.0707 56.37 70.96 56.371 70.8465 56.4179 70.7383 56.5 70.66L58.7 68.48C58.8573 68.3171 59.1168 68.3125 59.2797 68.4697 59.2832 68.4731 59.2866 68.4765 59.29 68.48 59.4529 68.6292 59.4641 68.8822 59.3149 69.0451 59.3069 69.0538 59.2986 69.0621 59.29 69.07L57.38 71 59.28 72.88C59.4429 73.0373 59.4475 73.2968 59.2903 73.4597 59.2869 73.4632 59.2835 73.4666 59.28 73.47 59.201 73.5336 59.1012 73.5657 59 73.56Z" fill="#8B929D" transform="translate(-45.12 -56.01)"/><path d="M69.92 68.36C70.032 68.3584 70.14 68.4016 70.22 68.48L72.42 70.66C72.5021 70.7383 72.549 70.8465 72.55 70.96 72.5498 71.0707 72.5025 71.1762 72.42 71.25L70.22 73.43C70.0381 73.574 69.774 73.5433 69.63 73.3614 69.509 73.2087 69.509 72.9928 69.63 72.84L71.53 71 69.63 69.11C69.4671 68.9608 69.4559 68.7078 69.6051 68.5449 69.6131 68.5362 69.6213 68.5279 69.63 68.52 69.7007 68.4292 69.8055 68.3714 69.92 68.36Z" fill="#8B929D" transform="translate(-45.12 -56.01)"/></g><g id="TEXTS"><text fill="#FFFFFF" font-family="Nunito-Regular,Nunito" font-size="2.57" transform="translate(43.97 78.5)">SIGN UP</text><text fill="#FFFFFF" font-family="Nunito-Regular,Nunito" font-size="2.57" transform="translate(26.57 78.5)"><tspan letter-spacing="-0.04em">L</tspan><tspan x="1.3" y="0">OGIN</tspan></text></g></svg>