<svg viewBox="0 0 527.26 66.15" xmlns="http://www.w3.org/2000/svg" xmlns:xlink="http://www.w3.org/1999/xlink" id="Capa_1" overflow="hidden"><defs><clipPath id="clip-path" transform="translate(-930.12 -334.32)"><rect x="958.11" y="390.91" width="9.55" height="9.56" fill="none"/></clipPath><clipPath id="clip-path-2" transform="translate(-930.12 -334.32)"><rect x="958.11" y="390.91" width="9.55" height="9.56" fill="none"/></clipPath><clipPath id="clip-path-3" transform="translate(-930.12 -334.32)"><rect x="1335.9" y="390.91" width="9.55" height="9.56" fill="none"/></clipPath><clipPath id="clip-path-4" transform="translate(-930.12 -334.32)"><rect x="1335.9" y="390.91" width="9.55" height="9.56" fill="none"/></clipPath><clipPath id="clip-path-5" transform="translate(-930.12 -334.32)"><rect x="1153.99" y="390.91" width="9.57" height="9.56" fill="none"/></clipPath><clipPath id="clip-path-6" transform="translate(-930.12 -334.32)"><rect x="1153.99" y="390.91" width="9.57" height="9.56" fill="none"/></clipPath><clipPath id="clip-path-7" transform="translate(-930.12 -334.32)"><rect x="1140" y="376.77" width="9.55" height="9.56" fill="none"/></clipPath><clipPath id="clip-path-8" transform="translate(-930.12 -334.32)"><rect x="1140" y="376.77" width="9.55" height="9.56" fill="none"/></clipPath><clipPath id="clip-path-9" transform="translate(-930.12 -334.32)"><rect x="1279.92" y="362.62" width="9.56" height="9.56" fill="none"/></clipPath><clipPath id="clip-path-11" transform="translate(-930.12 -334.32)"><rect x="1223.95" y="362.62" width="9.56" height="9.56" fill="none"/></clipPath><clipPath id="clip-path-13" transform="translate(-930.12 -334.32)"><rect x="1321.9" y="348.47" width="9.56" height="9.55" fill="none"/></clipPath><clipPath id="clip-path-14" transform="translate(-930.12 -334.32)"><rect x="1321.9" y="348.48" width="9.56" height="9.55" fill="none"/></clipPath><clipPath id="clip-path-15" transform="translate(-930.12 -334.32)"><rect x="1181.98" y="348.47" width="9.55" height="9.55" fill="none"/></clipPath><clipPath id="clip-path-16" transform="translate(-930.12 -334.32)"><rect x="1181.98" y="348.48" width="9.55" height="9.55" fill="none"/></clipPath><clipPath id="clip-path-17" transform="translate(-930.12 -334.32)"><rect x="1251.94" y="334.32" width="9.55" height="9.55" fill="none"/></clipPath><clipPath id="clip-path-18" transform="translate(-930.12 -334.32)"><rect x="1251.94" y="334.32" width="9.55" height="9.55" fill="none"/></clipPath><clipPath id="clip-path-19" transform="translate(-930.12 -334.32)"><rect x="1153.99" y="334.32" width="9.57" height="9.55" fill="none"/></clipPath><clipPath id="clip-path-21" transform="translate(-930.12 -334.32)"><rect x="1112.02" y="390.91" width="9.55" height="9.56" fill="none"/></clipPath><clipPath id="clip-path-22" transform="translate(-930.12 -334.32)"><rect x="1112.02" y="390.91" width="9.55" height="9.56" fill="none"/></clipPath><clipPath id="clip-path-23" transform="translate(-930.12 -334.32)"><rect x="1070.05" y="390.91" width="9.56" height="9.56" fill="none"/></clipPath><clipPath id="clip-path-24" transform="translate(-930.12 -334.32)"><rect x="1070.05" y="390.91" width="9.56" height="9.56" fill="none"/></clipPath><clipPath id="clip-path-25" transform="translate(-930.12 -334.32)"><rect x="1000.09" y="390.91" width="9.55" height="9.56" fill="none"/></clipPath><clipPath id="clip-path-26" transform="translate(-930.12 -334.32)"><rect x="1000.09" y="390.91" width="9.55" height="9.56" fill="none"/></clipPath><clipPath id="clip-path-27" transform="translate(-930.12 -334.32)"><rect x="972.1" y="390.91" width="9.56" height="9.56" fill="none"/></clipPath><clipPath id="clip-path-28" transform="translate(-930.12 -334.32)"><rect x="972.1" y="390.91" width="9.55" height="9.56" fill="none"/></clipPath><clipPath id="clip-path-29" transform="translate(-930.12 -334.32)"><rect x="1014.08" y="376.77" width="9.56" height="9.56" fill="none"/></clipPath><clipPath id="clip-path-30" transform="translate(-930.12 -334.32)"><rect x="1014.08" y="376.77" width="9.56" height="9.56" fill="none"/></clipPath><clipPath id="clip-path-31" transform="translate(-930.12 -334.32)"><rect x="944.12" y="376.77" width="9.55" height="9.56" fill="none"/></clipPath><clipPath id="clip-path-32" transform="translate(-930.12 -334.32)"><rect x="944.12" y="376.77" width="9.55" height="9.56" fill="none"/></clipPath><clipPath id="clip-path-33" transform="translate(-930.12 -334.32)"><rect x="1126.02" y="362.62" width="9.55" height="9.56" fill="none"/></clipPath><clipPath id="clip-path-34" transform="translate(-930.12 -334.32)"><rect x="1126.02" y="362.62" width="9.55" height="9.56" fill="none"/></clipPath><clipPath id="clip-path-35" transform="translate(-930.12 -334.32)"><rect x="972.1" y="362.62" width="9.56" height="9.56" fill="none"/></clipPath><clipPath id="clip-path-36" transform="translate(-930.12 -334.32)"><rect x="972.1" y="362.62" width="9.55" height="9.56" fill="none"/></clipPath><clipPath id="clip-path-37" transform="translate(-930.12 -334.32)"><rect x="1126.02" y="348.47" width="9.55" height="9.55" fill="none"/></clipPath><clipPath id="clip-path-38" transform="translate(-930.12 -334.32)"><rect x="1126.02" y="348.48" width="9.55" height="9.55" fill="none"/></clipPath><clipPath id="clip-path-39" transform="translate(-930.12 -334.32)"><rect x="1070.05" y="348.47" width="9.56" height="9.55" fill="none"/></clipPath><clipPath id="clip-path-40" transform="translate(-930.12 -334.32)"><rect x="1070.05" y="348.48" width="9.56" height="9.55" fill="none"/></clipPath><clipPath id="clip-path-41" transform="translate(-930.12 -334.32)"><rect x="1000.09" y="348.47" width="9.55" height="9.55" fill="none"/></clipPath><clipPath id="clip-path-42" transform="translate(-930.12 -334.32)"><rect x="1000.09" y="348.48" width="9.55" height="9.55" fill="none"/></clipPath><clipPath id="clip-path-43" transform="translate(-930.12 -334.32)"><rect x="958.11" y="348.47" width="9.55" height="9.55" fill="none"/></clipPath><clipPath id="clip-path-44" transform="translate(-930.12 -334.32)"><rect x="958.11" y="348.48" width="9.55" height="9.55" fill="none"/></clipPath><clipPath id="clip-path-45" transform="translate(-930.12 -334.32)"><rect x="1126.02" y="334.32" width="9.55" height="9.55" fill="none"/></clipPath><clipPath id="clip-path-46" transform="translate(-930.12 -334.32)"><rect x="1126.02" y="334.32" width="9.55" height="9.55" fill="none"/></clipPath><clipPath id="clip-path-47" transform="translate(-930.12 -334.32)"><rect x="1419.84" y="390.91" width="9.56" height="9.56" fill="none"/></clipPath><clipPath id="clip-path-48" transform="translate(-930.12 -334.32)"><rect x="1419.84" y="390.91" width="9.56" height="9.56" fill="none"/></clipPath><clipPath id="clip-path-49" transform="translate(-930.12 -334.32)"><rect x="1056.05" y="334.32" width="9.56" height="9.55" fill="none"/></clipPath><clipPath id="clip-path-51" transform="translate(-930.12 -334.32)"><rect x="1014.08" y="334.32" width="9.56" height="9.55" fill="none"/></clipPath><clipPath id="clip-path-53" transform="translate(-930.12 -334.32)"><rect x="930.12" y="334.32" width="9.57" height="9.55" fill="none"/></clipPath></defs><path d="M1433.82 339.1C1433.81 336.455 1435.95 334.306 1438.6 334.3 1441.25 334.294 1443.39 336.435 1443.4 339.08 1443.41 341.725 1441.27 343.874 1438.62 343.88 1435.98 343.88 1433.83 341.743 1433.82 339.1" fill="#005195" opacity="0.25" transform="translate(-930.12 -334.32)"/><path d="M1447.81 381.55C1447.8 378.905 1449.94 376.756 1452.59 376.75 1455.24 376.744 1457.38 378.885 1457.39 381.53 1457.4 384.175 1455.26 386.324 1452.61 386.33 1452.61 386.33 1452.6 386.33 1452.6 386.33 1449.96 386.33 1447.82 384.192 1447.81 381.55" fill="#005195" opacity="0.25" transform="translate(-930.12 -334.32)"/><path d="M1307.9 381.55C1307.89 378.905 1310.03 376.756 1312.68 376.75 1315.33 376.744 1317.47 378.885 1317.48 381.53 1317.49 384.175 1315.35 386.324 1312.7 386.33 1312.7 386.33 1312.69 386.33 1312.69 386.33 1310.05 386.33 1307.91 384.192 1307.9 381.55" fill="#005195" opacity="0.25" transform="translate(-930.12 -334.32)"/><path d="M1237.94 395.7C1237.93 393.055 1240.06 390.901 1242.71 390.89 1245.36 390.879 1247.51 393.015 1247.52 395.66 1247.53 398.305 1245.4 400.459 1242.75 400.47 1242.74 400.47 1242.74 400.47 1242.73 400.47 1240.09 400.47 1237.95 398.338 1237.94 395.7" fill="#005195" opacity="0.25" transform="translate(-930.12 -334.32)"/><path d="M1210 353.26C1209.99 350.615 1212.12 348.461 1214.77 348.45 1217.42 348.439 1219.57 350.575 1219.58 353.22 1219.59 355.865 1217.46 358.019 1214.81 358.03 1214.81 358.03 1214.8 358.03 1214.8 358.03 1212.16 358.03 1210.02 355.899 1210 353.26" fill="#005195" opacity="0.25" transform="translate(-930.12 -334.32)"/><path d="M1196 395.7C1195.99 393.06 1198.13 390.916 1200.77 390.91 1203.41 390.905 1205.55 393.04 1205.56 395.68 1205.57 398.32 1203.43 400.464 1200.79 400.47 1200.79 400.47 1200.78 400.47 1200.78 400.47 1198.15 400.465 1196.01 398.334 1196 395.7" fill="#005195" transform="translate(-930.12 -334.32)"/><path d="M1140 395.7C1139.99 393.06 1142.13 390.916 1144.77 390.91 1147.41 390.905 1149.55 393.04 1149.56 395.68 1149.57 398.32 1147.43 400.464 1144.79 400.47 1144.79 400.47 1144.78 400.47 1144.78 400.47 1142.15 400.465 1140.01 398.334 1140 395.7" fill="#005195" transform="translate(-930.12 -334.32)"/><path d="M1279.92 381.55C1279.92 378.91 1282.06 376.77 1284.7 376.77 1287.34 376.77 1289.48 378.91 1289.48 381.55 1289.48 384.19 1287.34 386.33 1284.7 386.33 1282.06 386.33 1279.92 384.19 1279.92 381.55" fill="#005195" transform="translate(-930.12 -334.32)"/><path d="M1210 381.55C1210 378.91 1212.14 376.77 1214.78 376.77 1217.42 376.77 1219.56 378.91 1219.56 381.55 1219.56 384.19 1217.42 386.33 1214.78 386.33 1212.14 386.324 1210.01 384.188 1210 381.55" fill="#005195" transform="translate(-930.12 -334.32)"/><path d="M1168 381.55C1168 378.91 1170.14 376.77 1172.78 376.77 1175.42 376.77 1177.56 378.91 1177.56 381.55 1177.56 384.19 1175.42 386.33 1172.78 386.33 1170.14 386.33 1168 384.19 1168 381.55" fill="#005195" transform="translate(-930.12 -334.32)"/><path d="M1251.94 367.4C1251.94 364.76 1254.08 362.62 1256.72 362.62 1259.36 362.62 1261.5 364.76 1261.5 367.4 1261.5 370.04 1259.36 372.18 1256.72 372.18 1254.08 372.174 1251.95 370.038 1251.94 367.4" fill="#005195" transform="translate(-930.12 -334.32)"/><path d="M1196 367.4C1196 364.76 1198.14 362.62 1200.78 362.62 1203.42 362.62 1205.56 364.76 1205.56 367.4 1205.56 370.04 1203.42 372.18 1200.78 372.18 1198.14 372.174 1196.01 370.038 1196 367.4" fill="#005195" transform="translate(-930.12 -334.32)"/><path d="M1182 367.4C1182 364.76 1184.14 362.62 1186.78 362.62 1189.42 362.62 1191.56 364.76 1191.56 367.4 1191.56 370.04 1189.42 372.18 1186.78 372.18 1184.14 372.18 1182 370.04 1182 367.4" fill="#005195" transform="translate(-930.12 -334.32)"/><path d="M1154 367.4C1154 364.76 1156.14 362.62 1158.78 362.62 1161.42 362.62 1163.56 364.76 1163.56 367.4 1163.56 370.036 1161.43 372.174 1158.79 372.18 1156.15 372.18 1154.01 370.042 1154 367.4" fill="#005195" transform="translate(-930.12 -334.32)"/><path d="M1265.93 353.26C1265.92 350.62 1268.06 348.476 1270.7 348.47 1273.34 348.465 1275.48 350.6 1275.49 353.24 1275.5 355.88 1273.36 358.024 1270.72 358.03 1270.72 358.03 1270.71 358.03 1270.71 358.03 1268.08 358.036 1265.94 355.904 1265.93 353.27 1265.93 353.267 1265.93 353.263 1265.93 353.26" fill="#005195" transform="translate(-930.12 -334.32)"/><path d="M1224 353.26C1223.99 350.62 1226.13 348.476 1228.77 348.47 1231.41 348.465 1233.55 350.6 1233.56 353.24 1233.57 355.88 1231.43 358.024 1228.79 358.03 1226.15 358.036 1224.01 355.9 1224 353.26" fill="#005195" transform="translate(-930.12 -334.32)"/><path d="M1154 353.26C1153.99 350.62 1156.13 348.476 1158.77 348.47 1161.41 348.465 1163.55 350.6 1163.56 353.24 1163.57 355.88 1161.43 358.024 1158.79 358.03 1156.15 358.036 1154.01 355.9 1154 353.26" fill="#005195" transform="translate(-930.12 -334.32)"/><path d="M1140 353.26C1139.99 350.62 1142.13 348.476 1144.77 348.47 1147.41 348.465 1149.55 350.6 1149.56 353.24 1149.57 355.88 1147.43 358.024 1144.79 358.03 1144.79 358.03 1144.78 358.03 1144.78 358.03 1142.14 358.03 1140.01 355.896 1140 353.26" fill="#005195" transform="translate(-930.12 -334.32)"/><path d="M1210 339.1C1210 336.46 1212.14 334.32 1214.78 334.32 1217.42 334.32 1219.56 336.46 1219.56 339.1 1219.56 341.74 1217.42 343.88 1214.78 343.88 1212.14 343.875 1210.01 341.738 1210 339.1" fill="#005195" transform="translate(-930.12 -334.32)"/><path d="M1042.06 395.7C1042.05 393.06 1044.19 390.916 1046.83 390.91 1049.47 390.905 1051.61 393.04 1051.62 395.68 1051.63 398.32 1049.49 400.464 1046.85 400.47 1046.85 400.47 1046.84 400.47 1046.84 400.47 1044.21 400.465 1042.07 398.334 1042.06 395.7" fill="#005195" transform="translate(-930.12 -334.32)"/><path d="M1112 381.55C1112 378.91 1114.14 376.77 1116.78 376.77 1119.42 376.77 1121.56 378.91 1121.56 381.55 1121.56 384.19 1119.42 386.33 1116.78 386.33 1116.78 386.33 1116.77 386.33 1116.77 386.33 1114.13 386.324 1112 384.186 1112 381.55" fill="#005195" transform="translate(-930.12 -334.32)"/><path d="M1098 381.55C1098 378.91 1100.14 376.77 1102.78 376.77 1105.42 376.77 1107.56 378.91 1107.56 381.55 1107.56 384.19 1105.42 386.33 1102.78 386.33 1100.14 386.33 1098 384.19 1098 381.55" fill="#005195" transform="translate(-930.12 -334.32)"/><path d="M1084 381.55C1084 378.91 1086.14 376.77 1088.78 376.77 1091.42 376.77 1093.56 378.91 1093.56 381.55 1093.56 384.19 1091.42 386.33 1088.78 386.33 1088.78 386.33 1088.77 386.33 1088.77 386.33 1086.13 386.324 1084 384.186 1084 381.55" fill="#005195" transform="translate(-930.12 -334.32)"/><path d="M1056.05 381.55C1056.05 378.91 1058.19 376.77 1060.83 376.77 1063.47 376.77 1065.61 378.91 1065.61 381.55 1065.61 384.19 1063.47 386.33 1060.83 386.33 1058.19 386.33 1056.05 384.19 1056.05 381.55" fill="#005195" transform="translate(-930.12 -334.32)"/><path d="M1042.06 381.55C1042.06 378.91 1044.2 376.77 1046.84 376.77 1049.48 376.77 1051.62 378.91 1051.62 381.55 1051.62 384.19 1049.48 386.33 1046.84 386.33 1044.2 386.33 1042.06 384.19 1042.06 381.55" fill="#005195" transform="translate(-930.12 -334.32)"/><path d="M1000.09 381.55C1000.09 378.91 1002.23 376.77 1004.87 376.77 1007.51 376.77 1009.65 378.91 1009.65 381.55 1009.65 384.19 1007.51 386.33 1004.87 386.33 1002.24 386.336 1000.1 384.204 1000.09 381.57 1000.09 381.563 1000.09 381.557 1000.09 381.55" fill="#005195" transform="translate(-930.12 -334.32)"/><path d="M986.1 381.55C986.1 378.91 988.24 376.77 990.88 376.77 993.52 376.77 995.66 378.91 995.66 381.55 995.66 384.19 993.52 386.33 990.88 386.33 990.877 386.33 990.873 386.33 990.87 386.33 988.236 386.33 986.1 384.194 986.1 381.56 986.1 381.557 986.1 381.553 986.1 381.55" fill="#005195" transform="translate(-930.12 -334.32)"/><path d="M1112 367.4C1112 364.76 1114.14 362.62 1116.78 362.62 1119.42 362.62 1121.56 364.76 1121.56 367.4 1121.56 370.04 1119.42 372.18 1116.78 372.18 1116.78 372.18 1116.77 372.18 1116.77 372.18 1114.13 372.174 1112 370.036 1112 367.4" fill="#005195" transform="translate(-930.12 -334.32)"/><path d="M1098 367.4C1098 364.76 1100.14 362.62 1102.78 362.62 1105.42 362.62 1107.56 364.76 1107.56 367.4 1107.56 370.04 1105.42 372.18 1102.78 372.18 1100.14 372.174 1098.01 370.038 1098 367.4" fill="#005195" transform="translate(-930.12 -334.32)"/><path d="M1084 367.4C1084 364.76 1086.14 362.62 1088.78 362.62 1091.42 362.62 1093.56 364.76 1093.56 367.4 1093.56 370.04 1091.42 372.18 1088.78 372.18 1088.78 372.18 1088.77 372.18 1088.77 372.18 1086.13 372.174 1084 370.036 1084 367.4" fill="#005195" transform="translate(-930.12 -334.32)"/><path d="M1070.05 367.4C1070.05 364.76 1072.19 362.62 1074.83 362.62 1077.47 362.62 1079.61 364.76 1079.61 367.4 1079.61 370.04 1077.47 372.18 1074.83 372.18 1072.19 372.174 1070.06 370.038 1070.05 367.4" fill="#005195" transform="translate(-930.12 -334.32)"/><path d="M1056.05 367.4C1056.05 364.76 1058.19 362.62 1060.83 362.62 1063.47 362.62 1065.61 364.76 1065.61 367.4 1065.61 370.04 1063.47 372.18 1060.83 372.18 1058.19 372.174 1056.06 370.038 1056.05 367.4" fill="#005195" transform="translate(-930.12 -334.32)"/><path d="M1042.06 367.4C1042.06 364.76 1044.2 362.62 1046.84 362.62 1049.48 362.62 1051.62 364.76 1051.62 367.4 1051.62 370.04 1049.48 372.18 1046.84 372.18 1044.2 372.174 1042.07 370.038 1042.06 367.4" fill="#005195" transform="translate(-930.12 -334.32)"/><path d="M1028.07 367.4C1028.07 364.76 1030.21 362.62 1032.85 362.62 1035.49 362.62 1037.63 364.76 1037.63 367.4 1037.63 370.04 1035.49 372.18 1032.85 372.18 1030.21 372.174 1028.08 370.038 1028.07 367.4" fill="#005195" transform="translate(-930.12 -334.32)"/><path d="M1014.08 367.4C1014.08 364.76 1016.22 362.62 1018.86 362.62 1021.5 362.62 1023.64 364.76 1023.64 367.4 1023.64 370.04 1021.5 372.18 1018.86 372.18 1018.86 372.18 1018.85 372.18 1018.85 372.18 1016.21 372.174 1014.08 370.036 1014.08 367.4" fill="#005195" transform="translate(-930.12 -334.32)"/><path d="M986.1 367.4C986.1 364.76 988.24 362.62 990.88 362.62 993.52 362.62 995.66 364.76 995.66 367.4 995.66 370.04 993.52 372.18 990.88 372.18 990.877 372.18 990.873 372.18 990.87 372.18 988.234 372.174 986.1 370.036 986.1 367.4" fill="#005195" transform="translate(-930.12 -334.32)"/><path d="M944.12 367.4C944.12 364.76 946.26 362.62 948.9 362.62 951.54 362.62 953.68 364.76 953.68 367.4 953.68 370.04 951.54 372.18 948.9 372.18 946.262 372.174 944.126 370.038 944.12 367.4" fill="#005195" transform="translate(-930.12 -334.32)"/><path d="M1112 353.26C1111.99 350.62 1114.13 348.476 1116.77 348.47 1119.41 348.465 1121.55 350.6 1121.56 353.24 1121.57 355.88 1119.43 358.024 1116.79 358.03 1116.78 358.03 1116.78 358.03 1116.77 358.03 1114.14 358.03 1112 355.894 1112 353.26" fill="#005195" transform="translate(-930.12 -334.32)"/><path d="M1084 353.26C1083.99 350.62 1086.13 348.476 1088.77 348.47 1091.41 348.465 1093.55 350.6 1093.56 353.24 1093.57 355.88 1091.43 358.024 1088.79 358.03 1088.78 358.03 1088.78 358.03 1088.77 358.03 1086.14 358.03 1084 355.894 1084 353.26" fill="#005195" transform="translate(-930.12 -334.32)"/><path d="M1056.05 353.26C1056.04 350.62 1058.18 348.476 1060.82 348.47 1063.46 348.465 1065.6 350.6 1065.61 353.24 1065.62 355.88 1063.48 358.024 1060.84 358.03 1060.84 358.03 1060.83 358.03 1060.83 358.03 1058.2 358.036 1056.06 355.904 1056.05 353.27 1056.05 353.267 1056.05 353.263 1056.05 353.26" fill="#005195" transform="translate(-930.12 -334.32)"/><path d="M1028.07 353.26C1028.06 350.62 1030.2 348.476 1032.84 348.47 1035.48 348.465 1037.62 350.6 1037.63 353.24 1037.64 355.88 1035.5 358.024 1032.86 358.03 1032.86 358.03 1032.85 358.03 1032.85 358.03 1030.22 358.036 1028.08 355.904 1028.07 353.27 1028.07 353.267 1028.07 353.263 1028.07 353.26" fill="#005195" transform="translate(-930.12 -334.32)"/><path d="M1014.08 353.26C1014.07 350.62 1016.21 348.476 1018.85 348.47 1021.49 348.465 1023.63 350.6 1023.64 353.24 1023.65 355.88 1021.51 358.024 1018.87 358.03 1018.86 358.03 1018.86 358.03 1018.85 358.03 1016.22 358.03 1014.08 355.894 1014.08 353.26" fill="#005195" transform="translate(-930.12 -334.32)"/><path d="M986.1 353.26C986.094 350.62 988.23 348.476 990.87 348.47 993.51 348.465 995.654 350.6 995.66 353.24 995.665 355.88 993.53 358.024 990.89 358.03 990.883 358.03 990.877 358.03 990.87 358.03 988.236 358.03 986.1 355.894 986.1 353.26" fill="#005195" transform="translate(-930.12 -334.32)"/><path d="M1098 339.1C1098 336.46 1100.14 334.32 1102.78 334.32 1105.42 334.32 1107.56 336.46 1107.56 339.1 1107.56 341.74 1105.42 343.88 1102.78 343.88 1100.14 343.875 1098.01 341.738 1098 339.1" fill="#005195" transform="translate(-930.12 -334.32)"/><path d="M1405.84 353.26C1405.83 350.62 1407.97 348.476 1410.61 348.47 1413.25 348.465 1415.39 350.6 1415.4 353.24 1415.41 355.88 1413.27 358.024 1410.63 358.03 1410.63 358.03 1410.62 358.03 1410.62 358.03 1407.99 358.036 1405.85 355.904 1405.84 353.27 1405.84 353.267 1405.84 353.263 1405.84 353.26" fill="#005195" transform="translate(-930.12 -334.32)"/><path d="M1377.86 381.55C1377.86 378.91 1380 376.77 1382.64 376.77 1385.28 376.77 1387.42 378.91 1387.42 381.55 1387.42 384.186 1385.29 386.324 1382.65 386.33 1380.01 386.33 1377.87 384.191 1377.86 381.55" fill="#005195" transform="translate(-930.12 -334.32)"/><path d="M1363.87 339.1C1363.87 336.46 1366.01 334.32 1368.65 334.32 1371.29 334.32 1373.43 336.46 1373.43 339.1 1373.43 341.74 1371.29 343.88 1368.65 343.88 1366.01 343.875 1363.88 341.738 1363.87 339.1" fill="#005195" transform="translate(-930.12 -334.32)"/><path d="M1182 381.55C1181.99 378.905 1184.13 376.756 1186.78 376.75 1189.43 376.744 1191.57 378.885 1191.58 381.53 1191.59 384.175 1189.45 386.324 1186.8 386.33 1186.8 386.33 1186.79 386.33 1186.79 386.33 1184.15 386.33 1182.01 384.192 1182 381.55" fill="#005195" opacity="0.25" transform="translate(-930.12 -334.32)"/><path d="M1168 339.1C1167.99 336.455 1170.13 334.306 1172.78 334.3 1175.43 334.294 1177.57 336.435 1177.58 339.08 1177.59 341.725 1175.45 343.874 1172.8 343.88 1172.8 343.88 1172.79 343.88 1172.79 343.88 1170.15 343.88 1168.01 341.742 1168 339.1" fill="#005195" opacity="0.25" transform="translate(-930.12 -334.32)"/><path d="M986.09 339.1C986.085 336.455 988.225 334.306 990.87 334.3 993.515 334.294 995.664 336.435 995.67 339.08 995.675 341.725 993.535 343.874 990.89 343.88 990.887 343.88 990.883 343.88 990.88 343.88 988.238 343.88 986.096 341.742 986.09 339.1" fill="#005195" opacity="0.25" transform="translate(-930.12 -334.32)"/><path d="M972.1 353.26C972.089 350.615 974.224 348.461 976.87 348.45 979.515 348.439 981.669 350.575 981.68 353.22 981.691 355.865 979.555 358.019 976.91 358.03 976.903 358.03 976.897 358.03 976.89 358.03 974.252 358.03 972.111 355.898 972.1 353.26" fill="#005195" opacity="0.25" transform="translate(-930.12 -334.32)"/><path d="M958.1 381.55C958.094 378.905 960.234 376.756 962.88 376.75 965.525 376.744 967.674 378.885 967.68 381.53 967.685 384.175 965.545 386.324 962.9 386.33 962.897 386.33 962.893 386.33 962.89 386.33 960.248 386.33 958.105 384.192 958.1 381.55" fill="#005195" opacity="0.25" transform="translate(-930.12 -334.32)"/><g opacity="0.65"><g clip-path="url(#clip-path)"><g clip-path="url(#clip-path-2)"><path d="M958.11 395.7C958.104 393.06 960.24 390.916 962.88 390.91 965.52 390.905 967.664 393.04 967.67 395.68 967.675 398.32 965.54 400.464 962.9 400.47 962.897 400.47 962.893 400.47 962.89 400.47 960.256 400.465 958.121 398.334 958.11 395.7" fill="#004987" transform="translate(-930.12 -334.32)"/></g></g></g><path d="M930.12 395.7C930.109 393.055 932.245 390.901 934.89 390.89 937.535 390.879 939.689 393.015 939.7 395.66 939.711 398.305 937.575 400.459 934.93 400.47 934.923 400.47 934.917 400.47 934.91 400.47 932.272 400.47 930.131 398.338 930.12 395.7" fill="#005195" opacity="0.25" transform="translate(-930.12 -334.32)"/><path d="M930.12 381.55C930.115 378.905 932.255 376.756 934.9 376.75 937.545 376.744 939.694 378.885 939.7 381.53 939.705 384.175 937.565 386.324 934.92 386.33 934.917 386.33 934.913 386.33 934.91 386.33 932.268 386.33 930.125 384.192 930.12 381.55" fill="#005195" opacity="0.25" transform="translate(-930.12 -334.32)"/><g opacity="0.65"><g clip-path="url(#clip-path-3)"><g clip-path="url(#clip-path-4)"><path d="M1335.9 395.7C1335.9 393.066 1338.04 390.93 1340.67 390.93 1343.3 390.93 1345.44 393.066 1345.44 395.7 1345.44 398.334 1343.3 400.47 1340.67 400.47 1338.04 400.465 1335.91 398.332 1335.9 395.7" fill="#004987" transform="translate(-930.12 -334.32)"/></g></g></g><g opacity="0.65"><g clip-path="url(#clip-path-5)"><g clip-path="url(#clip-path-6)"><path d="M1154 395.7C1153.99 393.06 1156.13 390.916 1158.77 390.91 1161.41 390.905 1163.55 393.04 1163.56 395.68 1163.57 398.32 1161.43 400.464 1158.79 400.47 1156.15 400.47 1154.01 398.338 1154 395.7" fill="#004987" transform="translate(-930.12 -334.32)"/></g></g></g><g opacity="0.65"><g clip-path="url(#clip-path-7)"><g clip-path="url(#clip-path-8)"><path d="M1140 381.55C1140 378.91 1142.14 376.77 1144.78 376.77 1147.42 376.77 1149.56 378.91 1149.56 381.55 1149.56 384.19 1147.42 386.33 1144.78 386.33 1142.14 386.324 1140.01 384.188 1140 381.55" fill="#004987" transform="translate(-930.12 -334.32)"/></g></g></g><g opacity="0.65"><g clip-path="url(#clip-path-9)"><g clip-path="url(#clip-path-9)"><path d="M1279.92 367.4C1279.92 364.76 1282.06 362.62 1284.7 362.62 1287.34 362.62 1289.48 364.76 1289.48 367.4 1289.48 370.04 1287.34 372.18 1284.7 372.18 1282.06 372.174 1279.93 370.038 1279.92 367.4" fill="#004987" transform="translate(-930.12 -334.32)"/></g></g></g><g opacity="0.65"><g clip-path="url(#clip-path-11)"><g clip-path="url(#clip-path-11)"><path d="M1224 367.4C1224 364.76 1226.14 362.62 1228.78 362.62 1231.42 362.62 1233.56 364.76 1233.56 367.4 1233.56 370.036 1231.43 372.174 1228.79 372.18 1226.15 372.18 1224.01 370.042 1224 367.4" fill="#004987" transform="translate(-930.12 -334.32)"/></g></g></g><g opacity="0.65"><g clip-path="url(#clip-path-13)"><g clip-path="url(#clip-path-14)"><path d="M1321.9 353.26C1321.89 350.62 1324.03 348.476 1326.67 348.47 1329.31 348.465 1331.45 350.6 1331.46 353.24 1331.47 355.88 1329.33 358.024 1326.69 358.03 1326.69 358.03 1326.68 358.03 1326.68 358.03 1324.05 358.036 1321.91 355.904 1321.9 353.27 1321.9 353.267 1321.9 353.263 1321.9 353.26" fill="#004987" transform="translate(-930.12 -334.32)"/></g></g></g><g opacity="0.65"><g clip-path="url(#clip-path-15)"><g clip-path="url(#clip-path-16)"><path d="M1182 353.26C1181.99 350.62 1184.13 348.476 1186.77 348.47 1189.41 348.465 1191.55 350.6 1191.56 353.24 1191.57 355.88 1189.43 358.024 1186.79 358.03 1186.79 358.03 1186.78 358.03 1186.78 358.03 1184.15 358.036 1182.01 355.904 1182 353.27 1182 353.267 1182 353.263 1182 353.26" fill="#004987" transform="translate(-930.12 -334.32)"/></g></g></g><g opacity="0.65"><g clip-path="url(#clip-path-17)"><g clip-path="url(#clip-path-18)"><path d="M1251.94 339.1C1251.94 336.46 1254.08 334.32 1256.72 334.32 1259.36 334.32 1261.5 336.46 1261.5 339.1 1261.5 341.74 1259.36 343.88 1256.72 343.88 1254.08 343.875 1251.95 341.738 1251.94 339.1" fill="#004987" transform="translate(-930.12 -334.32)"/></g></g></g><g opacity="0.65"><g clip-path="url(#clip-path-19)"><g clip-path="url(#clip-path-19)"><path d="M1154 339.1C1154 336.46 1156.14 334.32 1158.78 334.32 1161.42 334.32 1163.56 336.46 1163.56 339.1 1163.56 341.736 1161.43 343.874 1158.79 343.88 1156.15 343.88 1154.01 341.742 1154 339.1" fill="#004987" transform="translate(-930.12 -334.32)"/></g></g></g><g opacity="0.65"><g clip-path="url(#clip-path-21)"><g clip-path="url(#clip-path-22)"><path d="M1112 395.7C1111.99 393.06 1114.13 390.916 1116.77 390.91 1119.41 390.905 1121.55 393.04 1121.56 395.68 1121.57 398.32 1119.43 400.464 1116.79 400.47 1116.78 400.47 1116.78 400.47 1116.77 400.47 1114.14 400.459 1112.01 398.33 1112 395.7" fill="#004987" transform="translate(-930.12 -334.32)"/></g></g></g><g opacity="0.65"><g clip-path="url(#clip-path-23)"><g clip-path="url(#clip-path-24)"><path d="M1070.05 395.7C1070.04 393.06 1072.18 390.916 1074.82 390.91 1077.46 390.905 1079.6 393.04 1079.61 395.68 1079.62 398.32 1077.48 400.464 1074.84 400.47 1074.84 400.47 1074.83 400.47 1074.83 400.47 1072.2 400.465 1070.06 398.334 1070.05 395.7" fill="#004987" transform="translate(-930.12 -334.32)"/></g></g></g><g opacity="0.65"><g clip-path="url(#clip-path-25)"><g clip-path="url(#clip-path-26)"><path d="M1000.09 395.7C1000.08 393.06 1002.22 390.916 1004.86 390.91 1007.5 390.905 1009.64 393.04 1009.65 395.68 1009.66 398.32 1007.52 400.464 1004.88 400.47 1004.88 400.47 1004.87 400.47 1004.87 400.47 1002.23 400.47 1000.1 398.336 1000.09 395.7" fill="#004987" transform="translate(-930.12 -334.32)"/></g></g></g><g opacity="0.65"><g clip-path="url(#clip-path-27)"><g clip-path="url(#clip-path-28)"><path d="M972.1 395.7C972.094 393.06 974.23 390.916 976.87 390.91 979.51 390.905 981.654 393.04 981.66 395.68 981.665 398.32 979.53 400.464 976.89 400.47 976.887 400.47 976.883 400.47 976.88 400.47 974.246 400.465 972.111 398.334 972.1 395.7" fill="#004987" transform="translate(-930.12 -334.32)"/></g></g></g><g opacity="0.65"><g clip-path="url(#clip-path-29)"><g clip-path="url(#clip-path-30)"><path d="M1014.08 381.55C1014.08 378.91 1016.22 376.77 1018.86 376.77 1021.5 376.77 1023.64 378.91 1023.64 381.55 1023.64 384.19 1021.5 386.33 1018.86 386.33 1018.86 386.33 1018.85 386.33 1018.85 386.33 1016.21 386.324 1014.08 384.186 1014.08 381.55" fill="#004987" transform="translate(-930.12 -334.32)"/></g></g></g><g opacity="0.65"><g clip-path="url(#clip-path-31)"><g clip-path="url(#clip-path-32)"><path d="M944.12 381.55C944.12 378.91 946.26 376.77 948.9 376.77 951.54 376.77 953.68 378.91 953.68 381.55 953.68 384.19 951.54 386.33 948.9 386.33 946.262 386.324 944.126 384.188 944.12 381.55" fill="#004987" transform="translate(-930.12 -334.32)"/></g></g></g><g opacity="0.65"><g clip-path="url(#clip-path-33)"><g clip-path="url(#clip-path-34)"><path d="M1126 367.4C1126 364.76 1128.14 362.62 1130.78 362.62 1133.42 362.62 1135.56 364.76 1135.56 367.4 1135.56 370.04 1133.42 372.18 1130.78 372.18 1130.78 372.18 1130.77 372.18 1130.77 372.18 1128.13 372.174 1126 370.036 1126 367.4" fill="#004987" transform="translate(-930.12 -334.32)"/></g></g></g><g opacity="0.65"><g clip-path="url(#clip-path-35)"><g clip-path="url(#clip-path-36)"><path d="M972.1 367.4C972.1 364.76 974.24 362.62 976.88 362.62 979.52 362.62 981.66 364.76 981.66 367.4 981.66 370.04 979.52 372.18 976.88 372.18 974.242 372.174 972.106 370.038 972.1 367.4" fill="#004987" transform="translate(-930.12 -334.32)"/></g></g></g><g opacity="0.65"><g clip-path="url(#clip-path-37)"><g clip-path="url(#clip-path-38)"><path d="M1126 353.26C1125.99 350.62 1128.13 348.476 1130.77 348.47 1133.41 348.465 1135.55 350.6 1135.56 353.24 1135.57 355.88 1133.43 358.024 1130.79 358.03 1130.78 358.03 1130.78 358.03 1130.77 358.03 1128.14 358.03 1126 355.894 1126 353.26" fill="#004987" transform="translate(-930.12 -334.32)"/></g></g></g><g opacity="0.65"><g clip-path="url(#clip-path-39)"><g clip-path="url(#clip-path-40)"><path d="M1070.05 353.26C1070.04 350.62 1072.18 348.476 1074.82 348.47 1077.46 348.465 1079.6 350.6 1079.61 353.24 1079.62 355.88 1077.48 358.024 1074.84 358.03 1074.84 358.03 1074.83 358.03 1074.83 358.03 1072.2 358.036 1070.06 355.904 1070.05 353.27 1070.05 353.267 1070.05 353.263 1070.05 353.26" fill="#004987" transform="translate(-930.12 -334.32)"/></g></g></g><g opacity="0.65"><g clip-path="url(#clip-path-41)"><g clip-path="url(#clip-path-42)"><path d="M1000.09 353.26C1000.08 350.62 1002.22 348.476 1004.86 348.47 1007.5 348.465 1009.64 350.6 1009.65 353.24 1009.66 355.88 1007.52 358.024 1004.88 358.03 1004.88 358.03 1004.87 358.03 1004.87 358.03 1002.24 358.036 1000.1 355.904 1000.09 353.27 1000.09 353.267 1000.09 353.263 1000.09 353.26" fill="#004987" transform="translate(-930.12 -334.32)"/></g></g></g><g opacity="0.65"><g clip-path="url(#clip-path-43)"><g clip-path="url(#clip-path-44)"><path d="M958.11 353.26C958.104 350.62 960.24 348.476 962.88 348.47 965.52 348.465 967.664 350.6 967.67 353.24 967.675 355.88 965.54 358.024 962.9 358.03 962.897 358.03 962.893 358.03 962.89 358.03 960.256 358.036 958.115 355.904 958.11 353.27 958.11 353.267 958.11 353.263 958.11 353.26" fill="#004987" transform="translate(-930.12 -334.32)"/></g></g></g><path d="M930.12 353.26C930.109 350.615 932.245 348.461 934.89 348.45 937.535 348.439 939.689 350.575 939.7 353.22 939.711 355.865 937.575 358.019 934.93 358.03 934.923 358.03 934.917 358.03 934.91 358.03 932.27 358.036 930.125 355.9 930.12 353.26" fill="#005195" opacity="0.25" transform="translate(-930.12 -334.32)"/><rect x="0" y="14.15" width="9.57" height="9.56" fill="none"/><g opacity="0.65"><g clip-path="url(#clip-path-45)"><g clip-path="url(#clip-path-46)"><path d="M1126 339.1C1126 336.46 1128.14 334.32 1130.78 334.32 1133.42 334.32 1135.56 336.46 1135.56 339.1 1135.56 341.74 1133.42 343.88 1130.78 343.88 1130.78 343.88 1130.77 343.88 1130.77 343.88 1128.13 343.874 1126 341.736 1126 339.1" fill="#004987" transform="translate(-930.12 -334.32)"/></g></g></g><g opacity="0.65"><g clip-path="url(#clip-path-47)"><g clip-path="url(#clip-path-48)"><path d="M1419.84 395.7C1419.83 393.06 1421.97 390.916 1424.61 390.91 1427.25 390.905 1429.39 393.04 1429.4 395.68 1429.41 398.32 1427.27 400.464 1424.63 400.47 1424.62 400.47 1424.62 400.47 1424.61 400.47 1421.98 400.459 1419.85 398.33 1419.84 395.7" fill="#004987" transform="translate(-930.12 -334.32)"/></g></g></g><g opacity="0.65"><g clip-path="url(#clip-path-49)"><g clip-path="url(#clip-path-49)"><path d="M1056.05 339.1C1056.05 336.46 1058.19 334.32 1060.83 334.32 1063.47 334.32 1065.61 336.46 1065.61 339.1 1065.61 341.74 1063.47 343.88 1060.83 343.88 1058.19 343.875 1056.06 341.738 1056.05 339.1" fill="#004987" transform="translate(-930.12 -334.32)"/></g></g></g><g opacity="0.65"><g clip-path="url(#clip-path-51)"><g clip-path="url(#clip-path-51)"><path d="M1014.08 339.1C1014.08 336.46 1016.22 334.32 1018.86 334.32 1021.5 334.32 1023.64 336.46 1023.64 339.1 1023.64 341.74 1021.5 343.88 1018.86 343.88 1018.86 343.88 1018.85 343.88 1018.85 343.88 1016.21 343.874 1014.08 341.736 1014.08 339.1" fill="#004987" transform="translate(-930.12 -334.32)"/></g></g></g><g opacity="0.65"><g clip-path="url(#clip-path-53)"><g clip-path="url(#clip-path-53)"><path d="M930.12 339.1C930.115 336.455 932.255 334.306 934.9 334.3 937.545 334.294 939.694 336.435 939.7 339.08 939.705 341.725 937.565 343.874 934.92 343.88 934.917 343.88 934.913 343.88 934.91 343.88 932.268 343.88 930.125 341.742 930.12 339.1" fill="#004987" transform="translate(-930.12 -334.32)"/></g></g></g></svg>