<svg viewBox="0 0 184.62 74.09" xmlns="http://www.w3.org/2000/svg" xmlns:xlink="http://www.w3.org/1999/xlink" id="Modo_de_aislamiento" overflow="hidden"><defs></defs><path d="M231.43 535.31 209.72 535.31 206.06 565.62 228.37 565.62C237.8 565.62 245.37 558.77 246.37 550.43 247.37 542.09 240.89 535.31 231.45 535.31M233.58 550.47C232.99 555.23 229.67 560.65 223.26 560.65L219 560.65 221.47 540.28 225.84 540.28C233.02 540.28 234.2 545.71 233.59 550.47" fill="#FFFFFF" transform="translate(-164.55 -492.45)"/><path d="M85.22 73.15 98.24 73.15 101.92 42.8 88.94 42.8 85.22 73.15Z" fill="#FFFFFF"/><path d="M272.74 542.88C272.1 547.69 277.9 550.88 281.87 553.14 286.55 555.78 288.22 557.53 288.33 558.53 288.59 560.77 286 561.01 283.24 561.01 278.9 561.091 274.59 560.288 270.57 558.65L267.23 562.41C273.42 565.8 281.37 566.54 286.53 566.54 297.03 566.54 304 563.92 304.76 557.21 305.21 553.13 301.18 550.44 296.09 547.72 292.7 545.91 287.72 543.83 287.72 541.86 287.72 539.89 290.5 539.39 294.72 539.64 297.951 539.777 301.153 540.318 304.25 541.25L307.36 537.76C301.844 535.544 295.945 534.436 290 534.5 281.79 534.5 273.53 536.86 272.72 542.88" fill="#FFFFFF" transform="translate(-164.55 -492.45)"/><path d="M323.79 565.62 345.51 565.62 349.17 535.31 326.86 535.31C317.43 535.31 309.86 542.16 308.86 550.51 307.86 558.86 314.33 565.62 323.76 565.62M321.63 550.47C322.23 545.7 325.55 540.28 331.95 540.28L336.23 540.28 333.75 560.65 329.38 560.65C322.2 560.65 321.03 555.22 321.63 550.47" fill="#FFFFFF" transform="translate(-164.55 -492.45)"/><path d="M237.19 508.67C236.83 508.12 234.25 505.67 228.69 503.42 227.52 502.94 224.13 501.85 222.27 501.32 220.41 500.79 220.44 500.49 219.27 499.25 217.64 497.55 214.75 495.3 212.45 494.88 208.37 494.14 206.63 495.73 205.45 496.76 203.76 498.26 202.67 500.68 201.3 502.59 199.93 504.5 195.3 508.59 195.3 508.59 195.3 508.59 199.2 511.79 198.96 511.66 198.31 511.33 192.18 507.04 188.42 504.98 188.14 504.82 179.21 500.21 172.23 496.76 169.804 495.626 167.465 494.316 165.23 492.84 164.86 492.61 164.8 492.5 164.65 492.5 164.5 492.5 164.56 492.74 164.59 492.97 164.95 496.87 165.4 504.97 172.2 512.31 174.891 515.175 178.097 517.509 181.65 519.19 182.796 519.801 184.011 520.271 185.27 520.59 184.062 520.596 182.866 520.362 181.75 519.9 169.22 529.65 168.75 538.1 168.44 545.3 168.44 546.22 170.05 544.86 170.49 543.17 171.49 539.29 175.9 533.07 182.31 531.45 186.16 530.45 183.09 531.19 192.18 529.39 199.18 528.02 203.6 525.18 207.18 518.12 207.88 516.73 209.89 511.93 211.37 509.72 213.12 507.11 213.54 506.5 215.48 504.98 217.264 503.806 219.345 503.164 221.48 503.13 228.05 503.13 237.48 509.26 237.16 508.72" fill="#FFFFFF" transform="translate(-164.55 -492.45)"/></svg>