<svg viewBox="0 0 154.81 155.19" xmlns="http://www.w3.org/2000/svg" xmlns:xlink="http://www.w3.org/1999/xlink" id="Capa_1" overflow="hidden"><style>
.MsftOfcThm_Text1_Fill_v2 {
 fill:#000000; 
}
</style>
<path d="M962.2 610.5C947.945 610.549 933.973 606.513 921.94 598.87 918.94 596.99 916.74 596.97 913.73 598.4 905.73 602.18 897.68 605.71 889.59 609.21 888.33 609.75 886.79 609.65 885.37 609.85 885.37 608.3 884.98 606.6 885.48 605.23 888.79 596.17 892.43 587.23 895.62 578.12 896.311 576.042 896.185 573.779 895.27 571.79 868.88 523.79 895.67 466.79 949.51 456.54 990.59 448.76 1032.79 478.79 1038.89 520.14 1045.38 564.19 1017.14 602.72 973.15 609.69 969.55 610.27 965.85 610.24 962.2 610.5ZM903.27 590.57C905.271 589.839 907.225 588.984 909.12 588.01 915.67 583.88 921.35 584.66 927.94 589.01 941.17 597.74 956.04 600.52 971.85 598.28 1009.85 592.91 1035 556.53 1026.93 518.59 1019.06 481.59 980.3 458.77 943.7 469.59 902.7 481.74 883.7 529.48 905.6 566.28 908.6 571.38 909.46 575.91 906.84 581.22 905.54 583.85 904.73 586.7 903.27 590.57Z" class="MsftOfcThm_Text1_Fill_v2" transform="translate(-885.01 -455.31)"/><path d="M972.91 525.63 972.91 554.22 964.91 554.22 964.91 511.87C973.45 510.43 973.44 510.43 977.36 517.3 981.55 524.65 985.76 532 990.85 539.3L990.85 511.6 999.2 511.6 999.2 553.75C991.72 555.62 990.93 555.28 987.26 548.89 982.94 541.397 978.607 533.913 974.26 526.44 974.1 526.22 973.74 526.13 972.91 525.63Z" class="MsftOfcThm_Text1_Fill_v2" transform="translate(-885.01 -455.31)"/><path d="M956.22 519.07 934.11 519.07 934.11 528 954.36 528 954.36 535.59 934.13 535.59 934.13 546.8 957.35 546.8 957.35 554.05 925.28 554.05 925.28 511.65 956.22 511.65Z" class="MsftOfcThm_Text1_Fill_v2" transform="translate(-885.01 -455.31)"/></svg>