<svg viewBox="0 0 320.91 371.49" xmlns="http://www.w3.org/2000/svg" xmlns:xlink="http://www.w3.org/1999/xlink" id="Capa_1" overflow="hidden"><style>
.MsftOfcResponsive_Fill_01a74d {
 fill:#01A74D; 
}
</style>
<defs></defs><path d="M2588.09 451.85C2589.35 472.13 2585.45 492.03 2582.67 511.85 2574.67 568.96 2553.84 621.53 2523.77 670.61 2497.51 713.46 2465.44 751.12 2425.82 782.23 2418.63 787.88 2411.62 793.77 2404.14 799.05 2402.46 800.23 2401.04 800.71 2399.14 800.05 2380.14 794.05 2361.14 788.05 2342.04 782.16 2327.12 777.56 2312.18 773.03 2297.19 768.7 2288.85 766.29 2280.66 763.32 2272.03 762 2268.32 761.43 2267.24 758.93 2268.03 755.36 2272.03 737.16 2276.15 718.99 2279.84 700.73 2282.97 685.25 2286.61 669.89 2289.15 654.28 2290.28 647.28 2292.45 640.44 2293.22 633.28 2293.67 629 2297.92 626.99 2300.94 624.51 2316.47 611.655 2330.32 596.896 2342.16 580.58 2355.4 562.605 2366.04 542.854 2373.76 521.91 2376.96 513.015 2379.48 503.893 2381.32 494.62 2384.46 479.47 2386.01 464.2 2387.49 448.88 2387.71 446.57 2387.49 444.22 2387.57 441.88 2387.57 440.88 2386.57 439.45 2388.11 438.88 2389.11 438.47 2389.86 439.54 2390.58 440.19L2478 518.51C2478.8 519.113 2479.52 519.804 2480.16 520.57 2482.78 524.36 2485.31 523.66 2488.3 520.86 2519.17 491.947 2550.08 463.087 2581.04 434.28 2583.15 432.28 2584.97 427.97 2587.51 429.08 2590.05 430.19 2587.87 434.48 2588.05 437.37 2588.31 442.18 2588.09 447 2588.09 451.85Z" class="MsftOfcResponsive_Fill_01a74d" fill="#01A74D" transform="translate(-2267.75 -428.9)"/></svg>