<svg viewBox="0 0 321.4 441.83" xmlns="http://www.w3.org/2000/svg" xmlns:xlink="http://www.w3.org/1999/xlink" id="Capa_1" overflow="hidden"><style>
.MsftOfcResponsive_Fill_01a74d {
 fill:#01A74D; 
}
</style>
<defs></defs><path d="M2586.9 401.93C2586.9 404.27 2585.31 406.15 2583.46 407.93 2570.16 420.52 2557.23 433.52 2543.46 445.6 2526.22 460.76 2510.12 477.09 2493.33 492.7 2482.27 502.99 2485.43 502.32 2474.84 492.89 2447.35 468.43 2419.88 443.943 2392.45 419.43 2387.45 414.94 2384.72 410.04 2383.63 402.67 2381.37 387.36 2378.41 371.8 2371.55 357.67 2365.55 345.37 2360.48 332.58 2353.14 320.92 2334.91 291.97 2312.54 266.99 2283.75 248.1 2278.41 244.6 2273.49 240.42 2267.34 238.24 2266.54 237.96 2265.23 237.64 2265.52 236.24 2265.72 235.33 2266.62 235.16 2267.43 234.9 2287.34 228.52 2307.27 222.22 2327.13 215.69 2346.55 209.3 2365.88 202.63 2385.3 196.22 2387.89 195.36 2388.46 194.28 2388.1 191.55 2387.1 183.63 2384.25 176.15 2382.76 168.31 2379.52 151.31 2375.34 134.4 2371.31 117.51 2367.09 99.89 2362.6 82.33 2358.23 64.75 2358.03 63.94 2357.79 63.14 2357.66 62.32 2357.46 61.05 2356.66 59.48 2357.91 58.6 2359.16 57.72 2360.48 58.81 2361.6 59.46 2368.5 63.46 2375.14 67.9 2382.04 71.93 2410.94 88.81 2436.23 110.31 2460.04 133.71 2490.18 163.37 2514.63 197.22 2535.13 234.08 2552.12 264.636 2565.18 297.218 2574 331.05 2579.31 351.34 2583.47 371.83 2585 392.8 2585.16 395.74 2586.17 398.62 2586.9 401.93Z" class="MsftOfcResponsive_Fill_01a74d" fill="#01A74D" transform="translate(-2265.5 -58.33)"/></svg>