<svg viewBox="0 0 146.55 129" xmlns="http://www.w3.org/2000/svg" xmlns:xlink="http://www.w3.org/1999/xlink" id="Layer_1" overflow="hidden"><defs></defs><g id="_02"><path d="M782.84 248.74C795.232 214.751 826.714 191.438 862.84 189.5L862.22 119.74C795.888 121.991 737.832 164.96 716.3 227.74Z" fill="#EF7F31" transform="translate(-716.3 -119.74)"/></g><path d="M745.62 226.14 746.89 223.26 758.1 223.84 756.86 226.66 754.5 226.44 753.11 229.59 754.87 231.19 753.63 234ZM752.07 226.19 748.94 225.85 748.94 225.9 751.31 227.97Z" fill="#7F3300" transform="translate(-716.3 -119.74)"/><path d="M748.94 218.75 750.28 216.24 755.71 219.12C756.638 219.666 757.833 219.356 758.379 218.427 758.925 217.499 758.615 216.304 757.686 215.758 757.639 215.73 757.59 215.704 757.54 215.68L752.11 212.8 753.45 210.28 758.87 213.17C761.156 214.513 761.92 217.454 760.577 219.74 759.315 221.888 756.619 222.714 754.37 221.64Z" fill="#7F3300" transform="translate(-716.3 -119.74)"/><path d="M758 207.77 756.45 210.25 754.29 208.91 758.89 201.52 761.05 202.87 759.5 205.35 766.25 209.56 764.71 212Z" fill="#7F3300" transform="translate(-716.3 -119.74)"/><path d="M762.46 195.92C764.407 193.545 767.91 193.198 770.285 195.145 772.659 197.092 773.006 200.595 771.06 202.97 769.183 205.259 765.842 205.677 763.46 203.92 760.983 202.05 760.49 198.526 762.36 196.049 762.393 196.005 762.426 195.962 762.46 195.92ZM769.31 200.92C770.257 199.615 769.967 197.789 768.661 196.842 767.356 195.895 765.53 196.185 764.583 197.49 763.639 198.791 763.924 200.61 765.22 201.56 766.499 202.515 768.31 202.252 769.265 200.973 769.28 200.952 769.295 200.931 769.31 200.91Z" fill="#7F3300" transform="translate(-716.3 -119.74)"/><path d="M780.58 188.08C780.65 188.594 780.65 189.116 780.58 189.63 780.431 190.831 779.918 191.958 779.11 192.86 777.207 195.27 773.711 195.681 771.301 193.777 768.891 191.874 768.48 188.378 770.383 185.968 770.49 185.834 770.602 185.704 770.72 185.58 771.503 184.66 772.551 184.004 773.72 183.7 774.209 183.569 774.714 183.505 775.22 183.51L775.56 186.09C775.222 186.093 774.886 186.14 774.56 186.23 773.853 186.385 773.212 186.76 772.73 187.3 771.62 188.477 771.674 190.331 772.851 191.442 774.028 192.552 775.882 192.498 776.993 191.321 777.048 191.263 777.1 191.203 777.15 191.14 777.619 190.571 777.905 189.874 777.97 189.14 778.015 188.788 778.015 188.432 777.97 188.08Z" fill="#7F3300" transform="translate(-716.3 -119.74)"/><path d="M778.57 177.36C780.89 175.348 784.401 175.598 786.413 177.918 788.425 180.238 788.175 183.75 785.855 185.761 783.621 187.698 780.262 187.548 778.21 185.42 776.081 183.154 776.192 179.591 778.459 177.462 778.495 177.427 778.532 177.393 778.57 177.36ZM784.46 183.47C785.627 182.349 785.664 180.494 784.543 179.327 783.422 178.16 781.567 178.123 780.4 179.244 779.233 180.365 779.196 182.22 780.317 183.387 780.318 183.388 780.319 183.389 780.32 183.39 781.419 184.555 783.255 184.608 784.419 183.509 784.433 183.496 784.447 183.483 784.46 183.47Z" fill="#7F3300" transform="translate(-716.3 -119.74)"/><path d="M784.72 172.08 786.66 170.55 793.77 172.31 790.2 167.77 792.45 166.01 798.93 174.27 797 175.8 789.88 174 793.45 178.55 791.21 180.31Z" fill="#7F3300" transform="translate(-716.3 -119.74)"/><path d="M807.74 166.51C807.479 168.241 806.465 169.768 804.97 170.68 802.417 172.386 798.964 171.699 797.258 169.146 795.552 166.593 796.239 163.14 798.792 161.434 798.85 161.395 798.91 161.357 798.97 161.32 799.973 160.657 801.159 160.324 802.36 160.37 802.869 160.377 803.374 160.457 803.86 160.61L803.45 163.18C803.124 163.087 802.789 163.033 802.45 163.02 801.726 162.975 801.006 163.157 800.39 163.54 799.078 164.488 798.784 166.319 799.731 167.631 800.603 168.838 802.242 169.199 803.54 168.47 804.149 168.061 804.622 167.479 804.9 166.8 805.044 166.48 805.151 166.144 805.22 165.8Z" fill="#7F3300" transform="translate(-716.3 -119.74)"/><path d="M804.51 158.39 807 157 812 166.22 809.49 167.59Z" fill="#7F3300" transform="translate(-716.3 -119.74)"/><path d="M809.25 155.82 816.54 152.45 817.61 154.76 812.91 156.93 813.55 158.3 817.15 156.63 818.15 158.81 814.54 160.48 815.17 161.84 820 159.6 821.07 161.91 813.65 165.35Z" fill="#7F3300" transform="translate(-716.3 -119.74)"/><path d="M818.68 151.54 821.01 150.72 827.18 154.67 825.26 149.22 827.95 148.27 831.44 158.18 829.11 159 822.94 155.05 824.86 160.5 822.17 161.45Z" fill="#7F3300" transform="translate(-716.3 -119.74)"/><path d="M842.29 153.69C842.05 154.15 841.747 154.574 841.39 154.95 840.577 155.845 839.509 156.47 838.33 156.74 835.44 157.779 832.256 156.279 831.216 153.389 830.177 150.5 831.677 147.315 834.567 146.276 834.931 146.145 835.307 146.053 835.69 146 836.855 145.702 838.084 145.768 839.21 146.19 839.682 146.368 840.129 146.607 840.54 146.9L839.33 149.2C839.05 149.008 838.748 148.85 838.43 148.73 837.759 148.451 837.018 148.389 836.31 148.55 834.742 148.937 833.783 150.522 834.17 152.09 834.557 153.658 836.141 154.617 837.71 154.23 838.414 154.04 839.045 153.643 839.52 153.09 839.767 152.836 839.979 152.55 840.15 152.24Z" fill="#7F3300" transform="translate(-716.3 -119.74)"/><path d="M841.84 145 844.65 144.5 846.48 154.85 843.67 155.34Z" fill="#7F3300" transform="translate(-716.3 -119.74)"/><path d="M849.79 143.71 852.92 143.36 858.05 153.36 855.05 153.71 854.05 151.56 850.62 151.94 850.13 154.27 847.07 154.61ZM852.99 149.31 851.71 146.44 851.65 146.44 851.05 149.53Z" fill="#7F3300" transform="translate(-716.3 -119.74)"/></svg>