<svg viewBox="0 0 178.28 225" xmlns="http://www.w3.org/2000/svg" xmlns:xlink="http://www.w3.org/1999/xlink" id="Capa_1" overflow="hidden"><path d="M1280 667 1119 667C1113.31 664.19 1110.38 659.88 1110.39 653.25 1110.49 597.77 1110.39 542.25 1110.54 486.81 1110.54 484.52 1111.3 481.57 1112.82 480.03 1125.4 467.2 1138.24 454.64 1151 442.03L1280 442.03C1286.78 445.14 1288.65 450.64 1288.64 457.77 1288.51 522.437 1288.51 587.103 1288.64 651.77 1288.69 658.74 1286.55 664 1280 667ZM1148 458.32C1146 460.12 1144.78 461.13 1143.66 462.24 1136.93 468.94 1130.33 475.77 1123.45 482.31 1120.97 484.508 1119.64 487.714 1119.81 491.02 1119.93 544.147 1119.97 597.283 1119.92 650.43 1119.92 657.77 1119.92 657.79 1127.36 657.79L1272.78 657.79C1279.2 657.79 1279.21 657.79 1279.21 651.48 1279.21 587.02 1279.21 522.557 1279.21 458.09 1279.21 451.27 1279.21 451.24 1272.21 451.24 1235.23 451.24 1198.25 451.24 1161.27 451.24 1159.93 451.315 1158.6 451.458 1157.27 451.67 1157.27 460.53 1157.36 469.01 1157.27 477.49 1157.18 483.26 1153.73 487.96 1148.46 488.62 1143.79 489.21 1138.98 488.75 1134.46 488.75L1134.46 479.63C1138.01 479.63 1141.21 479.93 1144.31 479.5 1145.66 479.31 1147.82 477.7 1147.89 476.63 1148.14 470.9 1148 465.14 1148 458.32Z" transform="translate(-1110.39 -442)"/><path d="M1232 460.87C1241 460.87 1250 460.82 1259 460.87 1266.34 460.92 1269.79 464.23 1269.83 471.54 1269.93 489.2 1269.93 506.867 1269.83 524.54 1269.83 532.29 1266.22 535.7 1258.35 535.73 1240.87 535.777 1223.38 535.777 1205.89 535.73 1198.32 535.73 1194.89 532.29 1194.89 524.73 1194.83 507.083 1194.83 489.417 1194.89 471.73 1194.89 464.19 1198.3 460.94 1206.01 460.9 1214.67 460.83 1223.33 460.87 1232 460.87ZM1260.16 470.28 1204.42 470.28 1204.42 523.68 1218.26 506.12C1212 495.94 1212.26 486.85 1219.46 479.96 1225.78 473.96 1236.13 472.82 1242.78 478.27 1246.02 481.044 1248.52 484.571 1250.07 488.54 1252.77 495.46 1249.9 501.74 1246.48 505.94L1260.16 523.84ZM1249.71 526.28C1246.35 517.47 1239.43 513.2 1230.39 513.9 1223.16 514.47 1216.94 519.53 1215.39 526.28ZM1232.33 502.89C1237.51 502.89 1241.71 498.69 1241.71 493.51 1241.71 488.33 1237.51 484.13 1232.33 484.13 1227.14 484.172 1222.96 488.415 1223.01 493.606 1223.01 493.664 1223.01 493.722 1223.01 493.78 1223.09 498.862 1227.24 502.937 1232.32 502.92Z" transform="translate(-1110.39 -442)"/><path d="M1153 610.38 1153 601.89 1245.82 601.89 1245.82 610.38Z" transform="translate(-1110.39 -442)"/><path d="M1246 578.3 1246 586.94 1153.16 586.94 1153.16 578.3Z" transform="translate(-1110.39 -442)"/><path d="M1246 555.1 1246 563.55 1172 563.55 1172 555.1Z" transform="translate(-1110.39 -442)"/><path d="M1153 633.73 1153 625.26 1227 625.26 1227 633.73Z" transform="translate(-1110.39 -442)"/><path d="M1246 625.27 1246 633.82 1237.37 633.82 1237.37 625.27Z" transform="translate(-1110.39 -442)"/></svg>