<svg viewBox="0 0 103.15 173.18" xmlns="http://www.w3.org/2000/svg" xmlns:xlink="http://www.w3.org/1999/xlink" id="Layer_1" overflow="hidden"><defs></defs><g id="_04"><path d="M954.45 254.8C964.415 289.599 952.644 326.987 924.54 349.8L966.06 405.87C1018.4 365.047 1040.11 296.141 1020.6 232.69Z" fill="#F8CD46" transform="translate(-924.54 -232.65)"/></g><path d="M946.67 365.22 944.89 366.74 943.56 365.19 948.86 360.67 950.18 362.22 948.4 363.74 952.53 368.58 950.8 370.06Z" fill="#7C5900" transform="translate(-924.54 -232.65)"/><path d="M952 357.3C953.841 355.672 956.654 355.846 958.281 357.687 959.909 359.528 959.736 362.341 957.894 363.968 956.12 365.537 953.428 365.441 951.77 363.75 950.05 361.963 950.105 359.121 951.891 357.401 951.927 357.367 951.963 357.333 952 357.3ZM956.75 362.15C957.664 361.236 957.663 359.754 956.749 358.841 955.835 357.927 954.354 357.927 953.44 358.841 952.527 359.755 952.527 361.236 953.44 362.15 954.324 363.07 955.787 363.098 956.706 362.214 956.728 362.193 956.749 362.172 956.77 362.15Z" fill="#7C5900" transform="translate(-924.54 -232.65)"/><path d="M956.11 353.57 957.43 352.02 961.57 352.14 960.76 348.08 962.08 346.52 968.49 351.95 967 353.69 963.2 350.47 963.93 354.16 960.17 354.04 963.97 357.27 962.52 359Z" fill="#7C5900" transform="translate(-924.54 -232.65)"/><path d="M964.09 343.68 965.54 341.62 974.24 343.85 972.83 345.85 971.01 345.31 969.42 347.56 970.55 349.09 969.13 351.09ZM969.09 344.74 966.7 343.98 966.7 343.98 968.23 345.98Z" fill="#7C5900" transform="translate(-924.54 -232.65)"/><path d="M968.52 337.1 970.05 334.38C970.996 332.25 973.49 331.291 975.62 332.237 977.75 333.184 978.709 335.677 977.763 337.807 977.657 338.046 977.529 338.275 977.38 338.49L975.85 341.22ZM975.6 337.49C976.183 336.449 975.811 335.133 974.77 334.55 973.729 333.967 972.413 334.339 971.83 335.38L971.42 336.11 975.19 338.23Z" fill="#7C5900" transform="translate(-924.54 -232.65)"/><path d="M972.66 329.58 975.36 323.76 977.21 324.61 975.47 328.37 976.56 328.87 977.9 326 979.64 326.8 978.3 329.69 979.39 330.19 981.18 326.33 983.03 327.18 980.29 333.12Z" fill="#7C5900" transform="translate(-924.54 -232.65)"/><path d="M976.59 320.73 977.59 317.73C978.175 315.48 980.473 314.129 982.723 314.714 984.974 315.298 986.324 317.596 985.74 319.847 985.683 320.063 985.61 320.275 985.52 320.48L984.52 323.48ZM983.59 319.86C984.023 318.748 983.473 317.496 982.361 317.063 981.25 316.63 979.998 317.181 979.565 318.292 979.544 318.344 979.526 318.397 979.51 318.45L979.23 319.24 983.31 320.66Z" fill="#7C5900" transform="translate(-924.54 -232.65)"/><path d="M979.32 312.62 980.96 306.41 982.96 306.94 981.9 310.94 983.06 311.24 983.88 308.17 985.73 308.66 984.92 311.73 986.08 312.04 987.17 307.92 989.17 308.45 987.5 314.77Z" fill="#7C5900" transform="translate(-924.54 -232.65)"/><path d="M989.52 299.22C989.778 299.546 989.99 299.906 990.15 300.29 990.528 301.183 990.622 302.171 990.42 303.12 990.116 305.559 987.893 307.29 985.454 306.986 983.015 306.682 981.285 304.459 981.588 302.02 981.613 301.825 981.65 301.631 981.7 301.44 981.877 300.514 982.33 299.663 983 299 983.296 298.707 983.633 298.458 984 298.26L985.28 299.91C985.045 300.051 984.826 300.219 984.63 300.41 984.204 300.803 983.913 301.321 983.8 301.89 983.491 303.145 984.257 304.413 985.512 304.722 986.767 305.032 988.035 304.265 988.344 303.01 988.363 302.931 988.379 302.851 988.39 302.77 988.489 302.194 988.412 301.602 988.17 301.07 988.065 300.807 987.928 300.558 987.76 300.33Z" fill="#7C5900" transform="translate(-924.54 -232.65)"/><path d="M982.65 297.18 982.96 294.92 991.29 296.05 990.98 298.31Z" fill="#7C5900" transform="translate(-924.54 -232.65)"/><path d="M989 293.32C989.183 293.189 989.351 293.038 989.5 292.87 989.815 292.52 990.011 292.079 990.06 291.61 990.13 290.89 989.82 290.5 989.45 290.47 988.31 290.36 988.45 294.35 985.5 294.08 984.18 293.96 983.03 292.65 983.22 290.68 983.275 289.895 983.552 289.142 984.02 288.51 984.206 288.262 984.429 288.043 984.68 287.86L986 289.31C985.863 289.404 985.742 289.519 985.64 289.65 985.39 289.926 985.238 290.278 985.21 290.65 985.15 291.32 985.42 291.65 985.72 291.65 986.86 291.76 986.72 287.77 989.72 288.04 991.16 288.17 992.3 289.53 992.11 291.57 992.044 292.466 991.713 293.322 991.16 294.03 990.938 294.323 990.671 294.579 990.37 294.79Z" fill="#7C5900" transform="translate(-924.54 -232.65)"/><path d="M983.74 286.61 983.85 284.33 992.24 284.74 992.13 287.02Z" fill="#7C5900" transform="translate(-924.54 -232.65)"/><path d="M983.71 278.7C983.832 276.251 985.915 274.364 988.365 274.486 990.814 274.607 992.701 276.691 992.579 279.14 992.462 281.498 990.521 283.352 988.16 283.36 985.68 283.34 983.687 281.313 983.707 278.833 983.707 278.789 983.708 278.744 983.71 278.7ZM990.48 278.7C990.48 277.408 989.432 276.36 988.14 276.36 986.848 276.36 985.8 277.408 985.8 278.7 985.8 279.992 986.848 281.04 988.14 281.04 988.143 281.04 988.147 281.04 988.15 281.04 989.42 281.057 990.464 280.041 990.481 278.771 990.481 278.741 990.481 278.71 990.48 278.68Z" fill="#7C5900" transform="translate(-924.54 -232.65)"/><path d="M983.87 273.1 983.72 271.1 988.07 267.17 983.46 267.51 983.29 265.24 991.67 264.62 991.81 266.62 987.47 270.55 992.08 270.21 992.25 272.49Z" fill="#7C5900" transform="translate(-924.54 -232.65)"/><path d="M983.12 263.86 982.25 257.5 984.25 257.23 984.81 261.33 986 261.17 985.57 258.02 987.47 257.76 987.9 260.91 989.09 260.75 988.52 256.53 990.52 256.25 991.4 262.73Z" fill="#7C5900" transform="translate(-924.54 -232.65)"/><path d="M987.6 254.7C987.741 254.526 987.859 254.334 987.95 254.13 988.16 253.706 988.23 253.226 988.15 252.76 988.01 252.06 987.6 251.76 987.24 251.84 986.12 252.05 987.33 255.84 984.44 256.4 983.15 256.65 981.68 255.71 981.31 253.76 981.15 252.993 981.209 252.196 981.48 251.46 981.593 251.169 981.748 250.896 981.94 250.65L983.6 251.65C983.497 251.777 983.413 251.919 983.35 252.07 983.19 252.399 983.141 252.771 983.21 253.13 983.34 253.79 983.69 254.01 983.98 253.96 985.1 253.74 983.89 249.96 986.78 249.39 988.19 249.12 989.66 250.11 990.05 252.13 990.232 253.008 990.149 253.92 989.81 254.75 989.679 255.094 989.493 255.415 989.26 255.7Z" fill="#7C5900" transform="translate(-924.54 -232.65)"/><path d="M966.77 363.41 970 360.11C971.229 358.704 973.364 358.561 974.769 359.79 974.814 359.829 974.857 359.869 974.9 359.91 975.51 360.454 975.871 361.223 975.9 362.04 975.916 362.38 975.865 362.72 975.75 363.04L979.75 364.14 977.75 366.14 974.42 365.14 973.42 366.14 975.62 368.3 973.76 370.2ZM973 363.25C973.453 362.935 973.566 362.312 973.25 361.858 972.935 361.405 972.312 361.293 971.859 361.608 971.757 361.678 971.669 361.767 971.6 361.87L970.33 363.17 971.73 364.55Z" fill="#7C5900" transform="translate(-924.54 -232.65)"/><path d="M973.26 356.68 978.04 350.91 979.87 352.43 976.79 356.15 977.87 357.05 980.24 354.19 981.96 355.62 979.59 358.48 980.67 359.37 983.84 355.54 985.68 357.06 980.81 362.94Z" fill="#7C5900" transform="translate(-924.54 -232.65)"/><path d="M984.67 353.19C984.932 353.163 985.191 353.106 985.44 353.02 985.963 352.849 986.419 352.517 986.74 352.07 987.22 351.39 987.13 350.81 986.74 350.56 985.65 349.8 983.45 353.9 980.64 351.93 979.38 351.05 978.98 349.06 980.31 347.17 980.817 346.404 981.536 345.803 982.38 345.44 982.713 345.291 983.067 345.197 983.43 345.16L983.92 347.39C983.729 347.409 983.54 347.453 983.36 347.52 982.956 347.654 982.606 347.913 982.36 348.26 981.91 348.9 982.01 349.38 982.29 349.58 983.38 350.34 985.57 346.24 988.38 348.21 989.76 349.21 990.13 351.21 988.75 353.21 988.168 354.08 987.339 354.755 986.37 355.15 985.975 355.316 985.557 355.417 985.13 355.45Z" fill="#7C5900" transform="translate(-924.54 -232.65)"/><path d="M983.22 343.49 985.44 339.68C986.269 337.971 988.327 337.257 990.037 338.087 991.746 338.916 992.459 340.974 991.63 342.683 991.555 342.839 991.468 342.988 991.37 343.13L990.49 344.64 993.03 346.12 991.69 348.42ZM989.22 342.05C989.51 341.547 989.338 340.905 988.835 340.615 988.332 340.325 987.69 340.497 987.4 341L986.6 342.39 988.41 343.44Z" fill="#7C5900" transform="translate(-924.54 -232.65)"/><path d="M989.5 331.11C990.816 328.563 993.947 327.566 996.493 328.881 999.04 330.197 1000.04 333.328 998.722 335.874 997.454 338.328 994.486 339.359 991.97 338.22 989.346 337 988.208 333.883 989.428 331.259 989.451 331.209 989.475 331.159 989.5 331.11ZM996.71 334.37C997.331 332.996 996.72 331.379 995.346 330.758 993.972 330.137 992.355 330.748 991.734 332.122 991.115 333.493 991.721 335.106 993.09 335.73 994.44 336.364 996.048 335.783 996.681 334.433 996.691 334.412 996.701 334.391 996.71 334.37Z" fill="#7C5900" transform="translate(-924.54 -232.65)"/><path d="M992.3 325.36 993.02 323.16 999.46 320.86 994.34 319.17 995.17 316.65 1004.48 319.71 1003.76 321.91 997.32 324.21 1002.44 325.9 1001.61 328.43Z" fill="#7C5900" transform="translate(-924.54 -232.65)"/><path d="M1002.25 315.92C1002.48 315.798 1002.7 315.65 1002.9 315.48 1003.32 315.127 1003.62 314.651 1003.75 314.12 1003.95 313.3 1003.65 312.8 1003.22 312.7 1001.93 312.39 1001.42 317.02 998.08 316.23 996.58 315.88 995.47 314.18 996 311.93 996.189 311.033 996.634 310.21 997.28 309.56 997.535 309.3 997.828 309.081 998.15 308.91L999.43 310.8C999.261 310.891 999.103 311.002 998.96 311.13 998.636 311.405 998.409 311.777 998.31 312.19 998.13 312.95 998.39 313.36 998.74 313.44 1000.03 313.74 1000.54 309.12 1003.88 309.9 1005.52 310.29 1006.61 312.04 1006.07 314.37 1005.85 315.395 1005.32 316.331 1004.57 317.06 1004.28 317.359 1003.94 317.609 1003.57 317.8Z" fill="#7C5900" transform="translate(-924.54 -232.65)"/><path d="M997.7 304.93 998.15 302.02 1008.4 299.85 1007.96 302.69 1005.78 303.06 1005.29 306.24 1007.29 307.24 1006.86 310.08ZM1003.53 303.42 1000.62 303.87 1000.62 303.92 1003.25 305.22Z" fill="#7C5900" transform="translate(-924.54 -232.65)"/><path d="M998.7 297.94 999.02 293.61C999.18 291.38 1000.46 290.28 1001.86 290.38 1002.49 290.406 1003.06 290.725 1003.42 291.24 1003.59 291.467 1003.71 291.726 1003.77 292 1003.92 291.659 1004.12 291.342 1004.36 291.06 1004.85 290.473 1005.6 290.161 1006.36 290.22 1007.83 290.33 1008.99 291.68 1008.82 293.99L1008.48 298.67ZM1002.77 294.1C1002.87 293.658 1002.59 293.219 1002.15 293.12 1002.1 293.108 1002.05 293.102 1002 293.1 1001.54 293.061 1001.14 293.4 1001.1 293.857 1001.1 293.888 1001.1 293.919 1001.1 293.95L1000.99 295.41 1002.67 295.54ZM1006.71 294.04C1006.75 293.488 1006.33 293.009 1005.78 292.97 1005.23 292.931 1004.75 293.348 1004.71 293.9L1004.57 295.71 1006.57 295.86Z" fill="#7C5900" transform="translate(-924.54 -232.65)"/><path d="M999.31 288.69 999.31 286.02 1006.59 286.08 1006.59 281.81 1009.11 281.81 1009.11 288.75Z" fill="#7C5900" transform="translate(-924.54 -232.65)"/><path d="M999.32 280.94 998.91 273.46 1001.29 273.32 1001.55 278.15 1002.95 278.07 1002.75 274.37 1004.98 274.24 1005.19 277.95 1006.59 277.87 1006.31 272.87 1008.69 272.74 1009.11 280.36Z" fill="#7C5900" transform="translate(-924.54 -232.65)"/><path d="M1005.36 270.67C1005.54 270.482 1005.7 270.27 1005.82 270.04 1006.09 269.561 1006.21 269.009 1006.16 268.46 1006.06 267.63 1005.61 267.26 1005.16 267.31 1003.84 267.47 1004.93 271.99 1001.53 272.39 1000 272.57 998.38 271.39 998.11 269.06 997.984 268.151 998.12 267.225 998.5 266.39 998.651 266.06 998.854 265.757 999.1 265.49L1000.94 266.82C1000.81 266.963 1000.71 267.121 1000.62 267.29 1000.41 267.66 1000.32 268.087 1000.37 268.51 1000.46 269.29 1000.85 269.58 1001.19 269.51 1002.51 269.35 1001.42 264.83 1004.82 264.43 1006.49 264.23 1008.12 265.51 1008.4 267.89 1008.54 268.917 1008.37 269.962 1007.91 270.89 1007.73 271.277 1007.49 271.632 1007.19 271.94Z" fill="#7C5900" transform="translate(-924.54 -232.65)"/></svg>