<svg viewBox="0 0 538.47 538.47" xmlns="http://www.w3.org/2000/svg" xmlns:xlink="http://www.w3.org/1999/xlink" id="Layer_1" overflow="hidden"><defs></defs><circle cx="269.23" cy="269.23" r="269.23" fill="#DBEBF8"/><path d="M155.87 497.05C158.608 498.755 159.444 502.357 157.739 505.095 156.034 507.832 152.432 508.669 149.694 506.964 147.038 505.309 146.158 501.854 147.7 499.13 149.35 496.308 152.976 495.357 155.799 497.008 155.823 497.022 155.846 497.036 155.87 497.05ZM151.21 505.26C152.941 506.238 155.137 505.628 156.115 503.897 157.094 502.167 156.484 499.97 154.753 498.992 153.024 498.015 150.83 498.622 149.85 500.35 148.869 502.079 149.476 504.277 151.205 505.257 151.207 505.258 151.208 505.259 151.21 505.26Z" fill="#024363" transform="translate(-9.68 -10.02)"/><path d="M160.57 503.77 162.5 504.77 161.99 505.77 162.06 505.77C162.32 505.631 162.6 505.533 162.89 505.48 163.569 505.339 164.276 505.438 164.89 505.76 166.752 507.068 167.201 509.638 165.892 511.5 164.839 512.998 162.923 513.622 161.19 513.03 160.583 512.726 160.096 512.226 159.81 511.61 159.68 511.343 159.595 511.055 159.56 510.76L159.49 510.76 157.49 514.76 155.56 513.76ZM164.21 510.02C164.648 509.006 164.182 507.829 163.168 507.39 162.154 506.952 160.977 507.418 160.539 508.432 160.116 509.411 160.534 510.549 161.49 511.02 162.483 511.504 163.68 511.093 164.165 510.1 164.181 510.067 164.196 510.034 164.21 510Z" fill="#024363" transform="translate(-9.68 -10.02)"/><path d="M172.39 509.41C174.422 510.383 175.281 512.82 174.308 514.852 173.335 516.884 170.899 517.743 168.866 516.77 166.866 515.812 165.997 513.431 166.91 511.41 167.86 509.348 170.301 508.447 172.363 509.397 172.372 509.402 172.381 509.406 172.39 509.41ZM172.5 513.95C172.945 512.939 172.486 511.759 171.475 511.314 170.464 510.869 169.284 511.327 168.839 512.338 168.403 513.328 168.833 514.485 169.81 514.95 170.802 515.435 172 515.024 172.485 514.031 172.49 514.021 172.495 514.01 172.5 514Z" fill="#024363" transform="translate(-9.68 -10.02)"/><path d="M177.19 511.74 179.19 512.59 178.75 513.59 178.82 513.59C179.072 513.443 179.341 513.326 179.62 513.24 180.224 513.043 180.879 513.075 181.46 513.33L181.6 513.39 180.69 515.52 180.54 515.42C180.386 515.326 180.226 515.242 180.06 515.17 179.099 514.777 178.001 515.237 177.608 516.198 177.586 516.251 177.567 516.305 177.55 516.36L176.11 519.74 174.11 518.9Z" fill="#024363" transform="translate(-9.68 -10.02)"/><path d="M182.19 516.19 180.93 515.69 181.67 513.83 182.34 514.1C182.89 514.32 183.27 514.1 183.51 513.53L184.05 512.2 185.83 512.91 184.94 515.14 186.57 515.79 185.83 517.65 184.2 517 183.2 519.45C182.933 519.933 183.107 520.542 183.591 520.809 183.642 520.837 183.695 520.861 183.75 520.88 183.945 520.961 184.15 521.015 184.36 521.04 184.446 521.05 184.534 521.05 184.62 521.04L183.88 522.9 183.45 522.9C183.106 522.849 182.77 522.755 182.45 522.62 180.96 522.03 180.37 520.69 181.06 518.97Z" fill="#024363" transform="translate(-9.68 -10.02)"/><path d="M187.79 516.1 189.79 516.84 188.29 520.98C187.95 521.65 188.218 522.468 188.888 522.808 188.962 522.846 189.04 522.876 189.12 522.9 189.984 523.221 190.946 522.781 191.267 521.917 191.279 521.885 191.29 521.853 191.3 521.82L192.72 517.91 194.72 518.65 192.1 526 190.1 525.27 190.48 524.21 190.41 524.21C190.166 524.37 189.904 524.5 189.63 524.6 189.035 524.813 188.385 524.813 187.79 524.6 186.254 523.979 185.512 522.23 186.133 520.694 186.157 520.635 186.182 520.577 186.21 520.52Z" fill="#024363" transform="translate(-9.68 -10.02)"/><path d="M196.35 519.19 198.4 519.85 198.06 520.92 198.13 520.92C198.368 520.753 198.622 520.612 198.89 520.5 199.474 520.252 200.127 520.224 200.73 520.42 202.288 520.983 203.095 522.702 202.533 524.261 202.513 524.314 202.492 524.367 202.47 524.42L201 528.94 199 528.27 200.35 524.09C200.669 523.416 200.382 522.611 199.709 522.292 199.626 522.253 199.539 522.222 199.45 522.2 198.582 521.906 197.639 522.372 197.346 523.24 197.332 523.28 197.32 523.32 197.31 523.36L196 527.31 193.94 526.65Z" fill="#024363" transform="translate(-9.68 -10.02)"/><path d="M205 521.94 207.08 522.55 204.85 530.07 202.78 529.46ZM207 518.94C207.645 519.125 208.023 519.792 207.85 520.44 207.631 521.074 206.954 521.426 206.31 521.24 205.65 521.186 205.158 520.606 205.212 519.946 205.267 519.285 205.846 518.794 206.507 518.848 206.68 518.862 206.849 518.914 207 519Z" fill="#024363" transform="translate(-9.68 -10.02)"/><path d="M212.39 531 212.31 531C212.083 531.191 211.831 531.349 211.56 531.47 210.926 531.734 210.223 531.779 209.56 531.6 207.47 530.686 206.517 528.251 207.43 526.161 208.153 524.508 209.866 523.515 211.66 523.71 212.312 523.887 212.888 524.274 213.3 524.81 213.481 525.047 213.626 525.31 213.73 525.59L213.81 525.59 214.96 521.26 217.04 521.81 214.17 532.64 212.08 532.09ZM213.18 528.32C213.425 527.243 212.751 526.171 211.674 525.926 210.597 525.681 209.525 526.355 209.28 527.432 209.04 528.483 209.677 529.535 210.72 529.81 211.789 530.088 212.881 529.447 213.159 528.378 213.167 528.349 213.174 528.32 213.18 528.29Z" fill="#024363" transform="translate(-9.68 -10.02)"/><path d="M220.64 533.13 220.56 533.13C220.344 533.295 220.109 533.433 219.86 533.54 219.293 533.799 218.655 533.859 218.05 533.71 216.832 533.528 215.992 532.393 216.174 531.175 216.184 531.113 216.196 531.051 216.21 530.99 216.485 529.705 217.695 528.842 219 529L221.52 529.12C221.557 528.459 221.076 527.883 220.42 527.8 219.963 527.693 219.483 527.746 219.06 527.95 218.864 528.033 218.679 528.14 218.51 528.27L217.51 526.73C217.817 526.502 218.153 526.317 218.51 526.18 219.302 525.865 220.171 525.802 221 526 222.724 526.274 223.899 527.893 223.625 529.617 223.615 529.678 223.603 529.739 223.59 529.8L222.5 534.56 220.39 534.07ZM221.21 530.63 219.42 530.55C218.85 530.55 218.47 530.75 218.42 531.14 218.37 531.53 218.56 531.99 219.18 532.14 220.075 532.341 220.962 531.779 221.163 530.884 221.17 530.856 221.175 530.828 221.18 530.8Z" fill="#024363" transform="translate(-9.68 -10.02)"/><path d="M230.13 534.9 230.05 534.9C229.842 535.114 229.598 535.29 229.33 535.42 228.713 535.732 228.009 535.83 227.33 535.7 225.192 534.905 224.104 532.527 224.899 530.39 225.512 528.741 227.102 527.662 228.86 527.7 229.53 527.828 230.137 528.181 230.58 528.7 230.778 528.92 230.94 529.17 231.06 529.44L231.14 529.44 232 525 234.12 525.41 232.02 536.41 229.9 536.01ZM230.73 532.16C230.977 531.083 230.303 530.011 229.227 529.764 229.205 529.759 229.182 529.754 229.16 529.75 228.041 529.488 226.922 530.183 226.661 531.301 226.399 532.42 227.093 533.539 228.212 533.8 229.33 534.062 230.449 533.368 230.711 532.249 230.718 532.22 230.724 532.19 230.73 532.16Z" fill="#024363" transform="translate(-9.68 -10.02)"/><path d="M241.17 536.71C240.876 536.916 240.556 537.084 240.22 537.21 239.4 537.517 238.514 537.603 237.65 537.46 235.408 537.232 233.775 535.231 234.003 532.989 234.231 530.747 236.232 529.114 238.474 529.342 238.587 529.353 238.699 529.369 238.81 529.39 240.945 529.713 242.414 531.706 242.091 533.841 242.091 533.844 242.09 533.847 242.09 533.85 242.054 534.08 242.004 534.307 241.94 534.53L241.87 534.79 236.25 533.93C236.406 534.846 237.173 535.534 238.1 535.59 238.64 535.684 239.197 535.618 239.7 535.4 239.917 535.312 240.117 535.187 240.29 535.03ZM239.97 532.88C239.875 531.885 238.991 531.155 237.996 531.25 237.333 531.314 236.758 531.736 236.5 532.35Z" fill="#024363" transform="translate(-9.68 -10.02)"/><path d="M243.67 535.49C243.811 535.684 243.979 535.856 244.17 536 244.585 536.346 245.093 536.562 245.63 536.62 246.35 536.7 246.63 536.49 246.63 536.18 246.74 535.3 242.75 534.98 243.05 532.44 243.21 531.17 244.45 530.19 246.44 530.44 247.234 530.525 247.989 530.83 248.62 531.32 248.879 531.516 249.111 531.744 249.31 532L247.88 533.19C247.749 533.057 247.608 532.933 247.46 532.82 247.093 532.555 246.661 532.392 246.21 532.35 245.65 532.28 245.39 532.49 245.36 532.73 245.25 533.6 249.24 533.92 248.93 536.46 248.77 537.8 247.52 538.79 245.38 538.53 244.504 538.432 243.675 538.085 242.99 537.53 242.693 537.297 242.434 537.021 242.22 536.71Z" fill="#024363" transform="translate(-9.68 -10.02)"/><path d="M258.63 538.51 258.55 538.51C258.359 538.74 258.137 538.942 257.89 539.11 257.321 539.48 256.646 539.652 255.97 539.6 253.749 539.081 252.369 536.86 252.888 534.638 253.299 532.882 254.801 531.595 256.6 531.46 257.275 531.517 257.913 531.79 258.42 532.24 258.636 532.442 258.822 532.674 258.97 532.93L259.05 532.93 259.4 528.46 261.55 528.62 260.69 539.79 258.54 539.63ZM258.92 535.72C258.956 534.616 258.089 533.692 256.985 533.657 255.881 533.621 254.958 534.487 254.922 535.591 254.888 536.662 255.702 537.569 256.77 537.65 257.871 537.733 258.832 536.908 258.915 535.807 258.918 535.778 258.919 535.749 258.92 535.72Z" fill="#024363" transform="translate(-9.68 -10.02)"/><path d="M269.8 539.07C269.533 539.311 269.233 539.513 268.91 539.67 268.132 540.067 267.263 540.253 266.39 540.21 264.137 540.228 262.295 538.417 262.277 536.164 262.258 533.91 264.07 532.069 266.323 532.05 266.429 532.049 266.534 532.053 266.64 532.06 268.799 532.152 270.479 533.97 270.4 536.13 270.386 536.361 270.359 536.592 270.32 536.82L270.32 537.09 264.65 536.86C264.907 537.742 265.732 538.337 266.65 538.3 267.199 538.34 267.747 538.21 268.22 537.93 268.422 537.821 268.605 537.679 268.76 537.51ZM268.19 535.4C267.976 534.418 267.006 533.795 266.024 534.01 265.379 534.15 264.861 534.629 264.67 535.26Z" fill="#024363" transform="translate(-9.68 -10.02)"/><path d="M279.12 539.28 279 539.28C278.831 539.494 278.632 539.682 278.41 539.84 277.919 540.222 277.312 540.423 276.69 540.41 275.468 540.515 274.393 539.61 274.288 538.388 274.282 538.322 274.28 538.256 274.28 538.19 274.279 536.88 275.276 535.784 276.58 535.66L279.06 535.2C278.934 534.56 278.338 534.125 277.69 534.2 277.221 534.194 276.764 534.353 276.4 534.65 276.226 534.773 276.071 534.921 275.94 535.09L274.65 533.81C274.883 533.523 275.156 533.27 275.46 533.06 276.152 532.557 276.984 532.284 277.84 532.28 279.569 532.147 281.078 533.442 281.211 535.171 281.216 535.24 281.219 535.31 281.22 535.38L281.22 540.26 279.06 540.26ZM279.12 536.72 277.36 537.05C276.8 537.17 276.48 537.46 276.48 537.86 276.48 538.26 276.81 538.65 277.48 538.65 278.402 538.652 279.151 537.905 279.153 536.983 279.153 536.949 279.152 536.914 279.15 536.88Z" fill="#024363" transform="translate(-9.68 -10.02)"/><path d="M282.89 532.36 285.05 532.27 285.05 533.39 285.13 533.39C285.29 533.143 285.485 532.92 285.71 532.73 286.23 532.291 286.88 532.038 287.56 532.01 289.824 532.238 291.475 534.258 291.247 536.522 291.064 538.344 289.7 539.826 287.9 540.16 287.222 540.194 286.552 539.997 286 539.6 285.759 539.431 285.547 539.225 285.37 538.99L285.29 538.99 285.47 543.47 283.31 543.56ZM289.13 536.02C289.041 534.919 288.076 534.099 286.975 534.188 285.874 534.277 285.054 535.242 285.143 536.343 285.229 537.41 286.14 538.219 287.21 538.18 288.314 538.14 289.177 537.213 289.137 536.109 289.136 536.073 289.133 536.036 289.13 536Z" fill="#024363" transform="translate(-9.68 -10.02)"/><path d="M292.29 531.92 294.45 531.76 294.53 532.88 294.61 532.88C294.762 532.629 294.943 532.398 295.15 532.19 295.604 531.749 296.199 531.48 296.83 531.43L297 531.43 297.17 533.75 296.99 533.75C296.807 533.734 296.623 533.734 296.44 533.75 295.416 533.831 294.652 534.728 294.733 535.752 294.739 535.818 294.748 535.884 294.76 535.95L295.02 539.62 292.86 539.78Z" fill="#024363" transform="translate(-9.68 -10.02)"/><path d="M305.46 537.52C305.227 537.795 304.958 538.037 304.66 538.24 303.941 538.735 303.108 539.038 302.24 539.12 300.005 539.406 297.961 537.826 297.675 535.591 297.389 533.356 298.969 531.312 301.205 531.026 301.253 531.02 301.301 531.014 301.35 531.01 303.502 530.801 305.419 532.369 305.64 534.52 305.654 534.75 305.654 534.98 305.64 535.21L305.64 535.48 299.99 536.05C300.371 536.893 301.281 537.365 302.19 537.19 302.738 537.158 303.263 536.955 303.69 536.61 303.879 536.474 304.042 536.305 304.17 536.11ZM303.35 534.11C302.996 533.169 301.946 532.694 301.006 533.048 300.395 533.277 299.954 533.816 299.85 534.46Z" fill="#024363" transform="translate(-9.68 -10.02)"/><path d="M306.44 530.63 308.58 530.34 308.73 531.45 308.81 531.45C308.947 531.193 309.115 530.955 309.31 530.74 309.731 530.263 310.31 529.954 310.94 529.87 312.589 529.708 314.057 530.914 314.218 532.563 314.224 532.619 314.228 532.674 314.23 532.73L314.87 537.41 312.73 537.7 312.14 533.34C312.138 532.583 311.524 531.971 310.767 531.973 310.677 531.973 310.588 531.982 310.5 532 309.595 532.105 308.946 532.924 309.051 533.829 309.058 533.886 309.067 533.944 309.08 534L309.64 538.12 307.5 538.41Z" fill="#024363" transform="translate(-9.68 -10.02)"/><path d="M322.1 535 322 535C321.874 535.27 321.709 535.519 321.51 535.74 321.065 536.261 320.454 536.614 319.78 536.74 317.499 536.722 315.664 534.859 315.682 532.578 315.695 530.865 316.765 529.338 318.37 528.74 319.053 528.617 319.757 528.727 320.37 529.05 320.632 529.19 320.872 529.368 321.08 529.58L321.15 529.58 320.38 525.17 322.51 524.8 324.44 535.8 322.31 536.17ZM321.7 532.23C321.514 531.141 320.481 530.409 319.392 530.595 318.303 530.781 317.571 531.814 317.757 532.903 317.758 532.909 317.759 532.914 317.76 532.92 317.946 534.009 318.979 534.741 320.068 534.555 321.157 534.369 321.889 533.336 321.703 532.247 321.702 532.241 321.701 532.236 321.7 532.23Z" fill="#024363" transform="translate(-9.68 -10.02)"/><path d="M325.18 524.1C325.833 523.958 326.477 524.373 326.619 525.026 326.619 525.027 326.62 525.029 326.62 525.03 326.779 525.696 326.368 526.365 325.702 526.524 325.035 526.683 324.367 526.272 324.208 525.605 324.049 524.939 324.46 524.271 325.126 524.112 325.144 524.107 325.162 524.103 325.18 524.1ZM324.79 527.69 326.91 527.26 328.46 534.95 326.35 535.37Z" fill="#024363" transform="translate(-9.68 -10.02)"/><path d="M329.36 532.74 332.26 528.15 328.67 528.96 328.23 526.96 334.62 525.51 335.06 527.51 332.17 532.1 336.07 531.22 336.51 533.17 329.8 534.69Z" fill="#024363" transform="translate(-9.68 -10.02)"/><path d="M341.92 530.79 341.85 530.79C341.732 531.035 341.588 531.266 341.42 531.48 341.032 531.975 340.49 532.327 339.88 532.48 338.714 532.876 337.447 532.251 337.052 531.085 337.032 531.027 337.015 530.969 337 530.91 336.673 529.643 337.373 528.338 338.61 527.91L340.9 526.85C340.627 526.251 339.941 525.96 339.32 526.18 338.862 526.291 338.459 526.56 338.18 526.94 338.041 527.103 337.927 527.285 337.84 527.48L336.28 526.56C336.432 526.221 336.634 525.908 336.88 525.63 337.428 524.974 338.165 524.503 338.99 524.28 340.647 523.751 342.42 524.665 342.949 526.322 342.964 526.368 342.977 526.414 342.99 526.46L344.22 531.18 342.13 531.73ZM341.28 528.31 339.66 529.06C339.14 529.31 338.91 529.67 339.01 530.06 339.11 530.45 339.52 530.75 340.14 530.59 341.03 530.369 341.572 529.469 341.351 528.579 341.342 528.542 341.332 528.506 341.32 528.47Z" fill="#024363" transform="translate(-9.68 -10.02)"/><path d="M344 519.52C344.644 519.364 345.293 519.76 345.449 520.404 345.605 521.048 345.209 521.696 344.565 521.853 343.941 522.004 343.309 521.637 343.13 521.02 342.97 520.367 343.354 519.705 344 519.52ZM344.53 532.27C344.616 532.28 344.704 532.28 344.79 532.27 345.004 532.268 345.216 532.234 345.42 532.17 345.957 532.042 346.289 531.503 346.161 530.965 346.148 530.912 346.131 530.86 346.11 530.81L343.9 523.12 345.98 522.52 348.27 530.52C348.78 532.31 348.07 533.58 346.53 534.02 346.204 534.114 345.869 534.171 345.53 534.19L345 534.19Z" fill="#024363" transform="translate(-9.68 -10.02)"/><path d="M356.27 526.38C356.098 526.698 355.883 526.991 355.63 527.25 355.031 527.887 354.276 528.356 353.44 528.61 351.308 529.341 348.988 528.205 348.257 526.074 347.527 523.942 348.662 521.622 350.794 520.891 350.836 520.877 350.878 520.863 350.92 520.85 352.985 520.203 355.185 521.348 355.84 523.41 355.905 523.634 355.958 523.861 356 524.09L356.05 524.36 350.63 526.06C351.175 526.81 352.164 527.088 353.02 526.73 353.547 526.581 354.017 526.278 354.37 525.86 354.526 525.685 354.651 525.486 354.74 525.27ZM353.51 523.48C353.057 522.794 352.21 522.482 351.42 522.71 350.641 522.97 350.125 523.71 350.15 524.53Z" fill="#024363" transform="translate(-9.68 -10.02)"/><path d="M365.12 523.44 365.04 523.44C364.953 523.698 364.832 523.944 364.68 524.17 364.343 524.694 363.839 525.089 363.25 525.29 362.125 525.79 360.807 525.284 360.306 524.159 360.286 524.113 360.267 524.067 360.25 524.02 359.807 522.784 360.379 521.414 361.57 520.86L363.74 519.59C363.422 519.009 362.702 518.784 362.11 519.08 361.638 519.238 361.243 519.566 361 520 360.872 520.172 360.774 520.365 360.71 520.57L359.07 519.81C359.187 519.454 359.355 519.117 359.57 518.81 360.06 518.101 360.759 517.563 361.57 517.27 363.149 516.552 365.01 517.25 365.728 518.829 365.754 518.885 365.778 518.942 365.8 519L367.47 523.59 365.47 524.33ZM364.24 521.03 362.69 521.94C362.21 522.24 362 522.62 362.14 522.94 362.28 523.26 362.72 523.58 363.32 523.36 364.19 523.07 364.66 522.13 364.37 521.26 364.355 521.216 364.338 521.173 364.32 521.13Z" fill="#024363" transform="translate(-9.68 -10.02)"/><path d="M365.16 512.48 367.16 511.69 371.26 522.1 369.26 522.89Z" fill="#024363" transform="translate(-9.68 -10.02)"/><path d="M369.74 510.55C370.356 510.292 371.064 510.578 371.33 511.19 371.564 511.819 371.26 512.521 370.64 512.78 370.021 513.038 369.31 512.754 369.04 512.14 368.807 511.508 369.116 510.805 369.74 510.55ZM370.04 514.15 372.04 513.33 375.04 520.57 373.04 521.4Z" fill="#024363" transform="translate(-9.68 -10.02)"/><path d="M373.56 512.71 375.56 511.83 376.02 512.83 376.09 512.83C376.149 512.546 376.243 512.271 376.37 512.01 376.642 511.436 377.11 510.979 377.69 510.72 379.22 510.084 380.976 510.809 381.612 512.339 381.64 512.408 381.666 512.479 381.69 512.55L383.61 516.87 381.61 517.74 379.83 513.74C379.615 513.026 378.861 512.622 378.148 512.838 378.062 512.863 377.979 512.898 377.9 512.94 377.055 513.297 376.66 514.27 377.016 515.115 377.033 515.154 377.051 515.192 377.07 515.23L378.76 519.03 376.76 519.91Z" fill="#024363" transform="translate(-9.68 -10.02)"/><path d="M391.13 512C391.007 512.338 390.839 512.657 390.63 512.95 390.12 513.671 389.431 514.247 388.63 514.62 386.614 515.628 384.163 514.811 383.155 512.795 382.147 510.779 382.964 508.328 384.98 507.32 386.927 506.373 389.273 507.183 390.22 509.13 390.22 509.13 390.22 509.13 390.22 509.13 390.319 509.338 390.406 509.552 390.48 509.77L390.57 510.03 385.46 512.51C386.111 513.176 387.135 513.304 387.93 512.82 388.427 512.595 388.845 512.226 389.13 511.76 389.262 511.566 389.357 511.349 389.41 511.12ZM388 509.48C387.448 508.873 386.567 508.691 385.82 509.03 385.081 509.402 384.674 510.216 384.82 511.03Z" fill="#024363" transform="translate(-9.68 -10.02)"/><path d="M396.78 509.16 396.71 509.16C396.652 509.425 396.565 509.684 396.45 509.93 396.184 510.495 395.737 510.956 395.18 511.24 394.131 511.895 392.749 511.575 392.094 510.526 392.064 510.478 392.036 510.43 392.01 510.38 391.4 509.219 391.782 507.783 392.89 507.08L394.89 505.52C394.489 504.995 393.749 504.872 393.2 505.24 392.779 505.452 392.446 505.806 392.26 506.24 392.167 506.43 392.099 506.632 392.06 506.84L390.32 506.31C390.394 505.944 390.518 505.591 390.69 505.26 391.074 504.497 391.686 503.871 392.44 503.47 393.911 502.552 395.848 503 396.766 504.471 396.803 504.53 396.837 504.589 396.87 504.65L399.16 508.96 397.25 509.96ZM395.58 506.9 394.17 508C393.73 508.36 393.59 508.76 393.77 509.12 393.95 509.48 394.43 509.67 395 509.37 395.813 508.947 396.13 507.945 395.707 507.132 395.689 507.097 395.67 507.063 395.65 507.03Z" fill="#024363" transform="translate(-9.68 -10.02)"/><path d="M405.12 504.3 405.05 504.3C405.029 504.596 404.958 504.887 404.84 505.16 404.587 505.789 404.129 506.314 403.54 506.65 401.427 507.493 399.03 506.463 398.187 504.35 397.511 502.656 398.029 500.72 399.46 499.59 400.046 499.249 400.728 499.111 401.4 499.2 401.693 499.244 401.979 499.328 402.25 499.45L402.32 499.45 400.08 495.57 401.95 494.49 407.55 504.19 405.68 505.27ZM403.79 501.84C403.2 500.906 401.965 500.628 401.031 501.218 400.097 501.808 399.819 503.043 400.409 503.977 400.982 504.884 402.17 505.177 403.1 504.64 404.056 504.087 404.384 502.864 403.831 501.908 403.818 501.885 403.804 501.862 403.79 501.84Z" fill="#024363" transform="translate(-9.68 -10.02)"/><path d="M412.5 500 412.43 500C412.393 500.27 412.326 500.535 412.23 500.79 412.005 501.37 411.593 501.859 411.06 502.18 410.069 502.911 408.673 502.701 407.941 501.71 407.906 501.661 407.872 501.611 407.84 501.56 407.147 500.446 407.421 498.987 408.47 498.2L410.33 496.5C409.894 496.008 409.15 495.938 408.63 496.34 408.226 496.584 407.921 496.963 407.77 497.41 407.69 497.606 407.633 497.811 407.6 498.02L405.84 497.62C405.996 496.387 406.692 495.288 407.74 494.62 409.148 493.598 411.117 493.91 412.14 495.318 412.178 495.371 412.215 495.425 412.25 495.48L414.84 499.61 413 500.8ZM411.14 497.83 409.82 499.03C409.4 499.43 409.28 499.84 409.5 500.18 409.72 500.52 410.19 500.69 410.74 500.35 411.523 499.872 411.77 498.851 411.292 498.068 411.269 498.031 411.245 497.995 411.22 497.96Z" fill="#024363" transform="translate(-9.68 -10.02)"/><path d="M415.37 496.14C415.602 496.195 415.842 496.215 416.08 496.2 416.621 496.19 417.146 496.019 417.59 495.71 418.18 495.31 418.25 494.98 418.07 494.71 417.58 493.98 414.35 496.34 412.92 494.22 412.21 493.15 412.51 491.6 414.18 490.48 414.837 490.03 415.605 489.771 416.4 489.73 416.734 489.7 417.072 489.72 417.4 489.79L417.09 491.63C416.904 491.615 416.716 491.615 416.53 491.63 416.081 491.674 415.651 491.832 415.28 492.09 414.81 492.4 414.74 492.74 414.88 492.94 415.37 493.67 418.6 491.31 420.03 493.43 420.78 494.55 420.48 496.12 418.68 497.32 417.953 497.821 417.093 498.096 416.21 498.11 415.833 498.132 415.454 498.092 415.09 497.99Z" fill="#024363" transform="translate(-9.68 -10.02)"/><path d="M222.28 34.25C221.487 36.179 219.867 37.6482 217.87 38.25 214.487 39.5768 210.669 37.9098 209.342 34.5267 208.015 31.1435 209.682 27.3253 213.065 25.9985 213.369 25.8793 213.682 25.7828 214 25.71 215.964 25.0753 218.111 25.3815 219.82 26.54L218.64 28.79C218.282 28.5483 217.895 28.3502 217.49 28.2 216.611 27.8719 215.649 27.8403 214.75 28.11 212.613 28.7755 211.419 31.0477 212.085 33.185 212.751 35.3223 215.023 36.5155 217.16 35.85 218.081 35.5559 218.884 34.9741 219.45 34.19 219.711 33.8474 219.917 33.4661 220.06 33.06Z" fill="#024363" transform="translate(-9.68 -10.02)"/><path d="M226.71 22.23C230.269 21.5214 233.728 23.8319 234.436 27.3905 235.145 30.9492 232.835 34.4085 229.276 35.117 225.824 35.8043 222.444 33.6494 221.61 30.23 220.784 26.6513 223.016 23.0809 226.595 22.2554 226.633 22.2466 226.672 22.2381 226.71 22.23ZM229.21 32.54C231.351 31.9948 232.644 29.8174 232.099 27.6766 231.554 25.5358 229.376 24.2423 227.236 24.7875 225.138 25.3217 223.846 27.4278 224.32 29.54 224.804 31.6955 226.944 33.0505 229.099 32.5666 229.136 32.5582 229.173 32.5494 229.21 32.54Z" fill="#024363" transform="translate(-9.68 -10.02)"/><path d="M236.08 20.34 238.48 19.94 243.62 24.57 247 18.57 249.4 18.18 251.4 30.61 248.74 31.05 247.39 22.88 244.22 28.51 239.4 24.2 240.75 32.37 238.09 32.81Z" fill="#024363" transform="translate(-9.68 -10.02)"/><path d="M252.73 17.75 255.42 17.5 256.11 24.85C256.138 26.3961 257.415 27.6266 258.961 27.5984 260.507 27.5701 261.737 26.2938 261.709 24.7477 261.706 24.6077 261.693 24.4681 261.67 24.33L261 17 263.68 16.75 264.37 24.1C264.561 27.126 262.263 29.734 259.237 29.9252 256.331 30.1088 253.787 27.9913 253.44 25.1Z" fill="#024363" transform="translate(-9.68 -10.02)"/><path d="M267 16.52 269.43 16.45 275.77 24.1 275.55 16.28 278.24 16.2 278.61 28.79 276.18 28.86 269.84 21.21 270.06 29.04 267.36 29.12Z" fill="#024363" transform="translate(-9.68 -10.02)"/><path d="M281.46 16.29 284.16 16.29 283.94 28.89 281.24 28.84Z" fill="#024363" transform="translate(-9.68 -10.02)"/><path d="M287.4 16.38 291.98 16.66C295.465 16.7012 298.256 19.5594 298.215 23.0441 298.174 26.5288 295.316 29.3203 291.831 29.2791 291.62 29.2766 291.41 29.2636 291.2 29.24L286.62 29ZM291.4 26.72C293.477 26.9283 295.33 25.4132 295.538 23.336 295.747 21.2588 294.231 19.406 292.154 19.1977 292.06 19.1882 291.965 19.1823 291.87 19.18L289.98 19.06 289.51 26.6Z" fill="#024363" transform="translate(-9.68 -10.02)"/><path d="M304.09 17.7 307.09 18.07 310.4 31.17 307.54 30.82 306.82 27.82 302 27.24 300.6 30 297.74 29.66ZM306.24 25.31 305.24 21.02 305.17 21.02 303.17 24.95Z" fill="#024363" transform="translate(-9.68 -10.02)"/><path d="M313.79 19 318.31 19.83C321.778 20.1757 324.309 23.2671 323.963 26.7348 323.617 30.2026 320.526 32.7335 317.058 32.3878 316.7 32.3521 316.346 32.2859 316 32.19L311.49 31.36ZM316.49 29.74C318.526 30.2011 320.55 28.9243 321.011 26.8882 321.473 24.8521 320.196 22.8277 318.16 22.3667 318.057 22.3435 317.954 22.3246 317.85 22.31L316 21.94 314.64 29.37Z" fill="#024363" transform="translate(-9.68 -10.02)"/><path d="M327.32 21.57 336.41 23.79 335.82 26.24 329.35 24.66 328.77 27 333.84 28.24 333.26 30.6 328.19 29.36 327.55 32 334.2 33.62 333.6 36.07 324.33 33.8Z" fill="#024363" transform="translate(-9.68 -10.02)"/><path d="M336.88 33.39C337.016 33.705 337.198 33.9981 337.42 34.26 337.915 34.8702 338.585 35.3136 339.34 35.53 340.72 35.95 341.5 35.53 341.74 34.75 342.35 32.69 336.04 31.8 337.3 27.59 337.86 25.69 339.99 24.54 342.76 25.37 343.829 25.683 344.791 26.2851 345.54 27.11 345.844 27.4471 346.106 27.8198 346.32 28.22L344.08 29.43C343.947 29.1864 343.796 28.9525 343.63 28.73 343.244 28.2562 342.725 27.9081 342.14 27.73 340.83 27.33 340.14 27.73 339.97 28.39 339.36 30.44 345.67 31.34 344.41 35.55 343.82 37.55 341.57 38.74 338.73 37.89 337.488 37.543 336.371 36.8493 335.51 35.89 335.151 35.511 334.857 35.0751 334.64 34.6Z" fill="#024363" transform="translate(-9.68 -10.02)"/></svg>