<svg viewBox="0 0 379.15 379.15" xmlns="http://www.w3.org/2000/svg" xmlns:xlink="http://www.w3.org/1999/xlink" id="Layer_1" overflow="hidden"><defs></defs><circle cx="189.57" cy="189.57" r="189.57" fill="#1C7DC1"/><path d="M177.63 420.45C177.64 420.752 177.691 421.051 177.78 421.34 177.948 421.938 178.297 422.469 178.78 422.86 179.55 423.45 180.21 423.37 180.51 422.98 181.43 421.77 176.85 419.07 179.23 415.98 180.3 414.58 182.59 414.22 184.68 415.82 185.529 416.435 186.182 417.282 186.56 418.26 186.71 418.647 186.801 419.055 186.83 419.47L184.26 419.92C184.249 419.701 184.206 419.485 184.13 419.28 183.996 418.817 183.72 418.407 183.34 418.11 182.62 417.57 182.08 417.65 181.83 417.97 180.91 419.18 185.49 421.87 183.12 424.97 181.95 426.49 179.61 426.81 177.44 425.16 176.476 424.453 175.744 423.475 175.34 422.35 175.164 421.889 175.063 421.403 175.04 420.91Z" fill="#024363" transform="translate(-89.34 -89.68)"/><path d="M188.86 419.31 195.97 424.07 194.45 426.33 189.87 423.26 188.98 424.59 192.5 427 191.07 429.12 187.55 426.76 186.66 428.09 191.38 431.25 189.86 433.51 182.62 428.66Z" fill="#024363" transform="translate(-89.34 -89.68)"/><path d="M197.2 424.81 199.83 426.34 195.63 433.52 199.84 435.98 198.39 438.47 191.55 434.47Z" fill="#024363" transform="translate(-89.34 -89.68)"/><path d="M205.94 433.54 207.86 434.54 204.32 441.54 202.4 440.54ZM208.46 430.96C209.06 431.26 209.309 431.985 209.02 432.59 208.694 433.179 207.96 433.405 207.36 433.1 206.769 432.796 206.536 432.071 206.84 431.48 207.144 430.889 207.869 430.656 208.46 430.96Z" fill="#024363" transform="translate(-89.34 -89.68)"/><path d="M209.32 435.28 211.32 436.18 210.85 437.18 210.93 437.18C211.186 437.042 211.453 436.928 211.73 436.84 212.341 436.667 212.993 436.717 213.57 436.98 215.052 437.72 215.654 439.522 214.914 441.004 214.887 441.057 214.859 441.109 214.83 441.16L212.83 445.45 210.83 444.55 212.65 440.55C213.05 439.914 212.859 439.075 212.223 438.675 212.143 438.624 212.058 438.583 211.97 438.55 211.141 438.159 210.152 438.513 209.76 439.342 209.742 439.381 209.725 439.42 209.71 439.46L208 443.31 206 442.41Z" fill="#024363" transform="translate(-89.34 -89.68)"/><path d="M216.15 444C216.239 444.223 216.36 444.432 216.51 444.62 216.819 445.069 217.254 445.417 217.76 445.62 218.43 445.89 218.76 445.75 218.86 445.45 219.18 444.64 215.41 443.31 216.35 440.93 216.82 439.74 218.28 439.11 220.14 439.85 220.883 440.136 221.533 440.62 222.02 441.25 222.221 441.505 222.389 441.784 222.52 442.08L220.83 442.88C220.741 442.712 220.633 442.555 220.51 442.41 220.228 442.057 219.854 441.787 219.43 441.63 218.91 441.43 218.6 441.56 218.51 441.78 218.18 442.6 221.96 443.93 221.02 446.31 220.52 447.56 219.02 448.2 217.02 447.41 216.2 447.085 215.489 446.533 214.97 445.82 214.74 445.516 214.558 445.179 214.43 444.82Z" fill="#024363" transform="translate(-89.34 -89.68)"/><path d="M223.89 443.72 222.61 443.27 223.27 441.38 223.95 441.62C224.51 441.82 224.89 441.62 225.1 441.01L225.57 439.65 227.38 440.28 226.59 442.55 228.25 443.13 227.59 445.02 225.93 444.44 225.06 446.93C224.816 447.425 225.02 448.025 225.515 448.269 225.565 448.294 225.617 448.314 225.67 448.33 225.867 448.398 226.072 448.441 226.28 448.46L226.55 448.46 225.89 450.34C225.75 450.34 225.6 450.34 225.45 450.34 225.108 450.299 224.773 450.219 224.45 450.1 222.94 449.57 222.3 448.27 222.91 446.51Z" fill="#024363" transform="translate(-89.34 -89.68)"/><path d="M229.66 443.41 231.72 444.05 231.39 445.12 231.47 445.12C231.702 444.945 231.954 444.797 232.22 444.68 232.802 444.428 233.454 444.393 234.06 444.58L234.21 444.63 233.53 446.84 233.37 446.76C233.205 446.679 233.034 446.609 232.86 446.55 231.863 446.261 230.82 446.834 230.531 447.832 230.514 447.887 230.501 447.943 230.49 448L229.4 451.51 227.34 450.87Z" fill="#024363" transform="translate(-89.34 -89.68)"/><path d="M235 445.08 237.09 445.63 236 449.88C235.725 450.585 236.073 451.379 236.778 451.654 236.85 451.682 236.924 451.704 237 451.72 237.891 451.959 238.807 451.431 239.046 450.541 239.055 450.507 239.063 450.474 239.07 450.44L240.07 446.44 242.16 446.99 240.16 454.57 238.07 454.03 238.35 452.94 238.28 452.94C238.054 453.126 237.805 453.284 237.54 453.41 236.973 453.691 236.323 453.758 235.71 453.6 234.117 453.145 233.194 451.485 233.648 449.892 233.667 449.827 233.687 449.763 233.71 449.7Z" fill="#024363" transform="translate(-89.34 -89.68)"/><path d="M249.39 455C249.107 455.257 248.787 455.47 248.44 455.63 246.406 456.637 243.94 455.804 242.933 453.77 241.926 451.736 242.759 449.27 244.793 448.263 245.613 447.858 246.544 447.737 247.44 447.92 248.318 448.081 249.117 448.532 249.71 449.2 249.969 449.477 250.182 449.795 250.34 450.14L248.73 451.2C248.622 450.993 248.488 450.802 248.33 450.63 247.991 450.249 247.539 449.987 247.04 449.88 245.904 449.712 244.846 450.498 244.679 451.634 244.524 452.684 245.184 453.681 246.21 453.95 246.711 454.045 247.229 453.978 247.69 453.76 247.9 453.664 248.098 453.543 248.28 453.4Z" fill="#024363" transform="translate(-89.34 -89.68)"/><path d="M257.33 456.2C257.065 456.472 256.758 456.698 256.42 456.87 254.435 457.971 251.933 457.255 250.832 455.27 249.731 453.285 250.447 450.783 252.432 449.682 253.241 449.233 254.177 449.071 255.09 449.22 255.97 449.35 256.786 449.756 257.42 450.38 257.691 450.649 257.917 450.96 258.09 451.3L256.54 452.44C256.417 452.236 256.269 452.048 256.1 451.88 255.742 451.519 255.281 451.277 254.78 451.19 253.629 451.103 252.625 451.965 252.538 453.116 252.46 454.145 253.145 455.077 254.15 455.31 254.655 455.376 255.168 455.286 255.62 455.05 255.826 454.936 256.021 454.802 256.2 454.65Z" fill="#024363" transform="translate(-89.34 -89.68)"/><path d="M259.23 450 261.38 450.25 260.47 458.04 258.33 457.79ZM260.71 446.71C261.364 446.817 261.807 447.434 261.7 448.088 261.593 448.742 260.976 449.186 260.322 449.078 259.671 448.972 259.229 448.361 259.33 447.71 259.433 447.046 260.043 446.582 260.71 446.66Z" fill="#024363" transform="translate(-89.34 -89.68)"/><path d="M266.71 450.53C268.953 450.746 270.596 452.74 270.379 454.983 270.163 457.226 268.169 458.869 265.926 458.652 263.715 458.439 262.081 456.495 262.25 454.28 262.44 452.018 264.427 450.338 266.689 450.528 266.696 450.529 266.703 450.529 266.71 450.53ZM268.39 454.75C268.431 453.646 267.569 452.718 266.466 452.677 265.362 452.636 264.434 453.498 264.393 454.601 264.353 455.675 265.169 456.589 266.24 456.67 267.341 456.754 268.302 455.928 268.386 454.827 268.388 454.801 268.389 454.776 268.39 454.75ZM267.39 447.29 269.63 447.46 267.69 449.72 265.93 449.59Z" fill="#024363" transform="translate(-89.34 -89.68)"/><path d="M272 451.05 274.16 451.05 274.16 452.17 274.24 452.17C274.417 451.942 274.618 451.734 274.84 451.55 275.327 451.143 275.945 450.926 276.58 450.94 278.234 451.029 279.504 452.441 279.416 454.096 279.412 454.157 279.407 454.219 279.4 454.28L279.3 459 277.14 458.95 277.23 454.55C277.336 453.812 276.824 453.128 276.086 453.022 275.998 453.009 275.909 453.005 275.82 453.01 274.909 452.976 274.144 453.687 274.11 454.597 274.108 454.642 274.108 454.686 274.11 454.73L274.02 458.89 271.86 458.89Z" fill="#024363" transform="translate(-89.34 -89.68)"/><path d="M283.65 460.08C283.733 460.115 283.821 460.138 283.91 460.15 284.117 460.194 284.329 460.211 284.54 460.2 285.147 460.186 285.677 459.782 285.85 459.2L285.99 458.79 282.57 451.2 284.89 451.08 286.98 456.18 287.06 456.18 288.56 450.9 290.88 450.79 288.1 459.41C287.53 461.22 286.65 462.2 285.2 462.28 284.865 462.299 284.529 462.275 284.2 462.21L283.78 462.11Z" fill="#024363" transform="translate(-89.34 -89.68)"/><path d="M301.66 456C301.478 456.333 301.241 456.634 300.96 456.89 299.353 458.493 296.75 458.489 295.148 456.882 293.545 455.275 293.548 452.672 295.156 451.069 295.826 450.401 296.708 449.984 297.65 449.89 298.536 449.781 299.433 449.96 300.21 450.4 300.54 450.583 300.838 450.819 301.09 451.1L299.9 452.61C299.727 452.448 299.536 452.307 299.33 452.19 298.892 451.936 298.384 451.827 297.88 451.88 296.744 452.05 295.96 453.108 296.13 454.244 296.292 455.329 297.268 456.101 298.36 456.01 298.862 455.94 299.33 455.717 299.7 455.37 299.874 455.215 300.026 455.037 300.15 454.84Z" fill="#024363" transform="translate(-89.34 -89.68)"/><path d="M301.44 446.15 303.58 445.82 305.27 456.9 303.14 457.23Z" fill="#024363" transform="translate(-89.34 -89.68)"/><path d="M306.26 445.29C306.914 445.177 307.537 445.616 307.65 446.27 307.763 446.924 307.324 447.547 306.67 447.66 306.016 447.773 305.393 447.335 305.28 446.68 305.167 446.026 305.606 445.403 306.26 445.29ZM305.8 448.87 307.92 448.49 309.3 456.21 307.17 456.59Z" fill="#024363" transform="translate(-89.34 -89.68)"/><path d="M309.56 448.29 311.66 447.79 311.92 448.88 312 448.88C312.075 448.616 312.194 448.366 312.35 448.14 312.694 447.635 313.215 447.278 313.81 447.14 314.749 446.91 315.738 447.218 316.38 447.94L316.46 447.94C316.573 447.645 316.735 447.371 316.94 447.13 317.362 446.577 317.963 446.189 318.64 446.03 320.13 445.67 321.56 446.57 322 448.44L323.12 453.19 321.02 453.68 320.02 449.25C319.949 448.597 319.362 448.125 318.708 448.196 318.624 448.205 318.541 448.223 318.46 448.25 317.66 448.416 317.145 449.199 317.31 449.999 317.321 450.05 317.334 450.1 317.35 450.15L318.35 454.36 316.25 454.85 315.2 450.41C315.129 449.757 314.542 449.285 313.888 449.356 313.804 449.365 313.721 449.383 313.64 449.41 312.835 449.581 312.321 450.372 312.492 451.177 312.502 451.225 312.515 451.273 312.53 451.32L313.53 455.52 311.43 456.02Z" fill="#024363" transform="translate(-89.34 -89.68)"/><path d="M329.09 450.27 329.02 450.27C328.912 450.52 328.778 450.758 328.62 450.98 328.257 451.489 327.731 451.859 327.13 452.03 325.984 452.48 324.689 451.916 324.239 450.77 324.217 450.714 324.197 450.657 324.18 450.6 323.804 449.345 324.439 448.01 325.65 447.51L327.89 446.35C327.591 445.762 326.888 445.505 326.28 445.76 325.829 445.896 325.437 446.181 325.17 446.57 325.04 446.741 324.936 446.929 324.86 447.13L323.26 446.28C323.396 445.923 323.581 445.586 323.81 445.28 324.332 444.604 325.047 444.101 325.86 443.84 327.478 443.216 329.296 444.021 329.92 445.639 329.946 445.705 329.969 445.772 329.99 445.84L331.44 450.5 329.38 451.14ZM328.34 447.82 326.75 448.65C326.25 448.92 326.03 449.29 326.15 449.65 326.27 450.01 326.69 450.31 327.3 450.12 328.175 449.865 328.677 448.948 328.421 448.074 328.409 448.032 328.395 447.991 328.38 447.95Z" fill="#024363" transform="translate(-89.34 -89.68)"/><path d="M341.13 445.76 341.05 445.76C340.82 446.72 340.132 447.505 339.21 447.86 336.999 448.397 334.771 447.039 334.234 444.828 333.8 443.038 334.606 441.177 336.21 440.27 336.847 440.012 337.553 439.98 338.21 440.18 338.493 440.264 338.762 440.389 339.01 440.55L339.09 440.55 337.44 436.38 339.44 435.59 343.55 446 341.55 446.79ZM340.18 443.13C339.739 442.117 338.56 441.655 337.547 442.096 336.535 442.537 336.072 443.716 336.513 444.729 336.944 445.716 338.078 446.185 339.08 445.79 340.108 445.385 340.612 444.224 340.207 443.196 340.199 443.174 340.19 443.152 340.18 443.13Z" fill="#024363" transform="translate(-89.34 -89.68)"/><path d="M351.47 441.18C351.336 441.517 351.161 441.836 350.95 442.13 350.436 442.835 349.747 443.394 348.95 443.75 346.95 444.788 344.487 444.008 343.449 442.008 342.411 440.008 343.191 437.545 345.191 436.507 345.279 436.462 345.369 436.419 345.46 436.38 347.424 435.479 349.746 436.332 350.66 438.29 350.756 438.502 350.839 438.719 350.91 438.94L350.99 439.2 345.84 441.58C346.475 442.252 347.488 442.401 348.29 441.94 348.792 441.739 349.221 441.39 349.52 440.94 349.657 440.751 349.755 440.537 349.81 440.31ZM348.36 438.65C347.716 437.878 346.568 437.775 345.797 438.419 345.297 438.836 345.058 439.489 345.17 440.13Z" fill="#024363" transform="translate(-89.34 -89.68)"/><path d="M348.63 431.29 350.56 430.29 355.66 440.29 353.74 441.29Z" fill="#024363" transform="translate(-89.34 -89.68)"/><path d="M363.5 434.82 363.43 434.82C363.389 435.089 363.312 435.352 363.2 435.6 362.973 436.191 362.549 436.685 362 437 360.99 437.704 359.6 437.456 358.895 436.446 358.858 436.392 358.823 436.337 358.79 436.28 358.137 435.143 358.458 433.695 359.53 432.94L361.44 431.3C361.015 430.796 360.274 430.705 359.74 431.09 359.34 431.315 359.027 431.667 358.85 432.09 358.764 432.286 358.7 432.49 358.66 432.7L356.91 432.24C356.977 431.875 357.088 431.519 357.24 431.18 357.592 430.4 358.175 429.748 358.91 429.31 360.344 428.335 362.297 428.706 363.272 430.14 363.31 430.196 363.346 430.252 363.38 430.31L365.85 434.52 364 435.65ZM362.21 432.61 360.85 433.78C360.42 434.16 360.29 434.57 360.49 434.91 360.69 435.25 361.17 435.44 361.73 435.12 362.53 434.66 362.805 433.639 362.346 432.84 362.328 432.809 362.309 432.779 362.29 432.75Z" fill="#024363" transform="translate(-89.34 -89.68)"/><path d="M363.3 426.93 365.1 425.74 367.52 429.41C367.869 430.075 368.692 430.331 369.357 429.981 369.413 429.951 369.468 429.918 369.52 429.88 370.289 429.391 370.517 428.372 370.028 427.603 370.004 427.564 369.978 427.526 369.95 427.49L367.7 424 369.5 422.8 373.83 429.34 372.02 430.54 371.41 429.6 371.34 429.65C371.328 429.941 371.281 430.23 371.2 430.51 371.026 431.118 370.639 431.643 370.11 431.99 368.697 432.855 366.85 432.411 365.985 430.998 365.955 430.95 365.927 430.9 365.9 430.85Z" fill="#024363" transform="translate(-89.34 -89.68)"/><path d="M368.92 419.07 370.67 417.81 377.23 426.89 375.48 428.15Z" fill="#024363" transform="translate(-89.34 -89.68)"/><path d="M381.76 422.23 381.69 422.23C381.684 422.504 381.644 422.776 381.57 423.04 381.415 423.638 381.062 424.167 380.57 424.54 379.662 425.372 378.251 425.31 377.419 424.402 377.378 424.356 377.338 424.309 377.3 424.26 376.499 423.222 376.62 421.744 377.58 420.85L379.26 418.97C378.776 418.518 378.024 418.518 377.54 418.97 377.166 419.254 376.904 419.662 376.8 420.12 376.738 420.321 376.705 420.53 376.7 420.74L374.9 420.53C374.912 420.157 374.972 419.787 375.08 419.43 375.326 418.612 375.819 417.889 376.49 417.36 377.779 416.199 379.764 416.303 380.925 417.592 380.968 417.64 381.01 417.689 381.05 417.74L384.05 421.59 382.35 422.92ZM380.18 420.23 379 421.55C378.63 421.98 378.56 422.41 378.8 422.72 379.04 423.03 379.55 423.16 380.05 422.72 380.78 422.165 380.922 421.124 380.367 420.394 380.342 420.362 380.317 420.33 380.29 420.3Z" fill="#024363" transform="translate(-89.34 -89.68)"/><path d="M249.84 102.09 252.84 101.62 259.57 113.33 256.72 113.77 255.21 111.09 250.41 111.84 249.78 114.84 246.93 115.28ZM253.98 108.83 251.87 105 251.8 105 251 109.3Z" fill="#024363" transform="translate(-89.34 -89.68)"/><path d="M259.2 100.74 261.89 100.53 262.47 107.89C262.544 109.429 263.853 110.616 265.392 110.542 266.931 110.467 268.118 109.159 268.043 107.62 268.041 107.563 268.036 107.507 268.03 107.45L267.45 100.09 270.14 99.88 270.72 107.24C270.855 110.269 268.51 112.834 265.481 112.97 262.595 113.099 260.103 110.97 259.78 108.1Z" fill="#024363" transform="translate(-89.34 -89.68)"/><path d="M273.52 99.79 276.22 99.79 276.32 109.87 282.17 109.87 282.17 112.39 273.62 112.47Z" fill="#024363" transform="translate(-89.34 -89.68)"/><path d="M287.57 99.94 290.63 100.11 294.77 113 291.9 112.84 290.98 109.9 286.13 109.63 284.89 112.44 282.01 112.28ZM290.22 107.4 289 103.18 288.93 103.18 287.2 107.18Z" fill="#024363" transform="translate(-89.34 -89.68)"/><path d="M296.78 109.74C296.967 110.029 297.197 110.288 297.46 110.51 298.051 111.023 298.783 111.347 299.56 111.44 300.99 111.62 301.69 111.07 301.79 110.27 302.05 108.14 295.68 108.27 296.22 103.96 296.46 101.96 298.37 100.5 301.22 100.85 302.315 100.985 303.353 101.418 304.22 102.1 304.59 102.394 304.926 102.73 305.22 103.1L303.22 104.67C303.055 104.445 302.867 104.237 302.66 104.05 302.198 103.654 301.633 103.397 301.03 103.31 299.67 103.14 299.09 103.61 299.03 104.31 298.76 106.43 305.14 106.31 304.6 110.62 304.35 112.62 302.34 114.24 299.39 113.87 298.111 113.732 296.895 113.24 295.88 112.45 295.466 112.132 295.105 111.751 294.81 111.32Z" fill="#024363" transform="translate(-89.34 -89.68)"/></svg>