<svg viewBox="0 0 147.85 127.55" xmlns="http://www.w3.org/2000/svg" xmlns:xlink="http://www.w3.org/1999/xlink" id="Layer_1" overflow="hidden"><defs></defs><g id="_03"><path d="M870.84 189.43C907.003 190.706 938.91 213.45 951.91 247.22L1018.06 225.06C995.413 162.664 936.59 120.732 870.22 119.67Z" fill="#EF7F31" transform="translate(-870.22 -119.67)"/></g><path d="M893.75 147.46 896.83 148.11 898.56 159.2 895.56 158.57 895.29 156.21 891.91 155.5 890.72 157.55 887.72 156.92ZM895.02 153.78 894.72 150.65 894.66 150.65 893.12 153.39Z" fill="#7F3300" transform="translate(-870.22 -119.67)"/><path d="M901.64 149.19 904.38 149.98 902.68 155.88C902.149 156.848 902.503 158.064 903.472 158.595 904.44 159.127 905.656 158.772 906.187 157.804 906.329 157.544 906.412 157.256 906.43 156.96L908.13 151.06 910.87 151.84 909.17 157.75C908.438 160.299 905.779 161.772 903.23 161.04 900.681 160.308 899.208 157.649 899.94 155.1Z" fill="#7F3300" transform="translate(-870.22 -119.67)"/><path d="M914.27 155.75 911.52 154.75 912.4 152.35 920.56 155.35 919.69 157.74 916.94 156.74 914.21 164.21 911.53 163.21Z" fill="#7F3300" transform="translate(-870.22 -119.67)"/><path d="M926.81 157.76C929.535 159.176 930.595 162.533 929.179 165.258 927.763 167.982 924.406 169.043 921.682 167.627 919.053 166.261 917.957 163.074 919.19 160.38 920.513 157.572 923.861 156.368 926.669 157.691 926.717 157.714 926.763 157.736 926.81 157.76ZM923.3 165.47C924.771 166.144 926.51 165.498 927.184 164.026 927.858 162.555 927.212 160.816 925.74 160.142 924.269 159.468 922.53 160.115 921.856 161.586 921.854 161.591 921.852 161.595 921.85 161.6 921.176 163.053 921.807 164.777 923.259 165.451 923.273 165.458 923.286 165.464 923.3 165.47Z" fill="#7F3300" transform="translate(-870.22 -119.67)"/><path d="M938.1 174C937.606 174.171 937.091 174.275 936.57 174.31 935.364 174.397 934.161 174.115 933.12 173.5 930.383 172.109 929.291 168.762 930.683 166.024 932.074 163.287 935.421 162.196 938.159 163.587 938.317 163.667 938.47 163.755 938.62 163.85 939.673 164.431 940.519 165.326 941.04 166.41 941.267 166.862 941.428 167.343 941.52 167.84L939.06 168.68C938.992 168.334 938.882 167.998 938.73 167.68 938.436 167.017 937.943 166.461 937.32 166.09 935.894 165.324 934.118 165.859 933.352 167.285 932.614 168.66 933.083 170.373 934.42 171.18 935.067 171.525 935.801 171.671 936.53 171.6 936.87 171.579 937.206 171.516 937.53 171.41Z" fill="#7F3300" transform="translate(-870.22 -119.67)"/><path d="M948.23 170C950.633 171.903 951.039 175.393 949.136 177.796 947.233 180.2 943.743 180.605 941.34 178.702 939.04 176.882 938.554 173.587 940.23 171.18 942.029 168.657 945.532 168.071 948.055 169.87 948.114 169.912 948.172 169.955 948.23 170ZM943.36 176.93C944.681 177.864 946.51 177.551 947.444 176.23 948.378 174.909 948.065 173.08 946.744 172.146 945.423 171.211 943.594 171.525 942.66 172.846 942.657 172.851 942.653 172.855 942.65 172.86 941.73 174.171 942.048 175.98 943.359 176.899 943.359 176.9 943.36 176.9 943.36 176.9Z" fill="#7F3300" transform="translate(-870.22 -119.67)"/><path d="M954.61 175 956.47 176.63 956.07 183.94 959.87 179.58 962.01 181.46 955.11 189.37 953.25 187.75 953.65 180.44 949.85 184.79 947.7 182.92Z" fill="#7F3300" transform="translate(-870.22 -119.67)"/><path d="M963.5 186.64 961.5 184.52 963.34 182.76 969.34 189.06 967.5 190.82 965.5 188.7 959.75 194.19 957.75 192.12Z" fill="#7F3300" transform="translate(-870.22 -119.67)"/><path d="M970.53 190.43 973.62 194.29C974.957 195.776 974.836 198.065 973.35 199.402 973.301 199.446 973.251 199.489 973.2 199.53 972.541 200.099 971.677 200.374 970.81 200.29 970.438 200.262 970.075 200.164 969.74 200L968.05 204.14 966.18 201.79 967.67 198.38 966.67 197.16 964.09 199.22 962.33 197ZM969.9 197.08C970.248 197.544 970.906 197.639 971.37 197.291 971.834 196.943 971.929 196.285 971.581 195.821 971.568 195.804 971.554 195.787 971.54 195.77L970.32 194.25 968.68 195.56Z" fill="#7F3300" transform="translate(-870.22 -119.67)"/><path d="M980.53 203.41C982.063 206.07 981.15 209.47 978.489 211.004 975.829 212.537 972.429 211.623 970.896 208.963 969.418 206.4 970.207 203.128 972.69 201.52 975.314 199.862 978.785 200.644 980.443 203.268 980.473 203.315 980.502 203.362 980.53 203.41ZM973.42 208C974.283 209.363 976.087 209.768 977.449 208.905 978.812 208.042 979.217 206.238 978.354 204.876 977.491 203.513 975.688 203.108 974.325 203.971 974.31 203.98 974.295 203.99 974.28 204 972.938 204.865 972.552 206.653 973.417 207.995 973.418 207.997 973.419 207.998 973.42 208Z" fill="#7F3300" transform="translate(-870.22 -119.67)"/><path d="M984.45 210.39 985.78 212.91 978.89 216.56 981.03 220.61 978.64 221.87 975.17 215.3Z" fill="#7F3300" transform="translate(-870.22 -119.67)"/></svg>