<svg viewBox="0 0 104.43 172.16" xmlns="http://www.w3.org/2000/svg" xmlns:xlink="http://www.w3.org/1999/xlink" id="Layer_1" overflow="hidden"><defs></defs><g id="_01"><path d="M812.05 350.77C783.554 328.477 771.111 291.33 780.43 256.37L713.89 235.37C695.537 299.161 718.479 367.66 771.55 407.53Z" fill="#91BA3E" transform="translate(-707.62 -235.42)"/></g><path d="M746 276C745.649 275.614 745.356 275.18 745.13 274.71 744.58 273.631 744.378 272.409 744.55 271.21 744.761 268.152 747.411 265.844 750.469 266.055 753.527 266.266 755.835 268.916 755.624 271.974 755.61 272.174 755.585 272.373 755.55 272.57 755.42 273.764 754.924 274.889 754.13 275.79 753.797 276.173 753.414 276.51 752.99 276.79L751.27 274.84C751.551 274.646 751.806 274.418 752.03 274.16 752.523 273.631 752.843 272.965 752.95 272.25 753.223 270.655 752.152 269.141 750.557 268.867 748.962 268.594 747.448 269.665 747.174 271.26 747.158 271.353 747.147 271.446 747.14 271.54 747.068 272.266 747.214 272.998 747.56 273.64 747.717 273.957 747.908 274.255 748.13 274.53Z" fill="#414F07" transform="translate(-707.62 -235.42)"/><path d="M754.9 282.72C754.701 285.784 752.055 288.107 748.991 287.908 745.927 287.709 743.604 285.063 743.803 281.999 743.995 279.044 746.469 276.758 749.43 276.8 752.533 276.878 754.985 279.457 754.906 282.56 754.905 282.613 754.903 282.667 754.9 282.72ZM746.43 282.61C746.408 284.228 747.703 285.557 749.321 285.579 750.939 285.601 752.268 284.306 752.289 282.688 752.311 281.082 751.036 279.758 749.43 279.72 747.846 279.648 746.505 280.874 746.433 282.457 746.43 282.508 746.43 282.559 746.43 282.61Z" fill="#414F07" transform="translate(-707.62 -235.42)"/><path d="M754.62 289.57 754.87 292.03 749.6 297.11 755.34 296.51 755.64 299.34 745.19 300.43 744.93 297.97 750.21 292.89 744.47 293.49 744.17 290.66Z" fill="#414F07" transform="translate(-707.62 -235.42)"/><path d="M749.42 312.36C748.967 312.111 748.55 311.801 748.18 311.44 747.308 310.597 746.711 309.509 746.47 308.32 745.629 305.367 747.342 302.291 750.295 301.45 753.248 300.609 756.324 302.322 757.165 305.275 757.233 305.513 757.284 305.755 757.32 306 757.59 307.171 757.492 308.397 757.04 309.51 756.846 309.976 756.594 310.417 756.29 310.82L754 309.53C754.201 309.254 754.369 308.955 754.5 308.64 754.793 307.977 754.873 307.24 754.73 306.53 754.388 304.953 752.832 303.953 751.255 304.295 749.678 304.637 748.678 306.193 749.02 307.77 749.191 308.481 749.571 309.125 750.11 309.62 750.359 309.87 750.638 310.088 750.94 310.27Z" fill="#414F07" transform="translate(-707.62 -235.42)"/><path d="M758.35 311.31 759.16 314.04 749.09 317.04 748.28 314.31Z" fill="#414F07" transform="translate(-707.62 -235.42)"/><path d="M759.64 315.73 762.41 323.27 760.02 324.15 758.23 319.28 756.83 319.8 758.2 323.53 755.94 324.36 754.57 320.63 753.16 321.15 755 326.15 752.6 327.03 749.79 319.35Z" fill="#414F07" transform="translate(-707.62 -235.42)"/><path d="M762.85 324.41 763.91 326.64 760.62 333.18 765.84 330.71 767.06 333.28 757.57 337.77 756.51 335.54 759.8 329 754.59 331.48 753.37 328.9Z" fill="#414F07" transform="translate(-707.62 -235.42)"/><path d="M765.31 347.66C764.8 347.565 764.305 347.4 763.84 347.17 762.75 346.647 761.844 345.807 761.24 344.76 759.542 342.202 760.239 338.751 762.797 337.053 765.355 335.354 768.806 336.051 770.504 338.609 770.611 338.771 770.71 338.938 770.8 339.11 771.422 340.138 771.715 341.331 771.64 342.53 771.61 343.035 771.509 343.533 771.34 344.01L768.79 343.52C768.893 343.196 768.957 342.86 768.98 342.52 769.055 341.798 768.901 341.07 768.54 340.44 767.574 339.142 765.738 338.873 764.44 339.84 763.321 340.673 762.945 342.179 763.54 343.44 763.928 344.061 764.492 344.552 765.16 344.85 765.478 345.01 765.813 345.131 766.16 345.21Z" fill="#414F07" transform="translate(-707.62 -235.42)"/><path d="M773.43 343.88 775.03 346.25 766.32 352.11 764.73 349.75Z" fill="#414F07" transform="translate(-707.62 -235.42)"/><path d="M777.65 349.92 779.56 352.43 773.56 361.94 771.7 359.49 773.04 357.54 771 354.79 768.76 355.55 766.9 353.1ZM774.48 355.53 776.3 353 776.3 352.95 773.3 354.01Z" fill="#414F07" transform="translate(-707.62 -235.42)"/><path d="M730.25 293.05C730.05 293.246 729.872 293.464 729.72 293.7 729.408 294.2 729.255 294.782 729.28 295.37 729.34 296.27 729.81 296.69 730.28 296.65 731.7 296.56 730.77 291.65 734.44 291.41 736.08 291.3 737.75 292.69 737.92 295.16 738.012 296.138 737.817 297.121 737.36 297.99 737.18 298.334 736.948 298.648 736.67 298.92L734.77 297.4C734.914 297.254 735.039 297.089 735.14 296.91 735.386 296.527 735.501 296.074 735.47 295.62 735.42 294.79 735.02 294.45 734.64 294.48 733.22 294.57 734.16 299.48 730.49 299.72 728.7 299.84 727.02 298.39 726.84 295.83 726.744 294.715 726.984 293.597 727.53 292.62 727.741 292.21 728.018 291.839 728.35 291.52Z" fill="#414F07" transform="translate(-707.62 -235.42)"/><path d="M739.13 305.2C739.493 308.244 737.319 311.005 734.276 311.368 731.232 311.73 728.471 309.557 728.108 306.513 727.759 303.587 729.758 300.899 732.66 300.39 735.724 299.894 738.61 301.975 739.106 305.039 739.115 305.093 739.123 305.146 739.13 305.2ZM730.78 306.65C731.053 308.245 732.567 309.317 734.162 309.044 735.757 308.771 736.829 307.256 736.556 305.661 736.283 304.066 734.769 302.995 733.174 303.268 733.169 303.268 733.165 303.269 733.16 303.27 731.584 303.525 730.514 305.009 730.769 306.584 730.772 306.606 730.776 306.628 730.78 306.65Z" fill="#414F07" transform="translate(-707.62 -235.42)"/><path d="M734.44 323.87C733.969 323.643 733.529 323.357 733.13 323.02 732.202 322.239 731.535 321.192 731.22 320.02 730.134 317.148 731.583 313.939 734.455 312.853 737.327 311.767 740.536 313.216 741.622 316.088 741.734 316.384 741.82 316.689 741.88 317 742.243 318.149 742.243 319.381 741.88 320.53 741.723 321.011 741.501 321.469 741.22 321.89L738.87 320.77C739.056 320.484 739.204 320.175 739.31 319.85 739.555 319.169 739.587 318.429 739.4 317.73 738.867 316.202 737.196 315.396 735.668 315.929 734.255 316.423 733.441 317.902 733.78 319.36 734.001 320.059 734.426 320.675 735 321.13 735.266 321.359 735.558 321.557 735.87 321.72Z" fill="#414F07" transform="translate(-707.62 -235.42)"/><path d="M743.27 322.2 744.27 324.87 734.41 328.49 733.41 325.82Z" fill="#414F07" transform="translate(-707.62 -235.42)"/><path d="M745.92 329 747.21 331.88 739.21 339.78 738 337 739.76 335.4 738.35 332.25 735.99 332.48 734.74 329.67ZM741.55 333.74 743.9 331.66 743.9 331.6 740.77 331.96Z" fill="#414F07" transform="translate(-707.62 -235.42)"/><path d="M749.09 335.87 750.44 338.38 743.58 342.09 745.76 346.09 743.38 347.37 739.85 340.84Z" fill="#414F07" transform="translate(-707.62 -235.42)"/></svg>