<svg viewBox="0 0 486.38 486.38" xmlns="http://www.w3.org/2000/svg" xmlns:xlink="http://www.w3.org/1999/xlink" id="Layer_1" overflow="hidden"><defs></defs><circle cx="243.19" cy="243.19" r="243.19" fill="#B3D9F2"/><path d="M208.12 491.75 210.68 492.67 210.95 504.67 208.54 503.81 208.54 501.07 204.47 499.61 202.7 501.69 200.3 500.83ZM208.49 498.75 208.49 494.84 208.43 494.84 205.94 497.84Z" fill="#024363" transform="translate(-35.72 -36.06)"/><path d="M213.19 502.56C213.295 502.777 213.43 502.979 213.59 503.16 213.938 503.57 214.396 503.872 214.91 504.03 215.6 504.24 215.91 504.09 216 503.78 216.26 502.94 212.4 501.89 213.17 499.45 213.55 498.23 214.96 497.5 216.87 498.1 217.639 498.329 218.331 498.765 218.87 499.36 219.09 499.602 219.278 499.871 219.43 500.16L217.8 501.07C217.699 500.908 217.582 500.757 217.45 500.62 217.136 500.296 216.743 500.058 216.31 499.93 215.78 499.76 215.47 499.93 215.4 500.15 215.14 500.99 219 502.04 218.23 504.48 217.83 505.76 216.42 506.48 214.35 505.86 213.508 505.594 212.759 505.095 212.19 504.42 211.942 504.134 211.736 503.814 211.58 503.47Z" fill="#024363" transform="translate(-35.72 -36.06)"/><path d="M224.4 500.33C226.561 500.97 227.793 503.24 227.153 505.401 226.513 507.561 224.243 508.794 222.082 508.154 219.948 507.522 218.714 505.295 219.31 503.15 219.939 500.968 222.216 499.706 224.4 500.33ZM225.24 504.8C225.493 503.725 224.826 502.648 223.751 502.395 222.675 502.143 221.599 502.809 221.346 503.885 221.1 504.93 221.725 505.984 222.76 506.27 223.825 506.564 224.926 505.94 225.221 504.875 225.228 504.85 225.234 504.825 225.24 504.8Z" fill="#024363" transform="translate(-35.72 -36.06)"/><path d="M234.8 509.7C234.504 509.954 234.166 510.154 233.8 510.29 231.735 511.232 229.297 510.32 228.355 508.255 227.414 506.19 228.325 503.752 230.39 502.811 231.233 502.426 232.181 502.338 233.08 502.56 233.952 502.753 234.735 503.227 235.31 503.91 235.565 504.206 235.764 504.544 235.9 504.91L234.27 505.91C234.165 505.698 234.034 505.5 233.88 505.32 233.553 504.931 233.112 504.655 232.62 504.53 231.502 504.254 230.371 504.937 230.095 506.055 229.819 507.173 230.502 508.304 231.62 508.58 232.117 508.686 232.634 508.633 233.1 508.43 233.318 508.341 233.523 508.224 233.71 508.08Z" fill="#024363" transform="translate(-35.72 -36.06)"/><path d="M237.21 503.65 239.32 504.09 237.71 511.76 235.6 511.32ZM238.98 500.51C239.648 500.627 240.095 501.262 239.98 501.93 239.822 502.585 239.169 502.994 238.51 502.85 237.855 502.751 237.403 502.14 237.502 501.485 237.601 500.829 238.212 500.378 238.868 500.477 238.919 500.485 238.97 500.496 239.02 500.51Z" fill="#024363" transform="translate(-35.72 -36.06)"/><path d="M244.05 512 243.97 512C243.762 512.176 243.533 512.327 243.29 512.45 242.733 512.727 242.1 512.811 241.49 512.69 240.263 512.585 239.353 511.505 239.459 510.278 239.465 510.201 239.476 510.125 239.49 510.05 239.755 508.783 240.932 507.92 242.22 508.05L244.74 508.05C244.747 507.393 244.245 506.842 243.59 506.79 243.126 506.697 242.644 506.771 242.23 507 242.037 507.086 241.858 507.201 241.7 507.34L240.7 505.85C240.983 505.609 241.3 505.41 241.64 505.26 242.412 504.893 243.279 504.778 244.12 504.93 245.849 505.125 247.092 506.685 246.897 508.414 246.89 508.476 246.881 508.538 246.87 508.6L245.99 513.4 243.87 513.01ZM244.51 509.48 242.72 509.48C242.15 509.48 241.78 509.71 241.72 510.11 241.66 510.51 241.89 510.95 242.52 511.06 243.409 511.259 244.292 510.7 244.491 509.811 244.504 509.755 244.513 509.697 244.52 509.64Z" fill="#024363" transform="translate(-35.72 -36.06)"/><path d="M255 513.22C254.739 513.491 254.435 513.718 254.1 513.89 252.116 514.958 249.642 514.214 248.574 512.23 247.506 510.246 248.25 507.771 250.234 506.704 251.815 505.854 253.766 506.136 255.04 507.4 255.313 507.665 255.543 507.973 255.72 508.31L254.18 509.46C254.056 509.259 253.909 509.075 253.74 508.91 253.381 508.552 252.92 508.314 252.42 508.23 251.282 508.062 250.223 508.847 250.055 509.985 249.887 511.123 250.672 512.182 251.81 512.35 252.316 512.413 252.829 512.319 253.28 512.08 253.487 511.969 253.679 511.831 253.85 511.67Z" fill="#024363" transform="translate(-35.72 -36.06)"/><path d="M256.85 507 259 507.25 258.07 515.04 255.93 514.78ZM258.34 503.71C258.994 503.817 259.437 504.434 259.33 505.088 259.223 505.742 258.606 506.186 257.952 506.078 257.301 505.972 256.859 505.361 256.96 504.71 257.072 504.054 257.679 503.601 258.34 503.68Z" fill="#024363" transform="translate(-35.72 -36.06)"/><path d="M264.35 507.61C266.59 507.857 268.206 509.872 267.959 512.112 267.713 514.352 265.697 515.968 263.457 515.721 261.249 515.478 259.641 513.513 259.84 511.3 260.054 509.046 262.055 507.392 264.309 507.606 264.323 507.607 264.336 507.609 264.35 507.61ZM265.97 511.85C266.026 510.747 265.177 509.807 264.074 509.751 262.971 509.695 262.031 510.544 261.975 511.647 261.921 512.718 262.721 513.642 263.79 513.74 264.888 513.857 265.874 513.062 265.991 511.964 265.995 511.926 265.998 511.888 266 511.85Z" fill="#024363" transform="translate(-35.72 -36.06)"/><path d="M269.65 508.21 271.81 508.32 271.75 509.44 271.83 509.44C272.014 509.215 272.222 509.01 272.45 508.83 272.953 508.444 273.577 508.249 274.21 508.28 275.861 508.423 277.083 509.877 276.94 511.528 276.935 511.585 276.928 511.643 276.92 511.7L276.69 516.42 274.53 516.31 274.75 511.91C274.877 511.17 274.38 510.467 273.64 510.339 273.557 510.325 273.474 510.319 273.39 510.32 272.475 510.259 271.684 510.952 271.624 511.866 271.621 511.907 271.62 511.949 271.62 511.99L271.41 516.15 269.26 516.04Z" fill="#024363" transform="translate(-35.72 -36.06)"/><path d="M285.69 515.42C285.431 515.669 285.138 515.881 284.82 516.05 284.055 516.471 283.193 516.685 282.32 516.67 280.064 516.782 278.145 515.043 278.033 512.787 277.921 510.531 279.66 508.612 281.916 508.5 282.05 508.493 282.185 508.493 282.32 508.5 284.49 508.527 286.228 510.309 286.2 512.479 286.2 512.486 286.2 512.493 286.2 512.5 286.199 512.731 286.182 512.961 286.15 513.19L286.15 513.46 280.47 513.4C280.751 514.289 281.61 514.866 282.54 514.79 283.087 514.806 283.626 514.659 284.09 514.37 284.291 514.251 284.473 514.103 284.63 513.93ZM284 511.8C283.744 510.828 282.749 510.247 281.777 510.503 281.142 510.67 280.647 511.166 280.48 511.8Z" fill="#024363" transform="translate(-35.72 -36.06)"/><path d="M288 513.86C288.167 514.034 288.359 514.183 288.57 514.3 289.031 514.577 289.563 514.712 290.1 514.69 290.82 514.69 291.1 514.43 291.05 514.11 291.05 513.23 287.05 513.49 286.97 510.93 286.97 509.65 288.04 508.5 290.04 508.46 290.836 508.43 291.625 508.62 292.32 509.01 292.604 509.165 292.866 509.357 293.1 509.58L291.87 511C291.72 510.882 291.559 510.778 291.39 510.69 290.988 510.485 290.541 510.385 290.09 510.4 289.53 510.4 289.3 510.66 289.3 510.9 289.3 511.78 293.3 511.53 293.38 514.09 293.38 515.43 292.32 516.59 290.16 516.64 289.276 516.673 288.403 516.443 287.65 515.98 287.322 515.794 287.025 515.558 286.77 515.28Z" fill="#024363" transform="translate(-35.72 -36.06)"/><path d="M302.07 514.91 302 514.91C301.84 515.133 301.652 515.335 301.44 515.51 300.973 515.92 300.381 516.16 299.76 516.19 298.542 516.369 297.408 515.527 297.229 514.309 297.22 514.249 297.214 514.19 297.21 514.13 297.122 512.819 298.052 511.659 299.35 511.46L301.79 510.84C301.641 510.195 301.011 509.781 300.36 509.9 299.891 509.923 299.445 510.111 299.1 510.43 298.934 510.564 298.789 510.722 298.67 510.9L297.3 509.71C298.022 508.701 299.153 508.064 300.39 507.97 302.12 507.738 303.71 508.952 303.942 510.682 303.949 510.738 303.955 510.794 303.96 510.85L304.3 515.71 302.14 515.87ZM301.89 512.35 300.15 512.8C299.6 512.95 299.3 513.26 299.33 513.66 299.36 514.06 299.71 514.43 300.33 514.39 301.25 514.331 301.949 513.538 301.89 512.617 301.888 512.581 301.885 512.546 301.88 512.51Z" fill="#024363" transform="translate(-35.72 -36.06)"/><path d="M305.4 507.75 307.54 507.52 308.02 511.89C308.015 512.647 308.624 513.264 309.38 513.269 309.461 513.27 309.541 513.263 309.62 513.25 310.538 513.158 311.207 512.339 311.115 511.422 311.111 511.384 311.106 511.347 311.1 511.31L310.64 507.18 312.79 506.95 313.64 514.74 311.5 514.97 311.37 513.86 311.29 513.86C311.147 514.112 310.976 514.347 310.78 514.56 310.343 515.018 309.759 515.309 309.13 515.38 307.478 515.502 306.039 514.261 305.918 512.608 305.913 512.549 305.911 512.49 305.91 512.43Z" fill="#024363" transform="translate(-35.72 -36.06)"/><path d="M315.37 508.76 314 509 313.71 507 314.42 506.9C315.01 506.82 315.25 506.46 315.16 505.83L314.95 504.4 316.86 504.13 317.19 506.5 318.94 506.25 319.22 508.25 317.48 508.5 317.86 511.12C317.851 511.672 318.291 512.127 318.844 512.136 318.909 512.137 318.975 512.132 319.04 512.12 319.249 512.087 319.454 512.03 319.65 511.95 319.736 511.922 319.816 511.882 319.89 511.83L320.18 513.83C320.06 513.9 319.92 513.95 319.78 514.02 319.459 514.146 319.123 514.23 318.78 514.27 317.2 514.5 316.03 513.64 315.78 511.8Z" fill="#024363" transform="translate(-35.72 -36.06)"/><path d="M328.3 511.28C328.088 511.571 327.839 511.833 327.56 512.06 326.883 512.613 326.073 512.978 325.21 513.12 323.031 513.696 320.799 512.396 320.223 510.218 319.648 508.039 320.947 505.806 323.126 505.231 323.321 505.179 323.519 505.142 323.72 505.12 325.849 504.756 327.874 506.175 328.26 508.3 328.297 508.528 328.321 508.759 328.33 508.99L328.33 509.26 322.73 510.26C323.166 511.088 324.117 511.503 325.02 511.26 325.563 511.177 326.068 510.933 326.47 510.56 326.646 510.41 326.795 510.231 326.91 510.03ZM325.94 508C325.513 507.09 324.429 506.699 323.519 507.126 322.934 507.401 322.538 507.966 322.48 508.61ZM323.39 501.79 325.59 501.4 324.28 504.07 322.54 504.38Z" fill="#024363" transform="translate(-35.72 -36.06)"/><path d="M328.76 504.35 330.87 503.89 331.1 504.99 331.18 504.99C331.301 504.726 331.449 504.475 331.62 504.24 332.006 503.733 332.558 503.379 333.18 503.24 334.811 502.946 336.371 504.03 336.664 505.66 336.675 505.717 336.683 505.773 336.69 505.83L337.69 510.44 335.58 510.9 334.64 506.6C334.575 505.857 333.921 505.307 333.178 505.372 333.091 505.38 333.004 505.396 332.92 505.42 332.017 505.608 331.437 506.492 331.625 507.395 331.632 507.43 331.64 507.465 331.65 507.5L332.53 511.56 330.42 512.02Z" fill="#024363" transform="translate(-35.72 -36.06)"/><path d="M338.63 504.34 337.31 504.67 336.82 502.73 337.52 502.56C338.1 502.41 338.3 502.03 338.14 501.41L337.79 500.02 339.65 499.54 340.24 501.87 341.95 501.44 342.43 503.38 340.73 503.81 341.37 506.37C341.434 506.919 341.93 507.312 342.478 507.248 342.54 507.241 342.601 507.228 342.66 507.21 342.863 507.156 343.058 507.075 343.24 506.97 343.325 506.939 343.403 506.892 343.47 506.83L343.96 508.77C343.85 508.85 343.72 508.92 343.59 509 343.272 509.16 342.937 509.281 342.59 509.36 341.04 509.75 339.78 509.01 339.33 507.21Z" fill="#024363" transform="translate(-35.72 -36.06)"/><path d="M343.4 497.31C344.045 497.158 344.691 497.557 344.844 498.202 344.996 498.847 344.597 499.493 343.952 499.646 343.325 499.794 342.693 499.421 342.52 498.8 342.361 498.147 342.751 497.486 343.4 497.31ZM343.27 500.92 345.35 500.34 347.43 507.9 345.34 508.48Z" fill="#024363" transform="translate(-35.72 -36.06)"/><path d="M355.48 504C355.362 504.361 355.183 504.7 354.95 505 354.419 505.718 353.667 506.241 352.81 506.49 350.647 507.12 348.382 505.877 347.752 503.714 347.122 501.55 348.365 499.286 350.528 498.656 351.352 498.415 352.231 498.442 353.04 498.73 353.401 498.848 353.74 499.027 354.04 499.26L353.14 500.96C352.944 500.831 352.732 500.727 352.51 500.65 352.027 500.486 351.503 500.486 351.02 500.65 349.915 500.984 349.291 502.15 349.625 503.255 349.959 504.36 351.125 504.984 352.23 504.65 352.71 504.491 353.129 504.187 353.43 503.78 353.576 503.593 353.697 503.388 353.79 503.17Z" fill="#024363" transform="translate(-35.72 -36.06)"/><path d="M360.89 502.67 360.82 502.67C360.726 502.926 360.598 503.168 360.44 503.39 360.093 503.908 359.582 504.295 358.99 504.49 357.86 504.979 356.547 504.459 356.058 503.328 356.033 503.27 356.01 503.21 355.99 503.15 355.568 501.907 356.168 500.547 357.37 500.02L359.56 498.79C359.25 498.208 358.538 497.97 357.94 498.25 357.495 498.4 357.114 498.696 356.86 499.09 356.739 499.265 356.638 499.452 356.56 499.65L354.94 498.86C355.065 498.504 355.24 498.167 355.46 497.86 355.961 497.17 356.658 496.648 357.46 496.36 359.064 495.687 360.91 496.442 361.583 498.047 361.607 498.104 361.629 498.162 361.65 498.22L363.24 502.83 361.19 503.53ZM360.06 500.25 358.5 501.12C358.01 501.41 357.8 501.78 357.93 502.12 358.06 502.46 358.49 502.78 359.09 502.57 359.958 502.276 360.424 501.333 360.13 500.465 360.118 500.43 360.104 500.395 360.09 500.36Z" fill="#024363" transform="translate(-35.72 -36.06)"/><path d="M364.55 499.57C364.764 499.679 364.993 499.753 365.23 499.79 365.759 499.897 366.308 499.849 366.81 499.65 367.48 499.4 367.62 499.09 367.5 498.79 367.19 497.96 363.5 499.54 362.6 497.15 362.14 495.95 362.79 494.51 364.6 493.8 365.343 493.507 366.152 493.42 366.94 493.55 367.26 493.604 367.573 493.698 367.87 493.83L367.16 495.56C366.983 495.493 366.798 495.45 366.61 495.43 366.164 495.363 365.708 495.418 365.29 495.59 364.77 495.79 364.63 496.1 364.71 496.32 365.03 497.14 368.71 495.57 369.62 497.96 370.1 499.21 369.46 500.67 367.44 501.44 366.616 501.763 365.716 501.84 364.85 501.66 364.48 501.595 364.123 501.473 363.79 501.3Z" fill="#024363" transform="translate(-35.72 -36.06)"/><path d="M174.75 70.36 183 66.14 184.15 68.39 178.3 71.39 179.65 74 184.22 71.67 185.36 73.91 180.8 76.24 182.89 80.33 180.48 81.56Z" fill="#024363" transform="translate(-35.72 -36.06)"/><path d="M187.14 64.26 189.94 63.01 199.53 72.52 196.9 73.7 194.73 71.51 190.3 73.51 190.49 76.58 187.86 77.76ZM192.92 69.66 189.86 66.49 189.79 66.49 190.12 70.88Z" fill="#024363" transform="translate(-35.72 -36.06)"/><path d="M196.14 60.28 198.42 59.44 204.34 63 206.53 56.44 208.81 55.6 213.16 67.42 210.63 68.35 207.77 60.58 205.71 66.71 200.16 63.38 203 71.17 200.47 72.11Z" fill="#024363" transform="translate(-35.72 -36.06)"/><path d="M212 54.7 214.57 53.9 218.31 65.9 215.73 66.69Z" fill="#024363" transform="translate(-35.72 -36.06)"/><path d="M217.55 53 220.16 52.3 222.79 62 228.44 60.47 229.1 62.91 220.84 65.14Z" fill="#024363" transform="translate(-35.72 -36.06)"/><path d="M227.65 50.35 230.28 49.75 233.11 62 230.48 62.61Z" fill="#024363" transform="translate(-35.72 -36.06)"/><path d="M236.66 48.41 239.66 47.85 246.75 59.34 243.92 59.86 242.33 57.23 237.55 58.13 237.02 61.13 234.19 61.66ZM241 55 238.77 51.21 238.7 51.21 238 55.57Z" fill="#024363" transform="translate(-35.72 -36.06)"/><path d="M247.93 55.69C248.187 55.9217 248.477 56.1138 248.79 56.26 249.487 56.6137 250.276 56.7463 251.05 56.64 252.48 56.45 253.05 55.74 252.92 54.94 252.64 52.81 246.52 54.59 245.92 50.23 245.66 48.23 247.13 46.35 249.99 45.97 251.096 45.8179 252.223 45.97 253.25 46.41 253.662 46.5988 254.051 46.8336 254.41 47.11L252.86 49.11C252.642 48.9371 252.408 48.7864 252.16 48.66 251.617 48.3844 251.004 48.2765 250.4 48.35 249.04 48.53 248.59 49.13 248.69 49.84 248.97 51.97 255.09 50.2 255.69 54.56 255.96 56.61 254.41 58.63 251.46 59.02 250.187 59.2088 248.886 59.032 247.71 58.51 247.224 58.312 246.775 58.0349 246.38 57.69Z" fill="#024363" transform="translate(-35.72 -36.06)"/><path d="M263.83 44.69 266.07 44.52 261.93 61.43 259.68 61.6Z" fill="#024363" transform="translate(-35.72 -36.06)"/><path d="M282.72 54.65C281.424 56.2925 279.442 57.2446 277.35 57.23 273.724 57.4674 270.592 54.7201 270.354 51.0938 270.117 47.4675 272.864 44.3355 276.49 44.0981 276.727 44.0826 276.964 44.0799 277.2 44.09 278.628 44.0678 280.027 44.4945 281.2 45.31 281.705 45.6596 282.159 46.0769 282.55 46.55L280.77 48.37C280.498 48.0362 280.185 47.7373 279.84 47.48 279.092 46.9128 278.179 46.6071 277.24 46.61 275.003 46.6349 273.21 48.4682 273.235 50.705 273.26 52.9418 275.093 54.7349 277.33 54.71 278.3 54.6949 279.239 54.3689 280.01 53.78 280.354 53.5232 280.657 53.2164 280.91 52.87Z" fill="#024363" transform="translate(-35.72 -36.06)"/><path d="M284.62 44.36 287.32 44.5 287 51.87C286.818 53.4056 287.915 54.7983 289.45 54.9807 290.986 55.1631 292.378 54.0662 292.561 52.5306 292.576 52.4043 292.582 52.2771 292.58 52.15L292.94 44.78 295.64 44.91 295.27 52.28C295.121 55.3176 292.538 57.6591 289.5 57.51 286.462 57.3609 284.121 54.7776 284.27 51.74Z" fill="#024363" transform="translate(-35.72 -36.06)"/><path d="M298.72 45.24 301.4 45.5 300.21 58 297.52 57.75Z" fill="#024363" transform="translate(-35.72 -36.06)"/><path d="M304.62 45.79 309.17 46.43C312.642 46.7295 315.214 49.7869 314.914 53.2589 314.615 56.731 311.557 59.3028 308.085 59.0033 307.862 58.984 307.64 58.9529 307.42 58.91L302.87 58.27ZM307.77 56.42C309.838 56.7099 311.75 55.2683 312.04 53.2 312.33 51.1317 310.888 49.2199 308.82 48.93L307 48.66 305.94 56.15Z" fill="#024363" transform="translate(-35.72 -36.06)"/><path d="M321.19 48.42 324.19 49.03 326.47 62.34 323.64 61.77 323.15 58.77 318.39 57.77 316.76 60.38 313.94 59.82ZM322.75 56.17 322.1 51.82 322 51.82 319.72 55.58Z" fill="#024363" transform="translate(-35.72 -36.06)"/><path d="M330.76 50.44 335.2 51.62C338.621 52.2847 340.855 55.5968 340.191 59.0177 339.526 62.4387 336.214 64.673 332.793 64.0083 332.524 63.9561 332.259 63.8865 332 63.8L327.56 62.62ZM332.6 61.37C334.619 61.9085 336.692 60.7086 337.23 58.69 337.768 56.6714 336.569 54.5985 334.55 54.06L332.72 53.57 330.78 60.88Z" fill="#024363" transform="translate(-35.72 -36.06)"/><path d="M349.93 55.76C353.323 57.0626 355.017 60.8689 353.714 64.2614 352.411 67.6539 348.605 69.3481 345.213 68.0455 341.904 66.7749 340.196 63.1114 341.35 59.76 342.598 56.294 346.419 54.4958 349.885 55.7436 349.9 55.749 349.915 55.7545 349.93 55.76ZM346.53 65.82C348.63 66.5065 350.888 65.3609 351.575 63.2612 352.262 61.1614 351.116 58.9027 349.016 58.2161 346.95 57.5404 344.722 58.6392 344 60.69 343.267 62.7738 344.361 65.0577 346.445 65.7912 346.473 65.8011 346.502 65.8107 346.53 65.82Z" fill="#024363" transform="translate(-35.72 -36.06)"/><path d="M358.72 59.18 363.88 61.3C366.02 61.9684 367.214 64.2453 366.545 66.3856 366.491 66.5579 366.426 66.7264 366.35 66.89 365.985 67.9126 365.22 68.7429 364.23 69.19 363.829 69.3766 363.392 69.4755 362.95 69.48L363.58 74.8 360.83 73.67 360.33 68.99 358 68 356.42 71.82 353.93 70.82ZM361.54 66.76C362.428 67.0822 363.409 66.6236 363.731 65.7359 364.034 64.9006 363.647 63.9724 362.84 63.6L360.26 62.54 359 65.7Z" fill="#024363" transform="translate(-35.72 -36.06)"/><path d="M370.49 64.13 378.93 68.13 377.84 70.41 371.84 67.53 370.78 69.72 375.49 72 374.44 74.2 369.73 72 368.57 74.44 374.74 77.44 373.65 79.71 365.05 75.59Z" fill="#024363" transform="translate(-35.72 -36.06)"/><path d="M377.44 77.67C377.509 78.0181 377.627 78.3548 377.79 78.67 378.155 79.3624 378.714 79.9326 379.4 80.31 380.67 80.99 381.52 80.74 381.91 80.03 382.91 78.15 376.91 75.97 379.04 72.12 379.99 70.37 382.31 69.69 384.84 71.12 385.826 71.6417 386.646 72.4278 387.21 73.39 387.439 73.7823 387.617 74.2024 387.74 74.64L385.3 75.36C385.225 75.0942 385.125 74.8363 385 74.59 384.724 74.0438 384.293 73.5914 383.76 73.29 382.56 72.64 381.84 72.87 381.5 73.5 380.5 75.38 386.5 77.5 384.36 81.42 383.36 83.23 380.93 83.96 378.36 82.53 377.22 81.9345 376.27 81.03 375.62 79.92 375.346 79.4729 375.15 78.9826 375.04 78.47Z" fill="#024363" transform="translate(-35.72 -36.06)"/></svg>