<svg viewBox="0 0 446.68 234.73" xmlns="http://www.w3.org/2000/svg" xmlns:xlink="http://www.w3.org/1999/xlink" id="Capa_1" overflow="hidden"><style>
.MsftOfcResponsive_Fill_01a74d {
 fill:#01A74D; 
}
</style>
<defs></defs><path d="M2272.6 644.75C2271.83 650.17 2271.42 654.97 2270.42 659.65 2268.32 669.38 2265.42 678.97 2263.75 688.77 2262.33 697.06 2259.64 705.12 2259.29 713.63 2259.19 716.15 2257.29 718.54 2256.82 721.1 2255.26 729.65 2253.63 738.22 2252.7 746.85 2252.06 752.72 2249.04 757.85 2248.45 763.68 2247.52 772.8 2247.18 773.07 2256.2 775.48 2266.05 778.11 2275.69 781.33 2285.39 784.43 2294.5 787.35 2303.89 789.43 2313 792.43 2323.2 795.8 2333.78 797.93 2343.8 801.97 2347.42 803.43 2351.45 803.79 2355.25 805.11 2362.71 807.71 2370.48 809.41 2378.11 811.51 2379.11 811.79 2380.75 811.17 2381.02 812.73 2381.26 814.06 2379.89 814.63 2378.97 815.28 2370.47 821.138 2361.5 826.282 2352.15 830.66 2341.58 835.78 2331.32 841.87 2320.27 845.66 2310.41 849.01 2300.86 853.17 2290.92 856.31 2266.58 864.101 2241.72 870.133 2216.52 874.36 2169.67 882.02 2122.95 880.84 2076.36 872.64 2053.74 868.643 2031.47 862.872 2009.76 855.38 1997.76 851.26 1985.99 846.84 1974.32 842 1968.53 839.6 1965.02 837 1963.87 829.64 1961.4 813.78 1957.07 798.19 1953.34 782.53 1947.28 757.117 1941.15 731.717 1934.95 706.33 1933.95 702.41 1933.55 699.9 1939.31 699.69 1943.91 699.52 1948.44 697.17 1952.96 695.69 1983.37 685.53 2013.81 675.5 2044.12 665.05 2053.74 661.74 2062.28 661.11 2072.45 664.92 2091.53 671.996 2111.53 676.267 2131.83 677.6 2166.7 680.02 2200.59 675.9 2233.32 663.18 2246.83 657.962 2259.95 651.803 2272.6 644.75Z" class="MsftOfcResponsive_Fill_01a74d" fill="#01A74D" transform="translate(-1934.37 -644.75)"/></svg>