<svg viewBox="0 0 321.62 372.08" xmlns="http://www.w3.org/2000/svg" xmlns:xlink="http://www.w3.org/1999/xlink" id="Capa_1" overflow="hidden"><style>
.MsftOfcResponsive_Fill_01a74d {
 fill:#01A74D; 
}
</style>
<defs></defs><path d="M1713.56 441.28C1714.79 422.68 1715.26 403.98 1717.56 385.51 1718.7 376.44 1719.56 367.13 1722.56 358.16 1724.88 351.16 1725.32 343.58 1727.06 336.29 1731.72 317.05 1737.82 298.189 1745.32 279.87 1760.97 241.426 1781.83 205.317 1807.32 172.56 1828.8 145.121 1853.56 120.417 1881.05 99 1886.67 94.57 1892.45 90.34 1898.14 86 1899.71 84.81 1900.83 84.48 1903.26 85.15 1929.82 92.49 1955.94 101.25 1982.36 109.04 1997.2 113.41 2011.95 118.04 2026.63 122.97 2029.35 123.87 2033.42 122.9 2034.63 125.89 2035.63 128.54 2033.43 131.59 2032.81 134.5 2027.81 158.1 2022.73 181.68 2017.87 205.31 2015.19 218.31 2012.36 231.31 2010.47 244.45 2009.25 252.99 2003.61 258.88 1996.75 264.55 1981.06 277.55 1967.93 293.02 1956.26 309.78 1929.04 349.142 1914.89 396.072 1915.83 443.92 1915.83 444.85 1916.38 446.16 1914.92 446.26 1913.46 446.36 1911.78 446.58 1910.7 445.34 1900.18 433.23 1887.06 423.93 1875.63 412.82 1858.3 395.97 1839.08 381.24 1821.84 364.31 1818.56 361.08 1816.19 362.18 1813.41 364.84 1789.35 387.84 1764.47 410.06 1740.69 433.39 1733.09 440.85 1725.04 447.85 1717.17 455.03 1716.35 455.78 1715.63 457.25 1714.4 456.81 1712.86 456.26 1713.4 454.56 1713.34 453.29 1713.34 449.29 1713.34 445.29 1713.34 441.29Z" class="MsftOfcResponsive_Fill_01a74d" fill="#01A74D" transform="translate(-1713.23 -84.79)"/></svg>