<svg viewBox="0 0 181.56 85.14" xmlns="http://www.w3.org/2000/svg" xmlns:xlink="http://www.w3.org/1999/xlink" id="Layer_1" overflow="hidden"><defs></defs><g id="_05"><path d="M918.11 354.52C888.104 374.739 848.926 375.094 818.56 355.42L778.07 412.22C833.068 449.393 905.308 448.745 959.63 410.59Z" fill="#91BA3E" transform="translate(-778.07 -354.52)"/></g><path d="M820.26 373.28 822.88 374.41 821.36 377.92 824.87 379.44 826.39 375.92 829 377.05 824.84 386.69 822.23 385.56 823.8 381.91 820.29 380.4 818.72 384.05 816.1 382.92Z" fill="#414F07" transform="translate(-778.07 -354.52)"/><path d="M833.11 378.41 836.11 379.36 836.76 390.56 833.83 389.64 833.83 387.27 830.54 386.27 829.15 388.2 826.21 387.27ZM833.77 384.83 833.77 381.68 833.77 381.68 831.97 384.26Z" fill="#414F07" transform="translate(-778.07 -354.52)"/><path d="M840.28 380.56 844.83 381.5C847.18 381.98 848.17 383.5 847.83 384.96 847.721 385.624 847.301 386.196 846.7 386.5 846.437 386.645 846.148 386.737 845.85 386.77 846.195 386.973 846.506 387.229 846.77 387.53 847.321 388.135 847.548 388.969 847.38 389.77 847.06 391.31 845.46 392.36 843.04 391.86L838.12 390.86ZM843.28 389.61C843.849 389.729 844.406 389.364 844.525 388.795 844.644 388.226 844.279 387.669 843.71 387.55L841.8 387.16 841.37 389.22ZM843.76 385.42C844.242 385.542 844.731 385.251 844.854 384.769 844.976 384.287 844.684 383.797 844.203 383.675 844.179 383.669 844.154 383.664 844.13 383.66L842.59 383.34 842.22 385.1Z" fill="#414F07" transform="translate(-778.07 -354.52)"/><path d="M850 382.41 852.82 382.78 851.45 393.19 848.63 392.82Z" fill="#414F07" transform="translate(-778.07 -354.52)"/><path d="M854.61 383 857.45 383.19 856.93 390.97 861.5 391.28 861.32 393.97 853.91 393.48Z" fill="#414F07" transform="translate(-778.07 -354.52)"/><path d="M862.91 383.45 865.76 383.45 865.76 393.95 862.91 393.95Z" fill="#414F07" transform="translate(-778.07 -354.52)"/><path d="M867.5 383.5 871.39 383.23C874.76 382.99 877.24 385.15 877.45 388.07 877.66 390.99 875.45 393.47 872.13 393.71L868.23 393.98ZM871.95 391.16C873.438 391.055 874.56 389.763 874.455 388.275 874.35 386.787 873.058 385.665 871.57 385.77L870.52 385.85 870.9 391.23Z" fill="#414F07" transform="translate(-778.07 -354.52)"/><path d="M880.5 382.27 883.61 381.77 889.22 391.49 886.22 391.99 885.12 389.89 881.72 390.44 881.34 392.78 878.34 393.27ZM883.97 387.71 882.56 384.9 882.5 384.9 882.05 388.01Z" fill="#414F07" transform="translate(-778.07 -354.52)"/><path d="M887.91 381 891.69 380C894.96 379.17 897.78 380.85 898.5 383.68 899.22 386.51 897.5 389.34 894.28 390.17L890.5 391.17ZM893.65 387.74C895.102 387.399 896.002 385.945 895.66 384.494 895.319 383.042 893.865 382.142 892.414 382.483 892.379 382.492 892.344 382.5 892.31 382.51L891.31 382.77 892.64 388Z" fill="#414F07" transform="translate(-778.07 -354.52)"/><path d="M898.28 378.26 905.88 375.68 906.7 378.09 901.8 379.76 902.28 381.18 906.05 379.9 906.82 382.17 903.06 383.45 903.54 384.87 908.54 383.15 909.36 385.57 901.62 388.2Z" fill="#414F07" transform="translate(-778.07 -354.52)"/><path d="M910.63 381.51C910.883 381.632 911.148 381.729 911.42 381.8 911.992 381.936 912.592 381.894 913.14 381.68 913.97 381.33 914.22 380.76 914.04 380.33 913.49 379.01 909.15 381.48 907.74 378.08 907.1 376.56 907.88 374.53 910.17 373.57 911.069 373.177 912.06 373.045 913.03 373.19 913.414 373.255 913.788 373.373 914.14 373.54L913.31 375.84C913.122 375.751 912.924 375.687 912.72 375.65 912.283 375.529 911.817 375.561 911.4 375.74 910.62 376.07 910.4 376.55 910.58 376.9 911.13 378.21 915.47 375.75 916.88 379.15 917.57 380.81 916.74 382.86 914.37 383.85 913.343 384.303 912.205 384.439 911.1 384.24 910.648 384.162 910.21 384.017 909.8 383.81Z" fill="#414F07" transform="translate(-778.07 -354.52)"/><path d="M848.24 400.09 852.93 400.67C854.955 400.846 856.453 402.63 856.277 404.655 856.101 406.68 854.317 408.179 852.292 408.002 852.204 407.995 852.117 407.984 852.03 407.97L850.17 407.74 849.78 410.87 846.95 410.52ZM852.24 405.42C852.879 405.514 853.474 405.072 853.568 404.433 853.569 404.429 853.569 404.424 853.57 404.42 853.629 403.8 853.188 403.243 852.57 403.16L850.86 402.94 850.58 405.18Z" fill="#414F07" transform="translate(-778.07 -354.52)"/><path d="M859.7 401.23 862.85 401.34 866.47 412 863.4 411.89 862.72 409.62 859.27 409.51 858.45 411.73 855.37 411.63ZM862.05 407.23 861.2 404.23 861.14 404.23 860.14 407.23Z" fill="#414F07" transform="translate(-778.07 -354.52)"/><path d="M867.19 401.39 872.13 401.08C874.105 400.855 875.889 402.274 876.114 404.25 876.121 404.31 876.126 404.37 876.13 404.43 876.224 405.296 875.952 406.162 875.38 406.82 875.144 407.109 874.856 407.35 874.53 407.53L876.95 411.29 873.95 411.48 872.02 408.3 870.45 408.4 870.66 411.69 867.82 411.87ZM872.27 405.73C872.85 405.694 873.291 405.195 873.255 404.615 873.219 404.035 872.72 403.594 872.14 403.63L870.19 403.75 870.33 405.85Z" fill="#414F07" transform="translate(-778.07 -354.52)"/><path d="M879.83 400.26 882.94 399.78 888.49 409.54 885.49 410.01 884.41 407.9 881 408.44 880.6 410.78 877.6 411.25ZM883.27 405.72 881.87 402.91 881.81 402.91 881.34 406.02Z" fill="#414F07" transform="translate(-778.07 -354.52)"/><path d="M812.89 402.46 817.27 404.78C819.092 405.617 819.889 407.773 819.052 409.594 819.023 409.657 818.992 409.719 818.96 409.78 818.576 410.563 817.89 411.155 817.06 411.42 816.707 411.544 816.334 411.598 815.96 411.58L816.05 416.05 813.4 414.64 813.4 410.92 812 410.18 810.45 413.09 808 411.73ZM814.95 408.82C815.4 409.14 816.024 409.035 816.345 408.585 816.382 408.533 816.414 408.478 816.44 408.42 816.713 407.902 816.515 407.261 815.997 406.988 815.978 406.978 815.959 406.969 815.94 406.96L814.22 406.05 813.22 407.9Z" fill="#414F07" transform="translate(-778.07 -354.52)"/><path d="M821.79 407.09 829.19 410.21 828.19 412.56 823.43 410.56 822.84 411.94 826.51 413.49 825.57 415.7 821.91 414.15 821.33 415.53 826.23 417.6 825.23 419.95 817.7 416.77Z" fill="#414F07" transform="translate(-778.07 -354.52)"/><path d="M830.35 410.6 833.06 411.48 830.66 418.9 835.01 420.31 834.17 422.88 827.11 420.59Z" fill="#414F07" transform="translate(-778.07 -354.52)"/><path d="M840.79 413.7 843.86 414.39 845.43 425.51 842.43 424.83 842.19 422.47 838.83 421.71 837.6 423.71 834.6 423.03ZM842 420 841.74 416.87 841.68 416.87 840.1 419.59Z" fill="#414F07" transform="translate(-778.07 -354.52)"/><path d="M856.52 425.12C856.128 425.463 855.695 425.755 855.23 425.99 854.15 426.535 852.93 426.741 851.73 426.58 848.662 426.464 846.268 423.882 846.384 420.814 846.5 417.745 849.082 415.352 852.15 415.468 852.459 415.48 852.767 415.517 853.07 415.58 854.264 415.71 855.389 416.206 856.29 417 856.673 417.329 857.01 417.71 857.29 418.13L855.34 419.86C855.146 419.579 854.918 419.324 854.66 419.1 854.135 418.603 853.467 418.284 852.75 418.19 851.148 417.997 849.693 419.138 849.5 420.74 849.307 422.342 850.448 423.797 852.05 423.99 852.776 424.062 853.508 423.916 854.15 423.57 854.453 423.411 854.738 423.22 855 423Z" fill="#414F07" transform="translate(-778.07 -354.52)"/><path d="M858.4 416.33 861.25 416.45 860.77 426.94 857.93 426.81Z" fill="#414F07" transform="translate(-778.07 -354.52)"/><path d="M868.19 416.13C871.26 416.176 873.712 418.702 873.666 421.773 873.62 424.843 871.094 427.295 868.023 427.249 865.06 427.204 862.652 424.843 862.55 421.88 862.478 418.777 864.935 416.203 868.039 416.131 868.089 416.13 868.14 416.13 868.19 416.13ZM868.5 424.59C870.112 424.545 871.382 423.201 871.337 421.589 871.292 419.977 869.948 418.707 868.336 418.752 866.724 418.798 865.454 420.141 865.499 421.753 865.499 421.762 865.5 421.771 865.5 421.78 865.549 423.381 866.886 424.639 868.487 424.59 868.491 424.59 868.496 424.59 868.5 424.59Z" fill="#414F07" transform="translate(-778.07 -354.52)"/><path d="M875 416.07 877.45 415.71 882.73 420.79 881.91 415.07 884.73 414.66 886.23 425.06 883.78 425.41 878.5 420.34 879.33 426.05 876.5 426.46Z" fill="#414F07" transform="translate(-778.07 -354.52)"/><path d="M889 413.69 892.06 412.95 898.37 422.23 895.37 422.95 894.12 420.95 890.77 421.76 890.56 424.12 887.56 424.84ZM892.86 418.85 891.24 416.15 891.18 416.15 890.96 419.29Z" fill="#414F07" transform="translate(-778.07 -354.52)"/><path d="M896.36 411.84 901.06 410.29C902.928 409.562 905.032 410.487 905.76 412.355 905.781 412.409 905.801 412.464 905.82 412.52 906.124 413.338 906.081 414.245 905.7 415.03 905.536 415.367 905.316 415.675 905.05 415.94L908.33 418.94 905.48 419.88 902.81 417.28 901.31 417.77 902.31 420.91 899.6 421.8ZM902.36 414.76C902.912 414.581 903.214 413.987 903.035 413.435 902.855 412.883 902.262 412.581 901.71 412.76L899.85 413.37 900.51 415.37Z" fill="#414F07" transform="translate(-778.07 -354.52)"/><path d="M909.4 415C909.647 415.131 909.909 415.232 910.18 415.3 910.754 415.445 911.359 415.407 911.91 415.19 912.74 414.85 912.99 414.28 912.82 413.85 912.28 412.53 907.92 414.95 906.54 411.55 905.91 410.02 906.71 408 909 407.06 909.904 406.673 910.899 406.552 911.87 406.71 912.254 406.769 912.625 406.891 912.97 407.07L912.12 409.36C911.937 409.267 911.742 409.199 911.54 409.16 911.1 409.039 910.632 409.067 910.21 409.24 909.44 409.56 909.21 410.04 909.39 410.39 909.92 411.71 914.28 409.29 915.67 412.69 916.35 414.36 915.49 416.41 913.12 417.37 912.092 417.821 910.951 417.946 909.85 417.73 909.396 417.655 908.957 417.506 908.55 417.29Z" fill="#414F07" transform="translate(-778.07 -354.52)"/><path d="M913.79 405.36 921 401.84 922.12 404.13 917.47 406.4 918.12 407.75 921.7 406 922.7 408.15 919.13 409.9 919.78 411.24 924.57 408.91 925.69 411.2 918.34 414.79Z" fill="#414F07" transform="translate(-778.07 -354.52)"/></svg>