<svg viewBox="0 0 432.77 432.77" xmlns="http://www.w3.org/2000/svg" xmlns:xlink="http://www.w3.org/1999/xlink" id="Layer_1" overflow="hidden"><defs></defs><circle cx="216.38" cy="216.38" r="216.38" fill="#62ABDB"/><path d="M143 428.6C142.455 428.636 141.907 428.602 141.37 428.5 140.11 428.235 138.961 427.589 138.08 426.65 135.753 424.416 135.678 420.719 137.911 418.393 140.145 416.066 143.842 415.991 146.169 418.224 146.31 418.359 146.443 418.501 146.57 418.65 147.446 419.565 148.009 420.735 148.18 421.99 148.255 422.527 148.255 423.073 148.18 423.61L145.92 423.55C145.965 423.171 145.965 422.789 145.92 422.41 145.841 421.577 145.49 420.793 144.92 420.18 143.553 418.736 141.274 418.673 139.83 420.04 138.386 421.407 138.323 423.686 139.69 425.13 140.567 426.025 141.802 426.477 143.05 426.36Z" fill="#024363" transform="translate(-62.53 -62.87)"/><path d="M147.81 425.1 149.38 426.59 146.38 429.78C145.803 430.261 145.725 431.118 146.205 431.695 146.258 431.759 146.317 431.817 146.38 431.87 147.034 432.513 148.085 432.504 148.728 431.85 148.756 431.821 148.784 431.791 148.81 431.76L151.68 428.76 153.24 430.25 147.83 435.93 146.27 434.44 147.04 433.63 146.98 433.57C146.697 433.625 146.408 433.645 146.12 433.63 145.485 433.594 144.883 433.335 144.42 432.9 143.263 431.714 143.286 429.815 144.472 428.658 144.514 428.617 144.556 428.578 144.6 428.54Z" fill="#024363" transform="translate(-62.53 -62.87)"/><path d="M156.74 428.86 158.36 430.3 150.9 438.67 149.29 437.23Z" fill="#024363" transform="translate(-62.53 -62.87)"/><path d="M156.53 436 155.53 435.13 156.82 433.6 157.37 434.06C157.679 434.383 158.192 434.395 158.515 434.086 158.572 434.031 158.621 433.969 158.66 433.9L159.59 432.8 161.06 434.04 159.51 435.87 160.85 437.01 159.56 438.53 158.22 437.4 156.51 439.4C156.104 439.774 156.078 440.407 156.452 440.813 156.491 440.856 156.534 440.895 156.58 440.93 156.74 441.068 156.918 441.183 157.11 441.27 157.19 441.313 157.274 441.35 157.36 441.38L156 442.94C155.864 442.89 155.73 442.833 155.6 442.77 155.29 442.617 155.001 442.426 154.74 442.2 153.52 441.2 153.39 439.71 154.59 438.3Z" fill="#024363" transform="translate(-62.53 -62.87)"/><path d="M161.86 437.71 163.56 439.04 160.85 442.51C160.322 443.044 160.326 443.905 160.86 444.433 160.918 444.491 160.982 444.544 161.05 444.59 161.763 445.166 162.808 445.055 163.384 444.341 163.411 444.309 163.436 444.275 163.46 444.24L166 441 167.7 442.33 162.88 448.51 161.17 447.18 161.86 446.3 161.8 446.25C161.519 446.327 161.231 446.374 160.94 446.39 160.307 446.409 159.686 446.212 159.18 445.83 157.911 444.765 157.746 442.872 158.811 441.603 158.849 441.558 158.889 441.513 158.93 441.47Z" fill="#024363" transform="translate(-62.53 -62.87)"/><path d="M169.07 443.25 170.82 444.52 170.17 445.43 170.23 445.43C170.505 445.339 170.791 445.282 171.08 445.26 171.713 445.204 172.345 445.378 172.86 445.75L172.99 445.84 171.64 447.72 171.51 447.6C171.383 447.469 171.246 447.349 171.1 447.24 170.249 446.645 169.077 446.853 168.482 447.704 168.449 447.751 168.418 447.8 168.39 447.85L166.24 450.85 164.49 449.58Z" fill="#024363" transform="translate(-62.53 -62.87)"/><path d="M173.52 454.71 173.45 454.71C172.591 454.982 171.654 454.854 170.9 454.36 169.828 453.766 169.44 452.415 170.034 451.342 170.067 451.283 170.102 451.226 170.14 451.17 170.872 450.085 172.31 449.734 173.46 450.36L175.77 451.36C176.043 450.759 175.802 450.05 175.22 449.74 174.828 449.479 174.359 449.359 173.89 449.4 173.677 449.407 173.465 449.441 173.26 449.5L172.91 447.73C174.093 447.368 175.376 447.551 176.41 448.23 177.918 449.086 178.446 451.003 177.59 452.511 177.555 452.572 177.519 452.632 177.48 452.69L174.78 456.75 172.98 455.56ZM174.93 452.58 173.29 451.87C172.76 451.65 172.34 451.72 172.11 452.05 171.88 452.38 171.94 452.89 172.47 453.25 173.228 453.766 174.261 453.569 174.776 452.811 174.799 452.778 174.82 452.745 174.84 452.71Z" fill="#024363" transform="translate(-62.53 -62.87)"/><path d="M178 455.89 179 457.74 175.28 459.48 174.57 458.19Z" fill="#024363" transform="translate(-62.53 -62.87)"/><path d="M186 454.38 187.89 455.43 187.34 456.43 187.41 456.43C187.678 456.3 187.965 456.213 188.26 456.17 188.928 456.065 189.611 456.188 190.2 456.52 192.03 457.873 192.417 460.452 191.064 462.282 189.945 463.795 187.943 464.358 186.2 463.65 185.607 463.323 185.141 462.805 184.88 462.18 184.761 461.91 184.683 461.623 184.65 461.33L184.58 461.33 182.41 465.25 180.52 464.2ZM189.41 460.76C189.91 459.775 189.517 458.571 188.532 458.071 187.547 457.571 186.343 457.964 185.843 458.949 185.357 459.906 185.714 461.076 186.65 461.6 187.619 462.131 188.834 461.776 189.365 460.807 189.374 460.792 189.382 460.776 189.39 460.76Z" fill="#024363" transform="translate(-62.53 -62.87)"/><path d="M194.23 458.87 196.16 459.87 195.66 460.87 195.73 460.87C195.992 460.74 196.267 460.64 196.55 460.57 197.164 460.416 197.814 460.487 198.38 460.77L198.52 460.84 197.52 462.92 197.38 462.81C197.23 462.703 197.073 462.606 196.91 462.52 195.978 462.062 194.852 462.445 194.393 463.377 194.37 463.424 194.349 463.471 194.33 463.52L192.68 466.81 190.75 465.81Z" fill="#024363" transform="translate(-62.53 -62.87)"/><path d="M200.41 469.5 200.34 469.5C200.095 469.62 199.836 469.71 199.57 469.77 198.96 469.899 198.324 469.825 197.76 469.56 196.609 469.122 196.031 467.834 196.469 466.683 196.485 466.641 196.502 466.6 196.52 466.56 197.073 465.374 198.437 464.803 199.67 465.24L202.11 465.87C202.283 465.234 201.933 464.574 201.31 464.36 200.883 464.156 200.398 464.11 199.94 464.23 199.732 464.266 199.531 464.33 199.34 464.42L198.71 462.73C199.043 462.562 199.401 462.447 199.77 462.39 200.607 462.226 201.474 462.327 202.25 462.68 203.877 463.297 204.696 465.115 204.079 466.742 204.058 466.799 204.035 466.855 204.01 466.91L202.01 471.35 200.01 470.45ZM201.48 467.17 199.75 466.73C199.19 466.6 198.75 466.73 198.61 467.09 198.47 467.45 198.61 467.95 199.15 468.22 199.986 468.61 200.979 468.249 201.37 467.413 201.384 467.383 201.398 467.352 201.41 467.32ZM204.13 459.85 206.13 460.78 203.54 462.23 201.94 461.5Z" fill="#024363" transform="translate(-62.53 -62.87)"/><path d="M210.79 473.36C210.483 473.56 210.145 473.709 209.79 473.8 207.603 474.408 205.337 473.127 204.73 470.94 204.122 468.753 205.403 466.487 207.59 465.88 208.48 465.633 209.428 465.692 210.28 466.05 211.116 466.37 211.82 466.962 212.28 467.73 212.48 468.037 212.629 468.375 212.72 468.73L210.95 469.47C210.875 469.246 210.774 469.031 210.65 468.83 210.395 468.384 210.002 468.033 209.53 467.83 208.453 467.431 207.256 467.981 206.857 469.058 206.476 470.086 206.959 471.233 207.96 471.68 208.433 471.86 208.949 471.892 209.44 471.77 209.67 471.715 209.892 471.631 210.1 471.52Z" fill="#024363" transform="translate(-62.53 -62.87)"/><path d="M213.94 470 212.66 469.54 213.35 467.66 214.03 467.91C214.58 468.11 214.96 467.91 215.18 467.31L215.68 465.96 217.48 466.62 216.66 468.87 218.31 469.48 217.62 471.35 215.97 470.75 215.06 473.23C214.813 473.724 215.013 474.325 215.507 474.572 215.553 474.595 215.601 474.614 215.65 474.63 215.844 474.71 216.05 474.757 216.26 474.77 216.35 474.78 216.44 474.78 216.53 474.77L215.84 476.65 215.41 476.65C215.068 476.606 214.732 476.522 214.41 476.4 212.91 475.85 212.28 474.53 212.92 472.79Z" fill="#024363" transform="translate(-62.53 -62.87)"/><path d="M219.7 469.76 221.75 470.45 219.24 477.87 217.24 477.18ZM221.83 466.84C222.45 467.073 222.764 467.766 222.53 468.386 222.297 469.006 221.605 469.32 220.984 469.086 220.38 468.858 220.064 468.193 220.27 467.58 220.505 466.952 221.195 466.625 221.83 466.84Z" fill="#024363" transform="translate(-62.53 -62.87)"/><path d="M228.14 479.13C227.84 479.363 227.501 479.542 227.14 479.66 225.02 480.472 222.644 479.411 221.832 477.291 221.02 475.172 222.081 472.795 224.201 471.983 225.065 471.652 226.017 471.623 226.9 471.9 227.757 472.148 228.509 472.672 229.04 473.39 229.276 473.69 229.459 474.028 229.58 474.39L227.88 475.3C227.785 475.085 227.667 474.881 227.53 474.69 227.23 474.278 226.806 473.973 226.32 473.82 225.208 473.51 224.055 474.16 223.745 475.272 223.445 476.35 224.046 477.473 225.11 477.82 225.6 477.958 226.12 477.94 226.6 477.77 226.822 477.688 227.033 477.58 227.23 477.45Z" fill="#024363" transform="translate(-62.53 -62.87)"/><path d="M233.44 481 233.36 481C233.138 481.155 232.9 481.286 232.65 481.39 232.073 481.63 231.432 481.669 230.83 481.5 229.618 481.282 228.812 480.123 229.03 478.911 229.041 478.85 229.054 478.79 229.07 478.73 229.404 477.463 230.649 476.661 231.94 476.88L234.46 477.07C234.52 476.41 234.055 475.818 233.4 475.72 232.944 475.598 232.46 475.637 232.03 475.83 231.834 475.906 231.65 476.007 231.48 476.13L230.56 474.57C230.865 474.347 231.202 474.172 231.56 474.05 232.358 473.744 233.231 473.691 234.06 473.9 235.77 474.218 236.899 475.863 236.581 477.573 236.569 477.636 236.555 477.698 236.54 477.76L235.32 482.49 233.23 481.95ZM234.08 478.52 232.29 478.39C231.72 478.39 231.34 478.55 231.29 478.94 231.24 479.33 231.4 479.8 232.02 479.94 232.911 480.178 233.827 479.649 234.065 478.758 234.074 478.723 234.083 478.686 234.09 478.65Z" fill="#024363" transform="translate(-62.53 -62.87)"/><path d="M238.22 480.43C238.341 480.638 238.493 480.827 238.67 480.99 239.051 481.367 239.534 481.624 240.06 481.73 240.77 481.88 241.06 481.73 241.12 481.39 241.31 480.53 237.36 479.84 237.9 477.34 238.17 476.08 239.5 475.23 241.46 475.65 242.24 475.813 242.962 476.182 243.55 476.72 243.788 476.941 244 477.189 244.18 477.46L242.64 478.52C242.523 478.371 242.393 478.234 242.25 478.11 241.907 477.814 241.494 477.61 241.05 477.52 240.51 477.41 240.22 477.59 240.17 477.83 239.98 478.69 243.93 479.37 243.39 481.88 243.1 483.19 241.77 484.06 239.66 483.61 238.794 483.429 237.999 483.002 237.37 482.38 237.1 482.116 236.868 481.817 236.68 481.49Z" fill="#024363" transform="translate(-62.53 -62.87)"/><path d="M246.25 485.92C246.32 485.972 246.398 486.012 246.48 486.04 246.674 486.128 246.879 486.188 247.09 486.22 247.694 486.339 248.304 486.041 248.58 485.49L248.81 485.12 247.05 477 249.34 477.37 250.34 482.8 250.42 482.8 252.99 477.95 255.28 478.32 250.76 486.18C249.83 487.82 248.76 488.61 247.33 488.37 246.988 488.318 246.652 488.228 246.33 488.1 246.2 488.03 246.06 487.98 245.94 487.91Z" fill="#024363" transform="translate(-62.53 -62.87)"/><path d="M258.38 478.71 260.53 478.93 260.41 480.04 260.49 480.04C260.687 479.822 260.913 479.63 261.16 479.47 261.736 479.11 262.415 478.952 263.09 479.02 265.297 479.597 266.618 481.854 266.041 484.061 265.585 485.801 264.056 487.046 262.26 487.14 261.28 487.041 260.409 486.475 259.92 485.62L259.84 485.62 259.38 490.08 257.23 489.86ZM264.03 483.23C264.096 482.127 263.256 481.18 262.153 481.114 261.051 481.048 260.103 481.888 260.037 482.991 259.973 484.061 260.764 484.991 261.83 485.1 262.93 485.196 263.9 484.382 263.996 483.281 263.998 483.264 263.999 483.247 264 483.23Z" fill="#024363" transform="translate(-62.53 -62.87)"/><path d="M271.43 479.67C273.677 479.833 275.367 481.788 275.203 484.035 275.04 486.283 273.086 487.972 270.838 487.809 268.621 487.647 266.94 485.74 267.06 483.52 267.199 481.254 269.148 479.53 271.414 479.669 271.419 479.669 271.425 479.67 271.43 479.67ZM273.21 483.85C273.208 482.745 272.312 481.851 271.207 481.853 270.102 481.855 269.208 482.751 269.21 483.856 269.212 484.917 270.041 485.792 271.1 485.85 272.203 485.911 273.146 485.066 273.207 483.963 273.209 483.925 273.21 483.888 273.21 483.85Z" fill="#024363" transform="translate(-62.53 -62.87)"/><path d="M276.9 476.69 279.06 476.69 278.84 487.89 276.68 487.89Z" fill="#024363" transform="translate(-62.53 -62.87)"/><path d="M280.73 480.11 282.89 480.11 282.89 488 280.73 488ZM282.26 476.67 284.5 476.67 282.73 479.07 281 479.07Z" fill="#024363" transform="translate(-62.53 -62.87)"/><path d="M285.24 482.25 283.88 482.25 283.83 480.25 284.55 480.25C285.14 480.25 285.42 479.91 285.4 479.25L285.4 477.81 287.32 477.76 287.38 480.16 289.13 480.16 289.19 482.16 287.43 482.21 287.49 484.85C287.439 485.4 287.843 485.887 288.393 485.938 288.448 485.944 288.504 485.944 288.56 485.94 288.77 485.937 288.979 485.903 289.18 485.84 289.269 485.821 289.356 485.794 289.44 485.76L289.44 487.76C289.31 487.81 289.17 487.84 289.03 487.9 288.702 487.976 288.367 488.019 288.03 488.03 286.43 488.03 285.36 487.08 285.31 485.22Z" fill="#024363" transform="translate(-62.53 -62.87)"/><path d="M291.43 476.42C292.093 476.416 292.634 476.949 292.638 477.612 292.642 478.275 292.109 478.816 291.446 478.82 290.807 478.824 290.277 478.328 290.24 477.69 290.228 477.015 290.755 476.452 291.43 476.42ZM290.52 479.92 292.68 479.81 293.08 487.64 290.92 487.75Z" fill="#024363" transform="translate(-62.53 -62.87)"/><path d="M301.79 485.54C301.596 485.868 301.349 486.162 301.06 486.41 299.38 487.937 296.781 487.813 295.254 486.133 293.727 484.453 293.851 481.854 295.531 480.327 296.21 479.71 297.075 479.338 297.99 479.27 298.879 479.192 299.77 479.403 300.53 479.87 300.855 480.064 301.146 480.311 301.39 480.6L300.15 482.07C299.985 481.902 299.8 481.755 299.6 481.63 299.166 481.363 298.659 481.237 298.15 481.27 297.012 481.426 296.215 482.475 296.371 483.613 296.515 484.665 297.428 485.44 298.49 485.41 298.997 485.361 299.476 485.155 299.86 484.82 300.037 484.667 300.195 484.492 300.33 484.3Z" fill="#024363" transform="translate(-62.53 -62.87)"/><path d="M307.42 485.34 307.34 485.34C307.192 485.57 307.017 485.781 306.82 485.97 306.376 486.405 305.798 486.676 305.18 486.74 303.973 486.986 302.796 486.206 302.55 484.999 302.537 484.937 302.527 484.874 302.52 484.81 302.368 483.506 303.235 482.3 304.52 482.03L306.92 481.28C306.731 480.648 306.083 480.271 305.44 480.42 304.977 480.477 304.548 480.688 304.22 481.02 304.064 481.166 303.927 481.331 303.81 481.51L302.38 480.4C302.58 480.085 302.822 479.799 303.1 479.55 303.725 478.966 304.521 478.598 305.37 478.5 307.078 478.17 308.73 479.288 309.06 480.996 309.072 481.057 309.082 481.118 309.09 481.18L309.69 486.02 307.55 486.28ZM307.1 482.8 305.39 483.34C304.85 483.52 304.57 483.84 304.62 484.24 304.67 484.64 305.04 484.99 305.67 484.91 306.582 484.815 307.244 483.998 307.148 483.086 307.142 483.027 307.133 482.968 307.12 482.91Z" fill="#024363" transform="translate(-62.53 -62.87)"/><path d="M311.66 483.05C311.851 483.197 312.064 483.315 312.29 483.4 312.783 483.617 313.331 483.68 313.86 483.58 314.57 483.46 314.77 483.19 314.71 482.87 314.57 482.01 310.65 482.81 310.23 480.29 310.02 479.02 310.95 477.74 312.92 477.41 313.707 477.276 314.515 477.356 315.26 477.64 315.564 477.758 315.853 477.913 316.12 478.1L315.07 479.65C314.909 479.552 314.738 479.472 314.56 479.41 314.134 479.257 313.674 479.222 313.23 479.31 312.68 479.4 312.48 479.67 312.52 479.91 312.67 480.78 316.59 479.97 317 482.5 317.22 483.82 316.3 485.13 314.17 485.5 313.298 485.645 312.403 485.537 311.59 485.19 311.229 485.053 310.892 484.861 310.59 484.62Z" fill="#024363" transform="translate(-62.53 -62.87)"/><path d="M328.31 481.33C328.114 481.633 327.879 481.909 327.61 482.15 326.955 482.727 326.163 483.127 325.31 483.31 323.139 483.914 320.89 482.643 320.286 480.473 319.682 478.302 320.952 476.052 323.123 475.448 323.234 475.418 323.347 475.391 323.46 475.37 325.58 474.906 327.675 476.248 328.14 478.368 328.14 478.369 328.14 478.37 328.14 478.37 328.2 478.67 328.22 478.88 328.24 479.05L328.24 479.33 322.69 480.56C323.167 481.36 324.133 481.725 325.02 481.44 325.557 481.331 326.051 481.066 326.44 480.68 326.609 480.52 326.75 480.335 326.86 480.13ZM325.81 478.2C325.353 477.305 324.257 476.95 323.361 477.407 322.771 477.708 322.391 478.307 322.37 478.97Z" fill="#024363" transform="translate(-62.53 -62.87)"/><path d="M328.46 474.38 330.54 473.81 330.84 474.89 330.92 474.89C331.019 474.617 331.154 474.358 331.32 474.12 331.675 473.595 332.208 473.215 332.82 473.05 334.433 472.671 336.048 473.672 336.426 475.285 336.439 475.34 336.45 475.395 336.46 475.45L337.7 480 335.62 480.57 334.46 476.32C334.352 475.577 333.662 475.062 332.919 475.17 332.834 475.182 332.751 475.202 332.67 475.23 331.778 475.465 331.245 476.378 331.48 477.27 331.489 477.304 331.499 477.337 331.51 477.37L332.61 481.37 330.52 481.94Z" fill="#024363" transform="translate(-62.53 -62.87)"/><path d="M341.32 472.9 340.03 473.33 339.4 471.43 340.08 471.2C340.64 471.02 340.81 470.62 340.61 470.02L340.15 468.65 342 468 342.75 470.28 344.42 469.72 345.05 471.62 343.39 472.18 344.22 474.68C344.332 475.221 344.861 475.569 345.402 475.457 345.456 475.445 345.509 475.43 345.56 475.41 345.762 475.348 345.954 475.257 346.13 475.14 346.206 475.095 346.276 475.041 346.34 474.98L346.98 476.88C346.87 476.97 346.74 477.04 346.62 477.13 346.329 477.312 346.017 477.456 345.69 477.56 344.17 478.07 342.86 477.43 342.27 475.67Z" fill="#024363" transform="translate(-62.53 -62.87)"/><path d="M348.93 467.76C351.058 467.004 353.397 468.116 354.153 470.244 354.91 472.373 353.798 474.711 351.669 475.468 349.567 476.215 347.253 475.139 346.47 473.05 345.687 470.914 346.784 468.547 348.92 467.764 348.923 467.762 348.927 467.761 348.93 467.76ZM352.24 470.88C351.811 469.862 350.637 469.385 349.62 469.815 348.602 470.244 348.125 471.417 348.555 472.435 348.972 473.424 350.095 473.907 351.1 473.53 352.134 473.142 352.658 471.989 352.27 470.955 352.26 470.93 352.25 470.905 352.24 470.88Z" fill="#024363" transform="translate(-62.53 -62.87)"/><path d="M361.77 469.94 361.7 469.94C361.644 470.231 361.542 470.511 361.4 470.77 361.071 471.366 360.554 471.838 359.93 472.11 357.724 472.691 355.465 471.373 354.885 469.167 354.426 467.422 355.152 465.581 356.68 464.62 357.311 464.347 358.014 464.291 358.68 464.46 358.967 464.533 359.24 464.651 359.49 464.81L359.56 464.81 357.78 460.7 359.78 459.84 364.24 470.12 362.24 470.98ZM360.77 467.34C360.286 466.347 359.089 465.934 358.096 466.418 357.103 466.902 356.69 468.099 357.174 469.092 357.643 470.055 358.788 470.477 359.77 470.05 360.775 469.591 361.217 468.405 360.759 467.4 360.749 467.38 360.74 467.36 360.73 467.34Z" fill="#024363" transform="translate(-62.53 -62.87)"/><path d="M369.63 466.41 369.56 466.41C369.501 466.675 369.407 466.93 369.28 467.17 368.996 467.727 368.535 468.174 367.97 468.44 366.895 469.053 365.527 468.678 364.915 467.604 364.884 467.55 364.856 467.496 364.83 467.44 364.265 466.256 364.699 464.836 365.83 464.17L367.83 462.67C367.445 462.134 366.709 461.989 366.15 462.34 365.709 462.545 365.355 462.899 365.15 463.34 365.049 463.525 364.975 463.724 364.93 463.93L363.21 463.35C363.301 463.001 363.435 462.665 363.61 462.35 364.021 461.598 364.653 460.991 365.42 460.61 366.927 459.741 368.853 460.259 369.722 461.766 369.753 461.82 369.782 461.875 369.81 461.93L371.96 466.31 370.02 467.26ZM368.51 464.11 367.07 465.18C366.61 465.52 366.45 465.92 366.63 466.28 366.81 466.64 367.27 466.86 367.85 466.58 368.678 466.186 369.03 465.196 368.636 464.368 368.619 464.331 368.6 464.295 368.58 464.26Z" fill="#024363" transform="translate(-62.53 -62.87)"/><path d="M371 454.14 372.89 453.14 378.29 462.95 376.4 463.95Z" fill="#024363" transform="translate(-62.53 -62.87)"/><path d="M383.38 458.87 383.32 458.87C383.274 459.141 383.197 459.406 383.09 459.66 382.856 460.236 382.433 460.716 381.89 461.02 380.88 461.725 379.49 461.478 378.785 460.468 378.751 460.42 378.72 460.371 378.69 460.32 378.021 459.192 378.33 457.739 379.4 456.98L381.3 455.33C380.875 454.825 380.131 454.737 379.6 455.13 379.201 455.353 378.89 455.706 378.72 456.13 378.633 456.324 378.572 456.529 378.54 456.74L376.78 456.29C376.842 455.925 376.949 455.569 377.1 455.23 377.447 454.448 378.027 453.792 378.76 453.35 380.199 452.372 382.158 452.747 383.136 454.186 383.172 454.239 383.207 454.294 383.24 454.35L385.73 458.55 383.87 459.65ZM382.08 456.67 380.73 457.85C380.3 458.23 380.18 458.64 380.38 458.98 380.58 459.32 381.06 459.51 381.61 459.18 382.405 458.724 382.681 457.71 382.225 456.914 382.205 456.879 382.183 456.844 382.16 456.81Z" fill="#024363" transform="translate(-62.53 -62.87)"/><path d="M395.2 451C395.127 451.348 395.006 451.685 394.84 452 394.451 452.781 393.865 453.446 393.14 453.93 391.287 455.214 388.744 454.753 387.46 452.9 386.176 451.047 386.637 448.504 388.49 447.22 390.282 446.009 392.717 446.479 393.93 448.27 394.062 448.457 394.179 448.654 394.28 448.86L394.41 449.11 389.7 452.3C390.44 452.865 391.473 452.844 392.19 452.25 392.637 451.951 392.984 451.527 393.19 451.03 393.289 450.818 393.353 450.592 393.38 450.36ZM391.72 449C390.986 448.321 389.841 448.366 389.162 449.1 388.688 449.612 388.551 450.352 388.81 451Z" fill="#024363" transform="translate(-62.53 -62.87)"/><path d="M396.25 448.36C396.489 448.395 396.731 448.395 396.97 448.36 397.507 448.318 398.02 448.124 398.45 447.8 399.03 447.37 399.08 447.04 398.89 446.8 398.36 446.09 395.24 448.6 393.72 446.54 392.96 445.54 393.2 443.95 394.8 442.76 395.438 442.279 396.195 441.982 396.99 441.9 397.322 441.851 397.658 441.851 397.99 441.9L397.77 443.75C397.584 443.73 397.396 443.73 397.21 443.75 396.759 443.809 396.332 443.985 395.97 444.26 395.52 444.6 395.47 444.93 395.62 445.12 396.14 445.83 399.26 443.32 400.78 445.38 401.58 446.46 401.36 448.04 399.62 449.32 398.915 449.852 398.071 450.168 397.19 450.23 396.812 450.263 396.431 450.239 396.06 450.16Z" fill="#024363" transform="translate(-62.53 -62.87)"/><path d="M407.69 441C407.714 441.381 407.673 441.763 407.57 442.13 407.063 444.343 404.859 445.725 402.646 445.219 400.434 444.712 399.051 442.507 399.557 440.295 399.765 439.389 400.274 438.58 401 438 401.684 437.428 402.539 437.101 403.43 437.07 403.811 437.053 404.191 437.094 404.56 437.19L404.34 439.1C404.109 439.058 403.874 439.041 403.64 439.05 403.132 439.07 402.642 439.248 402.24 439.56 401.383 440.325 401.309 441.64 402.074 442.497 402.783 443.291 403.976 443.421 404.84 442.8 405.233 442.479 405.513 442.041 405.64 441.55 405.702 441.322 405.736 441.087 405.74 440.85Z" fill="#024363" transform="translate(-62.53 -62.87)"/><path d="M404.35 435.44 406 434 408.87 437.33C409.287 437.955 410.131 438.124 410.756 437.707 410.825 437.661 410.89 437.608 410.95 437.55 411.652 436.96 411.742 435.913 411.153 435.211 411.126 435.18 411.099 435.149 411.07 435.12L408.35 432 409.98 430.59 415.1 436.52 413.47 437.93 412.73 437.09 412.67 437.14C412.71 437.429 412.71 437.721 412.67 438.01 412.572 438.635 412.257 439.205 411.78 439.62 410.487 440.656 408.599 440.449 407.563 439.156 407.527 439.112 407.493 439.066 407.46 439.02Z" fill="#024363" transform="translate(-62.53 -62.87)"/><path d="M420.89 429.44C420.876 429.8 420.816 430.156 420.71 430.5 420.449 431.333 419.981 432.087 419.35 432.69 417.74 434.267 415.157 434.24 413.58 432.63 412.003 431.02 412.03 428.437 413.64 426.86 415.201 425.362 417.68 425.411 419.18 426.97 419.339 427.138 419.49 427.315 419.63 427.5L419.79 427.72 415.69 431.65C416.512 432.089 417.528 431.902 418.14 431.2 418.543 430.826 418.828 430.343 418.96 429.81 419.017 429.585 419.041 429.352 419.03 429.12ZM417.12 428.06C416.263 427.534 415.143 427.803 414.617 428.66 414.272 429.221 414.258 429.925 414.58 430.5Z" fill="#024363" transform="translate(-62.53 -62.87)"/><path d="M415 421 416.51 419.45 424.51 427.27 423 428.83Z" fill="#024363" transform="translate(-62.53 -62.87)"/><path d="M428.2 422 428.15 422.06C428.18 422.329 428.18 422.601 428.15 422.87 428.092 423.489 427.828 424.07 427.4 424.52 426.635 425.492 425.226 425.66 424.254 424.895 424.208 424.858 424.163 424.82 424.12 424.78 423.165 423.884 423.044 422.41 423.84 421.37L425.18 419.24C424.628 418.883 423.894 419.014 423.5 419.54 423.179 419.885 422.985 420.33 422.95 420.8 422.925 421.009 422.925 421.221 422.95 421.43L421.14 421.51C421.09 421.142 421.09 420.768 421.14 420.4 421.23 419.558 421.579 418.765 422.14 418.13 423.219 416.772 425.194 416.547 426.552 417.626 426.606 417.669 426.659 417.714 426.71 417.76L430.31 421.05 428.85 422.65ZM426.32 420.27 425.32 421.78C425.03 422.27 425.02 422.7 425.32 422.97 425.62 423.24 426.12 423.28 426.56 422.8 427.184 422.129 427.146 421.078 426.475 420.454 426.448 420.428 426.419 420.404 426.39 420.38Z" fill="#024363" transform="translate(-62.53 -62.87)"/><path d="M229.08 78.63 238.14 76.26 238.78 78.7 232.33 80.38 232.95 82.73 238 81.41 238.61 83.76 233.56 85.08 234.24 87.7 240.86 86 241.5 88.43 232.27 90.85Z" fill="#024363" transform="translate(-62.53 -62.87)"/><path d="M243.13 84.5C243.395 84.7072 243.688 84.8756 244 85 244.722 85.3096 245.521 85.3899 246.29 85.23 247.7 84.96 248.2 84.23 248.04 83.43 247.63 81.32 241.63 83.43 240.79 79.16 240.41 77.16 241.79 75.16 244.59 74.66 245.681 74.4349 246.813 74.518 247.86 74.9 248.289 75.0571 248.695 75.2689 249.07 75.53L247.65 77.64C247.42 77.4804 247.176 77.3431 246.92 77.23 246.36 76.9868 245.741 76.9138 245.14 77.02 243.8 77.29 243.39 77.92 243.53 78.62 243.94 80.72 249.94 78.62 250.78 82.89 251.17 84.89 249.78 87.03 246.84 87.6 245.58 87.8667 244.27 87.7731 243.06 87.33 242.566 87.1609 242.103 86.9108 241.69 86.59Z" fill="#024363" transform="translate(-62.53 -62.87)"/><path d="M264 82.54C263.688 83.076 263.304 83.5672 262.86 84 261.779 84.954 260.432 85.5542 259 85.72 255.453 86.5089 251.937 84.2727 251.149 80.7253 250.36 77.1779 252.596 73.6627 256.143 72.8738 256.546 72.7842 256.957 72.7327 257.37 72.72 258.783 72.5336 260.218 72.7997 261.47 73.48 262.024 73.7575 262.538 74.1072 263 74.52L261.43 76.52C261.13 76.2202 260.794 75.9582 260.43 75.74 259.624 75.2593 258.682 75.0589 257.75 75.17 255.514 75.2321 253.752 77.095 253.814 79.3309 253.876 81.5668 255.739 83.329 257.975 83.2669 258.236 83.2596 258.495 83.2272 258.75 83.17 259.677 83.0431 260.543 82.6347 261.23 82 261.546 81.7091 261.816 81.3719 262.03 81Z" fill="#024363" transform="translate(-62.53 -62.87)"/><path d="M264.92 72.11 267.62 71.98 267.97 79.36C267.99 80.9007 269.256 82.1332 270.797 82.1129 272.337 82.0925 273.57 80.827 273.549 79.2862 273.549 79.2207 273.545 79.1553 273.54 79.09L273.19 71.72 275.89 71.59 276.24 78.97C276.384 82.0076 274.038 84.5864 271 84.73 267.962 84.8736 265.384 82.5276 265.24 79.49Z" fill="#024363" transform="translate(-62.53 -62.87)"/><path d="M279.31 71.6 288.67 71.85 288.6 74.37 281.94 74.19 281.88 76.62 287.1 76.76 287 79.19 281.78 79.05 281.71 81.75 288.55 81.93 288.49 84.45 279 84.2Z" fill="#024363" transform="translate(-62.53 -62.87)"/><path d="M291.44 72.06 294.13 72.3 293.23 82.3 299.05 82.82 298.83 85.33 290.31 84.57Z" fill="#024363" transform="translate(-62.53 -62.87)"/><path d="M305.39 73.6 308.39 74.08 311.24 87.27 308.4 86.83 307.78 83.83 302.98 83.07 301.46 85.75 298.62 85.31ZM307.28 81.28 306.45 77 306.38 77 304.26 80.85Z" fill="#024363" transform="translate(-62.53 -62.87)"/><path d="M313.58 84.26C313.736 84.5688 313.939 84.8521 314.18 85.1 314.717 85.6704 315.414 86.0644 316.18 86.23 317.58 86.55 318.33 86.07 318.51 85.23 318.98 83.15 312.63 82.69 313.6 78.41 314.03 76.48 316.08 75.18 318.89 75.82 319.98 76.0498 320.982 76.5838 321.78 77.36 322.109 77.6771 322.397 78.0331 322.64 78.42L320.48 79.78C320.337 79.5424 320.173 79.3181 319.99 79.11 319.57 78.668 319.032 78.3557 318.44 78.21 317.1 77.91 316.44 78.32 316.32 79.02 315.85 81.11 322.2 81.56 321.23 85.85 320.78 87.85 318.63 89.23 315.73 88.57 314.47 88.3112 313.311 87.697 312.39 86.8 311.985 86.4542 311.646 86.0374 311.39 85.57Z" fill="#024363" transform="translate(-62.53 -62.87)"/></svg>