<svg viewBox="0 0 320.44 442.57" xmlns="http://www.w3.org/2000/svg" xmlns:xlink="http://www.w3.org/1999/xlink" id="Capa_1" overflow="hidden"><style>
.MsftOfcResponsive_Fill_01a74d {
 fill:#01A74D; 
}
</style>
<defs></defs><path d="M2036.5 649.6C2034.06 651.9 2030.71 651.81 2027.77 652.79 2010.87 658.4 1994.04 664.22 1977.04 669.5 1966.58 672.74 1956.17 676.15 1945.71 679.39 1937.05 682.08 1928.37 684.8 1919.77 687.71 1913.55 689.81 1913.41 691.56 1915.38 697.71 1916.92 702.759 1918.1 707.912 1918.91 713.13 1922.52 734.95 1928.71 756.13 1933.43 777.71 1936.92 793.63 1940.97 809.42 1944.54 825.32 1944.7 826.06 1945.54 826.9 1944.44 827.48 1943.53 827.906 1942.46 827.803 1941.65 827.21 1907.76 806.85 1875.4 784.4 1846.96 756.74 1806.37 717.27 1774.71 671.42 1751.4 619.96 1742.97 601.36 1735.65 582.21 1730.68 562.23 1729.05 555.7 1727.75 548.93 1724.94 542.67 1724.37 541.462 1724.08 540.144 1724.09 538.81 1724.31 533.06 1722.37 527.7 1721.47 522.17 1719.35 509.08 1716.09 496.17 1716.06 482.73 1716.03 480.745 1716.88 478.847 1718.37 477.54 1740.31 455.66 1763.98 435.63 1786.12 413.96 1795.64 404.65 1805.24 395.41 1815.24 386.6 1817.57 384.54 1818.76 384.84 1820.93 386.73 1849.54 411.67 1877.08 437.82 1906.07 462.32 1909.24 465 1912.07 468.09 1915.17 470.86 1918.78 474.09 1918.03 478.86 1918.59 482.67 1923.2 513.67 1934.51 542.08 1951.34 568.36 1965.93 591.11 1984.17 611.295 2005.34 628.1 2014.21 635.155 2023.62 641.508 2033.48 647.1 2034.61 647.7 2036.12 647.9 2036.5 649.6Z" class="MsftOfcResponsive_Fill_01a74d" fill="#01A74D" transform="translate(-1716.06 -385.19)"/></svg>