<svg viewBox="0 0 866.66 166.05" xmlns="http://www.w3.org/2000/svg" xmlns:xlink="http://www.w3.org/1999/xlink" id="Capa_1" overflow="hidden"><defs></defs><rect x="126.67" y="14.39" width="50.59" height="132.76"/><path d="M413.32 367.19C413.32 383.311 400.251 396.38 384.13 396.38 368.009 396.38 354.94 383.311 354.94 367.19 354.94 351.069 368.009 338 384.13 338 400.246 337.994 413.314 351.054 413.32 367.17 413.32 367.177 413.32 367.183 413.32 367.19" fill="#FF6F00" transform="translate(-170.04 -324.9)"/><rect x="0" y="14.39" width="50.59" height="132.76"/><path d="M286.65 367.19C286.65 383.311 273.581 396.38 257.46 396.38 241.339 396.38 228.27 383.311 228.27 367.19 228.27 351.069 241.339 338 257.46 338 273.576 337.994 286.644 351.054 286.65 367.17 286.65 367.177 286.65 367.183 286.65 367.19" fill="#3373EA" transform="translate(-170.04 -324.9)"/><text font-family="TTNormsPro-Bold,TT Norms Pro" font-weight="700" font-size="81.76" transform="translate(280.88 69.49)"><tspan letter-spacing="-0.01em">E</tspan><tspan letter-spacing="-0.01em" x="53.55" y="0">scue</tspan><tspan letter-spacing="-0.01em" x="225.56" y="0">l</tspan><tspan letter-spacing="-0.01em" x="247.23" y="0">a</tspan><tspan x="290.64" y="0"></tspan></text><text font-family="TTNormsPro-Bold,TT Norms Pro" font-weight="700" font-size="81.76" transform="translate(585.01 69.49)">T</text><text font-family="TTNormsPro-Bold,TT Norms Pro" font-weight="700" font-size="81.76" transform="translate(624.26 69.49)"><tspan letter-spacing="-0.01em">écnic</tspan><tspan x="198.25" y="0">a</tspan></text><text font-family="TTNormsPro-Bold,TT Norms Pro" font-weight="700" font-size="81.76" transform="translate(280.88 146.42)">R</text><text font-family="TTNormsPro-Bold,TT Norms Pro" font-weight="700" font-size="81.76" transform="translate(335.25 146.42)"><tspan letter-spacing="-0.01em">o</tspan><tspan letter-spacing="-0.01em" x="47.42" y="0">ber</tspan><tspan letter-spacing="-0.02em" x="173.57" y="0">t</tspan><tspan letter-spacing="-0.01em" x="204.63" y="0">o</tspan><tspan x="252.13" y="0"></tspan></text><text font-family="TTNormsPro-Bold,TT Norms Pro" font-weight="700" font-size="81.76" transform="translate(603.41 146.42)">R</text><text font-family="TTNormsPro-Bold,TT Norms Pro" font-weight="700" font-size="81.76" transform="translate(657.78 146.42)"><tspan letter-spacing="-0.01em">o</tspan><tspan letter-spacing="-0.02em" x="47.42" y="0">c</tspan><tspan letter-spacing="-0.01em" x="88.38" y="0">c</tspan><tspan x="130.15" y="0">a</tspan></text></svg>