<svg viewBox="0 0 148.23 81.67" xmlns="http://www.w3.org/2000/svg" xmlns:xlink="http://www.w3.org/1999/xlink" id="Modo_de_aislamiento" overflow="hidden"><defs></defs><rect x="77.18" y="0.78" width="30.82" height="80.89" fill="#007CE2"/><path d="M874.81 135.37C874.815 145.195 866.855 153.164 857.03 153.17 847.205 153.176 839.235 145.215 839.23 135.39 839.224 125.569 847.179 117.601 857 117.59 866.821 117.59 874.784 125.549 874.79 135.37" fill="#007CE2" transform="translate(-726.58 -117.59)"/><rect x="0" y="0.78" width="30.82" height="80.89" fill="#007CE2"/><path d="M797.63 135.37C797.635 145.195 789.675 153.164 779.85 153.17 770.025 153.176 762.056 145.215 762.05 135.39 762.045 125.565 770.005 117.596 779.83 117.59 779.833 117.59 779.837 117.59 779.84 117.59 789.66 117.584 797.625 125.54 797.63 135.36 797.63 135.363 797.63 135.367 797.63 135.37" fill="#007CE2" transform="translate(-726.58 -117.59)"/></svg>