<svg viewBox="0 0 153.44 167" xmlns="http://www.w3.org/2000/svg" xmlns:xlink="http://www.w3.org/1999/xlink" id="Capa_1" overflow="hidden"><path d="M3835 586.45C3848.48 589.31 3860.3 595.21 3870 605.16 3888.56 624.16 3899.45 654.74 3883.29 684.97 3877.29 696.2 3870.36 707.36 3869.03 720.36 3868.43 726.24 3869.52 732.54 3871.03 738.36 3872.63 744.36 3872.24 746.47 3865.98 747.24 3850.29 749.19 3834.55 750.81 3818.84 752.58 3816.53 752.84 3814.23 753.18 3811.93 753.49L3804.93 753.49C3803.67 752.49 3802.06 751.64 3801.22 750.33 3794.39 739.66 3788.78 737.33 3776.29 738.99 3772.38 739.384 3768.42 738.885 3764.73 737.53 3759.88 735.85 3757.85 731.81 3757.92 726.53 3757.92 724.63 3756.39 722.67 3755.42 720.81 3754.16 718.39 3751.98 716.15 3751.6 713.63 3750.97 709.3 3751.43 704.82 3751.43 700.63 3747.96 698.88 3744.82 697.71 3742.15 695.86 3736.56 691.99 3736.15 685.51 3741.22 681.06 3749.41 673.86 3752.22 665.06 3751.08 654.27 3748.27 628.27 3762.29 604.99 3787.34 594.88 3796.17 591.32 3805.83 589.81 3815.11 587.36 3816.06 587.11 3816.99 586.8 3817.93 586.52ZM3862.31 739.52C3858.16 727.86 3860.19 717.3 3864.4 707.12 3868.7 696.69 3873.63 686.5 3878.31 676.22 3890.2 650.11 3878 620.22 3857.6 605.3 3834.09 588.13 3799.06 593.75 3778.26 609.78 3764.07 620.71 3758.16 635.49 3759.39 653.16 3760.24 665.42 3756.9 676.16 3748.61 685.26 3747.76 686.19 3747 687.2 3745.52 688.99 3749.63 690.27 3753.13 691.1 3756.4 692.48 3758.16 693.22 3760.82 694.85 3760.86 696.15 3761.05 701.94 3760.44 707.75 3760.12 713.5 3764.45 716.056 3766.87 720.924 3766.29 725.92 3766.01 729.71 3768.06 731.45 3771.75 731.3 3773.08 731.3 3774.39 730.92 3775.75 730.82 3788.47 729.82 3800.1 731.4 3807.51 743.71 3808.16 744.79 3810.57 745.39 3812.09 745.28 3818.23 744.84 3824.35 744.08 3830.46 743.36 3840.76 742.14 3851.14 740.86 3862.27 739.52Z" transform="translate(-3737.69 -586.45)"/><path d="M3822.61 696.4C3818.61 696.4 3814.61 696.4 3810.61 696.4 3807.01 696.4 3804.93 694.78 3804.83 691.07 3804.72 686.81 3805.14 682.49 3804.5 678.32 3803.87 675.099 3802.68 672.013 3800.99 669.2 3797.34 662.63 3794.92 655.83 3796.18 648.2 3798.83 632.2 3816.18 623.08 3832.92 628.81 3849.79 634.59 3855.82 652.89 3845.72 667.66 3845.63 667.8 3845.53 667.933 3845.42 668.06 3840.42 673.69 3838.07 679.79 3839.19 687.76 3840.38 696.14 3839.42 696.45 3831.1 696.48 3828.27 696.48 3825.43 696.48 3822.6 696.48ZM3824.24 657.66 3824.82 656.4 3831.17 656.4C3830.51 658.34 3830.41 660.85 3829.1 662.11 3825.17 665.91 3825.65 670.51 3825.96 675.11 3826.28 676.101 3827.08 676.857 3828.09 677.11 3829.16 677.081 3830.15 676.579 3830.81 675.74 3834.03 671.15 3837.02 666.4 3840.19 661.74 3844.34 656.004 3844.08 648.184 3839.55 642.74 3833.07 634.96 3820.03 632.95 3811.83 638.48 3803.33 644.22 3801.73 653.04 3807.25 663.56 3809.39 667.64 3811.47 671.75 3813.77 676.21L3819.54 676.21C3818.79 670.21 3822.1 663.95 3817.36 658.39 3816.85 657.8 3817.36 655.39 3818.02 655 3819.3 654.485 3820.74 654.485 3822.02 655 3823 655.45 3823.52 656.77 3824.24 657.66ZM3830.61 688.17 3830.83 686.03 3812.83 686.03 3812.71 687.28C3818.6 689 3824.67 687.76 3830.61 688.17Z" transform="translate(-3737.69 -586.45)"/><path d="M3781.29 646.32C3783.55 646.357 3785.81 646.601 3788.03 647.05 3789.15 647.36 3789.91 648.94 3790.83 649.95 3789.83 650.8 3788.83 652.3 3787.68 652.38 3784.55 652.695 3781.39 652.587 3778.29 652.06 3776.72 651.75 3775.45 649.94 3774.05 648.81 3775.58 647.98 3777.05 647.04 3778.67 646.37 3779.53 646.205 3780.42 646.188 3781.29 646.32Z" transform="translate(-3737.69 -586.45)"/><path d="M3858 649.29C3857 648.49 3855.33 647.8 3855.25 646.96 3855.21 645.603 3855.83 644.311 3856.9 643.48 3859.99 641.874 3863.24 640.604 3866.6 639.69 3867.78 639.38 3869.37 640.69 3870.77 641.23 3870.18 642.43 3869.89 644.23 3868.93 644.7 3865.54 646.41 3861.94 647.68 3858 649.29Z" transform="translate(-3737.69 -586.45)"/><path d="M3806.31 623.17C3805.31 624.46 3804.74 625.82 3803.92 626.02 3802.71 626.298 3801.43 626.015 3800.45 625.25 3798.17 622.651 3796.12 619.869 3794.3 616.93 3793.81 615.761 3793.87 614.435 3794.45 613.31 3794.78 612.68 3796.98 612.17 3797.32 612.54 3800.4 615.91 3803.24 619.48 3806.31 623.17Z" transform="translate(-3737.69 -586.45)"/><path d="M3840.28 626.32C3839.28 623.67 3837.98 621.94 3838.4 620.96 3839.72 617.952 3841.45 615.14 3843.54 612.6 3844.07 611.96 3846.43 612.84 3847.94 613.02 3846.88 615.82 3845.94 618.71 3844.67 621.38 3844 622.82 3842.49 623.89 3840.28 626.32Z" transform="translate(-3737.69 -586.45)"/></svg>