<svg viewBox="0 0 65.56 15.9" xmlns="http://www.w3.org/2000/svg" xmlns:xlink="http://www.w3.org/1999/xlink" id="Capa_1" overflow="hidden"><defs></defs><path d="M24.14 4.4 15.51 4.4 15.51 6.75 18.56 6.75 18.56 15.6 21.1 15.6 21.1 6.75 24.14 6.75 24.14 4.4Z" fill="#231F20"/><path d="M702.13 627.74C702.191 627.339 702.361 626.962 702.62 626.65 702.938 626.308 703.383 626.112 703.85 626.11 704.291 626.105 704.717 626.27 705.04 626.57 705.315 626.9 705.476 627.311 705.5 627.74ZM706.13 629.87C705.814 630.75 704.975 631.332 704.04 631.32 703.013 631.343 702.162 630.528 702.14 629.501 702.138 629.421 702.141 629.34 702.15 629.26L708 629.26C708.068 627.926 707.653 626.612 706.83 625.56 706.042 624.76 704.953 624.328 703.83 624.37 700.57 624.37 699.58 626.94 699.58 628.93 699.423 631.134 701.081 633.047 703.285 633.205 703.446 633.216 703.608 633.218 703.77 633.21 704.92 633.226 706.034 632.808 706.89 632.04 707.272 631.669 707.608 631.252 707.89 630.8Z" fill="#231F20" transform="translate(-677.04 -617.31)"/><path d="M711.49 625.38C711.717 625.107 712 624.885 712.32 624.73 712.797 624.539 713.306 624.437 713.82 624.43 714.334 624.421 714.842 624.538 715.3 624.77 716.17 625.23 716.39 625.97 716.39 627.25L716.39 632.91 714 632.91 714 628.25C714.043 627.836 714.002 627.418 713.88 627.02 713.69 626.596 713.253 626.339 712.79 626.38 711.51 626.38 711.51 627.38 711.51 628.44L711.51 632.91 709 632.91 709 624.65 711.45 624.65Z" fill="#231F20" transform="translate(-677.04 -617.31)"/><path d="M722.28 629C722.28 629.85 722.28 630.61 721.43 631.12 721.181 631.286 720.89 631.38 720.59 631.39 720.104 631.413 719.693 631.037 719.67 630.552 719.67 630.551 719.67 630.551 719.67 630.55 719.67 629.92 720.3 629.68 720.67 629.55ZM720.07 627C720.13 626.7 720.27 626 721.35 626 722.22 626 722.25 626.63 722.28 627L722.28 627.44C721.175 627.613 720.085 627.87 719.02 628.21 718.016 628.579 717.331 629.512 717.28 630.58 717.27 631.966 718.386 633.098 719.772 633.108 719.845 633.108 719.917 633.106 719.99 633.1 720.926 633.083 721.825 632.728 722.52 632.1L722.52 632.86 724.91 632.86C724.72 632.57 724.67 632.45 724.67 631.56L724.67 626.74C724.67 624.61 722.22 624.37 721.21 624.37 720.25 624.3 719.295 624.558 718.5 625.1 717.935 625.536 717.612 626.216 717.63 626.93Z" fill="#231F20" transform="translate(-677.04 -617.31)"/><path d="M728.42 625.5C729.074 624.896 729.92 624.541 730.81 624.5L730.81 626.65 730 626.78C728.83 626.98 728.48 627.16 728.48 628.2L728.48 632.86 726 632.86 726 624.57 728.38 624.57Z" fill="#231F20" transform="translate(-677.04 -617.31)"/><path d="M731.74 621.71 734.15 621.71 734.15 623.59 731.74 623.59ZM731.74 624.62 734.15 624.62 734.15 632.91 731.74 632.91Z" fill="#231F20" transform="translate(-677.04 -617.31)"/><path d="M736.22 630.12C736.843 630.801 737.708 631.211 738.63 631.26 739.21 631.26 740.1 631.07 740.1 630.45 740.099 630.243 739.972 630.057 739.78 629.98 739.327 629.808 738.853 629.701 738.37 629.66 737.995 629.599 737.625 629.516 737.26 629.41 736.746 629.291 736.272 629.043 735.88 628.69 735.484 628.272 735.266 627.716 735.27 627.14 735.27 625.78 736.44 624.37 738.75 624.37 740.084 624.362 741.382 624.798 742.44 625.61L740.94 627C740.355 626.506 739.625 626.218 738.86 626.18 737.86 626.18 737.69 626.56 737.69 626.79 737.69 627.27 738.21 627.36 739.01 627.51 740.67 627.81 742.6 628.25 742.6 630.22 742.6 632.19 740.6 633.11 738.69 633.11 737.194 633.149 735.747 632.57 734.69 631.51Z" fill="#231F20" transform="translate(-677.04 -617.31)"/><rect x="0" y="10.81" width="12.47" height="0.38" fill="#231F20"/><rect x="0" y="4.4" width="12.47" height="2.35" fill="#231F20"/><rect x="0" y="0.87" width="12.47" height="0.59" fill="#231F20"/><rect x="0" y="9.7" width="12.47" height="0.59" fill="#231F20"/><rect x="0" y="2.18" width="12.47" height="1.18" fill="#231F20"/><rect x="0" y="7.8" width="12.47" height="1.18" fill="#231F20"/><rect x="0" y="0" width="12.47" height="0.38" fill="#231F20"/></svg>