<svg viewBox="0 0 225 225" xmlns="http://www.w3.org/2000/svg" xmlns:xlink="http://www.w3.org/1999/xlink" id="Capa_1" overflow="hidden"><path d="M2968.6 553.55C2974.41 555.98 2979.53 559.11 2981.54 565.64 2984.47 574.704 2979.5 584.43 2970.44 587.362 2961.37 590.294 2951.65 585.323 2948.71 576.258 2946 567.875 2950.04 558.795 2958.09 555.2L2961.6 553.55ZM2964.9 581.65C2970.66 581.893 2975.53 577.42 2975.77 571.66 2975.78 571.487 2975.78 571.313 2975.78 571.14 2975.89 565.247 2971.21 560.378 2965.31 560.265 2959.42 560.152 2954.55 564.837 2954.44 570.73 2954.17 576.484 2958.61 581.368 2964.37 581.639 2964.55 581.647 2964.72 581.651 2964.9 581.65Z" transform="translate(-2852.6 -553.55)"/><path d="M2852.6 662.55C2855.03 656.75 2858.16 651.63 2864.69 649.62 2873.78 646.754 2883.47 651.801 2886.34 660.892 2889.04 669.449 2884.73 678.645 2876.43 682.05 2867.82 685.535 2858 681.549 2854.26 673.05 2853.71 671.87 2853.15 670.7 2852.6 669.53ZM2880.71 666.09C2880.85 660.309 2876.28 655.51 2870.5 655.37 2870.33 655.366 2870.17 655.366 2870 655.37 2864.1 655.351 2859.3 660.117 2859.28 666.015 2859.27 671.913 2864.03 676.711 2869.93 676.73 2875.7 676.913 2880.52 672.386 2880.71 666.617 2880.71 666.441 2880.71 666.266 2880.71 666.09Z" transform="translate(-2852.6 -553.55)"/><path d="M3077.6 669.55C3075.18 675.36 3072.05 680.47 3065.52 682.48 3056.45 685.386 3046.74 680.388 3043.83 671.315 3040.92 662.242 3045.92 652.531 3054.99 649.625 3063.36 646.944 3072.41 650.981 3076 659 3076.54 660.18 3077.1 661.35 3077.65 662.52ZM3060.29 676.73C3066.19 676.691 3070.94 671.878 3070.9 665.98 3070.86 660.082 3066.05 655.331 3060.15 655.37 3054.25 655.409 3049.5 660.222 3049.54 666.12 3049.58 672.018 3054.39 676.769 3060.29 676.73Z" transform="translate(-2852.6 -553.55)"/><path d="M2961.6 778.55C2955.8 776.13 2950.68 772.99 2948.67 766.47 2945.8 757.379 2950.85 747.685 2959.94 744.819 2968.5 742.122 2977.69 746.43 2981.1 754.73 2984.58 763.338 2980.59 773.153 2972.1 776.9 2970.92 777.44 2969.76 778 2968.58 778.55ZM2965.35 750.45C2959.58 750.19 2954.7 754.654 2954.44 760.419 2954.43 760.589 2954.43 760.76 2954.43 760.93 2954.3 766.823 2958.97 771.708 2964.86 771.84 2970.75 771.973 2975.64 767.303 2975.77 761.41 2976.06 755.651 2971.62 750.75 2965.86 750.463 2965.69 750.454 2965.52 750.45 2965.35 750.45Z" transform="translate(-2852.6 -553.55)"/><path d="M2983.8 668.86C2974.8 682.62 2956.8 684.05 2946.32 668.86 2942.9 670.19 2939.32 671.37 2935.88 672.98 2931.56 674.98 2929.59 678.63 2929.62 683.45 2929.69 692.11 2929.81 700.77 2929.51 709.45 2929.44 711.28 2927.87 714.38 2926.62 714.58 2922.96 715.18 2923.2 711.89 2923.19 709.43 2923.13 700.763 2923.13 692.097 2923.19 683.43 2923.26 675.03 2927.19 669.25 2935.12 666.25 2939 664.79 2942.84 663.25 2946.69 661.67 2951.42 659.77 2953.63 652.86 2950.19 649.01 2943.56 641.59 2943.14 631.95 2941.09 623.16 2938.99 614.16 2946.99 604.67 2956.24 603.54 2961.85 602.853 2967.52 602.827 2973.13 603.46 2984.85 604.79 2992.03 616.56 2988.53 627.78 2987.36 631.54 2986.64 635.45 2985.31 639.14 2984.32 642.125 2982.91 644.954 2981.12 647.54 2976.49 653.81 2977.88 659.54 2985.03 662.32 2988.9 663.81 2992.85 665.15 2996.61 666.86 3002.87 669.71 3006.61 674.61 3006.85 681.59 3007.11 691.243 3007.11 700.91 3006.85 710.59 3006.85 712.04 3004.91 713.45 3003.85 714.87 3002.75 713.35 3000.74 711.87 3000.68 710.31 3000.36 702 3000.54 693.67 3000.52 685.31 3000.52 677.31 2998.7 674.62 2991.41 671.74 2989 670.76 2986.51 669.87 2983.8 668.86ZM2979.16 630.5C2977.98 630.22 2976.69 630.01 2975.46 629.6 2969.46 627.6 2963.46 625.74 2957.64 623.42 2956.44 622.94 2955.93 620.72 2955.11 619.3 2956.79 618.76 2958.46 617.87 2960.11 617.79 2961.29 617.73 2962.48 618.93 2963.74 619.31 2969.82 621.14 2975.92 622.88 2982.01 624.65L2983.21 623.19C2982.47 620.59 2982.21 617.7 2980.91 615.45 2975.72 606.65 2954.47 606.55 2949.31 615.39 2947.97 617.69 2946.99 622.57 2948.12 623.51 2951.48 626.29 2950.52 629.51 2950.59 632.58 2950.82 642.65 2957.05 649.11 2966.23 648.58 2974.8 648 2980.18 640.64 2979.16 630.5ZM2971.37 654.81 2958.87 654.81C2957.13 658.95 2955.47 662.9 2953.66 667.24 2959.6 675.79 2970.98 675.72 2976.48 667.24Z" transform="translate(-2852.6 -553.55)"/><path d="M2937.33 572C2938.01 572.72 2939.81 573.88 2939.65 574.59 2939.3 576.205 2938.32 577.614 2936.93 578.51 2931.29 581.3 2925.22 583.26 2919.77 586.33 2899.88 597.56 2886.16 614.11 2878.48 635.64 2878.04 636.89 2877.83 638.43 2876.96 639.26 2875.95 640.192 2874.61 640.669 2873.24 640.58 2872.43 640.44 2871.62 638.77 2871.32 637.65 2871.24 636.653 2871.44 635.654 2871.89 634.76 2882.73 604.387 2903.34 583.767 2933.72 572.9 2934.65 572.53 2935.65 572.38 2937.33 572Z" transform="translate(-2852.6 -553.55)"/><path d="M3060.7 639.3C3059.33 639.81 3057.84 640.91 3056.61 640.67 3054.99 640.334 3053.58 639.351 3052.71 637.95 3049.85 632.17 3047.83 625.95 3044.65 620.35 3033.45 600.66 3016.97 587.09 2995.65 579.45 2994.87 579.17 2993.82 579.1 2993.37 578.55 2992.32 577.152 2991.36 575.689 2990.49 574.17 2992.16 573.63 2994.1 572.25 2995.49 572.69 3000.56 574.276 3005.48 576.283 3010.21 578.69 3033.21 590.85 3049.31 609.12 3057.97 633.77 3058.3 634.71 3058.58 635.66 3058.86 636.62 3058.95 636.93 3058.98 637.27 3059.04 637.62Z" transform="translate(-2852.6 -553.55)"/><path d="M2875.65 691.3C2876.65 692.728 2877.5 694.252 2878.19 695.85 2884.64 714.35 2895.59 729.63 2911.76 740.62 2919.1 745.62 2927.56 749 2935.57 752.98 2937.78 754.09 2940.9 754.51 2939.64 757.98 2938.38 761.45 2935.49 759.86 2933.29 759.07 2903.2 748.283 2882.77 727.83 2872.02 697.71 2870.48 693.39 2871.43 691.14 2875.65 691.3Z" transform="translate(-2852.6 -553.55)"/><path d="M3059.32 694.53C3057.88 698.43 3056.87 701.79 3055.44 704.96 3043.63 731.18 3024.31 749.35 2997.11 758.96 2996.8 759.07 2996.47 759.36 2996.19 759.31 2994.3 758.95 2991.37 759.12 2990.75 758.01 2989.21 755.27 2991.75 754.32 2993.98 753.18 3002.72 748.82 3011.88 744.98 3019.86 739.47 3035.22 728.87 3045.54 714.07 3051.73 696.47 3052.12 695.37 3052.25 693.94 3053.03 693.29 3054.12 692.273 3055.54 691.684 3057.03 691.63 3058 691.74 3058.65 693.61 3059.32 694.53Z" transform="translate(-2852.6 -553.55)"/><path d="M2943.66 706.24C2943.66 711.24 2943.9 716.24 2943.52 721.24 2943.4 722.74 2941.57 724.12 2940.52 725.56 2939.45 724.16 2937.52 722.8 2937.45 721.37 2937.17 711.557 2937.17 701.733 2937.45 691.9 2937.45 690.45 2939.36 689.04 2940.39 687.61 2941.48 689.16 2943.39 690.61 2943.51 692.28 2943.94 696.88 2943.66 701.57 2943.66 706.24Z" transform="translate(-2852.6 -553.55)"/><path d="M2986.55 706.24C2986.55 701.57 2986.26 696.88 2986.69 692.24 2986.85 690.6 2988.69 689.12 2989.82 687.57 2990.82 689 2992.72 690.41 2992.76 691.86 2993.02 701.68 2993.02 711.503 2992.76 721.33 2992.76 722.76 2990.76 724.12 2989.69 725.52 2988.69 724.08 2986.82 722.7 2986.69 721.2 2986.31 716.25 2986.55 711.23 2986.55 706.24Z" transform="translate(-2852.6 -553.55)"/></svg>