<svg viewBox="0 0 636.41 219.45" xmlns="http://www.w3.org/2000/svg" xmlns:xlink="http://www.w3.org/1999/xlink" id="Capa_1" overflow="hidden"><style>
.MsftOfcResponsive_Fill_01a74d {
 fill:#01A74D; 
}
</style>
<defs></defs><path d="M1961.38 6.13C2031.38 6.13 2101.33 5.98 2171.3 6.21 2191.63 6.28 2211.66 9.68 2231.67 13.21 2252.25 17.0161 2272.53 22.3304 2292.33 29.11 2303.96 33 2315.15 38.47 2326.78 42.11 2336.14 45.02 2336.96 51.34 2338.58 58.43 2342.19 74.2833 2345.84 90.14 2349.52 106 2355.24 130.8 2360.86 155.63 2367.44 180.22 2368.07 182.57 2367.73 183.9 2365.17 184.68 2359.46 186.43 2353.84 188.52 2348.17 190.33 2340.92 192.63 2333.84 195.59 2326.55 197.54 2317.78 199.89 2309.24 202.88 2300.62 205.62 2286.08 210.24 2271.61 215.097 2257.21 220.19 2253.12 221.63 2248.36 221.31 2244.92 224.81 2243.92 225.81 2242.04 225.2 2240.64 224.54 2214.3 212.02 2186.21 206.96 2157.38 206.54 2119.07 206 2080.74 206.46 2042.38 206.54 2036.22 206.54 2036 206.54 2037.2 200.54 2039.03 191.43 2041.3 182.41 2043.2 173.32 2045.1 164.23 2046.55 155.04 2048.69 146.01 2050.69 137.46 2051.84 128.75 2053.58 120.16 2055.08 112.79 2054.72 112.57 2047.47 110.74 2037.32 108.19 2027.3 105.11 2017.28 102.08 1999.45 96.69 1981.65 91.19 1963.85 85.71 1942.71 79.21 1921.57 72.71 1900.47 66.11 1897.78 65.1816 1894.81 65.6462 1892.54 67.35 1871.69 80.772 1852.05 95.9934 1833.85 112.84 1830.4 116.06 1826.98 117.18 1822.05 117.1 1797.23 116.68 1772.4 116.91 1747.58 116.95 1743.57 116.785 1739.56 116.929 1735.58 117.38 1731.93 117.95 1731.23 116.53 1731.26 113.38 1731.35 101.56 1731.35 89.73 1731.35 77.9 1731.35 56.41 1731.35 34.9 1731.24 13.42 1731.24 5.74 1731.09 5.83 1738.89 5.84 1813.03 5.84 1887.17 5.84 1961.31 5.84Z" class="MsftOfcResponsive_Fill_01a74d" fill="#01A74D" transform="translate(-1731.3 -5.88)"/></svg>