<svg width="17.5" height="21" viewBox="0 0 17.5 21" xmlns="http://www.w3.org/2000/svg" xmlns:xlink="http://www.w3.org/1999/xlink" xml:space="preserve" overflow="visible"><style>
.MsftOfcResponsive_Fill_cfcfcf {
 fill:#CFCFCF; 
}
.MsftOfcResponsive_Stroke_d9d9d9 {
 stroke:#D9D9D9; 
}
</style>
<defs></defs><g><path d="M8.6 17.9C3.9 17.9 0 14 0 9.3 0 4.6 3.9 0.7 8.6 0.7 10 0.7 11.4 1.1 12.7 1.7 12.9 1.8 13 2 12.9 2.2 12.8 2.4 12.6 2.5 12.4 2.4 11.3 1.8 10 1.5 8.7 1.5 4.4 1.5 0.9 5 0.9 9.3 0.9 13.6 4.4 17.1 8.7 17.1 13 17.1 16.5 13.6 16.5 9.3 16.5 7.8 16.1 6.4 15.3 5.2 15.2 5 15.2 4.8 15.4 4.7 15.6 4.6 15.8 4.6 15.9 4.8 16.7 6.2 17.2 7.7 17.2 9.3 17.2 14 13.4 17.9 8.6 17.9Z" class="MsftOfcResponsive_Fill_cfcfcf MsftOfcResponsive_Stroke_d9d9d9" stroke="#D9D9D9" stroke-width="0.222222" fill="#CFCFCF"/><path d="M8.6 16.1C4.8 16.1 1.8 13 1.8 9.3 1.8 5.6 4.9 2.5 8.6 2.5 12.3 2.5 15.4 5.6 15.4 9.3 15.4 13 12.4 16.1 8.6 16.1ZM8.6 3.2C5.3 3.2 2.6 5.9 2.6 9.2 2.6 12.5 5.3 15.2 8.6 15.2 11.9 15.2 14.6 12.5 14.6 9.2 14.6 5.9 11.9 3.2 8.6 3.2Z" class="MsftOfcResponsive_Fill_cfcfcf MsftOfcResponsive_Stroke_d9d9d9" stroke="#D9D9D9" stroke-width="0.222222" fill="#CFCFCF"/><path d="M8.6 14.3C5.8 14.3 3.5 12 3.5 9.2 3.5 6.4 5.8 4.1 8.6 4.1 11.4 4.1 13.7 6.4 13.7 9.2 13.7 12 11.4 14.3 8.6 14.3ZM8.6 5C6.3 5 4.4 6.9 4.4 9.3 4.4 11.7 6.3 13.6 8.7 13.6 11.1 13.6 13 11.7 13 9.3 13 6.9 11 5 8.6 5Z" class="MsftOfcResponsive_Fill_cfcfcf MsftOfcResponsive_Stroke_d9d9d9" stroke="#D9D9D9" stroke-width="0.222222" fill="#CFCFCF"/><path d="M8.6 12.5C6.8 12.5 5.4 11.1 5.4 9.3 5.4 7.5 6.8 6.1 8.6 6.1 10.4 6.1 11.8 7.5 11.8 9.3 11.8 11.1 10.4 12.5 8.6 12.5ZM8.6 6.9C7.3 6.9 6.2 8 6.2 9.3 6.2 10.6 7.3 11.7 8.6 11.7 9.9 11.7 11 10.6 11 9.3 11 8 9.9 6.9 8.6 6.9Z" class="MsftOfcResponsive_Fill_cfcfcf MsftOfcResponsive_Stroke_d9d9d9" stroke="#D9D9D9" stroke-width="0.222222" fill="#CFCFCF"/><path d="M3.9 21C3.5 21 3.1 20.8 2.8 20.5 2.5 20.2 2.4 19.8 2.4 19.4L2.7 15.3C2.7 15.1 2.9 14.9 3.1 14.9 3.3 14.9 3.5 15.1 3.5 15.3L3.2 19.4C3.2 19.6 3.2 19.8 3.4 19.9 3.5 20 3.7 20.1 3.9 20.1 4.2 20.1 4.4 19.9 4.5 19.7L5.8 17C5.9 16.8 6.1 16.7 6.3 16.8 6.5 16.9 6.6 17.1 6.5 17.3L5.2 20.2C5 20.7 4.4 21 3.9 21Z" class="MsftOfcResponsive_Fill_cfcfcf MsftOfcResponsive_Stroke_d9d9d9" stroke="#D9D9D9" stroke-width="0.222222" fill="#CFCFCF"/><path d="M13.4 21C12.8 21 12.3 20.7 12 20.1L10.7 17.2C10.6 17 10.7 16.8 10.9 16.7 11.1 16.6 11.3 16.7 11.4 16.9L12.7 19.8C12.8 20.1 13.1 20.2 13.3 20.2 13.5 20.2 13.7 20.1 13.8 20 13.9 19.9 14 19.7 14 19.5L13.7 15.4C13.7 15.2 13.8 15 14.1 15 14.3 15 14.5 15.1 14.5 15.4L14.8 19.5C14.8 19.9 14.7 20.3 14.4 20.6 14.2 20.8 13.8 21 13.4 21Z" class="MsftOfcResponsive_Fill_cfcfcf MsftOfcResponsive_Stroke_d9d9d9" stroke="#D9D9D9" stroke-width="0.222222" fill="#CFCFCF"/><path d="M16.9 21 0.4 21C0.2 21 0 20.8 0 20.6 0 20.4 0.2 20.2 0.4 20.2L16.9 20.2C17.1 20.2 17.3 20.4 17.3 20.6 17.2 20.8 17.1 21 16.9 21Z" class="MsftOfcResponsive_Fill_cfcfcf MsftOfcResponsive_Stroke_d9d9d9" stroke="#D9D9D9" stroke-width="0.222222" fill="#CFCFCF"/><path d="M9.1 8.8C9 8.8 8.9 8.8 8.8 8.7 8.6 8.5 8.6 8.3 8.8 8.1L15 2C15.2 1.8 15.4 1.8 15.6 2 15.8 2.2 15.8 2.4 15.6 2.6L9.4 8.7C9.3 8.8 9.2 8.8 9.1 8.8Z" class="MsftOfcResponsive_Fill_cfcfcf MsftOfcResponsive_Stroke_d9d9d9" stroke="#D9D9D9" stroke-width="0.222222" fill="#CFCFCF"/><path d="M14.1 3.8C13.9 3.8 13.8 3.7 13.7 3.5 13.4 2.5 13.6 1.3 14.4 0.5L14.8 0.1C14.9-0.1 15.2-0.1 15.4 0.1 15.6 0.2 15.6 0.5 15.4 0.7L15 1.1C14.4 1.7 14.3 2.6 14.5 3.3 14.6 3.5 14.5 3.7 14.2 3.8 14.2 3.8 14.1 3.8 14.1 3.8Z" class="MsftOfcResponsive_Fill_cfcfcf MsftOfcResponsive_Stroke_d9d9d9" stroke="#D9D9D9" stroke-width="0.222222" fill="#CFCFCF"/><path d="M14.9 3.9C14.6 3.9 14.3 3.9 14 3.8 13.8 3.7 13.7 3.5 13.7 3.3 13.8 3.1 14 3 14.2 3 15 3.3 15.8 3.1 16.4 2.5L16.8 2.1C17 2 17.3 2 17.4 2.2 17.5 2.4 17.5 2.6 17.4 2.8L17 3.1C16.4 3.7 15.7 3.9 14.9 3.9Z" class="MsftOfcResponsive_Fill_cfcfcf MsftOfcResponsive_Stroke_d9d9d9" stroke="#D9D9D9" stroke-width="0.222222" fill="#CFCFCF"/></g></svg>