<svg width="19.9" height="19.7" viewBox="0 0 19.9 19.7" xmlns="http://www.w3.org/2000/svg" xmlns:xlink="http://www.w3.org/1999/xlink" xml:space="preserve" overflow="visible"><style>
.MsftOfcResponsive_Fill_cfcfcf {
 fill:#CFCFCF; 
}
</style>
<defs></defs><g><path d="M2.4 10.6C2.4 10.6 2.4 10.6 2.4 10.6L0.3 10.2C0.2 10.2 0.1 10.1 -1.66533e-16 10 -1.66533e-16 9.9 -1.66533e-16 9.7 -1.66533e-16 9.6 0.7 8.6 1.6 7.7 2.7 6.8 4.9 5.2 7.1 3.7 9.9 4 10.1 4 10.3 4.2 10.3 4.4 10.3 4.6 10.1 4.8 9.9 4.8 7.3 4.5 5.3 5.9 3.3 7.4 2.4 8.1 1.7 8.8 1.1 9.5L2.5 9.8C2.7 9.8 2.9 10 2.8 10.3 2.8 10.5 2.6 10.6 2.4 10.6Z" class="MsftOfcResponsive_Fill_cfcfcf" fill="#CFCFCF"/><path d="M9.3 15.6C9.2 15.6 9.1 15.6 9 15.5L4.4 10.9C4.3 10.8 4.2 10.6 4.3 10.4 6.7 6.6 9.4 4.1 11.2 2.7 12.9 1.4 15 0.4 17.2 0 17.9-0.1 18.7 0.1 19.2 0.6 19.7 1.1 19.9 1.9 19.8 2.6 19.4 4.8 18.4 6.9 17.1 8.6 15.7 10.4 13.2 13.1 9.4 15.5 9.4 15.6 9.3 15.6 9.3 15.6ZM5.2 10.6 9.4 14.8C12.9 12.5 15.3 10 16.6 8.2 17.9 6.6 18.7 4.6 19.2 2.5 19.3 2 19.2 1.6 18.8 1.2 18.5 0.9 18 0.7 17.5 0.8 15.4 1.2 13.4 2.1 11.8 3.4 10 4.7 7.4 7 5.2 10.6Z" class="MsftOfcResponsive_Fill_cfcfcf" fill="#CFCFCF"/><path d="M10.3 19.7C10.3 19.7 10.2 19.7 10.2 19.7 10.1 19.7 10 19.6 9.9 19.4L9.4 17.4C9.3 17.2 9.5 17 9.7 16.9 9.9 16.8 10.1 17 10.2 17.2L10.5 18.6C11.2 18 11.8 17.4 12.4 16.6 13.9 14.6 15.3 12.6 15.1 10.1 15.1 9.9 15.2 9.7 15.5 9.7 15.7 9.7 15.9 9.8 15.9 10.1 16.1 12.9 14.7 15.1 13 17.2 12.2 18.2 11.4 19.1 10.5 19.7 10.4 19.6 10.4 19.7 10.3 19.7Z" class="MsftOfcResponsive_Fill_cfcfcf" fill="#CFCFCF"/><path d="M18.6 5.8C18.6 5.8 18.5 5.8 18.6 5.8 16.3 5.5 14.4 3.6 14.1 1.3L14.9 1.2C15.2 3.1 16.7 4.7 18.7 5 18.9 5 19.1 5.2 19 5.4 18.9 5.7 18.8 5.8 18.6 5.8Z" class="MsftOfcResponsive_Fill_cfcfcf" fill="#CFCFCF"/><path d="M11.2 14.3C11.1 14.3 11 14.3 10.9 14.2L5.7 9C5.5 8.8 5.5 8.6 5.7 8.4 5.9 8.2 6.1 8.2 6.3 8.4L11.5 13.6C11.7 13.8 11.7 14 11.5 14.2 11.4 14.3 11.3 14.3 11.2 14.3Z" class="MsftOfcResponsive_Fill_cfcfcf" fill="#CFCFCF"/><path d="M4.3 17.4C3.9 17.4 3.4 17.3 2.9 17.2 2.8 17.2 2.7 17.1 2.6 16.9 2.2 15.8 2.3 14.8 2.8 14 3.5 12.8 4.8 12.5 4.9 12.5 5.1 12.5 5.3 12.6 5.4 12.8 5.4 13 5.3 13.2 5.1 13.3 5.1 13.3 4 13.6 3.5 14.5 3.2 15 3.1 15.7 3.4 16.6 4.2 16.8 4.9 16.8 5.5 16.5 6.4 16 6.6 14.9 6.6 14.9 6.6 14.7 6.9 14.6 7.1 14.6 7.3 14.6 7.4 14.9 7.4 15.1 7.4 15.2 7.1 16.5 5.9 17.2 5.4 17.3 4.9 17.4 4.3 17.4Z" class="MsftOfcResponsive_Fill_cfcfcf" fill="#CFCFCF"/><path d="M13.6 7.6C13.2 7.6 12.9 7.5 12.7 7.2 12.2 6.7 12.2 5.8 12.7 5.3 13.2 4.8 14.1 4.8 14.6 5.3 15.1 5.8 15.1 6.7 14.6 7.2 14.3 7.5 14 7.6 13.6 7.6ZM13.6 5.7C13.5 5.7 13.3 5.8 13.2 5.9 13 6.1 13 6.4 13.2 6.6 13.4 6.8 13.7 6.8 13.9 6.6 14.1 6.4 14.1 6.1 13.9 5.9 13.9 5.8 13.8 5.7 13.6 5.7Z" class="MsftOfcResponsive_Fill_cfcfcf" fill="#CFCFCF"/><path d="M10.8 10.4C10.4 10.4 10.1 10.3 9.9 10 9.4 9.5 9.4 8.6 9.9 8.1 10.4 7.6 11.3 7.6 11.8 8.1 12.3 8.6 12.3 9.5 11.8 10 11.5 10.2 11.2 10.4 10.8 10.4ZM10.8 8.5C10.7 8.5 10.5 8.6 10.4 8.7 10.2 8.9 10.2 9.2 10.4 9.4 10.6 9.6 10.9 9.6 11.1 9.4 11.3 9.2 11.3 8.9 11.1 8.7 11.1 8.6 11 8.5 10.8 8.5Z" class="MsftOfcResponsive_Fill_cfcfcf" fill="#CFCFCF"/></g></svg>