<svg width="57.2" height="51.2" viewBox="0 0 57.2 51.2" xmlns="http://www.w3.org/2000/svg" xmlns:xlink="http://www.w3.org/1999/xlink" xml:space="preserve" overflow="visible"><style>
.MsftOfcResponsive_Fill_cfcfcf {
 fill:#CFCFCF; 
}
</style>
<defs></defs><g><path d="M40.8 51.2 21.6 51.2C21.3 51.2 21 51 20.8 50.7 20.6 50.4 20.6 50.1 20.8 49.8 21.5 48.5 22 47 22.5 45.2 24 39.2 23.1 32.6 19.8 26.6 18.1 23.6 17.4 20.1 17.7 16.6 18.4 7.7 25.6 0.6 34.5 0 39.6-0.3 44.4 1.4 48.1 4.8 51.8 8.2 53.8 13 53.8 18 53.8 18.8 53.7 19.7 53.6 20.7L56.8 25.6C57.3 26.3 57.3 27.2 56.9 27.9 56.5 28.6 55.7 29.1 54.9 29.1L54.5 29.1 54.5 31.2C54.5 31.5 54.3 31.8 54 32L52 33.2C52 33.2 52 33.3 52 33.4L52.9 34C53.1 34.2 53.3 34.5 53.3 34.8L53.3 35.9C53.3 39.5 50.4 42.4 46.8 42.4L41.8 42.4 41.8 50.3C41.8 50.8 41.3 51.2 40.8 51.2ZM23.1 49.3 39.9 49.3 39.9 41.4C39.9 40.9 40.3 40.5 40.8 40.5L46.7 40.5C49.2 40.5 51.3 38.4 51.3 35.9L51.3 35.3 50.6 34.8C50.5 34.7 50.4 34.6 50.3 34.5 49.7 33.5 50.1 32.2 51.1 31.6L52.6 30.7 52.6 28.9C52.6 28 53.3 27.2 54.3 27.2L54.9 27.2C55.1 27.2 55.2 27.1 55.2 27 55.2 26.9 55.3 26.8 55.2 26.6L51.8 21.4C51.7 21.2 51.6 21 51.7 20.7 51.9 19.7 51.9 18.8 51.9 18 51.9 13.5 50 9.2 46.8 6.2 43.5 3.1 39.2 1.6 34.6 1.9 26.6 2.4 20.2 8.9 19.6 16.8 19.3 20 20 23 21.5 25.8 25 32.2 26 39.2 24.3 45.7 24 47 23.6 48.2 23.1 49.3Z" class="MsftOfcResponsive_Fill_cfcfcf" fill="#CFCFCF"/><path d="M16.3 51.2C15.8 51.2 15.4 50.8 15.4 50.3L15.4 42.4 10.4 42.4C6.8 42.4 3.9 39.5 3.9 35.9L3.9 34.8C3.9 34.5 4 34.2 4.3 34L5.2 33.4C5.2 33.3 5.2 33.2 5.1 33.1L3.1 31.9C2.8 31.7 2.6 31.4 2.6 31.1L2.6 29 2.3 29C1.5 29 0.7 28.5 0.3 27.8-0.1 27.1-0.1 26.2 0.4 25.5L3.6 20.6C3.5 19.7 3.4 18.8 3.4 17.9 3.4 12.9 5.5 8.1 9.1 4.7 12.8 1.2 17.6-0.5 22.7-0.1 23.2-0.1 23.6 0.4 23.6 0.9 23.6 1.4 23.1 1.8 22.6 1.8 18 1.6 13.7 3.1 10.4 6.2 7.1 9.3 5.3 13.6 5.3 18 5.3 18.8 5.4 19.7 5.5 20.7 5.5 20.9 5.5 21.2 5.4 21.4L2 26.6C1.9 26.8 1.9 26.9 2 27 2 27.1 2.1 27.2 2.3 27.2L2.9 27.2C3.8 27.2 4.6 27.9 4.6 28.9L4.6 30.7 6 31.6C7 32.2 7.3 33.5 6.8 34.5 6.7 34.6 6.7 34.7 6.5 34.8L5.8 35.3 5.8 35.9C5.8 38.4 7.9 40.5 10.4 40.5L16.3 40.5C16.8 40.5 17.2 40.9 17.2 41.4L17.2 50.2C17.3 50.8 16.9 51.2 16.3 51.2Z" class="MsftOfcResponsive_Fill_cfcfcf" fill="#CFCFCF"/><path d="M18.6 42.4 16.4 42.4C15.9 42.4 15.5 42 15.5 41.5 15.5 41 15.9 40.6 16.4 40.6L18.6 40.6C19.1 40.6 19.5 41 19.5 41.5 19.5 42 19.1 42.4 18.6 42.4Z" class="MsftOfcResponsive_Fill_cfcfcf" fill="#CFCFCF"/><path d="M40.8 42.4 35.8 42.4C35.3 42.4 34.9 42 34.9 41.5 34.9 41 35.3 40.6 35.8 40.6L40.8 40.6C41.3 40.6 41.7 41 41.7 41.5 41.7 42 41.3 42.4 40.8 42.4Z" class="MsftOfcResponsive_Fill_cfcfcf" fill="#CFCFCF"/><path d="M44.4 51.2 12.8 51.2C12.3 51.2 11.9 50.8 11.9 50.3 11.9 49.8 12.3 49.4 12.8 49.4L44.4 49.4C44.9 49.4 45.3 49.8 45.3 50.3 45.4 50.8 44.9 51.2 44.4 51.2Z" class="MsftOfcResponsive_Fill_cfcfcf" fill="#CFCFCF"/></g></svg>