<svg width="69.7" height="81.4" viewBox="0 0 69.7 81.4" xmlns="http://www.w3.org/2000/svg" xmlns:xlink="http://www.w3.org/1999/xlink" overflow="visible"><defs></defs><g><linearGradient x1="-3603.99" y1="37.8587" x2="178.314" y2="37.8587" gradientUnits="userSpaceOnUse" id="SVGID_1_"><stop offset="0" stop-color="#00D1F5"/><stop offset="1" stop-color="#42598C"/></linearGradient><linearGradient x1="-3603.99" y1="28.1682" x2="178.318" y2="28.1682" gradientUnits="userSpaceOnUse" id="SVGID_4_"><stop offset="0" stop-color="#00D1F5"/><stop offset="1" stop-color="#42598C"/></linearGradient><linearGradient x1="-3603.98" y1="72.107" x2="178.316" y2="72.107" gradientUnits="userSpaceOnUse" id="SVGID_5_"><stop offset="0" stop-color="#00D1F5"/><stop offset="1" stop-color="#42598C"/></linearGradient><linearGradient x1="-3603.99" y1="70.5097" x2="178.315" y2="70.5097" gradientUnits="userSpaceOnUse" id="SVGID_6_"><stop offset="0" stop-color="#00D1F5"/><stop offset="1" stop-color="#42598C"/></linearGradient><linearGradient x1="-3603.99" y1="70.5098" x2="178.315" y2="70.5098" gradientUnits="userSpaceOnUse" id="SVGID_7_"><stop offset="0" stop-color="#00D1F5"/><stop offset="1" stop-color="#42598C"/></linearGradient><path d="M31.8 69.6C14.3 69.6 0 55.4 0 37.9 0 20.3 14.3 6.1 31.8 6.1 34.9 6.1 38 6.6 41 7.5 43.1 8.1 44.3 10.3 43.6 12.4 43 14.5 40.8 15.7 38.7 15 36.5 14.3 34.1 14 31.8 14 18.6 14 7.9 24.7 7.9 37.9 7.9 51.1 18.6 61.8 31.8 61.8 45 61.8 55.7 51 55.7 37.9 55.7 35.5 55.4 33.2 54.7 30.9 54.1 28.8 55.2 26.6 57.3 26 59.4 25.4 61.6 26.5 62.2 28.6 63.1 31.6 63.6 34.7 63.6 37.8 63.5 55.4 49.3 69.6 31.8 69.6Z" fill="url(#SVGID_1_)"/><g><linearGradient x1="-3603.98" y1="10.3264" x2="178.315" y2="10.3264" gradientUnits="userSpaceOnUse" id="SVGID_2_"><stop offset="0" stop-color="#00D1F5"/><stop offset="1" stop-color="#42598C"/></linearGradient><linearGradient x1="-3603.98" y1="16.7175" x2="178.314" y2="16.7175" gradientUnits="userSpaceOnUse" id="SVGID_3_"><stop offset="0" stop-color="#00D1F5"/><stop offset="1" stop-color="#42598C"/></linearGradient><path d="M53 20.7C50.8 20.7 49.1 18.9 49.1 16.8L49.1 3.9C49 1.8 50.8 0 53 0 55.2 0 56.9 1.8 56.9 3.9L56.9 16.7C56.9 18.9 55.1 20.7 53 20.7Z" fill="url(#SVGID_2_)"/><path d="M65.7 20.7 53 20.7C50.8 20.7 49.1 18.9 49.1 16.8 49.1 14.6 50.9 12.9 53 12.9L65.8 12.9C68 12.9 69.7 14.7 69.7 16.8 69.7 18.9 67.9 20.7 65.7 20.7Z" fill="url(#SVGID_3_)"/></g><path d="M31.7 42C30.7 42 29.7 41.6 28.9 40.8 27.4 39.3 27.4 36.8 28.9 35.2L48.6 15.5C50.1 14 52.6 14 54.2 15.5 55.7 17 55.7 19.5 54.2 21.1L34.4 40.8C33.7 41.6 32.7 42 31.7 42Z" fill="url(#SVGID_4_)"/><path d="M31.7 81.4C29.5 81.4 27.8 79.6 27.8 77.5L27.8 66.8C27.8 64.6 29.6 62.9 31.7 62.9 33.9 62.9 35.6 64.7 35.6 66.8L35.6 77.5C35.6 79.6 33.8 81.4 31.7 81.4Z" fill="url(#SVGID_5_)"/><path d="M14.6 81.4C14.1 81.4 13.6 81.3 13.1 81.1 11.1 80.3 10.2 77.9 11 75.9L16.9 62.1C17.7 60.1 20.1 59.2 22.1 60 24.1 60.8 25 63.2 24.2 65.2L18.2 79C17.6 80.5 16.1 81.4 14.6 81.4Z" fill="url(#SVGID_6_)"/><path d="M48.7 81.4C47.2 81.4 45.7 80.5 45.1 79L39.2 65.2C38.4 63.2 39.3 60.9 41.3 60 43.3 59.2 45.6 60.1 46.5 62.1L52.4 75.9C53.2 77.9 52.3 80.2 50.3 81.1 49.7 81.3 49.2 81.4 48.7 81.4Z" fill="url(#SVGID_7_)"/></g></svg>