<svg width="851.4" height="732.7" viewBox="0 0 851.4 732.7" xmlns="http://www.w3.org/2000/svg" xmlns:xlink="http://www.w3.org/1999/xlink" xml:space="preserve" overflow="visible"><defs></defs><g id="XMLID_39_" opacity="0.3"><defs><rect x="101.4" y="0" width="750" height="500" id="XMLID_44_" opacity="0.3"/></defs><clipPath id="XMLID_57_"><use width="100%" height="100%" xlink:href="#XMLID_44_" overflow="visible"></use></clipPath><g id="XMLID_53_" clip-path="url(#XMLID_57_)"><g id="XMLID_55_"><rect x="233.3" y="183.6" width="142.7" height="1" id="XMLID_56_" fill="#31C4F2"/></g><circle cx="376" cy="184.1" r="1.7" id="XMLID_54_" fill="#31C4F2"/></g><g id="XMLID_49_" clip-path="url(#XMLID_57_)"><g id="XMLID_51_"><rect x="24.2" y="114.9" width="142.7" height="1" id="XMLID_52_" fill="#148FCD"/></g><circle cx="166.9" cy="115.4" r="1.7" id="XMLID_50_" fill="#148FCD"/></g><g id="XMLID_45_" clip-path="url(#XMLID_57_)"><g id="XMLID_47_"><rect x="312.8" y="235.4" width="157.5" height="1" id="XMLID_48_" fill="#45399E"/></g><circle cx="312.8" cy="235.9" r="1.7" id="XMLID_46_" fill="#45399E"/></g><g id="XMLID_40_" clip-path="url(#XMLID_57_)"><g id="XMLID_42_"><rect x="384.3" y="291.7" width="68.9" height="1" id="XMLID_43_" fill="#45399E"/></g><circle cx="453.3" cy="292.2" r="1.7" id="XMLID_41_" fill="#45399E"/></g></g><g id="XMLID_15_"><g id="XMLID_26_"><defs><rect x="101.4" y="0" width="750" height="500" id="XMLID_27_"/></defs><clipPath id="XMLID_58_"><use width="100%" height="100%" xlink:href="#XMLID_27_" overflow="visible"></use></clipPath><g id="XMLID_28_" clip-path="url(#XMLID_58_)"><path d="M753.9 499.3C828.3 499.3 851.7 459.3 812.7 417.2L807.1 411.2 804.5 408.4C772.3 373.7 704.7 349 649.9 349L445.4 349C412.4 349 384.7 335.4 383.7 319.8L383.6 319 383.3 314.2C382.4 300.2 404.8 289.5 433.2 289.5 480.3 289.5 511.3 273.1 503.3 254.8L502.9 254 501.5 250.9C494.4 234.9 457.9 222.9 419.5 222.9L276.1 222.9C255 222.9 239.9 217.3 239.9 210.3 239.9 209.6 240 209 240.3 208.3L241.5 205.4C244.6 198.1 263.9 192.4 284.6 192.4 319.1 192.4 347.5 183.5 347.9 173.4L347.9 172.7 348 171.2C348.4 162 324.7 155 295.1 155L15.4 155C9.5 155 3.4 156.3 1.7 158 1.11022e-15 159.7 3.5 161.1 9.5 161.1L293.4 161.1C311.7 161.1 326 165.5 325.2 171.1L325 172.6 324.9 173.3C324.1 179.3 307 184.4 286.9 184.4 253.5 184.4 221.7 193.4 215.5 205.3L214 208.2C213.6 208.9 213.4 209.6 213.2 210.2 209.9 222.7 235.4 233.3 273.2 233.3L421.6 233.3C445.6 233.3 467.7 240.9 471.1 250.7L472.2 253.8 472.5 254.6C476.2 265.4 457.3 274.6 430.1 274.6 384.9 274.6 347.6 291.2 347 313.9L346.8 318.7 346.8 319.5C346 346 392.2 370.5 449.9 370.5L665.1 370.5C699.8 370.5 741.5 386.6 759.5 408.1L761.8 410.9 766.8 416.9C787.2 441.4 771.3 463.2 729.3 463.2 659.5 463.2 621.3 503.8 648.3 563.1L709 696.1C717.9 715.6 742.4 732.2 763.3 732.2 784.2 732.2 792 715.6 781.2 696.1L708 563.1C687.6 526.4 709.1 499.3 753.9 499.3Z" id="XMLID_38_" fill="#FFFFFF"/><path d="M753.9 499.1C828.3 499.1 851.7 459.1 812.7 417L807.1 411 804.5 408.2C772.3 373.5 704.7 348.8 649.9 348.8L445.3 348.8C412.3 348.8 384.6 335.2 383.6 319.6L383.5 318.8 383.2 314C382.3 300 404.7 289.3 433.1 289.3 480.2 289.3 511.2 272.9 503.2 254.6L502.8 253.8 501.4 250.7C494.3 234.7 457.8 222.7 419.4 222.7L276 222.7C254.9 222.7 239.8 217.1 239.8 210.1 239.8 209.4 239.9 208.8 240.2 208.1L241.4 205.2C244.5 197.9 263.8 192.2 284.5 192.2 319 192.2 347.4 183.3 347.8 173.2L347.8 172.5 347.9 171C348.3 161.8 324.6 154.8 295 154.8L15.4 154.8C9.5 154.8 3.4 156.1 1.7 157.8 1.11022e-15 159.5 3.5 160.9 9.5 160.9L293.4 160.9C311.7 160.9 326 165.3 325.2 170.9L325 172.4 324.9 173.1C324.1 179.1 307 184.2 286.9 184.2 253.5 184.2 221.7 193.2 215.5 205.1L214 208C213.6 208.7 213.4 209.4 213.2 210 209.8 222.5 235.4 233.1 273.2 233.1L421.6 233.1C445.6 233.1 467.7 240.7 471.1 250.5L472.2 253.6 472.5 254.4C476.2 265.2 457.3 274.4 430.1 274.4 384.9 274.4 347.6 291 347 313.7L346.8 318.5 346.8 319.3C346 345.8 392.2 370.3 449.9 370.3L665 370.3C699.7 370.3 741.4 386.4 759.4 407.9L761.7 410.7 766.7 416.7C787.1 441.2 771.2 463 729.2 463 659.4 463 621.2 503.6 648.2 562.9L708.9 695.9C717.8 715.4 742.3 732 763.2 732 784.1 732 791.9 715.4 781.1 695.9L707.9 562.9C687.6 526.2 709.1 499.1 753.9 499.1Z" fill="#FDFDFD"/><path d="M753.9 498.8C828.3 498.8 851.7 458.8 812.7 416.7L807.1 410.7 804.5 407.9C772.3 373.2 704.7 348.5 649.9 348.5L445.3 348.5C412.3 348.5 384.6 334.9 383.6 319.3L383.5 318.5 383.2 313.7C382.3 299.7 404.7 289 433.1 289 480.2 289 511.2 272.6 503.2 254.3L502.8 253.5 501.4 250.4C494.3 234.4 457.8 222.4 419.4 222.4L276 222.4C254.9 222.4 239.8 216.8 239.8 209.8 239.8 209.1 239.9 208.5 240.2 207.8L241.4 204.9C244.5 197.6 263.8 191.9 284.5 191.9 319 191.9 347.4 183 347.8 172.9L347.8 172.2 347.9 170.7C348.3 161.5 324.6 154.5 295 154.5L15.3 154.5C9.4 154.5 3.3 155.8 1.6 157.5-0.1 159.2 3.4 160.6 9.4 160.6L293.3 160.6C311.6 160.6 325.9 165 325.1 170.6L324.9 172.1 324.8 172.8C324 178.8 306.9 183.9 286.8 183.9 253.4 183.9 221.6 192.9 215.4 204.8L213.9 207.7C213.5 208.4 213.3 209.1 213.1 209.7 209.7 222.2 235.3 232.8 273.1 232.8L421.5 232.8C445.5 232.8 467.6 240.4 471 250.2L472.1 253.3 472.4 254.1C476.1 264.9 457.2 274.1 430 274.1 384.8 274.1 347.5 290.7 346.9 313.4L346.7 318.2 346.7 319C345.9 345.5 392.1 370 449.8 370L665 370C699.7 370 741.4 386.1 759.4 407.6L761.7 410.4 766.7 416.4C787.1 440.9 771.2 462.7 729.2 462.7 659.4 462.7 621.2 503.3 648.2 562.6L708.9 695.6C717.8 715.1 742.3 731.7 763.2 731.7 784.1 731.7 791.9 715.1 781.1 695.6L707.9 562.6C687.5 525.9 709.1 498.8 753.9 498.8Z" fill="#FBFBFB"/><path d="M753.9 498.5C828.3 498.5 851.7 458.5 812.7 416.4L807.1 410.4 804.5 407.6C772.3 372.9 704.7 348.2 649.9 348.2L445.3 348.2C412.3 348.2 384.6 334.6 383.6 319L383.5 318.2 383.2 313.4C382.3 299.4 404.7 288.7 433.1 288.7 480.2 288.7 511.2 272.3 503.2 254L502.8 253.2 501.4 250.1C494.3 234.1 457.8 222.1 419.4 222.1L276 222.1C254.9 222.1 239.8 216.5 239.8 209.5 239.8 208.8 239.9 208.2 240.2 207.5L241.4 204.6C244.5 197.3 263.8 191.6 284.5 191.6 319 191.6 347.4 182.7 347.8 172.6L347.8 171.9 347.9 170.4C348.3 161.2 324.6 154.2 295 154.2L15.3 154.2C9.4 154.2 3.3 155.5 1.6 157.2-0.1 158.9 3.4 160.3 9.4 160.3L293.3 160.3C311.6 160.3 325.9 164.7 325.1 170.3L324.9 171.8 324.8 172.5C324 178.5 306.9 183.6 286.8 183.6 253.4 183.6 221.6 192.6 215.4 204.5L213.9 207.4C213.5 208.1 213.3 208.8 213.1 209.4 209.7 221.9 235.3 232.5 273.1 232.5L421.5 232.5C445.5 232.5 467.6 240.1 471 249.9L472.1 253 472.4 253.8C476.1 264.6 457.2 273.8 430 273.8 384.8 273.8 347.5 290.4 346.9 313.1L346.7 317.9 346.7 318.7C345.9 345.2 392.1 369.7 449.8 369.7L665 369.7C699.7 369.7 741.4 385.8 759.4 407.3L761.7 410.1 766.7 416.1C787.1 440.6 771.2 462.4 729.2 462.4 659.4 462.4 621.2 503 648.2 562.3L708.9 695.3C717.8 714.8 742.3 731.4 763.2 731.4 784.1 731.4 791.9 714.8 781.1 695.3L707.9 562.3C687.5 525.6 709 498.5 753.9 498.5Z" fill="#F9F8F8"/><path d="M753.8 498.3C828.2 498.3 851.6 458.3 812.6 416.2L807 410.2 804.4 407.4C772.2 372.7 704.6 348 649.8 348L445.2 348C412.2 348 384.5 334.4 383.5 318.8L383.4 318 383.1 313.2C382.2 299.2 404.6 288.5 433 288.5 480.1 288.5 511.1 272.1 503.1 253.8L502.7 253 501.3 249.9C494.2 233.9 457.7 221.9 419.3 221.9L275.9 221.9C254.8 221.9 239.7 216.3 239.7 209.3 239.7 208.6 239.8 208 240.1 207.3L241.3 204.4C244.4 197.1 263.7 191.4 284.4 191.4 318.9 191.4 347.3 182.5 347.7 172.4L347.7 171.7 347.8 170.2C348.2 161 324.5 154 294.9 154L15.3 154C9.4 154 3.3 155.3 1.6 157-0.1 158.7 3.4 160.1 9.4 160.1L293.3 160.1C311.6 160.1 325.9 164.5 325.1 170.1L324.9 171.6 324.8 172.3C324 178.3 306.9 183.4 286.8 183.4 253.4 183.4 221.6 192.4 215.4 204.3L213.9 207.2C213.5 207.9 213.3 208.6 213.1 209.2 209.7 221.7 235.3 232.3 273.1 232.3L421.5 232.3C445.5 232.3 467.6 239.9 471 249.7L472.1 252.8 472.4 253.6C476.1 264.4 457.2 273.6 430 273.6 384.8 273.6 347.5 290.2 346.9 312.9L346.7 317.7 346.7 318.5C345.9 345 392.1 369.5 449.8 369.5L665 369.5C699.7 369.5 741.4 385.6 759.4 407.1L761.7 409.9 766.7 415.9C787.1 440.4 771.2 462.2 729.2 462.2 659.4 462.2 621.2 502.8 648.2 562.1L708.9 695.1C717.8 714.6 742.3 731.2 763.2 731.2 784.1 731.2 791.9 714.6 781.1 695.1L707.9 562.1C687.5 525.4 709 498.3 753.8 498.3Z" fill="#F7F6F6"/><path d="M753.8 498C828.2 498 851.6 458 812.6 415.9L807 409.9 804.4 407.1C772.2 372.4 704.6 347.7 649.8 347.7L445.2 347.7C412.2 347.7 384.5 334.1 383.5 318.5L383.4 317.7 383.1 312.9C382.2 298.9 404.6 288.2 433 288.2 480.1 288.2 511.1 271.8 503.1 253.5L502.7 252.7 501.3 249.6C494.2 233.6 457.7 221.6 419.3 221.6L275.9 221.6C254.8 221.6 239.7 216 239.7 209 239.7 208.3 239.8 207.7 240.1 207L241.3 204.1C244.4 196.8 263.7 191.1 284.4 191.1 318.9 191.1 347.3 182.2 347.7 172.1L347.7 171.4 347.8 169.9C348.2 160.7 324.5 153.7 294.9 153.7L15.2 153.7C9.3 153.7 3.2 155 1.5 156.7-0.2 158.4 3.3 159.8 9.3 159.8L293.2 159.8C311.5 159.8 325.8 164.2 325 169.8L324.8 171.3 324.7 172C323.9 178 306.8 183.1 286.7 183.1 253.3 183.1 221.5 192.1 215.3 204L213.8 206.9C213.4 207.6 213.2 208.3 213 208.9 209.6 221.4 235.2 232 273 232L421.4 232C445.4 232 467.5 239.6 470.9 249.4L472 252.5 472.3 253.3C476 264.1 457.1 273.3 429.9 273.3 384.7 273.3 347.4 289.9 346.8 312.6L346.6 317.4 346.6 318.2C345.8 344.7 392 369.2 449.7 369.2L664.9 369.2C699.6 369.2 741.3 385.3 759.3 406.8L761.6 409.6 766.6 415.6C787 440.1 771.1 461.9 729.1 461.9 659.3 461.9 621.1 502.5 648.1 561.8L708.8 694.8C717.7 714.3 742.2 730.9 763.1 730.9 784 730.9 791.8 714.3 781 694.8L707.8 561.8C687.4 525.1 709 498 753.8 498Z" fill="#F5F4F4"/><path d="M753.8 497.7C828.2 497.7 851.6 457.7 812.6 415.6L807 409.6 804.4 406.8C772.2 372.1 704.6 347.4 649.8 347.4L445.2 347.4C412.2 347.4 384.5 333.8 383.5 318.2L383.4 317.4 383.1 312.6C382.2 298.6 404.6 287.9 433 287.9 480.1 287.9 511.1 271.5 503.1 253.2L502.7 252.4 501.3 249.3C494.2 233.3 457.7 221.3 419.3 221.3L275.9 221.3C254.8 221.3 239.7 215.7 239.7 208.7 239.7 208 239.8 207.4 240.1 206.7L241.3 203.8C244.4 196.5 263.7 190.8 284.4 190.8 318.9 190.8 347.3 181.9 347.7 171.8L347.7 171.1 347.8 169.6C348.2 160.4 324.5 153.4 294.9 153.4L15.2 153.4C9.3 153.4 3.2 154.7 1.5 156.4-0.2 158.1 3.3 159.5 9.3 159.5L293.2 159.5C311.5 159.5 325.8 163.9 325 169.5L324.8 171 324.7 171.7C323.9 177.7 306.8 182.8 286.7 182.8 253.3 182.8 221.5 191.8 215.3 203.7L213.8 206.6C213.4 207.3 213.2 208 213 208.6 209.6 221.1 235.2 231.7 273 231.7L421.4 231.7C445.4 231.7 467.5 239.3 470.9 249.1L472 252.2 472.3 253C476 263.8 457.1 273 429.9 273 384.7 273 347.4 289.6 346.8 312.3L346.6 317.1 346.6 317.9C345.8 344.4 392 368.9 449.7 368.9L664.9 368.9C699.6 368.9 741.3 385 759.3 406.5L761.6 409.3 766.6 415.3C787 440.2 771 462 729 462 659.2 462 621 502.6 648 561.9L708.7 694.9C717.6 714.4 742.1 731 763 731 783.9 731 791.7 714.4 780.9 694.9L707.7 561.9C687.4 524.8 709 497.7 753.8 497.7Z" fill="#F3F2F2"/><path d="M753.7 497.5C828.1 497.5 851.5 457.5 812.5 415.4L806.9 409.4 804.3 406.6C772.1 371.9 704.5 347.2 649.7 347.2L445.2 347.2C412.2 347.2 384.5 333.6 383.5 318L383.4 317.2 383.1 312.4C382.2 298.4 404.6 287.7 433 287.7 480.1 287.7 511.1 271.3 503.1 253L502.7 252.2 501.3 249.1C494.2 233.1 457.7 221.1 419.3 221.1L275.9 221.1C254.8 221.1 239.7 215.5 239.7 208.5 239.7 207.8 239.8 207.2 240.1 206.5L241.3 203.6C244.4 196.3 263.7 190.6 284.4 190.6 318.9 190.6 347.3 181.7 347.7 171.6L347.7 170.9 347.8 169.4C348.2 160.2 324.5 153.2 294.9 153.2L15.2 153.2C9.3 153.2 3.2 154.5 1.5 156.2-0.2 157.9 3.3 159.3 9.3 159.3L293.2 159.3C311.5 159.3 325.8 163.7 325 169.3L324.8 170.8 324.7 171.5C323.9 177.5 306.8 182.6 286.7 182.6 253.3 182.6 221.5 191.6 215.3 203.5L213.8 206.4C213.4 207.1 213.2 207.8 213 208.4 209.6 220.9 235.2 231.5 273 231.5L421.4 231.5C445.4 231.5 467.5 239.1 470.9 248.9L472 252 472.3 252.8C476 263.6 457.1 272.8 429.9 272.8 384.7 272.8 347.4 289.4 346.8 312.1L346.6 316.9 346.6 317.7C345.8 344.2 392 368.7 449.7 368.7L664.9 368.7C699.6 368.7 741.3 384.8 759.3 406.3L761.6 409.1 766.6 415.1C787 439.6 771.1 461.4 729.1 461.4 659.3 461.4 621.1 502 648.1 561.3L708.8 694.3C717.7 713.8 742.2 730.4 763.1 730.4 784 730.4 791.8 713.8 781 694.3L707.8 561.3C687.4 524.6 708.9 497.5 753.7 497.5Z" fill="#F1F0F0"/><path d="M753.7 497.2C828.1 497.2 851.5 457.2 812.5 415.1L806.9 409.1 804.3 406.3C772.1 371.6 704.5 346.9 649.7 346.9L445.1 346.9C412.1 346.9 384.4 333.3 383.4 317.7L383.3 316.9 383 312.1C382.1 298.1 404.5 287.4 432.9 287.4 480 287.4 511 271 503 252.7L502.6 251.9 501.2 248.8C494.1 232.8 457.6 220.8 419.2 220.8L275.8 220.8C254.7 220.8 239.6 215.2 239.6 208.2 239.6 207.5 239.7 206.9 240 206.2L241.2 203.3C244.3 196 263.6 190.3 284.3 190.3 318.8 190.3 347.2 181.4 347.6 171.3L347.6 170.6 347.7 169.1C348.1 159.9 324.4 152.9 294.8 152.9L15.1 152.9C9.2 152.9 3.1 154.2 1.4 155.9-0.3 157.6 3.2 159 9.2 159L293.1 159C311.4 159 325.7 163.4 324.9 169L324.7 170.5 324.6 171.2C323.8 177.2 306.7 182.3 286.6 182.3 253.2 182.3 221.4 191.3 215.2 203.2L213.7 206.1C213.3 206.8 213.1 207.5 212.9 208.1 209.5 220.6 235.1 231.2 272.9 231.2L421.3 231.2C445.3 231.2 467.4 238.8 470.8 248.6L471.9 251.7 472.2 252.5C475.9 263.3 457 272.5 429.8 272.5 384.6 272.5 347.3 289.1 346.7 311.8L346.5 316.6 346.5 317.4C345.7 343.9 391.9 368.4 449.6 368.4L664.8 368.4C699.5 368.4 741.2 384.5 759.2 406L761.5 408.8 766.5 414.8C786.9 439.3 771 461.1 729 461.1 659.2 461.1 621 501.7 648 561L708.7 694C717.6 713.5 742.1 730.1 763 730.1 783.9 730.1 791.7 713.5 780.9 694L707.7 561C687.3 524.3 708.9 497.2 753.7 497.2Z" fill="#EFEEEE"/><path d="M753.7 496.9C828.1 496.9 851.5 456.9 812.5 414.8L806.9 408.8 804.3 406C772.1 371.3 704.5 346.6 649.7 346.6L445.1 346.6C412.1 346.6 384.4 333 383.4 317.4L383.3 316.6 383 312C382.1 298 404.5 287.3 432.9 287.3 480 287.3 511 270.9 503 252.6L502.6 251.8 501.2 248.7C494.1 232.7 457.6 220.7 419.2 220.7L275.8 220.7C254.7 220.7 239.6 215.1 239.6 208.1 239.6 207.4 239.7 206.8 240 206.1L241.2 203.2C244.3 195.9 263.6 190.2 284.3 190.2 318.8 190.2 347.2 181.3 347.6 171.2L347.6 170.5 347.7 169C348.1 159.8 324.4 152.8 294.8 152.8L15.1 152.8C9.2 152.8 3.1 154.1 1.4 155.8-0.3 157.5 3.2 158.9 9.2 158.9L293.1 158.9C311.4 158.9 325.7 163.3 324.9 168.9L324.7 170.4 324.6 171.1C323.8 177.1 306.7 182.2 286.6 182.2 253.2 182.2 221.4 191.2 215.2 203.1L213.7 206C213.3 206.7 213.1 207.4 212.9 208 209.5 220.5 235.1 231.1 272.9 231.1L421.3 231.1C445.3 231.1 467.4 238.7 470.8 248.5L471.9 251.6 472.2 252.4C475.9 263.2 457 272.4 429.8 272.4 384.6 272.4 347.3 289 346.7 311.7L346.5 316.5 346.5 317.3C345.7 343.8 391.9 368.3 449.6 368.3L664.8 368.3C699.5 368.3 741.2 384.4 759.2 405.9L761.5 408.7 766.5 414.7C786.9 439.2 771 461 729 461 659.2 461 621 501.6 648 560.9L708.7 693.9C717.6 713.4 742.1 730 763 730 783.9 730 791.7 713.4 780.9 693.9L707.7 560.9C687.3 524 708.9 496.9 753.7 496.9Z" fill="#EDEBEB"/><path d="M753.6 496.7C828 496.7 851.4 456.7 812.4 414.6L806.8 408.6 804.2 405.8C772 371.1 704.4 346.4 649.6 346.4L445.1 346.4C412.1 346.4 384.4 332.8 383.4 317.2L383.3 316.4 383 311.6C382.1 297.6 404.5 286.9 432.9 286.9 480 286.9 511 270.5 503 252.2L502.6 251.4 501.2 248.3C494.1 232.3 457.6 220.3 419.2 220.3L275.8 220.3C254.7 220.3 239.6 214.7 239.6 207.7 239.6 207 239.7 206.4 240 205.7L241.2 202.8C244.3 195.5 263.6 189.8 284.3 189.8 318.8 189.8 347.2 180.9 347.6 170.8L347.6 170.1 347.7 168.6C348.1 159.4 324.4 152.4 294.8 152.4L15.1 152.4C9.2 152.4 3.1 153.7 1.4 155.4-0.3 157.1 3.2 158.5 9.2 158.5L293.1 158.5C311.4 158.5 325.7 162.9 324.9 168.5L324.7 170 324.6 170.7C323.8 176.7 306.7 181.8 286.6 181.8 253.2 181.8 221.4 190.8 215.2 202.7L213.7 205.6C213.3 206.3 213.1 207 212.9 207.6 209.5 220.1 235.1 230.7 272.9 230.7L421.3 230.7C445.3 230.7 467.4 238.3 470.8 248.1L471.9 251.2 472.2 252C475.9 262.8 457 272 429.8 272 384.6 272 347.3 288.6 346.7 311.3L346.5 316.1 346.5 316.9C345.7 343.4 391.9 367.9 449.6 367.9L664.8 367.9C699.5 367.9 741.2 384 759.2 405.5L761.5 408.3 766.5 414.3C786.9 438.8 771 460.6 729 460.6 659.2 460.6 621 501.2 648 560.5L708.7 693.5C717.6 713 742.1 729.6 763 729.6 783.9 729.6 791.7 713 780.9 693.5L707.7 560.5C687.3 523.8 708.8 496.7 753.6 496.7Z" fill="#EBE9E9"/><path d="M753.6 496.4C828 496.4 851.4 456.4 812.4 414.3L806.8 408.3 804.2 405.5C772 370.8 704.4 346.1 649.6 346.1L445 346.1C412 346.1 384.3 332.5 383.3 316.9L383.2 316.1 382.9 311.3C382 297.3 404.4 286.6 432.8 286.6 479.9 286.6 510.9 270.2 502.9 251.9L502.5 251.1 501.1 248C494 232 457.5 220 419.1 220L275.7 220C254.6 220 239.5 214.4 239.5 207.4 239.5 206.7 239.6 206.1 239.9 205.4L241.1 202.5C244.2 195.2 263.5 189.5 284.2 189.5 318.7 189.5 347.1 180.6 347.5 170.5L347.5 169.8 347.6 168.3C348 159.1 324.3 152.1 294.7 152.1L15.1 152.1C9.2 152.1 3.1 153.4 1.4 155.1-0.3 156.8 3.2 158.2 9.2 158.2L293 158.2C311.3 158.2 325.6 162.6 324.8 168.2L324.6 169.7 324.5 170.4C323.7 176.4 306.6 181.5 286.5 181.5 253.1 181.5 221.3 190.5 215.1 202.4L213.6 205.3C213.2 206 213 206.7 212.8 207.3 209.4 219.8 235 230.4 272.8 230.4L421.2 230.4C445.2 230.4 467.3 238 470.7 247.8L471.8 250.9 472.1 251.7C475.8 262.5 456.9 271.7 429.7 271.7 384.5 271.7 347.2 288.3 346.6 311L346.4 315.8 346.4 316.6C345.6 343.1 391.8 367.6 449.5 367.6L664.7 367.6C699.4 367.6 741.1 383.7 759.1 405.2L761.4 408 766.4 414C786.8 438.5 770.9 460.3 728.9 460.3 659.1 460.3 620.9 500.9 647.9 560.2L708.6 693.2C717.5 712.7 742 729.3 762.9 729.3 783.8 729.3 791.6 712.7 780.8 693.2L707.6 560.2C687.3 523.5 708.8 496.4 753.6 496.4Z" fill="#E9E7E7"/><path d="M753.6 496.1C828 496.1 851.4 456.1 812.4 414L806.8 408 804.2 405.2C772 370.7 704.5 346 649.6 346L445 346C412 346 384.3 332.4 383.3 316.8L383.2 316 382.9 311.2C382 297.2 404.4 286.5 432.8 286.5 479.9 286.5 510.9 270.1 502.9 251.8L502.5 251 501.1 247.9C494 231.9 457.5 219.9 419.1 219.9L275.7 219.9C254.6 219.9 239.5 214.3 239.5 207.3 239.5 206.6 239.6 206 239.9 205.3L241.1 202.4C244.2 195.1 263.5 189.4 284.2 189.4 318.7 189.4 347.1 180.5 347.5 170.4L347.5 169.7 347.6 168.2C348 159 324.3 152 294.7 152L15 152C9.1 152 3 153.3 1.3 155-0.4 156.7 3.1 158.1 9.1 158.1L293 158.1C311.3 158.1 325.6 162.5 324.8 168.1L324.6 169.6 324.5 170.3C323.7 176.3 306.6 181.4 286.5 181.4 253.1 181.4 221.3 190.4 215.1 202.3L213.6 205.2C213.2 205.9 213 206.6 212.8 207.2 209.4 219.7 235 230.3 272.8 230.3L421.2 230.3C445.2 230.3 467.3 237.9 470.7 247.7L471.8 250.8 472.1 251.6C475.8 262.4 456.9 271.6 429.7 271.6 384.5 271.6 347.2 288.2 346.6 310.9L346.4 315.7 346.4 316.5C345.6 343 391.8 367.5 449.5 367.5L664.7 367.5C699.4 367.5 741.1 383.6 759.1 405.1L761.4 407.9 766.4 413.9C786.8 438.4 770.9 460.2 728.9 460.2 659.1 460.2 620.9 500.8 647.9 560.1L708.6 693.1C717.5 712.6 742 729.2 762.9 729.2 783.8 729.2 791.6 712.6 780.8 693.1L707.6 560.1C687.2 523.2 708.8 496.1 753.6 496.1Z" fill="#E7E5E5"/><path d="M753.5 495.9C827.9 495.9 851.3 455.9 812.3 413.8L806.7 407.8 804.1 405C771.9 370.3 704.3 345.6 649.5 345.6L445 345.6C412 345.6 384.3 332 383.3 316.4L383.2 315.6 382.9 310.8C382 296.8 404.4 286.1 432.8 286.1 479.9 286.1 510.9 269.7 502.9 251.4L502.5 250.6 501.1 247.5C494 231.5 457.5 219.5 419.1 219.5L275.7 219.5C254.6 219.5 239.5 213.9 239.5 206.9 239.5 206.2 239.6 205.6 239.9 204.9L241.1 202C244.2 194.7 263.5 189 284.2 189 318.7 189 347.1 180.1 347.5 170L347.5 169.3 347.6 167.8C348 158.6 324.3 151.6 294.7 151.6L15 151.6C9.1 151.6 3 152.9 1.3 154.6-0.4 156.3 3.1 157.7 9.1 157.7L293 157.7C311.3 157.7 325.6 162.1 324.8 167.7L324.6 169.2 324.5 169.9C323.7 175.9 306.6 181 286.5 181 253.1 181 221.3 190 215.1 201.9L213.6 204.8C213.2 205.5 213 206.2 212.8 206.8 209.4 219.3 235 229.9 272.8 229.9L421.2 229.9C445.2 229.9 467.3 237.5 470.7 247.3L471.8 250.4 472.1 251.2C475.8 262 456.9 271.2 429.7 271.2 384.5 271.2 347.2 287.8 346.6 310.5L346.4 315.3 346.4 316.1C345.6 342.6 391.8 367.1 449.5 367.1L664.7 367.1C699.4 367.1 741.1 383.2 759.1 404.7L761.4 407.5 766.4 413.5C786.8 438 770.9 459.8 728.9 459.8 659.1 459.8 620.9 500.4 647.9 559.7L708.6 692.7C717.5 712.2 742 728.8 762.9 728.8 783.8 728.8 791.6 712.2 780.8 692.7L707.6 559.7C687.2 523 708.7 495.9 753.5 495.9Z" fill="#E5E3E3"/><path d="M753.5 495.6C827.9 495.6 851.3 455.6 812.3 413.5L806.7 407.5 804.1 404.7C771.9 370 704.3 345.3 649.5 345.3L444.9 345.3C411.9 345.3 384.2 331.7 383.2 316.1L383.1 315.3 382.8 310.5C381.9 296.5 404.3 285.8 432.7 285.8 479.8 285.8 510.8 269.4 502.8 251.1L502.4 250.3 501 247.2C493.9 231.2 457.4 219.2 419 219.2L275.6 219.2C254.5 219.2 239.4 213.6 239.4 206.6 239.4 205.9 239.5 205.3 239.8 204.6L241 201.7C244.1 194.4 263.4 188.7 284.1 188.7 318.6 188.7 347 179.8 347.4 169.7L347.4 169 347.5 167.5C347.9 158.3 324.2 151.3 294.6 151.3L15 151.3C9.1 151.3 3 152.6 1.3 154.3-0.4 156 3.1 157.4 9.1 157.4L293 157.4C311.3 157.4 325.6 161.8 324.8 167.4L324.6 168.9 324.5 169.6C323.7 175.6 306.6 180.7 286.5 180.7 253.1 180.7 221.3 189.7 215.1 201.6L213.6 204.5C213.2 205.2 213 205.9 212.8 206.5 209.4 219 235 229.6 272.8 229.6L421.2 229.6C445.2 229.6 467.3 237.2 470.7 247L471.8 250.1 472.1 250.9C475.8 261.7 456.9 270.9 429.7 270.9 384.5 270.9 347.2 287.5 346.6 310.2L346.4 315 346.4 315.8C345.6 342.3 391.8 366.8 449.5 366.8L664.7 366.8C699.4 366.8 741.1 382.9 759.1 404.4L761.4 407.2 766.4 413.2C786.8 437.7 770.9 459.5 728.9 459.5 659.1 459.5 620.9 500.1 647.9 559.4L708.6 692.4C717.5 711.9 742 728.5 762.9 728.5 783.8 728.5 791.6 711.9 780.8 692.4L707.6 559.4C687.2 522.7 708.7 495.6 753.5 495.6Z" fill="#E3E1E1"/><path d="M753.5 495.3C827.9 495.3 851.3 455.3 812.3 413.2L806.7 407.2 804.1 404.4C771.9 369.7 704.3 345 649.5 345L444.9 345C411.9 345 384.2 331.4 383.2 315.8L383.1 315 382.8 310.2C381.9 296.2 404.3 285.5 432.7 285.5 479.8 285.5 510.8 269.1 502.8 250.8L502.4 250 501 246.9C493.9 230.9 457.4 218.9 419 218.9L275.6 218.9C254.5 218.9 239.4 213.3 239.4 206.3 239.4 205.6 239.5 205 239.8 204.3L241 201.4C244.1 194.1 263.4 188.4 284.1 188.4 318.6 188.4 347 179.5 347.4 169.4L347.4 168.7 347.5 167.2C347.9 158 324.2 151 294.6 151L14.9 151C9 151 2.9 152.3 1.2 154-0.5 155.7 3 157.1 9 157.1L292.9 157.1C311.2 157.1 325.5 161.5 324.7 167.1L324.5 168.6 324.4 169.3C323.6 175.3 306.5 180.4 286.4 180.4 253 180.4 221.2 189.4 215 201.3L213.5 204.2C213.1 204.9 212.9 205.6 212.7 206.2 209.3 218.7 234.9 229.3 272.7 229.3L421.1 229.3C445.1 229.3 467.2 236.9 470.6 246.7L471.7 249.8 472 250.6C475.7 261.4 456.8 270.6 429.6 270.6 384.4 270.6 347.1 287.2 346.5 309.9L346.3 314.7 346.3 315.5C345.5 342 391.7 366.5 449.4 366.5L664.6 366.5C699.3 366.5 741 382.6 759 404.1L761.3 406.9 766.3 412.9C786.7 437.4 770.8 459.2 728.8 459.2 659 459.2 620.8 499.8 647.8 559.1L708.5 692.1C717.4 711.6 741.9 728.2 762.8 728.2 783.7 728.2 791.5 711.6 780.7 692.1L707.5 559.1C687.1 522.4 708.7 495.3 753.5 495.3Z" fill="#E1DEDE"/><path d="M753.5 495.1C827.9 495.1 851.3 455.1 812.3 413L806.7 407 804.1 404.2C771.9 369.5 704.3 344.8 649.5 344.8L444.9 344.8C411.9 344.8 384.2 331.2 383.2 315.6L383.1 314.8 382.8 310C381.9 296 404.3 285.3 432.7 285.3 479.8 285.3 510.8 268.9 502.8 250.6L502.4 249.8 501 246.7C493.9 230.7 457.4 218.7 419 218.7L275.6 218.7C254.5 218.7 239.4 213.1 239.4 206.1 239.4 205.4 239.5 204.8 239.8 204.1L241 201.2C244.1 193.9 263.4 188.2 284.1 188.2 318.6 188.2 347 179.3 347.4 169.2L347.4 168.5 347.5 167C347.9 157.8 324.2 150.8 294.6 150.8L14.9 150.8C9 150.8 2.9 152.1 1.2 153.8-0.5 155.5 3 156.9 9 156.9L292.9 156.9C311.2 156.9 325.5 161.3 324.7 166.9L324.5 168.4 324.4 169.1C323.6 175.1 306.5 180.2 286.4 180.2 253 180.2 221.2 189.2 215 201.1L213.5 204C213.1 204.7 212.9 205.4 212.7 206 209.3 218.5 234.9 229.1 272.7 229.1L421.1 229.1C445.1 229.1 467.2 236.7 470.6 246.5L471.7 249.6 472 250.4C475.7 261.2 456.8 270.4 429.6 270.4 384.4 270.4 347.1 287 346.5 309.7L346.3 314.5 346.3 315.3C345.5 341.8 391.7 366.3 449.4 366.3L664.6 366.3C699.3 366.3 741 382.4 759 403.9L761.3 406.7 766.3 412.7C786.7 437.2 770.8 459 728.8 459 659 459 620.8 499.6 647.8 558.9L708.5 691.9C717.4 711.4 741.9 728 762.8 728 783.7 728 791.5 711.4 780.7 691.9L707.5 558.9C687.1 522.2 708.7 495.1 753.5 495.1Z" fill="#DFDCDC"/><path d="M753.4 494.8C827.8 494.8 851.2 454.8 812.2 412.7L806.6 406.7 804 403.9C771.8 369.2 704.2 344.5 649.4 344.5L444.9 344.5C411.9 344.5 384.2 330.9 383.2 315.3L383.1 314.5 382.8 309.7C381.9 295.7 404.3 285 432.7 285 479.8 285 510.8 268.6 502.8 250.3L502.4 249.5 501 246.4C493.9 230.4 457.4 218.4 419 218.4L275.6 218.4C254.5 218.4 239.4 212.8 239.4 205.8 239.4 205.1 239.5 204.5 239.8 203.8L241 200.9C244.1 193.6 263.4 187.9 284.1 187.9 318.6 187.9 347 179 347.4 168.9L347.4 168.2 347.5 166.7C347.9 157.5 324.2 150.5 294.6 150.5L14.9 150.5C9 150.5 2.9 151.8 1.2 153.5-0.5 155.2 3 156.6 9 156.6L292.9 156.6C311.2 156.6 325.5 161 324.7 166.6L324.5 168.1 324.4 168.8C323.6 174.8 306.5 179.9 286.4 179.9 253 179.9 221.2 188.9 215 200.8L213.5 203.7C213.1 204.4 212.9 205.1 212.7 205.7 209.3 218.2 234.9 228.8 272.7 228.8L421 228.8C445 228.8 467.1 236.4 470.5 246.2L471.6 249.3 471.9 250.1C475.6 260.9 456.7 270.1 429.5 270.1 384.3 270.1 347 286.7 346.4 309.4L346.2 314.2 346.2 315C345.4 341.5 391.6 366 449.3 366L664.5 366C699.2 366 740.9 382.1 758.9 403.6L761.2 406.4 766.2 412.4C786.6 436.9 770.7 458.7 728.7 458.7 658.9 458.7 620.7 499.3 647.7 558.6L708.4 691.6C717.3 711.1 741.8 727.7 762.7 727.7 783.6 727.7 791.4 711.1 780.6 691.6L707.4 558.6C687.1 521.9 708.6 494.8 753.4 494.8Z" fill="#DDDADA"/><path d="M753.4 494.6C827.8 494.6 851.2 454.6 812.2 412.5L806.6 406.5 804 403.7C771.8 369 704.2 344.3 649.4 344.3L444.8 344.3C411.8 344.3 384.1 330.7 383.1 315.1L383 314.3 382.7 309.5C381.8 295.5 404.2 284.8 432.6 284.8 479.7 284.8 510.7 268.4 502.7 250.1L502.3 249.3 500.9 246.2C493.8 230.2 457.3 218.2 418.9 218.2L275.5 218.2C254.4 218.2 239.3 212.6 239.3 205.6 239.3 204.9 239.4 204.3 239.7 203.6L240.9 200.7C244 193.4 263.3 187.7 284 187.7 318.5 187.7 346.9 178.8 347.3 168.7L347.3 168 347.4 166.5C347.8 157.3 324.1 150.3 294.5 150.3L14.8 150.3C8.9 150.3 2.8 151.6 1.1 153.3-0.6 155 2.9 156.4 8.9 156.4L292.8 156.4C311.1 156.4 325.4 160.8 324.6 166.4L324.4 167.9 324.3 168.6C323.5 174.6 306.4 179.7 286.3 179.7 252.9 179.7 221.1 188.7 214.9 200.6L213.4 203.5C213 204.2 212.8 204.9 212.6 205.5 209.2 218 234.8 228.6 272.6 228.6L421 228.6C445 228.6 467.1 236.2 470.5 246L471.6 249.1 471.9 249.9C475.6 260.7 456.7 269.9 429.5 269.9 384.3 269.9 347 286.5 346.4 309.2L346.2 314 346.2 314.8C345.4 341.3 391.6 365.8 449.3 365.8L664.5 365.8C699.2 365.8 740.9 381.9 758.9 403.4L761.2 406.2 766.2 412.2C786.6 436.7 770.7 458.5 728.7 458.5 658.9 458.5 620.7 499.1 647.7 558.4L708.4 691.4C717.3 710.9 741.8 727.5 762.7 727.5 783.6 727.5 791.4 710.9 780.6 691.4L707.4 558.4C687 521.7 708.6 494.6 753.4 494.6Z" fill="#DBD8D8"/><path d="M753.4 494.3C827.8 494.3 851.2 454.3 812.2 412.2L806.6 406.2 804 403.4C771.8 368.7 704.2 344 649.4 344L444.8 344C411.8 344 384.1 330.4 383.1 314.8L383 314 382.7 309.2C381.8 295.2 404.2 284.5 432.6 284.5 479.7 284.5 510.7 268.1 502.7 249.8L502.3 249 500.9 245.9C493.8 229.9 457.3 217.9 418.9 217.9L275.5 217.9C254.4 217.9 239.3 212.3 239.3 205.3 239.3 204.6 239.4 204 239.7 203.3L240.9 200.4C244 193.1 263.3 187.4 284 187.4 318.5 187.4 346.9 178.5 347.3 168.4L347.3 167.7 347.4 166.2C347.8 157 324.1 150 294.5 150L14.8 150C8.9 150 2.8 151.3 1.1 153-0.6 154.7 2.9 156.1 8.9 156.1L292.8 156.1C311.1 156.1 325.4 160.5 324.6 166.1L324.4 167.6 324.3 168.3C323.5 174.3 306.4 179.4 286.3 179.4 252.9 179.4 221.1 188.4 214.9 200.3L213.4 203.2C213 203.9 212.8 204.6 212.6 205.2 209.2 217.7 234.8 228.3 272.6 228.3L421 228.3C445 228.3 467.1 235.9 470.5 245.7L471.6 248.8 471.9 249.6C475.6 260.4 456.7 269.6 429.5 269.6 384.3 269.6 347 286.2 346.4 308.9L346.2 313.7 346.2 314.5C345.4 341 391.6 365.5 449.3 365.5L664.5 365.5C699.2 365.5 740.9 381.6 758.9 403.1L761.2 405.9 766.2 411.9C786.6 436.4 770.7 458.2 728.7 458.2 658.9 458.2 620.7 498.8 647.7 558.1L708.4 691.1C717.3 710.6 741.8 727.2 762.7 727.2 783.6 727.2 791.4 710.6 780.6 691.1L707.4 558.1C687 521.4 708.6 494.3 753.4 494.3Z" fill="#D9D6D6"/><path d="M753.3 494C827.7 494 851.1 454 812.1 411.9L806.5 405.9 803.9 403.1C771.7 368.4 704.1 343.7 649.3 343.7L444.8 343.7C411.8 343.7 384.1 330.1 383.1 314.5L383 313.7 382.7 308.9C381.8 294.9 404.2 284.2 432.6 284.2 479.7 284.2 510.7 267.8 502.7 249.5L502.3 248.7 500.9 245.6C493.8 229.6 457.3 217.6 418.9 217.6L275.5 217.6C254.4 217.6 239.3 212 239.3 205 239.3 204.3 239.4 203.7 239.7 203L240.9 200.1C244 192.8 263.3 187.1 284 187.1 318.5 187.1 346.9 178.2 347.3 168.1L347.3 167.4 347.4 165.9C347.8 156.7 324.1 149.7 294.5 149.7L14.8 149.7C8.9 149.7 2.8 151 1.1 152.7-0.6 154.4 2.9 155.8 8.9 155.8L292.8 155.8C311.1 155.8 325.4 160.2 324.6 165.8L324.4 167.3 324.3 168C323.5 174 306.4 179.1 286.3 179.1 252.9 179.1 221.1 188.1 214.9 200L213.4 202.9C213 203.6 212.8 204.3 212.6 204.9 209.2 217.4 234.8 228 272.6 228L421 228C445 228 467.1 235.6 470.5 245.4L471.6 248.5 471.9 249.3C475.6 260.1 456.7 269.3 429.5 269.3 384.3 269.3 347 285.9 346.4 308.6L346.2 313.4 346.2 314.2C345.4 340.7 391.6 365.2 449.3 365.2L664.5 365.2C699.2 365.2 740.9 381.3 758.9 402.8L761.2 405.6 766.2 411.6C786.6 436.1 770.7 457.9 728.7 457.9 658.9 457.9 620.7 498.5 647.7 557.8L708.4 690.8C717.3 710.3 741.8 726.9 762.7 726.9 783.6 726.9 791.4 710.3 780.6 690.8L707.4 557.8C687 521.1 708.5 494 753.3 494Z" fill="#D7D4D4"/><path d="M753.3 493.8C827.7 493.8 851.1 453.8 812.1 411.7L806.5 405.7 804 403C771.8 368.3 704.2 343.6 649.4 343.6L444.7 343.6C411.7 343.6 384 330 383 314.4L382.9 313.6 382.6 308.8C381.7 294.8 404.1 284.1 432.5 284.1 479.6 284.1 510.6 267.7 502.6 249.4L502.2 248.6 500.8 245.5C493.7 229.5 457.2 217.5 418.8 217.5L275.4 217.5C254.3 217.5 239.2 211.9 239.2 204.9 239.2 204.2 239.3 203.6 239.6 202.9L240.8 200C243.9 192.7 263.2 187 283.9 187 318.4 187 346.8 178.1 347.2 168L347.2 167.3 347.3 165.8C347.7 156.6 324 149.6 294.4 149.6L14.8 149.6C8.9 149.6 2.8 150.9 1.1 152.6-0.6 154.3 2.9 155.7 8.9 155.7L292.8 155.7C311.1 155.7 325.4 160.1 324.6 165.7L324.4 167.2 324.3 167.9C323.5 173.9 306.4 179 286.3 179 252.9 179 221.1 188 214.9 199.9L213.4 202.8C213 203.5 212.8 204.2 212.6 204.8 209.2 217.3 234.8 227.9 272.6 227.9L421 227.9C445 227.9 467.1 235.5 470.5 245.3L471.6 248.4 471.9 249.2C475.6 260 456.7 269.2 429.5 269.2 384.3 269.2 347 285.8 346.4 308.5L346.2 313.3 346.2 314.1C345.4 340.6 391.6 365.1 449.3 365.1L664.5 365.1C699.2 365.1 740.9 381.2 758.9 402.7L761.2 405.5 766.2 411.5C786.6 436 770.7 457.8 728.7 457.8 658.9 457.8 620.7 498.4 647.7 557.7L708.4 690.7C717.3 710.2 741.8 726.8 762.7 726.8 783.6 726.8 791.4 710.2 780.6 690.7L707.4 557.7C686.9 520.9 708.5 493.8 753.3 493.8Z" fill="#D5D1D1"/><path d="M753.3 493.5C827.7 493.5 851.1 453.5 812.1 411.4L806.5 405.4 803.9 402.6C771.7 367.9 704.1 343.2 649.3 343.2L444.7 343.2C411.7 343.2 384 329.6 383 314L382.9 313.2 382.6 308.4C381.7 294.4 404.1 283.7 432.5 283.7 479.6 283.7 510.6 267.3 502.6 249L502.2 248.2 500.8 245.1C493.7 229.1 457.2 217.1 418.8 217.1L275.4 217.1C254.3 217.1 239.2 211.5 239.2 204.5 239.2 203.8 239.3 203.2 239.6 202.5L240.8 199.6C243.9 192.3 263.2 186.6 283.9 186.6 318.4 186.6 346.8 177.7 347.2 167.6L347.2 166.9 347.3 165.4C347.7 156.2 324 149.2 294.4 149.2L14.7 149.2C8.8 149.2 2.7 150.5 1 152.2-0.7 153.9 2.8 155.3 8.8 155.3L292.7 155.3C311 155.3 325.3 159.7 324.5 165.3L324.3 166.8 324.2 167.5C323.4 173.5 306.3 178.6 286.2 178.6 252.8 178.6 221 187.6 214.8 199.5L213.3 202.4C212.9 203.1 212.7 203.8 212.5 204.4 209.1 216.9 234.7 227.5 272.5 227.5L420.9 227.5C444.9 227.5 467 235.1 470.4 244.9L471.5 248 471.8 248.8C475.5 259.6 456.6 268.8 429.4 268.8 384.2 268.8 346.9 285.4 346.3 308.1L346.1 312.9 346.1 313.7C345.3 340.2 391.5 364.7 449.2 364.7L664.4 364.7C699.1 364.7 740.8 380.8 758.8 402.3L761.1 405.1 766.1 411.1C786.5 435.6 770.6 457.4 728.6 457.4 658.8 457.4 620.6 498 647.6 557.3L708.3 690.3C717.2 709.8 741.7 726.4 762.6 726.4 783.5 726.4 791.3 709.8 780.5 690.3L707.3 557.3C686.9 520.6 708.5 493.5 753.3 493.5Z" fill="#D3CFCF"/><path d="M753.2 493.2C827.6 493.2 851 453.2 812 411.1L806.4 405.1 803.8 402.3C771.6 367.6 704 342.9 649.2 342.9L444.7 342.9C411.7 342.9 384 329.3 383 313.7L382.9 312.9 382.6 308.1C381.7 294.1 404.1 283.4 432.5 283.4 479.6 283.4 510.6 267 502.6 248.7L502.2 247.9 500.8 244.8C493.7 228.8 457.2 216.8 418.8 216.8L275.4 216.8C254.3 216.8 239.2 211.2 239.2 204.2 239.2 203.5 239.3 202.9 239.6 202.2L240.8 199.3C243.9 192 263.2 186.3 283.9 186.3 318.4 186.3 346.8 177.4 347.2 167.3L347.2 166.6 347.3 165.1C347.7 155.9 324 148.9 294.4 148.9L14.7 148.9C8.8 148.9 2.7 150.2 1 151.9-0.7 153.6 2.8 155 8.8 155L292.7 155C311 155 325.3 159.4 324.5 165L324.3 166.5 324.2 167.2C323.4 173.2 306.3 178.3 286.2 178.3 252.8 178.3 221 187.3 214.8 199.2L213.3 202.1C212.9 202.8 212.7 203.5 212.5 204.1 209.1 216.6 234.7 227.2 272.5 227.2L420.9 227.2C444.9 227.2 467 234.8 470.4 244.6L471.5 247.7 471.8 248.5C475.5 259.3 456.6 268.5 429.4 268.5 384.2 268.5 346.9 285.1 346.3 307.8L346.1 312.6 346.1 313.4C345.3 339.9 391.5 364.4 449.2 364.4L664.4 364.4C699.1 364.4 740.8 380.5 758.8 402L761.1 404.8 766.1 410.8C786.5 435.3 770.6 457.1 728.6 457.1 658.8 457.1 620.6 497.7 647.6 557L708.3 690C717.2 709.5 741.7 726.1 762.6 726.1 783.5 726.1 791.3 709.5 780.5 690L707.3 557C686.9 520.3 708.4 493.2 753.2 493.2Z" fill="#D1CDCD"/><path d="M753.2 493C827.6 493 851 453 812 410.9L806.4 404.9 803.8 402.1C771.6 367.4 704 342.7 649.2 342.7L444.6 342.7C411.6 342.7 383.9 329.1 382.9 313.5L382.8 312.7 382.5 307.9C381.6 293.9 404 283.2 432.4 283.2 479.5 283.2 510.5 266.8 502.5 248.5L502.1 247.7 500.7 244.6C493.6 228.6 457.1 216.6 418.7 216.6L275.3 216.6C254.2 216.6 239.1 211 239.1 204 239.1 203.3 239.2 202.7 239.5 202L240.7 199.1C243.8 191.8 263.1 186.1 283.8 186.1 318.3 186.1 346.7 177.2 347.1 167.1L347.1 166.4 347.2 164.9C347.6 155.7 323.9 148.7 294.3 148.7L14.7 148.7C8.8 148.7 2.7 150 1 151.7-0.7 153.4 2.8 154.8 8.8 154.8L292.7 154.8C311 154.8 325.3 159.2 324.5 164.8L324.3 166.3 324.2 167C323.4 173 306.3 178.1 286.2 178.1 252.8 178.1 221 187.1 214.8 199L213.3 201.9C212.9 202.6 212.7 203.3 212.5 203.9 209.1 216.4 234.7 227 272.5 227L420.9 227C444.9 227 467 234.6 470.4 244.4L471.5 247.5 471.8 248.3C475.5 259.1 456.6 268.3 429.4 268.3 384.2 268.3 346.9 284.9 346.3 307.6L346.1 312.4 346.1 313.2C345.3 339.7 391.5 364.2 449.2 364.2L664.4 364.2C699.1 364.2 740.8 380.3 758.8 401.8L761.1 404.6 766.1 410.6C786.5 435.1 770.6 456.9 728.6 456.9 658.8 456.9 620.6 497.5 647.6 556.8L708.3 689.8C717.2 709.3 741.7 725.9 762.6 725.9 783.5 725.9 791.3 709.3 780.5 689.8L707.3 556.8C686.9 520.1 708.4 493 753.2 493Z" fill="#CFCBCB"/><path d="M753.2 492.7C827.6 492.7 851 452.7 812 410.6L806.4 404.6 803.8 401.8C771.6 367.1 704 342.4 649.2 342.4L444.6 342.4C411.6 342.4 383.9 328.8 382.9 313.2L382.8 312.4 382.5 307.6C381.6 293.6 404 282.9 432.4 282.9 479.5 282.9 510.5 266.5 502.5 248.2L502.1 247.4 500.7 244.3C493.6 228.3 457.1 216.3 418.7 216.3L275.3 216.3C254.2 216.3 239.1 210.7 239.1 203.7 239.1 203 239.2 202.4 239.5 201.7L240.7 198.8C243.8 191.5 263.1 185.8 283.8 185.8 318.3 185.8 346.7 176.9 347.1 166.8L347.1 166.1 347.2 164.6C347.6 155.4 323.9 148.4 294.3 148.4L14.6 148.4C8.7 148.4 2.6 149.7 0.9 151.4-0.8 153.1 2.7 154.5 8.7 154.5L292.6 154.5C310.9 154.5 325.2 158.9 324.4 164.5L324.2 166 324.1 166.7C323.3 172.7 306.2 177.8 286.1 177.8 252.7 177.8 220.9 186.8 214.7 198.7L213.2 201.6C212.8 202.3 212.6 203 212.4 203.6 209 216.1 234.6 226.7 272.4 226.7L420.8 226.7C444.8 226.7 466.9 234.3 470.3 244.1L471.4 247.2 471.7 248C475.4 258.8 456.5 268 429.3 268 384.1 268 346.8 284.6 346.2 307.3L346 312.1 346 312.9C345.2 339.4 391.4 363.9 449.1 363.9L664.3 363.9C699 363.9 740.7 380 758.7 401.5L761 404.3 766 410.3C786.4 434.8 770.5 456.6 728.5 456.6 658.7 456.6 620.5 497.2 647.5 556.5L708.2 689.5C717.1 709 741.6 725.6 762.5 725.6 783.4 725.6 791.2 709 780.4 689.5L707.2 556.5C686.8 519.8 708.4 492.7 753.2 492.7Z" fill="#CDC9C9"/><path d="M753.2 492.4C827.6 492.4 851 452.4 812 410.3L806.4 404.3 803.8 401.5C771.6 366.8 704 342.1 649.2 342.1L444.6 342.1C411.6 342.1 383.9 328.5 382.9 312.9L382.8 312.1 382.5 307.3C381.6 293.3 404 282.6 432.4 282.6 479.5 282.6 510.5 266.2 502.5 247.9L502.1 247.1 500.7 244C493.6 228 457.1 216 418.7 216L275.3 216C254.2 216 239.1 210.4 239.1 203.4 239.1 202.7 239.2 202.1 239.5 201.4L240.7 198.5C243.8 191.2 263.1 185.5 283.8 185.5 318.3 185.5 346.7 176.6 347.1 166.5L347.1 165.8 347.2 164.3C347.6 155.1 323.9 148.1 294.3 148.1L14.6 148.1C8.7 148.1 2.6 149.4 0.9 151.1-0.8 152.8 2.7 154.2 8.7 154.2L292.6 154.2C310.9 154.2 325.2 158.6 324.4 164.2L324.2 165.7 324.1 166.4C323.3 172.4 306.2 177.5 286.1 177.5 252.7 177.5 220.9 186.5 214.7 198.4L213.2 201.3C212.8 202 212.6 202.7 212.4 203.3 209 215.8 234.6 226.4 272.4 226.4L420.8 226.4C444.8 226.4 466.9 234 470.3 243.8L471.4 246.9 471.7 247.7C475.4 258.5 456.5 267.7 429.3 267.7 384.1 267.7 346.8 284.3 346.2 307L346 311.8 346 312.6C345.2 339.1 391.4 363.6 449.1 363.6L664.3 363.6C699 363.6 740.7 379.7 758.7 401.2L761 404 766 410C786.4 434.5 770.5 456.3 728.5 456.3 658.7 456.3 620.5 496.9 647.5 556.2L708.2 689.2C717.1 708.7 741.6 725.3 762.5 725.3 783.4 725.3 791.2 708.7 780.4 689.2L707.2 556.2C686.8 519.5 708.3 492.4 753.2 492.4Z" fill="#CBC7C7"/><path d="M753.1 492.2C827.5 492.2 850.9 452.2 811.9 410.1L806.3 404.1 803.7 401.3C771.6 366.7 704 342 649.2 342L444.5 342C411.5 342 383.8 328.4 382.8 312.8L382.7 312 382.4 307.2C381.5 293.2 403.9 282.5 432.3 282.5 479.4 282.5 510.4 266.1 502.4 247.8L502 247 500.6 243.9C493.5 227.9 457 215.9 418.6 215.9L275.2 215.9C254.1 215.9 239 210.3 239 203.3 239 202.6 239.1 202 239.4 201.3L240.6 198.4C243.7 191.1 263 185.4 283.7 185.4 318.2 185.4 346.6 176.5 347 166.4L347 165.7 347.1 164.2C347.5 155 323.8 148 294.2 148L14.6 148C8.7 148 2.6 149.3 0.9 151-0.8 152.7 2.7 154.1 8.7 154.1L292.6 154.1C310.9 154.1 325.2 158.5 324.4 164.1L324.2 165.6 324.1 166.3C323.3 172.3 306.2 177.4 286.1 177.4 252.7 177.4 220.9 186.4 214.7 198.3L213.2 201.2C212.8 201.9 212.6 202.6 212.4 203.2 209 215.7 234.6 226.3 272.4 226.3L420.8 226.3C444.8 226.3 466.9 233.9 470.3 243.7L471.4 246.8 471.7 247.6C475.4 258.4 456.5 267.6 429.3 267.6 384.1 267.6 346.8 284.2 346.2 306.9L346 312 346 312.8C345.2 339.3 391.4 363.8 449.1 363.8L664.3 363.8C699 363.8 740.7 379.9 758.7 401.4L761 404.2 766 410.2C786.4 434.7 770.5 456.5 728.5 456.5 658.7 456.5 620.5 497.1 647.5 556.4L708.2 689.4C717.1 708.9 741.6 725.5 762.5 725.5 783.4 725.5 791.2 708.9 780.4 689.4L707.2 556.4C686.8 519.3 708.3 492.2 753.1 492.2Z" fill="#C9C4C4"/><path d="M753.1 491.9C827.5 491.9 850.9 451.9 811.9 409.8L806.3 403.8 803.7 401C771.5 366.3 703.9 341.6 649.1 341.6L444.5 341.6C411.5 341.6 383.8 328 382.8 312.4L382.7 311.6 382.4 306.8C381.5 292.8 403.9 282.1 432.3 282.1 479.4 282.1 510.4 265.7 502.4 247.4L502 246.6 500.6 243.5C493.5 227.5 457 215.5 418.6 215.5L275.2 215.5C254.1 215.5 239 209.9 239 202.9 239 202.2 239.1 201.6 239.4 200.9L240.6 198C243.7 190.7 263 185 283.7 185 318.2 185 346.6 176.1 347 166L347 165.3 347.1 163.8C347.5 154.6 323.8 147.6 294.2 147.6L14.5 147.6C8.6 147.6 2.5 148.9 0.8 150.6-0.9 152.3 2.6 153.7 8.6 153.7L292.5 153.7C310.8 153.7 325.1 158.1 324.3 163.7L324.1 165.2 324 165.9C323.2 171.9 306.1 177 286 177 252.6 177 220.8 186 214.6 197.9L213.1 200.8C212.7 201.5 212.5 202.2 212.3 202.8 208.9 215.3 234.5 225.9 272.3 225.9L420.7 225.9C444.7 225.9 466.8 233.5 470.2 243.3L471.3 246.4 471.6 247.2C475.3 258 456.4 267.2 429.2 267.2 384 267.2 346.7 283.8 346.1 306.5L345.9 311.3 345.9 312.1C345.1 338.6 391.3 363.1 449 363.1L664.2 363.1C698.9 363.1 740.6 379.2 758.6 400.7L760.9 403.5 765.9 409.5C786.3 434 770.4 455.8 728.4 455.8 658.6 455.8 620.4 496.4 647.4 555.7L708.1 688.7C717 708.2 741.5 724.8 762.4 724.8 783.3 724.8 791.1 708.2 780.3 688.7L707.1 555.7C686.7 519 708.3 491.9 753.1 491.9Z" fill="#C7C2C2"/><path d="M753.1 491.6C827.5 491.6 850.9 451.6 811.9 409.5L806.3 403.5 803.7 400.7C771.5 366 703.9 341.3 649.1 341.3L444.5 341.3C411.5 341.3 383.8 327.7 382.8 312.1L382.7 311.3 382.4 306.5C381.5 292.5 403.9 281.8 432.3 281.8 479.4 281.8 510.4 265.4 502.4 247.1L502 246.3 500.6 243.2C493.5 227.2 457 215.2 418.6 215.2L275.2 215.2C254.1 215.2 239 209.6 239 202.6 239 201.9 239.1 201.3 239.4 200.6L240.6 197.7C243.7 190.4 263 184.7 283.7 184.7 318.2 184.7 346.6 175.8 347 165.7L347 165 347.1 163.5C347.5 154.3 323.8 147.3 294.2 147.3L14.5 147.3C8.6 147.3 2.5 148.6 0.8 150.3-0.9 152 2.6 153.4 8.6 153.4L292.5 153.4C310.8 153.4 325.1 157.8 324.3 163.4L324.1 164.9 324 165.6C323.2 171.6 306.1 176.7 286 176.7 252.6 176.7 220.8 185.7 214.6 197.6L213.1 200.5C212.7 201.2 212.5 201.9 212.3 202.5 208.9 215 234.5 225.6 272.3 225.6L420.7 225.6C444.7 225.6 466.8 233.2 470.2 243L471.3 246.1 471.6 246.9C475.3 257.7 456.4 266.9 429.2 266.9 384 266.9 346.7 283.5 346.1 306.2L345.9 311 345.9 311.8C345.1 338.3 391.3 362.8 449 362.8L664.2 362.8C698.9 362.8 740.6 378.9 758.6 400.4L760.9 403.2 765.9 409.2C786.3 433.7 770.4 455.5 728.4 455.5 658.6 455.5 620.4 496.1 647.4 555.4L708.1 688.4C717 707.9 741.5 724.5 762.4 724.5 783.3 724.5 791.1 707.9 780.3 688.4L707.1 555.4C686.7 518.7 708.3 491.6 753.1 491.6Z" fill="#C5C0C0"/><path d="M753 491.4C827.4 491.4 850.8 451.4 811.8 409.3L806.2 403.3 803.6 400.5C771.4 365.8 703.8 341.1 649 341.1L444.5 341.1C411.5 341.1 383.8 327.5 382.8 311.9L382.7 311.1 382.4 306.3C381.5 292.3 403.9 281.6 432.3 281.6 479.4 281.6 510.4 265.2 502.4 246.9L502 246.1 500.6 243C493.5 227 457 215 418.6 215L275.2 215C254.1 215 239 209.4 239 202.4 239 201.7 239.1 201.1 239.4 200.4L240.6 197.5C243.7 190.2 263 184.5 283.7 184.5 318.2 184.5 346.6 175.6 347 165.5L347 164.8 347.1 163.3C347.5 154.1 323.8 147.1 294.2 147.1L14.5 147.1C8.6 147.1 2.5 148.4 0.8 150.1-0.9 151.8 2.6 153.2 8.6 153.2L292.5 153.2C310.8 153.2 325.1 157.6 324.3 163.2L324.1 164.7 324 165.4C323.2 171.4 306.1 176.5 286 176.5 252.6 176.5 220.8 185.5 214.6 197.4L213.1 200.3C212.7 201 212.5 201.7 212.3 202.3 208.9 214.8 234.5 225.4 272.3 225.4L420.7 225.4C444.7 225.4 466.8 233 470.2 242.8L471.3 245.9 471.6 246.7C475.3 257.5 456.4 266.7 429.2 266.7 384 266.7 346.7 283.3 346.1 306L345.9 310.8 345.9 311.6C345.1 338.1 391.3 362.6 449 362.6L664.2 362.6C698.9 362.6 740.6 378.7 758.6 400.2L760.9 403 765.9 409C786.3 433.5 770.4 455.3 728.4 455.3 658.6 455.3 620.4 495.9 647.4 555.2L708.1 688.2C717 707.7 741.5 724.3 762.4 724.3 783.3 724.3 791.1 707.7 780.3 688.2L707.1 555.2C686.7 518.5 708.2 491.4 753 491.4Z" fill="#C3BEBE"/><path d="M753 491.1C827.4 491.1 850.8 451.1 811.8 409L806.2 403 803.6 400.2C771.4 365.5 703.8 340.8 649 340.8L444.4 340.8C411.4 340.8 383.7 327.2 382.7 311.6L382.6 310.8 382.3 306C381.4 292 403.8 281.3 432.2 281.3 479.3 281.3 510.3 264.9 502.3 246.6L501.9 245.8 500.5 242.7C493.4 226.7 456.9 214.7 418.5 214.7L275.1 214.7C254 214.7 238.9 209.1 238.9 202.1 238.9 201.4 239 200.8 239.3 200.1L240.5 197.2C243.6 189.9 262.9 184.2 283.6 184.2 318.1 184.2 346.5 175.3 346.9 165.2L346.9 164.5 347 163C347.4 153.8 323.7 146.8 294.1 146.8L14.4 146.8C8.5 146.8 2.4 148.1 0.7 149.8-1 151.5 2.5 152.9 8.5 152.9L292.4 152.9C310.7 152.9 325 157.3 324.2 162.9L324 164.4 323.9 165.1C323.1 171.1 306 176.2 285.9 176.2 252.5 176.2 220.7 185.2 214.5 197.1L213 200C212.6 200.7 212.4 201.4 212.2 202 208.8 214.5 234.4 225.1 272.2 225.1L420.6 225.1C444.6 225.1 466.7 232.7 470.1 242.5L471.2 245.6 471.5 246.4C475.2 257.2 456.3 266.4 429.1 266.4 383.9 266.4 346.6 283 346 305.7L345.8 310.5 345.8 311.3C345 337.8 391.2 362.3 448.9 362.3L664.1 362.3C698.8 362.3 740.5 378.4 758.5 399.9L760.8 402.7 765.8 408.7C786.2 433.2 770.3 455 728.3 455 658.5 455 620.3 495.6 647.3 554.9L708 687.9C716.9 707.4 741.4 724 762.3 724 783.2 724 791 707.4 780.2 687.9L707 554.9C686.6 518.2 708.2 491.1 753 491.1Z" fill="#C1BCBC"/><path d="M753 490.8C827.4 490.8 850.8 450.8 811.8 408.7L806.2 402.7 803.6 399.9C771.4 365.2 703.8 340.5 649 340.5L444.4 340.5C411.4 340.5 383.7 326.9 382.7 311.3L382.6 310.5 382.3 305.7C381.4 291.7 403.8 281 432.2 281 479.3 281 510.3 264.6 502.3 246.3L501.9 245.5 500.5 242.4C493.4 226.4 456.9 214.4 418.5 214.4L275.1 214.4C254 214.4 238.9 208.8 238.9 201.8 238.9 201.1 239 200.5 239.3 199.8L240.5 196.9C243.6 189.6 262.9 183.9 283.6 183.9 318.1 183.9 346.5 175 346.9 164.9L346.9 164.2 347 162.7C347.4 153.5 323.7 146.5 294.1 146.5L14.4 146.5C8.5 146.5 2.4 147.8 0.7 149.5-1 151.2 2.5 152.6 8.5 152.6L292.4 152.6C310.7 152.6 325 157 324.2 162.6L324 164.1 323.9 164.8C323.1 170.8 306 175.9 285.9 175.9 252.5 175.9 220.7 184.9 214.5 196.8L213 200C212.6 200.7 212.4 201.4 212.2 202 208.8 214.5 234.4 225.1 272.2 225.1L420.6 225.1C444.6 225.1 466.7 232.7 470.1 242.5L471.2 245.6 471.5 246.4C475.2 257.2 456.3 266.4 429.1 266.4 383.9 266.4 346.6 283 346 305.7L345.8 310.5 345.8 311.3C345 337.8 391.2 362.3 448.9 362.3L664.1 362.3C698.8 362.3 740.5 378.4 758.5 399.9L760.8 402.7 765.8 408.7C786.2 433.2 770.3 455 728.3 455 658.5 455 620.3 495.6 647.3 554.9L708 687.9C716.9 707.4 741.4 724 762.3 724 783.2 724 791 707.4 780.2 687.9L707 555C686.6 517.9 708.2 490.8 753 490.8Z" fill="#BFBABA"/><path d="M752.9 490.6C827.3 490.6 850.7 450.6 811.7 408.5L806.1 402.5 803.5 399.7C771.3 365 703.7 340.3 648.9 340.3L444.4 340.3C411.4 340.3 383.7 326.7 382.7 311.1L382.6 310.3 382.3 305.5C381.4 291.5 403.8 280.8 432.2 280.8 479.3 280.8 510.3 264.4 502.3 246.1L501.9 245.3 500.5 242.2C493.4 226.2 456.9 214.2 418.5 214.2L275.1 214.2C254 214.2 238.9 208.6 238.9 201.6 238.9 200.9 239 200.3 239.3 199.6L240.5 196.7C243.6 189.4 262.9 183.7 283.6 183.7 318.1 183.7 346.5 174.8 346.9 164.7L346.9 164 347 162.5C347.4 153.3 323.7 146.3 294.1 146.3L14.4 146.3C8.5 146.3 2.4 147.6 0.7 149.3-1 151 2.5 152.4 8.5 152.4L292.4 152.4C310.7 152.4 325 156.8 324.2 162.4L324 163.9 323.9 164.6C323.1 170.6 306 175.7 285.9 175.7 252.5 175.7 220.7 184.7 214.5 196.6L213 199.5C212.6 200.2 212.4 200.9 212.2 201.5 208.8 214 234.4 224.6 272.2 224.6L420.6 224.6C444.6 224.6 466.7 232.2 470.1 242L471.2 245.1 471.5 245.9C475.2 256.7 456.3 265.9 429.1 265.9 383.9 265.9 346.6 282.5 346 305.2L345.8 310 345.8 310.8C345 337.3 391.2 361.8 448.9 361.8L664 361.8C698.7 361.8 740.4 377.9 758.4 399.4L760.7 402.2 765.7 408.2C786.1 432.7 770.2 454.5 728.2 454.5 658.4 454.5 620.2 495.1 647.2 554.4L707.9 687.4C716.8 706.9 741.3 723.5 762.2 723.5 783.1 723.5 790.9 706.9 780.1 687.4L706.9 554.4C686.6 517.7 708.1 490.6 752.9 490.6Z" fill="#BDB7B7"/><path d="M752.9 490.3C827.3 490.3 850.7 450.3 811.7 408.2L806.1 402.2 803.5 399.4C771.3 364.7 703.7 340 648.9 340L444.3 340C411.3 340 383.6 326.4 382.6 310.8L382.5 310 382.2 305.2C381.3 291.2 403.7 280.5 432.1 280.5 479.2 280.5 510.2 264.1 502.2 245.8L501.8 245 500.4 241.9C493.3 225.9 456.8 213.9 418.4 213.9L275 213.9C253.9 213.9 238.8 208.3 238.8 201.3 238.8 200.6 238.9 200 239.2 199.3L240.4 196.4C243.5 189.1 262.8 183.4 283.5 183.4 318 183.4 346.4 174.5 346.8 164.4L346.8 163.7 346.9 162.2C347.3 153 323.6 146 294 146L14.4 146C8.5 146 2.4 147.3 0.7 149-1 150.7 2.5 152.1 8.5 152.1L292.4 152.1C310.7 152.1 325 156.5 324.2 162.1L324 163.6 323.9 164.3C323.1 170.3 306 175.4 285.9 175.4 252.5 175.4 220.7 184.4 214.5 196.3L213 199.2C212.6 199.9 212.4 200.6 212.2 201.2 208.8 213.7 234.4 224.3 272.2 224.3L420.6 224.3C444.6 224.3 466.7 231.9 470.1 241.7L471.2 244.8 471.5 245.6C475.2 256.4 456.3 265.6 429.1 265.6 383.9 265.6 346.6 282.2 346 304.9L345.8 309.7 345.8 310.5C345 337 391.2 361.5 448.9 361.5L664 361.5C698.7 361.5 740.4 377.6 758.4 399.1L760.7 401.9 765.7 407.9C786.1 432.4 770.2 454.2 728.2 454.2 658.4 454.2 620.2 494.8 647.2 554.1L707.9 687.1C716.8 706.6 741.3 723.2 762.2 723.2 783.1 723.2 790.9 706.6 780.1 687.1L706.9 554.1C686.6 517.4 708.1 490.3 752.9 490.3Z" fill="#BBB5B5"/><path d="M752.9 490C827.3 490 850.7 450 811.7 407.9L806.1 401.9 803.5 399.1C771.3 364.4 703.7 339.7 648.9 339.7L444.3 339.7C411.3 339.7 383.6 326.1 382.6 310.5L382.5 309.7 382.2 304.9C381.3 290.9 403.7 280.2 432.1 280.2 479.2 280.2 510.2 263.8 502.2 245.5L501.8 244.7 500.4 241.6C493.3 225.6 456.8 213.6 418.4 213.6L275 213.6C253.9 213.6 238.8 208 238.8 201 238.8 200.3 238.9 199.7 239.2 199L240.4 196.1C243.5 188.8 262.8 183.1 283.5 183.1 318 183.1 346.4 174.2 346.8 164.1L346.8 163.4 346.9 161.9C347.3 152.7 323.6 145.7 294 145.7L14.3 145.7C8.4 145.7 2.3 147 0.6 148.7-1.1 150.4 2.4 151.8 8.4 151.8L292.3 151.8C310.6 151.8 324.9 156.2 324.1 161.8L323.9 163.3 323.8 164C323 170 305.9 175.1 285.8 175.1 252.4 175.1 220.6 184.1 214.4 196L212.9 198.9C212.5 199.6 212.3 200.3 212.1 200.9 208.7 213.4 234.3 224 272.1 224L420.5 224C444.5 224 466.6 231.6 470 241.4L471.1 244.5 471.4 245.3C475.1 256.1 456.2 265.3 429 265.3 383.8 265.3 346.5 281.9 345.9 304.6L345.7 309.4 345.7 310.2C344.9 336.7 391.1 361.2 448.8 361.2L664 361.2C698.7 361.2 740.4 377.3 758.4 398.8L760.7 401.6 765.7 407.6C786.1 432.1 770.2 453.9 728.2 453.9 658.4 453.9 620.2 494.5 647.2 553.8L707.9 686.8C716.8 706.3 741.3 722.9 762.2 722.9 783.1 722.9 790.9 706.3 780.1 686.8L706.9 553.8C686.5 517.1 708.1 490 752.9 490Z" fill="#B9B3B3"/><path d="M752.8 489.8C827.2 489.8 850.6 449.8 811.6 407.7L806 401.7 803.4 398.9C771.2 364.2 703.6 339.5 648.8 339.5L444.3 339.5C411.3 339.5 383.6 325.9 382.6 310.3L382.5 309.5 382.2 304.7C381.3 290.7 403.7 280 432.1 280 479.2 280 510.2 263.6 502.2 245.3L501.8 244.5 500.4 241.4C493.3 225.4 456.8 213.4 418.4 213.4L275 213.4C253.9 213.4 238.8 207.8 238.8 200.8 238.8 200.1 238.9 199.5 239.2 198.8L240.4 195.9C243.5 188.6 262.8 182.9 283.5 182.9 318 182.9 346.4 174 346.8 163.9L346.8 163.2 346.9 161.7C347.3 152.5 323.6 145.5 294 145.5L14.3 145.5C8.4 145.5 2.3 146.8 0.6 148.5-1.1 150.2 2.4 151.6 8.4 151.6L292.3 151.6C310.6 151.6 324.9 156 324.1 161.6L323.9 163.1 323.8 163.8C323 169.8 305.9 174.9 285.8 174.9 252.4 174.9 220.6 183.9 214.4 195.8L212.9 198.7C212.5 199.4 212.3 200.1 212.1 200.7 208.7 213.2 234.3 223.8 272.1 223.8L420.5 223.8C444.5 223.8 466.6 231.4 470 241.2L471.1 244.3 471.4 245.1C475.1 255.9 456.2 265.1 429 265.1 383.8 265.1 346.5 281.7 345.9 304.4L345.7 309.2 345.7 310C344.9 336.5 391.1 361 448.8 361L664 361C698.7 361 740.4 377.1 758.4 398.6L760.7 401.4 765.7 407.4C786.1 431.9 770.2 453.7 728.2 453.7 658.4 453.7 620.2 494.3 647.2 553.6L707.9 686.6C716.8 706.1 741.3 722.7 762.2 722.7 783.1 722.7 790.9 706.1 780.1 686.6L706.9 553.6C686.5 516.9 708 489.8 752.8 489.8Z" fill="#B7B1B1"/><path d="M752.8 489.5C827.2 489.5 850.6 449.5 811.6 407.4L806 401.4 803.4 398.6C771.2 363.9 703.6 339.2 648.8 339.2L444.2 339.2C411.2 339.2 383.5 325.6 382.5 310L382.4 309.2 382.1 304.4C381.2 290.4 403.6 279.7 432 279.7 479.1 279.7 510.1 263.3 502.1 245L501.7 244.2 500.3 241.1C493.2 225.1 456.7 213.1 418.3 213.1L274.9 213.1C253.8 213.1 238.7 207.5 238.7 200.5 238.7 199.8 238.8 199.2 239.1 198.5L240.3 195.6C243.4 188.3 262.7 182.6 283.4 182.6 317.9 182.6 346.3 173.7 346.7 163.6L346.7 162.9 346.8 161.4C347.2 152.2 323.5 145.2 293.9 145.2L14.3 145.2C8.4 145.2 2.3 146.5 0.6 148.2-1.1 149.9 2.4 151.3 8.4 151.3L292.3 151.3C310.6 151.3 324.9 155.7 324.1 161.3L323.9 162.8 323.8 163.5C323 169.5 305.9 174.6 285.8 174.6 252.4 174.6 220.6 183.6 214.4 195.5L212.9 198.4C212.5 199.1 212.3 199.8 212.1 200.4 208.7 212.9 234.3 223.5 272.1 223.5L420.5 223.5C444.5 223.5 466.6 231.1 470 240.9L471.1 244 471.4 244.8C475.1 255.6 456.2 264.8 429 264.8 383.8 264.8 346.5 281.4 345.9 304.1L345.7 308.9 345.7 309.7C344.9 336.2 391.1 360.7 448.8 360.7L664 360.7C698.7 360.7 740.4 376.8 758.4 398.3L760.7 401.1 765.7 407.1C786.1 431.6 770.2 453.4 728.2 453.4 658.4 453.4 620.2 494 647.2 553.3L707.9 686.3C716.8 705.8 741.3 722.4 762.2 722.4 783.1 722.4 790.9 705.8 780.1 686.3L706.9 553.3C686.5 516.6 708 489.5 752.8 489.5Z" fill="#B5AFAF"/><path d="M752.8 489.2C827.2 489.2 850.6 449.2 811.6 407.1L806 401.1 803.4 398.3C771.2 363.6 703.6 338.9 648.8 338.9L444.2 338.9C411.2 338.9 383.5 325.3 382.5 309.7L382.4 308.9 382.1 304.1C381.2 290.1 403.6 279.4 432 279.4 479.1 279.4 510.1 263 502.1 244.7L501.7 243.9 500.3 240.8C493.2 224.8 456.7 212.8 418.3 212.8L274.9 212.8C253.8 212.8 238.7 207.2 238.7 200.2 238.7 199.5 238.8 198.9 239.1 198.2L240.3 195.3C243.4 188 262.7 182.3 283.4 182.3 317.9 182.3 346.3 173.4 346.7 163.3L346.7 162.6 346.8 161.1C347.2 151.9 323.5 144.9 293.9 144.9L14.2 144.9C8.3 144.9 2.2 146.2 0.5 147.9-1.2 149.6 2.3 151 8.3 151L292.2 151C310.5 151 324.8 155.4 324 161L323.8 162.5 323.7 163.2C322.9 169.2 305.8 174.3 285.7 174.3 252.3 174.3 220.5 183.3 214.3 195.2L212.8 198.1C212.4 198.8 212.2 199.5 212 200.1 208.6 212.6 234.2 223.2 272 223.2L420.4 223.2C444.4 223.2 466.5 230.8 469.9 240.6L471 243.7 471.3 244.5C475 255.3 456.1 264.5 428.9 264.5 383.7 264.5 346.4 281.1 345.8 303.8L345.6 308.6 345.6 309.4C344.8 335.9 391 360.4 448.7 360.4L663.9 360.4C698.6 360.4 740.3 376.5 758.3 398L760.6 400.8 765.6 406.8C786 431.3 770.1 453.1 728.1 453.1 658.3 453.1 620.1 493.7 647.1 553L707.8 686C716.7 705.5 741.2 722.1 762.1 722.1 783 722.1 790.8 705.5 780 686L706.8 553C686.4 516.3 708 489.2 752.8 489.2Z" fill="#B3ADAD"/><path d="M752.8 489C827.2 489 850.6 449 811.6 406.9L806 400.9 803.4 398.1C771.2 363.4 703.6 338.7 648.8 338.7L444.2 338.7C411.2 338.7 383.5 325.1 382.5 309.5L382.4 308.7 382.1 303.9C381.2 289.9 403.6 279.2 432 279.2 479.1 279.2 510.1 262.8 502.1 244.5L501.7 243.7 500.3 240.6C493.2 224.6 456.7 212.6 418.3 212.6L274.9 212.6C253.8 212.6 238.7 207 238.7 200 238.7 199.3 238.8 198.7 239.1 198L240.3 195.1C243.4 187.8 262.7 182.1 283.4 182.1 317.9 182.1 346.3 173.2 346.7 163.1L346.7 162.4 346.8 160.9C347.2 151.7 323.5 144.7 293.9 144.7L14.2 144.7C8.3 144.7 2.2 146 0.5 147.7-1.2 149.4 2.3 150.8 8.3 150.8L292.2 150.8C310.5 150.8 324.8 155.2 324 160.8L323.8 162.3 323.7 163C322.9 169 305.8 174.1 285.7 174.1 252.3 174.1 220.5 183.1 214.3 195L212.8 197.9C212.4 198.6 212.2 199.3 212 199.9 208.6 212.4 234.2 223 272 223L420.4 223C444.4 223 466.5 230.6 469.9 240.4L471 243.5 471.3 244.3C475 255.1 456.1 264.3 428.9 264.3 383.7 264.3 346.4 280.9 345.8 303.6L345.6 308.4 345.6 309.2C344.8 335.7 391 360.2 448.7 360.2L663.9 360.2C698.6 360.2 740.3 376.3 758.3 397.8L760.6 400.6 765.6 406.6C786 431.1 770.1 452.9 728.1 452.9 658.3 452.9 620.1 493.5 647.1 552.8L707.8 685.8C716.7 705.3 741.2 721.9 762.1 721.9 783 721.9 790.8 705.3 780 685.8L706.8 552.8C686.4 516.1 707.9 489 752.8 489Z" fill="#B1AAAA"/><path d="M752.7 488.7C827.1 488.7 850.5 448.7 811.5 406.6L805.9 400.6 803.3 397.8C771.1 363.1 703.5 338.4 648.7 338.4L444.2 338.4C411.2 338.4 383.5 324.8 382.5 309.2L382.4 308.4 382.1 303.6C381.2 289.6 403.6 278.9 432 278.9 479.1 278.9 510.1 262.5 502.1 244.2L501.7 243.4 500.3 240.3C493.2 224.3 456.7 212.3 418.3 212.3L274.9 212.3C253.8 212.3 238.7 206.7 238.7 199.7 238.7 199 238.8 198.4 239.1 197.7L240.3 194.8C243.4 187.5 262.7 181.8 283.4 181.8 317.9 181.8 346.3 172.9 346.7 162.8L346.7 162.1 346.8 160.6C347.2 151.4 323.5 144.4 293.9 144.4L14.2 144.4C8.3 144.4 2.2 145.7 0.5 147.4-1.2 149.1 2.3 150.5 8.3 150.5L292.2 150.5C310.5 150.5 324.8 154.9 324 160.5L323.8 162 323.7 162.7C322.9 168.7 305.8 173.8 285.7 173.8 252.3 173.8 220.5 182.8 214.3 194.7L212.8 197.6C212.4 198.3 212.2 199 212 199.6 208.6 212.1 234.2 222.7 272 222.7L420.4 222.7C444.4 222.7 466.5 230.3 469.9 240.1L471 243.2 471.3 244C475 254.8 456.1 264 428.9 264 383.7 264 346.4 280.6 345.8 303.3L345.6 308.1 345.6 308.9C344.8 335.4 391 359.9 448.7 359.9L663.9 359.9C698.6 359.9 740.3 376 758.3 397.5L760.6 400.3 765.6 406.3C785.9 431.2 770 453 728 453 658.2 453 620 493.6 647 552.9L707.7 685.9C716.6 705.4 741.1 722 762 722 782.9 722 790.7 705.4 779.9 685.9L706.7 552.9C686.4 515.8 707.9 488.7 752.7 488.7Z" fill="#AFA8A8"/><path d="M752.7 488.4C827.1 488.4 850.5 448.4 811.5 406.3L805.9 400.3 803.3 397.5C771.1 362.8 703.5 338.1 648.7 338.1L444.1 338.1C411.1 338.1 383.4 324.5 382.4 308.9L382.3 308.1 382 303.3C381.1 289.3 403.5 278.6 431.9 278.6 479 278.6 510 262.2 502 243.9L501.6 243.1 500.2 240C493.1 224 456.6 212 418.2 212L274.8 212C253.7 212 238.6 206.4 238.6 199.4 238.6 198.7 238.7 198.1 239 197.4L240.2 194.5C243.3 187.2 262.6 181.5 283.3 181.5 317.8 181.5 346.2 172.6 346.6 162.5L346.6 161.8 346.7 160.3C347.1 151.1 323.4 144.1 293.8 144.1L14.1 144.1C8.2 144.1 2.1 145.4 0.4 147.1-1.3 148.8 2.2 150.2 8.2 150.2L292.1 150.2C310.4 150.2 324.7 154.6 323.9 160.2L323.7 161.7 323.6 162.4C322.8 168.4 305.7 173.5 285.6 173.5 252.2 173.5 220.4 182.5 214.2 194.4L212.7 197.3C212.3 198 212.1 198.7 211.9 199.3 208.6 211.8 234.1 222.4 271.9 222.4L420.3 222.4C444.3 222.4 466.4 230 469.8 239.8L470.9 242.9 471.2 243.7C474.9 254.5 456 263.7 428.8 263.7 383.6 263.7 346.3 280.3 345.7 303L345.5 307.8 345.5 308.6C344.7 335.1 390.9 359.6 448.6 359.6L663.8 359.6C698.5 359.6 740.2 375.7 758.2 397.2L760.5 400 765.5 406C785.9 430.5 770 452.3 728 452.3 658.2 452.3 620 492.9 647 552.2L707.7 685.2C716.6 704.7 741.1 721.3 762 721.3 782.9 721.3 790.7 704.7 779.9 685.2L706.7 552.2C686.3 515.5 707.9 488.4 752.7 488.4Z" id="XMLID_33_" fill="#ADA6A6"/></g></g><g id="XMLID_16_"><defs><rect x="101.4" y="0" width="750" height="500" id="XMLID_17_"/></defs><clipPath id="XMLID_59_"><use width="100%" height="100%" xlink:href="#XMLID_17_" overflow="visible"></use></clipPath><g id="XMLID_18_" clip-path="url(#XMLID_59_)"><linearGradient x1="568.952" y1="349.053" x2="745.594" y2="606.885" gradientUnits="userSpaceOnUse" id="XMLID_63_"><stop offset="0" stop-color="#006CA6"/><stop offset="1" stop-color="#1895D4"/></linearGradient><linearGradient x1="0" y1="153.103" x2="346.765" y2="153.103" gradientUnits="userSpaceOnUse" id="XMLID_64_"><stop offset="0" stop-color="#006CA6"/><stop offset="1" stop-color="#1895D4"/></linearGradient><linearGradient x1="211.593" y1="221.434" x2="501.557" y2="221.434" gradientUnits="userSpaceOnUse" id="XMLID_65_"><stop offset="0" stop-color="#006CA6"/><stop offset="1" stop-color="#1895D4"/></linearGradient><g id="XMLID_22_"><linearGradient x1="345.553" y1="275.743" x2="503.207" y2="275.743" gradientUnits="userSpaceOnUse" id="XMLID_60_"><stop offset="0" stop-color="#069CCA"/><stop offset="1" stop-color="#3ED0FF"/></linearGradient><linearGradient x1="211.887" y1="180.79" x2="346.694" y2="180.79" gradientUnits="userSpaceOnUse" id="XMLID_61_"><stop offset="0" stop-color="#069CCA"/><stop offset="1" stop-color="#3ED0FF"/></linearGradient><linearGradient x1="606.978" y1="323.002" x2="783.619" y2="580.832" gradientUnits="userSpaceOnUse" id="XMLID_62_"><stop offset="0" stop-color="#3ED0FF"/><stop offset="1" stop-color="#069CCA"/></linearGradient><path d="M431.9 278.8C403.5 278.8 381.2 289.5 382 303.5L382.3 308.3 345.5 308.3 345.7 303.5C346.4 280.8 383.7 264.2 428.8 264.2 456 264.2 474.9 254.9 471.2 244.2L470.9 243.4 501.5 243.4 501.9 244.2C510 262.3 479 278.8 431.9 278.8Z" id="XMLID_25_" fill="url(#XMLID_60_)"/><path d="M346.7 162 346.7 162.7C346.3 172.8 317.8 181.7 283.4 181.7 262.7 181.7 243.4 187.4 240.3 194.7L239.1 197.6C238.8 198.3 238.7 199 238.7 199.6L212 199.6C212.2 198.9 212.4 198.2 212.8 197.6L214.3 194.7C220.5 182.8 252.3 173.8 285.7 173.8 305.8 173.8 322.9 168.7 323.7 162.7L323.8 162 346.7 162Z" id="XMLID_24_" fill="url(#XMLID_61_)"/><path d="M706.7 552.6 779.9 685.6C790.7 705.1 782.8 721.7 762 721.7 741.1 721.7 716.6 705.1 707.7 685.6L647 552.6C620 493.3 658.2 452.7 728 452.7 770 452.7 786 430.9 765.5 406.4L760.5 400.4 805.9 400.4 811.5 406.4C850.6 448.5 827.1 488.5 752.7 488.5 707.9 488.4 686.3 515.5 706.7 552.6Z" id="XMLID_23_" fill="url(#XMLID_62_)"/></g><path d="M805.9 400.4 760.5 400.4 758.2 397.6C740.3 376.1 698.6 360 663.8 360L448.6 360C390.9 360 344.7 335.6 345.5 309L345.5 308.2 382.3 308.2 382.4 309C383.4 324.6 411.1 338.2 444.1 338.2L648.7 338.2C703.5 338.2 771.1 362.9 803.3 397.6L805.9 400.4Z" id="XMLID_21_" fill="url(#XMLID_63_)"/><path d="M346.8 160.4 346.7 161.9 323.7 161.9 323.9 160.4C324.7 154.8 310.4 150.4 292.1 150.4L8.3 150.4C2.3 150.4-1.2 149 0.5 147.3 2.2 145.6 8.3 144.3 14.2 144.3L293.9 144.3C323.4 144.3 347.2 151.2 346.8 160.4Z" id="XMLID_20_" fill="url(#XMLID_64_)"/><path d="M501.6 243.2 471 243.2 469.9 240.1C466.5 230.2 444.3 222.7 420.4 222.7L271.9 222.7C234.1 222.7 208.6 212.1 211.9 199.6L238.6 199.6C238.6 206.6 253.7 212.2 274.8 212.2L418.1 212.2C456.5 212.2 493 224.1 500.1 240.2L501.6 243.2Z" id="XMLID_19_" fill="url(#XMLID_65_)"/></g></g></g><g id="XMLID_4_"><defs><rect x="101.4" y="0" width="750" height="500" id="XMLID_5_"/></defs><clipPath id="XMLID_66_"><use width="100%" height="100%" xlink:href="#XMLID_5_" overflow="visible"></use></clipPath><g id="XMLID_7_" clip-path="url(#XMLID_66_)"><linearGradient x1="568.952" y1="343.761" x2="745.594" y2="601.592" gradientUnits="userSpaceOnUse" id="XMLID_70_"><stop offset="0" stop-color="#1895D4"/><stop offset="1" stop-color="#006CA6"/></linearGradient><linearGradient x1="0" y1="147.81" x2="346.765" y2="147.81" gradientUnits="userSpaceOnUse" id="XMLID_71_"><stop offset="0" stop-color="#1895D4"/><stop offset="1" stop-color="#006CA6"/></linearGradient><linearGradient x1="211.593" y1="216.141" x2="501.557" y2="216.141" gradientUnits="userSpaceOnUse" id="XMLID_72_"><stop offset="0" stop-color="#1895D4"/><stop offset="1" stop-color="#006CA6"/></linearGradient><g id="XMLID_11_"><linearGradient x1="345.553" y1="270.45" x2="503.207" y2="270.45" gradientUnits="userSpaceOnUse" id="XMLID_67_"><stop offset="0" stop-color="#3ED0FF"/><stop offset="1" stop-color="#069CCA"/></linearGradient><linearGradient x1="211.887" y1="175.497" x2="346.694" y2="175.497" gradientUnits="userSpaceOnUse" id="XMLID_68_"><stop offset="0" stop-color="#3ED0FF"/><stop offset="1" stop-color="#069CCA"/></linearGradient><linearGradient x1="606.978" y1="317.709" x2="783.619" y2="575.539" gradientUnits="userSpaceOnUse" id="XMLID_69_"><stop offset="0" stop-color="#3ED0FF"/><stop offset="1" stop-color="#069CCA"/></linearGradient><path d="M431.9 273.5C403.5 273.5 381.2 284.2 382 298.2L382.3 303 345.5 303 345.7 298.2C346.4 275.5 383.7 258.9 428.8 258.9 456 258.9 474.9 249.6 471.2 238.9L470.9 238.1 501.5 238.1 501.9 238.9C510 257 479 273.5 431.9 273.5Z" id="XMLID_14_" fill="url(#XMLID_67_)"/><path d="M346.7 156.7 346.7 157.4C346.3 167.5 317.8 176.4 283.4 176.4 262.7 176.4 243.4 182.1 240.3 189.4L239.1 192.3C238.8 193 238.7 193.7 238.7 194.3L212 194.3C212.2 193.6 212.4 192.9 212.8 192.3L214.3 189.4C220.5 177.5 252.3 168.5 285.7 168.5 305.8 168.5 322.9 163.4 323.7 157.4L323.8 156.7 346.7 156.7Z" id="XMLID_13_" fill="url(#XMLID_68_)"/><path d="M706.7 547.3 779.9 680.3C790.7 699.8 782.8 716.4 762 716.4 741.1 716.4 716.6 699.8 707.7 680.3L647 547.3C620 488 658.2 447.4 728 447.4 770 447.4 786 425.6 765.5 401.1L760.5 395.1 805.9 395.1 811.5 401.1C850.6 443.2 827.1 483.2 752.7 483.2 707.9 483.1 686.3 510.2 706.7 547.3Z" id="XMLID_12_" fill="url(#XMLID_69_)"/></g><path d="M805.9 395.1 760.5 395.1 758.2 392.3C740.3 370.8 698.6 354.7 663.8 354.7L448.6 354.7C390.9 354.7 344.7 330.3 345.5 303.7L345.5 302.9 382.3 302.9 382.4 303.7C383.4 319.3 411.1 332.9 444.1 332.9L648.7 332.9C703.5 332.9 771.1 357.6 803.3 392.3L805.9 395.1Z" id="XMLID_10_" fill="url(#XMLID_70_)"/><path d="M346.8 155.2 346.7 156.7 323.7 156.7 323.9 155.2C324.7 149.6 310.4 145.2 292.1 145.2L8.3 145.2C2.3 145.2-1.2 143.8 0.5 142.1 2.2 140.4 8.3 139.1 14.2 139.1L293.9 139.1C323.4 139 347.2 146 346.8 155.2Z" id="XMLID_9_" fill="url(#XMLID_71_)"/><path d="M501.6 237.9 471 237.9 469.9 234.8C466.5 224.9 444.3 217.4 420.4 217.4L271.9 217.4C234.1 217.4 208.6 206.8 211.9 194.3L238.6 194.3C238.6 201.3 253.7 206.9 274.8 206.9L418.1 206.9C456.5 206.9 493 218.8 500.1 234.9L501.6 237.9Z" id="XMLID_8_" fill="url(#XMLID_72_)"/></g></g><rect x="101.4" y="0" width="750" height="500" id="XMLID_3_" fill="none"/></svg>