<svg width="109.9" height="114.4" viewBox="0 0 109.9 114.4" xmlns="http://www.w3.org/2000/svg" xmlns:xlink="http://www.w3.org/1999/xlink" xml:space="preserve" overflow="visible"><defs></defs><g id="XMLID_1_"><g id="XMLID_5_"><radialGradient cx="-437.27" cy="548.118" r="54.9649" gradientUnits="userSpaceOnUse" id="XMLID_7_" gradientTransform="matrix(-1 0 0 0.1269 -382.306 37.8216)"><stop offset="0" stop-color="#8C6B6B"/><stop offset="0.0366868" stop-color="#9C7F7F"/><stop offset="0.11" stop-color="#B6A1A1"/><stop offset="0.1913" stop-color="#CDBEBE"/><stop offset="0.2811" stop-color="#DFD6D6"/><stop offset="0.3827" stop-color="#EEE9E9"/><stop offset="0.5034" stop-color="#F8F5F5"/><stop offset="0.6616" stop-color="#FDFDFD"/><stop offset="1" stop-color="#FFFFFF"/></radialGradient><path d="M0 107.4C0 111.3 24.6 114.4 55 114.4 85.4 114.4 110 111.3 110 107.4 110 103.5 85.4 100.4 55 100.4 24.6 100.4 0 103.5 0 107.4Z" id="XMLID_6_" fill="url(#XMLID_7_)"/></g><g id="XMLID_2_"><linearGradient x1="-677.227" y1="345.627" x2="-588.254" y2="345.627" gradientUnits="userSpaceOnUse" id="XMLID_8_" gradientTransform="matrix(-0.7071 -0.7071 -0.7071 0.7071 -151.188 -647.339)"><stop offset="0" stop-color="#069CCA"/><stop offset="1" stop-color="#3ED0FF"/></linearGradient><linearGradient x1="-674.51" y1="345.627" x2="-590.971" y2="345.627" gradientUnits="userSpaceOnUse" id="XMLID_9_" gradientTransform="matrix(-0.7071 -0.7071 -0.7071 0.7071 -151.188 -647.339)"><stop offset="0" stop-color="#3ED0FF"/><stop offset="1" stop-color="#069CCA"/></linearGradient><path d="M51.8 107.4 83.3 75.9C100.6 58.6 100.6 30.3 83.3 13 65.9-4.3 37.7-4.3 20.4 13 3 30.4 3 58.6 20.4 75.9L51.8 107.4Z" id="XMLID_4_" fill="url(#XMLID_8_)"/><path d="M22.3 74 51.8 103.5 81.4 74C97.7 57.7 97.7 31.2 81.4 14.9L81.4 14.9C65.1-1.4 38.6-1.4 22.3 14.9L22.3 14.9C6 31.2 6 57.7 22.3 74Z" id="XMLID_3_" fill="url(#XMLID_9_)"/></g></g></svg>