<svg viewBox="0 0 339.89 210.01" xmlns="http://www.w3.org/2000/svg" xmlns:xlink="http://www.w3.org/1999/xlink" overflow="hidden"><defs><linearGradient x1="179.92" y1="48.4" x2="176.21" y2="40.05" gradientUnits="userSpaceOnUse" id="linear-gradient"><stop offset="0" stop-color="#E7E6FF"/><stop offset="0.34" stop-color="#C9D2F8"/><stop offset="0.76" stop-color="#AABDF1"/><stop offset="1" stop-color="#9EB5EE"/></linearGradient><linearGradient x1="3393" y1="-1268.97" x2="3409.65" y2="-1268.97" gradientUnits="userSpaceOnUse" id="linear-gradient-2" gradientTransform="matrix(-0.94 -0.34 -0.34 0.94 3207.04 2604.37)"><stop offset="0" stop-color="#F4F3F1"/><stop offset="1" stop-color="#FFB2BC"/></linearGradient><linearGradient x1="306.55" y1="285.98" x2="308.93" y2="295.3" gradientUnits="userSpaceOnUse" id="linear-gradient-3"><stop offset="0" stop-color="#FFD1C1"/><stop offset="0.26" stop-color="#FFC7B4"/><stop offset="0.74" stop-color="#FFAB93"/><stop offset="1" stop-color="#FF9A7F"/></linearGradient><linearGradient x1="3441.32" y1="-1063.5" x2="3462.06" y2="-1063.5" gradientUnits="userSpaceOnUse" id="linear-gradient-4" gradientTransform="matrix(-0.81 -0.58 -0.58 0.81 2473.06 3133.75)"><stop offset="0" stop-color="#FFD1C1"/><stop offset="0.32" stop-color="#FFCFBE"/><stop offset="0.54" stop-color="#FFC7B5"/><stop offset="0.73" stop-color="#FFBAA6"/><stop offset="0.9" stop-color="#FFA990"/><stop offset="1" stop-color="#FF9A7F"/></linearGradient><linearGradient x1="3448.4" y1="-1042.37" x2="3421.46" y2="-1042.37" xlink:href="#linear-gradient-4" id="linear-gradient-5"></linearGradient><linearGradient x1="348.35" y1="369.94" x2="369.3" y2="369.94" gradientUnits="userSpaceOnUse" id="linear-gradient-6"><stop offset="0" stop-color="#E0C748"/><stop offset="0.17" stop-color="#E0C850"/><stop offset="0.43" stop-color="#DFC964"/><stop offset="0.75" stop-color="#DFCC86"/><stop offset="1" stop-color="#DECFA6"/></linearGradient><linearGradient x1="8830.02" y1="422.46" x2="8861.11" y2="422.46" xlink:href="#linear-gradient-2" id="linear-gradient-7" gradientTransform="matrix(-1 0 0 1 9261.61 0)"></linearGradient><linearGradient x1="8720.36" y1="427.79" x2="8751.45" y2="427.79" gradientUnits="userSpaceOnUse" id="linear-gradient-8" gradientTransform="matrix(-1 0 0 1 9151.94 0)"><stop offset="0" stop-color="#071786"/><stop offset="0.15" stop-color="#05136B"/><stop offset="0.32" stop-color="#041055"/><stop offset="0.51" stop-color="#030E45"/><stop offset="0.72" stop-color="#020C3B"/><stop offset="1" stop-color="#020C38"/></linearGradient><linearGradient x1="474.81" y1="369.94" x2="495.77" y2="369.94" xlink:href="#linear-gradient-6" id="linear-gradient-9"></linearGradient><linearGradient x1="8791.22" y1="288.02" x2="8791.22" y2="271.65" xlink:href="#linear-gradient-2" id="linear-gradient-10" gradientTransform="matrix(-1 0 0 1 9261.61 0)"></linearGradient><linearGradient x1="8792.69" y1="254.61" x2="8806.99" y2="279.39" xlink:href="#linear-gradient-2" id="linear-gradient-11" gradientTransform="matrix(-1 0 0 1 9261.61 0)"></linearGradient><linearGradient x1="298.75" y1="39.04" x2="290.92" y2="34.12" xlink:href="#linear-gradient-2" id="linear-gradient-12"></linearGradient><linearGradient x1="8790.72" y1="267.24" x2="8785.06" y2="267.24" xlink:href="#linear-gradient-2" id="linear-gradient-13" gradientTransform="matrix(-1 0 0 1 9261.61 0)"></linearGradient><linearGradient x1="9204.07" y1="1187.65" x2="9204.07" y2="1232.71" gradientUnits="userSpaceOnUse" id="linear-gradient-14" gradientTransform="matrix(-0.98 -0.18 -0.18 0.98 9742.39 755.85)"><stop offset="0" stop-color="#074FC0"/><stop offset="0.56" stop-color="#06329E"/><stop offset="1" stop-color="#061F88"/></linearGradient><linearGradient x1="8789.89" y1="420.24" x2="8811.29" y2="420.24" xlink:href="#linear-gradient-2" id="linear-gradient-15" gradientTransform="matrix(-1 0 0 1 9261.61 0)"></linearGradient><linearGradient x1="8762.27" y1="571.94" x2="8780.16" y2="571.94" xlink:href="#linear-gradient-8" id="linear-gradient-16" gradientTransform="matrix(-1 -0.03 -0.03 1 9246.42 117.59)"></linearGradient><linearGradient x1="8682.57" y1="343.31" x2="8682.57" y2="281.55" gradientUnits="userSpaceOnUse" id="linear-gradient-17" gradientTransform="matrix(-1 0 0 1 9151.94 0)"><stop offset="0" stop-color="#F9FBFC"/><stop offset="0.29" stop-color="#F1F6FD"/><stop offset="0.73" stop-color="#DDE6FE"/><stop offset="1" stop-color="#CDDBFF"/></linearGradient><linearGradient x1="9651.8" y1="1190.02" x2="9634.2" y2="1179.86" xlink:href="#linear-gradient-2" id="linear-gradient-18" gradientTransform="matrix(-0.98 -0.18 -0.18 0.98 10122.5 942.75)"></linearGradient><linearGradient x1="9092.68" y1="915.88" x2="9094.28" y2="903.1" gradientUnits="userSpaceOnUse" id="linear-gradient-19" gradientTransform="matrix(-0.99 -0.12 -0.12 0.99 9441.61 279.64)"><stop offset="0" stop-color="#F9FBFC"/><stop offset="0.31" stop-color="#F0F5FD"/><stop offset="0.8" stop-color="#D8E3FE"/><stop offset="1" stop-color="#CDDBFF"/></linearGradient><linearGradient x1="9099.42" y1="918.07" x2="9100.07" y2="912.9" xlink:href="#linear-gradient" id="linear-gradient-20" gradientTransform="matrix(-0.99 -0.12 -0.12 0.99 9441.61 279.64)"></linearGradient><linearGradient x1="2140.65" y1="-1143.79" x2="2157.46" y2="-1143.79" gradientUnits="userSpaceOnUse" id="linear-gradient-21" gradientTransform="matrix(0.82 -0.58 -0.58 -0.82 -2146.71 634.69)"><stop offset="0" stop-color="#FFD1C1"/><stop offset="0.49" stop-color="#FFCFBF"/><stop offset="0.66" stop-color="#FFCAB8"/><stop offset="0.79" stop-color="#FFC0AD"/><stop offset="0.89" stop-color="#FFB29C"/><stop offset="0.98" stop-color="#FFA086"/><stop offset="1" stop-color="#FF9A7F"/></linearGradient><linearGradient x1="280" y1="434.7" x2="280" y2="407.05" gradientUnits="userSpaceOnUse" id="linear-gradient-22"><stop offset="0" stop-color="#FFD1C1"/><stop offset="0.28" stop-color="#FFCEBE"/><stop offset="0.51" stop-color="#FFC6B4"/><stop offset="0.72" stop-color="#FFB8A2"/><stop offset="0.92" stop-color="#FFA48B"/><stop offset="1" stop-color="#FF9A7F"/></linearGradient><linearGradient x1="261.56" y1="426.13" x2="298" y2="426.13" xlink:href="#linear-gradient-8" id="linear-gradient-23"></linearGradient><linearGradient x1="-110.1" y1="3415.15" x2="-134.03" y2="3381.63" xlink:href="#linear-gradient-22" id="linear-gradient-24" gradientTransform="matrix(0.81 0.58 -0.58 0.81 2297.01 -2275.76)"></linearGradient><linearGradient x1="208.76" y1="424.27" x2="236.61" y2="424.27" xlink:href="#linear-gradient-8" id="linear-gradient-25"></linearGradient><linearGradient x1="215.46" y1="342.8" x2="215.46" y2="278.45" gradientUnits="userSpaceOnUse" id="linear-gradient-26"><stop offset="0" stop-color="#FFD1C1"/><stop offset="0.22" stop-color="#FFCCBB"/><stop offset="0.51" stop-color="#FFBEAB"/><stop offset="0.83" stop-color="#FFA890"/><stop offset="1" stop-color="#FF9A7F"/></linearGradient><linearGradient x1="58.65" y1="61.19" x2="58.65" y2="52.62" gradientUnits="userSpaceOnUse" id="linear-gradient-27"><stop offset="0" stop-color="#071786"/><stop offset="0.2" stop-color="#071681"/><stop offset="0.45" stop-color="#061472"/><stop offset="0.72" stop-color="#04115A"/><stop offset="1" stop-color="#020C38"/></linearGradient><linearGradient x1="70.06" y1="84.7" x2="49.99" y2="73.11" gradientUnits="userSpaceOnUse" id="linear-gradient-28"><stop offset="0" stop-color="#071786"/><stop offset="0.2" stop-color="#07167E"/><stop offset="0.5" stop-color="#051369"/><stop offset="0.86" stop-color="#030E47"/><stop offset="1" stop-color="#020C38"/></linearGradient><linearGradient x1="217.01" y1="262.59" x2="217.01" y2="283.13" gradientUnits="userSpaceOnUse" id="linear-gradient-29"><stop offset="0" stop-color="#FFD1C1"/><stop offset="0.29" stop-color="#FFCEBE"/><stop offset="0.51" stop-color="#FFC6B4"/><stop offset="0.72" stop-color="#FFB8A3"/><stop offset="0.92" stop-color="#FFA58C"/><stop offset="1" stop-color="#FF9A7F"/></linearGradient><linearGradient x1="1291.5" y1="747.08" x2="1309.92" y2="747.08" xlink:href="#linear-gradient-21" id="linear-gradient-30" gradientTransform="matrix(-0.68 -0.74 -0.74 0.68 1610.56 707.06)"></linearGradient><linearGradient x1="-815.21" y1="286.82" x2="-815.21" y2="274.84" xlink:href="#linear-gradient" id="linear-gradient-31" gradientTransform="translate(1039.6 0)"></linearGradient><linearGradient x1="-812.1" y1="285.18" x2="-812.1" y2="274.16" gradientUnits="userSpaceOnUse" id="linear-gradient-32" gradientTransform="translate(876 -231.88)"><stop offset="0" stop-color="#F9FBFC"/><stop offset="1" stop-color="#CDDBFF"/></linearGradient><linearGradient x1="-825.37" y1="288.34" x2="-825.37" y2="274.09" xlink:href="#linear-gradient-19" id="linear-gradient-33" gradientTransform="translate(876 -231.88)"></linearGradient><linearGradient x1="-818.83" y1="286.82" x2="-818.83" y2="283.16" xlink:href="#linear-gradient" id="linear-gradient-34" gradientTransform="translate(876 -231.88)"></linearGradient><linearGradient x1="1484.62" y1="-1203.66" x2="1467.82" y2="-1156.04" xlink:href="#linear-gradient-29" id="linear-gradient-35" gradientTransform="matrix(0.943049 -0.332655 0.332655 0.943049 -631.02 1906.89)"></linearGradient><linearGradient x1="177.96" y1="52.2" x2="178.41" y2="39.6" xlink:href="#linear-gradient-4" id="linear-gradient-37"></linearGradient><linearGradient x1="341.6" y1="279.65" x2="341.6" y2="266" gradientUnits="userSpaceOnUse" id="linear-gradient-38"><stop offset="0" stop-color="#FFD1C1"/><stop offset="0.43" stop-color="#FFB39D"/><stop offset="0.78" stop-color="#FFA187"/><stop offset="1" stop-color="#FF9A7F"/></linearGradient><linearGradient x1="6746.64" y1="-1669.56" x2="6746.64" y2="-1681.56" xlink:href="#linear-gradient" id="linear-gradient-39" gradientTransform="matrix(-0.87 0.5 0.5 0.87 7023.9 -1617.84)"></linearGradient><linearGradient x1="6744.98" y1="-1681.55" x2="6751.12" y2="-1670.83" gradientUnits="userSpaceOnUse" id="linear-gradient-40" gradientTransform="matrix(-0.87 0.5 0.5 0.87 6860.3 -1849.72)"><stop offset="0" stop-color="#F9FBFC"/><stop offset="0.3" stop-color="#F5F8FC"/><stop offset="0.6" stop-color="#E9EFFD"/><stop offset="0.91" stop-color="#D4E0FE"/><stop offset="1" stop-color="#CDDBFF"/></linearGradient><linearGradient x1="-1283.2" y1="2928.41" x2="-1283.2" y2="2916.41" xlink:href="#linear-gradient" id="linear-gradient-41" gradientTransform="matrix(0.867765 0.496974 -0.496974 0.867765 2912.4 -1617.84)"></linearGradient><linearGradient x1="-1284.89" y1="2916.33" x2="-1278.75" y2="2927.05" xlink:href="#linear-gradient-40" id="linear-gradient-42" gradientTransform="matrix(0.867765 0.496974 -0.496974 0.867765 2748.81 -1849.72)"></linearGradient><linearGradient x1="342.19" y1="334.35" x2="342.41" y2="321.29" xlink:href="#linear-gradient-29" id="linear-gradient-43"></linearGradient><linearGradient x1="363.19" y1="334.71" x2="363.41" y2="321.65" xlink:href="#linear-gradient-29" id="linear-gradient-44"></linearGradient><linearGradient x1="328.91" y1="259.75" x2="355.6" y2="259.75" xlink:href="#linear-gradient-4" id="linear-gradient-45"></linearGradient><linearGradient x1="356.5" y1="263.16" x2="356.5" y2="251.69" xlink:href="#linear-gradient-21" id="linear-gradient-46"></linearGradient><linearGradient x1="177.09" y1="30.26" x2="180.08" y2="30.26" gradientUnits="userSpaceOnUse" id="linear-gradient-47"><stop offset="0" stop-color="#EEA281"/><stop offset="0.25" stop-color="#EE9C7B"/><stop offset="0.58" stop-color="#ED8A6C"/><stop offset="0.97" stop-color="#EC6E52"/><stop offset="1" stop-color="#EC6B50"/></linearGradient><linearGradient x1="328.02" y1="263.06" x2="328.02" y2="251.59" xlink:href="#linear-gradient-21" id="linear-gradient-48"></linearGradient><linearGradient x1="204.48" y1="260.68" x2="231.17" y2="260.68" xlink:href="#linear-gradient-4" id="linear-gradient-49"></linearGradient><linearGradient x1="232.07" y1="264.09" x2="232.07" y2="252.62" xlink:href="#linear-gradient-21" id="linear-gradient-50"></linearGradient><linearGradient x1="52.66" y1="31.19" x2="55.65" y2="31.19" xlink:href="#linear-gradient-47" id="linear-gradient-51"></linearGradient><linearGradient x1="203.59" y1="263.99" x2="203.59" y2="252.52" xlink:href="#linear-gradient-21" id="linear-gradient-52"></linearGradient><linearGradient x1="385.5" y1="439.66" x2="385.5" y2="406.58" xlink:href="#linear-gradient-22" id="linear-gradient-53"></linearGradient><linearGradient x1="369.53" y1="429.79" x2="401.46" y2="429.79" xlink:href="#linear-gradient-8" id="linear-gradient-54"></linearGradient><linearGradient x1="296.55" y1="439.66" x2="296.55" y2="406.58" xlink:href="#linear-gradient-22" id="linear-gradient-55"></linearGradient><linearGradient x1="280.59" y1="429.79" x2="312.52" y2="429.79" xlink:href="#linear-gradient-8" id="linear-gradient-56"></linearGradient><linearGradient x1="9497.35" y1="328.46" x2="9298.42" y2="328.46" xlink:href="#linear-gradient-17" id="linear-gradient-57" gradientTransform="matrix(1 0 0 -1 -9067.98 656.92)"></linearGradient><linearGradient x1="215.4" y1="53.4" x2="117.21" y2="151.59" xlink:href="#linear-gradient-17" id="linear-gradient-58"></linearGradient></defs><g><g id="OBJECTS"><path d="M170.43 42.61 185.49 42.61 185.49 45.93 170.67 45.93 170.43 42.61Z" fill="url(#linear-gradient)"/><path d="M436.26 261.72 431.93 252.57C431.776 252.199 431.401 251.969 431 252 430.37 252.047 429.792 252.369 429.42 252.88 428.7 253.88 426.87 254.21 426.83 255.27 426.79 256.33 428.14 260.99 428.51 262.74 428.88 264.49 431.31 265.79 431.78 267.44 432.25 269.09 433.25 273.13 433.25 273.13L438.91 270.82 437.62 266.05C437.62 266.05 439.13 262.12 438.14 258.72 438.049 258.425 437.735 258.259 437.44 258.35 437.263 258.405 437.125 258.543 437.07 258.72Z" fill="url(#linear-gradient-2)" transform="translate(-163.6 -231.88)"/><path d="M441 303.89C441 303.89 448.89 302.04 448.05 296.59 447.21 291.14 439.47 269.37 439.47 269.37L432.1 271.45C432.1 271.45 435.86 300.33 441 303.89Z" fill="#DB277D" transform="translate(-163.6 -231.88)"/><path d="M438.74 300.63C438.74 300.63 441.85 308.11 447.1 306.38 452.35 304.65 472.53 293.45 472.53 293.45L469.27 286.51C469.27 286.51 441.4 295 438.74 300.63Z" fill="#DB277D" transform="translate(-163.6 -231.88)"/><path d="M288.25 290.78C288.25 290.78 288.49 300.85 293.1 300.85 299.97 300.85 328.05 294.85 328.05 294.85L326.53 285.43C326.53 285.43 293.37 284.92 288.25 290.78Z" fill="url(#linear-gradient-3)" transform="translate(-163.6 -231.88)"/><path d="M298.23 253.47 296.23 241.03C296.167 240.532 295.793 240.129 295.3 240.03 294.529 239.876 293.73 240.066 293.11 240.55 291.93 241.43 289.61 241.26 289.19 242.55 288.77 243.84 288.79 249.84 288.63 252.07 288.47 254.3 290.93 256.68 290.93 258.81 290.93 260.94 290.73 266.12 290.73 266.12L298.29 265.31 298.39 259.16C298.39 259.16 301.55 254.98 301.53 250.57 301.531 250.189 301.223 249.879 300.842 249.878 300.6 249.877 300.375 250.003 300.25 250.21Z" fill="url(#linear-gradient-4)" transform="translate(-163.6 -231.88)"/><path d="M290 296.84C290 296.84 300.35 300.84 301.23 294.05 302.11 287.26 298.23 262.98 298.23 262.98L290.76 263.5C290.76 263.5 285.1 290.82 290 296.84Z" fill="url(#linear-gradient-5)" transform="translate(-163.6 -231.88)"/><rect x="148.63" y="146.07" width="57.59" height="4.73" fill="#0A1123"/><rect x="172.85" y="154.78" width="9.16" height="2.86" fill="#0A1123"/><rect x="175.61" y="157.65" width="3.64" height="17.38" fill="#0A1123"/><rect x="175.09" y="175.03" width="4.67" height="20.14" fill="#7F7F7F"/><path d="M179.81 150.8 175.05 150.8 169.16 150.8 171.55 154.78 175.05 154.78 179.81 154.78 183.3 154.78 185.69 150.8 179.81 150.8Z" fill="#0A1123"/><path d="M338.17 361.59 338.25 361.59 338.82 361.59 339.82 361.59 342.15 361.59 343.15 361.59 343.72 361.59 343.8 361.59C353.27 362.06 372.38 364.59 368.8 377.95L313.19 377.95C309.59 364.56 328.7 362.06 338.17 361.59Z" fill="#FD6007" transform="translate(-163.6 -231.88)"/><path d="M360.21 369C357.12 364.07 348.35 361.94 348.35 361.94 358.26 362.94 371.95 366.45 368.86 377.94L361.06 377.94C361.9 376.39 362.34 372.39 360.21 369Z" fill="url(#linear-gradient-6)" transform="translate(-163.6 -231.88)"/><path d="M339.71 421.38C331.27 425.03 319.29 430.63 317.71 432.53 316.792 433.686 316.323 435.135 316.39 436.61L339.71 426Z" fill="#0A1123" transform="translate(-163.6 -231.88)"/><path d="M323 436.82C323 438.411 321.711 439.7 320.12 439.7 318.529 439.7 317.24 438.411 317.24 436.82 317.24 435.229 318.529 433.94 320.12 433.94 321.711 433.94 323 435.229 323 436.82Z" fill="#7F7F7F" transform="translate(-163.6 -231.88)"/><path d="M342.34 426 365.68 436.61C365.747 435.135 365.278 433.686 364.36 432.53 362.76 430.63 350.78 425.03 342.36 421.38Z" fill="#0A1123" transform="translate(-163.6 -231.88)"/><path d="M359 436.82C359 438.411 360.289 439.7 361.88 439.7 363.471 439.7 364.76 438.411 364.76 436.82 364.76 435.229 363.471 433.94 361.88 433.94 360.289 433.94 359 435.229 359 436.82Z" fill="#AA5D43" transform="translate(-163.6 -231.88)"/><path d="M235.93 93.28 262.81 93.01 262.8 90.5 235.91 90.77 235.93 93.28Z" fill="#0A1123"/><path d="M219.36 65.22 235.97 93.28 237.94 91.73 221.33 63.67 219.36 65.22Z" fill="#0A1123"/><path d="M431.57 420.26C431.38 418.47 428.99 416.7 427.78 415.45 426.57 414.2 424.85 413.8 424.78 412.86 424.66 410.12 426 405 426 405L417.12 405C417.12 405 417.39 411.79 415.76 415.6 414.13 419.41 408.76 429.5 408.76 429.5 408.76 429.5 402.2 435.84 401.93 436.28 401.242 437.203 400.761 438.264 400.52 439.39 400.52 439.39 401.04 441.85 411.39 436.8 415.237 434.932 418.743 432.431 421.76 429.4L425.68 426.14C427.02 425.02 431.23 421.89 431.49 421.14 431.589 420.858 431.617 420.555 431.57 420.26Z" fill="url(#linear-gradient-7)" transform="translate(-163.6 -231.88)"/><path d="M425.66 426.1 421.74 429.36C418.723 432.391 415.217 434.892 411.37 436.76 401.02 441.81 400.5 439.35 400.5 439.35 400.741 438.224 401.222 437.163 401.91 436.24 402.18 435.8 408.74 429.46 408.74 429.46L408.74 429.46C411.62 430.92 413.89 430.98 416.41 428.24 420.41 423.86 422.41 418.7 427.94 415.66 429.18 416.9 431.37 418.59 431.55 420.3 431.578 420.571 431.543 420.844 431.45 421.1 431.21 421.85 427 425 425.66 426.1Z" fill="url(#linear-gradient-8)" transform="translate(-163.6 -231.88)"/><path d="M418.87 347.5C428.72 344.01 439.35 342.6 449.73 341.5 454.89 340.93 460.85 339.5 466.04 339.28 475.87 338.89 487.39 343.21 486.04 354.69 485.866 356.145 485.4 357.549 484.67 358.82 476.08 373.9 452.28 367.67 438.96 365.06 433.18 363.93 427.4 362.67 421.7 361.19 414.4 354.51 418.87 347.5 418.87 347.5Z" fill="#1D2368" transform="translate(-163.6 -231.88)"/><path d="M418.87 347.5C418.87 347.5 416.56 347.29 416.4 353.22 416.24 359.15 416.74 407.3 416.74 407.3L425.43 408.6C425.43 408.6 435.22 374.05 429.51 353.22 429.51 353.22 427.43 344 418.87 347.5Z" fill="#2D318A" transform="translate(-163.6 -231.88)"/><path d="M493.51 304.17C493.603 303.929 493.743 303.708 493.92 303.52 485.28 300.7 482.2 313.52 481.18 319.88L481.18 319.94C481.18 320.07 481.13 320.2 481.11 320.33 481.09 320.46 481.05 320.79 481.01 321.04 481.016 321.093 481.016 321.147 481.01 321.2 481.01 321.33 481.01 321.46 480.96 321.6L480.96 321.6C480.955 321.68 480.955 321.76 480.96 321.84L480.96 322.09 480.96 322.09C480.96 322.22 480.96 322.36 480.96 322.48 480.96 322.6 480.96 322.59 480.96 322.64 480.96 322.9 480.96 323.14 480.96 323.36L480.96 323.76 480.96 323.81C480.58 330.14 483.8 342.95 492.56 342.14 485.17 325.78 493.14 305.09 493.51 304.17Z" fill="#FD6007" transform="translate(-163.6 -231.88)"/><path d="M497.58 342.71C489.21 327.71 497.58 305.89 497.7 305.71 498.116 304.627 497.576 303.413 496.493 302.996 496.459 302.983 496.425 302.971 496.39 302.96 495.521 302.648 494.549 302.884 493.92 303.56 493.743 303.748 493.603 303.969 493.51 304.21 493.14 305.13 485.17 325.82 492.36 342.21 492.74 343.08 493.16 343.94 493.63 344.79 499.78 355.79 500 372.09 497.63 376.49 497.25 377.18 496.45 378.36 495.35 378.49 494.162 378.599 493.288 379.651 493.397 380.839 493.398 380.849 493.399 380.86 493.4 380.87 493.57 381.96 494.517 382.758 495.62 382.74L495.9 382.74C498.396 382.351 500.536 380.747 501.61 378.46 504.6 372.85 504.53 355.12 497.58 342.71Z" fill="#0A1123" transform="translate(-163.6 -231.88)"/><rect x="275.1" y="146.07" width="57.59" height="4.73" fill="#0A1123"/><rect x="299.31" y="154.78" width="9.16" height="2.86" fill="#0A1123"/><rect x="302.07" y="157.65" width="3.64" height="17.38" fill="#0A1123"/><rect x="301.56" y="175.03" width="4.67" height="20.14" fill="#7F7F7F"/><path d="M306.27 150.8 301.51 150.8 295.63 150.8 298.02 154.78 301.51 154.78 306.27 154.78 309.77 154.78 312.16 150.8 306.27 150.8Z" fill="#0A1123"/><path d="M464.64 361.59 464.71 361.59 465.29 361.59 466.29 361.59 468.61 361.59 469.61 361.59 470.19 361.59 470.27 361.59C479.73 362.06 498.85 364.59 495.27 377.95L439.66 377.95C436.06 364.56 455.17 362.06 464.64 361.59Z" fill="#FD6007" transform="translate(-163.6 -231.88)"/><path d="M486.68 369C483.59 364.07 474.81 361.94 474.81 361.94 484.73 362.94 498.42 366.45 495.32 377.94L487.52 377.94C488.37 376.39 488.8 372.39 486.68 369Z" fill="url(#linear-gradient-9)" transform="translate(-163.6 -231.88)"/><path d="M466.18 421.38C457.74 425.03 445.76 430.63 444.18 432.53 443.257 433.684 442.788 435.135 442.86 436.61L466.18 426Z" fill="#0A1123" transform="translate(-163.6 -231.88)"/><path d="M449.5 436.82C449.5 438.411 448.211 439.7 446.62 439.7 445.029 439.7 443.74 438.411 443.74 436.82 443.74 435.229 445.029 433.94 446.62 433.94 448.211 433.94 449.5 435.229 449.5 436.82Z" fill="#7F7F7F" transform="translate(-163.6 -231.88)"/><path d="M468.8 426 492.14 436.61C492.212 435.135 491.743 433.684 490.82 432.53 489.22 430.63 477.24 425.03 468.82 421.38Z" fill="#0A1123" transform="translate(-163.6 -231.88)"/><path d="M485.48 436.82C485.48 438.411 486.769 439.7 488.36 439.7 489.951 439.7 491.24 438.411 491.24 436.82 491.24 435.229 489.951 433.94 488.36 433.94 486.769 433.94 485.48 435.229 485.48 436.82Z" fill="#7F7F7F" transform="translate(-163.6 -231.88)"/><path d="M497.57 295C497.532 291.202 495.672 287.653 492.57 285.46 488.91 282.81 487.65 279.14 490.32 275.16 491.55 273.33 493.11 271.75 494.27 269.86 498.63 262.7 494.8 254.35 486.65 252.51 481.001 251.296 475.103 252.615 470.51 256.12 467.04 258.98 463.85 262.97 463.86 267.69 463.86 272.07 466.55 275.2 469.53 278.07 471.22 279.7 472.88 281.62 473.1 283.95 473.32 286.28 472.4 288.29 472.1 290.47 471.948 291.521 472.006 292.591 472.27 293.62 476.92 294.55 478.56 293.07 482.9 296.05 485.56 297.88 486.02 300.99 489.45 303.6L492.51 305.38C495.1 302.21 497.56 299.29 497.57 295Z" fill="#0A1123" transform="translate(-163.6 -231.88)"/><path d="M453.32 252.68C455.32 248.99 459.8 247.1 463.46 246.23 468.64 244.99 474.85 245.59 478.91 249.62 486.29 256.94 480.36 273.45 471.4 275.96 470.305 276.335 469.115 276.335 468.02 275.96 466.7 275.41 466.19 274.14 465.28 273.07 464.792 272.536 464.245 272.06 463.65 271.65 461.59 270.13 459.38 268.83 457.4 267.2 455.304 265.59 453.692 263.435 452.74 260.97 451.757 258.248 451.967 255.238 453.32 252.68Z" fill="#0A1123" transform="translate(-163.6 -231.88)"/><path d="M468.94 273.61C469.74 272.98 470.51 272.33 471.26 271.61 472.342 274.895 473.638 278.105 475.14 281.22 475.29 281.917 475.374 282.627 475.39 283.34 475.39 283.34 473.31 289.44 465.39 287.66 466.354 284.233 466.354 280.607 465.39 277.18 466.475 275.896 467.662 274.702 468.94 273.61Z" fill="url(#linear-gradient-10)" transform="translate(-163.6 -231.88)"/><path d="M454.22 256.37C454.22 256.37 452.99 276.9 459.61 282.27 465.744 280.974 470.793 276.638 473 270.77 476.94 260.69 468.88 246.46 454.22 256.37Z" fill="url(#linear-gradient-11)" transform="translate(-163.6 -231.88)"/><path d="M298.32 33.78 297.36 41.35 293.76 40.89 298.32 33.78Z" fill="url(#linear-gradient-12)"/><path d="M462.49 252.1C462.49 252.1 459.01 261.22 454.13 263.67 454.13 263.67 449.74 257.47 453.66 252.1 457.58 246.73 462.79 247.59 462.79 247.59Z" fill="#0A1123" transform="translate(-163.6 -231.88)"/><path d="M472 264.46C473.97 263.476 475.472 261.755 476.18 259.67 476.981 257.367 476.702 254.825 475.42 252.75 474.51 251.522 473.22 250.629 471.75 250.21 469.26 249.497 466.659 249.256 464.08 249.5 461.88 249.62 461.66 250.08 459.97 252.1 456.59 256.08 468.77 266 472 264.46Z" fill="#0A1123" transform="translate(-163.6 -231.88)"/><path d="M470.89 264.75C470.89 264.75 473.74 260.66 475.72 263.12 477.42 265.22 476.6 270.48 472.15 272.12Z" fill="url(#linear-gradient-13)" transform="translate(-163.6 -231.88)"/><path d="M466.34 293C467.2 290.32 468.64 288.14 471.2 287.42 476.28 285.98 477.37 291.59 477.37 295.42 477.37 302.06 475.59 308.79 474.37 315.29 473.45 320.11 472.37 326.29 468.86 330.01 466.91 332.06 464.21 332.43 463.06 329.47 461.81 326.21 462.44 322.69 462.73 319.32 463.11 314.81 463.73 310.32 464.31 305.84 464.87 301.59 465 297 466.34 293Z" fill="url(#linear-gradient-14)" transform="translate(-163.6 -231.88)"/><path d="M471.38 408.72C470.27 407.29 467.18 407.04 465.44 406.62 463.86 406.23 461.93 406.76 461.39 405.98 459.83 403.71 458.39 398.59 458.39 398.59L450.39 403.3C450.39 403.3 454.18 409 454.71 413.15 455.24 417.3 455.66 428.84 455.66 428.84 455.66 428.84 453.06 437.84 453.04 438.32 452.905 439.479 453.028 440.654 453.4 441.76 453.4 441.76 455.15 443.59 461.85 433.71 464.329 430.076 466.184 426.054 467.34 421.81L469.17 416.9C469.8 415.22 471.95 410.29 471.78 409.47 471.709 409.191 471.572 408.934 471.38 408.72Z" fill="url(#linear-gradient-15)" transform="translate(-163.6 -231.88)"/><path d="M469.1 416.9 467.27 421.81C466.114 426.054 464.259 430.076 461.78 433.71 455.08 443.59 453.33 441.76 453.33 441.76 452.958 440.654 452.835 439.479 452.97 438.32 452.97 437.8 455.59 428.84 455.59 428.84L455.59 428.84C458.95 428.55 461.03 427.39 461.87 423.68 463.22 417.77 462.31 412.26 465.69 406.68 467.46 407.07 470.32 407.36 471.38 408.73 471.547 408.951 471.659 409.208 471.71 409.48 471.88 410.29 469.73 415.22 469.1 416.9Z" fill="url(#linear-gradient-16)" transform="translate(-163.6 -231.88)"/><path d="M421.83 353C421.83 353 419.64 354.05 422.6 359.24 425.56 364.43 451.21 405.56 451.21 405.56L459.73 402.03C459.73 402.03 450.48 367.08 434.43 352.22 434.43 352.18 427.72 345.35 421.83 353Z" fill="#1D2368" transform="translate(-163.6 -231.88)"/><path d="M482.33 361.87C484.219 359.184 485.48 356.109 486.02 352.87 486.325 350.409 486.325 347.921 486.02 345.46 485.59 340.8 479.25 342.02 476.18 342.55 469.094 343.636 461.939 344.214 454.77 344.28 445.3 344.57 435.7 345.09 426.56 347.76 424.3 348.42 422.2 349.42 421.56 351.89 420.891 354.804 421.374 357.864 422.91 360.43 424.84 363.75 428.74 364.59 432.16 365.65 435.212 366.683 438.329 367.515 441.49 368.14 446.72 369.03 452.25 369.73 457.57 370.14 464.91 370.67 472.84 370.14 478.67 365.68 480.071 364.597 481.304 363.313 482.33 361.87Z" fill="#1D2368" transform="translate(-163.6 -231.88)"/><path d="M479 298.55C479.135 296.83 479.155 295.103 479.06 293.38 478.83 289.57 478.31 284.38 474.6 283.02 470.53 281.55 455.4 299.58 455.15 304.65 455 307.65 456.66 310.49 457.83 313.31 460.492 319.731 461.157 326.805 459.74 333.61 459.37 335.37 458.42 337.15 459.47 338.74 460.374 339.873 461.607 340.698 463 341.1 466.93 342.51 471.25 342.04 475.4 341.54 477.024 341.454 478.615 341.046 480.08 340.34 484.44 337.87 481.08 333.85 479.99 330.5 478.749 326.606 477.977 322.577 477.69 318.5 477.06 311.77 478.5 305.26 479 298.55Z" fill="#FFE1DF" transform="translate(-163.6 -231.88)"/><path d="M480.05 298.73C480.55 292.73 479.96 285.25 474.74 281.55 474.64 281.47 454.31 296.44 454.31 306.64 454.31 311.18 456.31 315.58 457.81 319.44 458.45 321.1 458.12 323.77 458.06 325.52 457.92 329.7 457.25 333.85 457.25 338.04 457.214 338.522 457.293 339.005 457.48 339.45 457.844 339.99 458.379 340.392 459 340.59 463.261 342.451 467.871 343.379 472.52 343.31 473.977 343.32 475.429 343.121 476.83 342.72 479.19 341.807 481.352 340.449 483.2 338.72 484.79 337.41 484.59 336.89 483.99 335.02 483.39 333.15 482.81 331.39 482.25 329.56 481.128 326.154 480.374 322.637 480 319.07 479.329 312.883 479.302 306.643 479.92 300.45 480 299.89 480 299.32 480.05 298.73Z" fill="url(#linear-gradient-17)" transform="translate(-163.6 -231.88)"/><path d="M461.83 296.62C461.94 296.34 462.06 296.07 462.19 295.8 464.39 291.09 468.25 286.98 472.27 283.75 474.92 281.62 475.67 281.66 477.69 284.75 478.97 286.792 479.761 289.102 480 291.5 480.44 295.32 479.88 299.18 479.59 303.02 478.862 312.928 480.019 322.884 483 332.36 484.5 337.09 486.47 341.75 487 346.69 487.07 347.38 487.05 348.22 486.45 348.58 486.139 348.729 485.794 348.794 485.45 348.77L471.77 348.53C468.41 348.47 464.72 348.28 462.27 345.98 459.56 343.42 459.39 339.24 459.41 335.51 459.41 328.517 459.437 321.517 459.49 314.51 459.42 308.47 459.49 302.19 461.83 296.62Z" fill="#DB277D" transform="translate(-163.6 -231.88)"/><path d="M464.86 298.35C465.23 295.56 466.26 293.15 468.64 291.99 473.39 289.67 475.46 294.99 476.14 298.74 477.33 305.27 476.77 312.21 476.7 318.83 476.65 323.74 476.7 330.03 473.9 334.3 472.34 336.66 469.75 337.5 468.1 334.79 466.28 331.79 466.28 328.23 465.96 324.86 465.53 320.36 465.31 315.86 465.12 311.32 464.94 307.08 464.29 302.57 464.86 298.35Z" fill="#DB277D" transform="translate(-163.6 -231.88)"/><path d="M437.29 321.64 436.43 321.05 436.31 320.98 428.69 316.98C428.357 316.811 427.963 316.811 427.63 316.98L417 322.14C416.816 322.234 416.658 322.371 416.54 322.54L416.54 322.54C416.175 323.073 416.312 323.801 416.845 324.166 416.965 324.248 417.099 324.307 417.24 324.34L418.49 324.64C418.705 324.705 418.935 324.705 419.15 324.64L422.78 323.36C423.042 323.265 423.328 323.265 423.59 323.36 427.146 324.78 430.829 325.859 434.59 326.58 435.146 326.662 435.682 326.334 435.86 325.8Z" fill="url(#linear-gradient-18)" transform="translate(-163.6 -231.88)"/><path d="M473.07 335.42C471.64 337.42 468.67 336.82 466.64 336.36 463.64 335.68 434.64 327.59 434.74 327.18L436.53 320.44C436.53 320.44 465.36 323.96 471.83 326.94 474.68 328.25 475 332.76 473.07 335.42Z" fill="#DB277D" transform="translate(-163.6 -231.88)"/><path d="M312.55 49.16 300.53 60.98 298.21 57.11 311.5 48.1 312.55 49.16Z" fill="url(#linear-gradient-19)"/><path d="M298.21 57.11 297.15 62.32 299.69 59.57 298.21 57.11Z" fill="url(#linear-gradient-20)"/><path d="M190.5 373.51C185.44 372.89 182.14 370.85 180.71 367.43 176.71 357.91 186.71 338.97 190.85 332.48L190.92 332.37C191.185 331.963 191.089 331.421 190.7 331.13L188.87 329.76C188.464 329.454 187.888 329.535 187.581 329.94 187.567 329.96 187.553 329.98 187.54 330L187.54 330C186.87 331 171.28 355.51 177.04 369.23 179.1 374.14 183.48 377.03 190.04 377.83L190.04 377.83C190.542 377.877 190.987 377.511 191.04 377.01L191.3 374.53C191.336 374.035 190.982 373.597 190.49 373.53Z" fill="#0A1123" transform="translate(-163.6 -231.88)"/><path d="M206.92 347.91 184.6 347.91C178.43 347.91 173.43 341.06 173.43 332.62L173.43 318.8C173.43 310.36 178.43 303.52 184.6 303.52L206.92 303.52C213.09 303.52 218.1 310.36 218.1 318.8L218.1 332.62C218.1 341.06 213.09 347.91 206.92 347.91Z" fill="#FD6007" transform="translate(-163.6 -231.88)"/><rect x="183.02" y="377.95" width="57.59" height="4.73" fill="#0A1123" transform="matrix(-1 1.22465e-16 -1.22465e-16 -1 260.04 528.75)"/><rect x="207.24" y="386.66" width="9.16" height="2.86" fill="#0A1123" transform="matrix(-1 1.22465e-16 -1.22465e-16 -1 260.04 544.31)"/><rect x="210" y="389.53" width="3.64" height="17.38" fill="#0A1123" transform="matrix(-1 1.22465e-16 -1.22465e-16 -1 260.04 564.56)"/><rect x="209.48" y="406.91" width="4.67" height="20.14" fill="#7F7F7F" transform="matrix(-1 1.22465e-16 -1.22465e-16 -1 260.04 602.08)"/><path d="M45.84 150.8 50.6 150.8 56.49 150.8 54.1 154.78 50.6 154.78 45.84 154.78 42.35 154.78 39.95 150.8 45.84 150.8Z" fill="#0A1123"/><path d="M214.67 361.59 214.6 361.59 214.02 361.59 213.02 361.59 210.7 361.59 209.7 361.59 209.12 361.59 209 361.59C199.54 362.06 180.42 364.59 184 377.95L239.66 377.95C243.25 364.56 224.14 362.06 214.67 361.59Z" fill="#FD6007" transform="translate(-163.6 -231.88)"/><path d="M213.13 426 236.47 436.61C236.542 435.135 236.073 433.684 235.15 432.53 233.55 430.63 221.57 425.03 213.15 421.38Z" fill="#0A1123" transform="translate(-163.6 -231.88)"/><path d="M229.81 436.82C229.81 438.411 231.099 439.7 232.69 439.7 234.281 439.7 235.57 438.411 235.57 436.82 235.57 435.229 234.281 433.94 232.69 433.94 231.099 433.94 229.81 435.229 229.81 436.82Z" fill="#7F7F7F" transform="translate(-163.6 -231.88)"/><path d="M210.51 421.38C202.07 425.03 190.09 430.63 188.51 432.53 187.587 433.684 187.118 435.135 187.19 436.61L210.51 426Z" fill="#0A1123" transform="translate(-163.6 -231.88)"/><path d="M193.83 436.82C193.83 438.411 192.541 439.7 190.95 439.7 189.359 439.7 188.07 438.411 188.07 436.82 188.07 435.229 189.359 433.94 190.95 433.94 192.541 433.94 193.83 435.229 193.83 436.82Z" fill="#7F7F7F" transform="translate(-163.6 -231.88)"/><path d="M267.8 326.92 280.51 328.28C280.51 328.28 280.34 326.28 279.11 325.6 277.88 324.92 277.52 323.78 276.51 323.02 275.5 322.26 274.02 319.46 272.05 318.63 270.08 317.8 267.17 319.29 265.23 318.63 263.29 317.97 259.29 316.28 259.29 316.28L257.07 323.28 262.61 325.28C262.61 325.28 266.35 330.8 271.34 331.17Z" fill="url(#linear-gradient-21)" transform="translate(-163.6 -231.88)"/><path d="M221.57 322.82C221.57 322.82 221.57 313.17 228.16 312.69 234.75 312.21 264.78 316.77 264.78 316.77L262.37 326.11C262.37 326.11 227.06 327.85 221.57 322.82Z" fill="#FFFFFF" transform="translate(-163.6 -231.88)"/><path d="M296 428.7 295.9 428.62C295.495 428.288 295.056 427.999 294.59 427.76L295.09 427.94 294.58 427.75C293.573 427.259 292.517 426.877 291.43 426.61L290.43 426.34 287 425.2 286.81 425.12C286.1 424.61 278.64 419.67 275.52 416.99L275.25 416.75C274.803 413.554 274.635 410.325 274.75 407.1L263.49 407.05C263.49 407.05 265.12 413.8 264.91 417.4 264.755 417.885 264.554 418.353 264.31 418.8L263.89 419.53C263.75 419.78 263.62 420.04 263.5 420.3 263.093 421.099 262.733 421.92 262.42 422.76 262.164 423.739 262.04 424.748 262.05 425.76 262.05 426.09 262.05 426.42 262.05 426.76 261.888 428.514 263.179 430.068 264.934 430.229 264.936 430.23 264.938 430.23 264.94 430.23 266.94 430.82 268.94 431.03 270.94 431.52 274.61 432.42 278.33 433.86 282.14 434.46 286.36 435.13 290.6 434.39 294.84 434.26 295.95 434.26 297.67 433.84 297.98 432.57 298.29 431.3 296.91 429.47 296 428.7Z" fill="url(#linear-gradient-22)" transform="translate(-163.6 -231.88)"/><path d="M262 426.34C261.98 426.07 261.98 425.8 262 425.53 261.975 425.799 261.975 426.071 262 426.34Z" fill="#FFC58C" transform="translate(-163.6 -231.88)"/><path d="M298 432C297.989 431.824 297.958 431.65 297.91 431.48 297.807 431.102 297.648 430.742 297.44 430.41 297.393 430.32 297.339 430.233 297.28 430.15 297.039 429.794 296.768 429.46 296.47 429.15L296.21 428.89 296.21 428.89 296.04 428.73 295.94 428.64C295.8 428.54 295.67 428.43 295.53 428.34L295.35 428.22 295.15 428.09C294.98 427.98 294.8 427.88 294.63 427.79L295.13 427.97 294.62 427.78C294.122 427.529 293.608 427.311 293.08 427.13 292.84 427.04 292.59 426.96 292.34 426.89L292.22 426.89 291.47 426.68 290.47 426.41 287 425.2 286.89 425.15 286.81 425.15C286.25 424.75 280.54 420.62 276.64 417.6 274.22 421.15 267.31 421.6 263.64 419.31 263.513 419.627 263.362 419.935 263.19 420.23 262.88 420.89 262.45 421.5 262.19 422.23 262.14 422.35 262.099 422.474 262.07 422.6 261.996 422.839 261.939 423.083 261.9 423.33 261.9 423.52 261.83 423.71 261.8 423.91 261.77 424.11 261.73 424.44 261.71 424.71L261.71 425.13C261.66 425.82 261.65 426.43 261.66 426.79 261.663 427.125 261.693 427.46 261.75 427.79 261.762 427.871 261.778 427.951 261.8 428.03 261.858 428.265 261.949 428.49 262.07 428.7 262.192 428.916 262.347 429.112 262.53 429.28L262.82 429.51C263.348 429.868 263.933 430.131 264.55 430.29 265.55 430.58 266.97 430.78 267.98 430.97L269.5 431.26C270 431.35 270.5 431.46 271.01 431.58 272.61 431.98 274.23 432.47 275.86 432.96 277.02 433.3 278.19 433.65 279.37 433.96 280.31 434.19 281.26 434.39 282.21 434.54 282.47 434.59 282.74 434.62 283 434.65L283.79 434.73C284.3 434.73 284.79 434.8 285.32 434.81L286.17 434.81C286.96 434.81 287.76 434.81 288.55 434.73 290.67 434.61 292.79 434.39 294.91 434.33 295.301 434.312 295.689 434.258 296.07 434.17 296.972 434.079 297.746 433.487 298.07 432.64 298.112 432.477 298.129 432.308 298.12 432.14ZM290.37 426.31 289.53 426.09 289.46 426.09C288.603 425.865 287.766 425.568 286.96 425.2L286.96 425.2Z" fill="url(#linear-gradient-23)" transform="translate(-163.6 -231.88)"/><path d="M236.43 435.22 236.43 435.09C236.286 434.587 236.095 434.098 235.86 433.63L236.17 434.07 235.85 433.62C235.324 432.633 234.69 431.707 233.96 430.86L233.27 430.04 231.11 427.1C231.077 427.038 231.04 426.978 231 426.92 230.73 426.1 227.53 417.74 226.54 413.75 226.54 413.63 226.54 413.52 226.46 413.4 227.953 410.537 229.693 407.81 231.66 405.25L222.53 398.67C222.53 398.67 219.93 405.11 217.67 407.91 217.266 408.219 216.831 408.484 216.37 408.7L215.6 409.06C215.336 409.179 215.079 409.313 214.83 409.46 214.037 409.871 213.269 410.328 212.53 410.83 211.773 411.476 211.101 412.215 210.53 413.03 210.33 413.29 210.13 413.56 209.94 413.83 209.54 414.346 209.278 414.955 209.18 415.6 209.184 416.615 209.573 417.591 210.27 418.33 211.54 419.95 213.09 421.33 214.43 422.89 216.9 425.75 219.09 429.08 221.84 431.79 224.84 434.79 228.77 436.65 232.29 439 233.22 439.62 234.84 440.3 235.83 439.46 236.82 438.62 236.7 436.36 236.43 435.22Z" fill="url(#linear-gradient-24)" transform="translate(-163.6 -231.88)"/><path d="M236.11 439.06C236.199 438.913 236.275 438.759 236.34 438.6 236.402 438.417 236.452 438.23 236.49 438.04 236.53 437.845 236.561 437.648 236.58 437.45 236.58 437.34 236.58 437.24 236.58 437.14 236.596 436.699 236.576 436.258 236.52 435.82 236.52 435.7 236.52 435.57 236.46 435.46L236.46 435.46C236.46 435.38 236.46 435.3 236.46 435.23L236.46 435.1C236.41 434.93 236.36 434.77 236.3 434.61 236.281 434.542 236.258 434.475 236.23 434.41L236.14 434.19C236.06 434 235.98 433.82 235.89 433.64L236.2 434.08 235.88 433.63C235.626 433.132 235.335 432.654 235.01 432.2 234.87 431.99 234.71 431.79 234.55 431.58L234.47 431.48 233.99 430.87 233.3 430.05 231.14 427.11 231 427C230.987 426.971 230.97 426.944 230.95 426.92 230.73 426.27 228.48 419.6 227.07 414.87 223.07 416.36 217.13 412.73 215.46 408.69 215.174 408.874 214.873 409.035 214.56 409.17 213.92 409.53 213.22 409.78 212.56 410.17L212.25 410.4C212.06 410.55 211.87 410.72 211.69 410.89L211.27 411.31 210.73 411.91 210.46 412.23C210.02 412.77 209.66 413.23 209.46 413.56 209.271 413.826 209.104 414.107 208.96 414.4L208.87 414.63C208.686 415.087 208.641 415.588 208.74 416.07 208.767 416.188 208.801 416.305 208.84 416.42 209.077 417.02 209.415 417.575 209.84 418.06 210.47 418.87 211.53 419.87 212.24 420.61L213.31 421.72C213.67 422.1 214.01 422.48 214.31 422.87 215.39 424.12 216.41 425.46 217.46 426.8 218.2 427.8 218.96 428.72 219.75 429.64 220.38 430.38 221.03 431.09 221.75 431.77L222.33 432.32C222.52 432.5 222.72 432.67 222.93 432.84 223.32 433.17 223.72 433.49 224.13 433.79L224.81 434.29C225.46 434.75 226.12 435.19 226.81 435.61 228.6 436.75 230.45 437.8 232.21 438.98 232.527 439.192 232.861 439.376 233.21 439.53 233.998 439.97 234.966 439.936 235.72 439.44 235.846 439.328 235.956 439.2 236.05 439.06ZM233.2 430C233.02 429.78 232.83 429.56 232.65 429.33L232.6 429.28C232.029 428.6 231.521 427.87 231.08 427.1L231.08 427.1C231.79 428.07 232.5 429 233.2 430Z" fill="url(#linear-gradient-25)" transform="translate(-163.6 -231.88)"/><path d="M270.87 344.29C260.06 340.72 248.47 339.53 237.17 338.63 231.55 338.18 225.01 337.19 219.39 336.73 206.96 335.73 197.32 332.14 199.22 345 199.92 349.69 200.91 354.8 203.73 358.82 206.79 363.18 212.11 365.05 217.18 365.93 222.91 366.93 228.81 366.78 234.6 366.58 239.695 366.474 244.767 365.857 249.74 364.74 255.98 363.26 262.19 361.63 268.32 359.74 276 352 270.87 344.29 270.87 344.29Z" fill="#253C6B" transform="translate(-163.6 -231.88)"/><path d="M270.87 344.29C270.87 344.29 273.37 343.96 273.77 350.63 274.17 357.3 275.46 411.48 275.46 411.48L263.12 414.09C263.12 414.09 251.19 375.57 256.59 351.93 256.59 351.93 261.45 340.64 270.87 344.29Z" fill="#253C6B" transform="translate(-163.6 -231.88)"/><path d="M264.16 348.3 263.91 348.06C262.01 346.33 259.09 345.86 256.66 345.46 239.08 342.57 220.44 341.3 202.66 340.04 199.66 339.83 196.66 339.12 194.66 341.73 193.07 343.73 192.66 346.61 192.66 349.13 192.465 351.987 192.878 354.853 193.87 357.54 195.33 360.684 197.721 363.302 200.72 365.04 207.56 369.3 216.03 369.98 224.09 369.64 232.332 369.288 240.512 368.051 248.49 365.95 254.55 364.32 262.2 363.1 264.87 356.6 265.86 354 266.26 350.52 264.16 348.3Z" fill="#394F8E" transform="translate(-163.6 -231.88)"/><path d="M198.52 285.18C201.61 279.98 207.27 278.18 213.04 278.47 216.186 278.651 219.301 279.181 222.33 280.05 225.26 280.84 229.07 281.53 231.33 283.66 234.09 286.28 234.65 290.19 234.89 293.79 235.15 297.66 235.2 301.54 235.1 305.42 234.91 312.9 234.38 320.34 234.64 327.83 234.78 331.7 234.93 336.24 230.76 338.09 228.59 339.09 226.09 339.09 223.76 339.24 219.89 339.413 216.037 339.857 212.23 340.57 208.67 341.28 205.23 342.71 201.56 342.79 198.45 342.86 195.83 341.38 195.77 338.07 195.71 334.76 197.65 330.6 198.2 327.19 199.373 320.634 199.397 313.924 198.27 307.36 196.85 300.16 194.47 292 198.52 285.18Z" fill="url(#linear-gradient-26)" transform="translate(-163.6 -231.88)"/><path d="M236.6 289.25C236.24 284.39 225.47 278.03 222.7 277.64L222.63 286.82 208.85 276.44C208.71 276.26 203.71 278.64 203.09 278.91 190.22 284.61 193.09 301.62 193.15 312.91L193.21 329.49C193.21 332.33 193.34 335.18 193.21 338.01 193.12 340.55 193.81 341.7 196.21 343.01 198.87 344.52 201.53 343.54 204.21 342.74 207.342 341.767 210.54 341.022 213.78 340.51 218.09 339.926 222.431 339.592 226.78 339.51 230.44 339.4 233.59 339.77 235.09 335.71 235.631 334.026 235.852 332.255 235.74 330.49 235.41 314.71 237.75 305 236.6 289.25Z" fill="#FFFFFF" transform="translate(-163.6 -231.88)"/><path d="M62 52.62 59.35 61.19 55.31 52.81 57.94 52.74 59.03 54.94 59 52.7 62 52.62Z" fill="url(#linear-gradient-27)"/><path d="M59.84 58.73 58.29 58.73 56.25 95.04 60.61 99.31 64.38 94.53 59.84 58.73Z" fill="url(#linear-gradient-28)"/><path d="M222.69 268.41C222.69 270.14 222.76 271.87 222.8 273.6 222.8 273.6 223.15 281.32 222.11 282.4 220.26 284.34 211.11 282.4 211.11 276.4L211.42 262.6Z" fill="url(#linear-gradient-29)" transform="translate(-163.6 -231.88)"/><path d="M164.31 306.34C166.377 306.818 168.503 306.993 170.62 306.86 176.402 306.207 182.064 304.746 187.44 302.52 191.84 300.802 196.086 298.711 200.13 296.27 203.68 294.13 215.96 287.69 209.13 281.68 207.455 280.356 205.282 279.837 203.19 280.26 194.28 281.49 166.58 294.73 166.58 294.73Z" fill="#FFFFFF" transform="translate(-163.6 -231.88)"/><path d="M183.9 254.15 183.49 240.28C183.49 240.28 181.34 240.71 180.76 242.12 180.18 243.53 179.01 244.06 178.33 245.24 177.65 246.42 174.8 248.37 174.19 250.59 173.58 252.81 175.64 255.78 175.19 257.94 174.74 260.1 173.5 264.64 173.5 264.64L181.5 266.15 182.85 259.94C182.85 259.94 188.35 255.22 188 249.8Z" fill="url(#linear-gradient-30)" transform="translate(-163.6 -231.88)"/><path d="M164.33 306.37C164.33 306.37 174.92 309.17 177.26 302.3 179.6 295.43 178.84 283 183.05 262L174.05 261.25C174.05 261.25 160.34 299 164.33 306.37Z" fill="#FFFFFF" transform="translate(-163.6 -231.88)"/><path d="M265.12 351.62C265.325 351.963 265.48 352.333 265.58 352.72 266.04 354.72 264.65 356.98 263.67 358.56 260.16 364.25 230.06 409.31 230.06 409.31L218.47 404.31C220.2 398.93 222.31 393.66 224.53 388.47 228.94 378.17 234.04 367.97 240.71 358.93 244.88 353.27 249.38 347.16 257.12 347.39 260.11 347.52 263.55 348.93 265.12 351.62Z" fill="#394F8E" transform="translate(-163.6 -231.88)"/><path d="M222.63 286.82 226.2 284 222.85 274.81C222.85 274.81 222.46 286.65 222.63 286.82Z" fill="url(#linear-gradient-31)" transform="translate(-163.6 -231.88)"/><path d="M59.26 42.96 62.6 52.15 68.55 53.3 59.26 42.28 59.26 42.96Z" fill="url(#linear-gradient-32)"/><path d="M44.04 44.61 51.08 56.46 57.22 51.27 47.13 42.21 44.04 44.61Z" fill="url(#linear-gradient-33)"/><path d="M57.22 51.27 59.03 54.94 55.31 52.81 57.22 51.27Z" fill="url(#linear-gradient-34)"/><path d="M371.46 292.94 358.23 292.94C361.32 301.94 364.33 315.49 367.77 321.88 368.85 323.88 369.83 326.08 371.68 327.4 373.53 328.72 376.54 328.85 377.95 326.91 378.636 325.778 378.944 324.458 378.83 323.14 378.676 320.515 378.113 317.931 377.16 315.48 375.6 311.06 373.55 298.72 371.46 292.94Z" fill="url(#linear-gradient-35)" transform="translate(-163.6 -231.88)"/><path d="M364.28 281.53C370.83 283.93 377.79 302.11 377.79 302.11L361 319.46 356.85 280C357.29 279.93 364.12 281.47 364.28 281.53Z" fill="#3D276A" transform="translate(-163.6 -231.88)"/><path d="M318.62 281.53C314.32 283.98 312.16 283.09 303.43 284.33L304.74 301.59 328 299.06 326 279.96C325.61 279.93 318.77 281.45 318.62 281.53Z" fill="#FFFFFF" transform="translate(-163.6 -231.88)"/><path d="M371.46 292.94 358.23 292.94C361.32 301.94 364.33 315.49 367.77 321.88 368.85 323.88 369.83 326.08 371.68 327.4 373.53 328.72 376.54 328.85 377.95 326.91 378.636 325.778 378.944 324.458 378.83 323.14 378.676 320.515 378.113 317.931 377.16 315.48 375.6 311.06 373.55 298.72 371.46 292.94Z" fill="url(#linear-gradient-35)" transform="translate(-163.6 -231.88)"/><path d="M364.28 281.53C370.83 283.93 377.79 302.11 377.79 302.11L361 319.46 356.85 280C357.29 279.93 364.12 281.47 364.28 281.53Z" fill="#FFFFFF" transform="translate(-163.6 -231.88)"/><path d="M369.67 426.35C369.695 426.088 369.735 425.828 369.79 425.57 369.727 425.826 369.687 426.087 369.67 426.35Z" fill="#FFC38A" transform="translate(-163.6 -231.88)"/><path d="M387.15 431.37 387.09 431.37Z" fill="#FFC38A" transform="translate(-163.6 -231.88)"/><path d="M386.74 431.23 386.37 431.07Z" fill="#FFC38A" transform="translate(-163.6 -231.88)"/><path d="M391.2 430.56 391.4 430.4Z" fill="#FFC38A" transform="translate(-163.6 -231.88)"/><path d="M391.7 430.15 391.6 430.23C391.631 430.201 391.665 430.174 391.7 430.15Z" fill="#FFC38A" transform="translate(-163.6 -231.88)"/><path d="M387.94 354.18C387.86 353.95 387.78 353.74 387.68 353.52 386.25 350.52 382.32 349.24 379.59 348.02 374.99 345.94 370.21 344.34 365.59 342.4 359.91 340.04 353.64 337.92 347.46 338.92 345.164 339.297 342.979 340.175 341.06 341.49 339.137 340.175 336.949 339.298 334.65 338.92 328.48 337.92 322.2 340.04 316.52 342.4 311.87 344.34 307.09 345.94 302.52 348.02 299.79 349.24 295.86 350.5 294.43 353.52 294.33 353.74 294.25 353.95 294.17 354.18 293.26 357.01 294.5 360.11 295.88 362.52 296.71 363.97 299.12 368.16 300.79 368.52 307.67 370.07 314.79 369.87 321.74 369 325.96 368.47 330.15 367.68 334.31 366.81 336.603 366.412 338.868 365.864 341.09 365.17 343.308 365.865 345.57 366.413 347.86 366.81 352.03 367.68 356.21 368.47 360.43 369 367.37 369.87 374.5 370.07 381.38 368.52 383.05 368.17 385.46 363.98 386.29 362.52 387.61 360.11 388.85 357 387.94 354.18Z" fill="#394F8E" transform="translate(-163.6 -231.88)"/><path d="M341.53 276.08 341.37 276.08C330.18 276.16 318.62 281.53 318.62 281.53 318.68 282.36 318.73 283.18 318.79 284L320.05 303C320.31 306.86 320.57 320.77 320.83 324.63 321.1 328.75 321.63 332.33 320.38 336.35 320 337.58 319.54 338.95 320.09 340.11 320.617 340.966 321.422 341.616 322.37 341.95 324.09 342.77 325.81 343.6 327.59 344.24 336.25 347.39 345.75 346.24 354.78 344.57 357.65 344.05 360.78 343.35 362.69 341.05 363.025 340.675 363.28 340.236 363.44 339.76 363.639 338.609 363.49 337.425 363.01 336.36 362.71 335.375 362.469 334.374 362.29 333.36 361.49 328.82 362.11 324.04 362.42 319.47 362.71 315.11 363 300.71 363.29 296.35L364.29 281.54C364.29 281.54 352.72 276.16 341.53 276.08Z" fill="#FFFFFF" transform="translate(-163.6 -231.88)"/><rect x="172.47" y="34.49" width="11.72" height="14.47" fill="url(#linear-gradient-37)"/><path d="M342.87 285.49 348.16 276.55 335.05 276.55 340.34 285.49C340.754 286.189 341.655 286.42 342.354 286.006 342.567 285.88 342.744 285.703 342.87 285.49Z" fill="url(#linear-gradient-38)" transform="translate(-163.6 -231.88)"/><path d="M340.24 285.33 337.61 284 334.27 274.94C334.27 274.94 340.29 285.16 340.24 285.33Z" fill="url(#linear-gradient-39)" transform="translate(-163.6 -231.88)"/><path d="M170.67 43.05 174.01 52.11 169.41 54.96 168.88 43.24 170.43 42.61 170.67 43.05Z" fill="url(#linear-gradient-40)"/><path d="M342.88 285.33 345.88 284.12 348.88 274.93C348.88 274.93 342.84 285.16 342.88 285.33Z" fill="url(#linear-gradient-41)" transform="translate(-163.6 -231.88)"/><path d="M185.26 43.05 182.27 52.24 186.52 54.96 187.05 43.24 185.49 42.61 185.26 43.05Z" fill="url(#linear-gradient-42)"/><path d="M342.76 327.2 333.25 325.07C333.25 325.07 333.86 323.68 334.92 323.48 335.98 323.28 336.51 322.56 337.43 322.25 338.35 321.94 340.1 320.3 341.72 320.18 343.34 320.06 345.08 321.85 346.64 321.84 348.2 321.83 351.51 321.6 351.51 321.6L351.39 327.21 346.9 327.29C346.9 327.29 342.9 330.36 339.16 329.4Z" fill="url(#linear-gradient-43)" transform="translate(-163.6 -231.88)"/><path d="M378 321C378 321 378.38 328.34 373.41 329 368.44 329.66 348.82 327.24 348.82 327.24L349.33 321.73C349.33 321.73 373.55 317.43 378 321Z" fill="url(#linear-gradient-44)" transform="translate(-163.6 -231.88)"/><path d="M358.42 246.9C358.42 246.9 358.07 261.9 352.92 268.52L332 268.52C332 268.52 328 264.19 327.39 250.31 327.39 250.31 326.46 241.91 332.69 240.94 338.92 239.97 355.43 236.86 358.42 246.9Z" fill="#0A1123" transform="translate(-163.6 -231.88)"/><path d="M342.26 245.68 328.91 248.41C328.91 248.41 330.18 267.5 333.37 270.54 334.2 271.33 340.85 273.78 342.26 273.82 343.67 273.86 350.32 271.33 351.14 270.54 354.34 267.54 355.6 248.41 355.6 248.41Z" fill="url(#linear-gradient-45)" transform="translate(-163.6 -231.88)"/><path d="M189.07 15.48 190.53 27.45 192.52 14.94 189.07 15.48Z" fill="#0A1123"/><path d="M359.12 253.19C360.38 256.29 358.34 262.06 353.51 263.19L355.19 252.78C355.796 251.746 357.126 251.4 358.16 252.006 358.612 252.271 358.954 252.692 359.12 253.19Z" fill="url(#linear-gradient-46)" transform="translate(-163.6 -231.88)"/><path d="M360.23 246.81C362.974 242.113 361.39 236.08 356.693 233.337 351.996 230.593 345.964 232.176 343.22 236.873 343.143 237.004 343.07 237.136 343 237.27 339 236.42 335.66 235.9 335.08 236.49 332.749 236.164 330.415 237.06 328.9 238.86 326.16 241.95 327.15 251.41 327.15 251.41L330.72 257.82 335.08 246.94C335.08 246.94 343.08 252.15 350.91 251.55 351.2 251.55 351.49 251.55 351.78 251.55 355.22 251.55 358.409 249.753 360.19 246.81L360.19 246.81Z" fill="#0A1123" transform="translate(-163.6 -231.88)"/><path d="M178.58 25.45 177.09 33.67 178.63 35.07 180.08 33.53 178.58 25.45Z" fill="url(#linear-gradient-47)"/><path d="M325.4 253.09C324.13 256.19 326.18 261.96 331.01 263.09L329.33 252.68C328.724 251.646 327.394 251.3 326.36 251.906 325.908 252.171 325.566 252.592 325.4 253.09Z" fill="url(#linear-gradient-48)" transform="translate(-163.6 -231.88)"/><path d="M233.44 247.83C233.44 247.83 233.08 262.83 227.93 269.45L207 269.45C207 269.45 203 265.12 202.38 251.24 202.38 251.24 201.45 242.84 207.68 241.86 213.91 240.88 230.44 237.79 233.44 247.83Z" fill="#0A1123" transform="translate(-163.6 -231.88)"/><path d="M217.83 246.61 204.48 249.34C204.48 249.34 205.75 268.43 208.94 271.47 209.77 272.26 216.42 274.71 217.83 274.75 219.24 274.79 225.89 272.26 226.71 271.47 229.91 268.47 231.17 249.34 231.17 249.34Z" fill="url(#linear-gradient-49)" transform="translate(-163.6 -231.88)"/><path d="M64.64 16.41 66.1 28.38 68.09 15.87 64.64 16.41Z" fill="#0A1123"/><path d="M234.69 254.12C235.95 257.22 233.91 262.99 229.08 264.12L230.76 253.71C231.366 252.676 232.696 252.33 233.73 252.936 234.182 253.201 234.524 253.622 234.69 254.12Z" fill="url(#linear-gradient-50)" transform="translate(-163.6 -231.88)"/><path d="M210.66 247.87C210.66 247.87 225.1 259.66 234.07 248.97 234.07 248.97 246.93 233.97 221.07 233.97 213.07 233.97 212.14 235.87 210.62 237.41 210.62 237.41 206.16 235.98 203.42 239.07 200.68 242.16 202.69 252.33 202.69 252.33L206.26 258.74Z" fill="#0A1123" transform="translate(-163.6 -231.88)"/><path d="M54.15 26.38 52.66 34.6 54.2 36 55.65 34.45 54.15 26.38Z" fill="url(#linear-gradient-51)"/><path d="M201 254C199.73 257.11 201.78 262.88 206.61 264L204.93 253.59C204.324 252.556 202.994 252.21 201.96 252.816 201.508 253.081 201.166 253.502 201 254Z" fill="url(#linear-gradient-52)" transform="translate(-163.6 -231.88)"/><path d="M400.2 434.52C400.177 434.481 400.15 434.444 400.12 434.41 399.806 434.026 399.454 433.674 399.07 433.36L399.5 433.62 399.06 433.36C398.239 432.71 397.347 432.157 396.4 431.71L395.5 431.28 392.5 429.58 392.35 429.47 392.35 429.47C391.79 428.86 381.9 418.09 381.4 417.17 380.53 413.17 381.2 407.25 381.2 407.25L373.04 406.58C373.04 406.58 374.2 413.88 373.04 419.37 372.512 419.965 372.056 420.619 371.68 421.32L371.57 421.53 371.7 421.53 371.6 421.53C370.44 422 369.73 425.53 369.6 426.66 369.475 427.28 369.495 427.92 369.66 428.53 370.055 429.422 370.768 430.135 371.66 430.53 373.36 431.43 375.19 431.99 376.93 432.81 380.12 434.31 383.26 436.33 386.62 437.57 390.34 438.94 394.32 438.97 398.19 439.57 399.19 439.73 400.83 439.66 401.32 438.5 401.81 437.34 400.88 435.4 400.2 434.52Z" fill="url(#linear-gradient-53)" transform="translate(-163.6 -231.88)"/><path d="M401.45 438C401.465 437.834 401.465 437.666 401.45 437.5 401.437 437.312 401.411 437.124 401.37 436.94 401.32 436.76 401.27 436.57 401.2 436.38 401.13 436.19 401.14 436.2 401.1 436.11 400.94 435.716 400.75 435.334 400.53 434.97 400.46 434.86 400.4 434.76 400.34 434.68L400.34 434.68C400.302 434.619 400.259 434.562 400.21 434.51 400.187 434.471 400.16 434.434 400.13 434.4 400.03 434.27 399.92 434.15 399.81 434.03L399.67 433.89 399.51 433.73C399.37 433.6 399.23 433.47 399.08 433.35L399.52 433.61 399.07 433.35C398.669 433.015 398.241 432.714 397.79 432.45 397.58 432.32 397.37 432.21 397.16 432.09L397 432 396.36 431.67 395.46 431.24 392.46 429.54 392.38 429.48 392.31 429.48C391.86 429 387.36 424.05 384.31 420.48 381.53 423.48 375.57 422.81 372.58 419.94 372.418 420.223 372.231 420.491 372.02 420.74 371.63 421.33 371.14 421.84 370.79 422.45L370.63 422.78C370.53 422.99 370.44 423.22 370.35 423.46L370.17 424C370.09 424.253 370.02 424.503 369.96 424.75 369.96 424.88 369.89 425.02 369.86 425.15 369.7 425.8 369.6 426.39 369.54 426.74 369.493 427.051 369.467 427.365 369.46 427.68 369.455 427.76 369.455 427.84 369.46 427.92 369.477 428.154 369.521 428.386 369.59 428.61 369.668 428.835 369.779 429.048 369.92 429.24 369.988 429.338 370.061 429.431 370.14 429.52 370.562 429.943 371.048 430.297 371.58 430.57 372.433 431.005 373.307 431.395 374.2 431.74L375.53 432.27C375.97 432.45 376.41 432.64 376.85 432.85 378.24 433.5 379.63 434.26 381.03 435.01 382.03 435.54 383.03 436.07 384.03 436.56 384.85 436.94 385.68 437.3 386.52 437.56 386.75 437.65 386.99 437.73 387.22 437.8L387.93 438.02C388.38 438.15 388.84 438.26 389.3 438.36L390.07 438.51C390.79 438.65 391.52 438.75 392.25 438.85 394.19 439.1 396.15 439.26 398.09 439.56 398.447 439.617 398.809 439.637 399.17 439.62 400.014 439.668 400.81 439.229 401.22 438.49 401.282 438.34 401.323 438.182 401.34 438.02ZM395.45 431.22 394.73 430.87 394.66 430.87C393.915 430.506 393.206 430.074 392.54 429.58L392.54 429.58Z" fill="url(#linear-gradient-54)" transform="translate(-163.6 -231.88)"/><path d="M386.53 353.49C386.53 353.49 388.66 353.54 388.14 359.49 387.62 365.44 381.72 413.74 381.72 413.74L372.42 414.05C372.42 414.05 367.35 378.23 374.94 357.97 374.94 358 379.08 349 386.53 353.49Z" fill="#394F8E" transform="translate(-163.6 -231.88)"/><path d="M281.85 434.52C281.873 434.481 281.9 434.444 281.93 434.41 282.244 434.026 282.596 433.674 282.98 433.36L282.55 433.62 282.99 433.36C283.814 432.71 284.71 432.157 285.66 431.71L286.55 431.28 289.55 429.58 289.7 429.47 289.7 429.47C290.25 428.86 300.14 418.09 300.64 417.17 301.51 413.17 300.84 407.25 300.84 407.25L309 406.58C309 406.58 307.84 413.88 309 419.37 309.521 419.968 309.974 420.622 310.35 421.32 310.35 421.38 310.42 421.46 310.46 421.53L310.33 421.53 310.43 421.53C311.6 422 312.3 425.53 312.43 426.66 312.555 427.28 312.535 427.92 312.37 428.53 311.979 429.425 311.265 430.139 310.37 430.53 308.67 431.43 306.84 431.99 305.1 432.81 301.92 434.31 298.77 436.33 295.41 437.57 291.69 438.94 287.71 438.97 283.85 439.57 282.85 439.73 281.21 439.66 280.71 438.5 280.21 437.34 281.18 435.4 281.85 434.52Z" fill="url(#linear-gradient-55)" transform="translate(-163.6 -231.88)"/><path d="M312.38 426.35C312.355 426.088 312.315 425.828 312.26 425.57 312.323 425.826 312.363 426.087 312.38 426.35Z" fill="#FFC38A" transform="translate(-163.6 -231.88)"/><path d="M280.61 438.05C280.627 438.212 280.668 438.37 280.73 438.52 281.143 439.261 281.943 439.7 282.79 439.65 283.151 439.667 283.513 439.647 283.87 439.59 285.8 439.29 287.76 439.13 289.7 438.88 290.43 438.78 291.16 438.68 291.88 438.54L292.65 438.39C293.11 438.29 293.57 438.18 294.03 438.05L294.73 437.83C294.97 437.76 295.2 437.68 295.43 437.59 296.27 437.28 297.1 436.92 297.92 436.59 298.92 436.1 299.92 435.59 300.92 435.04 302.32 434.29 303.71 433.53 305.1 432.88 305.54 432.67 305.98 432.48 306.42 432.3L307.75 431.77C308.643 431.425 309.517 431.035 310.37 430.6 310.903 430.33 311.39 429.975 311.81 429.55 311.889 429.461 311.962 429.368 312.03 429.27 312.171 429.078 312.282 428.865 312.36 428.64 312.429 428.416 312.473 428.184 312.49 427.95 312.495 427.87 312.495 427.79 312.49 427.71 312.488 427.395 312.461 427.081 312.41 426.77 312.36 426.42 312.25 425.83 312.09 425.18L312 424.78C311.93 424.53 311.86 424.28 311.78 424.03 311.7 423.78 311.66 423.66 311.6 423.49 311.54 423.32 311.42 423.02 311.33 422.81L311.16 422.48C310.81 421.87 310.32 421.36 309.94 420.77 309.726 420.521 309.535 420.253 309.37 419.97 306.37 422.84 300.43 423.51 297.64 420.51 294.59 424.09 290.09 429.04 289.64 429.51L289.56 429.51 289.48 429.57 286.48 431.27 285.59 431.7 285 432 284.89 432.06C284.68 432.18 284.47 432.29 284.27 432.42 283.815 432.682 283.383 432.983 282.98 433.32L282.54 433.58 282.97 433.32C282.823 433.439 282.683 433.566 282.55 433.7 282.489 433.748 282.432 433.802 282.38 433.86L282.24 434C282.13 434.12 282.02 434.24 281.92 434.37 281.89 434.404 281.863 434.441 281.84 434.48L281.71 434.65 281.71 434.65C281.65 434.73 281.59 434.83 281.52 434.94 281.3 435.304 281.11 435.686 280.95 436.08L280.85 436.35C280.784 436.533 280.731 436.72 280.69 436.91 280.641 437.093 280.611 437.281 280.6 437.47 280.58 437.636 280.58 437.804 280.6 437.97ZM289.51 429.58 289.51 429.58C288.845 430.074 288.135 430.506 287.39 430.87L287.33 430.87 286.6 431.22Z" fill="url(#linear-gradient-56)" transform="translate(-163.6 -231.88)"/><path d="M295.52 353.49C295.52 353.49 293.39 353.54 293.91 359.49 294.43 365.44 300.33 413.74 300.33 413.74L309.63 414.05C309.63 414.05 314.7 378.23 307.11 357.97 307.11 358 303 349 295.52 353.49Z" fill="#394F8E" transform="translate(-163.6 -231.88)"/><path d="M73.5 207.08 73.48 207.81 77.54 207.81 83.34 102.61 77.62 102.61 73.5 207.08Z" fill="#0A1123"/><path d="M254.99 102.61 249.27 102.61 255.07 207.81 259.13 207.81 254.99 102.61Z" fill="#0A1123"/><path d="M232.32 325.25 429.32 325.25 429.32 325.25 429.32 331.68 429.32 331.68 232.32 331.68C231.282 331.68 230.44 330.838 230.44 329.8L230.44 327.14C230.434 326.102 231.272 325.256 232.31 325.25 232.313 325.25 232.317 325.25 232.32 325.25Z" fill="url(#linear-gradient-57)" transform="matrix(-1 1.22465e-16 -1.22465e-16 -1 496.21 425.04)"/><rect x="70.81" y="99.8" width="190.98" height="5.4" fill="url(#linear-gradient-58)"/><path d="M95.82 62.3 87.75 90.64 71.72 91.36 71.72 93.36 130.18 93.36 138.67 62.3 95.31 62.3" fill="#0A1123"/></g></g></svg>