<svg viewBox="0 0 208.51 416.03" xmlns="http://www.w3.org/2000/svg" xmlns:xlink="http://www.w3.org/1999/xlink" overflow="hidden"><defs><linearGradient x1="516.05" y1="307.41" x2="526.4" y2="327.81" gradientUnits="userSpaceOnUse" id="linear-gradient" gradientTransform="matrix(0.957772 -0.287528 0.287528 0.957772 -69.47 173.35)"><stop offset="0" stop-color="#FFD1C1"/><stop offset="0.49" stop-color="#FFCFBF"/><stop offset="0.66" stop-color="#FFCAB8"/><stop offset="0.79" stop-color="#FFC0AD"/><stop offset="0.89" stop-color="#FFB29C"/><stop offset="0.98" stop-color="#FFA086"/><stop offset="1" stop-color="#FF9A7F"/></linearGradient><linearGradient x1="3173.84" y1="-1994.04" x2="3108.36" y2="-1994.04" gradientUnits="userSpaceOnUse" id="linear-gradient-2" gradientTransform="matrix(0.07 1 1 -0.07 2333.79 -2989.9)"><stop offset="0" stop-color="#F9FBFC"/><stop offset="0.29" stop-color="#F1F6FD"/><stop offset="0.73" stop-color="#DDE6FE"/><stop offset="1" stop-color="#CDDBFF"/></linearGradient><linearGradient x1="608.84" y1="277.76" x2="557.76" y2="286.33" xlink:href="#linear-gradient-2" id="linear-gradient-3"></linearGradient><linearGradient x1="678.2" y1="245.87" x2="614.18" y2="251.27" gradientUnits="userSpaceOnUse" id="linear-gradient-4"><stop offset="0" stop-color="#E2685B"/><stop offset="1" stop-color="#EC9D51"/></linearGradient><linearGradient x1="684.76" y1="323.68" x2="620.74" y2="329.08" xlink:href="#linear-gradient-4" id="linear-gradient-5"></linearGradient><linearGradient x1="102.14" y1="107.28" x2="102.14" y2="125.8" gradientUnits="userSpaceOnUse" id="linear-gradient-6"><stop offset="0" stop-color="#FFD1C1"/><stop offset="0.32" stop-color="#FFCFBE"/><stop offset="0.54" stop-color="#FFC7B5"/><stop offset="0.73" stop-color="#FFBAA6"/><stop offset="0.9" stop-color="#FFA990"/><stop offset="1" stop-color="#FF9A7F"/></linearGradient><linearGradient x1="607.64" y1="196.4" x2="608.92" y2="169.97" xlink:href="#linear-gradient-6" id="linear-gradient-7"></linearGradient><linearGradient x1="8157.15" y1="208.73" x2="8157.15" y2="187.24" gradientUnits="userSpaceOnUse" id="linear-gradient-8" gradientTransform="matrix(-1 0 0 1 8747.25 0)"><stop offset="0" stop-color="#E7E6FF"/><stop offset="0.34" stop-color="#C9D2F8"/><stop offset="0.76" stop-color="#AABDF1"/><stop offset="1" stop-color="#9EB5EE"/></linearGradient><linearGradient x1="8163.72" y1="205.32" x2="8163.72" y2="185.82" gradientUnits="userSpaceOnUse" id="linear-gradient-9" gradientTransform="matrix(-1 0 0 1 8248.51 -83.97)"><stop offset="0" stop-color="#F9FBFC"/><stop offset="1" stop-color="#CDDBFF"/></linearGradient><linearGradient x1="8133.46" y1="211.88" x2="8133.46" y2="176.16" gradientUnits="userSpaceOnUse" id="linear-gradient-10" gradientTransform="matrix(-1 0 0 1 8248.51 -83.97)"><stop offset="0" stop-color="#F9FBFC"/><stop offset="0.31" stop-color="#F0F5FD"/><stop offset="0.8" stop-color="#D8E3FE"/><stop offset="1" stop-color="#CDDBFF"/></linearGradient><linearGradient x1="8149.63" y1="208.73" x2="8149.63" y2="201.13" xlink:href="#linear-gradient-8" id="linear-gradient-11" gradientTransform="matrix(-1 0 0 1 8248.51 -83.97)"></linearGradient><linearGradient x1="581.72" y1="144.04" x2="637.03" y2="144.04" xlink:href="#linear-gradient-6" id="linear-gradient-12"></linearGradient><linearGradient x1="638.88" y1="151.11" x2="638.88" y2="127.35" xlink:href="#linear-gradient" id="linear-gradient-13"></linearGradient><linearGradient x1="107.39" y1="65.02" x2="113.58" y2="65.02" gradientUnits="userSpaceOnUse" id="linear-gradient-14"><stop offset="0" stop-color="#EEA281"/><stop offset="0.25" stop-color="#EE9C7B"/><stop offset="0.58" stop-color="#ED8A6C"/><stop offset="0.97" stop-color="#EC6E52"/><stop offset="1" stop-color="#EC6B50"/></linearGradient><linearGradient x1="579.87" y1="150.9" x2="579.87" y2="127.14" xlink:href="#linear-gradient" id="linear-gradient-15"></linearGradient><linearGradient x1="1073.83" y1="-473.51" x2="1074.41" y2="-351.34" xlink:href="#linear-gradient-2" id="linear-gradient-16" gradientTransform="matrix(0.99 -0.17 0.17 0.99 -317.18 841.66)"></linearGradient><linearGradient x1="645.81" y1="385.9" x2="651.06" y2="366.11" gradientUnits="userSpaceOnUse" id="linear-gradient-17"><stop offset="0" stop-color="#FFD1C1"/><stop offset="0.23" stop-color="#FFCDBC"/><stop offset="0.49" stop-color="#FFC1AE"/><stop offset="0.78" stop-color="#FFAD96"/><stop offset="1" stop-color="#FF9A7F"/></linearGradient><linearGradient x1="2804.85" y1="-1963.64" x2="2727.88" y2="-1963.64" xlink:href="#linear-gradient-2" id="linear-gradient-18" gradientTransform="matrix(0.51 0.86 0.86 -0.51 966.02 -3060.71)"></linearGradient></defs><g><g id="OBJECTS"><path d="M517.33 321.48 498.74 345.85C498.74 345.85 503.01 347.97 505.97 346.31 508.93 344.65 511.67 345.31 514.48 344.18 517.29 343.05 524.88 343.5 529.02 340.5 533.16 337.5 533.75 329.67 537.52 326.5 541.29 323.33 549.73 317.25 549.73 317.25L538.1 304 527.1 312.87C527.1 312.87 511.1 313.67 504.17 323.45Z" fill="url(#linear-gradient)" transform="translate(-498.74 -83.97)"/><path d="M614.62 265.2C614.62 265.2 600.7 246.72 587.42 255.2 574.14 263.68 530.06 309.29 530.06 309.29L544.11 322.29C544.11 322.29 611.29 282.75 614.62 265.2Z" fill="url(#linear-gradient-2)" transform="translate(-498.74 -83.97)"/><path d="M587.42 255.22C581.55 258.97 569.68 269.96 558.25 281.06L558.25 313.56C578.15 300.89 612.25 277.56 614.62 265.2 614.62 265.2 600.7 246.72 587.42 255.22Z" fill="url(#linear-gradient-3)" transform="translate(-498.74 -83.97)"/><path d="M564 500 603.87 500C603.5 480.84 601.41 461.83 596.34 445.94 596.34 445.94 589.47 420.59 567.06 431.53 567.06 431.53 560.86 431.25 561.27 447.74 561.44 453.72 562.6 475.15 564 500Z" fill="#394F8E" transform="translate(-498.74 -83.97)"/><path d="M614 322.76C612.577 321.769 611.052 320.934 609.45 320.27 602.64 317.46 595.24 320.16 587.89 320.69 568.21 322.14 563.09 365.45 562.56 389.21 561.99 414.67 557.28 435.21 566.68 458.92 569.46 465.92 574.19 473.25 581.62 474.45 587.34 475.38 593.11 472.2 596.79 467.72 600.47 463.24 602.45 457.63 604.23 452.12 611.81 428.72 617.36 404.73 623.16 380.82 625.83 369.82 628.57 358.54 627.32 347.28 626.2 337.76 621.66 328.13 614 322.76Z" fill="#394F8E" transform="translate(-498.74 -83.97)"/><path d="M614 322.76C613.71 322.56 613.41 322.36 613.1 322.17 599.23 322.55 590.1 323.38 589.68 342.58 589.12 367.58 592.96 433.63 601.97 458.52 602.81 456.42 603.54 454.26 604.23 452.12 611.81 428.72 617.36 404.73 623.16 380.82 625.83 369.82 628.57 358.54 627.32 347.28 626.2 337.76 621.66 328.13 614 322.76Z" fill="#1D2368" transform="translate(-498.74 -83.97)"/><path d="M619.09 500 659.57 500C657.1 482.6 653.15 465.69 646.98 451.68 646.98 451.68 637.46 427.2 616.33 440.45 616.33 440.45 610.13 440.83 612.33 457.18 613 462.39 615.7 479.33 619.09 500Z" fill="#394F8E" transform="translate(-498.74 -83.97)"/><path d="M651.26 328.42C642.14 322.92 631.26 324.08 622.48 329.74 610.75 337.31 603.74 350.4 602.42 364.21 600.64 382.81 601.98 403.36 604.36 421.85 605.705 432.09 607.882 442.204 610.87 452.09 613.39 460.39 614.81 471.47 622.57 477.02 628.25 481.08 638.18 481.43 643.77 476.81 649.58 472 651.36 463.62 652.65 456.59 654.12 448.59 655.87 440.59 657.35 432.5 659.89 418.75 661.86 404.88 664.48 391.15 667.01 377.93 668.87 363.66 666.12 350.32 664.14 340.74 658.57 332.83 651.26 328.42Z" fill="#394F8E" transform="translate(-498.74 -83.97)"/><path d="M625.78 369C627.21 361.79 628.08 354.51 627.26 347.24 626.2 337.72 621.66 328.09 613.95 322.72 612.527 321.729 611.002 320.894 609.4 320.23 602.59 317.42 595.19 320.12 587.84 320.66 573 321.74 566.44 346.66 563.84 369Z" fill="#1D2368" transform="translate(-498.74 -83.97)"/><path d="M667.21 371.51C667.816 364.43 667.45 357.3 666.12 350.32 664.12 340.74 658.57 332.83 651.26 328.42 642.14 322.92 631.26 324.08 622.48 329.74 610.75 337.31 603.74 350.4 602.42 364.21 602.19 366.61 602.01 369.05 601.89 371.51Z" fill="#1D2368" transform="translate(-498.74 -83.97)"/><path d="M667.17 330C664.09 315 659.42 301.32 660.28 285.83 661.14 270.34 661.88 254.54 663.05 238.93 663.55 232.3 664.87 225.44 665.05 218.83 665.27 209.95 660.32 202.93 654.1 197.05 648.68 191.94 642.4 188.05 636.1 184.31L635.35 183.86C632.992 182.333 630.498 181.028 627.9 179.96 616.9 175.85 602.29 176.56 592.14 182.47L572.67 193.81C565.77 197.81 561.67 205.81 562.02 214.36 562.87 232.9 563.84 251.44 565.13 269.95 565.81 279.63 567.71 288.95 566.79 298.68 565.6 311.38 554.79 338.87 558.25 351.56 559.95 357.81 568.64 354.17 574.16 354.5 590.56 355.5 604.35 353.5 618.58 354.92 632.46 356.26 654.72 355.1 667.91 350.48 676.27 347.57 668.94 338.61 667.17 330Z" fill="#394F8E" transform="translate(-498.74 -83.97)"/><g opacity="0.39"><path d="M649.78 277.76C653.037 284.408 656.635 290.883 660.56 297.16 660.17 293.4 660.076 289.615 660.28 285.84 661.14 270.2 661.88 254.55 663.05 238.94 663.55 232.31 664.87 225.45 665.05 218.84 665.05 218.53 665.05 218.22 665.05 217.92 662.829 214.002 660.318 210.255 657.54 206.71 654.23 202.71 649.6 199.14 643.82 199.08 620.62 198.81 633.1 232.91 636.23 243.31 639.78 255.151 644.312 266.674 649.78 277.76Z" fill="url(#linear-gradient-4)" transform="translate(-498.74 -83.97)"/><path d="M667.92 350.49C676.27 347.57 668.92 338.61 667.17 330.01 664.92 319.01 661.81 308.75 660.65 297.93 652.04 315.42 641.25 340.86 635.22 355.37 646.74 355.05 659.27 353.52 667.92 350.49Z" fill="url(#linear-gradient-5)" transform="translate(-498.74 -83.97)"/></g><path d="M95.02 125.8 110.42 109.23 93.87 107.28 95.02 125.8Z" fill="url(#linear-gradient-6)"/><path d="M596 164.41C596 164.41 592.79 179.28 593 185.82 593.21 192.36 593.47 196.93 593.47 196.93L606.58 197.56 623.68 179.31 623.27 165.51Z" fill="url(#linear-gradient-7)" transform="translate(-498.74 -83.97)"/><path d="M593.76 208.73 586.37 202.93 593 187.24C593 187.24 594.11 208.36 593.76 208.73Z" fill="url(#linear-gradient-8)" transform="translate(-498.74 -83.97)"/><path d="M94.28 103.27 87.64 118.97 75.31 121.35 94.28 101.85 94.28 103.27Z" fill="url(#linear-gradient-9)"/><path d="M131.3 97.18 111.5 127.91 98.78 117.16 124.92 92.19 131.3 97.18Z" fill="url(#linear-gradient-10)"/><path d="M98.78 117.16 95.02 124.76 102.73 120.35 98.78 117.16Z" fill="url(#linear-gradient-11)"/><path d="M641.71 117.42C641.71 117.42 641 148.6 630.3 162.21L587 162.21C587 162.21 578.74 153.21 577.44 124.48 577.44 124.48 575.51 107.07 588.44 105.06 601.37 103.05 635.51 96.6 641.71 117.42Z" fill="#0A1123" transform="translate(-498.74 -83.97)"/><path d="M609.37 114.9 581.72 120.55C581.72 120.55 584.35 160.1 590.96 166.4 592.68 168.03 606.47 173.11 609.37 173.19 612.28 173.11 626.07 168.03 627.79 166.4 634.4 160.1 637.03 120.55 637.03 120.55Z" fill="url(#linear-gradient-12)" transform="translate(-498.74 -83.97)"/><path d="M132.21 34.4 135.23 59.2 139.36 33.28 132.21 34.4Z" fill="#0A1123"/><path d="M644.31 130.44C646.93 136.87 642.7 148.82 632.68 151.11L636.16 129.54C637.44 127.403 640.21 126.709 642.347 127.989 643.274 128.545 643.97 129.414 644.31 130.44Z" fill="url(#linear-gradient-13)" transform="translate(-498.74 -83.97)"/><path d="M591.23 117.82C591.23 117.82 604.78 135.69 632.02 130.59 632.02 130.59 608.68 126.91 602.39 112.12Z" fill="#0A1123" transform="translate(-498.74 -83.97)"/><path d="M594.52 117.5C594.52 117.5 629.16 139.66 647.75 117.5L653.43 108.64C653.43 108.64 644.31 110.64 641.71 106.76 637.24 100.02 635.41 92.76 628.71 87.6 625.124 84.9351 620.695 83.6565 616.24 84 612.105 84.2595 608.063 85.3405 604.35 87.18 600.35 89.18 597.67 92.66 594.52 95.84 594.52 95.84 585.28 92.84 579.6 99.29 573.92 105.74 578.09 126.75 578.09 126.75L585.49 140.04Z" fill="#0A1123" transform="translate(-498.74 -83.97)"/><path d="M110.46 55.05 107.39 72.09 110.58 74.98 113.58 71.79 110.46 55.05Z" fill="url(#linear-gradient-14)"/><path d="M574.44 130.23C571.82 136.66 576.05 148.61 586.06 150.9L582.58 129.34C581.309 127.204 578.547 126.503 576.412 127.774 575.48 128.329 574.78 129.201 574.44 130.23Z" fill="url(#linear-gradient-15)" transform="translate(-498.74 -83.97)"/><path d="M692.1 306.29C692.1 306.29 689.81 313.36 683.98 307.84 673.15 297.57 664.15 284.72 656.52 271.84 650.234 261.193 644.845 250.041 640.41 238.5 636.51 228.36 621.53 195.28 644.68 193.82 650.45 193.46 655.33 196.67 658.93 200.42 675.12 217.28 706.78 281 706.78 281Z" fill="url(#linear-gradient-16)" transform="translate(-498.74 -83.97)"/><path d="M657.47 397.86C658.148 397.133 658.735 396.327 659.22 395.46 662.03 390.12 658.57 381.51 660.91 376.21 663.25 370.91 669 360 669 360L649.75 352 642.75 367.14C638.888 369.441 635.345 372.238 632.21 375.46 638.68 384.33 648.07 391.31 657.47 397.86Z" fill="url(#linear-gradient-17)" transform="translate(-498.74 -83.97)"/><path d="M706.78 281C706.78 281 686.1 258.62 676.48 274.57 666.86 290.52 644 361.88 644 361.88L665.66 368.27C665.66 368.27 712.43 301.35 706.78 281Z" fill="url(#linear-gradient-18)" transform="translate(-498.74 -83.97)"/><path d="M630.47 372.47C630.47 372.47 646.35 391.37 660.72 398.79L657.13 404.58C657.13 404.58 637.42 393.69 626.64 376.42Z" fill="#1D2368" transform="translate(-498.74 -83.97)"/></g></g></svg>