<svg viewBox="0 0 209.65 118.67" xmlns="http://www.w3.org/2000/svg" xmlns:xlink="http://www.w3.org/1999/xlink" overflow="hidden"><defs></defs><g id="OBJECTS"><rect x="1.47" y="1.47" rx="5.99" width="206.71" height="115.73" fill="#202135"/><path d="M485.69 304.24 291 304.24C288.099 304.24 285.746 306.589 285.74 309.49L285.74 413.24C285.746 416.141 288.099 418.49 291 418.49L485.69 418.49C488.591 418.49 490.944 416.141 490.95 413.24L490.95 309.49C490.944 306.589 488.591 304.24 485.69 304.24ZM490.39 413.24C490.39 415.836 488.286 417.94 485.69 417.94L291 417.94C288.403 417.94 286.296 415.837 286.29 413.24L286.29 309.49C286.296 306.893 288.403 304.79 291 304.79L485.69 304.79C488.286 304.79 490.39 306.894 490.39 309.49Z" fill="#676D77" transform="translate(-283.51 -302.03)"/><path d="M485.69 302.77 291 302.77C287.287 302.77 284.276 305.777 284.27 309.49L284.27 413.24C284.253 416.957 287.253 419.983 290.97 420 290.98 420 290.99 420 291 420L485.69 420C489.403 420 492.414 416.993 492.42 413.28L492.42 309.49C492.414 305.777 489.403 302.77 485.69 302.77ZM491 413.24C490.994 416.141 488.641 418.49 485.74 418.49L291 418.49C288.099 418.49 285.746 416.141 285.74 413.24L285.74 309.49C285.746 306.589 288.099 304.24 291 304.24L485.69 304.24C488.591 304.24 490.944 306.589 490.95 309.49Z" fill="#CBCFD7" transform="translate(-283.51 -302.03)"/><path d="M485.69 304.24 291 304.24C288.099 304.24 285.746 306.589 285.74 309.49L285.74 413.24C285.746 416.141 288.099 418.49 291 418.49L485.69 418.49C488.591 418.49 490.944 416.141 490.95 413.24L490.95 309.49C490.944 306.589 488.591 304.24 485.69 304.24ZM490.39 413.24C490.39 415.836 488.286 417.94 485.69 417.94L291 417.94C288.403 417.94 286.296 415.837 286.29 413.24L286.29 309.49C286.296 306.893 288.403 304.79 291 304.79L485.69 304.79C488.286 304.79 490.39 306.894 490.39 309.49Z" fill="#676D77" transform="translate(-283.51 -302.03)"/><path d="M485.69 304.24 291 304.24C288.099 304.24 285.746 306.589 285.74 309.49L285.74 413.24C285.746 416.141 288.099 418.49 291 418.49L485.69 418.49C488.591 418.49 490.944 416.141 490.95 413.24L490.95 309.49C490.944 306.589 488.591 304.24 485.69 304.24ZM490.39 413.24C490.39 415.836 488.286 417.94 485.69 417.94L291 417.94C288.403 417.94 286.296 415.837 286.29 413.24L286.29 309.49C286.296 306.893 288.403 304.79 291 304.79L485.69 304.79C488.286 304.79 490.39 306.894 490.39 309.49Z" fill="#676D77" transform="translate(-283.51 -302.03)"/><path d="M485.69 302 291 302C286.882 302.006 283.546 305.342 283.54 309.46L283.54 413.24C283.546 417.358 286.882 420.694 291 420.7L485.69 420.7C489.808 420.694 493.145 417.358 493.15 413.24L493.15 309.49C493.161 305.364 489.826 302.011 485.7 302 485.697 302 485.693 302 485.69 302ZM491.69 413.21C491.69 416.524 489.004 419.21 485.69 419.21L291 419.21C287.686 419.21 285 416.524 285 413.21L285 309.49C285 306.176 287.686 303.49 291 303.49L485.69 303.49C489.004 303.49 491.69 306.176 491.69 309.49Z" fill="#AAAFBA" transform="translate(-283.51 -302.03)"/><rect x="17.48" y="6.72" rx="2.57" width="184.53" height="105.23" fill="#FFFFFF"/><rect x="7.58" y="49.15" rx="1.82" width="3.83" height="20.38" fill="#676D77"/><rect x="7.58" y="26.36" rx="1.82" width="3.83" height="14.95" fill="#676D77"/><rect x="7.58" y="77.35" rx="1.82" width="3.83" height="14.95" fill="#676D77"/><rect x="17.48" y="6.72" rx="2.57" width="184.53" height="105.23" fill="#FFFFFF"/></g><g id="TEXTS"><text fill="#FFFFFF" font-family="Nunito-Regular,Nunito" font-size="1.84" transform="translate(24.69 56.28)">N<tspan letter-spacing="-0.01em" x="1.36" y="0">E</tspan><tspan letter-spacing="-0.01em" x="2.42" y="0">W</tspan><tspan letter-spacing="0em" x="4.42" y="0">S</tspan></text><text fill="#FFFFFF" font-family="Nunito-Regular,Nunito" font-size="1.84" transform="translate(35.11 10.11)">SIGN UP</text><text fill="#FFFFFF" font-family="Nunito-Regular,Nunito" font-size="1.84" transform="translate(25.26 10.12)"><tspan letter-spacing="-0.04em">L</tspan><tspan x="0.93" y="0">OGIN</tspan></text></g></svg>