<svg viewBox="0 0 907.17 307.06" xmlns="http://www.w3.org/2000/svg" xmlns:xlink="http://www.w3.org/1999/xlink" id="Capa_1" overflow="hidden"><path d="M583.11 1647.55C590.603 1650.11 598.483 1651.35 606.4 1651.22 618.92 1651.22 629.387 1648.92 637.8 1644.31 645.799 1640.11 652.476 1633.77 657.09 1626L631.66 1612.52C629.462 1616.19 626.365 1619.25 622.66 1621.39 618.905 1623.57 614.631 1624.69 610.29 1624.64 605.85 1624.64 602.237 1623.7 599.45 1621.82 596.809 1620.21 595.219 1617.32 595.27 1614.23 595.258 1612.1 595.881 1610.01 597.06 1608.23 598.372 1606.28 599.891 1604.48 601.59 1602.86 603.4 1601.1 605.37 1599.27 607.47 1597.4 609.606 1595.49 611.577 1593.41 613.36 1591.17 615.22 1588.84 616.742 1586.25 617.88 1583.49 619.128 1580.4 619.74 1577.09 619.68 1573.76L589.34 1573.76C589.365 1576.19 588.65 1578.57 587.29 1580.59 585.799 1582.78 584.019 1584.76 582 1586.48 579.84 1588.35 577.59 1590.35 575.26 1592.48 572.904 1594.61 570.683 1596.89 568.61 1599.3 566.427 1601.88 564.668 1604.79 563.4 1607.92 561.981 1611.62 561.301 1615.57 561.4 1619.53 561.219 1625.81 563.274 1631.95 567.2 1636.85 571.067 1641.54 576.37 1645.1 583.11 1647.55Z" fill="#FFFFFF" transform="translate(-521.25 -1493.2)"/><path d="M604.53 1564.19C610.21 1564.19 614.847 1562.48 618.44 1559.07 621.925 1555.87 623.879 1551.34 623.81 1546.61 623.897 1541.8 621.946 1537.19 618.44 1533.9 614.853 1530.43 610.217 1528.7 604.53 1528.69 598.843 1528.68 594.177 1530.42 590.53 1533.9 586.978 1537.16 584.991 1541.79 585.07 1546.61 585.008 1551.36 586.999 1555.9 590.53 1559.07 594.177 1562.48 598.843 1564.19 604.53 1564.19Z" fill="#FFFFFF" transform="translate(-521.25 -1493.2)"/><path d="M670.48 1607.7C676.476 1613.36 683.559 1617.75 691.3 1620.59 699.689 1623.67 708.565 1625.2 717.5 1625.11 728.527 1625.11 738.393 1623.15 747.1 1619.22 755.572 1615.48 763.031 1609.78 768.86 1602.58L747.36 1583.13C743.841 1587.39 739.523 1590.93 734.65 1593.54 729.867 1595.97 724.564 1597.2 719.2 1597.12 714.597 1597.17 710.024 1596.36 705.72 1594.73 701.756 1593.23 698.174 1590.87 695.23 1587.82 692.255 1584.7 689.933 1581.03 688.4 1577 685.104 1567.96 685.104 1558.04 688.4 1549 689.935 1544.97 692.256 1541.28 695.23 1538.16 698.18 1535.12 701.76 1532.76 705.72 1531.25 710.026 1529.62 714.597 1528.81 719.2 1528.86 724.565 1528.79 729.868 1530.02 734.65 1532.45 739.525 1535.06 743.843 1538.59 747.36 1542.86L768.86 1523.4C763.079 1516.14 755.609 1510.4 747.1 1506.68 738.4 1502.81 728.533 1500.87 717.5 1500.88 708.565 1500.79 699.687 1502.32 691.3 1505.4 683.56 1508.24 676.477 1512.62 670.48 1518.28 664.62 1523.86 659.946 1530.57 656.74 1538 650.14 1554.01 650.14 1571.99 656.74 1588 659.944 1595.43 664.618 1602.13 670.48 1607.7Z" fill="#FFFFFF" transform="translate(-521.25 -1493.2)"/><path d="M342.84 0 310.41 0 287.55 25.94 310.75 25.94 342.84 0Z" fill="#FFFFFF"/><path d="M798.89 1618.11C806.737 1622.21 815.737 1624.26 825.89 1624.26 835.255 1624.42 844.52 1622.31 852.89 1618.11 875.909 1606.53 885.179 1578.47 873.595 1555.46 869.094 1546.51 861.835 1539.25 852.89 1534.75 844.502 1530.6 835.245 1528.53 825.89 1528.69 815.757 1528.69 806.757 1530.71 798.89 1534.75 791.298 1538.55 784.895 1544.37 780.38 1551.56 771.393 1566.86 771.393 1585.83 780.38 1601.13 784.884 1608.37 791.286 1614.25 798.89 1618.11ZM809.05 1564.44C810.654 1561.37 813.077 1558.8 816.05 1557.02 819.031 1555.29 822.425 1554.41 825.87 1554.46 829.374 1554.39 832.831 1555.27 835.87 1557.02 838.828 1558.79 841.223 1561.36 842.78 1564.44 844.588 1568.13 845.466 1572.2 845.34 1576.3 845.449 1580.45 844.572 1584.56 842.78 1588.3 841.264 1591.45 838.863 1594.09 835.87 1595.9 832.829 1597.64 829.373 1598.53 825.87 1598.46 822.426 1598.51 819.032 1597.62 816.05 1595.9 813.043 1594.08 810.615 1591.45 809.05 1588.3 807.199 1584.58 806.289 1580.46 806.4 1576.3 806.272 1572.19 807.183 1568.11 809.05 1564.44Z" fill="#FFFFFF" transform="translate(-521.25 -1493.2)"/><path d="M988.31 1622.72 988.31 1576.81C988.17 1572.81 988.868 1568.83 990.36 1565.12 991.542 1562.32 993.57 1559.97 996.16 1558.38 998.699 1556.9 1001.59 1556.14 1004.53 1556.17 1008.46 1555.99 1012.25 1557.67 1014.77 1560.69 1017.27 1563.7 1018.52 1568.5 1018.52 1575.11L1018.52 1622.72 1050.94 1622.72 1050.94 1569.82C1050.94 1560.26 1049.32 1552.47 1046.08 1546.44 1043.13 1540.71 1038.48 1536.02 1032.77 1533.04 1019.28 1526.57 1003.44 1527.32 990.62 1535.04 987.149 1537.26 984.057 1540.01 981.46 1543.21 979.418 1539.97 976.724 1537.19 973.55 1535.04 967.064 1530.72 959.412 1528.49 951.62 1528.64 944.698 1528.54 937.872 1530.26 931.83 1533.64 928.918 1535.29 926.271 1537.36 923.98 1539.8L923.98 1530.14 893.09 1530.14 893.09 1622.63 925.52 1622.63 925.52 1576.72C925.52 1571.95 926.22 1568.05 927.65 1565.03 928.865 1562.25 930.885 1559.91 933.45 1558.29 936.009 1556.79 938.933 1556.02 941.9 1556.08 946.333 1556.08 949.773 1557.59 952.22 1560.6 954.667 1563.61 955.89 1568.42 955.89 1575.02L955.89 1622.63Z" fill="#FFFFFF" transform="translate(-521.25 -1493.2)"/><path d="M1164.59 1601.13C1173.47 1585.8 1173.47 1566.89 1164.59 1551.56 1160.1 1544.34 1153.69 1538.52 1146.08 1534.75 1137.69 1530.6 1128.43 1528.53 1119.08 1528.69 1108.95 1528.69 1099.95 1530.71 1092.08 1534.75 1084.48 1538.55 1078.08 1544.37 1073.56 1551.56 1064.57 1566.86 1064.57 1585.83 1073.56 1601.13 1078.07 1608.38 1084.47 1614.26 1092.08 1618.13 1099.93 1622.23 1108.93 1624.28 1119.08 1624.28 1128.44 1624.44 1137.71 1622.33 1146.08 1618.13 1153.71 1614.29 1160.12 1608.41 1164.59 1601.13ZM1135.92 1588.33C1134.4 1591.48 1132 1594.12 1129.01 1595.93 1125.97 1597.67 1122.51 1598.56 1119.01 1598.49 1115.57 1598.54 1112.18 1597.66 1109.2 1595.93 1106.19 1594.11 1103.77 1591.48 1102.2 1588.33 1100.36 1584.6 1099.45 1580.49 1099.56 1576.33 1099.43 1572.22 1100.34 1568.14 1102.2 1564.47 1105.42 1558.19 1111.95 1554.31 1119.01 1554.47 1122.51 1554.4 1125.97 1555.28 1129.01 1557.03 1131.97 1558.8 1134.37 1561.37 1135.92 1564.45 1137.73 1568.14 1138.61 1572.21 1138.48 1576.31 1138.59 1580.46 1137.72 1584.58 1135.92 1588.33Z" fill="#FFFFFF" transform="translate(-521.25 -1493.2)"/><rect x="714.67" y="2.9" width="32.42" height="126.62" fill="#FFFFFF"/><path d="M1308.79 1618.11C1316.64 1622.21 1325.64 1624.26 1335.79 1624.26 1345.15 1624.42 1354.42 1622.31 1362.79 1618.11 1385.81 1606.53 1395.08 1578.47 1383.5 1555.46 1378.99 1546.51 1371.73 1539.25 1362.79 1534.75 1354.4 1530.6 1345.14 1528.53 1335.79 1528.69 1325.66 1528.69 1316.66 1530.71 1308.79 1534.75 1301.19 1538.55 1294.79 1544.37 1290.27 1551.56 1281.28 1566.86 1281.28 1585.83 1290.27 1601.13 1294.78 1608.37 1301.18 1614.25 1308.79 1618.11ZM1318.94 1564.44C1322.16 1558.16 1328.69 1554.28 1335.75 1554.44 1339.25 1554.37 1342.71 1555.25 1345.75 1557 1348.71 1558.77 1351.11 1561.34 1352.66 1564.42 1354.47 1568.11 1355.35 1572.18 1355.22 1576.28 1355.33 1580.43 1354.45 1584.54 1352.66 1588.28 1351.14 1591.43 1348.74 1594.07 1345.75 1595.88 1342.71 1597.62 1339.25 1598.51 1335.75 1598.44 1332.31 1598.49 1328.92 1597.61 1325.94 1595.88 1322.93 1594.06 1320.51 1591.43 1318.94 1588.28 1317.09 1584.56 1316.18 1580.44 1316.29 1576.28 1316.16 1572.17 1317.08 1568.1 1318.94 1564.44Z" fill="#FFFFFF" transform="translate(-521.25 -1493.2)"/><path d="M600.94 1709C588.137 1702.97 573.259 1703.22 560.67 1709.69 558.129 1711.08 555.776 1712.79 553.67 1714.78L553.67 1672.1 521.25 1672.1 521.25 1798.72 553.67 1798.72 553.67 1754C553.67 1748.88 554.467 1744.73 556.06 1741.54 557.48 1738.54 559.806 1736.06 562.71 1734.46 565.596 1732.91 568.826 1732.12 572.1 1732.16 576.88 1732.16 580.607 1733.67 583.28 1736.68 585.953 1739.69 587.287 1744.5 587.28 1751.1L587.28 1798.71 619.7 1798.71 619.7 1745.81C619.7 1736.25 618.033 1728.46 614.7 1722.43 611.606 1716.64 606.8 1711.95 600.94 1709Z" fill="#FFFFFF" transform="translate(-521.25 -1493.2)"/><path d="M714.34 1715C706.093 1708.11 694.46 1704.67 679.44 1704.67 672.041 1704.69 664.673 1705.63 657.51 1707.49 650.831 1709.08 644.46 1711.76 638.65 1715.42L649.58 1737.42C653.055 1734.77 656.987 1732.77 661.18 1731.53 665.539 1730.14 670.085 1729.42 674.66 1729.4 681.493 1729.4 686.47 1730.79 689.59 1733.58 692.43 1736.11 693.977 1739.61 694.23 1744.07L675.86 1744.07C666.3 1744.07 658.507 1745.18 652.48 1747.4 646.453 1749.62 641.987 1752.81 639.08 1756.96 636.121 1761.3 634.6 1766.47 634.73 1771.72 634.659 1776.84 636.047 1781.86 638.73 1786.22 641.559 1790.69 645.618 1794.24 650.42 1796.46 655.54 1798.96 661.797 1800.21 669.19 1800.22 677.27 1800.22 683.783 1798.6 688.73 1795.35 692.031 1793.19 694.706 1790.2 696.49 1786.68L696.49 1798.68 726.7 1798.68 726.7 1747.31C726.707 1732.67 722.587 1721.9 714.34 1715ZM687.89 1777.11C684.984 1778.88 681.641 1779.8 678.24 1779.76 674.49 1779.76 671.53 1778.9 669.37 1777.2 665.582 1774.08 665.037 1768.49 668.152 1764.7 668.496 1764.28 668.877 1763.9 669.29 1763.55 671.39 1761.84 675.057 1760.98 680.29 1760.99L694.29 1760.99 694.29 1768.99C693.157 1772.36 690.897 1775.23 687.89 1777.13Z" fill="#FFFFFF" transform="translate(-521.25 -1493.2)"/><path d="M785.24 1733C788.374 1731.27 791.903 1730.39 795.48 1730.44 799.165 1730.43 802.778 1731.47 805.89 1733.44 809.382 1735.79 812.152 1739.07 813.89 1742.91L838.97 1730.11C835.904 1722.16 830.174 1715.53 822.76 1711.34 815.14 1706.9 806.097 1704.68 795.63 1704.68 786.15 1704.51 776.764 1706.59 768.24 1710.74 760.527 1714.5 754.001 1720.32 749.38 1727.55 740.287 1742.82 740.287 1761.85 749.38 1777.12 753.988 1784.41 760.513 1790.29 768.24 1794.12 776.746 1798.33 786.139 1800.44 795.63 1800.27 806.09 1800.27 815.133 1798.05 822.76 1793.61 830.185 1789.42 835.926 1782.78 839 1774.83L813.91 1762C812.169 1765.83 809.4 1769.11 805.91 1771.47 802.798 1773.44 799.185 1774.48 795.5 1774.47 791.923 1774.51 788.396 1773.63 785.26 1771.91 782.159 1770.17 779.638 1767.56 778.01 1764.4 776.137 1760.64 775.227 1756.48 775.36 1752.28 775.232 1748.17 776.143 1744.09 778.01 1740.42 779.653 1737.3 782.164 1734.72 785.24 1733Z" fill="#FFFFFF" transform="translate(-521.25 -1493.2)"/><path d="M920.22 1710.24C904.021 1702.67 885.265 1702.86 869.22 1710.75 861.689 1714.57 855.378 1720.42 851 1727.64 846.556 1735.09 844.28 1743.63 844.43 1752.3 844.283 1761.01 846.632 1769.58 851.2 1777 855.816 1784.31 862.374 1790.2 870.14 1794 878.273 1798.15 887.8 1800.23 898.72 1800.23 907.6 1800.23 915.267 1798.95 921.72 1796.39 927.974 1793.99 933.583 1790.16 938.1 1785.21L921.04 1767.46C918.176 1769.99 914.92 1772.03 911.4 1773.52 907.667 1774.93 903.699 1775.61 899.71 1775.52 895.352 1775.64 891.027 1774.73 887.08 1772.88 883.671 1771.22 880.844 1768.57 878.97 1765.28 878.158 1763.83 877.524 1762.28 877.08 1760.68L944.25 1760.68C944.36 1759.42 944.47 1758.06 944.59 1756.58 944.71 1755.1 944.76 1753.79 944.76 1752.65 944.76 1742.42 942.54 1733.71 938.1 1726.54 933.82 1719.51 927.615 1713.85 920.22 1710.24ZM885.33 1730.24C891.666 1726.83 899.294 1726.83 905.63 1730.24 908.532 1731.94 910.898 1734.43 912.46 1737.41 913.467 1739.33 914.143 1741.41 914.46 1743.55L876.61 1743.55C876.974 1741.44 877.648 1739.4 878.61 1737.49 880.107 1734.49 882.441 1731.99 885.33 1730.29Z" fill="#FFFFFF" transform="translate(-521.25 -1493.2)"/><path d="M1099.49 1709C1086 1702.53 1070.16 1703.28 1057.34 1711 1053.87 1713.21 1050.78 1715.97 1048.19 1719.17 1046.14 1715.93 1043.45 1713.15 1040.28 1711 1033.79 1706.68 1026.14 1704.45 1018.35 1704.6 1011.43 1704.5 1004.6 1706.22 998.55 1709.6 995.638 1711.25 992.991 1713.32 990.7 1715.76L990.7 1706.1 959.81 1706.1 959.81 1798.59 992.24 1798.59 992.24 1752.68C992.093 1748.67 992.82 1744.69 994.37 1740.99 995.585 1738.21 997.605 1735.87 1000.17 1734.25 1002.73 1732.75 1005.65 1731.98 1008.62 1732.04 1013.06 1732.04 1016.5 1733.55 1018.94 1736.56 1021.38 1739.57 1022.6 1744.38 1022.61 1750.98L1022.61 1798.59 1055 1798.59 1055 1752.68C1054.84 1748.69 1055.53 1744.7 1057 1740.99 1058.18 1738.19 1060.21 1735.83 1062.81 1734.25 1065.34 1732.77 1068.23 1732.01 1071.17 1732.04 1075.1 1731.86 1078.89 1733.54 1081.41 1736.56 1083.91 1739.57 1085.16 1744.37 1085.16 1750.98L1085.16 1798.59 1117.59 1798.59 1117.59 1745.69C1117.59 1736.13 1115.97 1728.34 1112.72 1722.31 1109.78 1716.62 1105.16 1711.97 1099.49 1709Z" fill="#FFFFFF" transform="translate(-521.25 -1493.2)"/><path d="M1212.8 1710.75C1204.41 1706.6 1195.15 1704.53 1185.8 1704.69 1175.68 1704.69 1166.68 1706.71 1158.8 1710.75 1151.21 1714.55 1144.81 1720.37 1140.29 1727.56 1131.29 1742.86 1131.29 1761.83 1140.29 1777.13 1144.79 1784.38 1151.19 1790.26 1158.8 1794.13 1166.65 1798.23 1175.65 1800.28 1185.8 1800.28 1195.17 1800.44 1204.43 1798.33 1212.8 1794.13 1220.43 1790.29 1226.84 1784.41 1231.32 1777.13 1240.19 1761.8 1240.19 1742.89 1231.32 1727.56 1226.83 1720.34 1220.42 1714.52 1212.8 1710.75ZM1202.65 1764.33C1201.13 1767.48 1198.73 1770.12 1195.74 1771.93 1192.7 1773.67 1189.24 1774.56 1185.74 1774.49 1182.3 1774.54 1178.91 1773.66 1175.93 1771.93 1172.93 1770.11 1170.5 1767.47 1168.93 1764.33 1167.09 1760.6 1166.18 1756.49 1166.29 1752.33 1166.16 1748.22 1167.07 1744.14 1168.93 1740.47 1172.15 1734.19 1178.68 1730.31 1185.74 1730.47 1189.24 1730.4 1192.7 1731.28 1195.74 1733.03 1198.7 1734.8 1201.09 1737.37 1202.65 1740.45 1204.45 1744.14 1205.33 1748.21 1205.21 1752.31 1205.32 1756.46 1204.44 1760.58 1202.65 1764.33Z" fill="#FFFFFF" transform="translate(-521.25 -1493.2)"/><path d="M1321.67 1749C1318.33 1746.97 1314.71 1745.45 1310.92 1744.48 1307.07 1743.47 1303.17 1742.71 1299.23 1742.18 1295.36 1741.67 1291.8 1741.16 1288.57 1740.64 1285.88 1740.29 1283.26 1739.54 1280.8 1738.42 1279.07 1737.75 1277.92 1736.1 1277.9 1734.24 1277.9 1732.43 1279.01 1730.89 1281.23 1729.64 1283.45 1728.39 1287.29 1727.76 1292.75 1727.76 1297.12 1727.79 1301.48 1728.27 1305.75 1729.21 1310.55 1730.28 1315.16 1732.09 1319.4 1734.58L1329.13 1712.58C1323.88 1709.72 1318.21 1707.73 1312.32 1706.69 1305.83 1705.39 1299.23 1704.72 1292.61 1704.69 1282.94 1704.69 1274.75 1706.02 1268.03 1708.69 1261.31 1711.36 1256.22 1715 1252.76 1719.61 1249.31 1724.15 1247.48 1729.7 1247.56 1735.4 1247.56 1740.63 1248.53 1744.97 1250.46 1748.4 1252.31 1751.72 1254.98 1754.51 1258.22 1756.5 1261.55 1758.54 1265.18 1760.03 1268.97 1760.94 1272.9 1761.91 1276.79 1762.67 1280.66 1763.24 1284.53 1763.81 1288.08 1764.32 1291.33 1764.78 1294.02 1765.11 1296.66 1765.78 1299.18 1766.78 1301.18 1767.64 1302.18 1768.97 1302.18 1770.78 1302.18 1772.59 1301.13 1774.26 1299.03 1775.39 1296.93 1776.52 1293.14 1777.1 1287.68 1777.1 1281.91 1777.07 1276.18 1776.3 1270.61 1774.79 1265.28 1773.45 1260.17 1771.35 1255.43 1768.56L1245.7 1790.75C1250.25 1793.48 1256.25 1795.76 1263.7 1797.58 1271.23 1799.41 1278.95 1800.32 1286.7 1800.31 1296.7 1800.31 1305.09 1798.94 1311.87 1796.21 1318.65 1793.48 1323.77 1789.84 1327.22 1785.29 1330.64 1780.9 1332.47 1775.49 1332.43 1769.93 1332.43 1764.7 1331.46 1760.4 1329.53 1757.05 1327.64 1753.74 1324.93 1750.97 1321.67 1749Z" fill="#FFFFFF" transform="translate(-521.25 -1493.2)"/><path d="M1422.61 1691.38C1418.75 1686.6 1413.43 1682.99 1406.66 1680.54 1399.16 1677.98 1391.28 1676.74 1383.36 1676.88 1370.85 1676.88 1360.38 1679.18 1351.96 1683.79 1343.96 1688 1337.28 1694.35 1332.68 1702.13L1358.11 1715.78C1360.28 1712.05 1363.38 1708.95 1367.11 1706.78 1370.86 1704.6 1375.14 1703.48 1379.48 1703.54 1383.92 1703.54 1387.53 1704.51 1390.32 1706.44 1393.01 1708.2 1394.59 1711.23 1394.5 1714.44 1394.51 1716.57 1393.89 1718.66 1392.71 1720.44 1391.4 1722.39 1389.88 1724.2 1388.18 1725.82 1386.36 1727.58 1384.4 1729.4 1382.3 1731.28 1380.16 1733.18 1378.19 1735.27 1376.41 1737.51 1374.54 1739.87 1373.02 1742.48 1371.89 1745.27 1370.64 1748.45 1370.02 1751.85 1370.09 1755.27L1400.47 1755.27C1400.41 1752.79 1401.11 1750.35 1402.47 1748.27 1403.96 1746.07 1405.7 1744.06 1407.67 1742.27 1409.78 1740.34 1412.02 1738.34 1414.41 1736.27 1416.83 1734.14 1419.08 1731.82 1421.15 1729.35 1423.32 1726.74 1425.08 1723.8 1426.36 1720.65 1427.8 1716.95 1428.49 1713.01 1428.41 1709.05 1428.42 1702.05 1426.48 1696.16 1422.61 1691.38Z" fill="#FFFFFF" transform="translate(-521.25 -1493.2)"/><path d="M1385.24 1764.76C1380.16 1764.57 1375.21 1766.37 1371.42 1769.76 1367.85 1772.95 1365.86 1777.53 1365.96 1782.31 1365.92 1787.1 1367.9 1791.69 1371.42 1794.94 1375.13 1798.49 1380.11 1800.4 1385.24 1800.23 1391.04 1800.23 1395.73 1798.47 1399.32 1794.94 1402.8 1791.66 1404.75 1787.09 1404.7 1782.31 1404.8 1777.55 1402.84 1772.97 1399.32 1769.76 1395.77 1766.43 1391.08 1764.77 1385.24 1764.76Z" fill="#FFFFFF" transform="translate(-521.25 -1493.2)"/></svg>