<svg width="101.46" height="101.46" viewBox="0 0 101.46 101.46" xmlns="http://www.w3.org/2000/svg" xmlns:xlink="http://www.w3.org/1999/xlink" overflow="visible"><defs></defs><g><path d="M101.46 52.37C101.46 87.21 85.57 101.46 50.73 101.46 15.89 101.46 0 87.21 0 52.37 0 17.53 15.89 0 50.73 0 85.57 0 101.46 17.53 101.46 52.37" fill="#4A82AE"/><path d="M55.63 82.35 55.63 53.51 65.31 53.51 66.76 42.27 55.63 42.27 55.63 35.09C55.63 31.84 56.53 29.62 61.2 29.62L67.15 29.62 67.15 19.55C66.12 19.41 62.59 19.11 58.48 19.11 49.9 19.11 44.02 24.35 44.02 33.97L44.02 42.26 34.31 42.26 34.31 53.5 44.02 53.5 44.02 82.35 55.63 82.35Z" fill="#FFFFFF"/></g></svg>