<svg viewBox="0 0 907.17 307.06" xmlns="http://www.w3.org/2000/svg" xmlns:xlink="http://www.w3.org/1999/xlink" id="Capa_1" overflow="hidden"><path d="M131.69 1026.22C123.77 1026.35 115.886 1025.11 108.39 1022.55 101.623 1020.1 96.29 1016.52 92.39 1011.8 88.49 1007.08 86.5567 1001.31 86.59 994.48 86.4914 990.516 87.1709 986.572 88.59 982.87 89.8585 979.739 91.6171 976.829 93.8 974.25 95.8731 971.841 98.094 969.563 100.45 967.43 102.78 965.33 105.03 963.33 107.19 961.43 109.209 959.713 110.989 957.732 112.48 955.54 113.84 953.524 114.555 951.142 114.53 948.71L145 948.71C145.057 952.04 144.449 955.348 143.21 958.44 142.064 961.198 140.54 963.783 138.68 966.12 136.897 968.357 134.93 970.441 132.8 972.35 130.69 974.22 128.73 976.05 126.91 977.81 125.211 979.429 123.695 981.23 122.39 983.18 121.204 984.955 120.577 987.045 120.59 989.18 120.543 992.274 122.137 995.161 124.78 996.77 127.56 998.65 131.18 999.59 135.61 999.59 139.957 999.649 144.239 998.53 148 996.35 151.707 994.209 154.805 991.155 157 987.48L182.37 1001C177.763 1008.78 171.089 1015.13 163.09 1019.35 154.67 1023.93 144.203 1026.22 131.69 1026.22ZM129.81 939.22C124.123 939.22 119.457 937.513 115.81 934.1 112.274 930.931 110.283 926.387 110.35 921.64 110.266 916.817 112.254 912.189 115.81 908.93 119.45 905.457 124.117 903.72 129.81 903.72 135.503 903.72 140.14 905.457 143.72 908.93 147.226 912.217 149.177 916.835 149.09 921.64 149.159 926.369 147.205 930.903 143.72 934.1 140.127 937.493 135.49 939.19 129.81 939.19Z" fill="#FFFFFF" transform="translate(140.75 -868.2)"/><path d="M243.46 1000.11C234.432 1000.2 225.464 998.641 217 995.5 209.185 992.606 202.023 988.187 195.93 982.5 189.991 976.929 185.251 970.205 182 962.74 175.401 946.903 175.401 929.087 182 913.25 185.251 905.804 189.984 899.098 195.91 893.54 202.004 887.83 209.173 883.39 217 880.48 234.134 874.344 252.866 874.344 270 880.48 277.755 883.395 284.857 887.813 290.9 893.48 315.499 916.781 316.551 955.611 293.25 980.21 292.488 981.014 291.704 981.798 290.9 982.56 284.86 988.231 277.757 992.649 270 995.56 261.508 998.694 252.511 1000.24 243.46 1000.11ZM243.46 972.11C247.812 972.151 252.13 971.339 256.17 969.72 260.037 968.173 263.528 965.817 266.41 962.81 269.38 959.695 271.702 956.02 273.24 952 276.533 942.93 276.533 932.99 273.24 923.92 271.686 919.925 269.366 916.273 266.41 913.17 263.523 910.169 260.033 907.814 256.17 906.26 247.996 903.074 238.924 903.074 230.75 906.26 226.887 907.814 223.397 910.169 220.51 913.17 217.554 916.273 215.234 919.925 213.68 923.92 210.387 932.99 210.387 942.93 213.68 952 215.216 956.027 217.538 959.709 220.51 962.83 223.392 965.837 226.883 968.193 230.75 969.74 234.791 971.356 239.109 972.164 243.46 972.12ZM282.54 1026.55C277.716 1026.58 272.905 1026.04 268.21 1024.93 263.64 1023.8 259.246 1022.04 255.15 1019.72 250.379 1016.96 245.917 1013.71 241.84 1010 237.227 1005.9 232.08 1000.84 226.4 994.81L261.72 986C264.007 989.5 266.575 992.808 269.4 995.89 271.304 998.006 273.591 999.743 276.14 1001.01 278.358 1002.04 280.775 1002.56 283.22 1002.55 289.82 1002.55 295.85 999.763 301.31 994.19L315.99 1011.59C307.677 1021.56 296.527 1026.55 282.54 1026.56Z" fill="#FFFFFF" transform="translate(140.75 -868.2)"/><path d="M365 999.26C358.006 999.375 351.082 997.854 344.78 994.82 338.744 991.803 333.836 986.927 330.78 980.91 327.447 974.603 325.78 966.603 325.78 956.91L325.78 905.21 358.21 905.21 358.21 951.62C358.21 958.787 359.543 963.907 362.21 966.98 364.877 970.053 368.66 971.59 373.56 971.59 376.604 971.625 379.604 970.859 382.26 969.37 385.037 967.71 387.239 965.239 388.57 962.29 390.163 959.05 390.96 954.87 390.96 949.75L390.96 905.23 423.39 905.23 423.39 997.72 392.44 997.72 392.44 971.61 398.44 978.95C395.598 985.396 390.751 990.751 384.62 994.22 378.627 997.57 371.866 999.307 365 999.26Z" fill="#FFFFFF" transform="translate(140.75 -868.2)"/><path d="M492.61 999.26C481.69 999.26 472.16 997.183 464.02 993.03 456.252 989.217 449.695 983.321 445.08 976 440.535 968.588 438.197 960.034 438.34 951.34 438.195 942.669 440.47 934.13 444.91 926.68 449.28 919.471 455.572 913.622 463.08 909.79 479.125 901.901 497.881 901.714 514.08 909.28 521.481 912.876 527.699 918.515 532 925.53 536.433 932.703 538.65 941.407 538.65 951.64 538.65 952.78 538.59 954.09 538.48 955.57 538.37 957.05 538.25 958.41 538.14 959.67L465 959.67 465 942.6 521 942.6 508.71 947.38C508.913 943.6 508.117 939.834 506.4 936.46 504.841 933.48 502.479 930.996 499.58 929.29 493.24 925.876 485.61 925.876 479.27 929.29 476.366 931 474.023 933.519 472.53 936.54 470.873 939.965 470.053 943.736 470.14 947.54L470.14 952.54C470.031 956.643 471.003 960.702 472.96 964.31 474.83 967.604 477.654 970.253 481.06 971.91 485.007 973.761 489.332 974.665 493.69 974.55 497.679 974.637 501.647 973.958 505.38 972.55 508.901 971.067 512.157 969.02 515.02 966.49L532 984.24C527.481 989.186 521.873 993.014 515.62 995.42 509.153 997.98 501.483 999.26 492.61 999.26ZM471.79 894.13 494.66 868.2 527.08 868.2 495 894.13Z" fill="#FFFFFF" transform="translate(140.75 -868.2)"/><path d="M-80.51 1079.69C-73.7783 1079.58-67.1153 1081.06-61.06 1084-55.2115 1086.95-50.4138 1091.63-47.32 1097.4-43.9867 1103.4-42.32 1111.19-42.32 1120.78L-42.32 1173.68-74.71 1173.68-74.71 1126.07C-74.71 1119.47-76.0433 1114.66-78.71 1111.65-81.3767 1108.64-85.1033 1107.13-89.89 1107.13-93.1638 1107.09-96.3938 1107.88-99.28 1109.43-102.184 1111.03-104.51 1113.51-105.93 1116.51-107.53 1119.7-108.327 1123.86-108.32 1128.97L-108.32 1173.68-140.74 1173.68-140.74 1047.1-108.32 1047.1-108.32 1107.51-115.83 1099.83C-112.625 1093.45-107.567 1088.19-101.32 1084.73-94.9248 1081.31-87.7624 1079.57-80.51 1079.69Z" fill="#FFFFFF" transform="translate(140.75 -868.2)"/><path d="M7.2 1175.26C-0.2 1175.26-6.45667 1174.01-11.57 1171.5-16.3717 1169.28-20.4311 1165.73-23.26 1161.26-25.9435 1156.9-27.3309 1151.88-27.26 1146.76-27.3933 1141.51-25.8754 1136.34-22.92 1132-20.02 1127.84-15.5533 1124.65-9.52 1122.44-3.48667 1120.23 4.30333 1119.12 13.85 1119.11L35.7 1119.11 35.7 1136 18.29 1136C13.0633 1136 9.39667 1136.85 7.29 1138.56 3.53904 1141.72 3.05957 1147.32 6.21906 1151.07 6.56728 1151.49 6.95253 1151.87 7.37 1152.21 9.53 1153.91 12.49 1154.77 16.24 1154.77 19.6412 1154.81 22.9844 1153.89 25.89 1152.12 28.8895 1150.23 31.1492 1147.37 32.29 1144.02L36.72 1156C35.02 1162.37 31.6867 1167.17 26.72 1170.42 21.7533 1173.67 15.2467 1175.28 7.2 1175.26ZM34.5 1173.72 34.5 1156.48 32.29 1152.22 32.29 1120.48C32.29 1115.36 30.7233 1111.41 27.59 1108.62 24.4567 1105.83 19.48 1104.44 12.66 1104.44 8.08459 1104.46 3.53913 1105.18-0.82 1106.57-5.01336 1107.81-8.94467 1109.81-12.42 1112.46L-23.35 1090.46C-17.5405 1086.8-11.1688 1084.12-4.49 1082.53 2.67255 1080.67 10.0406 1079.73 17.44 1079.71 32.46 1079.71 44.0933 1083.15 52.34 1090.04 60.5867 1096.93 64.71 1107.7 64.71 1122.37L64.71 1173.74Z" fill="#FFFFFF" transform="translate(140.75 -868.2)"/><path d="M133.65 1175.26C124.159 1175.43 114.766 1173.32 106.26 1169.11 98.5327 1165.28 92.008 1159.4 87.4 1152.11 78.3074 1136.84 78.3074 1117.81 87.4 1102.54 92.0212 1095.31 98.5471 1089.49 106.26 1085.73 114.784 1081.58 124.17 1079.5 133.65 1079.67 144.11 1079.67 153.153 1081.89 160.78 1086.33 168.202 1090.52 173.936 1097.17 177 1105.12L151.92 1117.92C150.182 1114.08 147.412 1110.8 143.92 1108.45 140.808 1106.48 137.195 1105.44 133.51 1105.45 129.933 1105.4 126.404 1106.28 123.27 1108.01 120.186 1109.73 117.668 1112.31 116.02 1115.43 114.153 1119.1 113.242 1123.18 113.37 1127.29 113.237 1131.49 114.147 1135.65 116.02 1139.41 117.648 1142.57 120.169 1145.18 123.27 1146.92 126.406 1148.64 129.933 1149.52 133.51 1149.48 137.195 1149.49 140.808 1148.45 143.92 1146.48 147.41 1144.12 150.179 1140.85 151.92 1137.01L177 1149.81C173.931 1157.75 168.202 1164.39 160.79 1168.58 153.163 1173.03 144.117 1175.26 133.65 1175.26Z" fill="#FFFFFF" transform="translate(140.75 -868.2)"/><path d="M236.72 1175.26C225.8 1175.26 216.273 1173.18 208.14 1169.03 200.37 1165.22 193.812 1159.32 189.2 1152 184.647 1144.59 182.305 1136.04 182.45 1127.34 182.305 1118.67 184.58 1110.13 189.02 1102.68 193.391 1095.47 199.687 1089.62 207.2 1085.79 223.245 1077.9 242.001 1077.71 258.2 1085.28 265.608 1088.88 271.828 1094.54 276.12 1101.57 280.56 1108.74 282.78 1117.45 282.78 1127.68 282.78 1128.82 282.72 1130.13 282.61 1131.61 282.5 1133.09 282.38 1134.45 282.27 1135.71L209.08 1135.71 209.08 1118.6 265.08 1118.6 252.79 1123.38C253.002 1119.6 252.208 1115.83 250.49 1112.46 248.928 1109.48 246.562 1106.99 243.66 1105.29 237.324 1101.88 229.696 1101.88 223.36 1105.29 220.453 1107 218.107 1109.52 216.61 1112.54 214.956 1115.97 214.14 1119.74 214.23 1123.54L214.23 1128.54C214.118 1132.64 215.087 1136.7 217.04 1140.31 218.914 1143.6 221.741 1146.25 225.15 1147.91 229.097 1149.76 233.422 1150.67 237.78 1150.55 241.769 1150.64 245.737 1149.96 249.47 1148.55 252.99 1147.06 256.246 1145.02 259.11 1142.49L276.17 1160.24C271.653 1165.19 266.044 1169.02 259.79 1171.42 253.263 1173.98 245.573 1175.26 236.72 1175.26Z" fill="#FFFFFF" transform="translate(140.75 -868.2)"/><path d="M418.29 1079.69C424.947 1079.57 431.534 1081.06 437.49 1084.04 443.205 1087.02 447.854 1091.71 450.8 1097.44 454.04 1103.44 455.663 1111.23 455.67 1120.82L455.67 1173.72 423.24 1173.72 423.24 1126.11C423.24 1119.51 421.99 1114.7 419.49 1111.69 416.97 1108.67 413.182 1106.99 409.25 1107.17 406.315 1107.14 403.425 1107.9 400.89 1109.38 398.295 1110.96 396.262 1113.32 395.08 1116.12 393.606 1119.83 392.925 1123.82 393.08 1127.81L393.08 1173.72 360.61 1173.72 360.61 1126.11C360.61 1119.51 359.387 1114.7 356.94 1111.69 354.493 1108.68 351.053 1107.17 346.62 1107.17 343.653 1107.11 340.729 1107.88 338.17 1109.38 335.608 1111 333.588 1113.35 332.37 1116.12 330.82 1119.82 330.093 1123.8 330.24 1127.81L330.24 1173.72 297.81 1173.72 297.81 1081.23 328.7 1081.23 328.7 1107 322.56 1099.66C325.643 1093.41 330.516 1088.21 336.56 1084.73 342.605 1081.35 349.435 1079.63 356.36 1079.73 364.151 1079.58 371.803 1081.81 378.29 1086.13 384.603 1090.4 388.84 1097.02 391 1106.01L380.42 1103.79C383.508 1096.54 388.711 1090.38 395.35 1086.13 402.205 1081.79 410.179 1079.55 418.29 1079.69Z" fill="#FFFFFF" transform="translate(140.75 -868.2)"/><path d="M523.75 1175.26C513.63 1175.26 504.63 1173.21 496.75 1169.11 489.142 1165.24 482.738 1159.36 478.23 1152.11 464.543 1130.35 471.084 1101.62 492.84 1087.93 494.107 1087.14 495.412 1086.4 496.75 1085.73 504.597 1081.69 513.597 1079.67 523.75 1079.67 533.105 1079.51 542.363 1081.58 550.75 1085.73 566.588 1093.44 576.459 1109.69 576 1127.3 576.159 1136.04 573.855 1144.64 569.35 1152.13 564.875 1159.41 558.462 1165.29 550.83 1169.13 542.434 1173.34 533.14 1175.44 523.75 1175.26ZM523.75 1149.49C527.253 1149.56 530.709 1148.67 533.75 1146.93 536.743 1145.12 539.144 1142.48 540.66 1139.33 542.447 1135.59 543.324 1131.48 543.22 1127.33 543.342 1123.23 542.463 1119.16 540.66 1115.47 539.103 1112.39 536.708 1109.82 533.75 1108.05 530.711 1106.3 527.254 1105.42 523.75 1105.49 516.694 1105.33 510.165 1109.21 506.94 1115.49 505.081 1119.16 504.173 1123.24 504.3 1127.35 504.191 1131.51 505.097 1135.62 506.94 1139.35 508.509 1142.49 510.936 1145.13 513.94 1146.95 516.92 1148.67 520.31 1149.55 523.75 1149.49Z" fill="#FFFFFF" transform="translate(140.75 -868.2)"/><path d="M624.61 1175.26C616.862 1175.27 609.14 1174.36 601.61 1172.53 594.163 1170.71 588.163 1168.43 583.61 1165.7L593.34 1143.51C598.075 1146.3 603.188 1148.4 608.52 1149.74 614.086 1151.25 619.824 1152.02 625.59 1152.05 631.05 1152.05 634.833 1151.48 636.94 1150.34 639.047 1149.2 640.097 1147.66 640.09 1145.73 640.09 1143.91 639.09 1142.58 637.09 1141.73 634.569 1140.73 631.931 1140.06 629.24 1139.73 626 1139.28 622.443 1138.77 618.57 1138.19 614.697 1137.61 610.8 1136.84 606.88 1135.89 603.086 1134.98 599.458 1133.49 596.13 1131.45 592.89 1129.46 590.217 1126.67 588.37 1123.35 586.43 1119.93 585.463 1115.6 585.47 1110.35 585.395 1104.65 587.225 1099.1 590.67 1094.56 594.143 1089.96 599.233 1086.32 605.94 1083.64 612.647 1080.96 620.84 1079.63 630.52 1079.64 637.139 1079.67 643.74 1080.34 650.23 1081.64 656.115 1082.68 661.793 1084.67 667.04 1087.53L657.31 1109.53C653.067 1107.04 648.462 1105.23 643.66 1104.16 639.39 1103.22 635.032 1102.74 630.66 1102.71 625.2 1102.71 621.36 1103.34 619.14 1104.59 616.92 1105.84 615.81 1107.38 615.81 1109.19 615.826 1111.05 616.977 1112.7 618.71 1113.37 621.174 1114.49 623.794 1115.24 626.48 1115.59 629.72 1116.1 633.273 1116.62 637.14 1117.13 641.08 1117.66 644.984 1118.42 648.83 1119.43 652.616 1120.4 656.238 1121.92 659.58 1123.95 662.803 1125.92 665.476 1128.67 667.35 1131.95 669.277 1135.28 670.243 1139.58 670.25 1144.83 670.293 1150.39 668.457 1155.8 665.04 1160.19 661.567 1164.74 656.45 1168.38 649.69 1171.11 642.93 1173.84 634.57 1175.22 624.61 1175.26Z" fill="#FFFFFF" transform="translate(140.75 -868.2)"/><path d="M708.05 1130.2C707.985 1126.78 708.597 1123.38 709.85 1120.2 710.977 1117.41 712.499 1114.8 714.37 1112.44 716.151 1110.2 718.121 1108.11 720.26 1106.21 722.36 1104.33 724.32 1102.51 726.14 1100.75 727.84 1099.13 729.358 1097.32 730.67 1095.37 731.852 1093.59 732.475 1091.5 732.46 1089.37 732.553 1086.16 730.97 1083.13 728.28 1081.37 725.493 1079.43 721.88 1078.46 717.44 1078.47 713.1 1078.41 708.824 1079.53 705.07 1081.71 701.339 1083.88 698.237 1086.98 696.07 1090.71L670.64 1077.06C675.274 1069.29 681.977 1062.97 690 1058.79 698.42 1054.18 708.887 1051.88 721.4 1051.88 729.32 1051.74 737.203 1052.98 744.7 1055.54 751.467 1057.99 756.8 1061.61 760.7 1066.38 764.6 1071.15 766.537 1077.01 766.51 1083.96 766.608 1087.92 765.928 1091.86 764.51 1095.56 763.232 1098.71 761.475 1101.65 759.3 1104.26 757.231 1106.73 754.978 1109.05 752.56 1111.18 750.173 1113.28 747.927 1115.28 745.82 1117.18 743.853 1118.97 742.108 1120.98 740.62 1123.18 739.242 1125.25 738.527 1127.69 738.57 1130.18ZM723.24 1175.26C718.109 1175.43 713.127 1173.52 709.42 1169.97 705.901 1166.72 703.919 1162.13 703.96 1157.34 703.86 1152.56 705.855 1147.98 709.42 1144.79 713.205 1141.4 718.16 1139.6 723.24 1139.79 729.04 1139.79 733.733 1141.46 737.32 1144.79 740.84 1148 742.802 1152.58 742.7 1157.34 742.746 1162.12 740.796 1166.69 737.32 1169.97 733.773 1173.49 729.08 1175.25 723.24 1175.26Z" fill="#FFFFFF" transform="translate(140.75 -868.2)"/></svg>