<svg viewBox="0 0 682.94 307.06" xmlns="http://www.w3.org/2000/svg" xmlns:xlink="http://www.w3.org/1999/xlink" id="Capa_1" overflow="hidden"><style>
.MsftOfcThm_Background1_Fill_v2 {
 fill:#FFFFFF; 
}
</style>
<path d="M1695.94 989.48C1693.74 993.155 1690.65 996.208 1686.94 998.35 1683.19 1000.53 1678.91 1001.65 1674.57 1001.6 1670.14 1001.6 1666.57 1000.66 1663.74 998.78 1661.1 997.171 1659.5 994.284 1659.55 991.19 1659.54 989.055 1660.16 986.965 1661.35 985.19 1662.66 983.24 1664.17 981.439 1665.87 979.82 1667.69 978.06 1669.65 976.23 1671.76 974.36 1673.89 972.451 1675.86 970.367 1677.64 968.13 1679.5 965.793 1681.02 963.208 1682.17 960.45 1683.41 957.358 1684.02 954.05 1683.96 950.72L1653.58 950.72C1653.62 953.146 1652.92 955.528 1651.58 957.55 1650.09 959.742 1648.31 961.723 1646.29 963.44 1644.13 965.31 1641.88 967.31 1639.55 969.44 1637.19 971.573 1634.97 973.851 1632.9 976.26 1630.72 978.839 1628.96 981.749 1627.69 984.88 1626.27 988.582 1625.59 992.526 1625.69 996.49 1625.51 1002.77 1627.57 1008.91 1631.5 1013.81 1635.36 1018.53 1640.69 1022.11 1647.5 1024.56 1655 1027.12 1662.88 1028.36 1670.8 1028.23 1683.31 1028.23 1693.77 1025.93 1702.2 1021.32 1710.2 1017.1 1716.87 1010.75 1721.48 1002.97Z" class="MsftOfcThm_Background1_Fill_v2" fill="#FFFFFF" transform="translate(-1506.69 -870.2)"/><path d="M1668.81 941.19C1674.5 941.19 1679.14 939.483 1682.72 936.07 1686.21 932.873 1688.16 928.339 1688.09 923.61 1688.18 918.805 1686.23 914.187 1682.72 910.9 1679.13 907.427 1674.5 905.69 1668.81 905.69 1663.12 905.69 1658.46 907.427 1654.81 910.9 1651.25 914.159 1649.27 918.787 1649.35 923.61 1649.28 928.357 1651.27 932.901 1654.81 936.07 1658.46 939.483 1663.12 941.19 1668.81 941.19Z" class="MsftOfcThm_Background1_Fill_v2" fill="#FFFFFF" transform="translate(-1506.69 -870.2)"/><path d="M1734.94 984.45C1741.03 990.137 1748.19 994.556 1756.01 997.45 1760.37 999.093 1764.88 1000.29 1769.48 1001.03 1773.58 1005.22 1777.37 1008.86 1780.84 1011.96 1784.92 1015.67 1789.38 1018.92 1794.15 1021.68 1798.25 1024 1802.64 1025.76 1807.21 1026.89 1811.9 1028 1816.72 1028.54 1821.54 1028.51 1835.54 1028.51 1846.69 1023.51 1854.99 1013.51L1840.31 996.11C1834.85 1001.68 1828.82 1004.47 1822.22 1004.47 1819.78 1004.48 1817.36 1003.96 1815.14 1002.93 1812.59 1001.66 1810.3 999.926 1808.4 997.81L1808.31 997.71 1809 997.47C1816.76 994.559 1823.86 990.141 1829.9 984.47 1854.5 961.169 1855.55 922.339 1832.25 897.74 1831.49 896.935 1830.7 896.152 1829.9 895.39 1823.86 889.723 1816.75 885.305 1809 882.39 1791.87 876.254 1773.13 876.254 1756 882.39 1748.18 885.303 1741.02 889.742 1734.93 895.45 1728.99 901.032 1724.25 907.77 1721 915.25 1714.4 931.087 1714.4 948.903 1721 964.74 1724.26 972.188 1729 978.895 1734.94 984.45ZM1752.68 925.91C1754.23 921.915 1756.55 918.263 1759.51 915.16 1762.4 912.159 1765.89 909.804 1769.75 908.25 1777.92 905.064 1787 905.064 1795.17 908.25 1799.03 909.804 1802.52 912.159 1805.41 915.16 1808.37 918.263 1810.69 921.915 1812.24 925.91 1815.53 934.98 1815.53 944.92 1812.24 953.99 1810.7 958.017 1808.38 961.699 1805.41 964.82 1802.53 967.827 1799.04 970.183 1795.17 971.73 1787 974.916 1777.92 974.916 1769.75 971.73 1765.88 970.183 1762.39 967.827 1759.51 964.82 1756.54 961.699 1754.22 958.017 1752.68 953.99 1749.39 944.92 1749.39 934.98 1752.68 925.91Z" class="MsftOfcThm_Background1_Fill_v2" fill="#FFFFFF" transform="translate(-1506.69 -870.2)"/><path d="M1923.59 996.22C1926.52 994.588 1929.17 992.494 1931.44 990.02L1931.44 999.72 1962.33 999.72 1962.33 907.23 1929.9 907.23 1929.9 951.77C1929.9 956.89 1929.1 961.07 1927.51 964.31 1926.18 967.259 1923.98 969.73 1921.2 971.39 1918.54 972.879 1915.54 973.645 1912.5 973.61 1907.6 973.61 1903.82 972.073 1901.15 969 1898.48 965.927 1897.15 960.807 1897.15 953.64L1897.15 907.23 1864.72 907.23 1864.72 958.93C1864.72 968.61 1866.39 976.61 1869.72 982.93 1872.78 988.947 1877.68 993.823 1883.72 996.84 1890.02 999.873 1896.95 1001.39 1903.94 1001.28 1910.82 1001.33 1917.59 999.582 1923.59 996.22Z" class="MsftOfcThm_Background1_Fill_v2" fill="#FFFFFF" transform="translate(-1506.69 -870.2)"/><path d="M559.38 0 526.96 0 504.1 25.94 527.3 25.94 559.38 0Z" class="MsftOfcThm_Background1_Fill_v2" fill="#FFFFFF"/><path d="M2054.64 997.42C2060.89 995.012 2066.49 991.185 2071 986.24L2054 968.49C2051.14 971.02 2047.88 973.067 2044.36 974.55 2040.63 975.958 2036.66 976.637 2032.67 976.55 2028.31 976.665 2023.99 975.761 2020.04 973.91 2016.63 972.253 2013.81 969.604 2011.94 966.31 2011.12 964.86 2010.49 963.315 2010.05 961.71L2077.21 961.71C2077.32 960.45 2077.44 959.09 2077.55 957.61 2077.66 956.13 2077.72 954.82 2077.72 953.68 2077.72 943.447 2075.5 934.743 2071.07 927.57 2066.78 920.54 2060.56 914.887 2053.15 911.28 2036.95 903.714 2018.19 903.901 2002.15 911.79 1994.64 915.622 1988.35 921.471 1983.98 928.68 1979.54 936.13 1977.27 944.669 1977.41 953.34 1977.27 962.034 1979.6 970.588 1984.15 978 1988.74 985.297 1995.27 991.181 2003 995 2011.14 999.147 2020.67 1001.22 2031.59 1001.23 2040.48 1001.25 2048.16 999.98 2054.64 997.42ZM2018.21 931.29C2024.55 927.876 2032.18 927.876 2038.52 931.29 2041.42 932.996 2043.78 935.48 2045.34 938.46 2046.35 940.378 2047.03 942.454 2047.34 944.6L2009.5 944.6C2009.86 942.492 2010.54 940.45 2011.5 938.54 2012.99 935.523 2015.32 933.004 2018.21 931.29Z" class="MsftOfcThm_Background1_Fill_v2" fill="#FFFFFF" transform="translate(-1506.69 -870.2)"/><path d="M1582.72 1126C1579.38 1123.98 1575.75 1122.45 1571.97 1121.48 1568.12 1120.48 1564.22 1119.71 1560.28 1119.18 1556.41 1118.67 1552.86 1118.16 1549.61 1117.64 1546.93 1117.29 1544.31 1116.55 1541.85 1115.42 1540.11 1114.76 1538.96 1113.1 1538.95 1111.24 1538.95 1109.43 1540.06 1107.89 1542.27 1106.64 1544.48 1105.39 1548.33 1104.76 1553.79 1104.76 1558.16 1104.79 1562.52 1105.27 1566.79 1106.21 1571.59 1107.28 1576.2 1109.09 1580.45 1111.58L1590.17 1089.58C1584.92 1086.72 1579.25 1084.73 1573.36 1083.69 1566.87 1082.39 1560.27 1081.72 1553.65 1081.69 1543.98 1081.69 1535.79 1083.02 1529.08 1085.69 1522.37 1088.36 1517.28 1092 1513.81 1096.61 1510.36 1101.14 1508.52 1106.7 1508.6 1112.4 1508.6 1117.63 1509.57 1121.97 1511.5 1125.4 1513.35 1128.72 1516.03 1131.51 1519.27 1133.5 1522.6 1135.54 1526.22 1137.04 1530.02 1137.94 1533.94 1138.91 1537.84 1139.67 1541.71 1140.24 1545.58 1140.81 1549.14 1141.32 1552.37 1141.78 1555.06 1142.11 1557.7 1142.78 1560.22 1143.78 1562.22 1144.64 1563.22 1145.97 1563.22 1147.78 1563.22 1149.59 1562.22 1151.26 1560.06 1152.39 1557.9 1153.52 1554.17 1154.1 1548.71 1154.1 1542.95 1154.07 1537.21 1153.3 1531.65 1151.79 1526.31 1150.45 1521.2 1148.35 1516.46 1145.56L1506.73 1167.75C1511.28 1170.48 1517.28 1172.76 1524.73 1174.58 1532.26 1176.41 1539.98 1177.32 1547.73 1177.31 1557.73 1177.31 1566.12 1175.94 1572.9 1173.21 1579.68 1170.48 1584.8 1166.84 1588.26 1162.29 1591.67 1157.9 1593.51 1152.49 1593.46 1146.93 1593.46 1141.7 1592.49 1137.4 1590.56 1134.05 1588.67 1130.74 1585.98 1127.97 1582.72 1126Z" class="MsftOfcThm_Background1_Fill_v2" fill="#FFFFFF" transform="translate(-1506.69 -870.2)"/><path d="M1680.84 1087.75C1672.45 1083.6 1663.19 1081.53 1653.84 1081.69 1643.72 1081.69 1634.72 1083.71 1626.84 1087.75 1619.25 1091.55 1612.85 1097.37 1608.33 1104.56 1599.33 1119.86 1599.33 1138.83 1608.33 1154.13 1612.83 1161.38 1619.23 1167.26 1626.84 1171.13 1634.69 1175.23 1643.69 1177.28 1653.84 1177.28 1663.2 1177.44 1672.47 1175.33 1680.84 1171.13 1688.47 1167.29 1694.88 1161.41 1699.36 1154.13 1708.23 1138.8 1708.23 1119.89 1699.36 1104.56 1694.87 1097.34 1688.46 1091.52 1680.84 1087.75ZM1670.69 1141.33C1669.17 1144.48 1666.77 1147.12 1663.78 1148.93 1660.74 1150.67 1657.28 1151.56 1653.78 1151.49 1650.34 1151.54 1646.95 1150.66 1643.97 1148.93 1640.97 1147.11 1638.54 1144.47 1636.97 1141.33 1635.13 1137.6 1634.22 1133.49 1634.33 1129.33 1634.2 1125.22 1635.11 1121.14 1636.97 1117.47 1640.19 1111.19 1646.72 1107.31 1653.78 1107.47 1657.28 1107.4 1660.74 1108.28 1663.78 1110.03 1666.74 1111.8 1669.13 1114.37 1670.69 1117.45 1672.49 1121.14 1673.37 1125.21 1673.25 1129.31 1673.36 1133.46 1672.48 1137.58 1670.69 1141.33Z" class="MsftOfcThm_Background1_Fill_v2" fill="#FFFFFF" transform="translate(-1506.69 -870.2)"/><path d="M1860.71 1086C1847.22 1079.53 1831.37 1080.28 1818.55 1088 1815.08 1090.22 1811.99 1092.97 1809.4 1096.17 1807.36 1092.93 1804.66 1090.15 1801.49 1088 1795 1083.68 1787.35 1081.45 1779.56 1081.6 1772.64 1081.5 1765.81 1083.22 1759.77 1086.6 1756.86 1088.24 1754.21 1090.32 1751.92 1092.76L1751.92 1083.1 1721 1083.1 1721 1175.59 1753.42 1175.59 1753.42 1129.68C1753.27 1125.67 1754 1121.69 1755.55 1117.99 1756.77 1115.21 1758.79 1112.87 1761.36 1111.25 1763.92 1109.75 1766.84 1108.98 1769.8 1109.04 1774.24 1109.04 1777.68 1110.55 1780.13 1113.56 1782.58 1116.57 1783.8 1121.38 1783.8 1127.98L1783.8 1175.59 1816.22 1175.59 1816.22 1129.68C1816.06 1125.69 1816.74 1121.7 1818.22 1117.99 1819.4 1115.19 1821.43 1112.83 1824.02 1111.25 1826.55 1109.77 1829.44 1109.01 1832.38 1109.04 1836.31 1108.86 1840.1 1110.53 1842.62 1113.56 1845.12 1116.57 1846.37 1121.37 1846.38 1127.98L1846.38 1175.59 1878.8 1175.59 1878.8 1122.69C1878.8 1113.13 1877.18 1105.34 1873.94 1099.31 1871 1093.62 1866.38 1088.98 1860.71 1086Z" class="MsftOfcThm_Background1_Fill_v2" fill="#FFFFFF" transform="translate(-1506.69 -870.2)"/><path d="M1974 1087.75C1965.61 1083.6 1956.35 1081.53 1947 1081.69 1936.87 1081.69 1927.87 1083.71 1920 1087.75 1912.41 1091.55 1906.01 1097.37 1901.49 1104.56 1892.5 1119.86 1892.5 1138.83 1901.49 1154.13 1905.99 1161.38 1912.39 1167.26 1920 1171.13 1927.85 1175.23 1936.85 1177.28 1947 1177.28 1956.36 1177.44 1965.63 1175.33 1974 1171.13 1997.02 1159.55 2006.29 1131.49 1994.71 1108.48 1990.2 1099.53 1982.94 1092.27 1974 1087.77ZM1963.84 1141.33C1962.32 1144.48 1959.92 1147.12 1956.93 1148.93 1953.89 1150.67 1950.43 1151.56 1946.93 1151.49 1943.49 1151.54 1940.09 1150.65 1937.11 1148.93 1934.1 1147.11 1931.68 1144.48 1930.11 1141.33 1928.26 1137.61 1927.35 1133.49 1927.46 1129.33 1927.33 1125.22 1928.24 1121.14 1930.11 1117.47 1931.71 1114.4 1934.14 1111.83 1937.11 1110.05 1940.09 1108.32 1943.49 1107.44 1946.93 1107.49 1950.43 1107.42 1953.89 1108.3 1956.93 1110.05 1959.89 1111.82 1962.28 1114.39 1963.84 1117.47 1965.65 1121.16 1966.53 1125.23 1966.4 1129.33 1966.52 1133.47 1965.65 1137.59 1963.86 1141.33Z" class="MsftOfcThm_Background1_Fill_v2" fill="#FFFFFF" transform="translate(-1506.69 -870.2)"/><path d="M2082.89 1126C2079.55 1123.98 2075.92 1122.46 2072.14 1121.48 2068.29 1120.48 2064.39 1119.71 2060.45 1119.18 2056.58 1118.67 2053.03 1118.16 2049.78 1117.64 2047.1 1117.29 2044.48 1116.55 2042.02 1115.42 2040.28 1114.76 2039.13 1113.1 2039.12 1111.24 2039.12 1109.43 2040.22 1107.89 2042.44 1106.64 2044.66 1105.39 2048.5 1104.76 2053.96 1104.76 2058.33 1104.79 2062.69 1105.27 2066.96 1106.21 2071.76 1107.28 2076.37 1109.09 2080.61 1111.58L2090.34 1089.58C2085.09 1086.72 2079.42 1084.73 2073.53 1083.69 2067.04 1082.39 2060.44 1081.72 2053.82 1081.69 2044.15 1081.69 2035.96 1083.02 2029.25 1085.69 2022.54 1088.36 2017.46 1092 2014 1096.62 2010.55 1101.15 2008.71 1106.71 2008.79 1112.41 2008.79 1117.64 2009.76 1121.98 2011.69 1125.41 2013.54 1128.73 2016.21 1131.53 2019.46 1133.51 2022.79 1135.55 2026.41 1137.05 2030.21 1137.95 2034.13 1138.92 2038.03 1139.68 2041.9 1140.25 2045.77 1140.82 2049.33 1141.33 2052.56 1141.79 2055.25 1142.12 2057.89 1142.79 2060.41 1143.79 2062.41 1144.65 2063.41 1145.98 2063.41 1147.79 2063.41 1149.6 2062.35 1151.27 2060.25 1152.4 2058.15 1153.53 2054.36 1154.11 2048.9 1154.11 2043.14 1154.08 2037.4 1153.31 2031.84 1151.8 2026.5 1150.46 2021.39 1148.36 2016.65 1145.57L2006.92 1167.76C2011.47 1170.49 2017.47 1172.77 2024.92 1174.59 2032.45 1176.42 2040.17 1177.33 2047.92 1177.32 2057.92 1177.32 2066.31 1175.95 2073.09 1173.22 2079.87 1170.49 2084.99 1166.85 2088.45 1162.3 2091.86 1157.91 2093.7 1152.5 2093.65 1146.94 2093.65 1141.71 2092.68 1137.41 2090.75 1134.06 2088.86 1130.75 2086.15 1127.97 2082.89 1126Z" class="MsftOfcThm_Background1_Fill_v2" fill="#FFFFFF" transform="translate(-1506.69 -870.2)"/><path d="M2183.83 1068.38C2179.6 1063.36 2174.06 1059.6 2167.83 1057.54 2160.34 1054.98 2152.46 1053.74 2144.54 1053.88 2132.02 1053.88 2121.55 1056.18 2113.14 1060.79 2105.14 1064.99 2098.46 1071.35 2093.86 1079.13L2119.28 1092.78C2121.45 1089.05 2124.55 1085.95 2128.28 1083.78 2132.04 1081.6 2136.31 1080.48 2140.65 1080.54 2145.09 1080.54 2148.7 1081.51 2151.49 1083.44 2154.18 1085.19 2155.77 1088.23 2155.67 1091.44 2155.68 1093.57 2155.06 1095.66 2153.88 1097.44 2152.57 1099.39 2151.05 1101.19 2149.36 1102.82 2147.54 1104.58 2145.57 1106.4 2143.47 1108.28 2141.33 1110.18 2139.36 1112.27 2137.58 1114.51 2135.71 1116.87 2134.19 1119.48 2133.06 1122.27 2131.81 1125.45 2131.21 1128.85 2131.27 1132.27L2161.64 1132.27C2161.6 1129.78 2162.32 1127.34 2163.69 1125.27 2165.18 1123.07 2166.93 1121.06 2168.9 1119.27 2171 1117.34 2173.25 1115.34 2175.64 1113.27 2178.06 1111.13 2180.31 1108.82 2182.38 1106.35 2184.55 1103.74 2186.31 1100.8 2187.58 1097.65 2189.02 1093.96 2189.72 1090.01 2189.63 1086.05 2189.63 1079.05 2187.7 1073.16 2183.83 1068.38Z" class="MsftOfcThm_Background1_Fill_v2" fill="#FFFFFF" transform="translate(-1506.69 -870.2)"/><path d="M2146.46 1141.76C2141.38 1141.57 2136.42 1143.36 2132.63 1146.76 2129.06 1149.95 2127.07 1154.53 2127.17 1159.31 2127.13 1164.1 2129.11 1168.69 2132.63 1171.94 2136.34 1175.49 2141.33 1177.4 2146.46 1177.23 2152.26 1177.23 2156.95 1175.47 2160.53 1171.94 2164.01 1168.67 2165.96 1164.09 2165.91 1159.31 2166.02 1154.55 2164.05 1149.97 2160.53 1146.76 2156.95 1143.43 2152.26 1141.77 2146.46 1141.76Z" class="MsftOfcThm_Background1_Fill_v2" fill="#FFFFFF" transform="translate(-1506.69 -870.2)"/></svg>