<svg viewBox="0 0 651.33 365.62" xmlns="http://www.w3.org/2000/svg" xmlns:xlink="http://www.w3.org/1999/xlink" overflow="hidden"><defs></defs><g><g id="OBJECTS"><g opacity="0.5"><path d="M145 418.33 166.49 413.05C167.377 412.801 167.911 411.897 167.7 411L131 261.44C130.785 260.526 129.87 259.959 128.956 260.174 128.948 260.176 128.939 260.178 128.93 260.18L107.44 265.45C106.522 265.681 105.963 266.611 106.19 267.53L142.92 417.07C143.14 417.988 144.063 418.555 144.981 418.335 144.988 418.333 144.994 418.332 145 418.33Z" fill="#B5BFE2" transform="translate(-49.33 -74.63)"/><path d="M141.14 410 141.5 411.44 149.06 409.58C149.465 409.524 149.748 409.15 149.692 408.746 149.636 408.341 149.262 408.058 148.857 408.114 148.807 408.121 148.758 408.133 148.71 408.15Z" fill="#CCD5ED" transform="translate(-49.33 -74.63)"/><path d="M142.26 414.51 142.61 415.95 150.18 414.09C150.578 413.991 150.819 413.588 150.72 413.19 150.621 412.792 150.218 412.551 149.82 412.65Z" fill="#CCD5ED" transform="translate(-49.33 -74.63)"/><path d="M106.59 269.32 106.95 270.75 114.51 268.89C114.915 268.834 115.198 268.46 115.142 268.056 115.086 267.651 114.712 267.368 114.307 267.424 114.257 267.431 114.208 267.443 114.16 267.46Z" fill="#CCD5ED" transform="translate(-49.33 -74.63)"/><path d="M107.71 273.85 108.06 275.29 115.63 273.43C116.027 273.332 116.269 272.931 116.171 272.534 116.171 272.533 116.17 272.531 116.17 272.53 116.074 272.139 115.678 271.899 115.287 271.996 115.281 271.997 115.276 271.999 115.27 272Z" fill="#CCD5ED" transform="translate(-49.33 -74.63)"/><path d="M108.82 278.39 109.18 279.83 116.74 277.97C117.138 277.873 117.382 277.473 117.285 277.075 117.188 276.677 116.788 276.433 116.39 276.53Z" fill="#CCD5ED" transform="translate(-49.33 -74.63)"/><path d="M109.94 282.93 110.29 284.36 117.85 282.51C118.248 282.417 118.495 282.019 118.403 281.621 118.402 281.618 118.401 281.614 118.4 281.61 118.297 281.215 117.897 280.975 117.5 281.07Z" fill="#CCD5ED" transform="translate(-49.33 -74.63)"/><path d="M111.05 287.47 111.4 288.9 119 287C119.397 286.902 119.639 286.501 119.541 286.104 119.541 286.103 119.54 286.101 119.54 286.1 119.442 285.709 119.046 285.471 118.655 285.569 118.653 285.569 118.652 285.57 118.65 285.57Z" fill="#CCD5ED" transform="translate(-49.33 -74.63)"/><path d="M112.17 292 112.52 293.44 120.08 291.58C120.485 291.524 120.768 291.15 120.712 290.746 120.656 290.341 120.282 290.058 119.877 290.114 119.827 290.121 119.778 290.133 119.73 290.15Z" fill="#CCD5ED" transform="translate(-49.33 -74.63)"/><path d="M113.28 296.54 113.63 297.98 121.2 296.12C121.598 296.023 121.842 295.623 121.745 295.225 121.648 294.827 121.248 294.583 120.85 294.68Z" fill="#CCD5ED" transform="translate(-49.33 -74.63)"/><path d="M114.4 301.08 114.75 302.51 122.31 300.66C122.712 300.562 122.959 300.156 122.861 299.754 122.861 299.752 122.86 299.751 122.86 299.75 122.757 299.356 122.355 299.119 121.96 299.22Z" fill="#CCD5ED" transform="translate(-49.33 -74.63)"/><path d="M115.51 305.62 115.86 307.05 123.43 305.19C123.827 305.092 124.069 304.691 123.971 304.294 123.971 304.293 123.97 304.291 123.97 304.29 123.874 303.899 123.478 303.659 123.087 303.756 123.081 303.757 123.076 303.759 123.07 303.76Z" fill="#CCD5ED" transform="translate(-49.33 -74.63)"/><path d="M116.63 310.15 116.98 311.59 124.54 309.73C124.945 309.674 125.228 309.3 125.172 308.896 125.116 308.491 124.742 308.208 124.337 308.264 124.287 308.271 124.238 308.283 124.19 308.3Z" fill="#CCD5ED" transform="translate(-49.33 -74.63)"/><path d="M117.74 314.69 118.09 316.13 125.66 314.27C126.058 314.171 126.299 313.768 126.2 313.37 126.101 312.972 125.698 312.731 125.3 312.83Z" fill="#CCD5ED" transform="translate(-49.33 -74.63)"/><path d="M118.85 319.23 119.21 320.66 126.77 318.8C127.175 318.744 127.458 318.37 127.402 317.966 127.346 317.561 126.972 317.278 126.567 317.334 126.517 317.341 126.468 317.353 126.42 317.37Z" fill="#CCD5ED" transform="translate(-49.33 -74.63)"/><path d="M120 323.77 120.35 325.2 127.92 323.34C128.323 323.274 128.597 322.894 128.532 322.491 128.466 322.087 128.086 321.814 127.682 321.879 127.641 321.886 127.6 321.896 127.56 321.91Z" fill="#CCD5ED" transform="translate(-49.33 -74.63)"/><path d="M121.08 328.3 121.44 329.74 129 327.88C129.398 327.783 129.642 327.383 129.545 326.985 129.448 326.587 129.048 326.343 128.65 326.44Z" fill="#CCD5ED" transform="translate(-49.33 -74.63)"/><path d="M122.2 332.84 122.55 334.27 130.11 332.42C130.508 332.327 130.755 331.929 130.663 331.531 130.662 331.528 130.661 331.524 130.66 331.52 130.557 331.125 130.157 330.885 129.76 330.98Z" fill="#CCD5ED" transform="translate(-49.33 -74.63)"/><path d="M123.31 337.38 123.66 338.81 131.23 336.95C131.623 336.859 131.867 336.467 131.776 336.074 131.774 336.066 131.772 336.058 131.77 336.05 131.672 335.659 131.276 335.421 130.885 335.519 130.883 335.519 130.882 335.52 130.88 335.52Z" fill="#CCD5ED" transform="translate(-49.33 -74.63)"/><path d="M124.43 341.91 124.78 343.35 132.34 341.49C132.745 341.434 133.028 341.06 132.972 340.656 132.916 340.251 132.542 339.968 132.137 340.024 132.087 340.031 132.038 340.043 131.99 340.06Z" fill="#CCD5ED" transform="translate(-49.33 -74.63)"/><path d="M125.54 346.45 125.89 347.89 133.46 346.03C133.858 345.933 134.102 345.533 134.005 345.135 133.908 344.737 133.508 344.493 133.11 344.59Z" fill="#CCD5ED" transform="translate(-49.33 -74.63)"/><path d="M126.66 351 127.01 352.43 134.57 350.58C134.972 350.482 135.219 350.076 135.121 349.674 135.121 349.672 135.12 349.671 135.12 349.67 135.017 349.276 134.615 349.039 134.22 349.14Z" fill="#CCD5ED" transform="translate(-49.33 -74.63)"/><path d="M127.77 355.53 128.12 356.96 135.69 355.1C136.087 355.002 136.329 354.601 136.231 354.204 136.231 354.203 136.23 354.201 136.23 354.2 136.134 353.809 135.738 353.569 135.347 353.666 135.341 353.667 135.336 353.669 135.33 353.67Z" fill="#CCD5ED" transform="translate(-49.33 -74.63)"/><path d="M128.88 360.06 129.24 361.5 136.8 359.64C137.205 359.584 137.488 359.21 137.432 358.806 137.376 358.401 137.002 358.118 136.597 358.174 136.547 358.181 136.498 358.193 136.45 358.21Z" fill="#CCD5ED" transform="translate(-49.33 -74.63)"/><path d="M130 364.6 130.35 366.04 137.92 364.18C138.318 364.081 138.559 363.678 138.46 363.28 138.361 362.882 137.958 362.641 137.56 362.74Z" fill="#CCD5ED" transform="translate(-49.33 -74.63)"/><path d="M131.11 369.14 131.47 370.57 139.03 368.71C139.435 368.654 139.718 368.28 139.662 367.876 139.606 367.471 139.232 367.188 138.827 367.244 138.777 367.251 138.728 367.263 138.68 367.28Z" fill="#CCD5ED" transform="translate(-49.33 -74.63)"/><path d="M132.23 373.68 132.58 375.11 140.15 373.25C140.553 373.184 140.827 372.804 140.762 372.401 140.696 371.997 140.316 371.724 139.912 371.789 139.871 371.796 139.83 371.806 139.79 371.82Z" fill="#CCD5ED" transform="translate(-49.33 -74.63)"/><path d="M133.34 378.21 133.7 379.65 141.26 377.79C141.658 377.693 141.902 377.293 141.805 376.895 141.708 376.497 141.308 376.253 140.91 376.35Z" fill="#CCD5ED" transform="translate(-49.33 -74.63)"/><path d="M134.46 382.75 134.81 384.18 142.37 382.33C142.768 382.237 143.015 381.839 142.923 381.441 142.922 381.438 142.921 381.434 142.92 381.43 142.817 381.035 142.417 380.795 142.02 380.89Z" fill="#CCD5ED" transform="translate(-49.33 -74.63)"/><path d="M135.57 387.29 135.92 388.72 143.49 386.86C143.895 386.804 144.178 386.43 144.122 386.026 144.066 385.621 143.692 385.338 143.287 385.394 143.237 385.401 143.188 385.413 143.14 385.43Z" fill="#CCD5ED" transform="translate(-49.33 -74.63)"/><path d="M136.69 391.82 137.04 393.26 144.6 391.4C145.005 391.344 145.288 390.97 145.232 390.566 145.176 390.161 144.802 389.878 144.397 389.934 144.347 389.941 144.298 389.953 144.25 389.97Z" fill="#CCD5ED" transform="translate(-49.33 -74.63)"/><path d="M137.8 396.36 138.15 397.8 145.72 395.94C146.118 395.843 146.362 395.443 146.265 395.045 146.168 394.647 145.768 394.403 145.37 394.5Z" fill="#CCD5ED" transform="translate(-49.33 -74.63)"/><path d="M138.92 400.9 139.27 402.33 146.83 400.48C147.228 400.383 147.472 399.983 147.375 399.585 147.278 399.187 146.878 398.943 146.48 399.04Z" fill="#CCD5ED" transform="translate(-49.33 -74.63)"/><path d="M140 405.44 140.35 406.87 148 405C148.397 404.902 148.639 404.501 148.541 404.104 148.541 404.103 148.54 404.101 148.54 404.1 148.444 403.709 148.048 403.469 147.657 403.566 147.651 403.567 147.646 403.569 147.64 403.57Z" fill="#CCD5ED" transform="translate(-49.33 -74.63)"/><path d="M194.34 291.46 194.34 291.46C197.852 292.273 200.04 295.778 199.23 299.29L198.34 303.18 185.61 300.25 186.51 296.36C187.318 292.845 190.823 290.651 194.337 291.459 194.338 291.46 194.339 291.46 194.34 291.46Z" fill="#EEF2FF" transform="translate(-49.33 -74.63)"/><path d="M198.34 303.18 174.43 407.07C173.772 410 172.765 412.84 171.43 415.53 169.512 419.56 167.165 423.372 164.43 426.9L163.53 430.81C163.386 431.431 162.766 431.819 162.145 431.675 161.524 431.531 161.136 430.911 161.28 430.29L162.18 426.38C161.18 422.55 160.88 417.06 160.82 413.09 160.797 410.078 161.132 407.073 161.82 404.14L185.72 300.25Z" fill="#EEF2FF" transform="translate(-49.33 -74.63)"/><path d="M172.72 409.26 172.72 409.26C169.133 409.621 165.933 407.007 165.57 403.42L165.17 399.42 178.17 398.11 178.57 402.11C178.925 405.699 176.308 408.897 172.72 409.26Z" fill="#5B9BA7" transform="translate(-49.33 -74.63)"/><path d="M157.22 401.67 146.48 295.61C146.177 292.614 146.231 289.593 146.64 286.61 147.094 283.238 147.762 279.897 148.64 276.61 149.276 274.424 149.493 272.137 149.28 269.87L149.28 269.59C149.204 268.965 149.649 268.397 150.274 268.321 150.276 268.32 150.278 268.32 150.28 268.32 150.903 268.26 151.462 268.701 151.55 269.32L151.55 269.61C151.801 271.874 152.48 274.069 153.55 276.08 155.074 279.119 156.393 282.256 157.5 285.47 158.515 288.306 159.186 291.254 159.5 294.25L170.2 400.36Z" fill="#CBD3F4" transform="translate(-49.33 -74.63)"/><path d="M153.81 402.07 168.4 296.47C168.816 293.49 169.585 290.569 170.69 287.77 171.916 284.599 173.349 281.513 174.98 278.53 176.115 276.556 176.865 274.384 177.19 272.13L177.19 271.85C177.33 271.225 177.951 270.832 178.576 270.972 179.13 271.096 179.512 271.603 179.48 272.17L179.48 272.45C179.187 274.708 179.323 277.002 179.88 279.21 180.638 282.521 181.179 285.878 181.5 289.26 181.807 292.256 181.753 295.277 181.34 298.26L166.74 403.85Z" fill="#B5BFE2" transform="translate(-49.33 -74.63)"/><path d="M143.06 288.94C146.659 288.729 149.75 291.471 149.97 295.07L156 395C156.182 398.011 156.001 401.033 155.46 404 154.753 408.412 153.569 412.734 151.93 416.89L152.17 420.89C152.164 421.531 151.639 422.045 150.999 422.038 150.421 422.033 149.935 421.603 149.86 421.03L149.62 417.03C147.493 413.106 145.799 408.961 144.57 404.67 143.683 401.792 143.146 398.817 142.97 395.81L136.97 295.92C136.748 292.326 139.482 289.233 143.076 289.011 143.081 289.011 143.085 289.01 143.09 289.01Z" fill="#EEF2FF" transform="translate(-49.33 -74.63)"/><path d="M138.7 440 178.29 440C182.405 439.998 185.832 436.841 186.17 432.74L193.47 344.25C193.586 342.88 192.569 341.675 191.199 341.559 191.129 341.553 191.06 341.55 190.99 341.55L126 341.55C124.619 341.557 123.505 342.681 123.512 344.062 123.512 344.125 123.515 344.187 123.52 344.25L130.83 432.74C131.168 436.838 134.589 439.993 138.7 440Z" fill="#DEE3FC" transform="translate(-49.33 -74.63)"/></g><path d="M165.07 169.06 218.13 169.06C221.532 169.06 224.29 171.818 224.29 175.22L224.29 187.75C224.29 190.85 221.985 193.467 218.91 193.86 218.466 193.915 218.132 194.292 218.13 194.74L218.13 201.6C218.128 201.826 217.943 202.009 217.717 202.007 217.588 202.006 217.467 201.944 217.39 201.84L211.99 194.28C211.819 194.048 211.548 193.911 211.26 193.91L165.07 193.91C161.668 193.91 158.91 191.152 158.91 187.75L158.91 175.22C158.91 171.818 161.668 169.06 165.07 169.06Z" stroke="#FFFFFF" stroke-width="0.9" stroke-miterlimit="10" fill="none" transform="translate(-49.33 -74.63)"/><path d="M210 181.47C210 182.575 210.895 183.47 212 183.47 213.105 183.47 214 182.575 214 181.47 214 180.365 213.105 179.47 212 179.47 210.895 179.47 210 180.365 210 181.47Z" stroke="#FFFFFF" stroke-width="0.9" stroke-miterlimit="10" fill="none" transform="translate(-49.33 -74.63)"/><path d="M199.78 181.47C199.78 182.575 200.675 183.47 201.78 183.47 202.885 183.47 203.78 182.575 203.78 181.47 203.78 180.365 202.885 179.47 201.78 179.47 200.675 179.47 199.78 180.365 199.78 181.47Z" stroke="#FFFFFF" stroke-width="0.9" stroke-miterlimit="10" fill="none" transform="translate(-49.33 -74.63)"/><path d="M189.57 181.47C189.57 182.575 190.465 183.47 191.57 183.47 192.675 183.47 193.57 182.575 193.57 181.47 193.57 180.365 192.675 179.47 191.57 179.47 190.465 179.47 189.57 180.365 189.57 181.47Z" stroke="#FFFFFF" stroke-width="0.9" stroke-miterlimit="10" fill="none" transform="translate(-49.33 -74.63)"/><path d="M179.36 181.47C179.36 182.575 180.255 183.47 181.36 183.47 182.465 183.47 183.36 182.575 183.36 181.47 183.36 180.365 182.465 179.47 181.36 179.47 180.255 179.47 179.36 180.365 179.36 181.47Z" stroke="#FFFFFF" stroke-width="0.9" stroke-miterlimit="10" fill="none" transform="translate(-49.33 -74.63)"/><path d="M169.15 181.47C169.15 182.575 170.045 183.47 171.15 183.47 172.255 183.47 173.15 182.575 173.15 181.47 173.15 180.365 172.255 179.47 171.15 179.47 170.045 179.47 169.15 180.365 169.15 181.47Z" stroke="#FFFFFF" stroke-width="0.9" stroke-miterlimit="10" fill="none" transform="translate(-49.33 -74.63)"/><path d="M550 404.61 537.5 404.61C536.743 404.61 536.13 403.997 536.13 403.24L536.13 403.24C536.125 402.483 536.733 401.866 537.49 401.86 537.493 401.86 537.497 401.86 537.5 401.86L550 401.86C550.758 401.865 551.37 402.482 551.37 403.24L551.37 403.24C551.365 403.994 550.754 404.605 550 404.61Z" fill="#F0F4FF" transform="translate(-49.33 -74.63)"/><path d="M562.62 410.69 537.53 410.69C536.773 410.69 536.16 410.077 536.16 409.32L536.16 409.32C536.16 408.563 536.773 407.95 537.53 407.95L562.62 407.95C563.377 407.95 563.99 408.563 563.99 409.32L563.99 409.32C563.99 410.077 563.377 410.69 562.62 410.69Z" fill="#F0F4FF" transform="translate(-49.33 -74.63)"/><path d="M540.49 416.77 537.49 416.77C536.733 416.77 536.12 416.157 536.12 415.4L536.12 415.4C536.12 414.643 536.733 414.03 537.49 414.03L540.49 414.03C541.247 414.03 541.86 414.643 541.86 415.4L541.86 415.4C541.86 416.157 541.247 416.77 540.49 416.77Z" fill="#F0F4FF" transform="translate(-49.33 -74.63)"/><path d="M562.62 416.77 545.15 416.77C544.393 416.77 543.78 416.157 543.78 415.4L543.78 415.4C543.78 414.643 544.393 414.03 545.15 414.03L562.62 414.03C563.378 414.03 563.995 414.642 564 415.4L564 415.4C564 416.157 563.387 416.77 562.63 416.77 562.627 416.77 562.623 416.77 562.62 416.77Z" fill="#F0F4FF" transform="translate(-49.33 -74.63)"/><path d="M562.62 404.61 555 404.61C554.243 404.61 553.63 403.997 553.63 403.24L553.63 403.24C553.625 402.483 554.233 401.866 554.99 401.86 554.993 401.86 554.997 401.86 555 401.86L562.58 401.86C563.338 401.865 563.95 402.482 563.95 403.24L563.95 403.24C563.945 403.979 563.359 404.583 562.62 404.61Z" fill="#F0F4FF" transform="translate(-49.33 -74.63)"/><path d="M274.12 111.29 261.62 111.29C260.863 111.29 260.25 110.677 260.25 109.92L260.25 109.92C260.25 109.163 260.863 108.55 261.62 108.55L274.12 108.55C274.877 108.55 275.49 109.163 275.49 109.92L275.49 109.92C275.49 110.677 274.877 111.29 274.12 111.29Z" fill="#F0F4FF" transform="translate(-49.33 -74.63)"/><path d="M286.71 117.37 261.62 117.37C260.863 117.37 260.25 116.757 260.25 116L260.25 116C260.25 115.243 260.863 114.63 261.62 114.63L286.71 114.63C287.467 114.63 288.08 115.243 288.08 116L288.08 116C288.08 116.757 287.467 117.37 286.71 117.37Z" fill="#F0F4FF" transform="translate(-49.33 -74.63)"/><path d="M264.58 123.45 261.58 123.45C260.823 123.45 260.21 122.837 260.21 122.08L260.21 122.08C260.21 121.323 260.823 120.71 261.58 120.71L264.58 120.71C265.337 120.71 265.95 121.323 265.95 122.08L265.95 122.08C265.95 122.837 265.337 123.45 264.58 123.45Z" fill="#F0F4FF" transform="translate(-49.33 -74.63)"/><path d="M286.71 123.45 269.24 123.45C268.483 123.45 267.87 122.837 267.87 122.08L267.87 122.08C267.87 121.323 268.483 120.71 269.24 120.71L286.71 120.71C287.467 120.71 288.08 121.323 288.08 122.08L288.08 122.08C288.08 122.837 287.467 123.45 286.71 123.45Z" fill="#F0F4FF" transform="translate(-49.33 -74.63)"/><path d="M286.71 111.29 279.13 111.29C278.376 111.285 277.765 110.674 277.76 109.92L277.76 109.92C277.76 109.163 278.373 108.55 279.13 108.55L286.71 108.55C287.467 108.55 288.08 109.163 288.08 109.92L288.08 109.92C288.08 110.677 287.467 111.29 286.71 111.29Z" fill="#F0F4FF" transform="translate(-49.33 -74.63)"/><path d="M623.3 131.81 610.8 131.81C610.043 131.81 609.43 131.197 609.43 130.44L609.43 130.44C609.424 129.683 610.033 129.066 610.79 129.06 610.793 129.06 610.797 129.06 610.8 129.06L623.3 129.06C624.058 129.065 624.67 129.682 624.67 130.44L624.67 130.44C624.665 131.194 624.054 131.805 623.3 131.81Z" fill="#F0F4FF" transform="translate(-49.33 -74.63)"/><path d="M635.89 137.89 610.8 137.89C610.043 137.89 609.43 137.277 609.43 136.52L609.43 136.52C609.43 135.763 610.043 135.15 610.8 135.15L635.89 135.15C636.647 135.15 637.26 135.763 637.26 136.52L637.26 136.52C637.26 137.277 636.647 137.89 635.89 137.89Z" fill="#F0F4FF" transform="translate(-49.33 -74.63)"/><path d="M613.76 144 610.76 144C610.003 144 609.39 143.387 609.39 142.63L609.39 142.63C609.39 141.873 610.003 141.26 610.76 141.26L613.76 141.26C614.517 141.26 615.13 141.873 615.13 142.63L615.13 142.63C615.13 143.387 614.517 144 613.76 144Z" fill="#F0F4FF" transform="translate(-49.33 -74.63)"/><path d="M635.89 144 618.42 144C617.663 144 617.05 143.387 617.05 142.63L617.05 142.63C617.05 141.873 617.663 141.26 618.42 141.26L635.89 141.26C636.644 141.265 637.255 141.876 637.26 142.63L637.26 142.63C637.26 143.387 636.647 144 635.89 144Z" fill="#F0F4FF" transform="translate(-49.33 -74.63)"/><path d="M635.89 131.81 628.31 131.81C627.556 131.805 626.945 131.194 626.94 130.44L626.94 130.44C626.94 129.682 627.552 129.065 628.31 129.06L635.89 129.06C636.648 129.065 637.26 129.682 637.26 130.44L637.26 130.44C637.255 131.194 636.644 131.805 635.89 131.81Z" fill="#F0F4FF" transform="translate(-49.33 -74.63)"/><path d="M430.67 353.35 358.38 353.35 328.61 184.25 400.89 184.25 430.67 353.35Z" fill="#2F3DA3"/><path d="M419.16 353.35 346.88 353.35 317.1 184.25 389.39 184.25 419.16 353.35Z" fill="#122668"/><path d="M606.08 155.69 595.47 146.69 592.63 156.69 293 156.69C288.225 156.694 284.2 160.252 283.61 164.99L258.75 364.12 245.58 370.89 256.43 380.06C256.635 380.257 256.852 380.441 257.08 380.61L257.08 380.61C258.212 381.436 259.578 381.881 260.98 381.88L572.88 381.88C577.651 381.877 581.675 378.324 582.27 373.59L608.69 161.79C608.984 159.435 607.987 157.104 606.08 155.69Z" fill="#3945BA" transform="translate(-49.33 -74.63)"/><path d="M597.75 152.54 571.33 364.34C570.739 369.08 566.707 372.636 561.93 372.63L250 372.63C246.36 372.631 243.409 369.681 243.409 366.041 243.409 365.767 243.426 365.492 243.46 365.22L269.88 153.43C270.47 148.692 274.495 145.134 279.27 145.13L591.2 145.13C594.845 145.13 597.8 148.085 597.8 151.73 597.8 152.001 597.783 152.271 597.75 152.54Z" fill="#FFFFFF" transform="translate(-49.33 -74.63)"/><path d="M589.7 157.47 566.08 346.82C565.5 351.493 561.529 355.001 556.82 355L258.57 355C255.466 355.001 252.949 352.486 252.947 349.383 252.947 349.151 252.962 348.92 252.99 348.69L276.73 158.32C277.284 153.779 281.156 150.376 285.73 150.41L583.46 150.41C586.928 150.405 589.744 153.213 589.749 156.681 589.749 156.945 589.733 157.208 589.7 157.47Z" fill="#C1CCF4" transform="translate(-49.33 -74.63)"/><path d="M290 150.41C285.426 150.376 281.554 153.779 281 158.32L257.28 348.69C256.893 351.764 259.072 354.57 262.146 354.956 262.38 354.986 262.615 355 262.85 355L258.56 355C255.462 355.002 252.948 352.492 252.946 349.394 252.946 349.159 252.961 348.923 252.99 348.69L276.73 158.32C277.284 153.779 281.156 150.376 285.73 150.41Z" fill="#97A9DD" transform="translate(-49.33 -74.63)"/><path d="M329.68 353.35 464.32 353.35C467.043 353.35 469.25 355.557 469.25 358.28L469.25 365.07 469.25 365.07 324.75 365.07 324.75 365.07 324.75 358.28C324.75 355.557 326.957 353.35 329.68 353.35Z" fill="#2F3DA3"/><path d="M306 353.35 440.66 353.35C443.383 353.35 445.59 355.557 445.59 358.28L445.59 365.07 445.59 365.07 301.09 365.07 301.09 365.07 301.09 358.28C301.09 355.565 303.285 353.361 306 353.35Z" fill="#142775"/><ellipse cx="545.79" cy="363.59" rx="5.94" ry="5.16" fill="#467CDB" transform="matrix(0.731473 -0.681871 0.681871 0.731473 -150.7 395.17)"/><path d="M587.39 128.08C587.388 128.907 587.328 129.732 587.21 130.55L586 139 585.14 145.13 550.07 145.13 550.93 139 552.12 130.55C553.49 120.86 562.44 113 572.12 113 580.284 112.733 587.118 119.135 587.385 127.299 587.394 127.559 587.395 127.82 587.39 128.08Z" fill="#122668" transform="translate(-49.33 -74.63)"/><path d="M536.5 65.74 535.83 70.5 500.74 70.5 501.41 65.74 536.5 65.74Z" fill="#0C1E51"/><path d="M572.13 113C562.121 113.306 553.734 120.666 552.13 130.55L550.13 145.13 520.54 381.89 520.54 382.05 520.54 382.23C520.082 385.236 519.122 388.143 517.7 390.83L517.7 390.92C515.421 394.867 511.197 397.285 506.64 397.25L255.17 397.25C263.93 395.79 265.95 383.97 266.22 382.13L266.22 381.89 266.22 381.89 295.75 145.13 297.75 130.55C299.347 120.662 307.738 113.299 317.75 113Z" fill="#FFFFFF" transform="translate(-49.33 -74.63)"/><path d="M482.27 298 510.64 70.5 500.74 70.5 472.37 298 482.27 298Z" fill="#2D3DAD" opacity="0.33"/><path d="M572.13 113C566.86 113.1 561.837 115.252 558.13 119L303.8 119C307.52 115.242 312.563 113.089 317.85 113Z" fill="#F5F6FF" transform="translate(-49.33 -74.63)"/><path d="M368.32 225.6 300.32 225.6C300.005 225.609 299.743 225.362 299.733 225.047 299.732 225.012 299.734 224.976 299.74 224.94L306.53 171.94C306.584 171.566 306.902 171.286 307.28 171.28L375.28 171.28C375.589 171.269 375.848 171.512 375.859 171.821 375.86 171.861 375.857 171.901 375.85 171.94L369.07 224.94C369.016 225.314 368.698 225.594 368.32 225.6Z" fill="#7E89FD" transform="translate(-49.33 -74.63)"/><path d="M314.9 181.37 308.35 181.37C308.074 181.374 307.847 181.153 307.844 180.876 307.843 180.848 307.845 180.819 307.85 180.79L308.52 175.57C308.564 175.243 308.84 174.997 309.17 174.99L315.71 174.99C315.986 174.981 316.217 175.197 316.226 175.473 316.227 175.506 316.225 175.538 316.22 175.57L315.55 180.79C315.506 181.117 315.23 181.363 314.9 181.37Z" fill="#FFFFFF" transform="translate(-49.33 -74.63)"/><path d="M313.86 189.48 307.31 189.48C307.034 189.484 306.807 189.263 306.804 188.986 306.803 188.958 306.805 188.929 306.81 188.9L307.48 183.68C307.524 183.353 307.8 183.107 308.13 183.1L314.67 183.1C314.946 183.091 315.177 183.307 315.186 183.583 315.187 183.616 315.185 183.648 315.18 183.68L314.51 188.9C314.466 189.227 314.19 189.473 313.86 189.48Z" fill="#FFFFFF" transform="translate(-49.33 -74.63)"/><path d="M312.82 197.59 306.28 197.59C306.004 197.599 305.773 197.383 305.764 197.107 305.763 197.074 305.765 197.042 305.77 197.01L306.44 191.79C306.484 191.463 306.76 191.217 307.09 191.21L313.64 191.21C313.916 191.206 314.143 191.427 314.146 191.704 314.147 191.732 314.145 191.761 314.14 191.79L313.47 197.01C313.426 197.337 313.15 197.583 312.82 197.59Z" fill="#FFFFFF" transform="translate(-49.33 -74.63)"/><path d="M311.78 205.7 305.24 205.7C304.964 205.709 304.733 205.493 304.724 205.217 304.723 205.184 304.725 205.152 304.73 205.12L305.4 199.9C305.444 199.573 305.72 199.327 306.05 199.32L312.6 199.32C312.876 199.316 313.103 199.537 313.106 199.814 313.107 199.842 313.105 199.871 313.1 199.9L312.43 205.12C312.386 205.447 312.11 205.693 311.78 205.7Z" fill="#FFFFFF" transform="translate(-49.33 -74.63)"/><path d="M310.74 213.81 304.2 213.81C303.924 213.819 303.693 213.603 303.684 213.327 303.683 213.294 303.685 213.262 303.69 213.23L304.36 208.01C304.404 207.683 304.68 207.437 305.01 207.43L311.56 207.43C311.83 207.42 312.058 207.631 312.068 207.901 312.069 207.938 312.067 207.974 312.06 208.01L311.4 213.23C311.351 213.559 311.072 213.804 310.74 213.81Z" fill="#FFFFFF" transform="translate(-49.33 -74.63)"/><path d="M309.7 221.91 303.16 221.91C302.884 221.919 302.653 221.703 302.644 221.427 302.643 221.394 302.645 221.362 302.65 221.33L303.32 216.12C303.369 215.791 303.648 215.546 303.98 215.54L310.52 215.54C310.796 215.531 311.027 215.747 311.036 216.023 311.037 216.056 311.035 216.088 311.03 216.12L310.36 221.33C310.311 221.659 310.032 221.904 309.7 221.91Z" fill="#FFFFFF" transform="translate(-49.33 -74.63)"/><path d="M371.43 181.37 364.88 181.37C364.61 181.38 364.382 181.169 364.372 180.899 364.371 180.862 364.373 180.826 364.38 180.79L365.04 175.57C365.093 175.243 365.369 175 365.7 174.99L372.24 174.99C372.516 174.981 372.747 175.197 372.756 175.473 372.757 175.506 372.755 175.538 372.75 175.57L372.08 180.79C372.036 181.117 371.76 181.363 371.43 181.37Z" fill="#FFFFFF" transform="translate(-49.33 -74.63)"/><path d="M370.39 189.48 363.84 189.48C363.564 189.484 363.337 189.263 363.334 188.986 363.333 188.958 363.335 188.929 363.34 188.9L364.01 183.68C364.054 183.353 364.33 183.107 364.66 183.1L371.2 183.1C371.476 183.091 371.707 183.307 371.716 183.583 371.717 183.616 371.715 183.648 371.71 183.68L371 188.9C370.959 189.213 370.705 189.454 370.39 189.48Z" fill="#FFFFFF" transform="translate(-49.33 -74.63)"/><path d="M369.35 197.59 362.8 197.59C362.524 197.594 362.297 197.373 362.294 197.096 362.293 197.068 362.295 197.039 362.3 197.01L362.97 191.79C363.014 191.463 363.29 191.217 363.62 191.21L370.16 191.21C370.436 191.201 370.667 191.417 370.676 191.693 370.677 191.726 370.675 191.758 370.67 191.79L370 197C369.96 197.331 369.683 197.582 369.35 197.59Z" fill="#FFFFFF" transform="translate(-49.33 -74.63)"/><path d="M368.31 205.7 361.77 205.7C361.494 205.709 361.263 205.493 361.254 205.217 361.253 205.184 361.255 205.152 361.26 205.12L361.93 199.9C361.974 199.573 362.25 199.327 362.58 199.32L369.13 199.32C369.406 199.316 369.633 199.537 369.636 199.814 369.637 199.842 369.635 199.871 369.63 199.9L368.96 205.12C368.916 205.447 368.64 205.693 368.31 205.7Z" fill="#FFFFFF" transform="translate(-49.33 -74.63)"/><path d="M367.27 213.81 360.73 213.81C360.454 213.819 360.223 213.603 360.214 213.327 360.213 213.294 360.215 213.262 360.22 213.23L360.89 208.01C360.934 207.683 361.21 207.437 361.54 207.43L368.09 207.43C368.366 207.426 368.593 207.647 368.596 207.924 368.597 207.952 368.595 207.981 368.59 208.01L367.93 213.23C367.877 213.557 367.601 213.8 367.27 213.81Z" fill="#FFFFFF" transform="translate(-49.33 -74.63)"/><path d="M366.23 221.91 359.69 221.91C359.414 221.919 359.183 221.703 359.174 221.427 359.173 221.394 359.175 221.362 359.18 221.33L359.85 216.12C359.894 215.793 360.17 215.547 360.5 215.54L367.05 215.54C367.32 215.53 367.548 215.741 367.558 216.011 367.559 216.048 367.557 216.084 367.55 216.12L366.89 221.33C366.841 221.659 366.562 221.904 366.23 221.91Z" fill="#FFFFFF" transform="translate(-49.33 -74.63)"/><path d="M356.08 221.91 313.54 221.91C313.347 221.912 313.188 221.757 313.186 221.564 313.186 221.546 313.187 221.528 313.19 221.51L319.1 175.39C319.134 175.165 319.323 174.997 319.55 174.99L362.09 174.99C362.283 174.988 362.442 175.143 362.444 175.336 362.444 175.354 362.443 175.372 362.44 175.39L356.53 221.51C356.496 221.735 356.307 221.903 356.08 221.91Z" fill="#FFFFFF" transform="translate(-49.33 -74.63)"/><path d="M375.43 168.81 307.79 168.81C307.398 168.821 307.071 168.513 307.06 168.121 307.059 168.073 307.062 168.026 307.07 167.98L307.95 161.13C308.029 160.67 308.414 160.326 308.88 160.3L376.52 160.3C376.912 160.289 377.239 160.597 377.25 160.989 377.251 161.037 377.248 161.084 377.24 161.13L376.36 167.98C376.281 168.44 375.896 168.784 375.43 168.81Z" fill="#7E89FD" transform="translate(-49.33 -74.63)"/><path d="M367.41 230.23 300.07 230.23C299.606 230.244 299.219 229.88 299.205 229.416 299.203 229.354 299.208 229.291 299.22 229.23L299.22 229.23C299.289 228.671 299.757 228.246 300.32 228.23L367.66 228.23C368.124 228.216 368.511 228.58 368.525 229.044 368.527 229.106 368.522 229.169 368.51 229.23L368.51 229.23C368.441 229.789 367.973 230.214 367.41 230.23Z" fill="#A1ACFF" transform="translate(-49.33 -74.63)"/><path d="M366.88 234.36 299.54 234.36C299.082 234.381 298.694 234.027 298.673 233.569 298.67 233.499 298.676 233.429 298.69 233.36L298.69 233.36C298.763 232.803 299.228 232.38 299.79 232.36L367.13 232.36C367.594 232.346 367.981 232.71 367.995 233.174 367.997 233.236 367.992 233.299 367.98 233.36L367.98 233.36C367.915 233.922 367.445 234.349 366.88 234.36Z" fill="#A1ACFF" transform="translate(-49.33 -74.63)"/><path d="M347.26 238.5 299 238.5C298.536 238.514 298.149 238.15 298.135 237.686 298.133 237.624 298.138 237.561 298.15 237.5L298.15 237.5C298.219 236.941 298.687 236.516 299.25 236.5L347.5 236.5C347.958 236.479 348.346 236.833 348.367 237.291 348.37 237.361 348.364 237.431 348.35 237.5L348.35 237.5C348.282 238.056 347.82 238.48 347.26 238.5Z" fill="#A1ACFF" transform="translate(-49.33 -74.63)"/><path d="M448.44 225.6 380.44 225.6C380.131 225.616 379.868 225.379 379.852 225.07 379.849 225.026 379.852 224.983 379.86 224.94L386.65 171.94C386.7 171.564 387.02 171.282 387.4 171.28L455.4 171.28C455.709 171.264 455.972 171.501 455.988 171.81 455.991 171.854 455.988 171.897 455.98 171.94L449.19 224.94C449.14 225.316 448.82 225.598 448.44 225.6Z" fill="#7E89FD" transform="translate(-49.33 -74.63)"/><path d="M395 181.37 388.46 181.37C388.184 181.379 387.953 181.163 387.944 180.887 387.943 180.854 387.945 180.822 387.95 180.79L388.62 175.57C388.669 175.241 388.948 174.996 389.28 174.99L395.82 174.99C396.096 174.981 396.327 175.197 396.336 175.473 396.337 175.506 396.335 175.538 396.33 175.57L395.66 180.79C395.611 181.119 395.332 181.364 395 181.37Z" fill="#FFFFFF" transform="translate(-49.33 -74.63)"/><path d="M394 189.48 387.45 189.48C387.18 189.49 386.952 189.279 386.942 189.009 386.941 188.972 386.943 188.936 386.95 188.9L387.61 183.68C387.659 183.351 387.938 183.106 388.27 183.1L394.81 183.1C395.086 183.091 395.317 183.307 395.326 183.583 395.327 183.616 395.325 183.648 395.32 183.68L394.65 188.9C394.606 189.227 394.33 189.473 394 189.48Z" fill="#FFFFFF" transform="translate(-49.33 -74.63)"/><path d="M392.94 197.59 386.39 197.59C386.114 197.594 385.887 197.373 385.884 197.096 385.883 197.068 385.885 197.039 385.89 197.01L386.55 191.79C386.603 191.463 386.879 191.22 387.21 191.21L393.75 191.21C394.026 191.201 394.257 191.417 394.266 191.693 394.267 191.726 394.265 191.758 394.26 191.79L393.59 197.01C393.546 197.337 393.27 197.583 392.94 197.59Z" fill="#FFFFFF" transform="translate(-49.33 -74.63)"/><path d="M391.9 205.7 385.35 205.7C385.074 205.704 384.847 205.483 384.844 205.206 384.843 205.178 384.845 205.149 384.85 205.12L385.52 199.9C385.564 199.573 385.84 199.327 386.17 199.32L392.71 199.32C392.986 199.311 393.217 199.527 393.226 199.803 393.227 199.836 393.225 199.868 393.22 199.9L392.55 205.12C392.506 205.447 392.23 205.693 391.9 205.7Z" fill="#FFFFFF" transform="translate(-49.33 -74.63)"/><path d="M390.86 213.81 384.31 213.81C384.034 213.814 383.807 213.593 383.804 213.316 383.803 213.288 383.805 213.259 383.81 213.23L384.48 208.01C384.524 207.683 384.8 207.437 385.13 207.43L391.68 207.43C391.956 207.426 392.183 207.647 392.186 207.924 392.187 207.952 392.185 207.981 392.18 208.01L391.51 213.23C391.466 213.557 391.19 213.803 390.86 213.81Z" fill="#FFFFFF" transform="translate(-49.33 -74.63)"/><path d="M389.82 221.91 383.28 221.91C383.004 221.919 382.773 221.703 382.764 221.427 382.763 221.394 382.765 221.362 382.77 221.33L383.44 216.12C383.484 215.793 383.76 215.547 384.09 215.54L390.64 215.54C390.916 215.536 391.143 215.757 391.146 216.034 391.147 216.062 391.145 216.091 391.14 216.12L390.47 221.33C390.426 221.657 390.15 221.903 389.82 221.91Z" fill="#FFFFFF" transform="translate(-49.33 -74.63)"/><path d="M451.54 181.37 445 181.37C444.724 181.379 444.493 181.163 444.484 180.887 444.483 180.854 444.485 180.822 444.49 180.79L445.16 175.57C445.209 175.241 445.488 174.996 445.82 174.99L452.36 174.99C452.636 174.981 452.867 175.197 452.876 175.473 452.877 175.506 452.875 175.538 452.87 175.57L452.2 180.79C452.151 181.119 451.872 181.364 451.54 181.37Z" fill="#FFFFFF" transform="translate(-49.33 -74.63)"/><path d="M450.5 189.48 444 189.48C443.724 189.489 443.493 189.273 443.484 188.997 443.483 188.964 443.485 188.932 443.49 188.9L444.16 183.68C444.209 183.351 444.488 183.106 444.82 183.1L451.36 183.1C451.636 183.091 451.867 183.307 451.876 183.583 451.877 183.616 451.875 183.648 451.87 183.68L451.2 188.9C451.149 189.244 450.847 189.494 450.5 189.48Z" fill="#FFFFFF" transform="translate(-49.33 -74.63)"/><path d="M449.47 197.59 442.92 197.59C442.65 197.6 442.422 197.389 442.412 197.119 442.411 197.082 442.413 197.046 442.42 197.01L443.08 191.79C443.129 191.461 443.408 191.216 443.74 191.21L450.28 191.21C450.556 191.201 450.787 191.417 450.796 191.693 450.797 191.726 450.795 191.758 450.79 191.79L450.12 197.01C450.076 197.337 449.8 197.583 449.47 197.59Z" fill="#FFFFFF" transform="translate(-49.33 -74.63)"/><path d="M448.43 205.7 441.88 205.7C441.604 205.704 441.377 205.483 441.374 205.206 441.373 205.178 441.375 205.149 441.38 205.12L442.04 199.9C442.093 199.573 442.369 199.33 442.7 199.32L449.24 199.32C449.516 199.311 449.747 199.527 449.756 199.803 449.757 199.836 449.755 199.868 449.75 199.9L449.08 205.12C449.036 205.447 448.76 205.693 448.43 205.7Z" fill="#FFFFFF" transform="translate(-49.33 -74.63)"/><path d="M447.39 213.81 440.84 213.81C440.564 213.814 440.337 213.593 440.334 213.316 440.333 213.288 440.335 213.259 440.34 213.23L441 208C441.044 207.673 441.32 207.427 441.65 207.42L448.19 207.42C448.466 207.411 448.697 207.627 448.706 207.903 448.707 207.936 448.705 207.968 448.7 208L448.03 213.22C447.991 213.547 447.719 213.798 447.39 213.81Z" fill="#FFFFFF" transform="translate(-49.33 -74.63)"/><path d="M446.35 221.91 439.8 221.91C439.524 221.914 439.297 221.693 439.294 221.416 439.293 221.388 439.295 221.359 439.3 221.33L439.97 216.12C440.014 215.793 440.29 215.547 440.62 215.54L447.17 215.54C447.446 215.536 447.673 215.757 447.676 216.034 447.677 216.062 447.675 216.091 447.67 216.12L447 221.33C446.956 221.657 446.68 221.903 446.35 221.91Z" fill="#FFFFFF" transform="translate(-49.33 -74.63)"/><path d="M436.19 221.91 393.66 221.91C393.467 221.912 393.308 221.757 393.306 221.564 393.306 221.546 393.307 221.528 393.31 221.51L399.22 175.39C399.254 175.165 399.443 174.997 399.67 174.99L442.2 174.99C442.393 174.988 442.552 175.143 442.554 175.336 442.554 175.354 442.553 175.372 442.55 175.39L436.65 221.51C436.612 221.736 436.419 221.904 436.19 221.91Z" fill="#FFFFFF" transform="translate(-49.33 -74.63)"/><path d="M455.55 168.81 387.91 168.81C387.518 168.821 387.191 168.513 387.18 168.121 387.179 168.073 387.182 168.026 387.19 167.98L388.07 161.13C388.149 160.67 388.534 160.326 389 160.3L456.64 160.3C457.032 160.289 457.359 160.597 457.37 160.989 457.371 161.037 457.368 161.084 457.36 161.13L456.48 167.98C456.401 168.44 456.016 168.784 455.55 168.81Z" fill="#7E89FD" transform="translate(-49.33 -74.63)"/><path d="M447.53 230.23 380.19 230.23C379.726 230.244 379.339 229.88 379.325 229.416 379.323 229.354 379.328 229.291 379.34 229.23L379.34 229.23C379.409 228.671 379.877 228.246 380.44 228.23L447.78 228.23C448.244 228.216 448.631 228.58 448.645 229.044 448.647 229.106 448.642 229.169 448.63 229.23L448.63 229.23C448.561 229.789 448.093 230.214 447.53 230.23Z" fill="#A1ACFF" transform="translate(-49.33 -74.63)"/><path d="M447 234.36 379.66 234.36C379.202 234.381 378.814 234.027 378.793 233.569 378.79 233.499 378.796 233.429 378.81 233.36L378.81 233.36C378.879 232.801 379.347 232.376 379.91 232.36L447.25 232.36C447.714 232.346 448.101 232.71 448.115 233.174 448.117 233.236 448.112 233.299 448.1 233.36L448.1 233.36C448.031 233.919 447.563 234.344 447 234.36Z" fill="#A1ACFF" transform="translate(-49.33 -74.63)"/><path d="M427.38 238.5 379.13 238.5C378.666 238.514 378.279 238.15 378.265 237.686 378.263 237.624 378.268 237.561 378.28 237.5L378.28 237.5C378.349 236.941 378.817 236.516 379.38 236.5L427.63 236.5C428.088 236.479 428.476 236.833 428.497 237.291 428.5 237.361 428.494 237.431 428.48 237.5L428.48 237.5C428.411 238.059 427.943 238.484 427.38 238.5Z" fill="#A1ACFF" transform="translate(-49.33 -74.63)"/><path d="M528.55 225.6 460.55 225.6C460.241 225.616 459.978 225.379 459.962 225.07 459.959 225.026 459.962 224.983 459.97 224.94L466.75 171.94C466.808 171.568 467.123 171.29 467.5 171.28L535.5 171.28C535.815 171.271 536.077 171.518 536.087 171.833 536.088 171.868 536.086 171.904 536.08 171.94L529.29 224.94C529.237 225.311 528.924 225.589 528.55 225.6Z" fill="#7E89FD" transform="translate(-49.33 -74.63)"/><path d="M475.13 181.37 468.59 181.37C468.314 181.379 468.083 181.163 468.074 180.887 468.073 180.854 468.075 180.822 468.08 180.79L468.75 175.57C468.794 175.243 469.07 174.997 469.4 174.99L476 174.99C476.276 174.986 476.503 175.207 476.506 175.484 476.507 175.512 476.505 175.541 476.5 175.57L475.84 180.79C475.785 181.135 475.479 181.385 475.13 181.37Z" fill="#FFFFFF" transform="translate(-49.33 -74.63)"/><path d="M474.09 189.48 467.55 189.48C467.274 189.489 467.043 189.273 467.034 188.997 467.033 188.964 467.035 188.932 467.04 188.9L467.71 183.68C467.759 183.351 468.038 183.106 468.37 183.1L474.91 183.1C475.18 183.09 475.408 183.301 475.418 183.571 475.419 183.608 475.417 183.644 475.41 183.68L474.75 188.9C474.701 189.229 474.422 189.474 474.09 189.48Z" fill="#FFFFFF" transform="translate(-49.33 -74.63)"/><path d="M473.05 197.59 466.51 197.59C466.234 197.6 466.002 197.385 465.992 197.109 465.991 197.072 465.993 197.036 466 197L466.67 191.78C466.719 191.451 466.998 191.206 467.33 191.2L473.87 191.2C474.146 191.191 474.377 191.407 474.386 191.683 474.387 191.716 474.385 191.748 474.38 191.78L473.71 197C473.666 197.333 473.385 197.583 473.05 197.59Z" fill="#FFFFFF" transform="translate(-49.33 -74.63)"/><path d="M472 205.7 465.46 205.7C465.184 205.709 464.953 205.493 464.944 205.217 464.943 205.184 464.945 205.152 464.95 205.12L465.62 199.9C465.669 199.571 465.948 199.326 466.28 199.32L472.82 199.32C473.096 199.311 473.327 199.527 473.336 199.803 473.337 199.836 473.335 199.868 473.33 199.9L472.66 205.12C472.611 205.449 472.332 205.694 472 205.7Z" fill="#FFFFFF" transform="translate(-49.33 -74.63)"/><path d="M471 213.81 464.45 213.81C464.174 213.814 463.947 213.593 463.944 213.316 463.943 213.288 463.945 213.259 463.95 213.23L464.61 208.01C464.663 207.683 464.939 207.44 465.27 207.43L471.81 207.43C472.086 207.421 472.317 207.637 472.326 207.913 472.327 207.946 472.325 207.978 472.32 208.01L471.65 213.23C471.606 213.557 471.33 213.803 471 213.81Z" fill="#FFFFFF" transform="translate(-49.33 -74.63)"/><path d="M469.94 221.91 463.39 221.91C463.114 221.914 462.887 221.693 462.884 221.416 462.883 221.388 462.885 221.359 462.89 221.33L463.56 216.12C463.604 215.793 463.88 215.547 464.21 215.54L470.75 215.54C471.026 215.531 471.257 215.747 471.266 216.023 471.267 216.056 471.265 216.088 471.26 216.12L470.59 221.33C470.546 221.657 470.27 221.903 469.94 221.91Z" fill="#FFFFFF" transform="translate(-49.33 -74.63)"/><path d="M531.66 181.37 525.12 181.37C524.844 181.379 524.613 181.163 524.604 180.887 524.603 180.854 524.605 180.822 524.61 180.79L525.28 175.57C525.324 175.243 525.6 174.997 525.93 174.99L532.48 174.99C532.756 174.986 532.983 175.207 532.986 175.484 532.987 175.512 532.985 175.541 532.98 175.57L532.31 180.79C532.266 181.117 531.99 181.363 531.66 181.37Z" fill="#FFFFFF" transform="translate(-49.33 -74.63)"/><path d="M530.62 189.48 524.08 189.48C523.804 189.489 523.573 189.273 523.564 188.997 523.563 188.964 523.565 188.932 523.57 188.9L524.24 183.68C524.284 183.353 524.56 183.107 524.89 183.1L531.44 183.1C531.716 183.096 531.943 183.317 531.946 183.594 531.947 183.622 531.945 183.651 531.94 183.68L531.28 188.9C531.227 189.227 530.951 189.47 530.62 189.48Z" fill="#FFFFFF" transform="translate(-49.33 -74.63)"/><path d="M529.58 197.59 523 197.59C522.724 197.599 522.493 197.383 522.484 197.107 522.483 197.074 522.485 197.042 522.49 197.01L523.16 191.79C523.209 191.461 523.488 191.216 523.82 191.21L530.36 191.21C530.63 191.2 530.858 191.411 530.868 191.681 530.869 191.718 530.867 191.754 530.86 191.79L530.2 197.01C530.154 197.324 529.897 197.565 529.58 197.59Z" fill="#FFFFFF" transform="translate(-49.33 -74.63)"/><path d="M528.54 205.7 522 205.7C521.724 205.709 521.493 205.493 521.484 205.217 521.483 205.184 521.485 205.152 521.49 205.12L522.16 199.9C522.209 199.571 522.488 199.326 522.82 199.32L529.36 199.32C529.636 199.311 529.867 199.527 529.876 199.803 529.877 199.836 529.875 199.868 529.87 199.9L529.2 205.12C529.151 205.449 528.872 205.694 528.54 205.7Z" fill="#FFFFFF" transform="translate(-49.33 -74.63)"/><path d="M527.5 213.81 521 213.81C520.724 213.819 520.493 213.603 520.484 213.327 520.483 213.294 520.485 213.262 520.49 213.23L521.16 208.01C521.209 207.681 521.488 207.436 521.82 207.43L528.36 207.43C528.636 207.421 528.867 207.637 528.876 207.913 528.877 207.946 528.875 207.978 528.87 208.01L528.2 213.23C528.149 213.574 527.847 213.824 527.5 213.81Z" fill="#FFFFFF" transform="translate(-49.33 -74.63)"/><path d="M526.47 221.91 519.92 221.91C519.644 221.914 519.417 221.693 519.414 221.416 519.413 221.388 519.415 221.359 519.42 221.33L520.08 216.12C520.133 215.793 520.409 215.55 520.74 215.54L527.28 215.54C527.556 215.531 527.787 215.747 527.796 216.023 527.797 216.056 527.795 216.088 527.79 216.12L527.12 221.33C527.076 221.657 526.8 221.903 526.47 221.91Z" fill="#FFFFFF" transform="translate(-49.33 -74.63)"/><path d="M516.31 221.91 473.78 221.91C473.592 221.919 473.433 221.773 473.425 221.586 473.424 221.56 473.426 221.535 473.43 221.51L479.33 175.39C479.364 175.162 479.559 174.992 479.79 174.99L522.32 174.99C522.513 174.988 522.672 175.143 522.674 175.336 522.674 175.354 522.673 175.372 522.67 175.39L516.76 221.51C516.726 221.735 516.537 221.903 516.31 221.91Z" fill="#FFFFFF" transform="translate(-49.33 -74.63)"/><path d="M535.67 168.81 468 168.81C467.608 168.816 467.285 168.502 467.28 168.11 467.279 168.067 467.283 168.023 467.29 167.98L468.16 161.13C468.239 160.67 468.624 160.326 469.09 160.3L536.74 160.3C537.138 160.295 537.464 160.614 537.468 161.011 537.469 161.051 537.466 161.091 537.46 161.13L536.6 168C536.513 168.452 536.129 168.786 535.67 168.81Z" fill="#7E89FD" transform="translate(-49.33 -74.63)"/><path d="M527.65 230.23 460.31 230.23C459.846 230.244 459.459 229.88 459.445 229.416 459.443 229.354 459.448 229.291 459.46 229.23L459.46 229.23C459.529 228.671 459.997 228.246 460.56 228.23L527.9 228.23C528.364 228.216 528.751 228.58 528.765 229.044 528.767 229.106 528.762 229.169 528.75 229.23L528.75 229.23C528.681 229.789 528.214 230.214 527.65 230.23Z" fill="#A1ACFF" transform="translate(-49.33 -74.63)"/><path d="M527.12 234.36 459.78 234.36C459.322 234.381 458.934 234.027 458.913 233.569 458.91 233.499 458.916 233.429 458.93 233.36L458.93 233.36C458.999 232.801 459.467 232.376 460.03 232.36L527.37 232.36C527.834 232.346 528.221 232.71 528.235 233.174 528.237 233.236 528.232 233.299 528.22 233.36L528.22 233.36C528.151 233.919 527.683 234.344 527.12 234.36Z" fill="#A1ACFF" transform="translate(-49.33 -74.63)"/><path d="M507.5 238.5 459.25 238.5C458.786 238.514 458.399 238.15 458.385 237.686 458.383 237.624 458.388 237.561 458.4 237.5L458.4 237.5C458.469 236.941 458.937 236.516 459.5 236.5L507.75 236.5C508.214 236.486 508.601 236.85 508.615 237.314 508.617 237.376 508.612 237.439 508.6 237.5L508.6 237.5C508.527 238.057 508.062 238.48 507.5 238.5Z" fill="#A1ACFF" transform="translate(-49.33 -74.63)"/><path d="M356.52 324.1 288.52 324.1C288.205 324.109 287.943 323.862 287.933 323.547 287.932 323.512 287.934 323.476 287.94 323.44L294.73 270.44C294.78 270.062 295.099 269.777 295.48 269.77L363.48 269.77C363.795 269.76 364.058 270.006 364.069 270.321 364.07 270.361 364.067 270.401 364.06 270.44L357.27 323.44C357.216 323.814 356.898 324.094 356.52 324.1Z" fill="#7E89FD" transform="translate(-49.33 -74.63)"/><path d="M303.09 279.87 296.55 279.87C296.274 279.879 296.043 279.663 296.034 279.387 296.033 279.354 296.035 279.322 296.04 279.29L296.71 274.07C296.759 273.741 297.038 273.496 297.37 273.49L303.91 273.49C304.186 273.481 304.417 273.697 304.426 273.973 304.427 274.006 304.425 274.038 304.42 274.07L303.75 279.29C303.701 279.619 303.422 279.864 303.09 279.87Z" fill="#FFFFFF" transform="translate(-49.33 -74.63)"/><path d="M302.06 288 295.51 288C295.24 288.01 295.012 287.799 295.002 287.529 295.001 287.492 295.003 287.456 295.01 287.42L295.67 282.2C295.719 281.871 295.998 281.626 296.33 281.62L302.87 281.62C303.146 281.611 303.377 281.827 303.386 282.103 303.387 282.136 303.385 282.168 303.38 282.2L302.71 287.42C302.666 287.747 302.39 287.993 302.06 288Z" fill="#FFFFFF" transform="translate(-49.33 -74.63)"/><path d="M301 296.09 294.45 296.09C294.174 296.094 293.947 295.873 293.944 295.596 293.943 295.568 293.945 295.539 293.95 295.51L294.62 290.29C294.664 289.963 294.94 289.717 295.27 289.71L301.81 289.71C302.086 289.701 302.317 289.917 302.326 290.193 302.327 290.226 302.325 290.258 302.32 290.29L301.65 295.51C301.606 295.837 301.33 296.083 301 296.09Z" fill="#FFFFFF" transform="translate(-49.33 -74.63)"/><path d="M300 304.2 293.45 304.2C293.174 304.205 292.946 303.984 292.942 303.708 292.941 303.675 292.944 303.642 292.95 303.61L293.62 298.4C293.664 298.073 293.94 297.827 294.27 297.82L300.81 297.82C301.086 297.811 301.317 298.027 301.326 298.303 301.327 298.336 301.325 298.368 301.32 298.4L300.65 303.61C300.61 303.941 300.333 304.192 300 304.2Z" fill="#FFFFFF" transform="translate(-49.33 -74.63)"/><path d="M298.94 312.3 292.4 312.3C292.124 312.309 291.893 312.093 291.884 311.817 291.883 311.784 291.885 311.752 291.89 311.72L292.56 306.51C292.604 306.183 292.88 305.937 293.21 305.93L299.76 305.93C300.036 305.926 300.263 306.147 300.266 306.423 300.267 306.452 300.265 306.481 300.26 306.51L299.59 311.72C299.546 312.047 299.27 312.293 298.94 312.3Z" fill="#FFFFFF" transform="translate(-49.33 -74.63)"/><path d="M297.9 320.41 291.36 320.41C291.084 320.419 290.853 320.203 290.844 319.927 290.843 319.894 290.845 319.862 290.85 319.83L291.52 314.62C291.564 314.293 291.84 314.047 292.17 314.04L298.72 314.04C298.996 314.036 299.223 314.257 299.226 314.534 299.227 314.562 299.225 314.591 299.22 314.62L298.55 319.83C298.506 320.157 298.23 320.403 297.9 320.41Z" fill="#FFFFFF" transform="translate(-49.33 -74.63)"/><path d="M359.62 279.87 353.08 279.87C352.804 279.879 352.573 279.663 352.564 279.387 352.563 279.354 352.565 279.322 352.57 279.29L353.24 274.07C353.289 273.741 353.568 273.496 353.9 273.49L360.44 273.49C360.716 273.481 360.947 273.697 360.956 273.973 360.957 274.006 360.955 274.038 360.95 274.07L360.28 279.29C360.231 279.619 359.952 279.864 359.62 279.87Z" fill="#FFFFFF" transform="translate(-49.33 -74.63)"/><path d="M358.58 288 352 288C351.724 288.009 351.493 287.793 351.484 287.517 351.483 287.484 351.485 287.452 351.49 287.42L352.16 282.2C352.209 281.871 352.488 281.626 352.82 281.62L359.36 281.62C359.636 281.611 359.867 281.827 359.876 282.103 359.877 282.136 359.875 282.168 359.87 282.2L359.2 287.42C359.154 287.734 358.897 287.975 358.58 288Z" fill="#FFFFFF" transform="translate(-49.33 -74.63)"/><path d="M357.55 296.09 351 296.09C350.73 296.1 350.502 295.889 350.492 295.619 350.491 295.582 350.493 295.546 350.5 295.51L351.16 290.29C351.209 289.961 351.488 289.716 351.82 289.71L358.36 289.71C358.636 289.701 358.867 289.917 358.876 290.193 358.877 290.226 358.875 290.258 358.87 290.29L358.2 295.51C358.156 295.837 357.88 296.083 357.55 296.09Z" fill="#FFFFFF" transform="translate(-49.33 -74.63)"/><path d="M356.51 304.2 350 304.2C349.724 304.205 349.496 303.984 349.492 303.708 349.491 303.675 349.494 303.642 349.5 303.61L350.17 298.4C350.214 298.073 350.49 297.827 350.82 297.82L357.36 297.82C357.636 297.811 357.867 298.027 357.876 298.303 357.877 298.336 357.875 298.368 357.87 298.4L357.2 303.61C357.159 303.956 356.859 304.213 356.51 304.2Z" fill="#FFFFFF" transform="translate(-49.33 -74.63)"/><path d="M355.47 312.3 348.92 312.3C348.644 312.304 348.417 312.083 348.414 311.806 348.413 311.778 348.415 311.749 348.42 311.72L349.09 306.51C349.134 306.183 349.41 305.937 349.74 305.93L356.28 305.93C356.556 305.921 356.787 306.137 356.796 306.413 356.797 306.446 356.795 306.478 356.79 306.51L356.12 311.72C356.076 312.047 355.8 312.293 355.47 312.3Z" fill="#FFFFFF" transform="translate(-49.33 -74.63)"/><path d="M354.43 320.41 347.89 320.41C347.614 320.419 347.383 320.203 347.374 319.927 347.373 319.894 347.375 319.862 347.38 319.83L348.05 314.62C348.094 314.293 348.37 314.047 348.7 314.04L355.25 314.04C355.526 314.036 355.753 314.257 355.756 314.534 355.757 314.562 355.755 314.591 355.75 314.62L355.08 319.83C355.036 320.157 354.76 320.403 354.43 320.41Z" fill="#FFFFFF" transform="translate(-49.33 -74.63)"/><path d="M344.27 320.41 301.74 320.41C301.547 320.412 301.388 320.257 301.386 320.064 301.386 320.046 301.387 320.028 301.39 320.01L307.3 273.89C307.334 273.665 307.523 273.497 307.75 273.49L350.28 273.49C350.468 273.481 350.627 273.627 350.635 273.814 350.636 273.84 350.634 273.865 350.63 273.89L344.73 320C344.696 320.23 344.502 320.403 344.27 320.41Z" fill="#FFFFFF" transform="translate(-49.33 -74.63)"/><path d="M363.63 267.3 296 267.3C295.614 267.317 295.287 267.017 295.27 266.631 295.268 266.581 295.271 266.53 295.28 266.48L296.16 259.63C296.239 259.17 296.624 258.826 297.09 258.8L364.73 258.8C365.122 258.789 365.449 259.097 365.46 259.489 365.461 259.536 365.458 259.584 365.45 259.63L364.57 266.48C364.486 266.939 364.096 267.28 363.63 267.3Z" fill="#7E89FD" transform="translate(-49.33 -74.63)"/><path d="M355.61 328.73 288.27 328.73C287.806 328.744 287.419 328.38 287.405 327.916 287.403 327.854 287.408 327.791 287.42 327.73L287.42 327.73C287.489 327.171 287.957 326.746 288.52 326.73L355.86 326.73C356.324 326.716 356.711 327.08 356.725 327.544 356.727 327.606 356.722 327.669 356.71 327.73L356.71 327.73C356.641 328.289 356.173 328.714 355.61 328.73Z" fill="#A1ACFF" transform="translate(-49.33 -74.63)"/><path d="M355.08 332.86 287.74 332.86C287.282 332.881 286.894 332.527 286.873 332.069 286.87 331.999 286.876 331.929 286.89 331.86L286.89 331.86C286.959 331.301 287.427 330.876 287.99 330.86L355.33 330.86C355.794 330.846 356.181 331.21 356.195 331.674 356.197 331.736 356.192 331.799 356.18 331.86L356.18 331.86C356.111 332.419 355.643 332.844 355.08 332.86Z" fill="#A1ACFF" transform="translate(-49.33 -74.63)"/><path d="M335.46 337 287.21 337C286.746 337.014 286.359 336.65 286.345 336.186 286.343 336.124 286.348 336.061 286.36 336L286.36 336C286.429 335.441 286.897 335.016 287.46 335L335.71 335C336.168 334.979 336.556 335.333 336.577 335.791 336.58 335.861 336.574 335.931 336.56 336L336.56 336C336.491 336.559 336.023 336.984 335.46 337Z" fill="#A1ACFF" transform="translate(-49.33 -74.63)"/><path d="M436.63 324.1 368.63 324.1C368.315 324.109 368.053 323.862 368.043 323.547 368.042 323.512 368.044 323.476 368.05 323.44L374.84 270.44C374.889 270.065 375.202 269.782 375.58 269.77L443.58 269.77C443.9 269.766 444.163 270.023 444.167 270.343 444.167 270.375 444.165 270.408 444.16 270.44L437.37 323.44C437.313 323.809 437.003 324.085 436.63 324.1Z" fill="#7E89FD" transform="translate(-49.33 -74.63)"/><path d="M383.21 279.87 376.67 279.87C376.394 279.879 376.163 279.663 376.154 279.387 376.153 279.354 376.155 279.322 376.16 279.29L376.83 274.07C376.874 273.743 377.15 273.497 377.48 273.49L384 273.49C384.276 273.486 384.503 273.707 384.506 273.983 384.507 274.012 384.505 274.041 384.5 274.07L383.84 279.29C383.79 279.606 383.529 279.846 383.21 279.87Z" fill="#FFFFFF" transform="translate(-49.33 -74.63)"/><path d="M382.17 288 375.63 288C375.354 288.009 375.123 287.793 375.114 287.517 375.113 287.484 375.115 287.452 375.12 287.42L375.79 282.2C375.839 281.871 376.118 281.626 376.45 281.62L383 281.62C383.276 281.611 383.507 281.827 383.516 282.103 383.517 282.136 383.515 282.168 383.51 282.2L382.84 287.42C382.791 287.752 382.506 287.999 382.17 288Z" fill="#FFFFFF" transform="translate(-49.33 -74.63)"/><path d="M381.13 296.09 374.59 296.09C374.314 296.099 374.083 295.883 374.074 295.607 374.073 295.574 374.075 295.542 374.08 295.51L374.75 290.29C374.799 289.961 375.078 289.716 375.41 289.71L382 289.71C382.276 289.701 382.507 289.917 382.516 290.193 382.517 290.226 382.515 290.258 382.51 290.29L381.84 295.51C381.789 295.858 381.481 296.109 381.13 296.09Z" fill="#FFFFFF" transform="translate(-49.33 -74.63)"/><path d="M380.09 304.2 373.55 304.2C373.274 304.205 373.046 303.984 373.042 303.708 373.041 303.675 373.044 303.642 373.05 303.61L373.71 298.4C373.759 298.071 374.038 297.826 374.37 297.82L380.91 297.82C381.186 297.811 381.417 298.027 381.426 298.303 381.427 298.336 381.425 298.368 381.42 298.4L380.75 303.61C380.706 303.943 380.425 304.193 380.09 304.2Z" fill="#FFFFFF" transform="translate(-49.33 -74.63)"/><path d="M379.06 312.3 372.51 312.3C372.234 312.304 372.007 312.083 372.004 311.806 372.003 311.778 372.005 311.749 372.01 311.72L372.67 306.51C372.723 306.184 372.999 305.94 373.33 305.93L379.87 305.93C380.146 305.921 380.377 306.137 380.386 306.413 380.387 306.446 380.385 306.478 380.38 306.51L379.71 311.72C379.666 312.047 379.39 312.293 379.06 312.3Z" fill="#FFFFFF" transform="translate(-49.33 -74.63)"/><path d="M378 320.41 371.45 320.41C371.174 320.414 370.947 320.193 370.944 319.917 370.943 319.888 370.945 319.859 370.95 319.83L371.62 314.62C371.664 314.293 371.94 314.047 372.27 314.04L378.81 314.04C379.086 314.031 379.317 314.247 379.326 314.523 379.327 314.556 379.325 314.588 379.32 314.62L378.65 319.83C378.606 320.157 378.33 320.403 378 320.41Z" fill="#FFFFFF" transform="translate(-49.33 -74.63)"/><path d="M439.74 279.87 433.2 279.87C432.924 279.879 432.693 279.663 432.684 279.387 432.683 279.354 432.685 279.322 432.69 279.29L433.36 274.07C433.404 273.743 433.68 273.497 434.01 273.49L440.56 273.49C440.836 273.486 441.063 273.707 441.066 273.983 441.067 274.012 441.065 274.041 441.06 274.07L440.39 279.29C440.346 279.617 440.07 279.863 439.74 279.87Z" fill="#FFFFFF" transform="translate(-49.33 -74.63)"/><path d="M438.7 288 432.16 288C431.884 288.009 431.653 287.793 431.644 287.517 431.643 287.484 431.645 287.452 431.65 287.42L432.32 282.2C432.364 281.873 432.64 281.627 432.97 281.62L439.52 281.62C439.79 281.61 440.018 281.821 440.028 282.091 440.029 282.128 440.027 282.164 440.02 282.2L439.36 287.42C439.307 287.747 439.031 287.99 438.7 288Z" fill="#FFFFFF" transform="translate(-49.33 -74.63)"/><path d="M437.66 296.09 431.12 296.09C430.844 296.099 430.613 295.883 430.604 295.607 430.603 295.574 430.605 295.542 430.61 295.51L431.28 290.29C431.329 289.961 431.608 289.716 431.94 289.71L438.48 289.71C438.756 289.701 438.987 289.917 438.996 290.193 438.997 290.226 438.995 290.258 438.99 290.29L438.32 295.51C438.271 295.839 437.992 296.084 437.66 296.09Z" fill="#FFFFFF" transform="translate(-49.33 -74.63)"/><path d="M436.62 304.2 430.08 304.2C429.798 304.203 429.567 303.978 429.564 303.696 429.563 303.667 429.565 303.639 429.57 303.61L430.24 298.4C430.289 298.071 430.568 297.826 430.9 297.82L437.44 297.82C437.716 297.811 437.947 298.027 437.956 298.303 437.957 298.336 437.955 298.368 437.95 298.4L437.28 303.61C437.236 303.943 436.955 304.193 436.62 304.2Z" fill="#FFFFFF" transform="translate(-49.33 -74.63)"/><path d="M435.58 312.3 429 312.3C428.73 312.31 428.502 312.099 428.492 311.829 428.491 311.792 428.493 311.756 428.5 311.72L429.16 306.51C429.209 306.181 429.488 305.936 429.82 305.93L436.36 305.93C436.636 305.921 436.867 306.137 436.876 306.413 436.877 306.446 436.875 306.478 436.87 306.51L436.2 311.72C436.154 312.034 435.897 312.275 435.58 312.3Z" fill="#FFFFFF" transform="translate(-49.33 -74.63)"/><path d="M434.55 320.41 428 320.41C427.724 320.414 427.497 320.193 427.494 319.917 427.493 319.888 427.495 319.859 427.5 319.83L428.16 314.62C428.213 314.293 428.489 314.05 428.82 314.04L435.36 314.04C435.636 314.031 435.867 314.247 435.876 314.523 435.877 314.556 435.875 314.588 435.87 314.62L435.2 319.83C435.156 320.157 434.88 320.403 434.55 320.41Z" fill="#FFFFFF" transform="translate(-49.33 -74.63)"/><path d="M424.39 320.41 381.86 320.41C381.672 320.419 381.513 320.273 381.505 320.086 381.504 320.06 381.505 320.035 381.51 320.01L387.41 273.89C387.448 273.664 387.641 273.496 387.87 273.49L430.4 273.49C430.593 273.488 430.752 273.643 430.754 273.836 430.754 273.854 430.753 273.872 430.75 273.89L424.84 320C424.811 320.228 424.62 320.402 424.39 320.41Z" fill="#FFFFFF" transform="translate(-49.33 -74.63)"/><path d="M443.75 267.3 376.1 267.3C375.714 267.311 375.391 267.007 375.38 266.621 375.379 266.574 375.382 266.526 375.39 266.48L376.26 259.63C376.339 259.17 376.724 258.826 377.19 258.8L444.84 258.8C445.238 258.795 445.564 259.114 445.568 259.511 445.569 259.551 445.566 259.591 445.56 259.63L444.68 266.48C444.597 266.936 444.212 267.275 443.75 267.3Z" fill="#7E89FD" transform="translate(-49.33 -74.63)"/><path d="M435.73 328.73 368.39 328.73C367.926 328.744 367.539 328.38 367.525 327.916 367.523 327.854 367.528 327.791 367.54 327.73L367.54 327.73C367.609 327.171 368.077 326.746 368.64 326.73L436 326.73C436.464 326.716 436.851 327.08 436.865 327.544 436.867 327.606 436.862 327.669 436.85 327.73L436.85 327.73C436.78 328.297 436.301 328.724 435.73 328.73Z" fill="#A1ACFF" transform="translate(-49.33 -74.63)"/><path d="M435.2 332.86 367.86 332.86C367.402 332.881 367.014 332.527 366.993 332.069 366.99 331.999 366.996 331.929 367.01 331.86L367.01 331.86C367.079 331.301 367.547 330.876 368.11 330.86L435.45 330.86C435.914 330.846 436.301 331.21 436.315 331.674 436.317 331.736 436.312 331.799 436.3 331.86L436.3 331.86C436.231 332.419 435.763 332.844 435.2 332.86Z" fill="#A1ACFF" transform="translate(-49.33 -74.63)"/><path d="M415.58 337 367.33 337C366.866 337.014 366.479 336.65 366.465 336.186 366.463 336.124 366.468 336.061 366.48 336L366.48 336C366.549 335.441 367.017 335.016 367.58 335L415.83 335C416.294 334.986 416.681 335.35 416.695 335.814 416.697 335.876 416.692 335.939 416.68 336L416.68 336C416.607 336.557 416.142 336.98 415.58 337Z" fill="#A1ACFF" transform="translate(-49.33 -74.63)"/><path d="M516.75 324.1 448.75 324.1C448.435 324.104 448.177 323.852 448.173 323.537 448.172 323.505 448.175 323.472 448.18 323.44L454.96 270.44C455.013 270.064 455.33 269.781 455.71 269.77L523.71 269.77C524.025 269.765 524.284 270.016 524.289 270.331 524.289 270.368 524.286 270.404 524.28 270.44L517.5 323.44C517.442 323.812 517.127 324.09 516.75 324.1Z" fill="#7E89FD" transform="translate(-49.33 -74.63)"/><path d="M463.33 279.87 456.78 279.87C456.504 279.874 456.277 279.653 456.274 279.376 456.273 279.348 456.275 279.319 456.28 279.29L456.95 274.07C456.994 273.743 457.27 273.497 457.6 273.49L464.15 273.49C464.426 273.486 464.653 273.707 464.656 273.983 464.657 274.012 464.655 274.041 464.65 274.07L463.98 279.29C463.936 279.617 463.66 279.863 463.33 279.87Z" fill="#FFFFFF" transform="translate(-49.33 -74.63)"/><path d="M462.29 288 455.75 288C455.474 288.009 455.243 287.793 455.234 287.517 455.233 287.484 455.235 287.452 455.24 287.42L455.91 282.2C455.954 281.873 456.23 281.627 456.56 281.62L463.11 281.62C463.386 281.616 463.613 281.837 463.616 282.113 463.617 282.142 463.615 282.171 463.61 282.2L462.94 287.42C462.896 287.747 462.62 287.993 462.29 288Z" fill="#FFFFFF" transform="translate(-49.33 -74.63)"/><path d="M461.25 296.09 454.71 296.09C454.434 296.099 454.203 295.883 454.194 295.607 454.193 295.574 454.195 295.542 454.2 295.51L454.87 290.29C454.914 289.963 455.19 289.717 455.52 289.71L462.07 289.71C462.346 289.706 462.573 289.927 462.576 290.203 462.577 290.232 462.575 290.261 462.57 290.29L461.91 295.51C461.857 295.837 461.581 296.08 461.25 296.09Z" fill="#FFFFFF" transform="translate(-49.33 -74.63)"/><path d="M460.21 304.2 453.67 304.2C453.388 304.203 453.157 303.978 453.154 303.696 453.153 303.667 453.155 303.639 453.16 303.61L453.83 298.4C453.874 298.073 454.15 297.827 454.48 297.82L461 297.82C461.27 297.81 461.498 298.021 461.508 298.291 461.509 298.328 461.507 298.364 461.5 298.4L460.84 303.61C460.798 303.932 460.534 304.179 460.21 304.2Z" fill="#FFFFFF" transform="translate(-49.33 -74.63)"/><path d="M459.17 312.3 452.63 312.3C452.354 312.309 452.123 312.093 452.114 311.817 452.113 311.784 452.115 311.752 452.12 311.72L452.79 306.51C452.839 306.181 453.118 305.936 453.45 305.93L460 305.93C460.276 305.921 460.507 306.137 460.516 306.413 460.517 306.446 460.515 306.478 460.51 306.51L459.84 311.72C459.791 312.052 459.506 312.299 459.17 312.3Z" fill="#FFFFFF" transform="translate(-49.33 -74.63)"/><path d="M458.13 320.41 451.59 320.41C451.314 320.419 451.083 320.203 451.074 319.927 451.073 319.894 451.075 319.862 451.08 319.83L451.75 314.62C451.799 314.291 452.078 314.046 452.41 314.04L459 314.04C459.276 314.031 459.507 314.247 459.516 314.523 459.517 314.556 459.515 314.588 459.51 314.62L458.84 319.83C458.789 320.178 458.481 320.429 458.13 320.41Z" fill="#FFFFFF" transform="translate(-49.33 -74.63)"/><path d="M519.86 279.87 513.31 279.87C513.034 279.874 512.807 279.653 512.804 279.376 512.803 279.348 512.805 279.319 512.81 279.29L513.48 274.07C513.524 273.743 513.8 273.497 514.13 273.49L520.67 273.49C520.946 273.481 521.177 273.697 521.186 273.973 521.187 274.006 521.185 274.038 521.18 274.07L520.51 279.29C520.466 279.617 520.19 279.863 519.86 279.87Z" fill="#FFFFFF" transform="translate(-49.33 -74.63)"/><path d="M518.82 288 512.27 288C511.994 288.004 511.767 287.783 511.764 287.507 511.763 287.478 511.765 287.449 511.77 287.42L512.44 282.2C512.484 281.873 512.76 281.627 513.09 281.62L519.64 281.62C519.916 281.616 520.143 281.837 520.146 282.113 520.147 282.142 520.145 282.171 520.14 282.2L519.47 287.42C519.426 287.747 519.15 287.993 518.82 288Z" fill="#FFFFFF" transform="translate(-49.33 -74.63)"/><path d="M517.78 296.09 511.24 296.09C510.964 296.099 510.733 295.883 510.724 295.607 510.723 295.574 510.725 295.542 510.73 295.51L511.4 290.29C511.444 289.963 511.72 289.717 512.05 289.71L518.6 289.71C518.876 289.706 519.103 289.927 519.106 290.203 519.107 290.232 519.105 290.261 519.1 290.29L518.43 295.51C518.386 295.837 518.11 296.083 517.78 296.09Z" fill="#FFFFFF" transform="translate(-49.33 -74.63)"/><path d="M516.74 304.2 510.2 304.2C509.918 304.203 509.687 303.978 509.684 303.696 509.683 303.667 509.685 303.639 509.69 303.61L510.36 298.4C510.404 298.073 510.68 297.827 511.01 297.82L517.56 297.82C517.836 297.816 518.063 298.037 518.066 298.314 518.067 298.342 518.065 298.371 518.06 298.4L517.4 303.61C517.352 303.94 517.074 304.189 516.74 304.2Z" fill="#FFFFFF" transform="translate(-49.33 -74.63)"/><path d="M515.7 312.3 509.16 312.3C508.884 312.309 508.653 312.093 508.644 311.817 508.643 311.784 508.645 311.752 508.65 311.72L509.32 306.51C509.369 306.181 509.648 305.936 509.98 305.93L516.52 305.93C516.79 305.92 517.018 306.131 517.028 306.401 517.029 306.438 517.027 306.474 517.02 306.51L516.36 311.72C516.311 312.049 516.032 312.294 515.7 312.3Z" fill="#FFFFFF" transform="translate(-49.33 -74.63)"/><path d="M514.66 320.41 508.12 320.41C507.844 320.419 507.613 320.203 507.604 319.927 507.603 319.894 507.605 319.862 507.61 319.83L508.28 314.62C508.329 314.291 508.608 314.046 508.94 314.04L515.48 314.04C515.756 314.031 515.987 314.247 515.996 314.523 515.997 314.556 515.995 314.588 515.99 314.62L515.32 319.83C515.271 320.159 514.992 320.404 514.66 320.41Z" fill="#FFFFFF" transform="translate(-49.33 -74.63)"/><path d="M504.51 320.41 462 320.41C461.807 320.412 461.648 320.257 461.646 320.064 461.646 320.046 461.647 320.028 461.65 320.01L467.56 273.89C467.594 273.665 467.783 273.497 468.01 273.49L510.55 273.49C510.743 273.488 510.902 273.643 510.904 273.836 510.904 273.854 510.903 273.872 510.9 273.89L505 320C504.969 320.244 504.755 320.422 504.51 320.41Z" fill="#FFFFFF" transform="translate(-49.33 -74.63)"/><path d="M523.86 267.3 456.22 267.3C455.828 267.31 455.502 267.001 455.492 266.609 455.491 266.566 455.493 266.523 455.5 266.48L456.38 259.63C456.459 259.17 456.844 258.826 457.31 258.8L525 258.8C525.392 258.789 525.719 259.097 525.73 259.489 525.731 259.536 525.728 259.584 525.72 259.63L524.85 266.48C524.763 266.957 524.345 267.303 523.86 267.3Z" fill="#7E89FD" transform="translate(-49.33 -74.63)"/><path d="M515.84 328.73 448.51 328.73C448.041 328.743 447.65 328.373 447.637 327.904 447.635 327.846 447.64 327.787 447.65 327.73L447.65 327.73C447.728 327.171 448.196 326.749 448.76 326.73L516.09 326.73C516.559 326.717 516.95 327.087 516.963 327.556 516.965 327.615 516.96 327.673 516.95 327.73L516.95 327.73C516.872 328.289 516.404 328.711 515.84 328.73Z" fill="#A1ACFF" transform="translate(-49.33 -74.63)"/><path d="M515.31 332.86 448 332.86C447.531 332.873 447.14 332.503 447.127 332.034 447.125 331.975 447.13 331.917 447.14 331.86L447.14 331.86C447.218 331.301 447.686 330.879 448.25 330.86L515.58 330.86C516.049 330.847 516.44 331.217 516.453 331.686 516.455 331.744 516.45 331.803 516.44 331.86L516.44 331.86C516.365 332.428 515.883 332.855 515.31 332.86Z" fill="#A1ACFF" transform="translate(-49.33 -74.63)"/><path d="M495.69 337 447.45 337C446.981 337.013 446.59 336.643 446.577 336.174 446.575 336.116 446.58 336.057 446.59 336L446.59 336C446.664 335.439 447.134 335.015 447.7 335L495.94 335C496.398 334.979 496.786 335.333 496.807 335.791 496.81 335.861 496.804 335.931 496.79 336L496.79 336C496.721 336.559 496.253 336.984 495.69 337Z" fill="#A1ACFF" transform="translate(-49.33 -74.63)"/><path d="M240.4 307.39 240.4 307.39Z" fill="#29394A" transform="translate(-49.33 -74.63)"/><path d="M198.35 428 198.35 433.68C200.528 434.75 203.091 434.694 205.22 433.53L205.69 428.53C203.232 428.576 200.776 428.399 198.35 428Z" fill="#FFAFAC" transform="translate(-49.33 -74.63)"/><path d="M242.3 433.57 242.58 428.76C240.159 429.1 237.701 429.1 235.28 428.76L235.45 433.61C237.591 434.764 240.173 434.749 242.3 433.57Z" fill="#FFAFAC" transform="translate(-49.33 -74.63)"/><path d="M243.31 428.83C243.31 428.83 246.53 384.28 246.9 375.93 246.9 375.29 246.9 372.41 246.82 371.37 244.35 332.54 240.52 308.15 240.4 307.37 240.4 307.65 240.46 309.53 233.87 309.16 224.87 308.66 211.17 306.4 211.17 306.4 202.1 305.54 199.23 330.92 199.92 341.57 200.414 351.081 200.29 360.615 199.55 370.11 194.74 396.24 197.24 427.93 197.24 427.93 200.357 428.695 203.593 428.854 206.77 428.4 206.77 428.4 213.03 389.57 222.86 344.64 224.67 351.4 227.86 361.06 230.35 368.59 230.35 368.64 231.16 370.92 231.16 370.92 230.76 374.64 229.67 392.97 231.16 404.43 232.16 411.8 233.48 428.7 233.48 428.7 236.72 429.353 240.054 429.397 243.31 428.83Z" fill="#002C54" transform="translate(-49.33 -74.63)"/><path d="M230.35 368.61C227.84 361.08 224.67 351.42 222.86 344.66L226.6 331.43C226.6 331.43 226.9 357.17 230.35 368.61Z" fill="#00293D" transform="translate(-49.33 -74.63)"/><path d="M252.29 259.65 265.63 280.91C265.63 280.91 267.19 290.18 259.72 288.86 252.25 287.54 242.11 268.31 242.11 268.31" fill="#FFAFAC" transform="translate(-49.33 -74.63)"/><path d="M250.31 281.06C250.31 281.06 255.31 288.06 258.01 288.68 260.21 289.2 263.51 289.36 265.17 286.79 266.83 284.22 274.03 269.58 278.39 255.62 277.037 255.1 275.718 254.495 274.44 253.81 274.44 253.81 270.44 259.08 265.63 265.52 259.37 274 255.51 278.89 255.51 278.89" fill="#FFAFAC" transform="translate(-49.33 -74.63)"/><path d="M259.26 268.32C259.26 268.32 255.01 273.78 248.92 276.12 248.082 276.443 247.223 276.711 246.35 276.92L245.49 277.09 240.37 268.82 236.59 262.71 242.9 245.71C242.9 245.71 248.14 250.12 259.26 268.32Z" fill="#FFFFFF" transform="translate(-49.33 -74.63)"/><path d="M246.35 276.92 245.49 277.09 240.37 268.82C241.13 267.5 241.79 266.4 241.79 266.4L244.45 265.88C244.878 269.592 245.513 273.278 246.35 276.92Z" fill="#005272" transform="translate(-49.33 -74.63)"/><path d="M240.35 288C238.88 296.72 243.35 310.42 241 310.7 241.47 313.39 231.84 314.57 226 314.57 219.46 314.57 208.6 311.57 205.25 309.64 204.96 309.48 203.6 307.41 205.77 301.01 206.267 299.545 206.635 298.039 206.87 296.51 207.87 289.74 208.21 283.95 206.82 278.56 206.05 275.62 205.15 272.85 204.26 270.24 202.03 263.68 199.97 258.05 200.86 252.81 201.765 251.243 202.849 249.786 204.09 248.47 205.979 246.34 208.343 244.686 210.99 243.64L211.05 243.64C215.518 242.429 220.099 241.682 224.72 241.41 234.41 241.12 239.08 242.52 242.51 245.35 245.39 247.73 245.73 257.43 244.04 268.65 243.18 274.5 241.4 281.74 240.35 288Z" fill="#FFFFFF" transform="translate(-49.33 -74.63)"/><path d="M237.58 214.09C237.58 214.09 238.58 222.47 235.89 223.32 233.2 224.17 233.48 220.52 233.48 220.52L233.48 216.52" fill="#192C51" transform="translate(-49.33 -74.63)"/><path d="M217.29 243.42C217.81 242.19 217.48 241.24 217.74 239.65 218.282 235.487 218.469 231.285 218.3 227.09L225.03 232.75 228.2 235.42C228.54 237.01 229.1 239.05 229.57 240.7 229.886 241.683 229.844 242.746 229.45 243.7Z" fill="#FFAFAC" transform="translate(-49.33 -74.63)"/><path d="M220.86 232.76C220.86 232.76 223.56 238.76 229.58 240.69 229.1 239.04 228.58 237.01 228.2 235.42L225 232.75Z" fill="#CC6362" opacity="0.32" transform="translate(-49.33 -74.63)"/><path d="M236.42 219.69C236.42 219.69 237.77 233.88 233.14 236.46 230.59 237.87 225.22 237.33 221.74 234.08 220.285 232.567 219.203 230.735 218.58 228.73 217.42 225.54 215.64 219.62 216.77 215.83 218.38 210.43 235 207.09 236.42 219.69Z" fill="#FFAFAC" transform="translate(-49.33 -74.63)"/><path d="M239.88 207.81C232.64 207.01 226.71 205.87 226.71 205.87L226.71 205.87C223.061 205.396 219.469 207.081 217.5 210.19 209.81 212.92 214.93 224.7 214.93 224.7L214.93 224.7C215.57 226.77 216.27 228.34 216.41 229.01 217.41 233.86 218.25 234.49 218.25 234.49 218.25 234.49 219.25 229.23 219.94 225.49 220 225.21 220.06 224.96 220.13 224.71 222.13 224.52 224.26 224.05 225.28 222.98 227.64 220.52 225.79 218.41 226.12 216.51 227.23 217.02 229.47 216.93 232.29 217.13 239.39 217.59 241.53 209.46 239.88 207.81Z" fill="#192C51" transform="translate(-49.33 -74.63)"/><path d="" stroke="#FFFFFF" stroke-width="0.4" stroke-miterlimit="10" fill="none" transform="translate(-49.33 -74.63)"/><path d="" stroke="#FFFFFF" stroke-width="0.4" stroke-miterlimit="10" fill="none" transform="translate(-49.33 -74.63)"/><path d="M222.6 228.62C219.37 230.39 217.18 222.15 220.36 221.34 222.77 220.73 223.36 224.14 223.36 224.14 223.36 224.14 224.44 227.62 222.6 228.62Z" fill="#FFAFAC" transform="translate(-49.33 -74.63)"/><path d="M206.5 266.23C203.828 271.591 200.843 276.79 197.56 281.8 196.17 283.8 193.7 286.98 192.73 287.45 189.59 288.97 185.47 284.72 183.73 282.58 183.73 282.19 183.73 281.8 183.83 281.42 183.83 281.34 183.83 281.26 183.83 281.19 183.821 281.104 183.821 281.016 183.83 280.93 183.847 280.758 183.877 280.587 183.92 280.42 184.202 279.22 184.583 278.046 185.06 276.91 185.56 275.67 186.06 274.57 186.23 274.18L186.23 274.18 186.23 274.11 186.23 274.03C189.88 266.59 195.4 256.24 195.4 256.24Z" fill="#FFAFAC" transform="translate(-49.33 -74.63)"/><path d="M208.72 264.24 206.85 278.57C206.08 275.63 205.18 272.86 204.29 270.25Z" fill="#E8E9ED" transform="translate(-49.33 -74.63)"/><path d="M211.45 259.94C209.58 265.05 204.45 274.56 204.45 274.56 201.61 274.7 198.2 273.23 195.32 271.56 193.018 270.209 190.807 268.709 188.7 267.07 190.456 263.466 192.436 259.976 194.63 256.62 196.594 253.693 198.897 251.008 201.49 248.62 202.877 247.45 204.393 246.443 206.01 245.62Z" fill="#FFFFFF" transform="translate(-49.33 -74.63)"/><path d="M211 243.65C211 243.65 204 245.75 202.08 248.65 200.16 251.55 197.17 262.65 197.17 262.65L204.91 259.31" fill="#FFFFFF" transform="translate(-49.33 -74.63)"/><path d="M285.56 244.89C285.38 245.35 285.46 247.75 282.04 250.49 280.668 252.095 279.446 253.822 278.39 255.65L274.03 254.55C274.03 254.55 274.27 247.3 275.63 245.04 276.097 244.955 276.544 245.264 276.63 245.73 276.91 246.6 276.16 248.14 276.44 248.95 276.72 249.76 277.2 249.43 277.79 249 278.38 248.57 282.04 243.84 282.62 243.88 283.2 243.92 285.59 244.34 285.56 244.89Z" fill="#FFAFAC" transform="translate(-49.33 -74.63)"/><path d="M205.28 309.65C216.843 313.398 229.235 313.766 241 310.71 241.666 312.354 241.877 314.147 241.61 315.9 241.61 315.9 221.89 320.72 203.61 314 203.89 312.459 204.457 310.983 205.28 309.65Z" fill="#1F2B38" transform="translate(-49.33 -74.63)"/><path d="M227.26 312.88C227.26 313.68 227.31 316.06 227.26 317.35 227.249 317.499 227.36 317.628 227.509 317.639 227.519 317.64 227.53 317.64 227.54 317.64 229.307 317.635 231.073 317.538 232.83 317.35 232.959 317.323 233.054 317.212 233.06 317.08 233.128 315.536 233.088 313.989 232.94 312.45 232.919 312.303 232.788 312.198 232.64 312.21 231.89 312.3 229.64 312.53 227.53 312.6 227.381 312.61 227.265 312.731 227.26 312.88Z" fill="#2B435D" transform="translate(-49.33 -74.63)"/><rect x="250.01" y="176.95" width="14.72" height="168.86" fill="#EAAB37" transform="matrix(-0.737041 -0.675848 0.675848 -0.737041 221.09 553.34)"/><rect x="192.22" y="323.32" width="14.72" height="2.15" fill="#D4D4D4" transform="matrix(-0.737041 -0.675848 0.675848 -0.737041 78.11 623.76)"/><rect x="189.31" y="326.5" width="14.72" height="2.15" fill="#D4D4D4" transform="matrix(-0.737041 -0.675848 0.675848 -0.737041 70.91 627.3)"/><rect x="190.77" y="324.91" width="14.72" height="2.15" fill="#B5B5B5" transform="matrix(-0.737041 -0.675848 0.675848 -0.737041 74.51 625.53)"/><rect x="195.94" y="324.77" width="10.44" height="2.15" fill="#C4C4C4" transform="matrix(-0.737041 -0.675848 0.675848 -0.737041 79.87 627.33)"/><rect x="193.03" y="327.94" width="10.44" height="2.15" fill="#C4C4C4" transform="matrix(-0.737041 -0.675848 0.675848 -0.737041 72.67 630.88)"/><rect x="194.48" y="326.36" width="10.44" height="2.15" fill="#A5A5A5" transform="matrix(-0.737041 -0.675848 0.675848 -0.737041 76.27 629.11)"/><rect x="201.29" y="326.85" width="4.28" height="2.15" fill="#BABABA" transform="matrix(-0.737041 -0.675848 0.675848 -0.737041 82.4 632.48)"/><rect x="198.38" y="330.02" width="4.28" height="2.15" fill="#BABABA" transform="matrix(-0.737041 -0.675848 0.675848 -0.737041 75.21 636.03)"/><rect x="199.84" y="328.44" width="4.28" height="2.15" fill="#9C9C9C" transform="matrix(-0.737041 -0.675848 0.675848 -0.737041 78.8 634.26)"/><path d="M189.4 335.51 189.4 335.51C192.395 338.251 197.044 338.05 199.79 335.06L201.37 333.34 190.52 323.39 189 325.11C186.239 328.092 186.418 332.748 189.4 335.51Z" fill="#D86666" transform="translate(-49.33 -74.63)"/><path d="M189.72 332 189.72 332C191.85 333.94 195.146 333.797 197.1 331.68L198.21 330.46 190.52 323.4 189.4 324.62C187.46 326.75 187.603 330.046 189.72 332Z" fill="#DD6E6B" transform="translate(-49.33 -74.63)"/><path d="M190.19 327 190.19 327C191.072 327.807 192.44 327.749 193.25 326.87L193.71 326.36 190.52 323.43 190.06 323.94C189.253 324.822 189.311 326.19 190.19 327Z" fill="#E1746C" transform="translate(-49.33 -74.63)"/><path d="M309 194.17 319.85 204.17 321.18 201.23 325.93 190.79 329.14 183.72C329.212 183.563 329.176 183.378 329.05 183.26 328.923 183.139 328.733 183.115 328.58 183.2L321.82 187Z" fill="#F2D286" transform="translate(-49.33 -74.63)"/><path d="M321.82 187C322.34 188.953 323.949 190.425 325.94 190.77L329.15 183.69C329.234 183.486 329.138 183.252 328.933 183.167 328.826 183.123 328.704 183.127 328.6 183.18Z" fill="#5B5B5B" transform="translate(-49.33 -74.63)"/><path d="M329.06 183.21 317.2 200.52 317.2 200.52 316.72 201.21C317.867 199.954 319.815 199.865 321.071 201.012 321.074 201.015 321.077 201.017 321.08 201.02 321.125 201.058 321.165 201.102 321.2 201.15L325.95 190.71 329.16 183.64C329.216 183.49 329.177 183.32 329.06 183.21Z" fill="#5B5B5B" opacity="0.2" transform="translate(-49.33 -74.63)"/><path d="M312.16 197.06C311.002 198.314 311.08 200.269 312.334 201.426 313.588 202.584 315.543 202.506 316.701 201.252 317.858 199.999 317.78 198.044 316.526 196.886 316.524 196.884 316.522 196.882 316.52 196.88 315.271 195.726 313.322 195.802 312.168 197.052 312.165 197.054 312.163 197.057 312.16 197.06Z" fill="#EAAB37" transform="translate(-49.33 -74.63)"/><path d="M317.19 200.55 316.71 201.24C316.901 201.033 317.062 200.801 317.19 200.55Z" fill="#EAAB37" transform="translate(-49.33 -74.63)"/><path d="M321.07 201.05 321.2 201.17 319.86 204.17 205.73 328.58 202.58 325.69 316.71 201.23C317.86 199.976 319.808 199.893 321.062 201.042 321.064 201.045 321.067 201.047 321.07 201.05Z" fill="#E19D31" transform="translate(-49.33 -74.63)"/><path d="M309 194.18 311.82 192.59C311.873 192.618 311.92 192.656 311.96 192.7 313.216 193.847 313.305 195.795 312.158 197.051 312.155 197.054 312.153 197.057 312.15 197.06L312.15 197.06 198 321.52 194.86 318.63 307.06 196.28 307.06 196.28Z" fill="#EFC24E" transform="translate(-49.33 -74.63)"/><path d="M220.16 307.57C219.061 307.672 217.953 307.645 216.86 307.49 216.2 307.44 215.77 307.7 214.86 307.66 213.925 307.573 213.039 307.203 212.32 306.6L211.99 306.31 211.99 306.31C208.744 303.163 205.736 299.781 202.99 296.19 201.2 293.91 192.99 283.12 192.99 283.12L189.29 279.75C188.292 280.468 187.352 281.263 186.48 282.13 186.355 282.252 186.238 282.383 186.13 282.52L185.82 282.9C185.58 283.2 185.34 283.51 185.12 283.83 183.34 286.37 182.2 289.72 185.3 292.5L186.15 293.23C190.75 297.1 207.01 309.9 207.01 309.9 209.4 311.79 211.83 315.08 212.64 315.7 213.45 316.32 215.56 318.25 216.49 317.96 216.81 317.86 216.82 317.53 217.01 317.3 217.2 317.07 217.87 317.14 218.15 316.68 218.43 316.22 218.15 316.15 218.53 315.68 218.91 315.21 219.37 315.38 219.53 315.11 219.69 314.84 219.66 314.41 219.75 314.24 219.84 314.07 220.43 314.07 220.67 313.74 221.069 313.259 221.069 312.561 220.67 312.08 219.47 312.67 217.18 310.31 217.26 310.23 217.653 309.893 218.104 309.628 218.59 309.45 219.09 309.33 220.9 309.03 221.15 308.21 221.4 307.39 221.09 307.38 220.16 307.57Z" fill="#FFAFAC" transform="translate(-49.33 -74.63)"/><path d="M186.16 274.57C186.16 274.57 180.16 286.82 184.61 291.88 189.06 296.94 189.85 282.71 189.88 282.45 189.91 282.19 186.16 274.57 186.16 274.57Z" fill="#FFAFAC" transform="translate(-49.33 -74.63)"/><path d="M215.82 242.53 217.74 239.65C217.74 239.65 218.44 241.47 226.45 243.58L225.2 248.09C221.658 247.05 218.432 245.139 215.82 242.53Z" fill="#E8E9ED" transform="translate(-49.33 -74.63)"/><path d="M229.33 239.82C229.33 239.82 229.53 240.69 228.33 242.1 227.737 242.638 227.105 243.133 226.44 243.58L228.63 247.39C228.63 247.39 230.46 245.56 230.46 241.44Z" fill="#E8E9ED" transform="translate(-49.33 -74.63)"/><path d="M256 439.6 234.54 439.6C233.454 436.7 233.752 433.463 235.35 430.81 235.35 430.81 237.12 432.23 242.44 431.27 243.604 432.261 244.859 433.138 246.19 433.89 247.73 434.64 256.56 436.37 256 439.6Z" fill="#1E2A36" transform="translate(-49.33 -74.63)"/><path d="M198.35 430C200.604 430.967 203.113 431.164 205.49 430.56 205.907 431.203 206.243 431.895 206.49 432.62 206.93 433.83 209.57 436.23 210.08 438.83 210.141 439.173 209.912 439.5 209.57 439.56 209.533 439.567 209.497 439.57 209.46 439.57L196.65 439.57C196.353 439.577 196.092 439.371 196.03 439.08 195.487 435.862 196.329 432.563 198.35 430Z" fill="#1E2A36" transform="translate(-49.33 -74.63)"/><g opacity="0.5"><path d="M220.42 222.7C220.685 222.736 220.936 222.839 221.15 223 221.378 223.167 221.577 223.369 221.74 223.6 221.916 223.872 222.041 224.174 222.11 224.49 222.183 224.798 222.206 225.115 222.18 225.43 222.157 225.698 222.106 225.962 222.03 226.22 221.973 226.402 221.903 226.579 221.82 226.75L221.72 226.94C221.72 226.94 221.72 226.62 221.72 226.18 221.72 225.95 221.72 225.7 221.72 225.43 221.704 225.157 221.664 224.886 221.6 224.62 221.499 224.124 221.291 223.657 220.99 223.25 220.825 223.042 220.633 222.857 220.42 222.7Z" fill="#CC6362" transform="translate(-49.33 -74.63)"/><path d="M220.1 224.37C220.213 224.334 220.331 224.317 220.45 224.32 220.72 224.3 220.991 224.344 221.24 224.45 221.507 224.554 221.747 224.718 221.94 224.93 222.03 225.024 222.114 225.124 222.19 225.23L221.65 225.51C221.621 225.412 221.581 225.318 221.53 225.23 221.427 225.027 221.28 224.85 221.1 224.71 220.904 224.563 220.679 224.461 220.44 224.41 220.329 224.38 220.215 224.367 220.1 224.37Z" fill="#CC6362" transform="translate(-49.33 -74.63)"/></g><path d="M284.76 245.88C284.4 244.82 281.76 243.36 281.15 243.24 280.54 243.12 280.15 244.09 280.77 245.03 281.407 245.827 282.147 246.537 282.97 247.14 282.97 247.14 285.21 247.18 284.76 245.88Z" fill="#FFAFAC" transform="translate(-49.33 -74.63)"/><path d="M285.69 244.55C285.52 243.64 283.56 242.12 283.07 241.94 282.58 241.76 282.14 242.51 282.53 243.35 282.951 244.083 283.469 244.755 284.07 245.35 284.07 245.35 285.89 245.67 285.69 244.55Z" fill="#FFAFAC" transform="translate(-49.33 -74.63)"/><path d="M284 247.09C282.788 245.944 281.36 245.05 279.8 244.46 279.1 244.37 278.8 245.46 279.52 246.46 280.398 247.317 281.412 248.023 282.52 248.55 282.52 248.55 285 248.23 284 247.09Z" fill="#FFAFAC" transform="translate(-49.33 -74.63)"/><path d="M282.33 248.2C281.156 247.561 279.944 246.997 278.7 246.51 278.2 246.51 277.97 247.25 278.53 247.95 279.189 248.724 280.068 249.278 281.05 249.54 281.84 249.69 283.45 248.83 282.33 248.2Z" fill="#FFAFAC" transform="translate(-49.33 -74.63)"/><path d="M682.94 178 682.94 220.3C682.94 221.957 681.597 223.3 679.94 223.3L637.64 223.3C635.983 223.3 634.64 221.957 634.64 220.3L634.64 178C634.64 176.343 635.983 175 637.64 175L680 175C681.633 175.033 682.94 176.366 682.94 178Z" fill="#DEE3FC" transform="translate(-49.33 -74.63)"/><path d="M686.33 175 686.33 223.24C686.325 225.118 684.798 226.636 682.92 226.63L634.68 226.63C632.801 226.636 631.271 225.119 631.26 223.24L631.26 175C631.26 173.117 632.787 171.59 634.67 171.59 634.673 171.59 634.677 171.59 634.68 171.59L682.92 171.59C684.803 171.59 686.33 173.117 686.33 175Z" stroke="#FFFFFF" stroke-width="1.31" stroke-miterlimit="10" fill="none" transform="translate(-49.33 -74.63)"/><path d="M682.94 214.74 682.94 220.31C682.94 221.967 681.597 223.31 679.94 223.31L653.46 223.31 664.16 207.6 669.58 199.6C670.154 198.755 671.305 198.536 672.15 199.11 672.343 199.241 672.509 199.407 672.64 199.6Z" fill="#C3D2F4" transform="translate(-49.33 -74.63)"/><path d="M677.1 184.82C677.1 187.841 674.651 190.29 671.63 190.29 668.609 190.29 666.16 187.841 666.16 184.82 666.16 181.799 668.609 179.35 671.63 179.35 674.651 179.35 677.1 181.799 677.1 184.82Z" fill="#FFFFFF" transform="translate(-49.33 -74.63)"/><path d="M674.85 223.29 637.65 223.29C635.993 223.29 634.65 221.947 634.65 220.29L634.65 215.19 650.47 192C651.059 191.172 652.207 190.977 653.036 191.566 653.204 191.685 653.351 191.832 653.47 192L664.11 207.6Z" fill="#F5F7FF" transform="translate(-49.33 -74.63)"/><path d="M217.64 89.16 217.64 90C217.64 92.2091 215.849 94 213.64 94L185 94C182.791 94 181 95.7909 181 98L181 136.53C181.006 139 183.01 141 185.48 141L243.43 141C245.639 141 247.43 139.209 247.43 137L247.43 89.16C247.43 86.8625 245.568 84.9999 243.27 84.9997 243.254 84.9997 243.237 84.9998 243.22 85L221.81 85C219.511 85 217.646 86.8609 217.64 89.16Z" fill="#C3D2F4" transform="translate(-49.33 -74.63)"/><path d="M243.07 141 188.43 141 177.71 99.64C177.445 98.619 178.058 97.5764 179.079 97.3113 179.236 97.2705 179.398 97.2499 179.56 97.25L228.39 97.25C230.361 97.2503 232.084 98.5821 232.58 100.49Z" fill="#EBF3FF" transform="translate(-49.33 -74.63)"/><path d="M239.38 141 185.09 141 175.25 103C175.007 102.065 175.568 101.109 176.504 100.866 176.646 100.829 176.793 100.81 176.94 100.81L225.94 100.81C227.752 100.825 229.327 102.056 229.78 103.81Z" fill="#FFFFFF" transform="translate(-49.33 -74.63)"/><path d="M237.7 137.09 237.38 135.87 237.38 135.87 230.77 110.5C230.146 108.101 227.979 106.428 225.5 106.43L175.2 106.43C173.77 106.427 172.608 107.584 172.604 109.014 172.604 109.239 172.633 109.463 172.69 109.68L179.69 136.44C180.387 139.127 182.814 141.002 185.59 141L243.1 141C240.62 141.078 238.4 139.471 237.7 137.09Z" fill="#DEE3FC" transform="translate(-49.33 -74.63)"/><circle cx="243.59" cy="346.33" r="3.39" fill="#A4AFFF"/><circle cx="595.19" cy="233.6" r="3.39" fill="#A4AFFF"/><circle cx="604.06" cy="52.42" r="3.39" fill="#A4AFFF"/><circle cx="438.67" cy="2.12" r="2.12" fill="#A4AFFF"/><path d="M163.16 120.05C163.166 121.226 162.216 122.184 161.04 122.19 159.864 122.195 158.906 121.246 158.9 120.07 158.895 118.894 159.844 117.936 161.02 117.93 161.027 117.93 161.033 117.93 161.04 117.93 162.211 117.93 163.16 118.879 163.16 120.05Z" fill="#A4AFFF" transform="translate(-49.33 -74.63)"/><path d="M179.36 230.23C179.354 231.401 178.401 232.345 177.23 232.34 176.059 232.334 175.115 231.381 175.12 230.21 175.126 229.043 176.073 228.1 177.24 228.1 178.411 228.1 179.36 229.049 179.36 230.22 179.36 230.223 179.36 230.227 179.36 230.23Z" fill="#A4AFFF" transform="translate(-49.33 -74.63)"/><path d="M84.79 255.12C84.7955 256.296 83.8464 257.254 82.67 257.26 81.4936 257.265 80.5356 256.316 80.53 255.14 80.5245 253.964 81.4737 253.006 82.65 253 82.6567 253 82.6634 253 82.67 253 83.8408 253 84.79 253.949 84.79 255.12Z" fill="#A4AFFF" transform="translate(-49.33 -74.63)"/><circle cx="454.89" cy="334.74" r="3.39" fill="#A4AFFF"/><circle cx="617.89" cy="334.74" r="3.39" fill="#A4AFFF"/><circle cx="322.67" cy="22.63" r="3.39" fill="#A4AFFF"/><path d="M83.78 350C83.78 352.502 81.7518 354.53 79.25 354.53 76.7482 354.53 74.72 352.502 74.72 350 74.72 347.498 76.7482 345.47 79.25 345.47 81.7518 345.47 83.78 347.498 83.78 350Z" fill="#A4AFFF" transform="translate(-49.33 -74.63)"/><path d="M133.7 206.73C133.7 209.232 131.672 211.26 129.17 211.26 126.668 211.26 124.64 209.232 124.64 206.73 124.64 204.228 126.668 202.2 129.17 202.2 131.672 202.2 133.7 204.228 133.7 206.73Z" fill="#A4AFFF" transform="translate(-49.33 -74.63)"/><rect x="65.26" y="57.44" rx="0.66" width="7.03" height="7.03" fill="#FFFFFF"/><rect x="74.65" y="57.44" rx="0.66" width="7.03" height="7.03" fill="#FFFFFF"/><rect x="84.05" y="57.44" rx="0.66" width="7.03" height="7.03" fill="#FFFFFF"/><rect x="572.88" y="169.89" rx="0.66" width="7.03" height="7.03" fill="#DEE3FC"/><rect x="582.28" y="169.89" rx="0.66" width="7.03" height="7.03" fill="#DEE3FC"/><rect x="591.67" y="169.89" rx="0.66" width="7.03" height="7.03" fill="#DEE3FC"/><rect x="390.63" y="19.11" rx="0.66" width="7.03" height="7.03" fill="#DEE3FC"/><rect x="400.02" y="19.11" rx="0.66" width="7.03" height="7.03" fill="#DEE3FC"/><rect x="409.42" y="19.11" rx="0.66" width="7.03" height="7.03" fill="#DEE3FC"/><path d="M548 439.57 570.09 439.57C570.761 436.557 570.245 433.402 568.65 430.76 568.65 430.76 566.87 432.19 561.55 431.23 560.382 432.22 559.123 433.097 557.79 433.85 556.26 434.6 547.42 436.33 548 439.57Z" fill="#1E2A36" transform="translate(-49.33 -74.63)"/><path d="M587.48 439.57 609.58 439.57C610.241 436.557 609.726 433.405 608.14 430.76 608.14 430.76 606.36 432.19 601.03 431.23 599.864 432.223 598.605 433.1 597.27 433.85 595.73 434.6 586.89 436.33 587.48 439.57Z" fill="#1E2A36" transform="translate(-49.33 -74.63)"/><path d="M586.88 343.84 586 329 584.46 308.85C581.6 308.95 578.85 309.05 576.62 309.15 573.363 309.392 570.09 309.308 566.85 308.9 566.85 308.9 565.13 317.33 564.17 338.34 563.99 343.34 563.79 348.02 563.6 352.27L563.6 352.27C563.6 352.27 562.68 370.84 562.37 382.45 562.37 382.58 562.37 382.68 562.37 382.8 561.81 396.15 560.37 418.19 560.25 431.04 563.317 431.832 566.489 432.136 569.65 431.94 570.83 425.1 572.65 410.04 574.35 402.99 576.95 391.99 579.48 376.94 577.72 371.56 578.19 370.21 579.26 367.17 579.26 367.13 581.8 359.78 585 350.41 586.88 343.84Z" fill="#2D3A70" transform="translate(-49.33 -74.63)"/><path d="M579.26 367.09C581.8 359.78 585.02 350.41 586.88 343.84L586 329C586 329 582.77 356 579.26 367.09Z" fill="#1D2A33" transform="translate(-49.33 -74.63)"/><path d="M589.52 377.27C590.95 385.78 596.33 414.75 599.16 431.77 602.564 432.093 605.998 431.887 609.34 431.16 609.09 425.22 608.57 411.03 608.63 404.8 608.73 394.28 609.23 380.4 604.63 372.8 605.74 363.86 608.31 349.8 608.76 340.8 609.05 334.42 611.08 319.24 603.45 308.05 603.45 308.05 591.55 308.59 583.1 309.11L586.32 345.83C587.32 357.31 588.69 372.04 589.32 375.94 589.35 376.44 589.44 376.87 589.52 377.27Z" fill="#2D3A70" transform="translate(-49.33 -74.63)"/><path d="M570.45 265.65C570.45 265.65 568.96 267.38 566.7 269.65 565.65 270.72 564.44 271.9 563.14 273.1 562.26 273.92 561.33 274.74 560.38 275.53 558.019 277.607 555.364 279.322 552.5 280.62 551.811 280.9 551.094 281.101 550.36 281.22 549.983 281.279 549.601 281.299 549.22 281.28 541.84 280.91 542.91 275.94 542.91 275.94L543.05 275.8 543.14 275.71 543.14 275.71 553.2 265.13 556.41 261.75 557.77 260.33 558.26 259.81 562.66 255.17Z" fill="#E9BC93" transform="translate(-49.33 -74.63)"/><path d="M566.7 269.68C565.65 270.75 564.44 271.93 563.14 273.13 559.29 269.36 556.42 261.77 556.42 261.77L557.78 260.35C558.57 260.79 560.92 262.17 560.92 262.17L566.47 268.12C566.47 268.12 566.59 268.78 566.7 269.68Z" fill="#DB9567" transform="translate(-49.33 -74.63)"/><path d="M544.91 280.25C544.67 280.09 544.34 279.84 543.91 279.51 542.91 278.73 541.49 277.51 539.75 275.9 533.044 269.788 526.7 263.29 520.75 256.44 521.755 255.447 522.7 254.396 523.58 253.29 523.58 253.29 528.83 257.29 535.29 261.29 540.87 264.74 545.91 268.44 547.11 269.35L547.27 269.46 547.37 269.53 547.37 269.53C547.37 269.53 553.83 274.8 551.69 278.21 551.165 279.004 550.459 279.662 549.63 280.13 548.216 281.09 546.371 281.137 544.91 280.25Z" fill="#E9BC93" transform="translate(-49.33 -74.63)"/><path d="M573.54 265.12 569.54 268.48 566 271.54C561.81 268.42 556.66 261.38 556.66 261.38 560.743 256.148 565.332 251.332 570.36 247Z" fill="#467CDB" transform="translate(-49.33 -74.63)"/><path d="M520.27 184.64 520.25 193.85 516.63 196.91 520.27 184.64Z" fill="#2E63AF"/><path d="M605.23 286.42C604.88 292.09 602.1 296.34 604.74 304.98 605.196 306.267 605.459 307.615 605.52 308.98 605.52 309.58 604.76 310.2 604.45 310.37 601.19 312.25 588.51 312.53 582.14 312.53 576.48 312.53 567.98 311.62 566.91 310.2 565.84 308.78 566.83 306.99 567.3 304.37 569.38 292.53 568.64 286.37 568.52 277.81 568.52 277.08 568.52 276.36 568.52 275.64 568.52 275.64 568.37 253.85 568.52 251.02 568.541 249.493 569.197 248.044 570.33 247.02L570.33 247.02C573.581 245.202 577.092 243.893 580.74 243.14 582.488 243.036 584.242 243.036 585.99 243.14 590.5 243.407 594.97 244.137 599.33 245.32 601.906 246.35 604.21 247.962 606.06 250.03 607.267 251.316 608.324 252.735 609.21 254.26 608.99 259.57 607.84 269.1 607.21 277.35 607.16 278.62 605.29 285.24 605.23 286.42Z" fill="#467CDB" transform="translate(-49.33 -74.63)"/><path d="M597.38 278.84C598.091 279.154 598.827 279.408 599.58 279.6L602 287 603.71 287 601.3 275.95 597.36 275.65Z" fill="#2E63AF" transform="translate(-49.33 -74.63)"/><path d="M573.35 215.66C573.35 215.66 572 224.2 574.76 225.15 577.52 226.1 577.31 222.38 577.31 222.38L577.46 218.26" fill="#192C51" transform="translate(-49.33 -74.63)"/><path d="M582.66 249.52C575.75 248.98 580.77 243.11 580.77 243.11 580.77 243.11 580.9 242.54 581.39 241.04 581.88 239.54 582.39 237.75 582.79 236.33L585.79 234.01 592 229.1C592 229.1 591 238.96 592.95 243.88 594 245 590.57 250.15 582.66 249.52Z" fill="#E9BC93" transform="translate(-49.33 -74.63)"/><path d="M589.49 234.14C589.49 234.14 586.88 239.44 581.39 241.04 581.87 239.57 582.39 237.75 582.79 236.33L585.79 234.01Z" fill="#DB9567" transform="translate(-49.33 -74.63)"/><path d="M574.35 217.05C573.76 222.438 573.972 227.884 574.98 233.21 575.626 236.524 578.716 238.782 582.07 238.39 584.27 238.23 586.31 237.48 588.92 234.8 590.39 233.251 591.545 231.43 592.32 229.44 593.62 226.22 595.64 220.23 594.61 216.32 593.15 210.75 575.7 204.15 574.35 217.05Z" fill="#E9BC93" transform="translate(-49.33 -74.63)"/><path d="M595.08 213.4C594.446 212.427 593.679 211.549 592.8 210.79L592.8 210.79C590.96 209.01 585.21 205.53 584.35 205.79 582.86 206.27 584.88 208.18 584.88 208.18 581.4 206.65 571.62 203.44 576.17 208.18 573.22 207.68 570.97 206.96 570.61 207.18 569.15 208.03 569.69 211.8 569.69 211.8 571.29 220.3 581.53 218.98 584.63 218.38 585.06 220.57 584.63 223.47 586.14 225.21 587.02 226.21 588.76 226.46 590.58 226.4 590.761 226.899 590.891 227.415 590.97 227.94 591.361 230.276 591.605 232.634 591.7 235L592.46 234.69C592.919 233.623 593.46 232.593 594.08 231.61 595.333 229.64 596.227 227.463 596.72 225.18 597.1 224.09 601.69 213.81 595.08 213.4Z" fill="#192C51" transform="translate(-49.33 -74.63)"/><path d="M615.12 290.3C614.54 292.3 607.56 293.69 604.69 290.73 603.39 289.39 602.08 284.73 601.03 280.13 600.6 278.22 600.21 276.3 599.88 274.59 599.24 271.24 598.88 268.72 598.88 268.72L612.2 263.21C612.2 263.21 612.81 267.49 613.47 272.66 613.64 274.02 613.83 275.45 613.99 276.89L613.99 276.89C614.73 283.12 615.4 289.34 615.12 290.3Z" fill="#E9BC93" transform="translate(-49.33 -74.63)"/><path d="M614 276.89C613.78 277.04 609.19 279.99 601.07 280.13 600.64 278.22 600.25 276.3 599.92 274.59 600.92 273.59 601.73 272.92 601.73 272.92L610.26 271.49 613.46 272.63 613.46 272.63C613.61 274 613.8 275.45 614 276.89Z" fill="#DB9567" transform="translate(-49.33 -74.63)"/><path d="M612.89 263.91C612.67 263.01 609.74 249.58 604.29 247.1 602.85 246.45 599.41 245.35 599.41 245.35L596.41 261.35C596.41 266.65 597.71 277.44 597.71 277.44 600.26 278.52 604.02 278.35 607.2 277.82 609.814 277.318 612.368 276.544 614.82 275.51 614.426 271.606 613.781 267.731 612.89 263.91Z" fill="#467CDB" transform="translate(-49.33 -74.63)"/><rect x="570.65" y="267.55" rx="0.91" width="26.8" height="35.58" fill="#FFFFFF" transform="matrix(-0.991123 -0.132948 0.132948 -0.991123 1075.62 571.21)"/><path d="M615.2 289.12 615.2 289.19C615.2 289.99 615.03 297.63 608.7 296.61L608.22 296.52C607.996 296.465 607.769 296.422 607.54 296.39 597.759 294.397 588.149 291.639 578.8 288.14 579.22 286.792 579.554 285.42 579.8 284.03 584.439 284.967 589.158 285.453 593.89 285.48 598.787 285.533 603.668 286.042 608.47 287L614.94 285.62C614.94 285.62 615.08 287.23 615.2 289.12Z" fill="#E9BC93" transform="translate(-49.33 -74.63)"/><path d="M580.78 284.22C579.721 284.082 578.738 283.593 577.99 282.83 577.43 282.17 577.37 281.69 576.93 281.22 576.172 280.468 575.501 279.633 574.93 278.73 574.52 277.9 574.29 277.67 573.8 278.35 573.31 279.03 574.18 280.6 574.4 281.05 574.553 281.535 574.617 282.043 574.59 282.55 574.59 282.66 571.48 282.12 571.06 281.43 571.06 281.43 570.47 281.83 570.35 282.2 570.23 282.57 570.6 283.03 570.52 283.2 570.44 283.37 570.06 283.57 569.98 283.89 569.9 284.21 570.3 284.51 570.17 285.02 570.04 285.53 569.85 285.41 569.67 285.9 569.49 286.39 569.94 286.9 569.88 287.14 569.82 287.38 569.58 287.63 569.68 287.94 569.78 288.25 572.27 289.13 573.24 289.38 574.21 289.63 578.3 288.31 581.18 289.01" fill="#E9BC93" transform="translate(-49.33 -74.63)"/><path d="M588.32 229.86C591.55 231.62 593.75 223.37 590.56 222.56 588.14 221.95 587.56 225.37 587.56 225.37 587.56 225.37 586.47 228.85 588.32 229.86Z" fill="#E9BC93" transform="translate(-49.33 -74.63)"/><path d="M590.24 225.43C589.971 225.42 589.702 225.464 589.45 225.56 589.351 225.604 589.258 225.657 589.17 225.72 589.268 225.228 589.472 224.764 589.77 224.36 589.918 224.157 590.089 223.973 590.28 223.81 590.012 223.847 589.758 223.95 589.54 224.11 589.312 224.277 589.113 224.479 588.95 224.71 588.774 224.982 588.649 225.284 588.58 225.6 588.527 225.843 588.504 226.091 588.51 226.34L588.51 226.34C588.505 226.407 588.505 226.473 588.51 226.54 588.534 226.808 588.584 227.072 588.66 227.33 588.717 227.512 588.787 227.689 588.87 227.86L588.97 228.05C588.97 228.05 588.97 227.97 588.97 227.83L588.97 227.28C588.97 227.08 588.97 226.85 588.97 226.61L588.97 226.61C588.998 226.512 589.039 226.418 589.09 226.33 589.193 226.124 589.339 225.943 589.52 225.8 589.72 225.661 589.944 225.559 590.18 225.5 590.293 225.49 590.407 225.49 590.52 225.5 590.429 225.468 590.335 225.445 590.24 225.43Z" fill="#DB9567" opacity="0.51" transform="translate(-49.33 -74.63)"/><path d="M523 249.71C521.766 248.685 520.477 247.727 519.14 246.84 517.98 246.19 514.75 244.98 514.2 245.14 513.65 245.3 514 246.14 514.48 246.48 514.96 246.82 517.6 248.37 517.6 248.37L521.08 250.85Z" fill="#E59D76" transform="translate(-49.33 -74.63)"/><path d="M527 255.78C526.202 254.873 525.576 253.83 525.15 252.7 524.341 250.885 522.971 249.377 521.24 248.4 519.803 247.914 518.305 247.631 516.79 247.56 515.95 247.87 516.36 248.83 517.1 249.38L517.16 249.38C516.79 249.71 516.22 250.38 516.47 250.93 516.529 251.045 516.607 251.15 516.7 251.24 516.37 251.61 515.86 252.3 516.17 252.87 516.467 253.224 516.844 253.501 517.27 253.68 517.048 253.898 516.967 254.223 517.06 254.52 517.323 254.862 517.667 255.133 518.06 255.31 518.292 255.858 518.591 256.375 518.95 256.85 519.95 258.18 522.35 258.29 523.76 259.85 524.76 260.99 523.7 258.61 523.06 257.29 524.453 257.026 525.787 256.514 527 255.78Z" fill="#E9BC93" transform="translate(-49.33 -74.63)"/><path d="M516.55 248.77C516.75 249.032 517.002 249.25 517.29 249.41 517.573 249.577 517.867 249.724 518.17 249.85 518.781 250.093 519.41 250.29 520.05 250.44L520.11 250.44 520.11 250.44C520.204 250.744 520.318 251.041 520.45 251.33 520.573 251.623 520.749 251.891 520.97 252.12 520.706 251.926 520.488 251.677 520.33 251.39 520.156 251.114 520.015 250.819 519.91 250.51L519.99 250.58C519.324 250.461 518.676 250.259 518.06 249.98 517.75 249.836 517.456 249.662 517.18 249.46 516.916 249.286 516.7 249.049 516.55 248.77Z" fill="#DB9567" transform="translate(-49.33 -74.63)"/><path d="M516.71 251.27 517.45 251.77C517.89 252.06 518.45 252.48 519.07 252.77 519.324 252.961 519.65 253.031 519.96 252.96 520.202 252.831 520.367 252.592 520.4 252.32 520.454 252.032 520.454 251.738 520.4 251.45L520.46 251.68C520.494 251.899 520.494 252.121 520.46 252.34 520.444 252.681 520.256 252.99 519.96 253.16 519.631 253.232 519.288 253.175 519 253 518.162 252.53 517.391 251.948 516.71 251.27Z" fill="#DB9567" transform="translate(-49.33 -74.63)"/><path d="M516.56 253.27C516.56 253.27 517.74 253.83 518.94 254.27 519.25 254.37 519.57 254.54 519.8 254.41 520.013 254.28 520.145 254.05 520.15 253.8 520.158 253.552 520.099 253.307 519.98 253.09L520.2 252.98C520.332 253.243 520.388 253.537 520.36 253.83 520.333 254.141 520.148 254.417 519.87 254.56 519.703 254.625 519.517 254.625 519.35 254.56L518.9 254.38C517.71 253.89 516.56 253.27 516.56 253.27Z" fill="#DB9567" transform="translate(-49.33 -74.63)"/><path d="M517.47 255C517.47 255 517.65 255.12 517.94 255.28 518.283 255.475 518.66 255.604 519.05 255.66 519.153 255.675 519.257 255.675 519.36 255.66 519.449 255.648 519.533 255.61 519.6 255.55 519.711 255.432 519.759 255.269 519.73 255.11 519.703 254.944 519.653 254.782 519.58 254.63L519.81 254.53C519.884 254.712 519.928 254.904 519.94 255.1 519.962 255.319 519.876 255.535 519.71 255.68 519.616 255.756 519.501 255.802 519.38 255.81 519.267 255.82 519.153 255.82 519.04 255.81 518.64 255.72 518.26 255.558 517.92 255.33 517.763 255.23 517.613 255.12 517.47 255Z" fill="#DB9567" transform="translate(-49.33 -74.63)"/><line x1="0.56" y1="365.06" x2="650.78" y2="365.06" stroke="#FFFFFF" stroke-width="1.11" stroke-linecap="round" stroke-miterlimit="10" fill="none"/></g></g></svg>