<svg viewBox="0 0 297.51 434.38" xmlns="http://www.w3.org/2000/svg" xmlns:xlink="http://www.w3.org/1999/xlink" id="Layer_1" overflow="hidden"><defs></defs><path d="M-3964.93 3315.07C-3936.69 3315.07-3912.56 3301.53-3912.56 3279.17-3912.56 3257.99-3927.86 3239.17-3957.87 3239.17L-4022.6 3239.17-4022.6 3155-3960.23 3155C-3933.16 3155-3923.74 3121.46-3935.51 3103.81-3954.34 3074.39-4005.51 3082.04-4031.43 3111.46L-4092.62 3057.32C-4058.49 3014.95-4008.48 2989.65-3961.4 2989.65-3910.21 2989.65-3858.4 3007.3-3836.06 3062.65-3819.59 3103.84-3823.12 3163.27-3865.49 3189.75-3823.12 3211.52-3809.58 3255.07-3809.58 3287.43-3809.58 3368.64-3884.32 3418.06-3960.81 3418.06-4014.36 3418.06-4069.09 3395.12-4100.27 3342.74L-4032.02 3279.74C-4016.72 3304.48-3989.65 3315.07-3964.93 3315.07Z" stroke="#FFFFFF" stroke-width="6.00016" stroke-opacity="0.2" fill="none" transform="translate(4104.1 -2986.66)"/></svg>