<svg width="206.5" height="168.6" viewBox="0 0 206.5 168.6" xmlns="http://www.w3.org/2000/svg" xmlns:xlink="http://www.w3.org/1999/xlink" xml:space="preserve" overflow="visible"><style>
.MsftOfcResponsive_Fill_405d8f {
 fill:#405D8F; 
}
</style>
<defs></defs><path d="M66.8 27.9C73 10.2 84.9 0 103.3 0 121.7 0 133.6 10.3 139.7 27.9 147.3 21.1 155.9 17.5 165.9 18.9 173.8 20 180.4 23.7 185.5 29.9 196.1 42.7 194.2 59.4 180.1 74 180.7 74.4 181.2 74.7 181.7 75 197.6 83.6 205.9 96.9 206.4 115 206.6 121.7 206.6 128.3 206.4 135 206 149.9 196.6 159.1 181.7 159.3 172.5 159.4 163.4 159.2 154.2 159.4 152.1 159.5 149.6 160.4 148.1 161.7 142.9 166.5 137 168.8 130 168.8 112.2 168.8 94.3 168.8 76.5 168.8 69.5 168.8 63.5 166.5 58.4 161.6 57 160.3 54.7 159.4 52.8 159.3 43.5 159.1 34.1 159.3 24.8 159.2 10.2 159.1 0.7 149.9 0.2 135.3-3.26961e-14 128.5-3.26961e-14 121.6 0.2 114.8 0.7 96 9.7 82.6 26.6 73.8 18.3 66.9 13.8 58.4 14.2 47.7 14.5 39.9 17.5 33.2 23 27.6 31.9 18.5 49.8 12.9 66.8 27.9ZM102.9 159.3C112.1 159.3 121.2 159.4 130.4 159.3 139.4 159.1 145.4 153.5 145.5 144.8 145.7 135 145.9 125.1 145.4 115.3 144.3 93.2 126.7 75.6 105.4 74.8 82.9 73.9 64.1 89.3 61.4 111.8 60.2 122.2 60.8 132.7 60.8 143.2 60.8 153.6 66.5 159.2 76.9 159.3 85.6 159.4 94.3 159.3 102.9 159.3ZM62.8 84.5C52.1 78.4 41 77.5 29.9 82.7 18 88.3 10.9 97.8 9.8 111 9.1 119.4 9.4 128 9.6 136.5 9.8 144.1 15.4 149.6 23 149.7 31.5 149.9 40 149.8 48.5 149.7 49.6 149.7 50.7 149.4 51.7 149.2 51.7 105.8 49.7 106.1 62.8 84.5ZM155 149.7C164.4 149.7 173.7 149.8 183 149.7 191.2 149.6 196.8 144.1 196.9 135.9 197.1 128.2 197.6 120.5 196.7 113 195.9 106.9 194.2 100.5 191 95.3 181 79.1 157.7 74.4 143.7 85.3 159.6 104.3 153.5 127.2 155 149.7ZM103 65.5C118.4 65.6 131.4 52.8 131.5 37.3 131.6 22 118.5 9 103.1 9 88 9.1 75.2 21.7 74.9 37 74.7 52.2 87.7 65.4 103 65.5ZM23.6 49C23.6 60.8 33.2 70.4 44.9 70.2 56.4 70 65.7 60.6 65.7 49 65.7 37.3 56 27.6 44.4 27.8 32.9 27.9 23.6 37.4 23.6 49ZM182.8 48.8C182.7 37.2 173.3 27.8 161.9 27.8 150.3 27.8 140.7 37.5 140.7 49.2 140.8 60.7 150.2 70.1 161.8 70.2 173.5 70.3 182.9 60.7 182.8 48.8ZM83 69.2C79.7 66.2 76.4 63.2 73.5 60.6 70.1 65.1 66.7 69.5 62.6 74.9 65.7 75.5 69 77.1 71.4 76.3 75.5 74.8 79 71.7 83 69.2ZM123.4 69.3C126.4 71 129.7 72.2 131.9 74.5 136.5 79.2 139.8 76.5 143.1 74 139.5 69.3 136.2 64.9 132.8 60.6 130 63.2 126.9 66.1 123.4 69.3Z" class="MsftOfcResponsive_Fill_405d8f" fill="#405D8F"/></svg>