<svg width="120.4" height="66.8" viewBox="0 0 120.4 66.8" xmlns="http://www.w3.org/2000/svg" xmlns:xlink="http://www.w3.org/1999/xlink" overflow="visible"><style>
.MsftOfcResponsive_Fill_405d8f {
 fill:#405D8F; 
}
</style>
<defs></defs><g><linearGradient x1="-1364.04" y1="16.4613" x2="2418.27" y2="16.4613" gradientUnits="userSpaceOnUse" id="SVGID_1_"><stop offset="0" stop-color="#00D1F5"/><stop offset="1" stop-color="#42598C"/></linearGradient><linearGradient x1="-1364.04" y1="50.3646" x2="2418.27" y2="50.3646" gradientUnits="userSpaceOnUse" id="SVGID_2_"><stop offset="0" stop-color="#00D1F5"/><stop offset="1" stop-color="#42598C"/></linearGradient><linearGradient x1="-1614.86" y1="35.5534" x2="2843.87" y2="35.5534" gradientUnits="userSpaceOnUse" id="SVGID_3_"><stop offset="0" stop-color="#00D1F5"/><stop offset="1" stop-color="#42598C"/></linearGradient><linearGradient x1="-1368.33" y1="55.8651" x2="2413.98" y2="55.8651" gradientUnits="userSpaceOnUse" id="SVGID_4_"><stop offset="0" stop-color="#00D1F5"/><stop offset="1" stop-color="#42598C"/></linearGradient><linearGradient x1="-1364.04" y1="50.3646" x2="2418.28" y2="50.3646" gradientUnits="userSpaceOnUse" id="SVGID_5_"><stop offset="0" stop-color="#00D1F5"/><stop offset="1" stop-color="#42598C"/></linearGradient><linearGradient x1="-1364.04" y1="33.4644" x2="2418.27" y2="33.4644" gradientUnits="userSpaceOnUse" id="SVGID_6_"><stop offset="0" stop-color="#00D1F5"/><stop offset="1" stop-color="#42598C"/></linearGradient><linearGradient x1="-1364.04" y1="29.0525" x2="2418.27" y2="29.0525" gradientUnits="userSpaceOnUse" id="SVGID_7_"><stop offset="0" stop-color="#00D1F5"/><stop offset="1" stop-color="#42598C"/></linearGradient><path d="M43.4 32.9C34.3 32.9 26.9 25.5 26.9 16.4 26.9 7.4 34.3 0 43.4 0 52.5 0 59.9 7.4 59.9 16.5 59.8 25.5 52.5 32.9 43.4 32.9ZM43.4 7.9C38.7 7.9 34.8 11.8 34.8 16.5 34.8 21.2 38.7 25.1 43.4 25.1 48.1 25.1 52 21.2 52 16.5 52 11.7 48.1 7.9 43.4 7.9Z" class="MsftOfcResponsive_Fill_405d8f" fill="#405D8F"/><path d="M77.3 66.8C68.2 66.8 60.8 59.4 60.8 50.3 60.8 41.2 68.2 33.8 77.3 33.8 86.4 33.8 93.8 41.2 93.8 50.3 93.7 59.4 86.4 66.8 77.3 66.8ZM77.3 41.8C72.6 41.8 68.7 45.7 68.7 50.4 68.7 55.1 72.6 59 77.3 59 82 59 85.9 55.1 85.9 50.4 85.9 45.7 82 41.8 77.3 41.8Z" class="MsftOfcResponsive_Fill_405d8f" fill="#405D8F"/><path d="M14.1 49.7C13.1 49.7 12.1 49.3 11.3 48.5 9.8 47 9.8 44.5 11.3 42.9L31.7 22.5C33.2 21 35.7 21 37.3 22.5 38.8 24 38.8 26.5 37.3 28.1L16.9 48.5C16.2 49.3 15.2 49.7 14.1 49.7Z" class="MsftOfcResponsive_Fill_405d8f" fill="#405D8F"/><path d="M3.9 59.8C2.9 59.8 1.9 59.4 1.1 58.7-0.4 57.2-0.4 54.7 1.1 53.1L1.2 53C2.7 51.5 5.2 51.5 6.8 53 8.3 54.5 8.3 57 6.8 58.6L6.7 58.7C6 59.5 4.9 59.8 3.9 59.8Z" class="MsftOfcResponsive_Fill_405d8f" fill="#405D8F"/><path d="M77.2 54.3C76.2 54.3 75.2 53.9 74.4 53.2 72.9 51.7 72.9 49.2 74.4 47.6L74.5 47.5C76 46 78.5 46 80.1 47.5 81.6 49 81.6 51.5 80.1 53.1L80 53.2C79.3 54 78.3 54.3 77.2 54.3Z" class="MsftOfcResponsive_Fill_405d8f" fill="#405D8F"/><path d="M67.9 45.3C66.9 45.3 65.9 44.9 65.1 44.1L49.2 28.3C47.7 26.8 47.7 24.3 49.2 22.7 50.7 21.2 53.2 21.2 54.8 22.7L70.7 38.6C72.2 40.1 72.2 42.6 70.7 44.2 69.9 44.9 68.9 45.3 67.9 45.3Z" class="MsftOfcResponsive_Fill_405d8f" fill="#405D8F"/><path d="M86.9 45.3C85.9 45.3 84.9 44.9 84.1 44.1 82.6 42.6 82.6 40.1 84.1 38.5L108.8 13.8C110.3 12.3 112.8 12.3 114.4 13.8 115.9 15.3 115.9 17.8 114.4 19.4L89.7 44.2C88.9 44.9 87.9 45.3 86.9 45.3Z" class="MsftOfcResponsive_Fill_405d8f" fill="#405D8F"/><g><linearGradient x1="-1364.03" y1="19.7178" x2="2418.27" y2="19.7178" gradientUnits="userSpaceOnUse" id="SVGID_8_"><stop offset="0" stop-color="#00D1F5"/><stop offset="1" stop-color="#42598C"/></linearGradient><linearGradient x1="-1364.04" y1="11.6608" x2="2418.27" y2="11.6608" gradientUnits="userSpaceOnUse" id="SVGID_9_"><stop offset="0" stop-color="#00D1F5"/><stop offset="1" stop-color="#42598C"/></linearGradient><path d="M116.4 31.7C114.2 31.7 112.5 29.9 112.5 27.8L112.5 11.7C112.5 9.5 114.3 7.8 116.4 7.8 118.6 7.8 120.3 9.6 120.3 11.7L120.3 27.8C120.4 29.9 118.6 31.7 116.4 31.7Z" class="MsftOfcResponsive_Fill_405d8f" fill="#405D8F"/><path d="M116.4 15.6 100.3 15.6C98.1 15.6 96.4 13.8 96.4 11.7 96.4 9.5 98.2 7.8 100.3 7.8L116.4 7.8C118.6 7.8 120.3 9.6 120.3 11.7 120.4 13.8 118.6 15.6 116.4 15.6Z" class="MsftOfcResponsive_Fill_405d8f" fill="#405D8F"/></g></g></svg>