<svg width="181.8" height="179.3" viewBox="0 0 181.8 179.3" xmlns="http://www.w3.org/2000/svg" xmlns:xlink="http://www.w3.org/1999/xlink" xml:space="preserve" overflow="visible"><defs></defs><path d="M26.6 99.8C26.6 126.8 50.4 165 95.6 166.6 134.3 167.9 167.7 137 169.1 99.1 170.6 60 141.5 26.1 104.3 24.1 103.8 25.7 103.4 27.5 102.9 29.2 99.8 39 90.9 45.3 80.5 44.8 70.3 44.4 61.9 37.3 59.6 27.1 57.4 17.4 62.1 7.4 71 2.7 80.1-2.1 91.2-0.3 97.9 7.4 100.2 10.1 102.6 11.1 105.9 11.4 148.2 16 180.5 50.2 181.8 91.5 183.1 134.6 153.9 170.5 111.4 178.1 64.6 186.5 18.3 151.3 14.1 104.1 13.8 100.2 12.5 99.1 8.7 99.2-1.6 99.3-1.7 99 3.5 89.8 7.8 82.4 11.9 75.1 16.3 67.7 18.9 63.3 20.7 63.2 23.3 67.6 28.3 76.1 33.2 84.6 38 93.1 40.5 97.5 39.6 99 34.5 99.1 32.3 99.2 30.2 99.1 28 99.2 27.6 99.4 27.3 99.6 26.6 99.8ZM81.6 32.3C87 32.2 91.3 27.8 91.2 22.3 91.1 16.9 86.6 12.5 81.3 12.6 76 12.7 71.6 17.3 71.7 22.6 71.8 28 76.3 32.3 81.6 32.3Z" fill="#405D8F"/><path d="M123.3 96.3C111.8 96.4 102.3 87 102 75.5 101.8 63.8 111.3 54 123 54 134.6 53.9 144 63.1 144.2 74.8 144.5 86.6 135.1 96.2 123.3 96.3ZM123.2 83.7C127.8 83.7 131.9 79.7 131.8 75.1 131.8 70.6 127.6 66.5 123 66.6 118.5 66.7 114.8 70.5 114.7 75 114.6 79.7 118.5 83.7 123.2 83.7Z" fill="#405D8F"/><path d="M89.8 118.6C93.7 122 96.5 124.3 99.1 126.9 102 129.7 102.6 133.1 99.6 136.2 96.6 139.2 93.3 138.8 90.3 135.9 87.7 133.4 85.2 130.6 82.2 127.5 79.3 130.3 76.8 132.8 74.2 135.3 70.5 138.8 66.8 139.2 64.2 136.1 61.2 132.6 62.1 129.3 65.2 126.4 67.7 124 70.4 121.7 73.9 118.6 70.5 115.6 67.7 113.3 65.1 110.7 61.8 107.4 61.6 103.6 64.2 101 66.9 98.3 70.5 98.4 73.9 101.7 76.5 104.3 78.7 107.1 82 110.9 85.1 107.2 87.2 104.4 89.7 101.9 93.3 98.3 97.1 97.9 99.7 101 102.7 104.5 101.8 107.8 98.7 110.7 96.2 113.2 93.5 115.4 89.8 118.6Z" fill="#405D8F"/><path d="M11.6 30.3C7.9 26.9 5 24.6 2.4 22-0.5 19.1-1 15.7 2 12.7 5 9.7 8.4 10.2 11.3 13.1 13.9 15.7 16.2 18.5 19 21.7 22.3 18.6 24.9 16.1 27.4 13.5 30.4 10.5 33.6 9.6 37.1 12.5 40 15 39.7 19 36.2 22.5 33.7 24.9 31 27.1 27.3 30.3 31 33.5 33.9 35.7 36.4 38.3 39.7 41.6 39.8 45.4 37.2 48 34.6 50.6 30.8 50.4 27.5 47.1 25 44.7 22.8 41.9 19.6 38.4 16.5 41.8 14 44.6 11.4 47.3 8.6 50.2 5.3 50.7 2.1 48-0.9 45.5-0.7 41.7 2.6 38.4 5.2 35.9 8 33.6 11.6 30.3Z" fill="#405D8F"/></svg>