<svg viewBox="0 0 649.17 374.98" xmlns="http://www.w3.org/2000/svg" xmlns:xlink="http://www.w3.org/1999/xlink" id="OBJECTS" overflow="hidden"><style>
.MsftOfcThm_Background1_lumMod_95_Fill_v2 {
 fill:#F2F2F2; 
}
</style>
<defs></defs><path d="M346.59 122.52C338.68 175.66 307.37 215.97 246.94 198.52 186.51 181.07 124.48 220.39 132.32 290.21 139.38 353.04 77.18 342.48 64.64 400.02 62.5137 409.816 68.7311 419.481 78.527 421.607 79.7962 421.882 81.0913 422.021 82.39 422.02L683.67 422.02C691.743 422.024 698.848 416.693 701.1 408.94 711.22 374.2 732.18 279.08 675.63 232.12 605.63 174.01 630.28 94.12 524.23 58.12 418.18 22.12 352.69 81.49 346.59 122.52Z" class="MsftOfcThm_Background1_lumMod_95_Fill_v2" fill="#F2F2F2" transform="translate(-64.22 -47.03)"/></svg>