<svg width="96.2" height="100" viewBox="0 0 96.2 100" xmlns="http://www.w3.org/2000/svg" xmlns:xlink="http://www.w3.org/1999/xlink" xml:space="preserve" overflow="visible"><defs></defs><g id="XMLID_1_"><g id="XMLID_5_"><radialGradient cx="-40.197" cy="135.018" r="48.0865" gradientUnits="userSpaceOnUse" id="XMLID_7_" gradientTransform="matrix(-1 0 0 0.1269 7.8881 76.8066)"><stop offset="0" stop-color="#8C6B6B"/><stop offset="0.0366868" stop-color="#9C7F7F"/><stop offset="0.11" stop-color="#B6A1A1"/><stop offset="0.1913" stop-color="#CDBEBE"/><stop offset="0.2811" stop-color="#DFD6D6"/><stop offset="0.3827" stop-color="#EEE9E9"/><stop offset="0.5034" stop-color="#F8F5F5"/><stop offset="0.6616" stop-color="#FDFDFD"/><stop offset="1" stop-color="#FFFFFF"/></radialGradient><path d="M0 93.9C0 97.3 21.5 100 48.1 100 74.7 100 96.2 97.3 96.2 93.9 96.2 90.5 74.7 87.8 48.1 87.8 21.5 87.8 0 90.6 0 93.9Z" id="XMLID_6_" fill="url(#XMLID_7_)"/></g><g id="XMLID_2_"><linearGradient x1="-298.512" y1="497.312" x2="-220.674" y2="497.312" gradientUnits="userSpaceOnUse" id="XMLID_8_" gradientTransform="matrix(-0.7071 -0.7071 -0.7071 0.7071 213.435 -496.307)"><stop offset="0" stop-color="#006CA6"/><stop offset="1" stop-color="#1895D4"/></linearGradient><linearGradient x1="-296.135" y1="497.312" x2="-223.05" y2="497.312" gradientUnits="userSpaceOnUse" id="XMLID_9_" gradientTransform="matrix(-0.7071 -0.7071 -0.7071 0.7071 213.435 -496.307)"><stop offset="0" stop-color="#1895D4"/><stop offset="1" stop-color="#006CA6"/></linearGradient><path d="M45.3 93.9 72.8 66.4C88 51.2 88 26.5 72.8 11.4 57.6-3.8 32.9-3.8 17.8 11.4 2.7 26.6 2.6 51.3 17.8 66.4L45.3 93.9Z" id="XMLID_4_" fill="url(#XMLID_8_)"/><path d="M19.5 64.7 45.3 90.5 71.1 64.7C85.4 50.4 85.4 27.3 71.1 13L71.1 13C56.8-1.3 33.7-1.3 19.4 13L19.4 13C5.2 27.3 5.2 50.5 19.5 64.7Z" id="XMLID_3_" fill="url(#XMLID_9_)"/></g></g></svg>