<svg width="182.6" height="182.9" viewBox="0 0 182.6 182.9" xmlns="http://www.w3.org/2000/svg" xmlns:xlink="http://www.w3.org/1999/xlink" xml:space="preserve" overflow="visible"><defs></defs><path d="M145.4 162.9C145.4 160 145.4 158.3 145.4 156.5 145.4 145.8 145.4 135.2 145.5 124.5 145.6 120.2 148.1 117.7 152.4 117.5 156.2 117.3 159.1 120.3 159.2 124.6 159.3 141.6 159.4 158.6 159.2 175.6 159.1 182.2 153.6 184.9 148 181.4 140.7 176.8 133.7 171.6 126.3 167.2 123.5 165.5 119.9 164.3 116.7 164.3 87 164.1 57.4 164.2 27.7 164.2 10.7 164.2 3.19744e-14 153.4 3.19744e-14 136.4 3.19744e-14 112.7 3.19744e-14 89.1 3.19744e-14 65.4 3.19744e-14 48.7 10.7 38 27.5 37.9 35.8 37.9 44.2 37.9 52.5 37.9 57.6 37.9 60.7 40.4 60.9 44.5 61.1 48.7 57.9 51.7 52.6 51.8 44.4 51.9 36.3 51.8 28.1 51.9 18.3 51.8 14 56 14 65.7 14 89.2 14 112.7 14 136.2 14 145.9 18.3 150.1 28.1 150.1 56.9 150.1 85.8 150.3 114.6 150 122.6 149.9 129.7 151.5 136 156.5 138.6 158.6 141.6 160.3 145.4 162.9Z" fill="#405D8F"/><path d="M126 113.5C119.1 111.8 111.8 111 105.4 108.1 99.2 105.3 93.4 105.2 87.1 106.4 78.2 108.2 74.7 104.8 76.5 96 77.9 89.5 77.3 83.8 74.7 77.3 66.1 55.8 69.5 35.4 85.3 18.4 101.2 1.3 121.3-4.2 143.6 3.1 165.5 10.2 178.6 25.8 181.9 48.6 186.9 82.9 160.6 112.7 126 113.5ZM93.2 90.1C97.9 91.5 103.3 92.4 108.1 94.6 117.1 98.5 126.3 99.9 135.9 97.8 159.7 92.5 174 67.9 167 44.3 160.1 21.1 134.9 8.5 112 16.9 89.2 25.2 78.3 51.2 87.9 73.5 90.2 78.9 91.5 84.8 93.2 90.1Z" fill="#405D8F"/><path d="M127.4 51C131 51.4 133.4 53.3 133.4 57.1 133.4 60.7 131.5 63.1 127.6 63.2 124 63.4 120.9 60.5 121.2 57.1 121.6 53.5 123.7 51.4 127.4 51Z" fill="#405D8F"/><path d="M113.1 58.1C112.7 61 110.8 63.1 107.1 63.2 103.5 63.2 100.7 60.4 101 56.9 101.3 53.3 103.4 51.2 107.1 51.1 110.5 50.9 113.2 53.9 113.1 58.1Z" fill="#405D8F"/><path d="M153.9 57.5C153.5 60.6 151.9 62.9 148.1 63.2 144.5 63.4 141.7 60.9 141.7 57.3 141.7 53.6 143.7 51.4 147.3 51.1 150.8 50.7 153.8 53.6 153.9 57.5Z" fill="#405D8F"/></svg>