<svg viewBox="0 0 531.63 428.5" xmlns="http://www.w3.org/2000/svg" xmlns:xlink="http://www.w3.org/1999/xlink" id="Layer_1" overflow="hidden"><style>
.MsftOfcThm_Background1_Stroke_v2 {
 stroke:#FFFFFF; 
}
</style>
<defs></defs><path d="M-4106.23-401-4146.23-373.34-4201.54-421.59-4090.91-538.1-4011.47-538.1-4011.47-121.49-4106.21-121.49Z" class="MsftOfcThm_Background1_Stroke_v2" stroke="#FFFFFF" stroke-width="6" fill="none" transform="translate(4205.89 541.07)"/><path d="M-3780.24-268C-3777.89-310.37-3803.24-329.78-3834.96-329.78-3859.09-329.78-3883.8-320.37-3902.63-295.07L-3950.89-295.07-3950.89-538.07-3703.74-538.07-3703.74-445.69-3866.74-445.69-3866.74-398.61C-3765.53-435.68-3677.26-370.96-3677.26-270.33-3677.26-193.25-3725.51-115.57-3834.38-115.57-3881.45-115.57-3931.47-137.93-3965.01-192.66L-3890.28-251.5C-3850.85-203.25-3782.59-219.14-3780.24-268Z" class="MsftOfcThm_Background1_Stroke_v2" stroke="#FFFFFF" stroke-width="6" fill="none" transform="translate(4205.89 541.07)"/></svg>