<svg viewBox="0 0 553.4 434.38" xmlns="http://www.w3.org/2000/svg" xmlns:xlink="http://www.w3.org/1999/xlink" id="Layer_1" overflow="hidden"><style>
.MsftOfcThm_Background1_Stroke_v2 {
 stroke:#FFFFFF; 
}
</style>
<defs></defs><path d="M-4106.23-401-4146.23-373.34-4201.54-421.59-4090.91-538.1-4011.47-538.1-4011.47-121.49-4106.21-121.49Z" class="MsftOfcThm_Background1_Stroke_v2" stroke="#FFFFFF" stroke-width="6" fill="none" transform="translate(4205.89 546.96)"/><path d="M-3956.77-243.26-3956.77-415.68C-3956.77-504.53-3876.77-543.96-3806.13-543.96-3734.93-543.96-3655.49-504.53-3655.49-415.68L-3655.49-243.26C-3655.49-155-3734.93-115.57-3806.13-115.57-3876.74-115.57-3956.77-155-3956.77-243.26ZM-3856.77-412.73-3856.77-242.09C-3856.77-217.96-3831.46-205.02-3806.16-205.02-3782.03-205.02-3755.55-217.96-3755.55-242.09L-3755.55-412.73C-3755.55-438.04-3782.62-451.57-3806.16-451.57-3830.84-451.57-3856.74-437.45-3856.74-412.73Z" class="MsftOfcThm_Background1_Stroke_v2" stroke="#FFFFFF" stroke-width="6" fill="none" transform="translate(4205.89 546.96)"/></svg>