<svg viewBox="0 0 3039.38 434.38" xmlns="http://www.w3.org/2000/svg" xmlns:xlink="http://www.w3.org/1999/xlink" id="Layer_1" overflow="hidden"><style>
.MsftOfcThm_Background1_Stroke_v2 {
 stroke:#FFFFFF; 
}
</style>
<defs></defs><path d="M-4185.91 2272.48C-4084.11 2272.48-4033.5 2346.04-4033.5 2419.59-4033.5 2493.73-4084.7 2567.29-4185.32 2567.29L-4247.11 2567.29-4247.11 2689.1-4352.44 2689.1-4352.44 2272.48ZM-4185.91 2370.75-4247.11 2370.75-4247.11 2473.75-4185.91 2473.75C-4122.36 2474.32-4122.36 2370.16-4185.91 2370.75Z" class="MsftOfcThm_Background1_Stroke_v2" stroke="#FFFFFF" stroke-width="5.99998" fill="none" transform="translate(4355.44 -2263.6)"/><path d="M-3826.37 2266.6C-3739.87 2266.6-3653.37 2314.26-3653.37 2409.6L-3653.37 2552C-3653.37 2647.33-3739.28 2695-3825.78 2695-3912.28 2695-3998.78 2647.34-3998.78 2552L-3998.78 2409.6C-3998.78 2313.67-3912.87 2266.6-3826.37 2266.6ZM-3825.78 2597.3C-3792.24 2597.3-3758.7 2582-3758.7 2551.99L-3758.7 2409.59C-3758.7 2377.22-3793.42 2362.51-3827.55 2362.51-3860.5 2362.51-3893.45 2378.99-3893.45 2409.59L-3893.45 2552C-3893.45 2582.59-3859.32 2597.3-3825.78 2597.3Z" class="MsftOfcThm_Background1_Stroke_v2" stroke="#FFFFFF" stroke-width="5.99998" fill="none" transform="translate(4355.44 -2263.6)"/><path d="M-3491 2556.7-3491 2689.1-3597.51 2689.1-3597.51 2272.48-3430.98 2272.48C-3345.07 2272.48-3278.58 2311.91-3276.22 2409.59-3276.22 2486.67-3307.41 2530.22-3358.01 2546.11L-3244.45 2689.11-3375.67 2689.11-3472.17 2556.71ZM-3429.22 2370.75-3491 2370.75-3491 2466.08-3429.22 2466.08C-3362.68 2466.08-3362.68 2370.75-3429.18 2370.75Z" class="MsftOfcThm_Background1_Stroke_v2" stroke="#FFFFFF" stroke-width="5.99998" fill="none" transform="translate(4355.44 -2263.6)"/><path d="M-3024.92 2689.1-3131.43 2689.1-3131.43 2371.93-3242 2371.93-3242 2271.93-2914.24 2271.93-2914.24 2371.93-3024.87 2371.93Z" class="MsftOfcThm_Background1_Stroke_v2" stroke="#FFFFFF" stroke-width="5.99998" fill="none" transform="translate(4355.44 -2263.6)"/><path d="M-2605.95 2447.25-2605.95 2545.52-2766.6 2545.52-2766.6 2689.1-2873.1 2689.1-2873.1 2272.48-2583 2272.48-2583 2372.48-2766.6 2372.48-2766.6 2447.21Z" class="MsftOfcThm_Background1_Stroke_v2" stroke="#FFFFFF" stroke-width="5.99998" fill="none" transform="translate(4355.44 -2263.6)"/><path d="M-2371.76 2266.6C-2285.26 2266.6-2198.76 2314.26-2198.76 2409.6L-2198.76 2552C-2198.76 2647.33-2284.67 2695-2371.17 2695-2457.67 2695-2544.17 2647.34-2544.17 2552L-2544.17 2409.6C-2544.17 2313.67-2458.26 2266.6-2371.76 2266.6ZM-2371.17 2597.3C-2337.63 2597.3-2304.09 2582-2304.09 2551.99L-2304.09 2409.59C-2304.09 2377.22-2338.8 2362.51-2372.93 2362.51-2405.93 2362.51-2438.84 2378.99-2438.84 2409.59L-2438.84 2552C-2438.84 2582.59-2404.71 2597.3-2371.17 2597.3Z" class="MsftOfcThm_Background1_Stroke_v2" stroke="#FFFFFF" stroke-width="5.99998" fill="none" transform="translate(4355.44 -2263.6)"/><path d="M-2036.94 2272.48-2036.94 2584.94-1867.47 2584.94-1867.47 2689.1-2142.86 2689.1-2142.86 2272.48Z" class="MsftOfcThm_Background1_Stroke_v2" stroke="#FFFFFF" stroke-width="5.99998" fill="none" transform="translate(4355.44 -2263.6)"/><path d="M-1825.69 2689.1-1825.69 2272.48-1720.36 2272.48-1720.36 2689.1Z" class="MsftOfcThm_Background1_Stroke_v2" stroke="#FFFFFF" stroke-width="5.99998" fill="none" transform="translate(4355.44 -2263.6)"/><path d="M-1492.06 2266.6C-1405.55 2266.6-1319.06 2314.26-1319.06 2409.6L-1319.06 2552C-1319.06 2647.33-1404.98 2695-1491.48 2695-1577.98 2695-1664.48 2647.34-1664.48 2552L-1664.48 2409.6C-1664.47 2313.67-1578.56 2266.6-1492.06 2266.6ZM-1491.47 2597.3C-1457.93 2597.3-1424.39 2582-1424.39 2551.99L-1424.39 2409.59C-1424.39 2377.22-1459.1 2362.51-1493.23 2362.51-1526.23 2362.51-1559.14 2378.99-1559.14 2409.59L-1559.14 2552C-1559.14 2582.59-1525 2597.3-1491.47 2597.3Z" class="MsftOfcThm_Background1_Stroke_v2" stroke="#FFFFFF" stroke-width="5.99998" fill="none" transform="translate(4355.44 -2263.6)"/></svg>