<svg width="101.46" height="101.46" viewBox="0 0 101.46 101.46" xmlns="http://www.w3.org/2000/svg" xmlns:xlink="http://www.w3.org/1999/xlink" overflow="visible"><defs></defs><g><path d="M101.46 52.37C101.46 87.21 85.57 101.46 50.73 101.46 15.89 101.46 0 87.21 0 52.37 0 17.53 15.89 0 50.73 0 85.57 0 101.46 17.53 101.46 52.37" fill="#7FC2C9"/><g><path d="M23.86 41.41 35.39 41.41 35.39 78.47 23.86 78.47 23.86 41.41ZM29.62 22.99C33.31 22.99 36.3 25.98 36.3 29.67 36.3 33.36 33.31 36.35 29.62 36.35 25.92 36.35 22.94 33.36 22.94 29.67 22.94 25.98 25.92 22.99 29.62 22.99" fill="#FFFFFF"/><path d="M42.61 41.41 53.65 41.41 53.65 46.47 53.81 46.47C55.35 43.56 59.11 40.48 64.71 40.48 76.36 40.48 78.52 48.15 78.52 58.14L78.52 78.47 67.02 78.47 67.02 60.45C67.02 56.15 66.94 50.62 61.03 50.62 55.04 50.62 54.12 55.3 54.12 60.14L54.12 78.47 42.62 78.47 42.62 41.41Z" fill="#FFFFFF"/></g></g></svg>