<svg width="101.46" height="101.46" viewBox="0 0 101.46 101.46" xmlns="http://www.w3.org/2000/svg" xmlns:xlink="http://www.w3.org/1999/xlink" overflow="visible"><defs></defs><g><path d="M101.46 52.37C101.46 87.21 85.57 101.46 50.73 101.46 15.89 101.46 0 87.21 0 52.37 0 17.53 15.89 0 50.73 0 85.57 0 101.46 17.53 101.46 52.37" fill="#5FA4B8"/><g><path d="M80.16 38.72C80.16 38.72 79.57 34.58 77.77 32.76 75.49 30.37 72.93 30.36 71.75 30.22 63.35 29.61 50.74 29.61 50.74 29.61L50.71 29.61C50.71 29.61 38.1 29.61 29.7 30.22 28.53 30.36 25.97 30.37 23.68 32.76 21.88 34.58 21.29 38.72 21.29 38.72 21.29 38.72 20.69 43.58 20.69 48.44L20.69 53C20.69 57.86 21.29 62.72 21.29 62.72 21.29 62.72 21.88 66.86 23.68 68.68 25.96 71.07 28.97 71 30.3 71.25 35.11 71.71 50.72 71.85 50.72 71.85 50.72 71.85 63.34 71.83 71.74 71.22 72.91 71.08 75.47 71.07 77.76 68.68 79.56 66.86 80.15 62.72 80.15 62.72 80.15 62.72 80.75 57.86 80.75 53L80.75 48.44C80.76 43.58 80.16 38.72 80.16 38.72" fill="#FFFFFF"/><path d="M44.53 58.52 60.75 50.11 44.53 41.65Z" fill="#5FA4B8"/></g></g></svg>