<svg width="77.88" height="98.47" viewBox="0 0 77.88 98.47" xmlns="http://www.w3.org/2000/svg" xmlns:xlink="http://www.w3.org/1999/xlink" overflow="visible"><defs></defs><path d="M4.41 0C5.44 0.25 7.27 0.44 8.86 1.16 29.03 10.41 49.18 19.7 69.29 29.07 74.94 31.7 80.2 38.46 76.81 43.69 64.84 62.17 48.3 76.56 36.27 95.01 35.73 95.84 35.23 97.06 34.46 97.3 32.41 97.92 29.81 98.97 28.23 98.2 26.83 97.52 25.56 94.43 25.88 92.72 28.65 77.93 31.71 63.19 34.91 48.48 35.55 45.52 34.94 43.6 32.87 41.48 22.36 30.68 11.98 19.78 1.62 8.86-1.3 5.78-0.22 1.45 4.41 0Z" fill="#32C6D6" fill-rule="evenodd" clip-rule="evenodd"/></svg>