<svg width="1620.71" height="2048.23" viewBox="0 0 1620.71 2048.23" xmlns="http://www.w3.org/2000/svg" xmlns:xlink="http://www.w3.org/1999/xlink" overflow="visible"><defs></defs><path d="M93.55 2.08C114.9 7.35 152.95 11.12 185.87 26.12 604.52 218.13 1022.82 410.91 1440.36 605.45 1557.64 660.11 1666.85 800.34 1596.54 908.94 1348.04 1292.75 1004.74 1591.4 754.86 1974.39 743.73 1991.53 733.19 2016.9 717.23 2021.84 674.64 2034.69 620.63 2056.6 587.81 2040.61 558.82 2026.5 532.34 1962.43 539.03 1926.77 596.55 1619.73 659.98 1313.67 726.49 1008.34 739.77 946.87 727.1 907.02 684.06 862.95 466.18 639.05 250.77 412.67 35.7 186.03-24.98 122.13-2.54 32.12 93.55 2.08Z" stroke="#FFFFFF" stroke-width="4.00002" stroke-miterlimit="10" fill="none" fill-rule="evenodd" clip-rule="evenodd"/></svg>