<svg width="101.46" height="101.46" viewBox="0 0 101.46 101.46" xmlns="http://www.w3.org/2000/svg" xmlns:xlink="http://www.w3.org/1999/xlink" overflow="visible"><defs></defs><g><path d="M101.46 52.37C101.46 87.21 85.57 101.46 50.73 101.46 15.89 101.46 0 87.21 0 52.37 0 17.53 15.89 0 50.73 0 85.57 0 101.46 17.53 101.46 52.37" fill="#385680"/><g><path d="M50.73 23.84C59.49 23.84 60.53 23.87 63.99 24.03 67.19 24.17 68.93 24.71 70.08 25.16 71.61 25.75 72.7 26.47 73.85 27.61 75 28.76 75.71 29.85 76.3 31.38 76.75 32.54 77.28 34.27 77.43 37.47 77.59 40.93 77.62 41.97 77.62 50.73 77.62 59.49 77.59 60.53 77.43 63.99 77.28 67.19 76.75 68.93 76.3 70.08 75.7 71.61 74.99 72.7 73.85 73.85 72.7 75 71.61 75.71 70.08 76.3 68.92 76.75 67.19 77.28 63.99 77.43 60.53 77.59 59.49 77.62 50.73 77.62 41.97 77.62 40.93 77.59 37.47 77.43 34.27 77.28 32.53 76.75 31.38 76.3 29.85 75.71 28.76 74.99 27.61 73.85 26.46 72.7 25.75 71.61 25.16 70.08 24.71 68.92 24.18 67.19 24.03 63.99 23.87 60.53 23.84 59.49 23.84 50.73 23.84 41.97 23.87 40.93 24.03 37.47 24.18 34.27 24.71 32.53 25.16 31.38 25.76 29.85 26.47 28.75 27.61 27.61 28.76 26.46 29.85 25.75 31.38 25.16 32.54 24.71 34.27 24.18 37.47 24.03 40.93 23.87 41.97 23.84 50.73 23.84M50.73 17.92C41.82 17.92 40.7 17.96 37.2 18.12 33.71 18.28 31.32 18.83 29.24 19.65 27.08 20.49 25.25 21.61 23.43 23.43 21.61 25.25 20.48 27.08 19.65 29.24 18.84 31.33 18.28 33.71 18.13 37.2 17.97 40.7 17.93 41.82 17.93 50.73 17.93 59.64 17.97 60.76 18.13 64.26 18.29 67.75 18.84 70.14 19.65 72.22 20.49 74.38 21.61 76.21 23.43 78.03 25.25 79.85 27.08 80.98 29.24 81.81 31.33 82.62 33.71 83.18 37.2 83.33 40.7 83.49 41.82 83.53 50.73 83.53 59.64 83.53 60.76 83.49 64.26 83.33 67.75 83.17 70.14 82.62 72.22 81.81 74.38 80.97 76.21 79.85 78.03 78.03 79.85 76.21 80.98 74.38 81.81 72.22 82.62 70.13 83.18 67.75 83.33 64.26 83.49 60.76 83.53 59.64 83.53 50.73 83.53 41.82 83.49 40.7 83.33 37.2 83.17 33.71 82.62 31.32 81.81 29.24 80.97 27.08 79.85 25.25 78.03 23.43 76.21 21.61 74.38 20.49 72.22 19.65 70.13 18.84 67.75 18.28 64.26 18.12 60.76 17.96 59.64 17.92 50.73 17.92" fill="#FFFFFF"/><path d="M50.73 33.88C41.43 33.88 33.88 41.42 33.88 50.73 33.88 60.04 41.42 67.58 50.73 67.58 60.03 67.58 67.58 60.04 67.58 50.73 67.58 41.42 60.04 33.88 50.73 33.88M50.73 61.67C44.69 61.67 39.79 56.77 39.79 50.73 39.79 44.69 44.69 39.79 50.73 39.79 56.77 39.79 61.66 44.69 61.66 50.73 61.67 56.77 56.77 61.67 50.73 61.67" fill="#FFFFFF"/><path d="M72.18 33.22C72.18 35.39 70.42 37.16 68.24 37.16 66.07 37.16 64.3 35.4 64.3 33.22 64.3 31.05 66.06 29.28 68.24 29.28 70.42 29.28 72.18 31.05 72.18 33.22" fill="#FFFFFF"/></g></g></svg>