<svg width="138.2" height="135.9" viewBox="0 0 138.2 135.9" xmlns="http://www.w3.org/2000/svg" xmlns:xlink="http://www.w3.org/1999/xlink" overflow="visible"><defs></defs><path d="M138.2 4.8C136.1 19.3 133.9 34.5 131.7 49.6 128.5 71.2 125.3 92.7 122.1 114.3 121.2 120.3 120.7 120.7 114.7 118.6 105.8 115.4 96.8 112.5 88 109 84.5 107.6 82.7 108.4 80.5 111.2 74.9 118.5 69.1 125.5 63.4 132.7 59.8 137.2 58 137 55.9 131.8 51.1 120.1 46.4 108.4 41.7 96.6 40.4 93.4 38.7 91.2 35.2 89.8 24.6 85.8 14.2 81.3 3.8 76.9 2.3 76.3 1.2 74.7-0.1 73.6 1.1 72.4 2.1 70.7 3.6 70 46.5 47 89.4 24.1 132.2 1.3 136.7-1.1 138.4-0.3 138.2 4.8ZM131.1 15.2C130.7 15 130.3 14.9 130 14.7 109.5 41.5 89 68.2 68.3 95.3 84.8 101.4 100.4 107.3 116.8 113.4 121.6 80.3 126.3 47.8 131.1 15.2ZM115.3 17.7C115.1 17.4 115 17.2 114.8 16.9 80 35.5 45.2 54.1 9.5 73.1 19.5 77.2 28.5 80.8 37.4 84.8 40.5 86.2 42.5 85.6 44.8 83.3 48.3 79.7 52.1 76.4 55.7 73 75.5 54.6 95.4 36.2 115.3 17.7ZM109.1 32.7C108.8 32.5 108.5 32.2 108.2 32 104.2 35.7 100.2 39.5 96.2 43.2 80.2 58 64.1 72.8 48.2 87.7 47.1 88.7 45.8 91 46.2 92.1 49.7 101.4 53.6 110.6 57.3 119.8 58.9 115 59.1 110.2 60 105.5 60.9 100.9 61.4 95.7 63.9 92 71.5 81.1 79.9 70.8 88 60.2 95 51.1 102.1 41.9 109.1 32.7ZM78.1 105.3C73.7 103.6 70.1 102.2 66 100.7 65.2 108.1 64.4 114.8 63.7 121.5 64 121.6 64.4 121.8 64.7 121.9 69.1 116.6 73.4 111.2 78.1 105.3Z" fill="#32C6D6"/></svg>