<svg width="317.6" height="282" viewBox="0 0 317.6 282" xmlns="http://www.w3.org/2000/svg" xmlns:xlink="http://www.w3.org/1999/xlink" xml:space="preserve" overflow="visible"><style>
.MsftOfcResponsive_Fill_cfcfcf {
 fill:#CFCFCF; 
}
</style>
<defs></defs><g><path d="M127.2 9.4C97.5 9.4 67.9 9.6 38.2 9.3 30.6 9.2 27.6 11.2 27.6 19.4 28 58.1 28 96.9 27.6 135.6 27.5 143.4 30.2 145.5 37.6 145.4 83.7 145.1 129.9 145.3 176 145.3 177.9 145.3 179.8 145.2 181.8 145.3 185.6 145.4 190.6 144.6 190.5 150.1 190.4 155.5 185.4 154.8 181.7 154.8 132.8 154.8 83.9 154.9 35 154.8 23.5 154.8 18.3 149.7 18.2 138.1 18.1 97.4 18 56.8 18.2 16.1 18.3 5 23.5 0.1 34.5 0 96.3 0 158.1 0 219.9 0 231.2 0 236.1 4.7 236.3 15.9 236.6 30.7 236.4 45.6 236.3 60.4 236.3 63.6 236.6 67.7 231.9 67.8 226.5 68 227.1 63.7 227 60.1 227 46.6 226.6 33.2 227.1 19.7 227.5 12 225 9.2 217 9.3 187 9.7 157.1 9.4 127.2 9.4Z" class="MsftOfcResponsive_Fill_cfcfcf" fill="#CFCFCF"/><path d="M211.8 281.7C158.6 281.7 105.5 281.7 52.3 281.7 50 279.1 50.7 275.6 49.7 272.6 51.3 265.6 49.9 259.3 46.5 252.9 39.1 238.9 32.2 224.5 25.2 210.3 21.3 202.5 22.9 199.9 31.8 199.9 65.3 199.8 98.7 200 132.2 199.8 137.8 199.8 140.6 202 142.9 206.7 149.4 220 156.2 233 163 246.2 164.3 251.4 166.7 255.2 173 254 177.4 254.8 181.8 254.7 186.2 254 189.4 254 192.6 254 195.8 254 213.2 255.6 213.2 255.6 214.2 272.5 213.8 275.7 213.9 279 211.8 281.7ZM35.3 209.3C42.1 223.1 48.3 235.9 54.7 248.4 57.6 254.1 60.3 259.7 59.4 266.3 58.7 271.1 61 272.3 65.5 272.3 109.9 272.2 154.3 272.2 198.8 272.3 202.1 272.3 204.6 272.2 204.5 267.6 204.3 263.2 201.5 263.9 198.9 263.8 189 263.8 179.1 263.5 169.3 263.9 163.3 264.2 159.8 262.2 157.2 256.6 150.7 242.7 143.4 229.2 136.9 215.3 134.7 210.7 132 209 126.9 209.1 103.6 209.4 80.3 209.2 57 209.2 50.1 209.3 43.3 209.3 35.3 209.3Z" class="MsftOfcResponsive_Fill_cfcfcf" fill="#CFCFCF"/><path d="M211.8 281.7C213.9 279 213.8 275.7 214.1 272.5 217.5 272.1 221.4 274.2 222.6 267.9 225.1 254.8 231.4 250.3 245.1 250 262.2 249.7 262.2 249.7 263.3 232.7 263.5 229.8 263.4 227.4 267.5 227.3 271.6 227.2 272.7 229.2 272.6 232.8 272.5 239.4 272.4 246 272.7 252.6 272.9 257.5 271.2 259.5 266.1 259.3 258.7 259 251.3 259.2 243.9 259.2 239.2 259.2 235.1 260.7 233 265.2 231.3 268.8 230.8 272.2 236.8 272.2 252.7 272.2 268.6 272.3 284.6 272.6 288.8 272.7 290.5 271 290.4 266.8 290.1 249.5 290.9 232.2 289.7 214.9 288 190.4 269.4 173.5 245 173.1 233.5 172.9 221.9 173.2 210.4 173 201 172.9 193.3 176.6 187.1 183.3 180.4 190.5 176.4 199.2 174.4 208.8 171.4 223.8 173.5 238.9 172.9 254 166.6 255.2 164.2 251.4 162.9 246.2 164 234.5 162.8 222.6 164.5 210.9 168 186.8 183.6 167 203.7 164.5 221.6 162.3 240 161.8 257.8 165.3 281.7 170 299.1 193.1 299.7 219.8 300.1 234.9 300 250 299.7 265.1 299.6 270.6 300.9 273.5 306.9 272.7 308.2 272.5 309.6 272.6 311 272.7 314.1 272.9 317.5 273.3 317.6 277.3 317.7 281.9 314.1 282.1 310.6 282.1 277.7 281.9 244.7 281.8 211.8 281.7Z" class="MsftOfcResponsive_Fill_cfcfcf" fill="#CFCFCF"/><path d="M263.5 118.5C263.4 144.2 244.4 160.1 221.9 153.3 216.8 151.8 212.5 149 208.9 145 196.8 131.5 196.6 105.3 208.6 91.8 222.1 76.6 247.6 79 258 96.5 262.1 103.3 263.7 110.7 263.5 118.5ZM254 117.3C253.9 115.8 253.8 113 253.3 110.3 251.1 98.7 242.8 91.3 232 91.1 221.3 90.9 213.5 97.2 210.4 108.7 208 117.2 208.6 125.6 212.5 133.5 216.2 141 222.2 145 230.8 145.2 245.1 145.5 253.9 135.4 254 117.3Z" class="MsftOfcResponsive_Fill_cfcfcf" fill="#CFCFCF"/><path d="M95.4 78.2C95.4 72.2 95.2 66.1 95.4 60.1 95.7 50.7 101.8 46.5 110.2 50.4 123.1 56.5 135.8 62.8 148.3 69.4 156.9 74 157 82.7 148.5 87.2 136 93.9 123.2 100.2 110.4 106.4 101.9 110.4 95.7 106.4 95.4 97 95.2 90.8 95.4 84.5 95.4 78.2ZM145.5 78.5C132.9 72.2 121.4 66.5 110 60.7 106.7 59 104.9 59 105 63.4 105.1 73.5 105.1 83.7 105 93.8 105 97.3 106.3 98.3 109.5 96.7 121.1 90.8 132.8 84.9 145.5 78.5Z" class="MsftOfcResponsive_Fill_cfcfcf" fill="#CFCFCF"/><path d="M49.7 272.6C50.7 275.6 50 279.1 52.3 281.7 37.3 281.8 22.3 281.9 7.3 282 3.9 282 0.1 282 4.44089e-15 277.5-0.1 273 3.7 272.7 7.1 272.6 21.3 272.5 35.5 272.6 49.7 272.6Z" class="MsftOfcResponsive_Fill_cfcfcf" fill="#CFCFCF"/><path d="M186.1 254C186.1 246.9 186.2 239.8 186.1 232.7 186.1 229.6 186.5 227.4 190.5 227.4 194.5 227.3 195.8 228.9 195.7 232.7 195.6 239.8 195.7 246.9 195.7 254 192.5 254 189.3 254 186.1 254Z" class="MsftOfcResponsive_Fill_cfcfcf" fill="#CFCFCF"/><path d="M226.7 204.6C222.9 205 222.4 202.7 222.4 199.5 222.4 196.1 224.4 195.6 227.1 195.5 230.5 195.4 232 196.7 232 200.3 232 204.1 229.9 204.8 226.7 204.6Z" class="MsftOfcResponsive_Fill_cfcfcf" fill="#CFCFCF"/><path d="M231.9 226.9C232.2 230.1 231.3 232.1 227.6 232.1 224.5 232.1 222.4 231.4 222.4 227.7 222.4 224.6 223 222.5 226.8 222.6 229.8 222.7 232.2 223.1 231.9 226.9Z" class="MsftOfcResponsive_Fill_cfcfcf" fill="#CFCFCF"/></g></svg>