<svg width="306.7" height="273.8" viewBox="0 0 306.7 273.8" xmlns="http://www.w3.org/2000/svg" xmlns:xlink="http://www.w3.org/1999/xlink" xml:space="preserve" overflow="visible"><style>
.MsftOfcResponsive_Fill_cfcfcf {
 fill:#CFCFCF; 
}
</style>
<defs></defs><g><path d="M8.2 198.6C14.9 198.6 21.2 198.6 28.2 198.6 28.2 191 28.2 183.9 28.2 176.8 28.2 163.2 28.1 149.7 28.2 136.1 28.3 117.2 41.3 103.9 60.1 103.7 83 103.4 106 103.4 128.9 103.7 147.6 103.9 160.6 117.2 160.9 136.3 161.2 154.3 161 172.3 161 190.3 161 193 161 195.6 161 198.6 207.3 198.6 252.7 198.6 298.9 198.6 298.9 193.4 298.6 188.7 299.1 184.1 299.3 182.4 301.4 181 302.6 179.5 303.9 181 306.2 182.5 306.3 184 306.5 195.1 307 206.2 306 217.2 305 227.8 294.5 235.1 282.2 235.1 256.1 235.2 229.9 235.1 203.8 235.1 201.1 235.1 198.4 235.1 194.4 235.1 194.4 244.7 194.2 253.9 194.7 263.1 194.8 264.2 198.2 265.9 200.2 266 208.3 266.3 216.5 265.9 224.6 266.3 226.7 266.4 228.8 268.5 230.8 269.7 228.7 271.1 226.5 273.7 224.4 273.7 192.6 274 160.8 273.9 129 273.9 113.5 273.9 97.9 274.1 82.4 273.7 80.1 273.7 77.9 271.3 75.6 270.1 77.8 268.8 80 266.5 82.2 266.4 91.8 266 101.3 266.2 111.5 266.2 111.5 255.8 111.5 246.1 111.5 235.6 108.9 235.5 106.3 235.3 103.7 235.3 77.8 235.3 51.9 235.3 26 235.3 8.8 235 0 226.4 0 209.4 0 148 0 86.6 0 25.2 0 8.9 8.8 0 25 0 110.8 0 196.6 0 282.4 0 296.2 0 306.8 9.5 306.4 21.6 306.3 23.6 304.5 25.5 303.4 27.5 301.9 25.8 299.5 24.2 299 22.2 296.5 11.9 292.3 8 281.5 8 195.9 7.9 110.4 7.9 24.8 8 13.6 8 7.7 13.6 7.7 24 7.6 81.2 7.7 138.4 7.7 195.6 7.7 196.3 8 197 8.2 198.6ZM153.2 199.1C153.2 177.9 153.3 157.7 153.2 137.6 153.1 120.9 143.9 111.6 127 111.4 106.3 111.2 85.6 111.3 64.9 111.4 61.7 111.4 58.5 111.6 55.4 112.2 44.7 114.1 36.4 121.9 36 132.5 35.4 154.4 35.8 176.3 35.8 198.7 42.3 198.7 48.4 198.7 54.8 198.7 55 196.5 55.3 194.6 55.3 192.7 55.3 175.9 55.2 159.2 55.5 142.4 55.5 140.3 58.3 138.3 59.8 136.2 61.1 138.2 62.8 140.1 63.5 142.3 64.1 144.1 63.6 146.2 63.6 148.2 63.6 164.9 63.6 181.6 63.6 198.6 84.6 198.6 104.9 198.6 125.3 198.6 125.5 196.6 125.7 195.1 125.7 193.7 125.7 176.7 125.6 159.7 125.9 142.7 125.9 140.5 128.4 138.4 129.8 136.2 131 138.2 133 140.2 133.3 142.4 133.8 147.5 133.5 152.7 133.5 157.9 133.5 171.4 133.5 184.8 133.5 198.5 136.1 198.8 137.8 199.1 139.4 199.1 143.6 199.1 147.7 199.1 153.2 199.1ZM8.3 207.2C7 221.1 12.6 226.9 26.8 227 111.1 227 195.4 227 279.8 227 281.5 227 283.3 227 285 226.8 295.3 225.6 300.4 217.9 297.8 207.2 201.4 207.2 105.1 207.2 8.3 207.2ZM186.3 235.5C163.9 235.5 142.2 235.5 120.3 235.5 120.3 245.7 120.3 255.4 120.3 265.6 142.4 265.6 164.2 265.6 186.3 265.6 186.3 255.5 186.3 245.8 186.3 235.5Z" class="MsftOfcResponsive_Fill_cfcfcf" fill="#CFCFCF"/><path d="M182.2 65.1C182.2 61.4 182.1 58.9 182.2 56.5 182.7 48.5 187.8 43 195.9 43 228.2 42.8 260.4 42.8 292.7 43 301.1 43 306.5 48.5 306.5 57 306.6 87.8 306.6 118.6 306.5 149.3 306.5 158.2 301.2 163.7 292.3 163.8 260.5 164 228.8 164 197 163.8 187.7 163.7 182.6 158.2 182.2 148.9 182.2 148.7 182.2 148.4 182.2 148.2 186.2 123.2 178.1 102 162.1 83.2 159.4 80 157.3 76.3 155.2 72.7 152.5 68 153.6 65.1 159.4 65.1 166.8 65.1 174.1 65.1 182.2 65.1ZM165 73.2C166.5 75.9 167.1 77.5 168.1 78.8 184.8 98.6 193.8 120.8 189.6 147.2 188.6 153.4 192.3 156 198.4 156 228.9 155.9 259.5 155.9 290 156 296.2 156 299.1 153.2 299.1 147.1 299.1 117.6 299.1 88 299.1 58.5 299.1 53.4 296.6 50.5 291.6 50.5 260.3 50.4 229.1 50.4 197.8 50.5 192.8 50.5 190.1 53.2 189.9 58.2 189.8 60.7 189.6 63.1 189.9 65.6 190.5 71.5 187.9 73.6 182.2 73.3 176.8 73 171.5 73.2 165 73.2Z" class="MsftOfcResponsive_Fill_cfcfcf" fill="#CFCFCF"/><path d="M123.3 61.6C120.5 68.7 119.1 76.9 114.7 82.8 104 97.4 81.3 96.2 72.1 80.6 64.6 67.9 64.8 54.1 71.9 41.1 77.3 31.2 89.4 27 100.8 29.6 111.6 32.1 119.9 42 121.1 54.1 121.3 56.3 121.1 58.5 121.1 60.7 122 61.1 122.7 61.4 123.3 61.6ZM112.8 60.3C113.4 52.4 111.5 44.6 103.2 39.8 96.3 35.8 89.5 36.5 83.4 41.6 76.7 47.3 74 61.3 77.5 71.9 79.9 79.1 86.7 84.2 94.1 84.4 105.7 84.7 112.8 75.9 112.8 60.3Z" class="MsftOfcResponsive_Fill_cfcfcf" fill="#CFCFCF"/><path d="M244.2 99.3C253.5 99.3 262.9 99.1 272.2 99.5 274.2 99.6 276.1 102 278.1 103.3 276.2 104.8 274.4 107.5 272.5 107.5 253.6 107.8 234.6 107.8 215.7 107.5 213.8 107.5 212 104.7 210.2 103.3 212.2 102 214.1 99.6 216.2 99.5 225.5 99.1 234.9 99.3 244.2 99.3Z" class="MsftOfcResponsive_Fill_cfcfcf" fill="#CFCFCF"/><path d="M244.3 71.4C253.4 71.4 262.5 71.1 271.6 71.6 273.9 71.7 276 74 278.3 75.3 276.2 76.8 274.1 79.4 271.9 79.5 253.5 79.8 235 79.8 216.6 79.5 214.5 79.5 212.4 76.8 210.3 75.4 212.5 74.1 214.7 71.7 217 71.6 226.1 71.2 235.2 71.4 244.3 71.4Z" class="MsftOfcResponsive_Fill_cfcfcf" fill="#CFCFCF"/><path d="M233 127.3C238.4 127.3 243.8 126.9 249.2 127.5 251.2 127.7 252.9 130.1 254.7 131.5 253 132.8 251.4 135.3 249.6 135.4 238.1 135.7 226.5 135.7 215 135.4 213.3 135.3 211.8 132.7 210.1 131.3 211.8 130 213.4 127.7 215.3 127.5 221.2 127 227.1 127.3 233 127.3Z" class="MsftOfcResponsive_Fill_cfcfcf" fill="#CFCFCF"/></g></svg>