<svg viewBox="0 0 474.49 488.83" xmlns="http://www.w3.org/2000/svg" xmlns:xlink="http://www.w3.org/1999/xlink" overflow="hidden"><defs><pattern width="72.2" height="71.54" patternUnits="userSpaceOnUse" viewBox="0 0 72.2 71.54" id="Unnamed_Pattern_3" overflow="hidden" patternTransform="matrix(1.09 0 0 1.09 -517.13 -273.38)"><rect x="0" y="0" width="72.2" height="71.54" fill="none"/><path d="M20.85 3C20.7574 2.9974 20.6688 2.96196 20.6 2.9 20.4654 2.76052 20.4654 2.53948 20.6 2.4 20.748 2.2672 20.9756 2.27951 21.1084 2.42748 21.1635 2.48895 21.1959 2.56751 21.2 2.65 21.1974 2.74256 21.162 2.83118 21.1 2.9 21.0312 2.96196 20.9426 2.9974 20.85 3Z" fill="#000005"/><path d="M19.85 8.24C19.6623 8.24561 19.5056 8.098 19.5 7.9103 19.4998 7.90354 19.4998 7.89677 19.5 7.89 19.4988 7.79469 19.5389 7.70354 19.61 7.64 19.7499 7.51635 19.9601 7.51635 20.1 7.64 20.1644 7.70726 20.2003 7.79687 20.2 7.89 20.1974 7.98256 20.162 8.07118 20.1 8.14 20.0322 8.20355 19.9429 8.23925 19.85 8.24Z" fill="#000005"/><path d="M20.1 10.49C19.9067 10.4928 19.7478 10.3384 19.7449 10.1451 19.7436 10.0493 19.7815 9.95707 19.85 9.89 19.9915 9.76035 20.2085 9.76035 20.35 9.89 20.4881 10.0253 20.4904 10.2469 20.3551 10.3849 20.2881 10.4534 20.1958 10.4914 20.1 10.49Z" fill="#000005"/><path d="M15.1 10.49C14.9123 10.4956 14.7556 10.348 14.75 10.1603 14.7498 10.1535 14.7498 10.1468 14.75 10.14 14.7508 10.0471 14.7865 9.95782 14.85 9.89 14.9932 9.76491 15.2068 9.76491 15.35 9.89 15.4881 10.0253 15.4904 10.2469 15.3551 10.3849 15.2881 10.4534 15.1958 10.4914 15.1 10.49Z" fill="#000005"/><path d="M22.6 20C22.4067 20.0028 22.2478 19.8484 22.2449 19.6551 22.2436 19.5593 22.2815 19.4671 22.35 19.4 22.498 19.2672 22.7256 19.2795 22.8584 19.4275 22.9135 19.4889 22.9459 19.5675 22.95 19.65 22.9556 19.8377 22.808 19.9944 22.6203 20 22.6135 20.0002 22.6068 20.0002 22.6 20Z" fill="#000005"/><path d="M15.1 23C14.9123 23.0056 14.7556 22.858 14.75 22.6703 14.7498 22.6635 14.7498 22.6568 14.75 22.65 14.7488 22.5547 14.7889 22.4635 14.86 22.4 14.9999 22.2764 15.2101 22.2764 15.35 22.4 15.4144 22.4673 15.4503 22.5569 15.45 22.65 15.4556 22.8377 15.308 22.9944 15.1203 23 15.1135 23.0002 15.1068 23.0002 15.1 23Z" fill="#000005"/><path d="M13.85 24C13.6567 24.0028 13.4978 23.8484 13.4949 23.6551 13.4936 23.5593 13.5315 23.4671 13.6 23.4 13.748 23.2672 13.9756 23.2795 14.1084 23.4275 14.1635 23.4889 14.1959 23.5675 14.2 23.65 14.1974 23.7426 14.162 23.8312 14.1 23.9 14.0322 23.9636 13.9429 23.9992 13.85 24Z" fill="#000005"/><path d="M23.85 27C23.6623 27.0056 23.5056 26.858 23.5 26.6703 23.4998 26.6635 23.4998 26.6568 23.5 26.65 23.4988 26.5547 23.5389 26.4635 23.61 26.4 23.7499 26.2764 23.9601 26.2764 24.1 26.4 24.162 26.4688 24.1974 26.5574 24.2 26.65 24.1987 26.7399 24.1629 26.8258 24.1 26.89 24.0344 26.9581 23.9445 26.9976 23.85 27Z" fill="#000005"/><path d="M30.6 25.74C30.4067 25.7428 30.2478 25.5884 30.2449 25.3951 30.2436 25.2993 30.2815 25.2071 30.35 25.14 30.498 25.0072 30.7256 25.0195 30.8584 25.1675 30.9135 25.2289 30.9459 25.3075 30.95 25.39 30.9556 25.5777 30.808 25.7344 30.6203 25.74 30.6135 25.7402 30.6068 25.7402 30.6 25.74Z" fill="#000005"/><path d="M31.1 23.24C30.9123 23.2456 30.7556 23.098 30.75 22.9103 30.7498 22.9035 30.7498 22.8968 30.75 22.89 30.7488 22.7947 30.7889 22.7035 30.86 22.64 31.0007 22.5074 31.2222 22.514 31.3548 22.6547 31.4148 22.7184 31.4488 22.8024 31.45 22.89 31.4474 22.9826 31.412 23.0712 31.35 23.14 31.2822 23.2035 31.1929 23.2392 31.1 23.24Z" fill="#000005"/><path d="M29.1 18.24C28.9067 18.2428 28.7478 18.0884 28.7449 17.8951 28.7436 17.7993 28.7815 17.7071 28.85 17.64 28.998 17.5072 29.2256 17.5195 29.3584 17.6675 29.4135 17.7289 29.4459 17.8075 29.45 17.89 29.4556 18.0777 29.308 18.2344 29.1203 18.24 29.1135 18.2402 29.1068 18.2402 29.1 18.24Z" fill="#000005"/><path d="M33.85 19.74C33.6567 19.7428 33.4978 19.5884 33.4949 19.3951 33.4936 19.2993 33.5315 19.2071 33.6 19.14 33.748 19.0072 33.9756 19.0195 34.1084 19.1675 34.1635 19.2289 34.1959 19.3075 34.2 19.39 34.2056 19.5777 34.058 19.7344 33.8703 19.74 33.8635 19.7402 33.8568 19.7402 33.85 19.74Z" fill="#000005"/><path d="M31.35 14.74C31.1567 14.7428 30.9978 14.5884 30.9949 14.3951 30.9936 14.2993 31.0315 14.2071 31.1 14.14 31.248 14.0072 31.4756 14.0195 31.6084 14.1675 31.6635 14.2289 31.6959 14.3075 31.7 14.39 31.7056 14.5777 31.558 14.7344 31.3703 14.74 31.3635 14.7402 31.3568 14.7402 31.35 14.74Z" fill="#000005"/><path d="M31.6 11.74C31.4067 11.7428 31.2478 11.5884 31.2449 11.3951 31.2436 11.2993 31.2815 11.2071 31.35 11.14 31.4915 11.0104 31.7085 11.0104 31.85 11.14 31.9881 11.2753 31.9904 11.4969 31.8551 11.6349 31.7881 11.7034 31.6958 11.7414 31.6 11.74Z" fill="#000005"/><path d="M32.1 7C31.9067 7.00281 31.7478 6.8484 31.7449 6.65513 31.7436 6.55929 31.7815 6.46707 31.85 6.4 31.998 6.2672 32.2256 6.27951 32.3584 6.42748 32.4135 6.48895 32.4459 6.56751 32.45 6.65 32.4556 6.83769 32.308 6.99439 32.1203 7 32.1135 7.0002 32.1068 7.0002 32.1 7Z" fill="#000005"/><path d="M31.85 3C31.7574 2.9974 31.6688 2.96196 31.6 2.9 31.538 2.83118 31.5026 2.74256 31.5 2.65 31.4988 2.55469 31.5389 2.46354 31.61 2.4 31.7507 2.26743 31.9722 2.27401 32.1048 2.41469 32.1648 2.47845 32.1988 2.56241 32.2 2.65 32.1974 2.74256 32.162 2.83118 32.1 2.9 32.0312 2.96196 31.9426 2.9974 31.85 3Z" fill="#000005"/><path d="M33.85 1.24C33.7555 1.2376 33.6656 1.19808 33.6 1.13 33.5352 1.06706 33.4991 0.980314 33.5 0.89 33.4988 0.794691 33.5389 0.703537 33.61 0.64 33.7481 0.511694 33.9619 0.511694 34.1 0.64 34.1644 0.707261 34.2003 0.796869 34.2 0.89 34.1999 0.985045 34.16 1.0757 34.09 1.14 34.0258 1.20291 33.9399 1.23872 33.85 1.24Z" fill="#000005"/><path d="M41.35 7C41.2574 6.9974 41.1688 6.96196 41.1 6.9 41.0347 6.83334 40.9987 6.74333 41 6.65 41.0026 6.55744 41.038 6.46882 41.1 6.4 41.2361 6.2666 41.4539 6.2666 41.59 6.4 41.6581 6.46565 41.6976 6.55545 41.7 6.65 41.7056 6.83769 41.558 6.99439 41.3703 7 41.3635 7.0002 41.3568 7.0002 41.35 7Z" fill="#000005"/><path d="M45.35 6.74C45.2574 6.7374 45.1688 6.70196 45.1 6.64 44.9654 6.50052 44.9654 6.27948 45.1 6.14 45.248 6.00721 45.4756 6.01951 45.6084 6.16748 45.6635 6.22895 45.6959 6.30751 45.7 6.39 45.7056 6.57769 45.558 6.73439 45.3703 6.74 45.3635 6.7402 45.3568 6.7402 45.35 6.74Z" fill="#000005"/><path d="M42.35 13.49C42.1623 13.4956 42.0056 13.348 42 13.1603 41.9998 13.1535 41.9998 13.1468 42 13.14 41.9988 13.0447 42.0389 12.9535 42.11 12.89 42.2507 12.7574 42.4722 12.764 42.6048 12.9047 42.6648 12.9684 42.6988 13.0524 42.7 13.14 42.7056 13.3277 42.558 13.4844 42.3703 13.49 42.3635 13.4902 42.3568 13.4902 42.35 13.49Z" fill="#000005"/><path d="M46.85 14.24C46.6623 14.2456 46.5056 14.098 46.5 13.9103 46.4998 13.9035 46.4998 13.8968 46.5 13.89 46.4988 13.7947 46.5389 13.7035 46.61 13.64 46.7481 13.5117 46.9619 13.5117 47.1 13.64 47.162 13.7088 47.1974 13.7974 47.2 13.89 47.2009 13.9803 47.1648 14.0671 47.1 14.13 47.0344 14.1981 46.9445 14.2376 46.85 14.24Z" fill="#000005"/><path d="M46.85 16.24C46.6623 16.2456 46.5056 16.098 46.5 15.9103 46.4998 15.9035 46.4998 15.8968 46.5 15.89 46.4988 15.7947 46.5389 15.7035 46.61 15.64 46.7481 15.5117 46.9619 15.5117 47.1 15.64 47.162 15.7088 47.1974 15.7974 47.2 15.89 47.1968 15.9795 47.1613 16.0647 47.1 16.13 47.0344 16.1981 46.9445 16.2376 46.85 16.24Z" fill="#000005"/><path d="M38.85 20.74C38.6567 20.7428 38.4978 20.5884 38.4949 20.3951 38.4936 20.2993 38.5315 20.2071 38.6 20.14 38.7381 20.0117 38.9519 20.0117 39.09 20.14 39.16 20.2043 39.1999 20.295 39.2 20.39 39.2056 20.5777 39.058 20.7344 38.8703 20.74 38.8635 20.7402 38.8568 20.7402 38.85 20.74Z" fill="#000005"/><path d="M50.1 13.49C50.0074 13.4874 49.9188 13.452 49.85 13.39 49.7154 13.2505 49.7154 13.0295 49.85 12.89 49.9915 12.7604 50.2085 12.7604 50.35 12.89 50.4881 13.0253 50.4904 13.2469 50.3551 13.3849 50.2881 13.4534 50.1958 13.4914 50.1 13.49Z" fill="#000005"/><path d="M52.1 12C52.0055 11.9976 51.9156 11.9581 51.85 11.89 51.7871 11.8258 51.7513 11.7399 51.75 11.65 51.7488 11.5547 51.7889 11.4635 51.86 11.4 51.9999 11.2764 52.2101 11.2764 52.35 11.4 52.4144 11.4673 52.4503 11.5569 52.45 11.65 52.4556 11.8377 52.308 11.9944 52.1203 12 52.1135 12.0002 52.1068 12.0002 52.1 12Z" fill="#000005"/><path d="M54.6 11C54.5055 10.9976 54.4156 10.9581 54.35 10.89 54.2871 10.8258 54.2513 10.7399 54.25 10.65 54.2488 10.5547 54.2889 10.4635 54.36 10.4 54.5007 10.2674 54.7222 10.274 54.8548 10.4147 54.9148 10.4784 54.9488 10.5624 54.95 10.65 54.9556 10.8377 54.808 10.9944 54.6203 11 54.6135 11.0002 54.6068 11.0002 54.6 11Z" fill="#000005"/><path d="M56.35 0.74C56.2574 0.737403 56.1688 0.701955 56.1 0.64 56.038 0.571181 56.0026 0.482562 56 0.39 56.0026 0.297438 56.038 0.208819 56.1 0.14 56.2395 0.00538222 56.4605 0.00538222 56.6 0.14 56.6629 0.204192 56.6987 0.290127 56.7 0.38 56.6974 0.472562 56.662 0.561181 56.6 0.63 56.5326 0.695602 56.4439 0.734667 56.35 0.74Z" fill="#000005"/><path d="M67.85 3C67.7574 2.9974 67.6688 2.96196 67.6 2.9 67.538 2.83118 67.5026 2.74256 67.5 2.65 67.4988 2.55469 67.5389 2.46354 67.61 2.4 67.7499 2.27635 67.9601 2.27635 68.1 2.4 68.1644 2.46726 68.2003 2.55687 68.2 2.65 68.1974 2.74256 68.1619 2.83118 68.1 2.9 68.0322 2.96355 67.9429 2.99925 67.85 3Z" fill="#000005"/><path d="M67.85 10.24C67.7554 10.2376 67.6656 10.1981 67.6 10.13 67.5371 10.0658 67.5013 9.97987 67.5 9.89 67.5026 9.79744 67.538 9.70882 67.6 9.64 67.7415 9.51035 67.9585 9.51035 68.1 9.64 68.162 9.70882 68.1974 9.79744 68.2 9.89 68.1999 9.98505 68.16 10.0757 68.09 10.14 68.0258 10.2029 67.9399 10.2387 67.85 10.24Z" fill="#000005"/><path d="M64.1 12.24C63.9067 12.2428 63.7478 12.0884 63.7449 11.8951 63.7436 11.7993 63.7815 11.7071 63.85 11.64 63.998 11.5072 64.2256 11.5195 64.3584 11.6675 64.4135 11.7289 64.4459 11.8075 64.45 11.89 64.4556 12.0777 64.308 12.2344 64.1203 12.24 64.1135 12.2402 64.1068 12.2402 64.1 12.24Z" fill="#000005"/><path d="M65.1 15.74C64.9123 15.7456 64.7556 15.598 64.75 15.4103 64.7498 15.4035 64.7498 15.3968 64.75 15.39 64.7508 15.2971 64.7865 15.2078 64.85 15.14 64.9932 15.0149 65.2068 15.0149 65.35 15.14 65.4881 15.2753 65.4904 15.4969 65.3551 15.6349 65.2881 15.7034 65.1958 15.7414 65.1 15.74Z" fill="#000005"/><path d="M63.85 19.74C63.7555 19.7376 63.6656 19.6981 63.6 19.63 63.5371 19.5658 63.5013 19.4799 63.5 19.39 63.5026 19.2974 63.538 19.2088 63.6 19.14 63.7415 19.0104 63.9585 19.0104 64.1 19.14 64.162 19.2088 64.1974 19.2974 64.2 19.39 64.1999 19.485 64.16 19.5757 64.09 19.64 64.0258 19.7029 63.9399 19.7387 63.85 19.74Z" fill="#000005"/><path d="M66.1 19.74C65.9123 19.7456 65.7556 19.598 65.75 19.4103 65.7498 19.4035 65.7498 19.3968 65.75 19.39 65.7488 19.2947 65.7889 19.2035 65.86 19.14 65.9999 19.0163 66.2101 19.0163 66.35 19.14 66.4144 19.2073 66.4503 19.2969 66.45 19.39 66.4556 19.5777 66.308 19.7344 66.1203 19.74 66.1135 19.7402 66.1068 19.7402 66.1 19.74Z" fill="#000005"/><path d="M67.85 21.24C67.6567 21.2428 67.4978 21.0884 67.4949 20.8951 67.4936 20.7993 67.5315 20.7071 67.6 20.64 67.7415 20.5104 67.9585 20.5104 68.1 20.64 68.2381 20.7753 68.2404 20.9969 68.1051 21.1349 68.0381 21.2034 67.9458 21.2414 67.85 21.24Z" fill="#000005"/><path d="M6.85 52.24C6.65672 52.2428 6.49776 52.0884 6.49495 51.8951 6.49355 51.7993 6.53153 51.7071 6.6 51.64 6.7432 51.5149 6.9568 51.5149 7.1 51.64 7.23809 51.7753 7.24039 51.9969 7.10513 52.1349 7.03806 52.2034 6.94584 52.2414 6.85 52.24Z" fill="#000005"/><path d="M7.1 54.49C6.90672 54.4928 6.74776 54.3384 6.74495 54.1451 6.74355 54.0493 6.78153 53.9571 6.85 53.89 6.99145 53.7603 7.20855 53.7603 7.35 53.89 7.48809 54.0253 7.49039 54.2469 7.35513 54.3849 7.28806 54.4534 7.19584 54.4914 7.1 54.49Z" fill="#000005"/><path d="M2.1 54.49C2.00744 54.4874 1.91882 54.452 1.85 54.39 1.71538 54.2505 1.71538 54.0295 1.85 53.89 1.99319 53.7649 2.2068 53.7649 2.35 53.89 2.48462 54.0295 2.48462 54.2505 2.35 54.39 2.28118 54.452 2.19256 54.4874 2.1 54.49Z" fill="#000005"/><path d="M9.6 64C9.40672 64.0028 9.24776 63.8484 9.24495 63.6551 9.24356 63.5593 9.28153 63.4671 9.35 63.4 9.49797 63.2672 9.72558 63.2795 9.85837 63.4275 9.91354 63.4889 9.94589 63.5675 9.95 63.65 9.95561 63.8377 9.808 63.9944 9.6203 64 9.61354 64.0002 9.60677 64.0002 9.6 64Z" fill="#000005"/><path d="M0.85 68C0.757438 67.9974 0.668819 67.962 0.6 67.9 0.465382 67.7605 0.465382 67.5395 0.6 67.4 0.743195 67.2749 0.956805 67.2749 1.1 67.4 1.23462 67.5395 1.23462 67.7605 1.1 67.9 1.03118 67.962 0.942562 67.9974 0.85 68Z" fill="#000005"/><path d="M10.85 71C10.6567 71.0028 10.4978 70.8484 10.4949 70.6551 10.4936 70.5593 10.5315 70.4671 10.6 70.4 10.7432 70.2749 10.9568 70.2749 11.1 70.4 11.2381 70.5353 11.2404 70.7569 11.1051 70.895 11.0381 70.9634 10.9458 71.0014 10.85 71Z" fill="#000005"/><path d="M18.1 67.24C17.9123 67.2456 17.7556 67.098 17.75 66.9103 17.7498 66.9035 17.7498 66.8968 17.75 66.89 17.7508 66.7971 17.7865 66.7078 17.85 66.64 17.9899 66.5163 18.2001 66.5163 18.34 66.64 18.4081 66.7057 18.4476 66.7954 18.45 66.89 18.4556 67.0777 18.308 67.2344 18.1203 67.24 18.1135 67.2402 18.1068 67.2402 18.1 67.24Z" fill="#000005"/><path d="M16.1 62.24C15.9067 62.2428 15.7478 62.0884 15.7449 61.8951 15.7436 61.7993 15.7815 61.7071 15.85 61.64 15.9915 61.5103 16.2085 61.5103 16.35 61.64 16.4881 61.7753 16.4904 61.9969 16.3551 62.1349 16.2881 62.2034 16.1958 62.2414 16.1 62.24Z" fill="#000005"/><path d="M19.35 57.74C19.1623 57.7456 19.0056 57.598 19 57.4103 18.9998 57.4035 18.9998 57.3968 19 57.39 18.9988 57.2947 19.0389 57.2035 19.11 57.14 19.2499 57.0164 19.4601 57.0164 19.6 57.14 19.6644 57.2073 19.7003 57.2969 19.7 57.39 19.7056 57.5777 19.558 57.7344 19.3703 57.74 19.3635 57.7402 19.3568 57.7402 19.35 57.74Z" fill="#000005"/><path d="M18.6 55.74C18.4123 55.7456 18.2556 55.598 18.25 55.4103 18.2498 55.4035 18.2498 55.3968 18.25 55.39 18.2488 55.2947 18.2889 55.2035 18.36 55.14 18.4999 55.0164 18.7101 55.0164 18.85 55.14 18.9144 55.2073 18.9503 55.2969 18.95 55.39 18.9556 55.5777 18.808 55.7344 18.6203 55.74 18.6135 55.7402 18.6068 55.7402 18.6 55.74Z" fill="#000005"/><path d="M16.1 54.74C15.9123 54.7456 15.7556 54.598 15.75 54.4103 15.7498 54.4035 15.7498 54.3968 15.75 54.39 15.7488 54.2947 15.7889 54.2035 15.86 54.14 15.9999 54.0164 16.2101 54.0164 16.35 54.14 16.4144 54.2073 16.4503 54.2969 16.45 54.39 16.4556 54.5777 16.308 54.7344 16.1203 54.74 16.1135 54.7402 16.1068 54.7402 16.1 54.74Z" fill="#000005"/><path d="M19.1 51C18.9123 51.0056 18.7556 50.858 18.75 50.6703 18.7498 50.6635 18.7498 50.6568 18.75 50.65 18.7488 50.5547 18.7889 50.4635 18.86 50.4 18.9999 50.2764 19.2101 50.2764 19.35 50.4 19.4144 50.4673 19.4503 50.5569 19.45 50.65 19.4556 50.8377 19.308 50.9944 19.1203 51 19.1135 51.0002 19.1068 51.0002 19.1 51Z" fill="#000005"/><path d="M18.85 47C18.6567 47.0028 18.4978 46.8484 18.4949 46.6551 18.4936 46.5593 18.5315 46.4671 18.6 46.4 18.7432 46.2749 18.9568 46.2749 19.1 46.4 19.2381 46.5353 19.2404 46.7569 19.1051 46.8949 19.0381 46.9634 18.9458 47.0014 18.85 47Z" fill="#000005"/><path d="M16.1 47.24C15.9067 47.2428 15.7478 47.0884 15.7449 46.8951 15.7436 46.7993 15.7815 46.7071 15.85 46.64 15.9915 46.5103 16.2085 46.5103 16.35 46.64 16.4881 46.7753 16.4904 46.9969 16.3551 47.1349 16.2881 47.2034 16.1958 47.2414 16.1 47.24Z" fill="#000005"/><path d="M32.35 50.74C32.1623 50.7456 32.0056 50.598 32 50.4103 31.9998 50.4035 31.9998 50.3968 32 50.39 31.9988 50.2947 32.0389 50.2035 32.11 50.14 32.2507 50.0074 32.4722 50.014 32.6048 50.1547 32.6648 50.2184 32.6988 50.3024 32.7 50.39 32.7056 50.5777 32.558 50.7344 32.3703 50.74 32.3635 50.7402 32.3568 50.7402 32.35 50.74Z" fill="#000005"/><path d="M27.1 54.24C26.9067 54.2428 26.7478 54.0884 26.7449 53.8951 26.7436 53.7993 26.7815 53.7071 26.85 53.64 26.9915 53.5103 27.2085 53.5103 27.35 53.64 27.4881 53.7753 27.4904 53.9969 27.3551 54.1349 27.2881 54.2034 27.1958 54.2414 27.1 54.24Z" fill="#000005"/><path d="M31.85 55.74C31.6567 55.7428 31.4978 55.5884 31.4949 55.3951 31.4936 55.2993 31.5315 55.2071 31.6 55.14 31.7415 55.0103 31.9585 55.0103 32.1 55.14 32.2381 55.2753 32.2404 55.4969 32.1051 55.6349 32.0381 55.7034 31.9458 55.7414 31.85 55.74Z" fill="#000005"/><path d="M31.85 57.49C31.7601 57.4887 31.6742 57.4529 31.61 57.39 31.4719 57.2547 31.4697 57.0331 31.6049 56.8951 31.6066 56.8934 31.6083 56.8917 31.61 56.89 31.7515 56.7604 31.9685 56.7604 32.11 56.89 32.1744 56.9573 32.2103 57.0469 32.21 57.14 32.2156 57.3277 32.068 57.4844 31.8803 57.49 31.8735 57.4902 31.8668 57.4902 31.86 57.49Z" fill="#000005"/><path d="M33.85 58.24C33.6567 58.2428 33.4978 58.0884 33.4949 57.8951 33.4936 57.7993 33.5315 57.7071 33.6 57.64 33.7415 57.5103 33.9585 57.5103 34.1 57.64 34.2381 57.7753 34.2404 57.9969 34.1051 58.1349 34.0381 58.2034 33.9458 58.2414 33.85 58.24Z" fill="#000005"/><path d="M25.85 64.74C25.6567 64.7428 25.4978 64.5884 25.4949 64.3951 25.4936 64.2993 25.5315 64.2071 25.6 64.14 25.748 64.0072 25.9756 64.0195 26.1084 64.1675 26.1635 64.229 26.1959 64.3075 26.2 64.39 26.2056 64.5777 26.058 64.7344 25.8703 64.74 25.8635 64.7402 25.8568 64.7402 25.85 64.74Z" fill="#000005"/><path d="M35.85 56.24C35.6567 56.2428 35.4978 56.0884 35.4949 55.8951 35.4936 55.7993 35.5315 55.7071 35.6 55.64 35.748 55.5072 35.9756 55.5195 36.1084 55.6675 36.1635 55.7289 36.1959 55.8075 36.2 55.89 36.2056 56.0777 36.058 56.2344 35.8703 56.24 35.8635 56.2402 35.8568 56.2402 35.85 56.24Z" fill="#000005"/><path d="M39.1 56C39.0101 55.9987 38.9242 55.9629 38.86 55.9 38.7919 55.8344 38.7524 55.7445 38.75 55.65 38.7526 55.5574 38.788 55.4688 38.85 55.4 38.9914 55.2704 39.2085 55.2704 39.35 55.4 39.4881 55.5353 39.4904 55.7569 39.3551 55.895 39.2881 55.9634 39.1958 56.0014 39.1 56Z" fill="#000005"/><path d="M41.6 50.74C41.4067 50.7428 41.2478 50.5884 41.2449 50.3951 41.2436 50.2993 41.2815 50.2071 41.35 50.14 41.4915 50.0103 41.7085 50.0103 41.85 50.14 41.9881 50.2753 41.9904 50.4969 41.8551 50.6349 41.7881 50.7034 41.6958 50.7414 41.6 50.74Z" fill="#000005"/><path d="M43.35 44.74C43.2555 44.7376 43.1656 44.6981 43.1 44.63 43.0371 44.5658 43.0013 44.4799 43 44.39 43.0026 44.2974 43.038 44.2088 43.1 44.14 43.2415 44.0103 43.4585 44.0103 43.6 44.14 43.7381 44.2753 43.7404 44.4969 43.6051 44.6349 43.5381 44.7034 43.4458 44.7414 43.35 44.74Z" fill="#000005"/><path d="M50.85 50.49C50.7574 50.4874 50.6688 50.452 50.6 50.39 50.5356 50.3227 50.4997 50.2331 50.5 50.14 50.5026 50.0474 50.538 49.9588 50.6 49.89 50.7395 49.7554 50.9605 49.7554 51.1 49.89 51.2381 50.0253 51.2404 50.2469 51.1051 50.385 51.0381 50.4534 50.9458 50.4914 50.85 50.49Z" fill="#000005"/><path d="M51.85 46.49C51.7555 46.4876 51.6656 46.4481 51.6 46.38 51.5371 46.3158 51.5013 46.2299 51.5 46.14 51.4988 46.0447 51.5389 45.9535 51.61 45.89 51.7499 45.7663 51.9601 45.7663 52.1 45.89 52.1644 45.9573 52.2003 46.0469 52.2 46.14 52.2056 46.3277 52.058 46.4844 51.8703 46.49 51.8635 46.4902 51.8568 46.4902 51.85 46.49Z" fill="#000005"/><path d="M54.85 47C54.7547 47.0012 54.6635 46.9611 54.6 46.89 54.5371 46.8258 54.5013 46.7399 54.5 46.65 54.5008 46.5571 54.5365 46.4678 54.6 46.4 54.7381 46.2717 54.9519 46.2717 55.09 46.4 55.16 46.4643 55.1999 46.555 55.2 46.65 55.2056 46.8377 55.058 46.9944 54.8703 47 54.8635 47.0002 54.8568 47.0002 54.85 47Z" fill="#000005"/><path d="M54.85 54.24C54.7547 54.2412 54.6635 54.2011 54.6 54.13 54.5371 54.0658 54.5013 53.9799 54.5 53.89 54.4988 53.7947 54.5389 53.7035 54.61 53.64 54.7499 53.5163 54.9601 53.5163 55.1 53.64 55.1644 53.7073 55.2003 53.7969 55.2 53.89 55.2056 54.0777 55.058 54.2344 54.8703 54.24 54.8635 54.2402 54.8568 54.2402 54.85 54.24Z" fill="#000005"/><path d="M51.1 56.24C50.9067 56.2428 50.7478 56.0884 50.7449 55.8951 50.7436 55.7993 50.7815 55.7071 50.85 55.64 50.9915 55.5103 51.2085 55.5103 51.35 55.64 51.4153 55.7067 51.4513 55.7967 51.45 55.89 51.4474 55.9826 51.412 56.0712 51.35 56.14 51.2822 56.2035 51.1929 56.2392 51.1 56.24Z" fill="#000005"/><path d="M50.85 63.74C50.6623 63.7456 50.5056 63.598 50.5 63.4103 50.4998 63.4035 50.4998 63.3968 50.5 63.39 50.4966 63.2992 50.5331 63.2115 50.6 63.15 50.7302 63.0147 50.9454 63.0105 51.0807 63.1407 51.0839 63.1438 51.087 63.1469 51.09 63.15 51.1581 63.2156 51.1976 63.3055 51.2 63.4 51.1974 63.4926 51.162 63.5812 51.1 63.65 51.0307 63.7099 50.9416 63.742 50.85 63.74Z" fill="#000005"/><path d="M53.1 63.74C52.9123 63.7456 52.7556 63.598 52.75 63.4103 52.7498 63.4035 52.7498 63.3968 52.75 63.39 52.7488 63.2947 52.7889 63.2035 52.86 63.14 52.9981 63.0117 53.2119 63.0117 53.35 63.14 53.4169 63.2015 53.4534 63.2892 53.45 63.38 53.4556 63.5677 53.308 63.7244 53.1203 63.73 53.1135 63.7302 53.1068 63.7302 53.1 63.73Z" fill="#000005"/><path d="M55.85 63C55.6567 63.0028 55.4978 62.8484 55.4949 62.6551 55.4936 62.5593 55.5315 62.4671 55.6 62.4 55.748 62.2672 55.9756 62.2795 56.1084 62.4275 56.1635 62.4889 56.1959 62.5675 56.2 62.65 56.2056 62.8377 56.058 62.9944 55.8703 63 55.8635 63.0002 55.8568 63.0002 55.85 63Z" fill="#000005"/><path d="M58.1 61.49C58.0055 61.4876 57.9156 61.4481 57.85 61.38 57.7871 61.3158 57.7513 61.2299 57.75 61.14 57.7526 61.0474 57.788 60.9588 57.85 60.89 57.9915 60.7603 58.2085 60.7603 58.35 60.89 58.4135 60.9578 58.4492 61.0471 58.45 61.14 58.4556 61.3277 58.308 61.4844 58.1203 61.49 58.1135 61.4902 58.1068 61.4902 58.1 61.49Z" fill="#000005"/><path d="M20.85 27C20.6567 27.0028 20.4978 26.8484 20.4949 26.6551 20.4936 26.5593 20.5315 26.4671 20.6 26.4 20.748 26.2672 20.9756 26.2795 21.1084 26.4275 21.1635 26.4889 21.1959 26.5675 21.2 26.65 21.2056 26.8377 21.058 26.9944 20.8703 27 20.8635 27.0002 20.8568 27.0002 20.85 27Z" fill="#000005"/><path d="M22.6 24C22.4067 24.0028 22.2478 23.8484 22.2449 23.6551 22.2436 23.5593 22.2815 23.4671 22.35 23.4 22.4915 23.2704 22.7085 23.2704 22.85 23.4 22.9881 23.5353 22.9904 23.7569 22.8551 23.8949 22.7881 23.9634 22.6958 24.0014 22.6 24Z" fill="#000005"/><path d="M38.85 24.74C38.6567 24.7428 38.4978 24.5884 38.4949 24.3951 38.4936 24.2993 38.5315 24.2071 38.6 24.14 38.7415 24.0104 38.9585 24.0104 39.1 24.14 39.2381 24.2753 39.2404 24.4969 39.1051 24.6349 39.0381 24.7034 38.9458 24.7414 38.85 24.74Z" fill="#000005"/><path d="M46.1 29C46.0074 28.9974 45.9188 28.962 45.85 28.9 45.7166 28.7639 45.7166 28.5461 45.85 28.41 45.9802 28.2747 46.1954 28.2705 46.3307 28.4007 46.3339 28.4038 46.337 28.4069 46.34 28.41 46.4081 28.4756 46.4476 28.5655 46.45 28.66 46.4556 28.8477 46.308 29.0044 46.1203 29.01 46.1135 29.0102 46.1068 29.0102 46.1 29.01Z" fill="#000005"/><path d="M55.1 28C54.9067 28.0028 54.7478 27.8484 54.7449 27.6551 54.7436 27.5593 54.7815 27.4671 54.85 27.4 54.9915 27.2704 55.2085 27.2704 55.35 27.4 55.4881 27.5353 55.4904 27.7569 55.3551 27.8949 55.2881 27.9634 55.1958 28.0014 55.1 28Z" fill="#000005"/><path d="M51.1 25.24C50.9067 25.2428 50.7478 25.0884 50.7449 24.8951 50.7436 24.7993 50.7815 24.7071 50.85 24.64 50.9915 24.5104 51.2085 24.5104 51.35 24.64 51.4153 24.7067 51.4513 24.7967 51.45 24.89 51.4556 25.0777 51.308 25.2344 51.1203 25.24 51.1135 25.2402 51.1068 25.2402 51.1 25.24Z" fill="#000005"/><path d="M51.85 29.49C51.7571 29.4892 51.6678 29.4535 51.6 29.39 51.4654 29.2505 51.4654 29.0295 51.6 28.89 51.748 28.7572 51.9756 28.7695 52.1084 28.9175 52.1635 28.9789 52.1959 29.0575 52.2 29.14 52.2056 29.3277 52.058 29.4844 51.8703 29.49 51.8635 29.4902 51.8568 29.4902 51.85 29.49Z" fill="#000005"/><path d="M62.35 35.49C62.1623 35.4956 62.0056 35.348 62 35.1603 61.9998 35.1535 61.9998 35.1468 62 35.14 61.9988 35.0447 62.0389 34.9535 62.11 34.89 62.2481 34.7617 62.4619 34.7617 62.6 34.89 62.6669 34.9515 62.7034 35.0392 62.7 35.13 62.7056 35.3177 62.558 35.4744 62.3703 35.48 62.3635 35.4802 62.3568 35.4802 62.35 35.48Z" fill="#000005"/><path d="M56.6 39C56.4067 39.0028 56.2478 38.8484 56.2449 38.6551 56.2436 38.5593 56.2815 38.4671 56.35 38.4 56.498 38.2672 56.7256 38.2795 56.8584 38.4275 56.9135 38.4889 56.9459 38.5675 56.95 38.65 56.9556 38.8377 56.808 38.9944 56.6203 39 56.6135 39.0002 56.6068 39.0002 56.6 39Z" fill="#000005"/><path d="M48.1 37.24C48.0101 37.2387 47.9242 37.2029 47.86 37.14 47.7919 37.0744 47.7524 36.9846 47.75 36.89 47.7526 36.7974 47.788 36.7088 47.85 36.64 47.9895 36.5054 48.2105 36.5054 48.35 36.64 48.4148 36.7029 48.4509 36.7897 48.45 36.88 48.4556 37.0677 48.308 37.2244 48.1203 37.23 48.1135 37.2302 48.1068 37.2302 48.1 37.23Z" fill="#000005"/><path d="M47.85 41.24C47.7547 41.2412 47.6635 41.2011 47.6 41.13 47.5371 41.0658 47.5013 40.9799 47.5 40.89 47.5026 40.7974 47.538 40.7088 47.6 40.64 47.7432 40.5149 47.9568 40.5149 48.1 40.64 48.2381 40.7753 48.2404 40.9969 48.1051 41.1349 48.0381 41.2034 47.9458 41.2414 47.85 41.24Z" fill="#000005"/><path d="M53.35 45C53.255 44.9999 53.1643 44.96 53.1 44.89 53.0331 44.8285 52.9966 44.7408 53 44.65 53.0001 44.555 53.04 44.4643 53.11 44.4 53.2499 44.2763 53.4601 44.2763 53.6 44.4 53.7381 44.5353 53.7404 44.7569 53.6051 44.8949 53.5381 44.9634 53.4458 45.0014 53.35 45Z" fill="#000005"/><path d="M62.1 48C61.9123 48.0056 61.7556 47.858 61.75 47.6703 61.7498 47.6635 61.7498 47.6568 61.75 47.65 61.7488 47.5547 61.7889 47.4635 61.86 47.4 61.9981 47.2717 62.2119 47.2717 62.35 47.4 62.4169 47.4615 62.4534 47.5492 62.45 47.64 62.4556 47.8277 62.308 47.9844 62.1203 47.99 62.1135 47.9902 62.1068 47.9902 62.1 47.99Z" fill="#000005"/><path d="M64.85 51.74C64.6623 51.7456 64.5056 51.598 64.5 51.4103 64.4998 51.4035 64.4998 51.3968 64.5 51.39 64.4988 51.2947 64.5389 51.2035 64.61 51.14 64.7499 51.0164 64.9601 51.0164 65.1 51.14 65.1644 51.2073 65.2003 51.2969 65.2 51.39 65.2056 51.5777 65.058 51.7344 64.8703 51.74 64.8635 51.7402 64.8568 51.7402 64.85 51.74Z" fill="#000005"/><path d="M69.35 45C69.1567 45.0028 68.9978 44.8484 68.9949 44.6551 68.9936 44.5593 69.0315 44.4671 69.1 44.4 69.2415 44.2703 69.4585 44.2703 69.6 44.4 69.7381 44.5353 69.7404 44.7569 69.6051 44.8949 69.5381 44.9634 69.4458 45.0014 69.35 45Z" fill="#000005"/><path d="M59.85 39C59.7547 39.0012 59.6635 38.9611 59.6 38.89 59.5371 38.8258 59.5013 38.7399 59.5 38.65 59.5001 38.555 59.54 38.4643 59.61 38.4 59.7481 38.2717 59.9619 38.2717 60.1 38.4 60.2346 38.5395 60.2346 38.7605 60.1 38.9 60.0322 38.9635 59.9429 38.9992 59.85 39Z" fill="#000005"/><path d="M32.35 47C32.1567 47.0028 31.9978 46.8484 31.9949 46.6551 31.9936 46.5593 32.0315 46.4671 32.1 46.4 32.248 46.2672 32.4756 46.2795 32.6084 46.4275 32.6635 46.4889 32.6959 46.5675 32.7 46.65 32.7056 46.8377 32.558 46.9944 32.3703 47 32.3635 47.0002 32.3568 47.0002 32.35 47Z" fill="#000005"/><path d="M26.1 37.74C25.9067 37.7428 25.7478 37.5884 25.7449 37.3951 25.7436 37.2993 25.7815 37.2071 25.85 37.14 25.998 37.0072 26.2256 37.0195 26.3584 37.1675 26.4135 37.2289 26.4459 37.3075 26.45 37.39 26.4556 37.5777 26.308 37.7344 26.1203 37.74 26.1135 37.7402 26.1068 37.7402 26.1 37.74Z" fill="#000005"/><path d="M29.6 35.49C29.5101 35.4887 29.4242 35.4529 29.36 35.39 29.2919 35.3244 29.2524 35.2346 29.25 35.14 29.2488 35.0447 29.2889 34.9535 29.36 34.89 29.4999 34.7664 29.7101 34.7664 29.85 34.89 29.9144 34.9573 29.9503 35.0469 29.95 35.14 29.9556 35.3277 29.808 35.4844 29.6203 35.49 29.6135 35.4902 29.6068 35.4902 29.6 35.49Z" fill="#000005"/><path d="M10.35 29.49C10.1567 29.4928 9.99776 29.3384 9.99495 29.1451 9.99356 29.0493 10.0315 28.9571 10.1 28.89 10.2399 28.7664 10.4501 28.7664 10.59 28.89 10.6611 28.9535 10.7012 29.0447 10.7 29.14 10.7056 29.3277 10.558 29.4844 10.3703 29.49 10.3635 29.4902 10.3568 29.4902 10.35 29.49Z" fill="#000005"/><path d="M5.85 31.49C5.65672 31.4928 5.49776 31.3384 5.49495 31.1451 5.49355 31.0493 5.53153 30.9571 5.6 30.89 5.73814 30.7617 5.95186 30.7617 6.09 30.89 6.16105 30.9535 6.20116 31.0447 6.2 31.14 6.19925 31.2329 6.16355 31.3222 6.1 31.39 6.03118 31.452 5.94256 31.4874 5.85 31.49Z" fill="#000005"/><path d="M2.35 35.24C2.25744 35.2374 2.16882 35.202 2.1 35.14 1.96538 35.0005 1.96538 34.7795 2.1 34.64 2.24145 34.5104 2.45855 34.5104 2.6 34.64 2.66534 34.7067 2.70134 34.7967 2.7 34.89 2.70091 34.9803 2.66477 35.0671 2.6 35.13 2.53435 35.1981 2.44455 35.2376 2.35 35.24Z" fill="#000005"/><path d="M16.85 42C16.6623 42.0056 16.5056 41.858 16.5 41.6703 16.4998 41.6635 16.4998 41.6568 16.5 41.65 16.4988 41.5547 16.5389 41.4635 16.61 41.4 16.7507 41.2674 16.9722 41.274 17.1048 41.4147 17.1648 41.4784 17.1988 41.5624 17.2 41.65 17.1974 41.7426 17.162 41.8312 17.1 41.9 17.0322 41.9636 16.9429 41.9992 16.85 42Z" fill="#000005"/><path d="M12.6 36C12.4123 36.0056 12.2556 35.858 12.25 35.6703 12.2498 35.6635 12.2498 35.6568 12.25 35.65 12.2488 35.5547 12.2889 35.4635 12.36 35.4 12.4999 35.2764 12.7101 35.2764 12.85 35.4 12.9144 35.4673 12.9503 35.5569 12.95 35.65 12.9474 35.7426 12.912 35.8312 12.85 35.9 12.7822 35.9636 12.6929 35.9992 12.6 36Z" fill="#000005"/><path d="M26.35 30.24C26.1567 30.2428 25.9978 30.0884 25.9949 29.8951 25.9936 29.7993 26.0315 29.7071 26.1 29.64 26.2415 29.5104 26.4585 29.5104 26.6 29.64 26.7381 29.7753 26.7404 29.9969 26.6051 30.1349 26.5381 30.2034 26.4458 30.2414 26.35 30.24Z" fill="#000005"/><path d="M39.1 30.74C38.9067 30.7428 38.7478 30.5884 38.7449 30.3951 38.7436 30.2993 38.7815 30.2071 38.85 30.14 38.9915 30.0104 39.2085 30.0104 39.35 30.14 39.4846 30.2795 39.4846 30.5005 39.35 30.64 39.2822 30.7036 39.1929 30.7392 39.1 30.74Z" fill="#000005"/><path d="M38.1 32.74C37.9067 32.7428 37.7478 32.5884 37.7449 32.3951 37.7436 32.2993 37.7815 32.2071 37.85 32.14 37.9915 32.0103 38.2085 32.0103 38.35 32.14 38.4881 32.2753 38.4904 32.4969 38.3551 32.6349 38.2881 32.7034 38.1958 32.7414 38.1 32.74Z" fill="#000005"/><path d="M27.85 42C27.6567 42.0028 27.4978 41.8484 27.4949 41.6551 27.4936 41.5593 27.5315 41.4671 27.6 41.4 27.7415 41.2703 27.9585 41.2703 28.1 41.4 28.2381 41.5353 28.2404 41.7569 28.1051 41.8949 28.0381 41.9634 27.9458 42.0014 27.85 42Z" fill="#000005"/><path d="M6.35 20.49C6.15672 20.4928 5.99776 20.3384 5.99495 20.1451 5.99355 20.0493 6.03153 19.9571 6.1 19.89 6.24145 19.7604 6.45855 19.7604 6.6 19.89 6.73809 20.0253 6.74039 20.2469 6.60513 20.3849 6.53806 20.4534 6.44584 20.4914 6.35 20.49Z" fill="#000005"/><path d="M9.6 18.74C9.40672 18.7428 9.24776 18.5884 9.24495 18.3951 9.24356 18.2993 9.28153 18.2071 9.35 18.14 9.49797 18.0072 9.72558 18.0195 9.85837 18.1675 9.91354 18.2289 9.94589 18.3075 9.95 18.39 9.95561 18.5777 9.808 18.7344 9.6203 18.74 9.61354 18.7402 9.60677 18.7402 9.6 18.74Z" fill="#000005"/><path d="M11.6 23.49C11.4123 23.4956 11.2556 23.348 11.25 23.1603 11.2498 23.1535 11.2498 23.1468 11.25 23.14 11.2488 23.0447 11.2889 22.9535 11.36 22.89 11.4999 22.7663 11.7101 22.7663 11.85 22.89 11.9144 22.9573 11.9503 23.0469 11.95 23.14 11.9474 23.2326 11.912 23.3212 11.85 23.39 11.7822 23.4535 11.6929 23.4892 11.6 23.49Z" fill="#000005"/><path d="M2.85 25.74C2.75744 25.7374 2.66882 25.702 2.6 25.64 2.46538 25.5005 2.46538 25.2795 2.6 25.14 2.7432 25.0149 2.9568 25.0149 3.1 25.14 3.23462 25.2795 3.23462 25.5005 3.1 25.64 3.03118 25.702 2.94256 25.7374 2.85 25.74Z" fill="#000005"/><path d="M64.1 29.49C64.0101 29.4887 63.9242 29.4529 63.86 29.39 63.7919 29.3244 63.7524 29.2345 63.75 29.14 63.7526 29.0474 63.788 28.9588 63.85 28.89 63.998 28.7572 64.2256 28.7695 64.3584 28.9175 64.4135 28.9789 64.4459 29.0575 64.45 29.14 64.4556 29.3277 64.308 29.4844 64.1203 29.49 64.1135 29.4902 64.1068 29.4902 64.1 29.49Z" fill="#000005"/><path d="M69.35 29.74C69.1623 29.7456 69.0056 29.598 69 29.4103 68.9998 29.4035 68.9998 29.3968 69 29.39 69.0001 29.295 69.04 29.2043 69.11 29.14 69.2499 29.0163 69.4601 29.0163 69.6 29.14 69.6644 29.2073 69.7003 29.2969 69.7 29.39 69.6974 29.4826 69.6619 29.5712 69.6 29.64 69.5322 29.7035 69.4429 29.7392 69.35 29.74Z" fill="#000005"/><path d="M1.35 9C1.25744 8.9974 1.16882 8.96196 1.1 8.9 0.965382 8.76052 0.965382 8.53948 1.1 8.4 1.2432 8.27491 1.4568 8.27491 1.6 8.4 1.73462 8.53948 1.73462 8.76052 1.6 8.9 1.53118 8.96196 1.44256 8.9974 1.35 9Z" fill="#000005"/><path d="M16.35 6C16.1623 6.00585 16.0054 5.85845 15.9996 5.67076 15.9992 5.66051 15.9994 5.65024 16 5.64 16.0008 5.54707 16.0365 5.45782 16.1 5.39 16.2432 5.26491 16.4568 5.26491 16.6 5.39 16.7346 5.52948 16.7346 5.75052 16.6 5.89 16.5326 5.9556 16.4439 5.99467 16.35 6Z" fill="#000005"/><path d="M3.6 6C3.41231 6.00561 3.25561 5.858 3.25 5.6703 3.2498 5.66354 3.2498 5.65677 3.25 5.65 3.2526 5.55744 3.28804 5.46882 3.35 5.4 3.49797 5.26721 3.72558 5.27951 3.85837 5.42748 3.91354 5.48895 3.94589 5.56751 3.95 5.65 3.95561 5.83769 3.808 5.99439 3.6203 6 3.61354 6.0002 3.60677 6.0002 3.6 6Z" fill="#000005"/><path d="M12.6 14.24C12.4067 14.2428 12.2478 14.0884 12.2449 13.8951 12.2436 13.7993 12.2815 13.7071 12.35 13.64 12.498 13.5072 12.7256 13.5195 12.8584 13.6675 12.9135 13.7289 12.9459 13.8075 12.95 13.89 12.9556 14.0777 12.808 14.2344 12.6203 14.24 12.6135 14.2402 12.6068 14.2402 12.6 14.24Z" fill="#000005"/><path d="M18.35 19.24C18.1623 19.2456 18.0056 19.098 18 18.9103 17.9998 18.9035 17.9998 18.8968 18 18.89 18.0008 18.7971 18.0365 18.7078 18.1 18.64 18.248 18.5072 18.4756 18.5195 18.6084 18.6675 18.6635 18.7289 18.6959 18.8075 18.7 18.89 18.7056 19.0777 18.558 19.2344 18.3703 19.24 18.3635 19.2402 18.3568 19.2402 18.35 19.24Z" fill="#000005"/><path d="M21.1 37C20.9123 37.0056 20.7556 36.858 20.75 36.6703 20.7498 36.6635 20.7498 36.6568 20.75 36.65 20.7508 36.5571 20.7865 36.4678 20.85 36.4 20.9899 36.2764 21.2001 36.2764 21.34 36.4 21.4081 36.4656 21.4476 36.5555 21.45 36.65 21.4556 36.8377 21.308 36.9944 21.1203 37 21.1135 37.0002 21.1068 37.0002 21.1 37Z" fill="#000005"/><path d="M0.6 44.24C0.507438 44.2374 0.418819 44.202 0.35 44.14 0.288045 44.0712 0.252597 43.9826 0.25 43.89 0.248842 43.7947 0.28895 43.7035 0.36 43.64 0.499932 43.5164 0.710068 43.5164 0.85 43.64 0.914416 43.7073 0.950259 43.7969 0.95 43.89 0.947403 43.9826 0.911955 44.0712 0.85 44.14 0.781181 44.202 0.692562 44.2374 0.6 44.24Z" fill="#000005"/><path d="M67.85 66C67.6623 66.0056 67.5056 65.858 67.5 65.6703 67.4998 65.6635 67.4998 65.6568 67.5 65.65 67.4988 65.5547 67.5389 65.4635 67.61 65.4 67.7499 65.2764 67.9601 65.2764 68.1 65.4 68.1644 65.4673 68.2003 65.5569 68.2 65.65 68.2056 65.8377 68.058 65.9944 67.8703 66 67.8635 66.0002 67.8568 66.0002 67.85 66Z" fill="#000005"/><path d="M59.6 69.74C59.5074 69.7374 59.4188 69.702 59.35 69.64 59.2847 69.5733 59.2487 69.4833 59.25 69.39 59.2526 69.2974 59.288 69.2088 59.35 69.14 59.4915 69.0104 59.7085 69.0104 59.85 69.14 59.9144 69.2073 59.9503 69.2969 59.95 69.39 59.9492 69.4829 59.9135 69.5722 59.85 69.64 59.7812 69.702 59.6926 69.7374 59.6 69.74Z" fill="#000005"/><path d="M40.35 68C40.1567 68.0028 39.9978 67.8484 39.9949 67.6551 39.9936 67.5593 40.0315 67.4671 40.1 67.4 40.2415 67.2704 40.4585 67.2704 40.6 67.4 40.7346 67.5395 40.7346 67.7605 40.6 67.9 40.5322 67.9635 40.4429 67.9993 40.35 68Z" fill="#000005"/><path d="M4.35 60C4.15672 60.0028 3.99776 59.8484 3.99495 59.6551 3.99355 59.5593 4.03153 59.4671 4.1 59.4 4.24797 59.2672 4.47558 59.2795 4.60837 59.4275 4.66354 59.4889 4.69589 59.5675 4.7 59.65 4.70561 59.8377 4.558 59.9944 4.3703 60 4.36354 60.0002 4.35677 60.0002 4.35 60Z" fill="#000005"/><path d="M26.35 59.49C26.1567 59.4928 25.9978 59.3384 25.9949 59.1451 25.9936 59.0493 26.0315 58.9571 26.1 58.89 26.248 58.7572 26.4756 58.7695 26.6084 58.9175 26.6635 58.9789 26.6959 59.0575 26.7 59.14 26.7056 59.3277 26.558 59.4844 26.3703 59.49 26.3635 59.4902 26.3568 59.4902 26.35 59.49Z" fill="#000005"/><path d="M37.1 48.49C36.9123 48.4956 36.7556 48.348 36.75 48.1603 36.7498 48.1535 36.7498 48.1468 36.75 48.14 36.7508 48.0471 36.7865 47.9578 36.85 47.89 36.9915 47.7604 37.2085 47.7604 37.35 47.89 37.4846 48.0295 37.4846 48.2505 37.35 48.39 37.2822 48.4536 37.1929 48.4893 37.1 48.49Z" fill="#000005"/><path d="M8.6 40.24C8.40672 40.2428 8.24776 40.0884 8.24495 39.8951 8.24356 39.7993 8.28153 39.7071 8.35 39.64 8.49797 39.5072 8.72558 39.5195 8.85837 39.6675 8.91354 39.7289 8.94589 39.8075 8.95 39.89 8.95561 40.0777 8.808 40.2344 8.6203 40.24 8.61354 40.2402 8.60677 40.2402 8.6 40.24Z" fill="#000005"/><path d="M52.1 38C52.0055 37.9976 51.9156 37.9581 51.85 37.89 51.7871 37.8258 51.7513 37.7399 51.75 37.65 51.7488 37.5547 51.7889 37.4635 51.86 37.4 51.9999 37.2763 52.2101 37.2763 52.35 37.4 52.4144 37.4673 52.4503 37.5569 52.45 37.65 52.4556 37.8377 52.308 37.9944 52.1203 38 52.1135 38.0002 52.1068 38.0002 52.1 38Z" fill="#000005"/><path d="M60.6 46C60.4123 46.0056 60.2556 45.858 60.25 45.6703 60.2498 45.6635 60.2498 45.6568 60.25 45.65 60.2488 45.5547 60.2889 45.4635 60.36 45.4 60.4999 45.2764 60.7101 45.2764 60.85 45.4 60.9144 45.4673 60.9503 45.5569 60.95 45.65 60.9556 45.8377 60.808 45.9944 60.6203 46 60.6135 46.0002 60.6068 46.0002 60.6 46Z" fill="#000005"/><path d="M51.1 66.24C50.9067 66.2428 50.7478 66.0884 50.7449 65.8951 50.7436 65.7993 50.7815 65.7071 50.85 65.64 50.9915 65.5104 51.2085 65.5104 51.35 65.64 51.412 65.7088 51.4474 65.7974 51.45 65.89 51.4513 65.9833 51.4153 66.0733 51.35 66.14 51.2812 66.202 51.1926 66.2374 51.1 66.24Z" fill="#000005"/><path d="M39.85 37.74C39.6567 37.7428 39.4978 37.5884 39.4949 37.3951 39.4936 37.2993 39.5315 37.2071 39.6 37.14 39.748 37.0072 39.9756 37.0195 40.1084 37.1675 40.1635 37.2289 40.1959 37.3075 40.2 37.39 40.2056 37.5777 40.058 37.7344 39.8703 37.74 39.8635 37.7402 39.8568 37.7402 39.85 37.74Z" fill="#000005"/><path d="M27.35 13.49C27.1567 13.4928 26.9978 13.3384 26.9949 13.1451 26.9936 13.0493 27.0315 12.9571 27.1 12.89 27.248 12.7572 27.4756 12.7695 27.6084 12.9175 27.6635 12.9789 27.6959 13.0575 27.7 13.14 27.7056 13.3277 27.558 13.4844 27.3703 13.49 27.3635 13.4902 27.3568 13.4902 27.35 13.49Z" fill="#000005"/><path d="M19.6 26.49C19.4123 26.4956 19.2556 26.348 19.25 26.1603 19.2498 26.1535 19.2498 26.1468 19.25 26.14 19.2508 26.0471 19.2865 25.9578 19.35 25.89 19.4899 25.7663 19.7001 25.7663 19.84 25.89 19.9081 25.9556 19.9476 26.0455 19.95 26.14 19.9556 26.3277 19.808 26.4844 19.6203 26.49 19.6135 26.4902 19.6068 26.4902 19.6 26.49Z" fill="#000005"/><path d="M11.6 1.74C11.5074 1.7374 11.4188 1.70196 11.35 1.64 11.288 1.57118 11.2526 1.48256 11.25 1.39 11.2526 1.29744 11.288 1.20882 11.35 1.14 11.4932 1.01491 11.7068 1.01491 11.85 1.14 11.912 1.20882 11.9474 1.29744 11.95 1.39 11.9474 1.48256 11.912 1.57118 11.85 1.64 11.7812 1.70196 11.6926 1.7374 11.6 1.74Z" fill="#000005"/><path d="M55.1 3.74C54.9123 3.74561 54.7556 3.598 54.75 3.4103 54.7498 3.40354 54.7498 3.39677 54.75 3.39 54.7488 3.29469 54.7889 3.20354 54.86 3.14 54.9999 3.01635 55.2101 3.01635 55.35 3.14 55.4144 3.20726 55.4503 3.29687 55.45 3.39 55.4556 3.57769 55.308 3.73439 55.1203 3.74 55.1135 3.7402 55.1068 3.7402 55.1 3.74Z" fill="#000005"/><path d="M47.1 69.74C47.0074 69.7374 46.9188 69.702 46.85 69.64 46.7864 69.5722 46.7508 69.4829 46.75 69.39 46.7526 69.2974 46.788 69.2088 46.85 69.14 46.998 69.0072 47.2256 69.0195 47.3584 69.1675 47.4135 69.229 47.4459 69.3075 47.45 69.39 47.4556 69.5777 47.308 69.7344 47.1203 69.74 47.1135 69.7402 47.1068 69.7402 47.1 69.74Z" fill="#000005"/><path d="M4.6 40.24C4.41231 40.2456 4.25561 40.098 4.25 39.9103 4.2498 39.9035 4.2498 39.8968 4.25 39.89 4.24884 39.7947 4.28895 39.7035 4.36 39.64 4.49993 39.5164 4.71007 39.5164 4.85 39.64 4.91442 39.7073 4.95026 39.7969 4.95 39.89 4.95561 40.0777 4.808 40.2344 4.6203 40.24 4.61354 40.2402 4.60677 40.2402 4.6 40.24Z" fill="#000005"/><path d="M68.6 13.24C68.4067 13.2428 68.2478 13.0884 68.2449 12.8951 68.2436 12.7993 68.2815 12.7071 68.35 12.64 68.4915 12.5104 68.7085 12.5104 68.85 12.64 68.9846 12.7795 68.9846 13.0005 68.85 13.14 68.7812 13.202 68.6926 13.2374 68.6 13.24Z" fill="#000005"/><path d="M23.1 14C22.9067 14.0028 22.7478 13.8484 22.7449 13.6551 22.7436 13.5593 22.7815 13.4671 22.85 13.4 22.998 13.2672 23.2256 13.2795 23.3584 13.4275 23.4135 13.4889 23.4459 13.5675 23.45 13.65 23.4556 13.8377 23.308 13.9944 23.1203 14 23.1135 14.0002 23.1068 14.0002 23.1 14Z" fill="#000005"/><path d="M20.35 17.24C20.1567 17.2428 19.9978 17.0884 19.9949 16.8951 19.9936 16.7993 20.0315 16.7071 20.1 16.64 20.2415 16.5104 20.4585 16.5104 20.6 16.64 20.7381 16.7753 20.7404 16.9969 20.6051 17.1349 20.5381 17.2034 20.4458 17.2414 20.35 17.24Z" fill="#000005"/><path d="M14.6 17.24C14.4123 17.2456 14.2556 17.098 14.25 16.9103 14.2498 16.9035 14.2498 16.8968 14.25 16.89 14.2488 16.7947 14.2889 16.7035 14.36 16.64 14.4999 16.5163 14.7101 16.5163 14.85 16.64 14.9144 16.7073 14.9503 16.7969 14.95 16.89 14.9556 17.0777 14.808 17.2344 14.6203 17.24 14.6135 17.2402 14.6068 17.2402 14.6 17.24Z" fill="#000005"/><path d="M5.85 11.74C5.65672 11.7428 5.49776 11.5884 5.49495 11.3951 5.49355 11.2993 5.53153 11.2071 5.6 11.14 5.73814 11.0117 5.95186 11.0117 6.09 11.14 6.16105 11.2035 6.20116 11.2947 6.2 11.39 6.20561 11.5777 6.058 11.7344 5.8703 11.74 5.86354 11.7402 5.85677 11.7402 5.85 11.74Z" fill="#000005"/><path d="M6.85 2.74C6.76054 2.7368 6.67527 2.70127 6.61 2.64 6.54192 2.57435 6.5024 2.48455 6.5 2.39 6.5026 2.29744 6.53804 2.20882 6.6 2.14 6.74797 2.00721 6.97558 2.01951 7.10837 2.16748 7.16354 2.22895 7.19589 2.30751 7.2 2.39 7.1974 2.48256 7.16196 2.57118 7.1 2.64 7.03118 2.70196 6.94256 2.7374 6.85 2.74Z" fill="#000005"/><path d="M9.85 8.24C9.65672 8.24281 9.49776 8.0884 9.49495 7.89513 9.49356 7.79929 9.53153 7.70707 9.6 7.64 9.74797 7.5072 9.97558 7.51951 10.1084 7.66748 10.1635 7.72895 10.1959 7.80751 10.2 7.89 10.2056 8.07769 10.058 8.23439 9.8703 8.24 9.86354 8.2402 9.85677 8.2402 9.85 8.24Z" fill="#000005"/><path d="M14.1 8.24C13.9123 8.24561 13.7556 8.098 13.75 7.9103 13.7498 7.90354 13.7498 7.89677 13.75 7.89 13.7488 7.79469 13.7889 7.70354 13.86 7.64 13.9999 7.51635 14.2101 7.51635 14.35 7.64 14.4144 7.70726 14.4503 7.79687 14.45 7.89 14.4556 8.07769 14.308 8.23439 14.1203 8.24 14.1135 8.2402 14.1068 8.2402 14.1 8.24Z" fill="#000005"/><path d="M25.6 7C25.4067 7.00281 25.2478 6.8484 25.2449 6.65513 25.2436 6.55929 25.2815 6.46707 25.35 6.4 25.498 6.2672 25.7256 6.27951 25.8584 6.42748 25.9135 6.48895 25.9459 6.56751 25.95 6.65 25.9556 6.83769 25.808 6.99439 25.6203 7 25.6135 7.0002 25.6068 7.0002 25.6 7Z" fill="#000005"/><path d="M36.85 7.49C36.6567 7.49281 36.4978 7.3384 36.4949 7.14513 36.4936 7.04929 36.5315 6.95707 36.6 6.89 36.7415 6.76035 36.9585 6.76035 37.1 6.89 37.2381 7.02526 37.2404 7.24686 37.1051 7.38495 37.0381 7.45342 36.9458 7.49139 36.85 7.49Z" fill="#000005"/><path d="M37.35 4.24C37.1623 4.24561 37.0056 4.098 37 3.9103 36.9998 3.90354 36.9998 3.89677 37 3.89 36.9988 3.79469 37.0389 3.70354 37.11 3.64 37.2507 3.50743 37.4722 3.51401 37.6048 3.65469 37.6648 3.71845 37.6988 3.80241 37.7 3.89 37.7056 4.07769 37.558 4.23439 37.3703 4.24 37.3635 4.2402 37.3568 4.2402 37.35 4.24Z" fill="#000005"/><path d="M43.1 2.24C43.0074 2.2374 42.9188 2.20196 42.85 2.14 42.788 2.07118 42.7526 1.98256 42.75 1.89 42.7526 1.79744 42.788 1.70882 42.85 1.64 42.9915 1.51035 43.2085 1.51035 43.35 1.64 43.412 1.70882 43.4474 1.79744 43.45 1.89 43.4474 1.98256 43.412 2.07118 43.35 2.14 43.2799 2.19987 43.192 2.23501 43.1 2.24Z" fill="#000005"/><path d="M49.35 8.24C49.2574 8.2374 49.1688 8.20195 49.1 8.14 48.9654 8.00052 48.9654 7.77948 49.1 7.64 49.2415 7.51035 49.4585 7.51035 49.6 7.64 49.7381 7.77526 49.7404 7.99686 49.6051 8.13495 49.5381 8.20342 49.4458 8.24139 49.35 8.24Z" fill="#000005"/><path d="M45.85 9.24C45.6567 9.24281 45.4978 9.0884 45.4949 8.89513 45.4936 8.79929 45.5315 8.70707 45.6 8.64 45.7415 8.51035 45.9585 8.51035 46.1 8.64 46.2346 8.77948 46.2346 9.00052 46.1 9.14 46.0322 9.20355 45.9429 9.23925 45.85 9.24Z" fill="#000005"/><path d="M35.6 11C35.4123 11.0056 35.2556 10.858 35.25 10.6703 35.2498 10.6635 35.2498 10.6568 35.25 10.65 35.2508 10.5571 35.2865 10.4678 35.35 10.4 35.498 10.2672 35.7256 10.2795 35.8584 10.4275 35.9135 10.4889 35.9459 10.5675 35.95 10.65 35.9556 10.8377 35.808 10.9944 35.6203 11 35.6135 11.0002 35.6068 11.0002 35.6 11Z" fill="#000005"/><path d="M39.1 15C38.9067 15.0028 38.7478 14.8484 38.7449 14.6551 38.7436 14.5593 38.7815 14.4671 38.85 14.4 38.998 14.2672 39.2256 14.2795 39.3584 14.4275 39.4135 14.4889 39.4459 14.5675 39.45 14.65 39.4556 14.8377 39.308 14.9944 39.1203 15 39.1135 15.0002 39.1068 15.0002 39.1 15Z" fill="#000005"/><path d="M24.6 18C24.4067 18.0028 24.2478 17.8484 24.2449 17.6551 24.2436 17.5593 24.2815 17.4671 24.35 17.4 24.498 17.2672 24.7256 17.2795 24.8584 17.4275 24.9135 17.4889 24.9459 17.5675 24.95 17.65 24.9556 17.8377 24.808 17.9944 24.6203 18 24.6135 18.0002 24.6068 18.0002 24.6 18Z" fill="#000005"/><path d="M8.1 27.24C7.90672 27.2428 7.74776 27.0884 7.74495 26.8951 7.74355 26.7993 7.78153 26.7071 7.85 26.64 7.99797 26.5072 8.22558 26.5195 8.35837 26.6675 8.41354 26.7289 8.44589 26.8075 8.45 26.89 8.45561 27.0777 8.308 27.2344 8.1203 27.24 8.11354 27.2402 8.10677 27.2402 8.1 27.24Z" fill="#000005"/><path d="M15.85 31.74C15.6567 31.7428 15.4978 31.5884 15.4949 31.3951 15.4936 31.2993 15.5315 31.2071 15.6 31.14 15.7432 31.0149 15.9568 31.0149 16.1 31.14 16.2381 31.2753 16.2404 31.4969 16.1051 31.6349 16.0381 31.7034 15.9458 31.7414 15.85 31.74Z" fill="#000005"/><path d="M10.35 33.49C10.1623 33.4956 10.0056 33.348 10 33.1603 9.9998 33.1535 9.9998 33.1468 10 33.14 9.99884 33.0447 10.0389 32.9535 10.11 32.89 10.2499 32.7664 10.4601 32.7664 10.6 32.89 10.6644 32.9573 10.7003 33.0469 10.7 33.14 10.6992 33.2329 10.6635 33.3222 10.6 33.39 10.5312 33.452 10.4426 33.4874 10.35 33.49Z" fill="#000005"/><path d="M5.1 37C4.90672 37.0028 4.74776 36.8484 4.74495 36.6551 4.74355 36.5593 4.78153 36.4671 4.85 36.4 4.9932 36.2749 5.2068 36.2749 5.35 36.4 5.41355 36.4678 5.44925 36.5571 5.45 36.65 5.45561 36.8377 5.308 36.9944 5.1203 37 5.11354 37.0002 5.10677 37.0002 5.1 37Z" fill="#000005"/><path d="M3.1 20.49C3.00744 20.4874 2.91882 20.452 2.85 20.39 2.71538 20.2505 2.71538 20.0295 2.85 19.89 2.9932 19.7649 3.2068 19.7649 3.35 19.89 3.48462 20.0295 3.48462 20.2505 3.35 20.39 3.28118 20.452 3.19256 20.4874 3.1 20.49Z" fill="#000005"/><path d="M20.35 30.74C20.1623 30.7456 20.0056 30.598 20 30.4103 19.9998 30.4035 19.9998 30.3968 20 30.39 19.9988 30.2947 20.0389 30.2035 20.11 30.14 20.2507 30.0074 20.4722 30.014 20.6048 30.1547 20.6648 30.2184 20.6988 30.3024 20.7 30.39 20.7056 30.5777 20.558 30.7344 20.3703 30.74 20.3635 30.7402 20.3568 30.7402 20.35 30.74Z" fill="#000005"/><path d="M17.35 35.49C17.1567 35.4928 16.9978 35.3384 16.9949 35.1451 16.9936 35.0493 17.0315 34.9571 17.1 34.89 17.2415 34.7603 17.4585 34.7603 17.6 34.89 17.7381 35.0253 17.7404 35.2469 17.6051 35.3849 17.5381 35.4534 17.4458 35.4914 17.35 35.49Z" fill="#000005"/><path d="M15.85 39C15.6623 39.0056 15.5056 38.858 15.5 38.6703 15.4998 38.6635 15.4998 38.6568 15.5 38.65 15.4988 38.5547 15.5389 38.4635 15.61 38.4 15.7499 38.2764 15.9601 38.2764 16.1 38.4 16.1644 38.4673 16.2003 38.5569 16.2 38.65 16.1974 38.7426 16.162 38.8312 16.1 38.9 16.0322 38.9636 15.9429 38.9992 15.85 39Z" fill="#000005"/><path d="M12.6 41.24C12.4123 41.2456 12.2556 41.098 12.25 40.9103 12.2498 40.9035 12.2498 40.8968 12.25 40.89 12.2488 40.7947 12.2889 40.7035 12.36 40.64 12.4999 40.5164 12.7101 40.5164 12.85 40.64 12.9144 40.7073 12.9503 40.7969 12.95 40.89 12.9556 41.0777 12.808 41.2344 12.6203 41.24 12.6135 41.2402 12.6068 41.2402 12.6 41.24Z" fill="#000005"/><path d="M12.6 46.49C12.4123 46.4956 12.2556 46.348 12.25 46.1603 12.2498 46.1535 12.2498 46.1468 12.25 46.14 12.2488 46.0447 12.2889 45.9535 12.36 45.89 12.4999 45.7664 12.7101 45.7664 12.85 45.89 12.9144 45.9573 12.9503 46.0469 12.95 46.14 12.9556 46.3277 12.808 46.4844 12.6203 46.49 12.6135 46.4902 12.6068 46.4902 12.6 46.49Z" fill="#000005"/><path d="M5.6 48.49C5.40672 48.4928 5.24776 48.3384 5.24495 48.1451 5.24355 48.0493 5.28153 47.9571 5.35 47.89 5.4932 47.7649 5.7068 47.7649 5.85 47.89 5.98809 48.0253 5.99039 48.2469 5.85513 48.3849 5.78806 48.4534 5.69584 48.4914 5.6 48.49Z" fill="#000005"/><path d="M10.85 54.49C10.6567 54.4928 10.4978 54.3384 10.4949 54.1451 10.4936 54.0493 10.5315 53.9571 10.6 53.89 10.7432 53.7649 10.9568 53.7649 11.1 53.89 11.2381 54.0253 11.2404 54.2469 11.1051 54.3849 11.0381 54.4534 10.9458 54.4914 10.85 54.49Z" fill="#000005"/><path d="M15.35 58.49C15.1567 58.4928 14.9978 58.3384 14.9949 58.1451 14.9936 58.0493 15.0315 57.9571 15.1 57.89 15.2415 57.7603 15.4585 57.7603 15.6 57.89 15.7381 58.0253 15.7404 58.2469 15.6051 58.3849 15.5381 58.4534 15.4458 58.4914 15.35 58.49Z" fill="#000005"/><path d="M5.85 63.49C5.65672 63.4928 5.49776 63.3384 5.49495 63.1451 5.49355 63.0493 5.53153 62.9571 5.6 62.89 5.7432 62.7649 5.9568 62.7649 6.1 62.89 6.16442 62.9573 6.20026 63.0469 6.2 63.14 6.20561 63.3277 6.058 63.4844 5.8703 63.49 5.86354 63.4902 5.85677 63.4902 5.85 63.49Z" fill="#000005"/><path d="M2.1 62C2.00744 61.9974 1.91882 61.962 1.85 61.9 1.71538 61.7605 1.71538 61.5395 1.85 61.4 1.98993 61.2764 2.20007 61.2764 2.34 61.4 2.41 61.4643 2.44989 61.555 2.45 61.65 2.4474 61.7426 2.41196 61.8312 2.35 61.9 2.28118 61.962 2.19256 61.9974 2.1 62Z" fill="#000005"/><path d="M8.85 68C8.65672 68.0028 8.49776 67.8484 8.49495 67.6551 8.49356 67.5593 8.53153 67.4671 8.6 67.4 8.74797 67.2672 8.97558 67.2795 9.10837 67.4275 9.16354 67.489 9.19589 67.5675 9.2 67.65 9.1974 67.7426 9.16195 67.8312 9.1 67.9 9.03218 67.9635 8.94293 67.9993 8.85 68Z" fill="#000005"/><path d="M13.35 69.49C13.1567 69.4928 12.9978 69.3384 12.9949 69.1451 12.9936 69.0493 13.0315 68.9571 13.1 68.89 13.2432 68.7649 13.4568 68.7649 13.6 68.89 13.7381 69.0253 13.7404 69.2469 13.6051 69.3849 13.5381 69.4534 13.4458 69.4914 13.35 69.49Z" fill="#000005"/><path d="M21.35 68.49C21.1623 68.4956 21.0056 68.348 21 68.1603 20.9998 68.1535 20.9998 68.1468 21 68.14 20.9988 68.0447 21.0389 67.9535 21.11 67.89 21.2507 67.7574 21.4722 67.764 21.6048 67.9047 21.6648 67.9684 21.6988 68.0524 21.7 68.14 21.7056 68.3277 21.558 68.4844 21.3703 68.49 21.3635 68.4902 21.3568 68.4902 21.35 68.49Z" fill="#000005"/><path d="M22.85 65.74C22.6567 65.7428 22.4978 65.5884 22.4949 65.3951 22.4936 65.2993 22.5315 65.2071 22.6 65.14 22.7415 65.0104 22.9585 65.0104 23.1 65.14 23.2346 65.2795 23.2346 65.5005 23.1 65.64 23.0322 65.7035 22.9429 65.7393 22.85 65.74Z" fill="#000005"/><path d="M22.1 60C21.9067 60.0028 21.7478 59.8484 21.7449 59.6551 21.7436 59.5593 21.7815 59.4671 21.85 59.4 21.9932 59.2749 22.2068 59.2749 22.35 59.4 22.4846 59.5395 22.4846 59.7605 22.35 59.9 22.2822 59.9635 22.1929 59.9992 22.1 60Z" fill="#000005"/><path d="M24.1 57.49C23.9123 57.4956 23.7556 57.348 23.75 57.1603 23.7498 57.1535 23.7498 57.1468 23.75 57.14 23.7508 57.0471 23.7865 56.9578 23.85 56.89 23.9932 56.7649 24.2068 56.7649 24.35 56.89 24.4135 56.9578 24.4492 57.0471 24.45 57.14 24.4474 57.2326 24.412 57.3212 24.35 57.39 24.2822 57.4536 24.1929 57.4893 24.1 57.49Z" fill="#000005"/><path d="M26.1 47.74C25.9067 47.7428 25.7478 47.5884 25.7449 47.3951 25.7436 47.2993 25.7815 47.2071 25.85 47.14 25.9915 47.0103 26.2085 47.0103 26.35 47.14 26.4881 47.2753 26.4904 47.4969 26.3551 47.6349 26.2881 47.7034 26.1958 47.7414 26.1 47.74Z" fill="#000005"/><path d="M25.6 43.49C25.4067 43.4928 25.2478 43.3384 25.2449 43.1451 25.2436 43.0493 25.2815 42.9571 25.35 42.89 25.4915 42.7603 25.7085 42.7603 25.85 42.89 25.9881 43.0253 25.9904 43.2469 25.8551 43.3849 25.7881 43.4534 25.6958 43.4914 25.6 43.49Z" fill="#000005"/><path d="M32.1 31C31.9123 31.0056 31.7556 30.858 31.75 30.6703 31.7498 30.6635 31.7498 30.6568 31.75 30.65 31.7488 30.5547 31.7889 30.4635 31.86 30.4 32.0007 30.2674 32.2222 30.274 32.3548 30.4147 32.4148 30.4784 32.4488 30.5624 32.45 30.65 32.4556 30.8377 32.308 30.9944 32.1203 31 32.1135 31.0002 32.1068 31.0002 32.1 31Z" fill="#000005"/><path d="M34.1 27.74C33.9123 27.7456 33.7556 27.598 33.75 27.4103 33.7498 27.4035 33.7498 27.3968 33.75 27.39 33.7487 27.2967 33.7847 27.2067 33.85 27.14 33.9915 27.0104 34.2085 27.0104 34.35 27.14 34.4846 27.2795 34.4846 27.5005 34.35 27.64 34.2822 27.7035 34.1929 27.7392 34.1 27.74Z" fill="#000005"/><path d="M41.6 25.74C41.4067 25.7428 41.2478 25.5884 41.2449 25.3951 41.2436 25.2993 41.2815 25.2071 41.35 25.14 41.4915 25.0104 41.7085 25.0104 41.85 25.14 41.9881 25.2753 41.9904 25.4969 41.8551 25.6349 41.7881 25.7034 41.6958 25.7414 41.6 25.74Z" fill="#000005"/><path d="M42.85 20.74C42.7555 20.7376 42.6656 20.6981 42.6 20.63 42.5352 20.5671 42.4991 20.4803 42.5 20.39 42.5026 20.2974 42.538 20.2088 42.6 20.14 42.7415 20.0104 42.9585 20.0104 43.1 20.14 43.162 20.2088 43.1974 20.2974 43.2 20.39 43.1999 20.485 43.16 20.5757 43.09 20.64 43.0258 20.7029 42.9399 20.7387 42.85 20.74Z" fill="#000005"/><path d="M36.35 19.24C36.2574 19.2374 36.1688 19.202 36.1 19.14 36.0356 19.0727 35.9997 18.9831 36 18.89 35.9966 18.7992 36.0331 18.7115 36.1 18.65 36.2353 18.5119 36.4569 18.5097 36.5949 18.6449 36.5966 18.6466 36.5983 18.6483 36.6 18.65 36.7381 18.7853 36.7404 19.0069 36.6051 19.1449 36.5381 19.2134 36.4458 19.2514 36.35 19.25Z" fill="#000005"/><path d="M27.6 22.24C27.4067 22.2428 27.2478 22.0884 27.2449 21.8951 27.2436 21.7993 27.2815 21.7071 27.35 21.64 27.4915 21.5104 27.7085 21.5104 27.85 21.64 27.9881 21.7753 27.9904 21.9969 27.8551 22.1349 27.7881 22.2034 27.6958 22.2414 27.6 22.24Z" fill="#000005"/><path d="M51.85 22C51.7547 22.0012 51.6635 21.9611 51.6 21.89 51.5371 21.8258 51.5013 21.7399 51.5 21.65 51.5026 21.5574 51.538 21.4688 51.6 21.4 51.748 21.2672 51.9756 21.2795 52.1084 21.4275 52.1635 21.4889 52.1959 21.5675 52.2 21.65 52.1974 21.7426 52.162 21.8312 52.1 21.9 52.0322 21.9635 51.9429 21.9992 51.85 22Z" fill="#000005"/><path d="M43.1 17.74C43.0071 17.7392 42.9178 17.7035 42.85 17.64 42.7154 17.5005 42.7154 17.2795 42.85 17.14 42.9932 17.0149 43.2068 17.0149 43.35 17.14 43.4881 17.2753 43.4904 17.4969 43.3551 17.6349 43.2881 17.7034 43.1958 17.7414 43.1 17.74Z" fill="#000005"/><path d="M50.35 18C50.2571 17.9992 50.1678 17.9635 50.1 17.9 49.9654 17.7605 49.9654 17.5395 50.1 17.4 50.248 17.2672 50.4756 17.2795 50.6084 17.4275 50.6635 17.4889 50.6959 17.5675 50.7 17.65 50.7056 17.8377 50.558 17.9944 50.3703 18 50.3635 18.0002 50.3568 18.0002 50.35 18Z" fill="#000005"/><path d="M59.35 17.24C59.1623 17.2456 59.0056 17.098 59 16.9103 58.9998 16.9035 58.9998 16.8968 59 16.89 58.9988 16.7947 59.0389 16.7035 59.11 16.64 59.2499 16.5163 59.4601 16.5163 59.6 16.64 59.6644 16.7073 59.7003 16.7969 59.7 16.89 59.7056 17.0777 59.558 17.2344 59.3703 17.24 59.3635 17.2402 59.3568 17.2402 59.35 17.24Z" fill="#000005"/><path d="M58.1 14C58.0071 13.9992 57.9178 13.9635 57.85 13.9 57.7154 13.7605 57.7154 13.5395 57.85 13.4 57.998 13.2672 58.2256 13.2795 58.3584 13.4275 58.4135 13.4889 58.4459 13.5675 58.45 13.65 58.4556 13.8377 58.308 13.9944 58.1203 14 58.1135 14.0002 58.1068 14.0002 58.1 14Z" fill="#000005"/><path d="M61.35 11C61.1623 11.0056 61.0056 10.858 61 10.6703 60.9998 10.6635 60.9998 10.6568 61 10.65 60.9988 10.5547 61.0389 10.4635 61.11 10.4 61.2481 10.2717 61.4619 10.2717 61.6 10.4 61.6669 10.4615 61.7034 10.5492 61.7 10.64 61.7056 10.8277 61.558 10.9844 61.3703 10.99 61.3635 10.9902 61.3568 10.9902 61.35 10.99Z" fill="#000005"/><path d="M58.6 7.49C58.5074 7.4874 58.4188 7.45196 58.35 7.39 58.2847 7.32334 58.2487 7.23333 58.25 7.14 58.2466 7.04921 58.2831 6.96148 58.35 6.9 58.4853 6.76191 58.7069 6.75962 58.8449 6.89488 58.9109 6.95952 58.9487 7.04763 58.95 7.14 58.9556 7.32769 58.808 7.48439 58.6203 7.49 58.6135 7.4902 58.6068 7.4902 58.6 7.49Z" fill="#000005"/><path d="M59.85 4.74C59.755 4.73989 59.6643 4.7 59.6 4.63 59.5371 4.56581 59.5013 4.47987 59.5 4.39 59.4988 4.29469 59.5389 4.20354 59.61 4.14 59.7499 4.01635 59.9601 4.01635 60.1 4.14 60.1644 4.20726 60.2003 4.29687 60.2 4.39 60.2056 4.57769 60.058 4.73439 59.8703 4.74 59.8635 4.7402 59.8568 4.7402 59.85 4.74Z" fill="#000005"/><path d="M67.35 6C67.2574 5.9974 67.1688 5.96196 67.1 5.9 67.0356 5.83274 66.9997 5.74313 67 5.65 67.0008 5.55707 67.0365 5.46782 67.1 5.4 67.2432 5.27491 67.4568 5.27491 67.6 5.4 67.7346 5.53948 67.7346 5.76052 67.6 5.9 67.5312 5.96196 67.4426 5.9974 67.35 6Z" fill="#000005"/><path d="M70.6 8.49C70.5074 8.4874 70.4188 8.45195 70.35 8.39 70.2856 8.32274 70.2497 8.23313 70.25 8.14 70.2508 8.04706 70.2865 7.95782 70.35 7.89 70.4899 7.76635 70.7001 7.76635 70.84 7.89 70.9081 7.95565 70.9476 8.04545 70.95 8.14 70.9556 8.32769 70.808 8.48439 70.6203 8.49 70.6135 8.4902 70.6068 8.4902 70.6 8.49Z" fill="#000005"/><path d="M65.6 9.74C65.4123 9.74561 65.2556 9.598 65.25 9.4103 65.2498 9.40354 65.2498 9.39677 65.25 9.39 65.2508 9.29707 65.2865 9.20782 65.35 9.14 65.4932 9.01491 65.7068 9.01491 65.85 9.14 65.9881 9.27526 65.9904 9.49686 65.8551 9.63495 65.7881 9.70342 65.6958 9.74139 65.6 9.74Z" fill="#000005"/><path d="M60.1 23.74C59.9067 23.7428 59.7478 23.5884 59.7449 23.3951 59.7436 23.2993 59.7815 23.2071 59.85 23.14 59.9915 23.0104 60.2085 23.0104 60.35 23.14 60.4881 23.2753 60.4904 23.4969 60.3551 23.6349 60.2881 23.7034 60.1958 23.7414 60.1 23.74Z" fill="#000005"/><path d="M55.35 23.74C55.1567 23.7428 54.9978 23.5884 54.9949 23.3951 54.9936 23.2993 55.0315 23.2071 55.1 23.14 55.2432 23.0149 55.4568 23.0149 55.6 23.14 55.7381 23.2753 55.7404 23.4969 55.6051 23.6349 55.5381 23.7034 55.4458 23.7414 55.35 23.74Z" fill="#000005"/><path d="M55.35 18.74C55.255 18.7399 55.1643 18.7 55.1 18.63 55.0371 18.5658 55.0013 18.4799 55 18.39 54.9988 18.2947 55.0389 18.2035 55.11 18.14 55.2499 18.0163 55.4601 18.0163 55.6 18.14 55.6644 18.2073 55.7003 18.2969 55.7 18.39 55.7056 18.5777 55.558 18.7344 55.3703 18.74 55.3635 18.7402 55.3568 18.7402 55.35 18.74Z" fill="#000005"/><path d="M64.85 25.74C64.6623 25.7456 64.5056 25.598 64.5 25.4103 64.4998 25.4035 64.4998 25.3968 64.5 25.39 64.4988 25.2947 64.5389 25.2035 64.61 25.14 64.7499 25.0163 64.9601 25.0163 65.1 25.14 65.1644 25.2073 65.2003 25.2969 65.2 25.39 65.2056 25.5777 65.058 25.7344 64.8703 25.74 64.8635 25.7402 64.8568 25.7402 64.85 25.74Z" fill="#000005"/><path d="M57.6 30.74C57.5047 30.7412 57.4135 30.701 57.35 30.63 57.2871 30.5658 57.2513 30.4799 57.25 30.39 57.2488 30.2947 57.2889 30.2035 57.36 30.14 57.4999 30.0163 57.7101 30.0163 57.85 30.14 57.9144 30.2073 57.9503 30.2969 57.95 30.39 57.9556 30.5777 57.808 30.7344 57.6203 30.74 57.6135 30.7402 57.6068 30.7402 57.6 30.74Z" fill="#000005"/><path d="M52.6 32.74C52.5055 32.7376 52.4156 32.6981 52.35 32.63 52.2871 32.5658 52.2513 32.4799 52.25 32.39 52.2488 32.2947 52.2889 32.2035 52.36 32.14 52.4999 32.0163 52.7101 32.0163 52.85 32.14 52.9144 32.2073 52.9503 32.2969 52.95 32.39 52.9556 32.5777 52.808 32.7344 52.6203 32.74 52.6135 32.7402 52.6068 32.7402 52.6 32.74Z" fill="#000005"/><path d="M47.35 33.74C47.2555 33.7376 47.1656 33.6981 47.1 33.63 47.0371 33.5658 47.0013 33.4799 47 33.39 46.9988 33.2947 47.0389 33.2035 47.11 33.14 47.2499 33.0163 47.4601 33.0163 47.6 33.14 47.6644 33.2073 47.7003 33.2969 47.7 33.39 47.7056 33.5777 47.558 33.7344 47.3703 33.74 47.3635 33.7402 47.3568 33.7402 47.35 33.74Z" fill="#000005"/><path d="M44.1 39.24C44.0055 39.2376 43.9156 39.1981 43.85 39.13 43.7871 39.0658 43.7513 38.9799 43.75 38.89 43.7526 38.7974 43.788 38.7088 43.85 38.64 43.9915 38.5103 44.2085 38.5103 44.35 38.64 44.4135 38.7078 44.4492 38.7971 44.45 38.89 44.4512 38.9853 44.411 39.0765 44.34 39.14 44.2758 39.2029 44.1899 39.2387 44.1 39.24Z" fill="#000005"/><path d="M33.85 41.49C33.6567 41.4928 33.4978 41.3384 33.4949 41.1451 33.4936 41.0493 33.5315 40.9571 33.6 40.89 33.7415 40.7603 33.9585 40.7603 34.1 40.89 34.2381 41.0253 34.2404 41.2469 34.1051 41.3849 34.0381 41.4534 33.9458 41.4914 33.85 41.49Z" fill="#000005"/><path d="M40.6 48C40.4067 48.0028 40.2478 47.8484 40.2449 47.6551 40.2436 47.5593 40.2815 47.4671 40.35 47.4 40.4881 47.2717 40.7019 47.2717 40.84 47.4 40.91 47.4643 40.9499 47.555 40.95 47.65 40.9556 47.8377 40.808 47.9944 40.6203 48 40.6135 48.0002 40.6068 48.0002 40.6 48Z" fill="#000005"/><path d="M45.6 52.24C45.4123 52.2456 45.2556 52.098 45.25 51.9103 45.2498 51.9035 45.2498 51.8968 45.25 51.89 45.2488 51.7947 45.2889 51.7035 45.36 51.64 45.5007 51.5074 45.7222 51.514 45.8548 51.6547 45.9148 51.7184 45.9488 51.8024 45.95 51.89 45.9556 52.0777 45.808 52.2344 45.6203 52.24 45.6135 52.2402 45.6068 52.2402 45.6 52.24Z" fill="#000005"/><path d="M46.35 56.74C46.1567 56.7428 45.9978 56.5884 45.9949 56.3951 45.9936 56.2993 46.0315 56.2071 46.1 56.14 46.2361 56.0066 46.4539 56.0066 46.59 56.14 46.6581 56.2056 46.6976 56.2955 46.7 56.39 46.7056 56.5777 46.558 56.7344 46.3703 56.74 46.3635 56.7402 46.3568 56.7402 46.35 56.74Z" fill="#000005"/><path d="M41.85 59.49C41.7601 59.4887 41.6742 59.4529 41.61 59.39 41.5419 59.3244 41.5024 59.2346 41.5 59.14 41.5026 59.0474 41.538 58.9588 41.6 58.89 41.7414 58.7604 41.9585 58.7604 42.1 58.89 42.2381 59.0253 42.2404 59.2469 42.1051 59.385 42.0381 59.4534 41.9458 59.4914 41.85 59.49Z" fill="#000005"/><path d="M39.85 62.74C39.6567 62.7428 39.4978 62.5884 39.4949 62.3951 39.4936 62.2993 39.5315 62.2071 39.6 62.14 39.7415 62.0103 39.9585 62.0103 40.1 62.14 40.2346 62.2795 40.2346 62.5005 40.1 62.64 40.0322 62.7035 39.9429 62.7392 39.85 62.74Z" fill="#000005"/><path d="M35.85 62.74C35.6623 62.7456 35.5056 62.598 35.5 62.4103 35.4998 62.4035 35.4998 62.3968 35.5 62.39 35.4988 62.2947 35.5389 62.2035 35.61 62.14 35.7507 62.0074 35.9722 62.014 36.1048 62.1547 36.1648 62.2184 36.1988 62.3024 36.2 62.39 36.2056 62.5777 36.058 62.7344 35.8703 62.74 35.8635 62.7402 35.8568 62.7402 35.85 62.74Z" fill="#000005"/><path d="M36.35 52.74C36.2574 52.7374 36.1688 52.702 36.1 52.64 36.0347 52.5733 35.9987 52.4833 36 52.39 36.0026 52.2974 36.038 52.2088 36.1 52.14 36.2395 52.0054 36.4605 52.0054 36.6 52.14 36.6669 52.2015 36.7034 52.2892 36.7 52.38 36.7056 52.5677 36.558 52.7244 36.3703 52.73 36.3635 52.7302 36.3568 52.7302 36.35 52.73Z" fill="#000005"/><path d="M29.85 63.49C29.7601 63.4887 29.6742 63.4529 29.61 63.39 29.5419 63.3244 29.5024 63.2346 29.5 63.14 29.4988 63.0447 29.5389 62.9535 29.61 62.89 29.7499 62.7664 29.9601 62.7664 30.1 62.89 30.1644 62.9573 30.2003 63.0469 30.2 63.14 30.2056 63.3277 30.058 63.4844 29.8703 63.49 29.8635 63.4902 29.8568 63.4902 29.85 63.49Z" fill="#000005"/><path d="M31.35 68.49C31.1567 68.4928 30.9978 68.3384 30.9949 68.1451 30.9936 68.0493 31.0315 67.9571 31.1 67.89 31.2415 67.7604 31.4585 67.7604 31.6 67.89 31.7381 68.0253 31.7404 68.2469 31.6051 68.3849 31.5381 68.4534 31.4458 68.4914 31.35 68.49Z" fill="#000005"/><path d="M36.85 71C36.7574 70.9974 36.6688 70.962 36.6 70.9 36.5364 70.8322 36.5008 70.7429 36.5 70.65 36.4988 70.5547 36.5389 70.4635 36.61 70.4 36.7499 70.2764 36.9601 70.2764 37.1 70.4 37.1644 70.4673 37.2003 70.5569 37.2 70.65 37.1992 70.7429 37.1635 70.8322 37.1 70.9 37.0312 70.962 36.9426 70.9974 36.85 71Z" fill="#000005"/><path d="M62.85 57C62.6623 57.0056 62.5056 56.858 62.5 56.6703 62.4998 56.6635 62.4998 56.6568 62.5 56.65 62.4988 56.5547 62.5389 56.4635 62.61 56.4 62.7499 56.2764 62.9601 56.2764 63.1 56.4 63.1644 56.4673 63.2003 56.5569 63.2 56.65 63.2056 56.8377 63.058 56.9944 62.8703 57 62.8635 57.0002 62.8568 57.0002 62.85 57Z" fill="#000005"/><path d="M59.85 50.74C59.7547 50.7412 59.6635 50.7011 59.6 50.63 59.5371 50.5658 59.5013 50.4799 59.5 50.39 59.5026 50.1967 59.6614 50.0421 59.8547 50.0448 59.9423 50.0459 60.0262 50.0799 60.09 50.14 60.1581 50.2056 60.1976 50.2955 60.2 50.39 60.1974 50.4826 60.162 50.5712 60.1 50.64 60.0322 50.7035 59.9429 50.7392 59.85 50.74Z" fill="#000005"/><path d="M54.35 50.49C54.2574 50.4874 54.1688 50.452 54.1 50.39 54.0364 50.3222 54.0008 50.2329 54 50.14 54 49.9467 54.1567 49.79 54.35 49.79 54.5433 49.79 54.7 49.9467 54.7 50.14 54.6987 50.2299 54.6629 50.3158 54.6 50.38 54.5357 50.45 54.445 50.4899 54.35 50.49Z" fill="#000005"/><path d="M54.6 41.74C54.5055 41.7376 54.4156 41.6981 54.35 41.63 54.2852 41.5671 54.2491 41.4803 54.25 41.39 54.2526 41.2974 54.288 41.2088 54.35 41.14 54.4915 41.0103 54.7085 41.0103 54.85 41.14 54.912 41.2088 54.9474 41.2974 54.95 41.39 54.9499 41.485 54.91 41.5757 54.84 41.64 54.7758 41.7029 54.6899 41.7387 54.6 41.74Z" fill="#000005"/><path d="M62.35 42.24C62.1567 42.2428 61.9978 42.0884 61.9949 41.8951 61.9936 41.7993 62.0315 41.7071 62.1 41.64 62.2415 41.5103 62.4585 41.5103 62.6 41.64 62.7381 41.7753 62.7404 41.9969 62.6051 42.1349 62.5381 42.2034 62.4458 42.2414 62.35 42.24Z" fill="#000005"/><path d="M66.85 47.49C66.7601 47.4887 66.6742 47.4529 66.61 47.39 66.5419 47.3244 66.5024 47.2346 66.5 47.14 66.5026 47.0474 66.538 46.9588 66.6 46.89 66.7381 46.7617 66.9519 46.7617 67.09 46.89 67.1622 46.9527 67.2025 47.0444 67.2 47.14 67.2056 47.3277 67.058 47.4844 66.8703 47.49 66.8635 47.4902 66.8568 47.4902 66.85 47.49Z" fill="#000005"/><path d="M69.35 54.24C69.2601 54.2387 69.1742 54.2029 69.11 54.14 69.0419 54.0744 69.0024 53.9846 69 53.89 69.0026 53.7974 69.038 53.7088 69.1 53.64 69.248 53.5072 69.4756 53.5195 69.6084 53.6675 69.6635 53.729 69.6959 53.8075 69.7 53.89 69.7056 54.0777 69.558 54.2344 69.3703 54.24 69.3635 54.2402 69.3568 54.2402 69.35 54.24Z" fill="#000005"/><path d="M63.35 61.74C63.2601 61.7387 63.1742 61.7029 63.11 61.64 63.0419 61.5744 63.0024 61.4846 63 61.39 63.0026 61.2974 63.038 61.2088 63.1 61.14 63.2381 61.0117 63.4519 61.0117 63.59 61.14 63.6622 61.2027 63.7025 61.2944 63.7 61.39 63.7056 61.5777 63.558 61.7344 63.3703 61.74 63.3635 61.7402 63.3568 61.7402 63.35 61.74Z" fill="#000005"/><path d="M70.1 61C69.9123 61.0056 69.7556 60.858 69.75 60.6703 69.7498 60.6635 69.7498 60.6568 69.75 60.65 69.7488 60.5547 69.7889 60.4635 69.86 60.4 69.9999 60.2764 70.2101 60.2764 70.35 60.4 70.4144 60.4673 70.4503 60.5569 70.45 60.65 70.4556 60.8377 70.308 60.9944 70.1203 61 70.1135 61.0002 70.1068 61.0002 70.1 61Z" fill="#000005"/><path d="M64.6 65.49C64.4067 65.4928 64.2478 65.3384 64.2449 65.1451 64.2436 65.0493 64.2815 64.9571 64.35 64.89 64.4895 64.7554 64.7105 64.7554 64.85 64.89 64.9129 64.9542 64.9487 65.0401 64.95 65.13 64.9556 65.3177 64.808 65.4744 64.6203 65.48 64.6135 65.4802 64.6068 65.4802 64.6 65.48Z" fill="#000005"/><path d="M65.6 68.24C65.4067 68.2428 65.2478 68.0884 65.2449 67.8951 65.2436 67.7993 65.2815 67.7071 65.35 67.64 65.4915 67.5104 65.7085 67.5104 65.85 67.64 65.9881 67.7753 65.9904 67.9969 65.8551 68.1349 65.7881 68.2034 65.6958 68.2414 65.6 68.24Z" fill="#000005"/><path d="M62.35 70.24C62.1623 70.2456 62.0056 70.098 62 69.9103 61.9998 69.9035 61.9998 69.8968 62 69.89 62.0001 69.795 62.04 69.7043 62.11 69.64 62.2481 69.5117 62.4619 69.5117 62.6 69.64 62.6669 69.7015 62.7034 69.7892 62.7 69.88 62.7056 70.0677 62.558 70.2244 62.3703 70.23 62.3635 70.2302 62.3568 70.2302 62.35 70.23Z" fill="#000005"/><path d="M52.6 69.74C52.5069 69.7403 52.4173 69.7044 52.35 69.64 52.2154 69.5005 52.2154 69.2795 52.35 69.14 52.498 69.0072 52.7256 69.0195 52.8584 69.1675 52.9135 69.229 52.9459 69.3075 52.95 69.39 52.9474 69.4826 52.912 69.5712 52.85 69.64 52.7822 69.7035 52.6929 69.7393 52.6 69.74Z" fill="#000005"/><path d="M44.6 66.49C44.505 66.4899 44.4143 66.45 44.35 66.38 44.2871 66.3158 44.2513 66.2299 44.25 66.14 44.2488 66.0447 44.2889 65.9535 44.36 65.89 44.4999 65.7663 44.7101 65.7663 44.85 65.89 44.9144 65.9573 44.9503 66.0469 44.95 66.14 44.9556 66.3277 44.808 66.4844 44.6203 66.49 44.6135 66.4902 44.6068 66.4902 44.6 66.49Z" fill="#000005"/><path d="M28.35 71.24C28.2574 71.2374 28.1688 71.202 28.1 71.14 28.0356 71.0727 27.9997 70.9831 28 70.89 27.9988 70.7947 28.0389 70.7035 28.11 70.64 28.2507 70.5074 28.4722 70.514 28.6048 70.6547 28.6648 70.7184 28.6988 70.8024 28.7 70.89 28.7012 70.9853 28.6611 71.0765 28.59 71.14 28.5258 71.2029 28.4399 71.2387 28.35 71.24Z" fill="#000005"/><path d="M2.85 29.49C2.75744 29.4874 2.66882 29.452 2.6 29.39 2.46538 29.2505 2.46538 29.0295 2.6 28.89 2.7432 28.7649 2.9568 28.7649 3.1 28.89 3.23462 29.0295 3.23462 29.2505 3.1 29.39 3.03118 29.452 2.94256 29.4874 2.85 29.49Z" fill="#000005"/><path d="M13.1 5C13.0055 4.9976 12.9156 4.95808 12.85 4.89 12.7831 4.82852 12.7466 4.74079 12.75 4.65 12.7508 4.55707 12.7865 4.46782 12.85 4.4 12.998 4.26721 13.2256 4.27951 13.3584 4.42748 13.4135 4.48895 13.4459 4.56751 13.45 4.65 13.4512 4.74531 13.411 4.83646 13.34 4.9 13.2758 4.96291 13.1899 4.99872 13.1 5Z" fill="#000005"/><path d="M70.1 34.49C69.9123 34.4956 69.7556 34.348 69.75 34.1603 69.7498 34.1535 69.7498 34.1468 69.75 34.14 69.7488 34.0447 69.7889 33.9535 69.86 33.89 69.9999 33.7664 70.2101 33.7664 70.35 33.89 70.4144 33.9573 70.4503 34.0469 70.45 34.14 70.4556 34.3277 70.308 34.4844 70.1203 34.49 70.1135 34.4902 70.1068 34.4902 70.1 34.49Z" fill="#000005"/><path d="M71.1 41.24C70.9067 41.2428 70.7478 41.0884 70.7449 40.8951 70.7436 40.7993 70.7815 40.7071 70.85 40.64 70.9915 40.5103 71.2085 40.5103 71.35 40.64 71.4881 40.7753 71.4904 40.9969 71.3551 41.1349 71.2881 41.2034 71.1958 41.2414 71.1 41.24Z" fill="#000005"/><path d="M0.85 51.74C0.757438 51.7374 0.668819 51.702 0.6 51.64 0.538045 51.5712 0.502597 51.4826 0.5 51.39 0.498842 51.2947 0.53895 51.2035 0.61 51.14 0.749932 51.0164 0.960068 51.0164 1.1 51.14 1.16442 51.2073 1.20026 51.2969 1.2 51.39 1.1974 51.4826 1.16196 51.5712 1.1 51.64 1.03118 51.702 0.942562 51.7374 0.85 51.74Z" fill="#000005"/><path d="M71.85 23.49C71.6567 23.4928 71.4978 23.3384 71.4949 23.1451 71.4936 23.0493 71.5315 22.9571 71.6 22.89 71.7432 22.7649 71.9568 22.7649 72.1 22.89 72.2381 23.0253 72.2404 23.2469 72.1051 23.3849 72.0381 23.4534 71.9458 23.4914 71.85 23.49Z" fill="#000005"/><path d="M68.85 26.49C68.6567 26.4928 68.4978 26.3384 68.4949 26.1451 68.4936 26.0493 68.5315 25.9571 68.6 25.89 68.7415 25.7604 68.9585 25.7604 69.1 25.89 69.162 25.9588 69.1974 26.0474 69.2 26.14 69.2013 26.2333 69.1653 26.3233 69.1 26.39 69.0312 26.452 68.9426 26.4874 68.85 26.49Z" fill="#000005"/><path d="M68.35 60.24C68.1623 60.2456 68.0056 60.098 68 59.9103 67.9998 59.9035 67.9998 59.8968 68 59.89 68.0008 59.7971 68.0365 59.7078 68.1 59.64 68.2432 59.5149 68.4568 59.5149 68.6 59.64 68.7381 59.7753 68.7404 59.9969 68.6051 60.135 68.5381 60.2034 68.4458 60.2414 68.35 60.24Z" fill="#000005"/><path d="M71.35 68.24C71.1567 68.2428 70.9978 68.0884 70.9949 67.8951 70.9936 67.7993 71.0315 67.7071 71.1 67.64 71.2415 67.5104 71.4585 67.5104 71.6 67.64 71.662 67.7088 71.6974 67.7974 71.7 67.89 71.7013 67.9833 71.6653 68.0733 71.6 68.14 71.5312 68.202 71.4426 68.2374 71.35 68.24Z" fill="#000005"/><path d="M0.35 57.74C0.257438 57.7374 0.168819 57.702 0.1 57.64-0.0346178 57.5005-0.0346178 57.2795 0.1 57.14 0.243195 57.0149 0.456805 57.0149 0.6 57.14 0.734618 57.2795 0.734618 57.5005 0.6 57.64 0.531181 57.702 0.442562 57.7374 0.35 57.74Z" fill="#000005"/><path d="M2.6 71.24C2.50744 71.2374 2.41882 71.202 2.35 71.14 2.21538 71.0005 2.21538 70.7795 2.35 70.64 2.49797 70.5072 2.72558 70.5195 2.85837 70.6675 2.91354 70.729 2.94589 70.8075 2.95 70.89 2.9474 70.9826 2.91196 71.0712 2.85 71.14 2.78118 71.202 2.69256 71.2374 2.6 71.24Z" fill="#000005"/><path d="M70.1 24C69.9123 24.0056 69.7556 23.858 69.75 23.6703 69.7498 23.6635 69.7498 23.6568 69.75 23.65 69.7488 23.5547 69.7889 23.4635 69.86 23.4 69.9999 23.2764 70.2101 23.2764 70.35 23.4 70.4144 23.4673 70.4503 23.5569 70.45 23.65 70.4556 23.8377 70.308 23.9944 70.1203 24 70.1135 24.0002 70.1068 24.0002 70.1 24Z" fill="#000005"/><path d="M1.1 16.74C1.00744 16.7374 0.918819 16.702 0.85 16.64 0.715382 16.5005 0.715382 16.2795 0.85 16.14 0.993195 16.0149 1.2068 16.0149 1.35 16.14 1.48462 16.2795 1.48462 16.5005 1.35 16.64 1.28118 16.702 1.19256 16.7374 1.1 16.74Z" fill="#000005"/><path d="M17.85 13C17.491 13 17.2 12.709 17.2 12.35 17.2009 12.1777 17.2691 12.0127 17.39 11.89 17.6501 11.6511 18.0499 11.6511 18.31 11.89 18.5641 12.1436 18.5644 12.5552 18.3108 12.8092 18.1886 12.9316 18.0228 13.0002 17.85 13Z" fill="#000005"/><path d="M29.1 11C28.9277 10.9991 28.7627 10.9309 28.64 10.81 28.5208 10.6862 28.4529 10.5218 28.45 10.35 28.4509 10.1777 28.5191 10.0127 28.64 9.89 28.8982 9.64618 29.3018 9.64618 29.56 9.89 29.6809 10.0127 29.7491 10.1777 29.75 10.35 29.75 10.709 29.459 11 29.1 11Z" fill="#000005"/><path d="M29.1 3.54C28.741 3.54 28.45 3.24899 28.45 2.89 28.4487 2.71731 28.5172 2.55142 28.64 2.43 28.9001 2.19107 29.2999 2.19107 29.56 2.43 29.8141 2.68363 29.8144 3.09519 29.5608 3.34924 29.5605 3.34949 29.5603 3.34975 29.56 3.35 29.4362 3.46919 29.2718 3.53707 29.1 3.54Z" fill="#000005"/><path d="M40.1 10.54C39.741 10.54 39.45 10.249 39.45 9.89 39.4509 9.71775 39.5191 9.55266 39.64 9.43 39.9001 9.19107 40.2999 9.19107 40.56 9.43 40.6838 9.55076 40.7525 9.71709 40.75 9.89 40.7471 10.0618 40.6792 10.2262 40.56 10.35 40.4373 10.4709 40.2722 10.5391 40.1 10.54Z" fill="#000005"/><path d="M44.85 12C44.6751 12.0024 44.5076 11.9295 44.39 11.8 44.2697 11.681 44.2013 11.5192 44.2 11.35 44.2009 11.1777 44.2691 11.0127 44.39 10.89 44.6501 10.6511 45.0499 10.6511 45.31 10.89 45.4338 11.0108 45.5025 11.1771 45.5 11.35 45.5024 11.5249 45.4295 11.6924 45.3 11.81 45.1837 11.9343 45.0202 12.0034 44.85 12Z" fill="#000005"/><path d="M47.1 23C46.741 23.0004 46.4497 22.7097 46.4492 22.3508 46.449 22.1779 46.5177 22.0121 46.64 21.89 46.9001 21.6511 47.2999 21.6511 47.56 21.89 47.814 22.1436 47.8144 22.5552 47.5608 22.8092 47.4386 22.9316 47.2728 23.0002 47.1 23Z" fill="#000005"/><path d="M54.6 7C54.4273 7.00132 54.2614 6.9328 54.14 6.81 53.8859 6.55637 53.8856 6.14481 54.1392 5.89076 54.1395 5.89051 54.1397 5.89025 54.14 5.89 54.4001 5.65107 54.7999 5.65107 55.06 5.89 55.1828 6.01142 55.2513 6.17731 55.25 6.35 55.2491 6.52225 55.1809 6.68734 55.06 6.81 54.9386 6.9328 54.7727 7.00132 54.6 7Z" fill="#000005"/><path d="M63.85 6.79C63.491 6.79042 63.1997 6.49975 63.1992 6.14076 63.199 5.96792 63.2677 5.80212 63.39 5.68 63.6501 5.44107 64.0499 5.44107 64.31 5.68 64.564 5.93363 64.5644 6.34519 64.3108 6.59924 64.1886 6.72156 64.0228 6.7902 63.85 6.79Z" fill="#000005"/><path d="M64.85 2.79C64.6777 2.78912 64.5127 2.72093 64.39 2.6 64.2708 2.47619 64.2029 2.31183 64.2 2.14 64.2009 1.96775 64.2691 1.80266 64.39 1.68 64.6501 1.44107 65.0499 1.44107 65.31 1.68 65.4292 1.80381 65.4971 1.96817 65.5 2.14 65.5024 2.308 65.4376 2.47 65.32 2.59 65.1959 2.71611 65.0269 2.78801 64.85 2.79Z" fill="#000005"/><path d="M69.35 18.29C68.991 18.2904 68.6997 17.9997 68.6992 17.6408 68.699 17.4679 68.7677 17.3021 68.89 17.18 69.1482 16.9362 69.5518 16.9362 69.81 17.18 70.064 17.4336 70.0644 17.8452 69.8108 18.0992 69.6886 18.2216 69.5228 18.2902 69.35 18.29Z" fill="#000005"/><path d="M7.85 47.29C7.67731 47.2913 7.51142 47.2228 7.39 47.1 7.27081 46.9762 7.20293 46.8118 7.2 46.64 7.20088 46.4678 7.26906 46.3027 7.39 46.18 7.65013 45.9411 8.04987 45.9411 8.31 46.18 8.43093 46.3027 8.49912 46.4678 8.5 46.64 8.49707 46.8118 8.42919 46.9762 8.31 47.1 8.18858 47.2228 8.02269 47.2913 7.85 47.29Z" fill="#000005"/><path d="M4.85 57C4.67731 57.0013 4.51142 56.9328 4.39 56.81 4.13595 56.5564 4.13561 56.1448 4.38924 55.8908 4.38949 55.8905 4.38975 55.8903 4.39 55.89 4.6482 55.6462 5.0518 55.6462 5.31 55.89 5.56405 56.1436 5.56439 56.5552 5.31076 56.8092 5.31051 56.8095 5.31025 56.8097 5.31 56.81 5.18858 56.9328 5.02269 57.0013 4.85 57Z" fill="#000005"/><path d="M2.1 67.29C1.92775 67.2891 1.76266 67.2209 1.64 67.1 1.52081 66.9762 1.45293 66.8118 1.45 66.64 1.45088 66.4678 1.51907 66.3027 1.64 66.18 1.90013 65.9411 2.29987 65.9411 2.56 66.18 2.68093 66.3027 2.74912 66.4678 2.75 66.64 2.74707 66.8118 2.67919 66.9762 2.56 67.1 2.43734 67.2209 2.27225 67.2891 2.1 67.29Z" fill="#000005"/><path d="M17.6 70C17.4277 69.9991 17.2627 69.9309 17.14 69.81 17.0208 69.6862 16.9529 69.5218 16.95 69.35 16.9509 69.1777 17.0191 69.0127 17.14 68.89 17.4001 68.6511 17.7999 68.6511 18.06 68.89 18.1809 69.0127 18.2491 69.1777 18.25 69.35 18.2471 69.5218 18.1792 69.6862 18.06 69.81 17.9373 69.9309 17.7723 69.9991 17.6 70Z" fill="#000005"/><path d="M19.1 62.54C18.741 62.54 18.45 62.249 18.45 61.89 18.4487 61.7173 18.5172 61.5514 18.64 61.43 18.8982 61.1862 19.3018 61.1862 19.56 61.43 19.6809 61.5527 19.7491 61.7177 19.75 61.89 19.7471 62.0618 19.6792 62.2262 19.56 62.35 19.4373 62.4709 19.2723 62.5391 19.1 62.54Z" fill="#000005"/><path d="M20.85 45.54C20.491 45.54 20.2 45.249 20.2 44.89 20.1987 44.7173 20.2672 44.5514 20.39 44.43 20.6482 44.1862 21.0518 44.1862 21.31 44.43 21.4309 44.5527 21.4991 44.7177 21.5 44.89 21.4971 45.0618 21.4292 45.2262 21.31 45.35 21.1886 45.4728 21.0227 45.5413 20.85 45.54Z" fill="#000005"/><path d="M28.35 51.29C27.991 51.2904 27.6997 50.9997 27.6992 50.6408 27.699 50.4679 27.7677 50.3021 27.89 50.18 28.1482 49.9362 28.5518 49.9362 28.81 50.18 28.9309 50.3027 28.9991 50.4677 29 50.64 28.9971 50.8118 28.9292 50.9762 28.81 51.1 28.6886 51.2228 28.5227 51.2913 28.35 51.29Z" fill="#000005"/><path d="M33.85 60.54C33.491 60.54 33.2 60.249 33.2 59.89 33.1987 59.7173 33.2672 59.5514 33.39 59.43 33.6501 59.1911 34.0499 59.1911 34.31 59.43 34.4338 59.5508 34.5025 59.7171 34.5 59.89 34.5013 60.0627 34.4328 60.2286 34.31 60.35 34.1873 60.4709 34.0222 60.5391 33.85 60.54Z" fill="#000005"/><path d="M34.1 67C33.9273 67.0013 33.7614 66.9328 33.64 66.81 33.3859 66.5564 33.3856 66.1448 33.6392 65.8908 33.6395 65.8905 33.6397 65.8903 33.64 65.89 33.8982 65.6462 34.3018 65.6462 34.56 65.89 34.814 66.1436 34.8144 66.5552 34.5608 66.8092 34.5605 66.8095 34.5603 66.8097 34.56 66.81 34.4373 66.9309 34.2723 66.9991 34.1 67Z" fill="#000005"/><path d="M41.6 55.29C41.241 55.2904 40.9497 54.9997 40.9492 54.6408 40.949 54.4679 41.0177 54.3021 41.14 54.18 41.4001 53.9411 41.7999 53.9411 42.06 54.18 42.314 54.4336 42.3144 54.8452 42.0608 55.0992 41.9386 55.2216 41.7728 55.2902 41.6 55.29Z" fill="#000005"/><path d="M52.1 60C51.741 60.0004 51.4497 59.7097 51.4492 59.3508 51.449 59.1779 51.5177 59.0121 51.64 58.89 51.9001 58.6511 52.2999 58.6511 52.56 58.89 52.814 59.1436 52.8144 59.5552 52.5608 59.8092 52.4386 59.9316 52.2728 60.0002 52.1 60Z" fill="#000005"/><path d="M54.85 65.54C54.6777 65.5391 54.5127 65.4709 54.39 65.35 54.2708 65.2262 54.2029 65.0618 54.2 64.89 54.1987 64.7173 54.2672 64.5514 54.39 64.43 54.6501 64.1911 55.0499 64.1911 55.31 64.43 55.4328 64.5514 55.5013 64.7173 55.5 64.89 55.4971 65.0618 55.4292 65.2262 55.31 65.35 55.1873 65.4709 55.0223 65.5391 54.85 65.54Z" fill="#000005"/><path d="M25.1 24.79C24.9277 24.7891 24.7627 24.7209 24.64 24.6 24.5208 24.4762 24.4529 24.3118 24.45 24.14 24.4509 23.9677 24.5191 23.8027 24.64 23.68 24.9001 23.4411 25.2999 23.4411 25.56 23.68 25.6809 23.8027 25.7491 23.9678 25.75 24.14 25.7471 24.3118 25.6792 24.4762 25.56 24.6 25.4373 24.7209 25.2723 24.7891 25.1 24.79Z" fill="#000005"/><path d="M35.1 23.54C34.9273 23.5413 34.7614 23.4728 34.64 23.35 34.3859 23.0964 34.3856 22.6848 34.6392 22.4308 34.6395 22.4305 34.6397 22.4303 34.64 22.43 34.9001 22.1911 35.2999 22.1911 35.56 22.43 35.814 22.6836 35.8144 23.0952 35.5608 23.3492 35.4386 23.4716 35.2728 23.5402 35.1 23.54Z" fill="#000005"/><path d="M44.85 29.79C44.491 29.7904 44.1997 29.4997 44.1992 29.1408 44.199 28.9679 44.2677 28.8021 44.39 28.68 44.6501 28.4411 45.0499 28.4411 45.31 28.68 45.4338 28.8008 45.5025 28.9671 45.5 29.14 45.5024 29.3149 45.4295 29.4824 45.3 29.6 45.1823 29.7222 45.0197 29.7909 44.85 29.79Z" fill="#000005"/><path d="M51.85 43.29C51.491 43.2904 51.1997 42.9997 51.1992 42.6408 51.199 42.4679 51.2677 42.3021 51.39 42.18 51.6482 41.9362 52.0518 41.9362 52.31 42.18 52.4328 42.3014 52.5013 42.4673 52.5 42.64 52.5 42.999 52.209 43.29 51.85 43.29Z" fill="#000005"/><path d="M66.85 52C66.491 52 66.2 51.709 66.2 51.35 66.1976 51.1751 66.2705 51.0076 66.4 50.89 66.6586 50.6571 67.0514 50.6571 67.31 50.89 67.564 51.1436 67.5644 51.5552 67.3108 51.8092 67.1886 51.9316 67.0228 52.0002 66.85 52Z" fill="#000005"/><path d="M47.1 48C46.741 48.0004 46.4497 47.7097 46.4492 47.3508 46.449 47.1779 46.5177 47.0121 46.64 46.89 46.9001 46.6511 47.2999 46.6511 47.56 46.89 47.814 47.1436 47.8144 47.5552 47.5608 47.8092 47.4386 47.9316 47.2728 48.0002 47.1 48Z" fill="#000005"/><path d="M36.85 44.79C36.6777 44.7891 36.5127 44.7209 36.39 44.6 36.2708 44.4762 36.2029 44.3118 36.2 44.14 36.2009 43.9678 36.2691 43.8027 36.39 43.68 36.6501 43.4411 37.0499 43.4411 37.31 43.68 37.4309 43.8027 37.4991 43.9678 37.5 44.14 37.4971 44.3118 37.4292 44.4762 37.31 44.6 37.1873 44.7209 37.0223 44.7891 36.85 44.79Z" fill="#000005"/><path d="M16.85 28.79C16.491 28.7904 16.1997 28.4997 16.1992 28.1408 16.199 27.9679 16.2677 27.8021 16.39 27.68 16.6501 27.4411 17.0499 27.4411 17.31 27.68 17.5641 27.9336 17.5644 28.3452 17.3108 28.5992 17.3105 28.5995 17.3103 28.5997 17.31 28.6 17.1886 28.7228 17.0227 28.7913 16.85 28.79Z" fill="#000005"/><path d="M11.1 37C10.741 37 10.45 36.709 10.45 36.35 10.4487 36.1773 10.5172 36.0114 10.64 35.89 10.8982 35.6462 11.3018 35.6462 11.56 35.89 11.8141 36.1436 11.8144 36.5552 11.5608 36.8092 11.4386 36.9316 11.2728 37.0002 11.1 37Z" fill="#000005"/><path d="M67.35 31C67.1777 30.9991 67.0127 30.9309 66.89 30.81 66.7708 30.6862 66.7029 30.5218 66.7 30.35 66.7009 30.1777 66.7691 30.0127 66.89 29.89 67.1501 29.6511 67.5499 29.6511 67.81 29.89 67.9328 30.0114 68.0013 30.1773 68 30.35 68 30.709 67.709 31 67.35 31Z" fill="#000005"/><path d="M7.1 16C6.92508 16.0024 6.75756 15.9295 6.64 15.8 6.51776 15.6823 6.44909 15.5197 6.45 15.35 6.45088 15.1777 6.51906 15.0127 6.64 14.89 6.8982 14.6462 7.3018 14.6462 7.56 14.89 7.81405 15.1436 7.81439 15.5552 7.56076 15.8092 7.56051 15.8095 7.56025 15.8097 7.56 15.81 7.43858 15.9328 7.27269 16.0013 7.1 16Z" fill="#000005"/><path d="M8.35 5.54C8.17817 5.53707 8.01381 5.46919 7.89 5.35 7.76907 5.22734 7.70088 5.06225 7.7 4.89 7.69868 4.71731 7.7672 4.55142 7.89 4.43 8.1482 4.18618 8.5518 4.18618 8.81 4.43 8.9328 4.55142 9.00132 4.71731 9 4.89 9 5.24898 8.70899 5.54 8.35 5.54Z" fill="#000005"/><path d="M3.35 2.79C3.17775 2.78912 3.01266 2.72093 2.89 2.6 2.77081 2.47619 2.70293 2.31183 2.7 2.14 2.70088 1.96775 2.76906 1.80266 2.89 1.68 3.15013 1.44107 3.54987 1.44107 3.81 1.68 3.93093 1.80266 3.99912 1.96775 4 2.14 3.99707 2.31183 3.92919 2.47619 3.81 2.6 3.68734 2.72093 3.52225 2.78912 3.35 2.79Z" fill="#000005"/><path d="M66.35 37.54C65.991 37.5404 65.6997 37.2497 65.6992 36.8908 65.699 36.7179 65.7677 36.5521 65.89 36.43 66.1501 36.1911 66.5499 36.1911 66.81 36.43 66.9328 36.5514 67.0013 36.7173 67 36.89 66.9991 37.0623 66.9309 37.2273 66.81 37.35 66.6886 37.4728 66.5227 37.5413 66.35 37.54Z" fill="#000005"/><path d="M43.85 63.29C43.6777 63.2891 43.5127 63.2209 43.39 63.1 43.2708 62.9762 43.2029 62.8118 43.2 62.64 43.2009 62.4678 43.2691 62.3027 43.39 62.18 43.6482 61.9362 44.0518 61.9362 44.31 62.18 44.4309 62.3027 44.4991 62.4678 44.5 62.64 44.4971 62.8118 44.4292 62.9762 44.31 63.1 44.1873 63.2209 44.0223 63.2891 43.85 63.29Z" fill="#000005"/><path d="M25.6 70.29C25.4277 70.2891 25.2627 70.2209 25.14 70.1 25.0208 69.9762 24.9529 69.8118 24.95 69.64 24.9509 69.4678 25.0191 69.3027 25.14 69.18 25.3982 68.9362 25.8018 68.9362 26.06 69.18 26.1809 69.3027 26.2491 69.4678 26.25 69.64 26.2471 69.8118 26.1792 69.9762 26.06 70.1 25.9373 70.2209 25.7723 70.2891 25.6 70.29Z" fill="#000005"/><path d="M21.85 42C21.6777 41.9991 21.5127 41.9309 21.39 41.81 21.136 41.5564 21.1356 41.1448 21.3892 40.8908 21.3895 40.8905 21.3897 40.8903 21.39 40.89 21.6501 40.6511 22.0499 40.6511 22.31 40.89 22.5641 41.1436 22.5644 41.5552 22.3108 41.8092 22.1886 41.9316 22.0228 42.0002 21.85 42Z" fill="#000005"/><path d="M23.85 29.29C23.6777 29.2891 23.5127 29.2209 23.39 29.1 23.2708 28.9762 23.2029 28.8118 23.2 28.64 23.2009 28.4677 23.2691 28.3027 23.39 28.18 23.6482 27.9362 24.0518 27.9362 24.31 28.18 24.4328 28.3014 24.5013 28.4673 24.5 28.64 24.5 28.999 24.209 29.29 23.85 29.29Z" fill="#000005"/><path d="M41.35 34.79C40.991 34.7904 40.6997 34.4997 40.6992 34.1408 40.699 33.9679 40.7677 33.8021 40.89 33.68 41.1501 33.4411 41.5499 33.4411 41.81 33.68 41.9309 33.8027 41.9991 33.9677 42 34.14 41.9971 34.3118 41.9292 34.4762 41.81 34.6 41.6873 34.7209 41.5223 34.7891 41.35 34.79Z" fill="#000005"/><path d="M67.35 44C67.1777 43.9991 67.0127 43.9309 66.89 43.81 66.7708 43.6862 66.7029 43.5218 66.7 43.35 66.7009 43.1777 66.7691 43.0127 66.89 42.89 67.1501 42.6511 67.5499 42.6511 67.81 42.89 67.9328 43.0114 68.0013 43.1773 68 43.35 68 43.709 67.709 44 67.35 44Z" fill="#000005"/><path d="M53.1 15.29C52.741 15.2904 52.4497 14.9997 52.4492 14.6408 52.449 14.4679 52.5177 14.3021 52.64 14.18 52.9001 13.9411 53.2999 13.9411 53.56 14.18 53.6809 14.3027 53.7491 14.4677 53.75 14.64 53.7471 14.8118 53.6792 14.9762 53.56 15.1 53.4373 15.2209 53.2723 15.2891 53.1 15.29Z" fill="#000005"/><path d="M33.85 16.29C33.6777 16.2891 33.5127 16.2209 33.39 16.1 33.2708 15.9762 33.2029 15.8118 33.2 15.64 33.1987 15.4673 33.2672 15.3014 33.39 15.18 33.6501 14.9411 34.0499 14.9411 34.31 15.18 34.4328 15.3014 34.5013 15.4673 34.5 15.64 34.5 15.999 34.209 16.29 33.85 16.29Z" fill="#000005"/><path d="M12.6 19.54C12.241 19.5404 11.9497 19.2497 11.9492 18.8908 11.949 18.7179 12.0177 18.5521 12.14 18.43 12.3982 18.1862 12.8018 18.1862 13.06 18.43 13.3141 18.6836 13.3144 19.0952 13.0608 19.3492 12.9386 19.4716 12.7728 19.5402 12.6 19.54Z" fill="#000005"/><path d="M49.35 4.79C48.991 4.79042 48.6997 4.49975 48.6992 4.14076 48.699 3.96792 48.7677 3.80212 48.89 3.68 49.1501 3.44107 49.5499 3.44107 49.81 3.68 50.064 3.93363 50.0644 4.34519 49.8108 4.59924 49.6886 4.72156 49.5228 4.7902 49.35 4.79Z" fill="#000005"/><path d="M58.85 21C58.491 21.0004 58.1997 20.7097 58.1992 20.3508 58.199 20.1779 58.2677 20.0121 58.39 19.89 58.6501 19.6511 59.0499 19.6511 59.31 19.89 59.4328 20.0114 59.5013 20.1773 59.5 20.35 59.5 20.709 59.209 21 58.85 21Z" fill="#000005"/><path d="M67.35 57.54C67.1777 57.5391 67.0127 57.4709 66.89 57.35 66.7708 57.2262 66.7029 57.0618 66.7 56.89 66.7009 56.7178 66.7691 56.5527 66.89 56.43 67.1501 56.1911 67.5499 56.1911 67.81 56.43 67.9328 56.5514 68.0013 56.7173 68 56.89 68 57.249 67.709 57.54 67.35 57.54Z" fill="#000005"/><path d="M5.1 70C4.92731 70.0013 4.76142 69.9328 4.64 69.81 4.38595 69.5564 4.38561 69.1448 4.63924 68.8908 4.63949 68.8905 4.63975 68.8903 4.64 68.89 4.8982 68.6462 5.3018 68.6462 5.56 68.89 5.81405 69.1436 5.81439 69.5552 5.56076 69.8092 5.56051 69.8095 5.56025 69.8097 5.56 69.81 5.43858 69.9328 5.27269 70.0013 5.1 70Z" fill="#000005"/><path d="M2.6 13.54C2.42508 13.5424 2.25756 13.4695 2.14 13.34 2.03592 13.2143 1.98562 13.0526 2 12.89 2.00088 12.7177 2.06907 12.5527 2.19 12.43 2.4482 12.1862 2.8518 12.1862 3.11 12.43 3.36405 12.6836 3.36439 13.0952 3.11076 13.3492 3.11051 13.3495 3.11025 13.3497 3.11 13.35 2.97674 13.4861 2.7898 13.5557 2.6 13.54Z" fill="#000005"/><path d="M16.35 3.54C15.991 3.54042 15.6997 3.24975 15.6992 2.89076 15.699 2.71792 15.7677 2.55212 15.89 2.43 16.1501 2.19107 16.5499 2.19107 16.81 2.43 17.0641 2.68363 17.0644 3.09519 16.8108 3.34924 16.6886 3.47156 16.5228 3.5402 16.35 3.54Z" fill="#000005"/><path d="M40.35 4.79C39.991 4.79042 39.6997 4.49975 39.6992 4.14076 39.699 3.96792 39.7677 3.80212 39.89 3.68 40.1501 3.44107 40.5499 3.44107 40.81 3.68 40.9328 3.80142 41.0013 3.96731 41 4.14 41 4.49898 40.709 4.79 40.35 4.79Z" fill="#000005"/><path d="M2.6 32.29C2.42731 32.2913 2.26142 32.2228 2.14 32.1 1.88595 31.8464 1.88561 31.4348 2.13924 31.1808 2.13949 31.1805 2.13975 31.1803 2.14 31.18 2.40013 30.9411 2.79987 30.9411 3.06 31.18 3.31405 31.4336 3.31439 31.8452 3.06076 32.0992 2.93865 32.2216 2.77284 32.2902 2.6 32.29Z" fill="#000005"/><path d="M7.35 25.29C7.17731 25.2913 7.01142 25.2228 6.89 25.1 6.63595 24.8464 6.63561 24.4348 6.88924 24.1808 6.88949 24.1805 6.88975 24.1803 6.89 24.18 7.15013 23.9411 7.54987 23.9411 7.81 24.18 7.9328 24.3014 8.00132 24.4673 8 24.64 7.99912 24.8123 7.93093 24.9773 7.81 25.1 7.68858 25.2228 7.52269 25.2913 7.35 25.29Z" fill="#000005"/><path d="M3.85 47C3.67775 46.9991 3.51266 46.9309 3.39 46.81 3.27081 46.6862 3.20293 46.5218 3.2 46.35 3.20088 46.1777 3.26906 46.0127 3.39 45.89 3.6482 45.6462 4.0518 45.6462 4.31 45.89 4.43093 46.0127 4.49912 46.1777 4.5 46.35 4.49707 46.5218 4.42919 46.6862 4.31 46.81 4.18858 46.9328 4.02269 47.0013 3.85 47Z" fill="#000005"/><path d="M10.85 50.79C10.6777 50.7891 10.5127 50.7209 10.39 50.6 10.2708 50.4762 10.2029 50.3118 10.2 50.14 10.1987 49.9673 10.2672 49.8014 10.39 49.68 10.6501 49.4411 11.0499 49.4411 11.31 49.68 11.4309 49.8027 11.4991 49.9678 11.5 50.14 11.4971 50.3118 11.4292 50.4762 11.31 50.6 11.1873 50.7209 11.0223 50.7891 10.85 50.79Z" fill="#000005"/><path d="M9.85 60C9.67731 60.0013 9.51142 59.9328 9.39 59.81 9.13595 59.5564 9.13561 59.1448 9.38924 58.8908 9.38949 58.8905 9.38975 58.8903 9.39 58.89 9.65013 58.6511 10.0499 58.6511 10.31 58.89 10.5641 59.1436 10.5644 59.5552 10.3108 59.8092 10.3105 59.8095 10.3103 59.8097 10.31 59.81 10.1886 59.9328 10.0227 60.0013 9.85 60Z" fill="#000005"/><path d="M13.35 66C13.1777 65.9991 13.0127 65.9309 12.89 65.81 12.7708 65.6862 12.7029 65.5218 12.7 65.35 12.6987 65.1773 12.7672 65.0114 12.89 64.89 13.1482 64.6462 13.5518 64.6462 13.81 64.89 13.9309 65.0127 13.9991 65.1777 14 65.35 13.9971 65.5218 13.9292 65.6862 13.81 65.81 13.6873 65.9309 13.5223 65.9991 13.35 66Z" fill="#000005"/><path d="M21.85 53.54C21.6777 53.5391 21.5127 53.4709 21.39 53.35 21.2672 53.2286 21.1987 53.0627 21.2 52.89 21.1963 52.7148 21.2694 52.5468 21.4 52.43 21.659 52.1814 22.0705 52.1899 22.319 52.4489 22.4331 52.5677 22.4977 52.7254 22.5 52.89 22.4971 53.0618 22.4292 53.2262 22.31 53.35 22.1873 53.4709 22.0223 53.5391 21.85 53.54Z" fill="#000005"/><path d="M31.1 37.79C30.9277 37.7891 30.7627 37.7209 30.64 37.6 30.5208 37.4762 30.4529 37.3118 30.45 37.14 30.4509 36.9678 30.5191 36.8027 30.64 36.68 30.9001 36.4411 31.2999 36.4411 31.56 36.68 31.6809 36.8027 31.7491 36.9678 31.75 37.14 31.7471 37.3118 31.6792 37.4762 31.56 37.6 31.4373 37.7209 31.2723 37.7891 31.1 37.79Z" fill="#000005"/><path d="M25.85 34.29C25.491 34.2904 25.1997 33.9997 25.1992 33.6408 25.199 33.4679 25.2677 33.3021 25.39 33.18 25.6482 32.9362 26.0518 32.9362 26.31 33.18 26.5641 33.4336 26.5644 33.8452 26.3108 34.0992 26.1886 34.2216 26.0228 34.2902 25.85 34.29Z" fill="#000005"/><path d="M37.1 28.79C36.9277 28.7891 36.7627 28.7209 36.64 28.6 36.5208 28.4762 36.4529 28.3118 36.45 28.14 36.4509 27.9677 36.5191 27.8027 36.64 27.68 36.9001 27.4411 37.2999 27.4411 37.56 27.68 37.6809 27.8027 37.7491 27.9678 37.75 28.14 37.7471 28.3118 37.6792 28.4762 37.56 28.6 37.4373 28.7209 37.2723 28.7891 37.1 28.79Z" fill="#000005"/><path d="M61.6 16.79C61.4277 16.7891 61.2627 16.7209 61.14 16.6 61.0208 16.4762 60.9529 16.3118 60.95 16.14 60.9509 15.9677 61.0191 15.8027 61.14 15.68 61.4001 15.4411 61.7999 15.4411 62.06 15.68 62.1828 15.8014 62.2513 15.9673 62.25 16.14 62.25 16.499 61.959 16.79 61.6 16.79Z" fill="#000005"/><path d="M61.1 27.29C60.9273 27.2913 60.7614 27.2228 60.64 27.1 60.5208 26.9762 60.4529 26.8118 60.45 26.64 60.4509 26.4677 60.5191 26.3027 60.64 26.18 60.9001 25.9411 61.2999 25.9411 61.56 26.18 61.814 26.4336 61.8144 26.8452 61.5608 27.0992 61.5605 27.0995 61.5603 27.0997 61.56 27.1 61.4386 27.2228 61.2727 27.2913 61.1 27.29Z" fill="#000005"/><path d="M58.6 57.29C58.4277 57.2891 58.2627 57.2209 58.14 57.1 58.0208 56.9762 57.9529 56.8118 57.95 56.64 57.9509 56.4678 58.0191 56.3027 58.14 56.18 58.4001 55.9411 58.7999 55.9411 59.06 56.18 59.1809 56.3027 59.2491 56.4678 59.25 56.64 59.2471 56.8118 59.1792 56.9762 59.06 57.1 58.9373 57.2209 58.7723 57.2891 58.6 57.29Z" fill="#000005"/><path d="M59.1 44.54C58.9273 44.5413 58.7614 44.4728 58.64 44.35 58.3859 44.0964 58.3856 43.6848 58.6392 43.4308 58.6395 43.4305 58.6397 43.4303 58.64 43.43 58.9001 43.1911 59.2999 43.1911 59.56 43.43 59.814 43.6836 59.8144 44.0952 59.5608 44.3492 59.5605 44.3495 59.5603 44.3497 59.56 44.35 59.4386 44.4728 59.2727 44.5413 59.1 44.54Z" fill="#000005"/><path d="M55.6 35.79C55.4277 35.7891 55.2627 35.7209 55.14 35.6 55.0208 35.4762 54.9529 35.3118 54.95 35.14 54.9509 34.9678 55.0191 34.8027 55.14 34.68 55.4001 34.4411 55.7999 34.4411 56.06 34.68 56.1809 34.8027 56.2491 34.9678 56.25 35.14 56.2471 35.3118 56.1792 35.4762 56.06 35.6 55.9373 35.7209 55.7723 35.7891 55.6 35.79Z" fill="#000005"/><path d="M69.1 70.79C68.9282 70.7871 68.7638 70.7192 68.64 70.6 68.3859 70.3464 68.3856 69.9348 68.6392 69.6808 68.6395 69.6805 68.6397 69.6803 68.64 69.68 68.9019 69.4457 69.2981 69.4457 69.56 69.68 69.814 69.9336 69.8144 70.3452 69.5608 70.5992 69.4386 70.7216 69.2728 70.7902 69.1 70.79Z" fill="#000005"/><path d="M60.6 66C60.241 66.0004 59.9497 65.7097 59.9492 65.3508 59.949 65.1779 60.0177 65.0121 60.14 64.89 60.3982 64.6462 60.8018 64.6462 61.06 64.89 61.1828 65.0114 61.2513 65.1773 61.25 65.35 61.25 65.709 60.959 66 60.6 66Z" fill="#000005"/><path d="M44.35 71.54C43.991 71.5404 43.6997 71.2497 43.6992 70.8908 43.699 70.7179 43.7677 70.5521 43.89 70.43 44.1501 70.1911 44.5499 70.1911 44.81 70.43 45.064 70.6836 45.0644 71.0952 44.8108 71.3492 44.6886 71.4716 44.5228 71.5402 44.35 71.54Z" fill="#000005"/><path d="M24.35 1.29C23.991 1.29 23.7 0.998985 23.7 0.64 23.6987 0.467312 23.7672 0.301419 23.89 0.18 24.1482-0.0638207 24.5518-0.0638207 24.81 0.18 24.9309 0.302664 24.9991 0.467747 25 0.64 24.9971 0.811834 24.9292 0.976186 24.81 1.1 24.6886 1.2228 24.5227 1.29132 24.35 1.29Z" fill="#000005"/></pattern></defs><g><g id="Capa_1"><path d="M1992.67 1165.27C1904.96 1144.48 1817.05 1186.87 1776.67 1262.97L1734.21 1252.9 1780 1358.34 1868.23 1284.67 1834.31 1276.67C1876.93 1213.92 1962.36 1197.61 2025.1 1240.23 2030.08 1243.61 2034.82 1247.31 2039.31 1251.31 2051.31 1236.97 2064.02 1223.31 2077.15 1210L2077.28 1209.45C2053.22 1187.87 2024.13 1172.68 1992.67 1165.27Z" fill="#F1C059" transform="translate(-1734.24 -1160)"/><path d="M1950.3 1643.56C2038.02 1664.35 2125.93 1621.96 2166.3 1545.86L2208.76 1555.93 2163 1450.49 2074.77 1524.16 2108.69 1532.16C2066.05 1594.9 1980.63 1611.19 1917.89 1568.55 1912.94 1565.19 1908.21 1561.5 1903.74 1557.52 1891.74 1571.86 1879.03 1585.52 1865.9 1598.83L1865.77 1599.38C1889.81 1620.95 1918.87 1636.14 1950.3 1643.56Z" fill="#F1C059" transform="translate(-1734.24 -1160)"/><path d="M1992.67 1165.27C1904.96 1144.48 1817.05 1186.87 1776.67 1262.97L1734.21 1252.9 1780 1358.34 1868.23 1284.67 1834.31 1276.67C1876.93 1213.92 1962.36 1197.61 2025.1 1240.23 2030.08 1243.61 2034.82 1247.31 2039.31 1251.31 2051.31 1236.97 2064.02 1223.31 2077.15 1210L2077.28 1209.45C2053.22 1187.87 2024.13 1172.68 1992.67 1165.27Z" fill="url(#Unnamed_Pattern_3)" opacity="0.5" transform="translate(-1734.24 -1160)"/><path d="M1950.3 1643.56C2038.02 1664.35 2125.93 1621.96 2166.3 1545.86L2208.76 1555.93 2163 1450.49 2074.77 1524.16 2108.69 1532.16C2066.05 1594.9 1980.63 1611.19 1917.89 1568.55 1912.94 1565.19 1908.21 1561.5 1903.74 1557.52 1891.74 1571.86 1879.03 1585.52 1865.9 1598.83L1865.77 1599.38C1889.81 1620.95 1918.87 1636.14 1950.3 1643.56Z" fill="url(#Unnamed_Pattern_3)" opacity="0.5" transform="translate(-1734.24 -1160)"/></g></g></svg>