<svg viewBox="0 0 582.05 584.57" xmlns="http://www.w3.org/2000/svg" xmlns:xlink="http://www.w3.org/1999/xlink" id="Capa_1" overflow="hidden"><defs></defs><path d="M-1786.42-978.18C-1797.91-1104.84-1905.09-1216.18-2031.31-1233.07-2039.86-1234.21-2049.08-1232.76-2056.99-1237.78L-2095.99-1237.78C-2111.17-1231.78-2127.6-1232.15-2143.27-1228.22-2279.27-1194.07-2370.15-1074.64-2366.19-934.41-2362.29-796.53-2254.14-676.17-2117.92-657.8-2111.43-656.93-2104.27-657.87-2098.59-653.21L-2057-653.21C-2044.26-658.31-2030.49-657.74-2017.28-660.37-1900.9-683.53-1808.64-778.26-1788.95-895.18-1788.08-900.32-1788.95-906.35-1784.23-910.42L-1784.23-978C-1784.93-978.247-1785.69-978.309-1786.42-978.18ZM-2005.42-929.61C-1975.11-899.94-1945.67-869.37-1915.42-839.61-1908.57-832.87-1908.29-828.8-1915.42-822.2-1929.67-808.94-1943.42-795.09-1956.73-780.91-1962.86-774.39-1966.73-774.33-1973.19-780.8-2003.94-811.87-2035.19-842.47-2066.27-873.22-2068.68-875.6-2071.27-877.81-2074.01-880.32-2076.88-877.61-2079.42-875.32-2081.87-872.89-2112.62-842.42-2143.54-812.12-2173.96-781.33-2180.6-774.6-2184.73-774-2191.41-781.23-2204.32-795.23-2217.86-808.66-2231.8-821.63-2239.04-828.37-2239.34-832.81-2232.03-839.99-2201.16-870.34-2171.09-901.49-2140.19-931.81-2133.55-938.32-2134.08-941.46-2140.41-947.7-2171.24-978.08-2201.34-1009.21-2232.1-1039.7-2238.61-1046.15-2239.99-1050.38-2232.6-1057.24-2218.33-1070.48-2204.47-1084.24-2191.26-1098.52-2184.39-1105.95-2180.37-1104.63-2173.89-1098.07-2143.49-1067.25-2112.3-1037.21-2082.09-1006.21-2075.01-998.94-2071.8-1000.07-2065.4-1006.58-2035.05-1037.45-2003.86-1067.49-1973.62-1098.46-1966.47-1105.77-1962.46-1104.74-1956.22-1098.16-1942.5-1083.74-1928.44-1069.65-1914.03-1055.88-1908.29-1050.37-1908.55-1046.88-1914.19-1041.32-1944.9-1010.83-1974.8-979.49-2005.92-949.42-2014.6-941-2013-937.08-2005.39-929.61Z" fill="#FE0101" transform="translate(2366.27 1237.78)"/></svg>