<svg viewBox="0 0 448.06 448.17" xmlns="http://www.w3.org/2000/svg" xmlns:xlink="http://www.w3.org/1999/xlink" id="Capa_1" overflow="hidden"><defs></defs><path d="M-663-920C-662.24-796.4-764.88-693.17-892.2-696-1013.08-698.65-1114.12-799.41-1110.98-926-1107.98-1046.58-1007.26-1147.31-880.7-1144-760.5-1140.84-662.48-1041.62-663-920ZM-919.2-824C-910.41-824.17-902.71-827-896.56-833.17-853.753-875.87-811.007-918.63-768.32-961.45-759.09-970.73-756.6-982.19-760.88-994.65-768.69-1017.42-797.05-1023.3-814.58-1005.82-848.193-972.273-881.737-938.667-915.21-905-918.46-901.72-919.97-902.15-922.89-905.15-935.09-917.683-947.44-930.067-959.94-942.3-973.03-955.19-993.15-955.3-1005.72-942.64-1018.21-930.137-1018.2-909.875-1005.7-897.385-1005.64-897.333-1005.59-897.282-1005.54-897.23-984.353-875.79-963.04-854.457-941.6-833.23-935.632-827.336-927.588-824.022-919.2-824Z" fill="#3BE13B" transform="translate(1111.11 1144.08)"/></svg>