<svg viewBox="0 0 1523.4 514.57" xmlns="http://www.w3.org/2000/svg" xmlns:xlink="http://www.w3.org/1999/xlink" id="Capa_1" overflow="hidden"><defs></defs><path d="M3473.6-3636.52 4896-3636.67C4951.78-3636.67 4997-3681.89 4997-3737.67L4997-4151.06 3473.6-4151.06Z" fill="#00548A" transform="translate(-3473.6 4151.09)"/><path d="M4281.07-3865.54 4249.85-3964.08 4219.28-3865.54ZM4279.39-3996.62 4349.9-3788.25 4305.59-3788.25 4291.48-3831.43 4208.54-3831.43 4194.1-3788.25 4149.77-3788.25 4214.9-3980.71C4218.13-3990.22 4227.05-3996.62 4237.09-3996.62Z" fill="#FFFFFF" transform="translate(-3473.6 4151.09)"/><path d="M4480.59-3841.13C4480.59-3825.8 4472.53-3820.79 4453.38-3820.79L4410.06-3820.79 4410.06-3877.73 4457.06-3877.73C4473.85-3877.73 4480.57-3870.85 4480.57-3856.73ZM4410.06-3964.08 4450.7-3964.08C4466.15-3964.08 4472.87-3958.76 4472.87-3947.19L4472.87-3928.73C4472.87-3916.53 4466.82-3909.33 4450.36-3909.33L4410.06-3909.33ZM4490.31-3896.82C4507.44-3903.7 4515.17-3913.4 4515.17-3930.61L4515.17-3952.19C4515.17-3980.35 4498.04-3996.63 4455.74-3996.63L4367.74-3996.63 4367.74-3788.26 4461.74-3788.26C4502.37-3788.26 4522.85-3806.72 4522.85-3836.12L4522.85-3858.33C4522.85-3878.66 4510.77-3892.76 4490.27-3896.82" fill="#FFFFFF" transform="translate(-3473.6 4151.09)"/><path d="M4072.73-3967.29 4133.53-3967.29 4133.53-3982.4C4133.53-3993.81 4124.28-4003.06 4112.87-4003.06L4072.73-4003.06C4018.4-4002.54 3995.06-3980.43 3995.06-3942.72L3995.06-3848.87C3995.06-3811.14 4018.4-3789.04 4072.73-3788.53L4072.73-3788.37 4131.21-3788.37 4131.21-3803.53C4131.22-3814.91 4121.99-3824.14 4110.61-3824.15L4072.73-3824.15 4072.73-3824.29C4046.21-3825.02 4037.35-3834.43 4037.35-3855.75L4037.35-3935.84C4037.35-3957.16 4046.21-3966.55 4072.73-3967.29" fill="#FFFFFF" transform="translate(-3473.6 4151.09)"/><path d="M4789.68-3823 4789.68-3999.73 4770.8-3999.73C4757.86-3999.72 4747.38-3989.24 4747.37-3976.3L4747.37-3788.3 4881.67-3788.3 4881.67-3823Z" fill="#FFFFFF" transform="translate(-3473.6 4151.09)"/><path d="M4663.56-3865.54 4632.33-3964.08 4601.77-3865.54ZM4661.87-3996.62 4732.39-3788.25 4688.07-3788.25 4673.97-3831.43 4591-3831.43 4576.55-3788.25 4532.23-3788.25 4595.37-3974.84C4599.79-3987.86 4612-3996.62 4625.75-3996.62Z" fill="#FFFFFF" transform="translate(-3473.6 4151.09)"/><path d="M3765.14-4061 3919.66-3909.25C3928.18-3900.88 3928.3-3887.19 3919.94-3878.68 3919.84-3878.58 3919.75-3878.49 3919.66-3878.4L3765.19-3726.68 3765.19-3811.5 3837.74-3883.1C3843.67-3888.97 3843.72-3898.53 3837.86-3904.45 3837.82-3904.49 3837.78-3904.53 3837.74-3904.57L3765.11-3976.4Z" fill="#FFFFFF" transform="translate(-3473.6 4151.09)"/><path d="M3736.63-4061 3582.11-3909.25C3573.59-3900.88 3573.47-3887.19 3581.83-3878.68 3581.93-3878.58 3582.02-3878.49 3582.11-3878.4L3736.56-3726.68 3736.56-3811.5 3664.02-3883.1C3658.09-3888.96 3658.03-3898.51 3663.89-3904.44 3663.93-3904.48 3663.98-3904.53 3664.02-3904.57L3736.65-3976.4Z" fill="#FFFFFF" transform="translate(-3473.6 4151.09)"/></svg>