<svg viewBox="0 0 2181.73 1365.92" xmlns="http://www.w3.org/2000/svg" xmlns:xlink="http://www.w3.org/1999/xlink" id="Capa_1" overflow="hidden"><defs></defs><path d="M-468.94-4719.84 116.75-4719.84C116.91-4715.1 121.13-4716.37 123.56-4715.67 143.16-4710.04 160.37-4700.48 173.76-4684.91 199.88-4654.54 204.61-4619.26 195.89-4581.54 167.163-4457.22 138.273-4332.94 109.22-4208.7 54.2933-3972.9-0.72-3737.12-55.82-3501.35-74.47-3422.15-125.55-3374.71-204.82-3357.17-206.68-3356.76-209.82-3357.73-209.44-3353.91L-790-3353.91C-790.63-3358.03-794.16-3357.11-796.7-3357.62-819.04-3362.11-838.87-3371.85-854.17-3388.68-878.66-3415.62-884.88-3448.27-879.06-3483.18-875.29-3505.79-869.27-3528.03-864.2-3550.43-857.7-3579.18-851.167-3607.92-844.6-3636.66-833.84-3636.78-823.07-3636.94-812.3-3637-809.08-3637-806.41-3636.94-805.24-3641.17-801.24-3655.59-796.88-3669.89-792.45-3684.91L-832.82-3681.91C-832.34-3684.7-831.98-3687.51-831.35-3690.26-823.863-3723.12-816.35-3755.98-808.81-3788.84-805.41-3788.95-802-3789.14-798.6-3789.15-764.18-3789.29-729.74-3788.92-695.34-3789.7-672.95-3790.22-655.48-3800.35-645.41-3821.06-641.461-3828.91-638.117-3837.06-635.41-3845.42-624.18-3881.76-613.49-3918.26-602.3-3954.61-600.41-3960.73-602.3-3961.52-607.84-3961.43-633.15-3960.97-658.46-3960.78-683.78-3960.65-715.16-3960.48-744.78-3954.83-769.95-3934.29-770.953-3933.66-772.015-3933.13-773.12-3932.7-773.47-3938.2-770.68-3942.47-770.05-3947.14-769.42-3951.81-764.92-3956.22-767.9-3961.55-767.45-3964.34-767.16-3967.17-766.52-3969.92-760.747-3994.8-754.933-4019.68-749.08-4044.55-741.72-4044.64-734.28-4045.42-727.01-4044.64-718.69-4043.73-716.01-4047.48-715.01-4054.87-713.86-4063.87-712.19-4072.78-710.36-4081.66-703.13-4116.89-695.36-4152.02-688.57-4187.34-685.11-4205.34-687.94-4221.9-704.75-4233.13-690.05-4296.78-675.35-4360.42-660.65-4424.07-649.52-4472.23-637.88-4520.27-627.31-4568.55-612.31-4637.03-571.89-4683.44-507.56-4709.97-495.07-4715.11-481.75-4716.37-468.94-4719.84ZM-273.38-3744.6C-266.98-3755.22-260.78-3761.6-248.02-3760.6-229.62-3759.23-211.02-3760.22-192.55-3760.28-189.65-3760.28-186.49-3759.28-185.23-3763.9-182.23-3775.06-178.55-3786.07-174.93-3797.9L-244.07-3797.9C-241.07-3807.54-237.87-3816.31-235.65-3825.33-234.3-3830.84-231.79-3832.43-226.27-3832.33-207.78-3831.99-189.27-3832.2-170.78-3832.2-167.39-3832.2-164.27-3831.7-162.97-3836.53-159.57-3849.1-155.55-3861.53-151.55-3874.75L-215.42-3874.75C-260.38-3874.75-305.343-3874.73-350.31-3874.68-353.31-3874.68-357.06-3876.4-358.48-3871.2-362-3858.37-366-3845.68-370-3832L-296.11-3832C-299.11-3822.23-302.23-3813.41-304.52-3804.38-305.8-3799.38-307.94-3797.6-313.24-3797.73-328.88-3798.11-344.54-3797.98-360.24-3797.81-367.3-3797.74-376.09-3800.68-380.94-3796.62-385.34-3792.93-385.6-3784.24-387.57-3777.73-392.88-3760.24-392.86-3760.23-374.57-3760.23L-327.39-3760.23C-342.61-3738.76-357.69-3719.5-370.5-3698.82-382.06-3680.17-397.84-3675.62-418.12-3678.89-417.74-3680.82-417.49-3682.77-416.96-3684.65-413.76-3695.88-413.72-3696.14-425.7-3696.65-430.52-3696.85-430.7-3698.71-429.58-3702.37-427.28-3709.69-425.09-3717.03-422.86-3724.37-404.193-3786.05-385.527-3847.74-366.86-3909.43-365.76-3913.06-365.19-3917.21-360.03-3916.13-346.03-3913.19-339.03-3919.33-337.5-3932.98-337.4-3933.91-336.88-3934.36-335.44-3933.28-335.44-3929.11-335.2-3924.56-335.44-3920.03-336.9-3896.13-323.37-3887.56-301.96-3886.7-287.76-3886.12-273.51-3886.6-259.28-3886.7-257.21-3886.7-254.64-3885.81-253.68-3889.04-249.77-3902.17-245.77-3915.28-241.74-3928.63-266.52-3930.21-266.74-3930.2-267.2-3954.22-267.31-3960.29-269.6-3961.06-274.7-3961.08-320.81-3961.28-366.88-3960.43-412.94-3958.14-432.03-3957.14-450.12-3953.46-466.15-3942.42-467.4-3941.56-468.66-3940.26-470.9-3941.62-469.63-3946.18-468.68-3950.92-466.96-3955.35-465.04-3960.35-466.25-3961.62-471.49-3961.53-487.7-3961.25-503.94-3961.05-520.14-3961.6-527.25-3961.83-530.28-3959.76-532.38-3952.69-557.31-3868.87-582.68-3785.19-607.76-3701.42-609.43-3695.85-611.29-3692.01-617.99-3693.33-622.1-3694.14-623.99-3692.12-625.08-3688.1-627.88-3677.98-630.93-3667.91-634.37-3658-636.37-3652.24-634.82-3651-629.03-3651.07-592.03-3651.3-555.03-3651.19-518.03-3651.19L-508.34-3651.19C-508.95-3648.76-509.11-3647.01-509.81-3645.53-512.89-3639.05-511.27-3636.92-503.86-3637.16-487.94-3637.67-471.99-3637.61-456.06-3637.16-450.4-3637-447.55-3638.78-446.96-3644.16-446.34-3649.75-443.48-3651.96-437.85-3651.24-434.53-3650.81-431.12-3651.16-427.4-3651.16-427.8-3648.68-427.72-3646.87-428.4-3645.4-431.4-3638.91-429.92-3636.49-422.4-3636.83-410.19-3637.37-397.93-3637.28-385.7-3636.91-363.02-3636.22-345.7-3645.55-332.59-3663.76-323.13-3676.93-313.557-3690.01-303.87-3703-302.7-3704.57-302.21-3707.51-298.87-3706.63-297.03-3695.15-295.12-3683.69-293.37-3672.21-289.83-3649.05-278.87-3639.4-255.19-3638.85-246.65-3638.66-238.1-3638.92-229.58-3638.46-224.76-3638.2-222.47-3639.77-221.24-3644.53-218.96-3653.31-216-3661.92-213.35-3670.61-209.23-3684.13-209.24-3684.61-223.35-3684.76-232.67-3684.87-236.16-3688.66-237.07-3697.76-238.46-3711.59-241.49-3725.26-243.32-3739.06-243.92-3743.53-245.67-3744.74-249.84-3744.6-257.16-3744.43-264.55-3744.6-273.38-3744.6ZM-633.3-4043.76-633.3-4043.76C-621.92-4043.76-610.53-4044.05-599.17-4043.63-594.11-4043.45-592.54-4045.04-591.53-4049.97-584.71-4083.06-578.4-4116.27-569.77-4148.97-566.69-4160.65-565.06-4162.03-552.77-4162.14-534-4162.3-515.25-4162.75-496.54-4164.71-420.47-4172.71-369.25-4226.48-365.42-4302.71-363.78-4335.31-380.01-4357.81-411.42-4366.6-431.68-4372.28-452.51-4372.22-473.24-4372.46-511.63-4372.91-550.04-4370.69-588.42-4372.57-595.69-4372.93-598.57-4371.87-600.1-4364.2-612.68-4301.26-627-4238.71-642.58-4176.45-652.99-4134.86-662.65-4093.08-673.05-4051.45-674.77-4044.56-673.05-4043.34-666.58-4043.64-655.51-4044.13-644.39-4043.76-633.3-4043.76ZM-84.54-4142.76C-84.63-4144.41-84.71-4146.05-84.79-4147.7-86.26-4175.24-87.79-4202.77-89.14-4230.31-89.44-4236.55-91.35-4238.58-98.14-4237.19-117.32-4233.25-136.607-4229.83-156-4226.92-163.25-4225.83-164.64-4223.09-163.59-4216.21-154.977-4160.04-147.877-4103.68-142.29-4047.11-141.808-4043.48-142.562-4039.78-144.43-4036.63-163.02-4004.74-181.21-3972.63-200.91-3941.39-206.34-3932.77-212.36-3927.57-222.8-3929.04-227.38-3929.68-229.23-3927.57-230.37-3923.22-232.96-3913.34-235.95-3903.56-239.22-3893.89-240.77-3889.3-239.87-3887.89-234.98-3887.89-223.89-3887.89-212.81-3887.34-201.72-3887.14-177.8-3886.72-160.13-3896.25-147.72-3917.55-126.48-3954.13-106.59-3991.46-85.65-4028.2-47.58-4095-9.09-4161.6 29.14-4228.38 30.53-4230.83 34.14-4233.24 31.76-4236.54 29.38-4239.84 25.92-4237.08 23.11-4236.62 4.33-4233.62-14.36-4229.93-33.18-4227.24-39.66-4226.32-43.18-4223.79-45.58-4217.78-56-4191.63-71.26-4167.92-84.54-4142.74ZM-310.81-4053C-308.62-4048.86-317.81-4040.13-305.65-4040.86-284.33-4042.14-263.01-4041.96-241.65-4041.73-236.24-4041.67-234.09-4043.96-233.31-4049.05-231.54-4060.55-229.48-4072.05-227.31-4083.46-218.31-4131.75-206.31-4179.38-194.95-4227.14-193.44-4233.47-194.04-4235.19-201.14-4233.88-222.36-4229.97-243.68-4226.59-265.04-4223.48-270.63-4222.67-274.81-4221.53-274.19-4213.1-287.48-4230.54-302.76-4237.6-322.5-4233.1-333.864-4230.5-344.761-4226.18-354.81-4220.27-395.52-4196.36-424.03-4136.32-417.08-4089.36-414.63-4072.85-408.34-4058.36-393.2-4050.08-366.53-4035.51-339.59-4031.59-313.34-4051.58-312.532-4052.11-311.687-4052.59-310.81-4053ZM-682.22-3681.9C-695.7-3681.21-708.38-3680.54-721.05-3679.9-728.75-3679.53-732.74-3683.04-732.57-3690.98-732.4-3699.22-732.19-3707.47-732.42-3715.7-732.54-3720.06-731.11-3721.7-726.69-3721.81-716.177-3721.99-705.67-3722.38-695.17-3722.99-672.89-3724.27-659.73-3735.55-654.83-3757.36-653.59-3762.9-653.01-3768.65-651.17-3773.97-648.83-3780.77-651.75-3781.56-657.44-3781.26-664.24-3780.9-671.08-3781.18-677.9-3781.18-695.69-3781.18-695.79-3781.18-701.2-3764.43-703.03-3758.77-705.69-3755.21-712.36-3754.78-730.23-3753.65-730.21-3753.42-729.68-3771.35-729.685-3771.92-729.655-3772.49-729.59-3773.05-728.8-3777.51-730.59-3778.98-735.13-3778.91-750.76-3778.67-766.4-3778.55-782.02-3778.91-787.78-3779.07-788.33-3776.62-788.4-3771.91-788.95-3735.53-789.78-3699.16-790.4-3662.79-790.69-3646.25-785.93-3640.72-769.55-3639.15-746.55-3636.95-723.55-3637.82-700.55-3637.62-696.78-3637.62-695.09-3638.93-694.05-3642.62-690.41-3655.49-686.39-3668.17-682.22-3681.9Z" fill="#007B84" transform="translate(1981.84 4719.84)"/><path d="M-749-4044.55C-754.833-4019.68-760.647-3994.8-766.44-3969.92-767.08-3967.17-767.37-3964.34-767.82-3961.55-784.56-3961.37-801.31-3960.81-818.04-3961.2-824.64-3961.35-827.37-3959.26-829.18-3953.02-838.37-3921.46-848.05-3890.02-857.49-3858.56-876.49-3795.03-895.7-3731.56-914.43-3667.94-919.69-3650.07-912.43-3639.94-893.91-3638.57-877.51-3637.35-861.01-3637.25-844.56-3636.66-851.1-3607.91-857.633-3579.16-864.16-3550.43-869.23-3528.03-875.25-3505.79-879.02-3483.18-884.84-3448.27-878.62-3415.62-854.13-3388.68-838.83-3371.85-819-3362.11-796.66-3357.62-794.12-3357.11-790.59-3358.03-789.96-3353.91L-1320.96-3353.91C-1322.23-3356.03-1324.18-3355.49-1326.06-3355.23L-1390.32-3356.17-1396.17-3357.31C-1438.8-3365.89-1467.17-3390.31-1478.88-3432.63-1484.39-3452.5-1483.5-3472.63-1478.88-3492.63-1455.85-3591.71-1432.8-3690.78-1409.72-3789.85-1379.22-3920.74-1348.69-4051.62-1318.14-4182.5-1310.81-4181.5-1309.14-4175.95-1309.31-4170.03-1309.62-4163.51-1310.38-4157.02-1311.59-4150.6-1317.17-4116.97-1325.59-4083.93-1333.29-4050.77-1334.71-4044.7-1333.29-4043.34-1327.39-4043.61-1308.39-4044.51-1289.32-4045.83-1270.27-4044.71-1263.35-4044.31-1260.65-4046.85-1259.59-4053.44-1254.64-4083.99-1248.06-4114.22-1241.38-4144.44-1237.17-4163.52-1231.38-4182.44-1232.1-4202.31-1232.76-4221.31-1243.62-4233.67-1262.1-4237-1277.44-4239.76-1292.02-4236.25-1306.62-4232.37-1280.5-4344.58-1254.06-4456.72-1228.39-4569.04-1211.69-4642.14-1167.91-4690.04-1097.18-4713.61-1088.38-4716.55-1079.02-4717.83-1069.92-4719.88L-468.86-4719.88C-481.67-4716.41-494.99-4715.15-507.44-4710.01-571.77-4683.48-612.21-4637.07-627.19-4568.59-637.76-4520.31-649.4-4472.27-660.53-4424.11-675.25-4360.47-689.95-4296.82-704.63-4233.17-735.12-4243.67-762.34-4235.95-787.78-4218.25L-787.85-4218.12C-790.73-4222.99-787.27-4227.25-786.34-4231.66-784.97-4238.1-785.82-4240.46-793.34-4239-813.99-4235-834.73-4231.47-855.56-4228.65-862.61-4227.7-864.34-4224.65-865.06-4218.43-866.633-4204.89-868.633-4191.4-871.06-4177.95-878.54-4135.95-888.67-4094.6-898.87-4053.24-901.22-4043.7-901.01-4043.43-891.6-4043.76-872.27-4044.44-852.94-4045.76-833.6-4044.69-828.18-4044.41-826.37-4046.69-825.32-4051.84-817.773-4089.4-810-4126.93-802-4164.43-799.15-4177.9-794.88-4181.57-781.34-4183.43-770.57-4184.89-764.18-4179.27-764.81-4168.43-765.222-4162.76-765.94-4157.11-766.96-4151.52-772.64-4117.6-780.78-4084.2-788.83-4050.79-790.31-4044.66-788.93-4043.28-783.05-4043.59-771.73-4044.18-760.36-4044.26-749-4044.55ZM-980.63-4236.78C-1022.23-4236-1057.96-4223.2-1080.19-4185.45-1095.98-4158.89-1103.76-4128.33-1102.59-4097.45-1101.69-4070.72-1087.31-4052.79-1061.46-4045.34-1041.74-4039.66-1021.59-4039.11-1001.46-4042.23-972.89-4046.66-947.71-4058.23-930.96-4082.61-910.74-4112-901.51-4145.25-902.9-4180.91-903.79-4203.98-915.58-4220.61-937.14-4229.55-951-4235.27-965.66-4236.94-980.63-4236.78ZM-1018.44-3821.95C-1021.53-3811.56-1024.69-3802.17-1027.04-3792.58-1028.27-3787.58-1030.83-3786.43-1035.47-3786.58-1044.56-3786.86-1053.67-3786.58-1062.77-3786.7-1066.13-3786.7-1068.77-3786.52-1069.86-3782.48-1073.1-3771.02-1076.59-3759.63-1080.16-3748.26-1081.56-3743.78-1079.7-3743.04-1075.71-3743.14-1066.61-3743.36-1057.5-3742.98-1048.41-3743.29-1043.31-3743.47-1042.23-3742.44-1043.91-3737.18-1050.97-3715.02-1057.54-3692.7-1064.22-3670.42-1068.86-3654.92-1061.22-3641.5-1044.95-3639.07-1014.45-3634.5-983.65-3637.99-952.95-3637.07-951.15-3637.07-949.58-3637.53-948.95-3639.53L-935.76-3684.01-948.27-3682.48C-961.48-3680.89-974.63-3677.82-988.04-3681.09-993.36-3682.38-995.69-3684.31-993.61-3690.57-988.43-3706.18-983.92-3722.02-979.43-3737.84-978.15-3742.37-976.13-3744.15-971.18-3744.07-951.85-3743.77-932.5-3744.16-913.18-3743.82-907.92-3743.72-905.7-3745.56-904.4-3750.41-901.69-3760.55-898.79-3770.66-895.34-3780.56-893.54-3785.74-894.74-3786.81-899.87-3786.75-918.35-3786.53-936.87-3786.96-955.32-3786.51-962.47-3786.34-965.32-3787.51-962.19-3795.15-959.555-3801.74-957.435-3808.52-955.85-3815.44-954.67-3820.52-952.43-3822.19-947.16-3822.09-928.39-3821.75-909.62-3822.09-890.85-3821.85-886.18-3821.78-883.67-3822.85-882.37-3827.67-879.71-3837.52-876.79-3847.33-873.37-3856.93-871.29-3862.74-873.28-3863.47-878.49-3863.4-896.97-3863.16-915.49-3863.31-933.94-3863.31-968.64-3863.31-1003.34-3863.31-1038.03-3863.31-1041.5-3863.31-1045.2-3864.42-1046.62-3858.96-1049.4-3848.27-1052.9-3837.75-1056.28-3827.22-1057.58-3823.16-1056.72-3821.78-1052.28-3821.9-1041.27-3822.14-1030.25-3821.95-1018.44-3821.95ZM-1189.89-4043.68-1189.89-4044.77C-1179.65-4044.77-1169.39-4045.24-1159.2-4044.61-1152.2-4044.18-1149.42-4046.78-1148.69-4053.43-1147.18-4067.28-1143.92-4080.82-1140.77-4094.37-1133.36-4126.14-1125.9-4157.9-1118.41-4189.65-1116.41-4198.31-1116.84-4198.77-1125.69-4197.3-1145.57-4194-1165.38-4190.04-1185.39-4187.79-1194.96-4186.72-1197.39-4182.68-1198.34-4174.03-1200.14-4158.26-1203.23-4142.63-1205.96-4126.97-1210.41-4101.47-1217.77-4076.75-1226.29-4052.36-1228.56-4045.86-1227.46-4043.02-1219.7-4043.52-1209.8-4044.17-1199.83-4043.68-1189.89-4043.68ZM-916-3961.62C-938.82-3961.62-960.37-3961.53-981.92-3961.71-985.67-3961.71-987.55-3960.18-989.15-3957.15-993.41-3949.15-998.44-3941.48-1002.15-3933.22-1008.66-3918.62-1018.63-3910.59-1035.31-3912.96-1038.22-3913.38-1040.68-3913.05-1041.74-3909.28-1045.27-3896.81-1049.13-3884.43-1053.05-3871.38-1048.19-3871.38-1044.22-3871.56-1040.27-3871.38-1013.95-3869.97-989.4-3874.38-969.21-3893.01-966.57-3895.45-963.35-3894.73-960.3-3894.73-932.453-3894.77-904.607-3894.77-876.76-3894.73-873.43-3894.73-870.01-3894.01-868.69-3898.73-865.5-3910.2-861.98-3921.58-858.51-3932.96-857.39-3936.62-858.33-3937.96-862.37-3937.9-873.73-3937.69-885.1-3937.83-896.47-3937.83L-928.25-3937.83ZM-1160.09-4200.88C-1142.65-4201.95-1126.02-4206.79-1113.73-4221.14-1103.73-4232.83-1106.1-4245.45-1119.13-4252.35-1139.75-4263.27-1177.13-4253.69-1189.71-4234.26-1196.71-4223.51-1194.06-4212.26-1182.95-4206.01-1176.14-4202.16-1168.59-4201-1160.12-4200.88Z" fill="#01447C" transform="translate(1981.84 4719.84)"/><path d="M-1070-4719.84C-1079.1-4717.79-1088.46-4716.51-1097.26-4713.57-1168-4690-1211.77-4642.1-1228.47-4569-1254.14-4456.68-1280.58-4344.54-1306.7-4232.33L-1333.92-4219.17C-1332.73-4224.06-1331.92-4227.6-1331.01-4231.12-1329.01-4239.01-1330.01-4240.12-1337.94-4238.79-1358.67-4235.28-1379.35-4231.41-1400.18-4228.6-1407.18-4227.6-1408.98-4224.52-1409.75-4218.36-1411.5-4204.27-1413.53-4190.2-1416-4176.22-1423.33-4134.81-1433.49-4094.02-1443.49-4053.22-1445.77-4043.9-1445.41-4043.46-1436.04-4043.74-1418.42-4044.28-1400.76-4046.08-1383.17-4044.65-1373.77-4043.88-1370.54-4047.04-1368.81-4056.12-1361.81-4092.66-1354.08-4129.05-1346.39-4165.45-1343.39-4179.45-1332.96-4185.58-1318.17-4182.45-1348.7-4051.57-1379.23-3920.69-1409.75-3789.8-1432.84-3690.73-1455.89-3591.65-1478.91-3492.58-1483.55-3472.58-1484.44-3452.48-1478.91-3432.58-1467.18-3390.26-1438.83-3365.84-1396.2-3357.26L-1390.35-3356.12C-1391.27-3355.57-1393-3355.26-1391-3353.86L-1889.61-3353.86C-1889.12-3358.06-1892.69-3356.71-1894.47-3357.06-1938.02-3365.64-1966.54-3390.58-1978.47-3433.75-1978.9-3435.33-1977.94-3438.75-1981.78-3437.53L-1981.78-3487.04C-1977.56-3487.04-1978.78-3490.62-1978.26-3492.81-1955.15-3591.58-1932.09-3690.37-1909.07-3789.16-1854.18-4024.66-1799.3-4260.16-1744.45-4495.67-1738-4523.34-1732.29-4551.21-1725.05-4578.67-1706.05-4650.75-1659.23-4695.5-1588.21-4716.01-1586.07-4716.62-1581.66-4714.59-1582.21-4719.79ZM-1637.89-4371.13-1637.89-4370.97C-1642.44-4370.97-1646.99-4370.97-1651.55-4370.97-1656.38-4370.97-1661.22-4371.04-1666.05-4371.12-1683.52-4371.43-1683.9-4371.52-1687.33-4354.84-1702.85-4279.5-1724.38-4205.46-1735.21-4129.1-1740.85-4089.33-1725.21-4062.52-1686.83-4050.84-1654.37-4040.97-1621.13-4041.04-1587.96-4045.96-1556.17-4050.68-1526.96-4061.61-1503.86-4085.38-1484.63-4105.23-1474.86-4130.02-1468.01-4156.03-1449.73-4225.77-1432.01-4295.67-1413.9-4365.46-1412.28-4371.69-1415.35-4371.16-1419.44-4371.17-1441.05-4371.22-1462.68-4371.17-1484.28-4371.75-1489.77-4371.91-1490.87-4369.69-1491.82-4365.27-1502.58-4315.01-1513.31-4264.75-1524.43-4214.58-1530.26-4188.28-1534.32-4161.44-1545.54-4136.64-1557.97-4109.17-1581.47-4095.64-1611.33-4098.12-1630.93-4099.77-1643.59-4111.29-1645.6-4130.86-1647.81-4152.38-1642.48-4173.36-1637.54-4193.91-1623.79-4251.03-1609.54-4308.05-1593.46-4364.58-1591.83-4370.32-1593.14-4371.37-1598.64-4371.24-1611.72-4370.91-1624.81-4371.13-1637.89-4371.13Z" fill="#E11836" transform="translate(1981.84 4719.84)"/><path d="M-518.87-3696C-525.67-3696-532.48-3696.14-539.28-3696-543.63-3695.88-544.73-3697.26-543.38-3701.53-539.29-3714.53-535.46-3727.53-531.65-3740.53-530.65-3743.93-529.12-3745.59-525.15-3745.53-511.55-3745.26-497.93-3745.32-484.33-3745.53-479.99-3745.53-479.05-3744.53-480.44-3740.16-484.6-3727.23-488.47-3714.23-492.05-3701.16-493.2-3696.97-495.37-3695.92-499.31-3696.07-505.82-3696.14-512.35-3696-518.87-3696Z" fill="#037C85" transform="translate(1981.84 4719.84)"/><path d="M-520.72-3776.49C-515.42-3794.04-510.06-3811.58-504.88-3829.17-504-3832.17-501.97-3832.17-499.68-3832.17-485.76-3832.17-471.84-3832.04-457.93-3832.25-453.06-3832.33-452.93-3830.25-454.14-3826.56-457.4-3816.3-460.53-3805.99-463.63-3795.68-464.31-3793.42-464.87-3791.28-467.76-3791.05-485.904-3789.47-503.48-3783.93-519.24-3774.8Z" fill="#037C85" transform="translate(1981.84 4719.84)"/><path d="M-495.44-3860C-489.74-3878.65-484.57-3895.07-479.79-3911.61-478.66-3915.51-476.57-3916.24-473.07-3916.21-459.75-3916.1-446.42-3916.03-433.07-3916.21-428.07-3916.29-427.39-3914.67-428.9-3910.21-432.21-3900.29-435.08-3890.21-438.03-3880.21-438.78-3877.65-439.38-3875.11-442.64-3875.02-460.82-3874.51-477.43-3868.29-495.44-3860Z" fill="#037C85" transform="translate(1981.84 4719.84)"/><path d="M-535.13-4213C-554.68-4212.78-554.71-4212.78-551.02-4229.17-544.22-4259.35-537.26-4289.51-530.7-4319.74-529.89-4323.49-528.7-4324.29-525.24-4323.98-508.81-4322.5-492.33-4321.62-475.96-4319.7-463.4-4318.23-453.1-4305.02-451.74-4290.26-448.28-4252.83-476.19-4218.59-513.61-4214.51-521.52-4213.64-529.43-4212.53-535.13-4213Z" fill="#037C85" transform="translate(1981.84 4719.84)"/><path d="M-791.8-3866.88C-786.96-3882.88-782.61-3896.6-778.69-3910.47-777.59-3914.35-775.57-3915.17-771.99-3915.16-742.137-3915.07-712.28-3915.07-682.42-3915.16-677.95-3915.16-677.42-3914.03-678.53-3909.75-683.3-3891.31-683.13-3891.29-702.06-3891.26-724.23-3891.26-746.44-3891.72-767.18-3881.59-775.838-3877.49-784.083-3872.56-791.8-3866.88Z" fill="#097F88" transform="translate(1981.84 4719.84)"/><path d="M-795.13-3848.24-698.73-3848.24C-698.92-3842.24-701.8-3837.24-703.08-3831.79-703.89-3828.36-706.58-3828.79-709.17-3828.79-738.99-3828.84-768.81-3828.87-798.63-3828.87-797.47-3835.32-796.303-3841.78-795.13-3848.24Z" fill="#097F88" transform="translate(1981.84 4719.84)"/><path d="M-284.56-4161.15C-288.18-4139.98-290.98-4118.53-300.26-4098.82-305.26-4088.15-314.87-4083.16-326-4081.39-338.4-4079.39-346-4086.57-345.87-4100.5-345.71-4120.88-339.87-4140.23-333.77-4159.45-331.932-4165.42-329.262-4171.11-325.84-4176.34-318.84-4186.91-309.38-4191.4-299.25-4188.94-290.67-4186.85-285.32-4178.31-284.57-4165.41-284.48-4164-284.56-4162.57-284.56-4161.15Z" fill="#037C85" transform="translate(1981.84 4719.84)"/><path d="M-1030.83-4111.46C-1028.56-4132.9-1023.17-4153.9-1014.83-4173.78-1012.14-4180.06-1008.37-4185.87-1002.44-4189.72-996.51-4193.57-989.99-4195.58-983.1-4192.45-976.21-4189.32-974.86-4182.78-974.46-4176.08-973.63-4161.98-977.2-4148.46-980.31-4134.93-982.47-4125.54-985-4116.19-989.19-4107.46-991.211-4103.09-993.653-4098.93-996.48-4095.03-1003.48-4085.65-1012.63-4082.03-1020.7-4084.88-1027.95-4087.44-1031.17-4094.43-1030.83-4111.46Z" fill="#01447C" transform="translate(1981.84 4719.84)"/></svg>