<svg viewBox="0 0 523.88 1105.85" xmlns="http://www.w3.org/2000/svg" xmlns:xlink="http://www.w3.org/1999/xlink" id="Capa_1" overflow="hidden"><defs></defs><path d="M5566.63 1744.4C5561.9 1737.54 5564.76 1729.69 5563.76 1722.34 5567.35 1717.54 5569.06 1713.03 5561.76 1709.99 5557.2 1697.36 5559.3 1684.24 5559.12 1671.34 5558.88 1653.04 5559.28 1634.74 5559.4 1616.44 5559.66 1616.22 5560.17 1615.94 5560.13 1615.8 5559.95 1615.25 5559.71 1614.71 5559.43 1614.2 5562.22 1597.83 5561.94 1581.03 5566.49 1564.91 5568.07 1564.7 5569.99 1564.61 5570.18 1562.64 5570.37 1560.67 5568.47 1560.29 5566.88 1560.02 5570.78 1534.72 5576.62 1509.76 5584.35 1485.36 5594.43 1452.87 5607.44 1421.36 5623.22 1391.22 5644.11 1351.54 5669.71 1315 5697.68 1280.09 5704 1272.21 5708.81 1263.2 5717.03 1256.66 5731.26 1245.31 5750.48 1244.9 5762.71 1255.89 5774.5 1266.49 5781.71 1283.57 5767.35 1303.89 5750.01 1328.42 5730.35 1351.15 5713.76 1376.33 5698.57 1399.3 5685.2 1423.43 5673.76 1448.48 5658.39 1482.62 5646.81 1518.34 5639.24 1555 5633.14 1584 5630.39 1613.45 5629.89 1643.28 5629.21 1682.86 5632.17 1721.95 5640.14 1760.6 5650.95 1813.85 5670.62 1864.92 5698.33 1911.66 5725.61 1957.52 5758.19 1999.31 5799.47 2033.93 5806.22 2039.6 5813.31 2045.05 5819.69 2051.13 5826.07 2057.21 5828.08 2054.4 5832.35 2048.76 5863.35 2007.95 5894.79 1967.52 5926.02 1926.91 5943.78 1903.82 5968.76 1897.73 5995.02 1902.55 6020.57 1907.24 6039.47 1924.67 6046.9 1949.72 6052.49 1968.57 6053.13 1988.93 6055.69 2008.65 6059.3 2036.43 6062.53 2064.25 6066.13 2092.02 6069.88 2120.97 6074.04 2149.87 6077.68 2178.84 6079.5 2193.33 6083.4 2207.64 6082.55 2222.37 6079.82 2269.59 6046 2311.56 5996.55 2319.61 5950.94 2327.04 5905.09 2333.08 5859.27 2339.23 5820.27 2344.46 5781.22 2349.6 5742.06 2353.56 5723.57 2355.42 5708.57 2345.4 5694.92 2333.91 5666.82 2310.24 5662.75 2271.37 5685.28 2241.23 5693.28 2230.48 5702.01 2220.23 5709.69 2209.23 5718.31 2196.92 5730.74 2194.23 5743.84 2196.33 5758.84 2198.75 5768.84 2209.75 5771.73 2223.78 5773.86 2234.08 5770.73 2245.42 5763.17 2254.5 5756.46 2262.6 5750.32 2271.16 5742.17 2281.78 5765.81 2279.25 5787.43 2278.03 5808.63 2274.39 5837.03 2269.53 5865.63 2266.8 5894.18 2263.23 5924.77 2259.41 5955.28 2255.32 5985.58 2249.46 6005.73 2245.56 6014.23 2226.95 6011.02 2204.05 6005.96 2167.91 6001.35 2131.71 5996.57 2095.52 5991.47 2056.91 5986.36 2018.3 5981.24 1979.7 5981.04 1978.17 5979.84 1976.77 5978.47 1974.06 5964.76 1991.72 5951.36 2008.77 5938.18 2025.99 5918.91 2051.17 5900.64 2077.17 5880.4 2101.53 5857.14 2129.53 5814.82 2136.27 5782.92 2111.78 5734.51 2074.8 5692.38 2030.26 5658.14 1979.88 5621.33 1925.66 5595.32 1866.79 5578.04 1803.68 5573.34 1786.5 5571.2 1768.91 5566.64 1751.79 5568.56 1751.45 5570.54 1751.09 5570.82 1748.66 5571.22 1745.51 5569.08 1744.77 5566.63 1744.4Z" fill="#E84C22" transform="translate(-5558.79 -1247.89)"/></svg>