<svg viewBox="0 0 1498.56 408.64" xmlns="http://www.w3.org/2000/svg" xmlns:xlink="http://www.w3.org/1999/xlink" id="Capa_1" overflow="hidden"><defs></defs><path d="M5228.27-2841.69C5231.27-2840.83 5234.9-2842.56 5237.47-2839.69 5241.47-2830.36 5245.45-2821.05 5249.42-2811.77L5254.34-2800.96 5263.42-2780.55C5269.78-2762.55 5278.91-2745.74 5286.52-2728.28 5289.9-2718.9 5294-2709.79 5298.77-2701.03 5301.6-2692.03 5305.71-2683.62 5309.93-2675.24 5310.27-2674.54 5310.62-2673.85 5310.93-2673.15 5310.22-2669.64 5316.52-2666.69 5311.75-2662.86 5302.41-2664.24 5293.04-2663.57 5283.67-2663.23L5261.55-2663.47 5260.02-2664.69C5257.45-2671.15 5254.94-2677.63 5252.29-2684.05 5245.69-2700.05 5245.66-2700.05 5228.29-2698.99L5172.7-2698.99C5165.78-2700.99 5162.13-2698.21 5160.12-2691.47 5158.31-2685.47 5155.5-2679.69 5153.12-2673.82 5151.29-2665.02 5145.88-2662.65 5137.12-2663.18 5123.95-2663.97 5110.7-2663.39 5096.96-2663.39 5097.73-2666.39 5098.32-2668.68 5098.9-2670.97 5104.03-2680.57 5108.43-2690.54 5112.06-2700.8 5120.56-2718.42 5128.79-2736.16 5135.74-2754.46 5145.29-2773.18 5153.4-2792.53 5161.23-2812L5173.77-2839.6C5174.11-2840.19 5174.45-2840.78 5174.77-2841.37L5200.37-2841.71ZM5209.76-2784.24C5209.46-2788.77 5206.76-2792.16 5204.62-2797.84 5195.88-2776.95 5187.94-2757.99 5179.78-2738.5L5230-2738.5 5221.42-2756.36C5218.48-2766.02 5214.58-2775.36 5209.76-2784.24Z" fill="#0270CF" transform="translate(-5097 2841.79)"/><path d="M5533.91-2841.69C5540.57-2839.97 5547.75-2843.41 5554.21-2839.69L5554.21-2812C5553.1-2802.77 5553.1-2793.44 5554.21-2784.21L5554.21-2756.54C5553.1-2747.31 5553.1-2737.98 5554.21-2728.75L5554.21-2701.08C5553.09-2691.85 5553.09-2682.53 5554.21-2673.3 5555.04-2665.64 5552.21-2662.1 5544.02-2663.59 5540.83-2664.17 5537.39-2663.39 5534.02-2663.23L5506.24-2664.31C5506.91-2685.82 5507.03-2707.31 5506.24-2728.83 5507.03-2738.03 5507.03-2747.28 5506.24-2756.48L5506.24-2787.48 5505.24-2787.73 5494.71-2756.57C5490.25-2747.65 5487.2-2738.2 5484.27-2728.71 5477.76-2711.14 5471.25-2693.58 5464.75-2676.01 5461.89-2669.62 5460.75-2661.28 5450.46-2663.19 5441.27-2664 5432.04-2664 5422.85-2663.19 5416.64-2662.38 5416.15-2667.89 5413.85-2671.36 5408.94-2690.01 5400.33-2707.36 5394.55-2725.72 5394.16-2726.96 5392.55-2727.84 5391.55-2728.88 5391.43-2738.99 5386.18-2747.52 5382.94-2756.67L5372.08-2786.84 5371.08-2786.43 5371.08-2756.51 5370.81-2728.77 5371.11-2699.27 5371.11-2675C5369.41-2671.08 5373.67-2665.34 5367.38-2662.8 5358.04-2664.18 5348.67-2663.51 5339.3-2663.17L5324.46-2663.49 5323.97-2663.79C5323.06-2666.93 5324.97-2670.35 5323.04-2673.38L5323.04-2700.88C5324.46-2710.16 5324.46-2719.6 5323.04-2728.88L5323.04-2756.37C5324.46-2765.65 5324.46-2775.09 5323.04-2784.37L5323.04-2811.85C5324.44-2821.06 5324.44-2830.42 5323.04-2839.63 5328.12-2843.34 5334.09-2840.1 5339.43-2841.71L5367.17-2841.71 5395.02-2841.77C5396.88-2841.82 5398.62-2840.84 5399.53-2839.21 5402.58-2829.99 5405.26-2820.64 5409.72-2811.95 5415.33-2793.02 5422.67-2774.72 5429.72-2756.32 5432.55-2747.94 5435.37-2739.56 5439.02-2728.72 5442.48-2739.65 5447.27-2747.23 5447.08-2756.38 5449.93-2757.26 5450.08-2759.86 5450.91-2762.14 5456.69-2778.14 5462.51-2794.14 5468.37-2810.14L5478.42-2839.67C5478.79-2839.81 5479.01-2840.19 5478.94-2840.58L5506.13-2841.69Z" fill="#0270CF" transform="translate(-5097 2841.79)"/><path d="M5728.49-2841.69C5732.49-2840.43 5737.09-2843.1 5740.8-2839.85 5739.64-2830.55 5739.64-2821.15 5740.8-2811.85 5741.06-2804.63 5739.98-2798.63 5730.33-2800.52L5641.39-2800.52C5638.52-2801.13 5637.5-2799.71 5637.57-2797.06 5637.69-2792.79 5637.79-2788.51 5637.9-2784.24 5637.9-2781.11 5637.9-2777.98 5637.9-2774.85 5637.77-2773.69 5638.08-2772.93 5639.46-2773.17L5643.33-2773.29 5730.2-2773.29C5732.7-2772.13 5736.08-2774.19 5738.08-2771.17 5737.96-2760.71 5737.49-2750.24 5737.88-2739.8 5738.09-2733.9 5736.54-2732.05 5730.36-2732.12 5702.01-2732.44 5673.64-2732.28 5645.28-2732.06 5642.71-2732.06 5637.97-2735.06 5637.88-2728.77 5637.79-2722.48 5637.88-2715.99 5637.45-2709.63 5637.02-2703.27 5640.12-2702.39 5645.25-2704.08 5654.38-2703.07 5663.58-2703.07 5672.71-2704.08 5682.05-2702.91 5691.49-2702.91 5700.83-2704.08 5709.96-2703.07 5719.16-2703.07 5728.29-2704.08 5732.29-2701.92 5737.7-2705.59 5741.07-2700.93 5739.61-2691.76 5740.07-2682.57 5740.78-2673.37 5741.78-2663.78 5735.73-2662.66 5728.36-2663.18 5719.17-2663.99 5709.94-2663.99 5700.75-2663.18L5672.75-2663.18C5663.58-2663.98 5654.35-2663.98 5645.18-2663.18L5617.18-2663.18 5589.61-2664.26C5590.17-2667.26 5591.09-2670.26 5589.48-2673.26L5589.48-2701C5590.51-2710.22 5590.51-2719.53 5589.48-2728.75L5589.48-2756.46C5590.51-2765.68 5590.51-2774.99 5589.48-2784.21L5589.48-2811.93C5590.5-2821.15 5590.5-2830.45 5589.48-2839.67 5589.81-2840 5589.96-2840.47 5589.88-2840.93L5617.33-2841.67 5728.49-2841.67Z" fill="#0270CF" transform="translate(-5097 2841.79)"/><path d="M5867.39-2841.69 5894.88-2839.34 5894.88-2839.34C5904.71-2835.34 5914.4-2831.17 5922.62-2824.26L5932.03-2811.83C5935.45-2802.28 5938.43-2792.65 5938.1-2782.34 5938.25-2773.23 5934.78-2764.95 5932.1-2756.48L5925.04-2746.12C5917.04-2738.83 5907.94-2733.38 5898.18-2728.89 5896.05-2728.89 5893.34-2729.59 5892.11-2727.7 5890.41-2725.12 5893.63-2724.17 5894.91-2722.78 5910.16-2706.17 5925.47-2689.6 5940.82-2673.07L5948.65-2663.33C5933.02-2663.33 5919.23-2663.94 5905.51-2663.12 5895.15-2662.51 5886.84-2664.7 5880.95-2673.58 5876.95-2678.44 5873.95-2684.31 5867.67-2686.84 5866.62-2693.56 5860.67-2696.61 5856.87-2701.31L5839.5-2721.15C5834.84-2728.73 5827.2-2725.9 5821.38-2724.84 5816.38-2723.91 5819.63-2717.58 5819.18-2713.72 5818.7-2709.55 5819.27-2705.26 5819.39-2701.02L5819.39-2673.23C5819.07-2668.23 5820.34-2662.11 5811.9-2663.17L5783.85-2663.17C5777.42-2663.83 5768.85-2661.72 5770.85-2673.23L5770.85-2839.62C5774.76-2843.38 5779.77-2840.02 5784-2841.62L5867.32-2841.62ZM5839.61-2800.33 5836-2800.33C5815.89-2801.07 5819.1-2803.25 5819.51-2784.19 5819.4-2779.29 5819.37-2774.39 5819.15-2769.49 5818.99-2766.04 5820.28-2764.49 5823.92-2764.56 5840.71-2764.97 5857.53-2764.69 5874.27-2765.79 5885.5-2766.52 5889.75-2772.56 5889.66-2784.21 5887.66-2796.31 5881.19-2800.72 5865.66-2800.54L5841.5-2800.54Z" fill="#0270CF" transform="translate(-5097 2841.79)"/><path d="M6004.58-2841.72C6006.67-2840.99 6009.37-2842.32 6010.92-2839.81 6010.92-2830.48 6010.92-2821.16 6010.92-2811.86 6010.1-2802.7 6010.1-2793.48 6010.92-2784.32L6010.92-2756.32C6010.11-2747.18 6010.11-2737.99 6010.92-2728.85L6010.92-2700.9C6010.11-2691.73 6010.11-2682.52 6010.92-2673.35 6009.4-2669.94 6013.24-2664.09 6006.27-2663.16 5997.08-2663.97 5987.85-2663.97 5978.66-2663.16 5972.12-2664.75 5961.07-2659.3 5962.53-2673.42 5962.7-2703.15 5962.95-2732.88 5963.03-2762.6 5963.09-2787.13 5963.12-2811.66 5962.74-2836.19 5962.68-2840.32 5963.34-2841.66 5967.47-2841.44 5971.75-2841.22 5976.06-2841.57 5980.35-2841.68Z" fill="#0270CF" transform="translate(-5097 2841.79)"/><path d="M6054.21-2812C6056.88-2814.86 6059.57-2817.72 6062.29-2820.59 6078.19-2834.15 6097.58-2838.51 6117.51-2841.42L6145.29-2841.69 6173.13-2841.69C6176.04-2840.69 6179.68-2842.83 6182.07-2839.62 6182.07-2830.44 6182.07-2821.25 6182.07-2812.06 6179.07-2807.67 6186.01-2796.58 6173.14-2798.75L6145.27-2798.75C6135.95-2798.54 6126.53-2800.53 6117.32-2797.59 6107.32-2796.71 6099.32-2792.36 6093.38-2784.25 6085.38-2775.92 6084-2765.25 6083.5-2754.61 6082.33-2729.91 6091.94-2709.41 6117.43-2705.28 6126.73-2703.74 6136.04-2702.35 6145.48-2704.1 6149.02-2702.1 6154.1-2706.04 6156.87-2701.1 6151.94-2690.94 6146.71-2680.91 6142.2-2670.56 6139.94-2665.38 6137.2-2662.94 6131.27-2663.42 6124.27-2663.99 6117.17-2663.66 6110.12-2663.72L6087.91-2667.8C6087.08-2669.08 6085.55-2669.72 6084.05-2669.41L6080.55-2671C6080.12-2671.47 6079.47-2671.66 6078.85-2671.52L6062.12-2683.14 6047.22-2701C6033.83-2727.73 6033.22-2755.62 6039.6-2784.16 6043.45-2794 6047.82-2803.53 6054.21-2812Z" fill="#0270CF" transform="translate(-5097 2841.79)"/><path d="M6225.62-2811.64C6227.59-2814.09 6228.83-2817.05 6229.19-2820.18 6233.01-2826.24 6235.97-2832.8 6237.99-2839.67 6243.82-2843.34 6250.38-2840.27 6256.45-2841.67L6284.29-2841.67C6290-2840.01 6296.51-2843.91 6301.78-2839.17 6305.07-2831.82 6307.37-2824.01 6311.92-2817.25 6311.92-2815.27 6312.69-2813.38 6314.07-2811.96 6317.38-2802.33 6321.51-2793 6326.41-2784.07 6330-2774.35 6333.7-2764.68 6339.18-2755.81 6341.9-2746.27 6346.33-2737.46 6350.92-2728.73 6358.73-2709.14 6366.92-2689.73 6376.53-2670.91 6377.11-2668.62 6377.69-2666.33 6378.37-2663.59 6365.02-2663.59 6352.06-2664.52 6339.29-2663.32 6328.06-2662.26 6323.41-2667.07 6319.49-2676.7 6309.62-2701.01 6309.19-2700.84 6282.55-2698.87L6256.45-2699.01C6247.21-2699.25 6237.97-2699.92 6228.75-2698.66 6224.01-2690.69 6220.31-2682.14 6217.75-2673.22 6214.66-2670.35 6216.19-2663.6 6209.75-2663.59 6193.95-2663.59 6178.15-2663.59 6161.75-2663.59 6162.82-2667.42 6163.62-2670.29 6164.43-2673.16 6173.83-2691.01 6181.34-2709.7 6189.07-2728.3 6193.4-2738.02 6197.73-2747.74 6202.07-2757.46 6205.82-2765.46 6210.13-2773.26 6212.52-2781.86 6217.78-2791.37 6222.17-2801.34 6225.62-2811.64ZM6293.97-2738.52C6289.81-2748.68 6285.97-2758.27 6281.97-2767.79 6277.97-2777.31 6273.81-2786.66 6269.14-2797.43 6264.57-2786.54 6260.32-2777.15 6256.66-2767.53 6253-2757.91 6247.56-2748.99 6245.34-2738.53Z" fill="#0270CF" transform="translate(-5097 2841.79)"/><path d="M6562.19-2841.69C6564.19-2841.11 6566.72-2842.32 6567.99-2839.69 6567.99-2830.42 6568.01-2821.15 6568.04-2811.88 6568.07-2802.61 6568.07-2793.4 6568.04-2784.24 6568.04-2774.96 6568.04-2765.69 6568.04-2756.42 6568.04-2747.15 6568.04-2737.94 6568.04-2728.78L6568.04-2673.31C6566.86-2669.46 6570.36-2662.87 6562.09-2663.17 6552.9-2663.98 6543.67-2663.98 6534.48-2663.17 6530.81-2663.29 6527.12-2663.24 6523.48-2663.57 6517.91-2664.08 6511.67-2661.45 6507.11-2666.9 6506.48-2669.43 6505.02-2671.68 6502.96-2673.29 6491.32-2692.23 6479.14-2710.81 6466.07-2728.79L6452.84-2749.05C6451.61-2751.87 6450.19-2754.56 6447.6-2756.43L6435.6-2776.05C6435.6-2740.33 6435.41-2707.32 6435.75-2674.31 6435.83-2666.62 6434.8-2662.53 6425.55-2663.43 6416.3-2664.33 6407.08-2663.82 6397.88-2663.24 6390.24-2662.76 6386.3-2665.02 6387.75-2673.24L6387.75-2812C6387.75-2821.22 6387.75-2830.44 6387.75-2839.66 6389.65-2842.79 6392.97-2840.57 6395.4-2841.66L6423.14-2841.66C6429.41-2841.53 6435.67-2841.36 6441.94-2841.3 6444.94-2841.3 6448.01-2841.89 6449.87-2838.65L6450.11-2838.49 6469.46-2810.02C6471.78-2805.04 6474.85-2800.45 6478.55-2796.39 6481.65-2791.63 6484.75-2786.88 6487.86-2782.13 6493.61-2773.13 6498.67-2763.75 6506.1-2755.95L6505.92-2755.75C6509.14-2748.06 6514.75-2741.98 6520.67-2735.37L6520.67-2783.45C6520.67-2799.74 6521.23-2816.05 6520.42-2832.29 6520.02-2840.17 6522.16-2842.77 6529.71-2841.42 6531.24-2841.32 6532.78-2841.4 6534.3-2841.66Z" fill="#0270CF" transform="translate(-5097 2841.79)"/><path d="M6312.15-2434.29 6284.15-2434.29C6283.24-2434.41 6282.33-2434.6 6281.42-2434.63 6262.02-2435.12 6262.02-2435.11 6261.95-2454.14 6261.88-2475.49 6261.88-2475.45 6283.33-2475.4 6307.6-2475.34 6331.87-2475.4 6356.14-2475.33 6360.47-2475.33 6364.78-2475.15 6368.24-2478.41L6368.11-2478.58C6375.8-2486.02 6375.71-2492.26 6367.8-2500.16 6358.95-2505.84 6349.2-2502.71 6339.8-2503.01L6312.07-2503.01C6300.07-2503.93 6288.43-2506.19 6278.16-2512.92 6260.91-2524.23 6256.6-2541.56 6256.23-2560.64 6258.23-2579.99 6267.48-2594.77 6284.34-2604.7 6293.24-2608.37 6302.54-2610.98 6312.06-2612.45L6339.79-2612.6 6417.7-2612.6C6414.17-2604.05 6411.3-2597.07 6408.42-2590.09 6406.77-2586.98 6405.08-2583.89 6403.47-2580.77 6401.53-2577.02 6401.47-2571.72 6395.47-2571.46L6367.63-2571.46 6339.9-2571.41C6332.9-2571.52 6325.78-2572.31 6318.9-2571.53 6312.57-2570.82 6306.9-2566.73 6304.96-2560.81 6302.96-2554.66 6305.16-2548.73 6312.15-2546.02 6321.15-2541.74 6330.61-2544.35 6339.88-2544.02L6367.72-2544.02C6377.09-2542.67 6386.44-2541.22 6395.36-2537.85L6401.03-2534.59C6408.36-2528.47 6414.87-2521.87 6418.03-2512.4 6425.52-2489.83 6421.24-2469.71 6406.29-2451.54L6397.29-2444.23C6396.23-2444.01 6395.19-2443.75 6395.05-2442.4L6394.84-2442.67C6374.66-2432.9 6353.08-2434.22 6331.59-2434.61 6325.06-2434.74 6318.6-2434.42 6312.15-2434.29Z" fill="#0270CF" transform="translate(-5097 2841.79)"/><path d="M5422.82-2612.6C5437.62-2612.54 5452.41-2612.29 5467.2-2612.53 5472.47-2612.61 5475.07-2611.75 5474.7-2605.59 5474.14-2596.4 5474.3-2587.13 5474.61-2577.91 5474.78-2572.91 5472.87-2571.47 5468.15-2571.67 5462.31-2571.92 5456.45-2571.56 5450.59-2571.46L5422.75-2571.46 5395.02-2571.41C5389.21-2571.55 5383.37-2571.41 5377.59-2571.9 5372.13-2572.35 5370.74-2569.99 5371.03-2564.99 5371.4-2558.6 5371.19-2552.17 5371.23-2545.75 5378.88-2541.54 5387.05-2544.56 5394.96-2544.04L5422.81-2544.1 5450.54-2544.04C5454.16-2543.92 5457.87-2543.22 5461.39-2543.78 5468.95-2544.98 5472.48-2542.19 5472.17-2534.56 5471.31-2525.4 5471.31-2516.17 5472.17-2507.01 5471.44-2503.58 5469.02-2503.26 5466.02-2503.31 5460.86-2503.4 5455.7-2503.13 5450.54-2503.01L5395-2503.01C5364.67-2503.01 5372.21-2508.45 5371.07-2481.01 5370.9-2476.75 5372.36-2475.17 5376.82-2475.26 5392.74-2475.57 5408.66-2475.53 5424.58-2475.62L5448.85-2475.62C5455.64-2475.51 5462.43-2475.23 5469.21-2475.36 5473.21-2475.43 5474.69-2473.94 5474.62-2469.96 5474.49-2463.19 5474.77-2456.42 5474.88-2449.65 5474.79-2444.74 5474.7-2439.83 5474.62-2434.91L5450.62-2434.24C5441.38-2435.05 5432.09-2435.05 5422.85-2434.24L5395-2434.24C5385.76-2435.05 5376.47-2435.05 5367.23-2434.24L5339.4-2434.24 5324.54-2434.6C5324.13-2447.41 5323.37-2460.23 5323.37-2473.05 5323.37-2515.96 5323.96-2558.87 5323.67-2601.78 5323.61-2609.96 5325.08-2613.83 5333.86-2612.31 5335.63-2612 5337.53-2612.45 5339.37-2612.55L5422.82-2612.55Z" fill="#0270CF" transform="translate(-5097 2841.79)"/><path d="M5500.84-2590.19C5497.03-2598.46 5488.84-2603.45 5483.47-2612.6L5534-2612.6C5542.05-2613.53 5548-2610.6 5552.34-2603.6 5554.24-2600.6 5557.25-2598.22 5559.75-2595.6 5560.66-2593.29 5562.42-2591.41 5564.67-2590.34 5571.96-2580.14 5580.18-2570.65 5589.23-2561.97L5589.11-2562.09C5590.76-2558.74 5592.18-2559.5 5593.46-2562.34 5602.08-2571.01 5610.1-2580.27 5617.46-2590.04L5617.46-2590.04C5622.37-2595.45 5627.79-2600.48 5632.03-2606.37 5635.52-2611.22 5639.66-2612.94 5645.19-2612.67L5697.76-2612.67 5678.55-2590.17C5676.55-2587.91 5674.58-2585.65 5672.63-2583.38 5665.91-2576.95 5659.73-2569.99 5654.14-2562.56 5650.38-2559.67 5647.22-2556.08 5644.83-2551.98 5639.11-2546.97 5634.03-2541.28 5629.69-2535.04 5627.46-2530.92 5617.58-2529.41 5623.34-2522.74 5644.21-2498.55 5665.81-2475 5687.13-2451.2L5700.03-2434.78C5679.22-2434.78 5660.03-2434.73 5640.75-2434.83 5637.19-2434.83 5635.8-2438.21 5633.83-2440.43 5622.32-2453.38 5610.91-2466.43 5599.47-2479.43 5595.69-2482.25 5593.84-2487.1 5589.27-2489.1L5580.59-2479.1C5569.05-2465.9 5557.38-2452.81 5546.06-2439.43 5543.2-2436.04 5540.31-2434.53 5535.87-2434.59 5518.31-2434.79 5500.75-2434.67 5481.87-2434.67L5495.3-2451.42C5499.63-2454.92 5503.36-2459.1 5506.37-2463.78 5511.49-2468.28 5516.03-2473.39 5519.89-2479.01 5525.14-2483.95 5530.16-2489.08 5534.18-2495.11 5537.72-2497.91 5540.76-2501.29 5543.18-2505.11 5546.08-2508.11 5549.09-2511.04 5551.88-2514.11 5561.21-2524.56 5561.18-2524.59 5551.24-2534.78 5545.59-2541.32 5540.54-2548.4 5533.69-2553.85L5531.5-2556.85C5530.58-2558.77 5528.97-2560.27 5526.99-2561.06L5527.14-2560.9C5521.27-2569.96 5513.81-2577.63 5505.99-2584.99 5504.91-2587.41 5503.47-2589.4 5500.84-2590.19Z" fill="#0270CF" transform="translate(-5097 2841.79)"/><path d="M5873.66-2562.27C5874.61-2552.44 5873.94-2542.51 5871.66-2532.9L5865.66-2519.83 5854.59-2506.91 5839.7-2497.78C5830.06-2494.87 5820.16-2492.92 5810.14-2491.94L5785.8-2491.94C5776.95-2492.05 5768.1-2492.09 5759.26-2492.3 5756.12-2492.37 5754.16-2492.08 5754.26-2488.01 5754.47-2475.83 5753.26-2463.64 5754.48-2451.46 5753.09-2445.83 5756.21-2439.68 5752.48-2434.31L5728.48-2434.31 5706.35-2435.07 5706.08-2453.22 5706.08-2588.38C5706.19-2588.98 5706.28-2589.58 5706.32-2590.19 5706.53-2597.19 5704.11-2606.19 5707.59-2610.54 5711.73-2615.68 5721.33-2611.29 5728.45-2612.62L5784-2612.62 5811.88-2612.62C5820.59-2612.51 5828.94-2610.23 5837.35-2608.33 5857.64-2599.37 5870.25-2584.44 5873.66-2562.27ZM5782.31-2571.39 5758-2571.39C5756-2571.87 5754.11-2571.72 5754.09-2569.16 5753.99-2558.16 5754.03-2547.16 5754.03-2536.16 5754.03-2532.31 5756.92-2532.95 5759.28-2532.94 5769.41-2532.94 5779.57-2532.51 5789.68-2533 5796.48-2533.33 5803.57-2530.72 5810.1-2534.59 5819.99-2535.24 5826.19-2541.65 5826.52-2551.59 5827-2562.16 5818.82-2571.11 5808.25-2571.58 5808.18-2571.58 5808.11-2571.59 5808.04-2571.59 5799.48-2572 5790.89-2571.48 5782.31-2571.39Z" fill="#0270CF" transform="translate(-5097 2841.79)"/><path d="M5950.75-2612.6 5978.62-2612.6 6006.34-2612.45C6015.69-2610.33 6025.05-2608.23 6033.84-2604.26 6050.84-2593.73 6059.55-2578.13 6061.68-2558.55L6061.68-2553.24C6060.5-2547.05 6059.32-2540.86 6058.15-2534.67 6053.2-2523.69 6045.49-2514.18 6035.78-2507.05L6033.68-2506.05 6014.02-2498.32C6025.4-2485.9 6036.42-2473.61 6047.76-2461.62 6054.49-2454.5 6060.29-2446.47 6068.22-2440.48 6069.55-2439.48 6071.58-2438.26 6070.91-2436.13 6070.18-2433.78 6067.86-2434.62 6066.19-2434.62 6050.19-2434.55 6034.19-2434.89 6018.19-2434.42 6011.92-2434.23 6010.45-2439.83 6006.3-2441.99 6004.21-2445.85 6001.28-2449.18 5997.72-2451.74 5992.16-2459.74 5985.8-2467.15 5978.72-2473.84L5973.65-2479.48C5972.37-2483.08 5969.09-2485.11 5966.88-2487.97 5962.78-2493.3 5959.11-2499.38 5950.69-2496.14 5948.33-2497.16 5945.64-2497.07 5943.35-2495.91 5942.12-2495.73 5941.77-2495.11 5942.35-2494 5942.47-2489.08 5942.59-2484.16 5942.7-2479.25 5941.54-2469.95 5941.54-2460.55 5942.7-2451.25 5941.22-2435.01 5941.23-2434.82 5924.42-2434.67 5914.71-2434.59 5901.8-2430.24 5896.22-2436.43 5891.4-2441.77 5894.58-2454.43 5894.51-2463.89 5894.25-2496.65 5894.13-2529.41 5893.95-2562.17 5895.12-2571.47 5895.12-2580.87 5893.95-2590.17L5895.15-2612.3 5923-2612.57ZM5943.38-2536.92 5952.5-2536.78 5976.85-2536.78C5981.97-2536.69 5987.09-2536.54 5992.21-2536.52 5997.61-2536.52 6003.16-2536.17 6006.49-2541.8 6013.49-2544.86 6014.3-2550.89 6013.11-2557.18 6011.48-2565.81 6005.27-2570.34 5996.99-2571.36 5990.93-2572.1 5984.71-2571.48 5978.55-2571.46L5950.82-2571.41C5942.37-2573.41 5940.5-2569.59 5942.74-2562.21 5942.63-2554.21 5942.52-2546.24 5942.4-2538.31 5941.68-2537.11 5942.28-2536.84 5943.38-2536.92Z" fill="#0270CF" transform="translate(-5097 2841.79)"/><path d="M6226.93-2475.67C6234.86-2476.85 6237.25-2473.55 6236.65-2465.67 6235.88-2455.43 6236.48-2445.08 6236.5-2434.78 6188.5-2434.78 6140.5-2434.9 6092.5-2434.66 6086.98-2434.66 6085.6-2436.47 6085.99-2441.41 6086.09-2444.78 6086.02-2448.15 6085.76-2451.51L6085.76-2590.09C6085.86-2595.6 6086.05-2601.09 6086.05-2606.64 6086.05-2609.5 6085.8-2612.31 6089.77-2612.64L6228.63-2612.64C6234.49-2613.07 6237.52-2611.16 6236.72-2604.51 6236.15-2599.76 6236.82-2594.85 6236.94-2590.02 6236.78-2587.27 6236.07-2584.43 6236.55-2581.81 6238.02-2573.81 6234.93-2570.48 6226.94-2571.43L6200.86-2571.5 6145.28-2571.5C6138.34-2572.4 6131.28-2573.5 6134.08-2562.4 6132.46-2543.17 6132.46-2543.17 6145.34-2544.14L6173.07-2544.08 6200.92-2544.14 6228.65-2544.08C6236.57-2544.64 6233.47-2538.34 6234.55-2534.64L6234.55-2507C6234.46-2502.88 6231.27-2503.39 6228.65-2503.05L6173.07-2503.05 6145.35-2503 6135.94-2503C6134.73-2503.14 6133.99-2502.75 6134.11-2501.39 6133.28-2494.64 6133.28-2487.8 6134.11-2481.05 6133.38-2477.7 6133.57-2475.05 6138.11-2475.36 6141.11-2475.57 6144.06-2475.59 6147.04-2475.69L6226.9-2475.69Z" fill="#0270CF" transform="translate(-5097 2841.79)"/><path d="M6595.21-2506.85 6595.56-2479.19 6588.15-2460.68 6580.89-2451.42 6563.66-2439.88C6550.66-2435.39 6537.32-2434.25 6523.66-2434.4 6498.09-2434.67 6472.51-2435.04 6446.96-2434.4 6437.61-2434.17 6434.9-2437.47 6436.1-2445.94 6436.31-2448.38 6436.36-2450.83 6436.25-2453.27 6436.42-2456.27 6436.72-2459.27 6436.74-2462.22 6436.82-2474.75 6436.74-2474.75 6449.23-2475.64 6477.31-2475.54 6505.4-2475.32 6533.49-2475.41 6542.66-2475.41 6548.44-2480.67 6548.77-2488.22 6549.12-2496.22 6544.3-2501.17 6534.4-2502.88L6506.53-2502.98 6478.76-2503.3C6476.4-2503.93 6473.89-2504.22 6471.76-2505.3 6466.04-2508.01 6458.76-2506.43 6453.95-2510.78 6446.3-2517.69 6439.01-2525.1 6434.64-2534.78 6433.82-2538.44 6433-2542.11 6432.17-2545.78L6431.96-2547.66C6431.72-2552.56 6431.49-2557.45 6431.26-2562.34 6432.98-2572.19 6436.53-2581.63 6441.71-2590.18L6451.01-2599.46C6459.56-2604.95 6468.99-2608.92 6478.9-2611.19L6506.55-2612.66 6590-2612.66C6592.68-2611.74 6591.84-2610 6591-2608.25 6586-2597.37 6581.07-2586.46 6576-2575.61 6572.5-2568.11 6565.38-2573.61 6560.37-2571.44L6534.29-2571.51 6506.56-2571.46C6496.81-2571.33 6485.73-2575.17 6480.16-2562.62 6478.01-2551.89 6482.45-2545.08 6492.76-2544.03 6497.29-2543.57 6501.92-2544.03 6506.5-2544.09L6534.34-2544.09 6559.83-2541.76 6573.37-2536.55C6579.54-2531.85 6585.06-2526.36 6589.79-2520.22Z" fill="#0270CF" transform="translate(-5097 2841.79)"/></svg>