<svg viewBox="0 0 3508.98 1139.93" xmlns="http://www.w3.org/2000/svg" xmlns:xlink="http://www.w3.org/1999/xlink" id="Capa_1" overflow="hidden"><defs></defs><path d="M1901.38-1766.39C1904.75-1778.51 1909.54-1788.01 1913.59-1797.74 1946.92-1878 1980.35-1958.22 2013.86-2038.4 2051.59-2129.07 2089.26-2219.79 2126.86-2310.56 2155.24-2378.81 2183.7-2447.02 2212.24-2515.21 2247.86-2600.67 2283.45-2686.13 2319-2771.6 2327.5-2792 2338.06-2811.15 2352.52-2828.04 2372.81-2851.74 2398.75-2864.41 2429.38-2868.2 2440.98-2869.64 2452.63-2869.51 2464.28-2869.51 2534.28-2869.51 2604.28-2869.51 2674.28-2869.51 2675.28-2869.51 2676.28-2869.51 2677.28-2869.51 2691.07-2869.35 2688.8-2870.51 2691.61-2857.31 2697.61-2829.31 2703.22-2801.24 2709.06-2773.22 2724.96-2696.97 2740.87-2620.72 2756.8-2544.49 2772.21-2470.49 2787.59-2396.51 2802.96-2322.55 2818.25-2249.22 2833.58-2175.91 2848.96-2102.64 2864.89-2026.04 2880.75-1949.43 2896.53-1872.8 2903.15-1840.86 2909.82-1808.93 2916.53-1777.01 2918.73-1766.45 2918.69-1766.4 2907.25-1766.4 2851.25-1766.4 2795.25-1766.4 2739.25-1766.4 2714.58-1766.4 2689.92-1766.4 2665.25-1766.4 2655.58-1766.4 2655.54-1766.47 2653.58-1775.74 2643.16-1824.92 2632.53-1874.05 2622.58-1923.31 2620.29-1934.63 2617.82-1932.91 2610-1932.92 2569.67-1932.92 2529.34-1932.92 2489-1932.92L2273-1932.92C2270-1932.92 2267-1932.69 2264-1932.92 2258.46-1933.42 2255.73-1931.11 2253.93-1925.73 2244.86-1898.57 2235.39-1871.54 2226.04-1844.47 2217.78-1820.55 2209.38-1796.66 2201.3-1772.68 2199.79-1768.19 2197.65-1765.8 2192.78-1766.33 2191.11-1766.42 2189.45-1766.42 2187.78-1766.33L1901.38-1766.33ZM2340-2159C2344.31-2156.48 2347.72-2157.14 2351-2157.14 2422.24-2157.14 2493.48-2157.14 2564.72-2157.14 2567.05-2157.14 2569.39-2157.14 2571.72-2157.31 2574.51-2157.49 2576.02-2158.87 2575.46-2161.86 2575.15-2163.5 2574.82-2165.13 2574.46-2166.76 2565.79-2207.43 2557.13-2248.09 2548.46-2288.76 2530.26-2373.99 2512.03-2459.22 2493.77-2544.45 2492.13-2552.09 2491.56-2560.09 2487.22-2569.06Z" fill="#0B31CB" transform="translate(591.33 2887.7)"/><path d="M148.5-2123.77C152.8-2134.52 157.14-2145.25 161.4-2156.02 192.007-2233.45 222.607-2310.88 253.2-2388.33 283.793-2465.78 314.393-2543.18 345-2620.53 376.427-2700.12 407.827-2779.72 439.2-2859.34 443.34-2869.84 441.86-2869.5 454.26-2869.51L726.26-2869.51C743.26-2869.51 742.09-2870.68 735.48-2854.79 706.387-2785.02 677.227-2715.29 648-2645.6 616-2569.11 584.03-2492.62 552.09-2416.13 510.09-2315.67 468.13-2215.2 426.21-2114.73 387.81-2022.88 349.37-1931.05 310.89-1839.23 301.77-1817.43 292.57-1795.66 283.84-1773.7 281.62-1768.12 278.64-1766.27 272.76-1766.28 178.44-1766.44 84.1233-1766.48-10.19-1766.41-18.54-1766.41-18.56-1766.53-20.7-1774.77-40.42-1850.82-60.1367-1926.87-79.85-2002.93-101.95-2088.31-124.067-2173.71-146.2-2259.14-163.64-2326.47-181.087-2393.81-198.54-2461.14-215.82-2527.5-233.227-2593.83-250.76-2660.14-254.445-2674.35-260.243-2687.93-267.96-2700.42-279.96-2719.68-297.38-2732.8-316.7-2743.77-337.33-2755.49-359.47-2763.77-381.45-2772.51-430.665-2792.08-481.164-2808.25-532.59-2820.92-549.4-2825.04-566.37-2828.47-583.23-2832.4-591.5-2834.33-592.57-2832.4-590.29-2843.4-589.21-2848.61-588.57-2853.91-587.68-2859.16-585.94-2869.35-585.92-2869.42-575.87-2869.45-555.55-2869.51-535.217-2869.51-514.87-2869.45-380.557-2869.45-246.25-2869.42-111.95-2869.35-88.09-2869.35-65.01-2865.02-43.43-2854.06-9.3-2836.72 12.13-2809.19 22.05-2772.59 28.05-2750.41 31.05-2727.59 35.48-2705.03 46.18-2650.16 56.38-2595.2 66.79-2540.27 79.19-2474.88 91.59-2409.49 103.99-2344.1 117.397-2273.48 130.83-2202.86 144.29-2132.25 144.84-2129.34 145.75-2126.51 146.49-2123.64Z" fill="#0B31CB" transform="translate(591.33 2887.7)"/><path d="M1917-2605.62C1900.14-2612.77 1884.58-2619.5 1868.56-2625.08 1823.08-2640.93 1776.46-2651.58 1728.45-2655.85 1697.54-2658.6 1666.64-2659.01 1635.89-2654.17 1603.2-2649.02 1572.2-2639.35 1546.56-2617.3 1528.62-2601.88 1517.08-2583.01 1518.56-2558.22 1519.61-2540.27 1528.63-2526.12 1540.37-2513.37 1554.05-2498.51 1570.65-2487.37 1587.6-2476.71 1613.02-2460.79 1639.69-2447.07 1666.15-2432.99 1713.82-2407.62 1761.06-2381.61 1803.29-2347.48 1834.67-2322.12 1861.83-2293.09 1881.74-2257.82 1903.11-2219.96 1913.74-2179.12 1914.61-2135.64 1915.26-2101.5 1912.25-2067.8 1903.68-2034.64 1890.4-1982.41 1864.3-1934.32 1827.75-1894.72 1783.61-1846.61 1729.53-1813.48 1669.17-1789.92 1621.17-1771.16 1571.27-1759.83 1520.17-1753.63 1488.09-1749.74 1455.88-1747.33 1423.6-1747.78 1365.34-1748.5 1307.28-1754.76 1250.21-1766.48 1205.14-1775.79 1160.86-1787.86 1117.87-1804.4 1105.6-1809.12 1105.49-1809.18 1108.25-1822.04 1122.56-1888.77 1136.89-1955.5 1151.25-2022.21 1153.13-2030.95 1154.85-2039.74 1156.65-2048.52 1161.25-2049.2 1164.12-2046.52 1167.22-2044.91 1227.82-2013.46 1292.05-1993.48 1359.56-1983.78 1391.56-1979.18 1423.74-1976.52 1456.07-1978.43 1500.92-1981.08 1543.91-1990.2 1580.51-2018.51 1597.51-2031.68 1610.18-2048.26 1615.51-2069.44 1622.66-2097.54 1613.44-2121.19 1594.65-2141.93 1577.46-2160.93 1556.57-2175.16 1534.87-2188.31 1500.96-2208.87 1465.53-2226.69 1430.93-2246.02 1390.45-2268.63 1351-2292.79 1315.93-2323.49 1273.58-2360.6 1242.23-2404.7 1229.18-2460.4 1222.82-2487.56 1221.83-2515.01 1223.59-2542.76 1225.32-2571.03 1230.67-2598.96 1239.51-2625.87 1255.66-2674.87 1282.62-2717.08 1319.23-2753.39 1355.84-2789.7 1398.63-2817.03 1445.7-2837.7 1506.7-2864.47 1570.63-2879.03 1636.86-2884.22 1658.07-2885.88 1679.3-2888.22 1700.58-2887.52 1761.21-2885.42 1821.38-2879.42 1880.47-2864.87 1906.37-2858.49 1931.99-2851.3 1957.02-2842.04 1957.33-2841.93 1957.66-2841.86 1957.97-2841.75 1967.53-2838.1 1967.63-2838.08 1965.47-2828.04 1957.4-2790.61 1949.29-2753.2 1941.15-2715.79 1933.96-2682.6 1926.78-2649.41 1919.62-2616.22 1919-2613 1918.13-2609.88 1917-2605.62Z" fill="#0B31CB" transform="translate(591.33 2887.7)"/><path d="M770.14-1766.39C726.48-1766.39 682.813-1766.39 639.14-1766.39 627.69-1766.39 627.49-1766.47 629.9-1777.86 641.173-1831.26 652.507-1884.65 663.9-1938.03 679.86-2013.24 695.817-2088.45 711.77-2163.66 730.263-2250.59 748.787-2337.51 767.34-2424.43 779.72-2482.71 791.82-2541.05 804.17-2599.34 819.083-2669.67 834.067-2739.98 849.12-2810.27 852.66-2826.88 856.12-2843.5 859.8-2860.08 861.86-2869.42 861.99-2869.47 871.41-2869.48 934.077-2869.48 996.743-2869.48 1059.41-2869.48L1132.41-2869.48C1134.74-2869.48 1137.08-2869.43 1139.41-2869.43 1143.27-2869.43 1144.89-2867.59 1144.15-2863.76 1143.15-2858.86 1142.3-2853.95 1141.27-2849.07 1122.93-2762.44 1104.58-2675.81 1086.21-2589.2 1069.86-2512.03 1053.5-2434.87 1037.13-2357.7 1012.92-2243.42 988.723-2129.13 964.53-2014.84 947.73-1935.39 930.96-1855.93 914.22-1776.45 912.11-1766.45 912.14-1766.39 902.15-1766.38 858.137-1766.36 814.133-1766.36 770.14-1766.39Z" fill="#0B31CB" transform="translate(591.33 2887.7)"/></svg>