<svg viewBox="0 0 971.8 755.31" xmlns="http://www.w3.org/2000/svg" xmlns:xlink="http://www.w3.org/1999/xlink" id="Capa_1" overflow="hidden"><defs></defs><path d="M5142.29-1091.37C5120.8-1073.69 5096.62-1059.54 5070.68-1049.45 4975.02-1012.4 4883.04-1020.45 4795.68-1074.28 4754.76-1099.48 4722.68-1133.81 4698.17-1175.22 4679.3-1206.97 4666.58-1241.99 4660.65-1278.45 4654.89-1313.33 4655.37-1348.95 4662.06-1383.66 4674.57-1449.07 4705.27-1504.26 4754.16-1549.23 4797.97-1589.64 4849.6-1614.87 4908.55-1624.23 4984.36-1636.23 5054.81-1621.48 5119.67-1580.38 5127.55-1575.41 5135.14-1569.97 5142.38-1564.11 5142.3-1563.84 5142.26-1563.56 5142.26-1563.28 5124.39-1549.44 5108.27-1533.46 5094.26-1515.72 5073.82-1490.28 5057.68-1461.67 5046.48-1431.02 5036.9-1404.82 5031.05-1377.41 5029.09-1349.58 5027.43-1327.05 5028.29-1304.41 5031.66-1282.07 5034.61-1262.56 5039.49-1243.39 5046.23-1224.84 5054.37-1202.3 5065.18-1180.81 5078.43-1160.84 5096.03-1134.55 5117.57-1111.12 5142.29-1091.37Z" fill="#EA001B" transform="translate(-4656.69 1628.31)"/><path d="M5142.29-1563.27C5142.29-1563.55 5142.33-1563.83 5142.41-1564.1 5157.21-1574.87 5172.25-1585.24 5188.52-1593.77 5236.52-1618.93 5287.63-1630.63 5341.66-1627.93 5416.99-1624.16 5481.99-1596.1 5536.66-1543.73 5569.22-1512.52 5593.25-1475.65 5609.35-1433.48 5624.3-1394.33 5629.99-1353.81 5628.17-1312.15 5626.64-1275.17 5617.99-1238.84 5602.68-1205.15 5574.6-1143.27 5530.78-1095.75 5471.05-1063.15 5420.79-1035.74 5366.83-1024.15 5309.84-1027.58 5248.84-1031.24 5194.08-1052.23 5145.41-1089.16 5144.67-1089.81 5143.97-1090.51 5143.32-1091.26 5143.76-1091.96 5144.28-1092.6 5144.87-1093.18 5157.39-1103.07 5169.04-1114.01 5179.69-1125.88 5191.43-1138.77 5202-1152.68 5211.28-1167.44 5223.07-1186.32 5232.75-1206.44 5240.13-1227.44 5251.03-1258.58 5256.23-1290.62 5257.28-1323.44 5257.52-1330.91 5256.76-1338.38 5256.55-1345.83 5256.23-1356.67 5254.55-1367.3 5252.84-1377.89 5249.3-1399 5243.49-1419.66 5235.51-1439.52 5227.58-1459.46 5217.53-1478.49 5205.51-1496.27 5191.99-1516.26 5176.09-1534.53 5158.15-1550.67 5153.19-1555.24 5148.86-1560.75 5142.29-1563.27Z" fill="#F69D1B" transform="translate(-4656.69 1628.31)"/><path d="M5142.29-1563.27C5148.86-1560.75 5153.19-1555.27 5158.15-1550.75 5176.09-1534.61 5191.99-1516.34 5205.51-1496.35 5217.53-1478.57 5227.58-1459.54 5235.51-1439.6 5243.49-1419.74 5249.3-1399.08 5252.84-1377.97 5254.57-1367.38 5256.23-1356.75 5256.55-1345.91 5256.76-1338.46 5257.55-1330.99 5257.28-1323.52 5256.23-1290.7 5251.03-1258.66 5240.13-1227.52 5232.75-1206.52 5223.07-1186.4 5211.28-1167.52 5202-1152.76 5191.43-1138.85 5179.69-1125.96 5169.04-1114.09 5157.39-1103.15 5144.87-1093.26 5144.28-1092.68 5143.76-1092.04 5143.32-1091.34L5142.32-1091.34C5117.62-1111.09 5096.1-1134.53 5078.52-1160.82 5065.27-1180.79 5054.46-1202.28 5046.32-1224.82 5039.58-1243.37 5034.7-1262.54 5031.75-1282.05 5028.38-1304.39 5027.52-1327.03 5029.18-1349.56 5031.14-1377.39 5036.99-1404.8 5046.57-1431 5057.77-1461.65 5073.91-1490.26 5094.35-1515.7 5108.34-1533.44 5124.44-1549.42 5142.29-1563.27Z" fill="#FE5A00" transform="translate(-4656.69 1628.31)"/><path d="M4722.55-946.21C4742.75-961.54 4756.72-960.6 4773-943.14 4782.5-955.56 4795.39-958.74 4810-955.83 4824-953.03 4832.65-942.16 4833.05-926.65 4833.47-910.51 4833.05-894.34 4833.23-878.19 4833.23-875.31 4832.03-874.92 4829.66-874.99 4825.5-875.2 4821.33-875.2 4817.17-874.99 4814.04-874.78 4813.29-875.81 4813.33-878.87 4813.51-892.36 4813.42-905.87 4813.39-919.34 4813.45-921.169 4813.34-922.999 4813.08-924.81 4811.15-935.58 4805.14-940.71 4795.16-940.24 4785.18-939.77 4777.71-933.31 4777.27-923.09 4776.65-908.79 4776.74-894.45 4776.92-880.14 4776.97-876 4775.92-874.53 4771.75-874.99 4767.8-875.43 4762.44-873.76 4760.18-875.79 4757.52-878.16 4759.49-883.61 4759.35-887.71 4758.9-900.35 4760.29-913.04 4758.59-925.62 4757.28-935.32 4751.22-940.31 4741.59-940.25 4731.73-940.18 4724.83-934.59 4723.24-925.42 4721.84-917.3 4722.73-909.13 4722.56-900.99 4722.41-893.657 4722.41-886.323 4722.56-878.99 4722.63-876.11 4722.17-874.63 4718.83-874.99 4714.41-875.47 4708.68-873.21 4705.83-875.88 4703.2-878.35 4705.09-884.07 4705.08-888.36 4705-909.18 4705.08-930 4704.97-950.81 4704.97-954.15 4705.59-955.72 4709.27-955.29 4711.92-954.933 4714.62-954.933 4717.27-955.29 4721.88-955.99 4723.27-954.07 4722.53-949.84 4722.45-948.631 4722.46-947.418 4722.55-946.21Z" fill="#030303" transform="translate(-4656.69 1628.31)"/><path d="M5564.27-945.86C5564.27-958.77 5564.36-970.72 5564.2-982.68 5564.2-985.79 5564.76-987.34 5568.2-986.92 5572.61-986.4 5578.51-988.84 5581.07-985.92 5583.25-983.38 5581.84-977.68 5581.85-973.38 5581.85-942.22 5581.79-911.07 5581.95-879.92 5581.95-876 5581-874.39 5577.02-875.04 5575.86-875.135 5574.69-875.135 5573.53-875.04 5564.7-875.04 5564.7-875.04 5563.81-883.86 5555.81-874.56 5545.53-872.45 5534.38-873.63 5524.64-874.536 5515.64-879.238 5509.33-886.72 5495.2-903.16 5496.09-930.27 5510.67-945.11 5523.06-957.67 5548.09-962.8 5564.27-945.86ZM5542.15-889.27C5555.26-889.19 5566.01-900.56 5566.2-914.73 5566.4-929.52 5555.98-940.8 5541.99-940.95 5528-941.1 5517.53-930.17 5517.5-915.13 5517.46-900.51 5528.1-889.36 5542.15-889.27Z" fill="#040404" transform="translate(-4656.69 1628.31)"/><path d="M4913.75-883.89C4900.59-870.7 4885.47-870.42 4869.92-878.1 4852.64-886.63 4845.44-906.81 4849.78-925.34 4854.78-946.64 4872.44-958.72 4893.78-956.46 4899.78-955.83 4901.71-954.84 4913.78-946.34 4914.99-949.14 4912.63-953.34 4914.98-954.63 4917.6-956.02 4921.43-955.12 4924.74-955.2 4925.74-955.135 4926.74-955.135 4927.74-955.2 4930.93-955.72 4931.58-954.27 4931.56-951.3 4931.45-927.18 4931.41-903.05 4931.56-878.92 4931.56-875.37 4930.32-874.61 4927.29-874.92 4926.29-874.985 4925.29-874.985 4924.29-874.92 4914.79-875 4914.79-875 4913.75-883.89ZM4866.35-915.33C4866.35-900.49 4876.65-889.43 4890.72-889.27 4904.18-889.11 4914.72-900.44 4914.79-915.03 4914.79-930.03 4904.52-941.03 4890.45-940.96 4876.38-940.89 4866.39-930.17 4866.35-915.33Z" fill="#030303" transform="translate(-4656.69 1628.31)"/><path d="M5402.85-883.8C5390.77-871.28 5376.34-870.6 5361.64-876.91 5346.13-883.57 5338.78-896.6 5338.16-913.25 5337.16-939.93 5356.7-958.91 5382.39-956.53 5390.09-955.864 5397.22-952.214 5402.26-946.36 5402.64-946.57 5403.13-946.7 5403.15-946.86 5403.72-955.21 5403.72-955.21 5412.51-955.21 5420.51-955.21 5420.51-955.21 5420.51-947.09 5420.51-924.61 5420.43-902.09 5420.59-879.67 5420.59-876.12 5420-874.27 5416.06-875 5415.06-875.091 5414.06-875.091 5413.06-875 5403.76-875 5403.76-875 5402.85-883.8ZM5356.38-915C5356.38-900.36 5367.09-889.22 5381.1-889.25 5394.46-889.25 5405.18-900.97 5405.01-915.34 5404.84-930.02 5394.51-940.89 5380.69-940.94 5366.56-941 5356.37-930.14 5356.38-915Z" fill="#030303" transform="translate(-4656.69 1628.31)"/><path d="M5124.88-907.59C5126.99-894.18 5138.64-886.49 5152.97-888.79 5158.75-889.607 5164.27-891.734 5169.11-895.01 5171.11-896.39 5172.43-896.59 5173.82-894.31 5175.54-891.483 5177.39-888.73 5179.36-886.05 5180.5-884.51 5179.84-883.86 5178.6-882.93 5162.72-870.93 5131.5-868.05 5115.6-887.77 5104.52-901.48 5104.12-928.49 5115.41-942.28 5127.41-956.96 5148.55-961.35 5165.02-952.46 5176.74-946.12 5181.68-935.39 5183.39-922.84 5183.91-919.08 5183.39-915.19 5183.74-911.38 5183.98-908.29 5182.94-907.48 5179.85-907.51 5163.38-907.67 5146.85-907.59 5130.42-907.59ZM5146.36-922.59C5151.69-922.59 5157.03-922.88 5162.36-922.51 5167.09-922.17 5167.22-924.22 5165.98-927.72 5162.58-937.35 5155.9-942.05 5145.98-941.72 5136.06-941.39 5129.19-935.87 5126.12-926.55 5124.84-922.67 5126.29-922.47 5129.38-922.55 5135-922.69 5140.71-922.58 5146.36-922.58Z" fill="#040404" transform="translate(-4656.69 1628.31)"/><path d="M4979-873.43C4968.97-873.602 4959.15-876.324 4950.47-881.34 4948.13-882.72 4946.79-883.65 4949.14-886.45 4951.49-889.25 4952.64-894.2 4955.57-895.66 4958.32-897.04 4961.69-892.84 4965.06-891.66 4973.39-888.73 4981.82-887.4 4990.57-889.3 4993.37-889.789 4995.98-891.034 4998.13-892.9 5002-896.45 5001.62-900.84 4997.13-903.48 4992.39-906.22 4987.07-906.83 4981.75-907.32 4975.77-907.739 4969.9-909.127 4964.36-911.43 4956.02-915.08 4950.86-921.19 4950.72-930.52 4950.59-939.67 4954.48-946.86 4962.51-951.62 4973.22-957.95 4984.83-957.47 4996.51-956.01 5002.3-955.27 5007.91-953.513 5013.09-950.82 5015.57-949.54 5017.04-948.26 5015.09-945.21 5013.14-942.16 5012.24-937.37 5009.46-935.49 5006.68-933.61 5003.07-937.49 4999.66-938.4 4992.66-940.25 4985.79-941.9 4978.5-940.5 4975.85-940.11 4973.38-938.937 4971.4-937.13 4967.97-933.82 4968.62-929.04 4972.86-926.82 4976.16-925.09 4979.86-924.71 4983.48-924.35 4989.62-923.74 4995.73-923.06 5001.58-920.91 5012.28-916.97 5018.12-909.91 5018.44-900.35 5018.77-890.1 5012.99-881.72 5002.58-877.28 4995.77-874.4 4988.73-873.41 4979-873.43Z" fill="#040404" transform="translate(-4656.69 1628.31)"/><path d="M5090.9-893.91C5092.3-889.84 5093.6-885.91 5095-882.06 5095.75-880.06 5095.51-878.73 5093.28-877.75 5083.7-873.51 5073.83-871.95 5063.6-874.63 5052.6-877.51 5046.79-886.63 5046.52-901.38 5046.31-912.713 5046.31-924.047 5046.52-935.38 5046.58-938.71 5045.58-939.61 5042.37-939.38 5038.75-939.16 5033.37-938.12 5031.88-939.96 5029.98-942.36 5031.41-947.26 5031.01-951.04 5030.61-954.82 5032.2-955.32 5035.5-955.28 5046.43-955.14 5046.34-955.28 5046.5-966.28 5046.55-970.54 5044.58-976.21 5047.41-978.66 5049.82-980.75 5055.36-979.02 5059.46-979.44 5063.56-979.86 5064.61-978.44 5064.35-974.52 5064.01-969.38 5064.44-964.19 5064.2-959.04 5064.06-956.04 5064.79-955.04 5068-955.11 5075-955.37 5082-955.11 5089-955.24 5091.54-955.24 5092.39-954.62 5092.49-951.93 5092.95-939.29 5093.04-939.29 5080.49-939.29 5076.33-939.29 5072.15-939.06 5068.01-939.37 5064.75-939.61 5064.18-938.37 5064.23-935.37 5064.39-924.55 5064.23-913.72 5064.31-902.9 5064.39-893.3 5068.31-889.74 5077.95-890.14 5082.47-890.39 5086.59-892.06 5090.9-893.91Z" fill="#040404" transform="translate(-4656.69 1628.31)"/><path d="M5301.6-873.35C5284.1-873.61 5269.81-880.01 5262.6-896.7 5255.02-914.2 5257.31-930.93 5270.6-945.17 5283.49-958.96 5312.2-960.89 5327.47-949.47 5329.02-948.31 5330.03-947.34 5328.47-945.47 5328.31-945.178 5328.17-944.877 5328.04-944.57 5325.94-941.2 5324.56-936.52 5321.51-934.82 5318.46-933.12 5315.17-937.58 5311.71-938.82 5298.57-943.65 5284.24-938.87 5279.12-927.57 5272.79-913.57 5276.87-897.89 5288.84-891.88 5299.01-886.78 5309.02-888.69 5318.22-894.57 5321.09-896.41 5322.12-895.76 5323.38-893.33 5324.22-891.7 5325.1-890.1 5326.05-888.54 5330.27-881.54 5331.5-883.01 5323.24-878.17 5316.64-874.37 5309.25-873.23 5301.6-873.35Z" fill="#040404" transform="translate(-4656.69 1628.31)"/><path d="M5220.62-945.78C5228.49-956.98 5239.01-957.66 5250.2-956.61 5252.69-956.38 5252.9-955.39 5252.29-953.48 5251.04-949.48 5249.7-945.62 5248.59-941.64 5248.15-940.01 5247.59-939.27 5245.89-939.96 5245.56-940.062 5245.23-940.135 5244.89-940.18 5226.81-944.37 5220.03-934.18 5220.32-919.18 5220.58-905.87 5220.32-892.55 5220.45-879.24 5220.45-876.07 5219.78-874.77 5216.45-875.07 5213.12-875.366 5209.78-875.366 5206.45-875.07 5203.2-874.79 5202.65-876.13 5202.67-879.07 5202.78-903.203 5202.78-927.333 5202.67-951.46 5202.67-954.53 5203.5-955.73 5206.6-955.33 5208.27-955.224 5209.94-955.224 5211.6-955.33 5220.19-955.29 5220.19-955.29 5220.62-945.78Z" fill="#040404" transform="translate(-4656.69 1628.31)"/><path d="M5462.25-946.24C5469.32-956.93 5479.95-957.72 5491.3-956.54 5493.7-956.29 5494.73-955.65 5493.38-953.24 5493.23-952.941 5493.12-952.625 5493.05-952.3 5491.83-948.35 5491.68-943.37 5489.11-940.74 5486.54-938.11 5481.81-941.35 5477.95-941.21 5467.95-940.84 5461.59-933.69 5461.44-921.96 5461.26-907.82 5461.26-893.68 5461.44-879.54 5461.44-876.19 5460.85-874.72 5457.16-875.07 5453.06-875.47 5447.64-873.79 5445.16-875.86 5442.49-878.05 5444.37-883.66 5444.36-887.76 5444.27-908.55 5444.42-929.35 5444.22-950.14 5444.22-954.07 5444.81-956.07 5449.22-955.34 5451.21-955.032 5453.23-955.032 5455.22-955.34 5459.97-956.01 5462.5-954.69 5461.46-949.34 5461.02-948.245 5461.34-946.991 5462.25-946.24Z" fill="#030303" transform="translate(-4656.69 1628.31)"/></svg>