<svg viewBox="0 0 388.59 703.62" xmlns="http://www.w3.org/2000/svg" xmlns:xlink="http://www.w3.org/1999/xlink" id="Layer_1" overflow="hidden"><defs></defs><path d="M-2948.43 200.4C-2948.43 200.4-2941.34 241.86-2941.06 242.4-2940.78 242.94-2943.65 247.34-2943.65 247.34L-2954.84 249.34-2965.05 244.64C-2965.05 244.64-2970.95 211.22-2972.05 206.02-2973.15 200.82-2948.43 200.4-2948.43 200.4Z" fill="#FE906D" transform="translate(3237.91 430.65)"/><path d="M-2965 244.62C-2965 244.62-2952.11 249.13-2941.08 241.62-2941.08 241.62-2898.15 257.71-2899.46 269.95-2899.46 269.95-2897.63 273.6-2916.23 272.81-2934.83 272.02-2963.75 271.19-2964.53 270.81-2965.31 270.43-2969 272.35-2965 244.62Z" fill="#003160" transform="translate(3237.91 430.65)"/><path d="M-3075.93 200.4C-3075.93 200.4-3086.87 241.86-3086.59 242.4-3086.31 242.94-3089.18 247.34-3089.18 247.34L-3100.37 249.34-3110.58 244.64C-3110.58 244.64-3105.01 210.54-3106.08 205.34-3107.15 200.14-3075.93 200.4-3075.93 200.4Z" fill="#FE906D" transform="translate(3237.91 430.65)"/><path d="M-3110.58 244.62C-3110.58 244.62-3097.69 249.13-3086.66 241.62-3086.66 241.62-3043.72 257.71-3045.03 269.95-3045.03 269.95-3043.21 273.6-3061.81 272.81-3080.41 272.02-3109.33 271.19-3110.1 270.81-3110.87 270.43-3114.52 272.35-3110.58 244.62Z" fill="#003160" transform="translate(3237.91 430.65)"/><path d="M-2960-58.73-2937.52 225-2976.08 225C-2976.08 225-3016.83 0.79-3022.62-0.19-3028.41-1.17-3069.7 225-3069.7 225L-3113.95 225-3091.33-66.06Z" fill="#00B4E5" transform="translate(3237.91 430.65)"/><path d="M-3047-279.8C-3047-279.8-2988.12-272.89-2975.67-264.37-2977.32-228.62-2949.42-53.3-2949.42-53.3-2949.42-53.3-3035.32-27.1-3098.25-53.3L-3101.53-115.56C-3101.53-115.56-3098.37-224.39-3110.62-263.62-3090.26-269.43-3047-279.8-3047-279.8Z" fill="#DDE7FE" transform="translate(3237.91 430.65)"/><path d="M-3015.94-333C-3015.94-333-3013.7-337.15-3011.5-335.74-3005.91-332.16-3010.66-326.45-3014.04-324.97Z" fill="#CF7559" transform="translate(3237.91 430.65)"/><path d="M-3016.09-347.51-3016.09-347.51C-3016.09-347.92-3016.14-348.34-3016.18-348.75-3017.78-366.384-3033.37-379.382-3051.01-377.783-3051.73-377.716-3052.46-377.626-3053.18-377.51-3068.67-374.992-3080.08-361.663-3080.18-345.97-3080.2-340.442-3078.79-335.002-3076.09-330.18-3072.45-322.98-3069.27-316.82-3066.03-311.76-3060.69-303.363-3058.24-293.457-3059.03-283.54L-3059.63-275.74C-3039.05-267.08-3030.99-277.61-3030.99-277.61L-3031.91-291.74C-3032.03-293.574-3030.73-295.195-3028.91-295.48L-3028.91-295.48C-3004.72-299.28-3015.09-336.55-3016.09-347.51Z" fill="#FE906D" transform="translate(3237.91 430.65)"/><path d="M-3047.47-327.75C-3047.63-329.385-3049.07-330.589-3050.71-330.45-3052.35-330.292-3053.55-328.847-3053.41-327.21-3053.25-325.575-3051.81-324.371-3050.17-324.51-3048.53-324.668-3047.33-326.113-3047.47-327.75Z" fill="#21354E" transform="translate(3237.91 430.65)"/><path d="M-3021.53-335.45C-3021.69-337.085-3023.13-338.289-3024.77-338.15-3026.41-337.997-3027.62-336.544-3027.48-334.9-3027.32-333.26-3025.87-332.055-3024.23-332.2-3022.59-332.358-3021.39-333.809-3021.53-335.45Z" fill="#21354E" transform="translate(3237.91 430.65)"/><path d="M-3058.54-331.42C-3058.86-331.389-3059.17-331.444-3059.46-331.58-3060.33-332.002-3060.69-333.049-3060.27-333.918-3060.27-333.919-3060.27-333.919-3060.27-333.92-3059.01-336.54-3054.78-340.78-3047.82-338.06-3046.92-337.717-3046.47-336.712-3046.81-335.814-3046.82-335.809-3046.82-335.805-3046.82-335.8-3047.17-334.901-3048.18-334.454-3049.08-334.8-3054.8-337.03-3057.02-332.58-3057.08-332.39-3057.36-331.83-3057.92-331.461-3058.54-331.42Z" fill="#21354E" transform="translate(3237.91 430.65)"/><path d="M-3031.09-338.6C-3031.41-338.577-3031.72-338.636-3032.01-338.77-3032.88-339.192-3033.24-340.239-3032.82-341.108-3032.82-341.109-3032.82-341.109-3032.82-341.11-3031.56-343.73-3027.33-347.97-3020.37-345.25-3019.47-344.902-3019.02-343.889-3019.37-342.987-3019.37-342.985-3019.37-342.982-3019.37-342.98-3019.72-342.081-3020.73-341.634-3021.63-341.98-3027.35-344.22-3029.57-339.77-3029.63-339.57-3029.91-339.013-3030.47-338.645-3031.09-338.6Z" fill="#21354E" transform="translate(3237.91 430.65)"/><path d="M155.17 90.19 165.8 111.01 171.5 109.32 172.45 81.13 155.17 90.19Z" fill="#21354E"/><path d="M-3065.57-322.1C-3066.19-323.073-3067.15-323.784-3068.26-324.1-3070.54-324.79-3074.52-325.4-3076.95-322.49-3080.52-318.21-3071.68-308.49-3064.35-314.41-3064.35-314.44-3062.32-316.87-3065.57-322.1Z" fill="#FE906D" transform="translate(3237.91 430.65)"/><path d="M-3031.21-318.37C-3032.87-317.395-3034.89-317.273-3036.65-318.04-3036.9-318.173-3037-318.483-3036.88-318.74-3036.75-318.993-3036.44-319.095-3036.18-318.97-3034.19-318.099-3031.87-318.65-3030.48-320.32-3030.05-320.793-3029.84-321.153-3029.85-321.4-3029.85-321.76-3030.34-322.18-3030.98-322.76-3033.71-325.061-3035.54-328.246-3036.16-331.76-3036.22-332.039-3036.05-332.315-3035.77-332.38-3035.5-332.447-3035.22-332.279-3035.15-332.006-3035.15-332-3035.15-331.995-3035.15-331.99-3034.58-328.681-3032.86-325.68-3030.29-323.52-3029.49-322.8-3028.86-322.23-3028.82-321.44-3028.86-320.734-3029.18-320.074-3029.71-319.61-3030.15-319.131-3030.66-318.714-3031.21-318.37Z" fill="#CF7559" transform="translate(3237.91 430.65)"/><path d="M-3042.71-311.86C-3042.71-311.86-3030.45-311.48-3023.09-315.75-3023.09-315.75-3024.15-306.25-3031.09-304.87-3038.03-303.49-3042.71-311.86-3042.71-311.86Z" fill="#DDE7FE" transform="translate(3237.91 430.65)"/><path d="M-3022.36-359.45C-3022.36-359.45-3017.48-356.64-3014.58-337.36-3014.58-337.36-3014.99-359.11-3017.58-361.27-3020.17-363.43-3022.36-359.45-3022.36-359.45Z" fill="#21354E" transform="translate(3237.91 430.65)"/><path d="M-3074.41-380.54C-3068.04-387.69-3056.31-387.07-3048.73-392.93-3051.14-388.011-3054.45-383.58-3058.47-379.86L-3024.74-389.63C-3028.21-386.107-3032.02-382.932-3036.11-380.15-3027.34-379.402-3018.53-379.459-3009.77-380.32-3008.91-378.97-3009.48-377.2-3010.08-375.71-3013.37-367.58-3017.43-358.64-3025.56-355.35-3028.12-354.392-3030.83-353.868-3033.56-353.8-3044.33-353.22-3056.22-355.85-3065.12-349.8-3069.24-346.99-3074.36-337.22-3080.23-338.63-3085.44-339.85-3094.18-358.4-3074.41-380.54Z" fill="#21354E" transform="translate(3237.91 430.65)"/><rect x="149.47" y="223.62" width="106.5" height="37.26" fill="#00B4E5"/><path d="M-2895.17-374.3C-2895.17-374.3-2892.24-391.81-2890.68-397.97-2889.12-404.13-2892.18-411.26-2888.52-411.61-2884.86-411.96-2882.92-399.89-2882.92-399.89-2882.92-399.89-2874.38-409.61-2872.21-412.99-2870.04-416.37-2864.63-421.45-2862.03-420.05-2859.43-418.65-2870.98-403.12-2870.98-403.12-2870.98-403.12-2859.98-415.25-2857.29-414.47-2854.6-413.69-2866.36-396.22-2866.36-396.22-2866.36-396.22-2855.25-409.72-2853.45-410.02-2851.65-410.32-2851.2-408.02-2853.98-402.29-2855.95-398.42-2858.32-394.772-2861.07-391.41-2861.07-391.41-2852.54-400.32-2851.15-401.03-2849.76-401.74-2847.31-401.7-2852.32-393.64-2857.33-385.58-2870.51-370.17-2880.51-365.11Z" fill="#FE906D" transform="translate(3237.91 430.65)"/><path d="M-3030.85-278C-3005.85-279.84-2970.44-315.06-2957.79-327.52-2939.3-345.74-2896.09-383.52-2896.09-383.52L-2873.23-367.37C-2873.23-367.37-2947.87-259.54-2977.42-233.61-3006.97-207.68-3030.85-278-3030.85-278Z" fill="#003160" transform="translate(3237.91 430.65)"/><path d="M177.43 154.37 190.09 395.87 128.87 398.51 125.36 168.17 177.43 154.37Z" fill="#003160"/><path d="M-3030.85-278.22-2986.5-41.66-2942.97-45.47-2975.63-264.37C-2975.63-264.37-2987.82-275.48-3030.85-278.22Z" fill="#003160" transform="translate(3237.91 430.65)"/><path d="M-3187.55-385.11C-3187.55-385.11-3194.11-401.6-3196.93-407.3-3199.75-413-3198.26-420.61-3201.93-420.18-3205.6-419.75-3204.93-407.54-3204.93-407.54-3204.93-407.54-3215.32-415.24-3218.16-418.09-3221-420.94-3227.35-424.76-3229.6-422.85-3231.85-420.94-3217.28-408.19-3217.28-408.19-3217.28-408.19-3230.6-417.72-3233.05-416.4-3235.5-415.08-3220.34-400.46-3220.34-400.46-3220.34-400.46-3234.05-411.32-3235.87-411.23-3237.69-411.14-3237.65-408.82-3233.73-403.79-3230.99-400.425-3227.9-397.361-3224.51-394.65-3224.51-394.65-3234.71-401.56-3236.23-401.96-3237.75-402.36-3240.12-401.81-3233.52-394.96-3226.92-388.11-3210.8-375.85-3199.95-373.02Z" fill="#FE906D" transform="translate(3237.91 430.65)"/><path d="M-3080.49-204.47C-3105.78-209.21-3129.89-251.7-3160.75-291.87-3191.61-332.04-3207.94-374.62-3207.94-374.62L-3187.88-387.06C-3187.88-387.06-3077.77-276.28-3060.48-276.28Z" fill="#003160" transform="translate(3237.91 430.65)"/><path d="M-3082.52-355.48-3089.42-410.33-3049.79-374.66C-3049.79-374.66-3062.97-352.52-3082.52-355.48Z" fill="#88BC24" transform="translate(3237.91 430.65)"/><path d="M145.32 13.84 133.87 2.54 130.22 10.14 142.69 16.02 127.32 22.21 133.54 29.19 143.96 18.38 141.81 35.21 148.96 34.98 148.49 20.32 161.97 24.98 161.69 13.91 150.17 16.08 156.83 0 147.83 0.29 145.32 13.84 145.32 13.84Z" fill="#00B4E5"/><path d="M-3078.79-373C-3078.91-376.577-3076.1-379.572-3072.53-379.69-3072.52-379.69-3072.52-379.69-3072.52-379.69-3068.94-379.802-3065.95-376.997-3065.83-373.42-3065.72-369.843-3068.52-366.85-3072.1-366.73-3075.68-366.612-3078.67-369.416-3078.79-372.993-3078.79-372.995-3078.79-372.998-3078.79-373Z" fill="#00B4E5" transform="translate(3237.91 430.65)"/><path d="M-3082.66-385.9C-3082.59-383.644-3083.7-381.516-3085.6-380.29L-3087.05-391.81C-3084.5-390.946-3082.75-388.592-3082.66-385.9Z" fill="#00B4E5" transform="translate(3237.91 430.65)"/><path d="M-3070.55-386.3C-3074.13-386.188-3077.12-388.993-3077.24-392.57-3077.29-394.476-3076.49-396.306-3075.06-397.57L-3065.52-388.98C-3066.68-387.355-3068.53-386.358-3070.52-386.28Z" fill="#00B4E5" transform="translate(3237.91 430.65)"/></svg>