<svg viewBox="0 0 153.54 401.57" xmlns="http://www.w3.org/2000/svg" xmlns:xlink="http://www.w3.org/1999/xlink" id="Layer_1" overflow="hidden"><defs></defs><path d="M-2092.58-468.29C-2093.21-468.29-2093.73-468.797-2093.74-469.43-2093.75-470.065-2093.25-470.589-2092.61-470.6-2092.61-470.6-2092.6-470.6-2092.6-470.6-2070.87-470.84-2051.26-480-2040.1-495.1-2027.81-511.74-2027.81-535.96-2040.1-550.25-2043.46-553.905-2047.17-557.23-2051.16-560.18-2053.87-562.32-2056.67-564.52-2059.22-566.94-2067.01-574.32-2070.66-582.89-2069.22-590.46-2067.32-600.74-2057.66-606.32-2048.33-611.71-2039-617.1-2030.03-622.26-2028.71-631.71-2027.44-640.8-2034.45-648.97-2040.63-656.17L-2041.58-657.28C-2045.96-662.4-2055.49-675.48-2049.18-686.15-2046.59-690.51-2041.99-693.26-2037.54-695.92-2032.11-699.16-2026.98-702.21-2026.36-707.78-2026.34-708.365-2025.84-708.821-2025.26-708.798-2025.21-708.796-2025.15-708.79-2025.1-708.78-2024.48-708.697-2024.03-708.134-2024.1-707.51-2024.84-700.8-2030.71-697.3-2036.39-693.91-2040.59-691.4-2044.94-688.81-2047.23-684.91-2052.77-675.53-2043.91-663.47-2039.85-658.72L-2038.91-657.62C-2032.4-650.04-2025.03-641.46-2026.44-631.33-2027.93-620.77-2037.72-615.11-2047.2-609.64-2056.49-604.28-2065.27-599.22-2066.98-589.98-2068.76-580.34-2060.98-571.79-2057.62-568.56-2055.14-566.21-2052.39-564.04-2049.72-561.93-2045.6-558.893-2041.79-555.463-2038.34-551.69-2025.39-536.63-2025.34-511.13-2038.24-493.69-2049.82-478.02-2070.13-468.51-2092.57-468.26Z" fill="#21354E" transform="translate(2093.74 869.86)"/><path d="M-1941.35-784.87C-1934.31-824.131-1960.42-861.671-1999.68-868.72-2038.94-875.764-2076.49-849.645-2083.53-810.38-2090.53-771.12-2068.75-709.66-2029.53-702.61-1990.31-695.56-1948.44-745.61-1941.39-784.87Z" fill="#00B4E5" transform="translate(2093.74 869.86)"/><path d="M-2019.82-702C-2019.82-702-2012.82-694.05-2013.27-691.65-2013.72-689.25-2015.61-689.65-2021.92-690.32-2028.23-690.99-2024.92-691.32-2031.75-690.02-2038.58-688.72-2047.64-699.94-2047.64-699.94L-2036.43-704.94-2019.82-701.94Z" fill="#00B4E5" transform="translate(2093.74 869.86)"/></svg>