<svg viewBox="0 0 508.78 758.84" xmlns="http://www.w3.org/2000/svg" xmlns:xlink="http://www.w3.org/1999/xlink" id="Layer_1" overflow="hidden"><defs></defs><path d="M-1689.15-184C-1689.15-184-1698.48-198.61-1702.24-203.56-1706-208.51-1705.97-216.08-1709.41-214.99-1712.85-213.9-1709.95-202.31-1709.95-202.31-1709.95-202.31-1721.34-207.78-1724.58-209.99-1727.82-212.2-1734.63-214.68-1736.44-212.44-1738.25-210.2-1721.92-200.65-1721.92-200.65-1721.92-200.65-1736.45-207.33-1738.56-205.65-1740.67-203.97-1723.42-192.72-1723.42-192.72-1723.42-192.72-1738.58-200.6-1740.3-200.18-1742.02-199.76-1741.56-197.53-1736.88-193.44-1733.63-190.712-1730.1-188.341-1726.35-186.37-1726.35-186.37-1737.41-191.11-1738.94-191.22-1740.47-191.33-1742.64-190.36-1735.06-185.03-1727.48-179.7-1709.73-170.89-1698.8-170.18Z" fill="#FE906D" transform="translate(1965.85 470.58)"/><path d="M-1628.49 217.38C-1628.49 217.38-1635.41 257.87-1635.68 258.38-1635.95 258.89-1633.15 263.21-1633.15 263.21L-1622.22 265.21-1612.22 260.62C-1612.22 260.62-1606.46 227.98-1605.42 222.9-1604.38 217.82-1628.49 217.38-1628.49 217.38Z" fill="#FE906D" transform="translate(1965.85 470.58)"/><path d="M-1612.25 260.57C-1612.25 260.57-1624.84 264.98-1635.61 257.69-1635.61 257.69-1677.55 273.4-1676.27 285.36-1676.27 285.36-1678.05 288.92-1659.88 288.15-1641.71 287.38-1613.47 286.57-1612.71 286.15-1611.95 285.73-1608.4 287.65-1612.25 260.57Z" fill="#21354E" transform="translate(1965.85 470.58)"/><path d="M-1503.95 217.38C-1503.95 217.38-1493.26 257.87-1493.53 258.38-1493.8 258.89-1491 263.21-1491 263.21L-1480.08 265.21-1470.08 260.62C-1470.08 260.62-1475.52 227.31-1474.48 222.23-1473.44 217.15-1503.95 217.38-1503.95 217.38Z" fill="#FE906D" transform="translate(1965.85 470.58)"/><path d="M-1470.1 260.57C-1470.1 260.57-1482.7 264.98-1493.47 257.69-1493.47 257.69-1535.41 273.4-1534.12 285.36-1534.12 285.36-1535.91 288.92-1517.74 288.15-1499.57 287.38-1471.33 286.57-1470.57 286.15-1469.81 285.73-1466.25 287.65-1470.1 260.57Z" fill="#21354E" transform="translate(1965.85 470.58)"/><path d="M-1617.22-35.73-1639.13 241.39-1601.48 241.39C-1601.48 241.39-1561.67 22.39-1556.02 21.45-1550.37 20.51-1510.02 241.39-1510.02 241.39L-1466.81 241.39-1488.9-42.9Z" fill="#003160" transform="translate(1965.85 470.58)"/><path d="M-1514.8-249.48C-1514.8-249.48-1563.86-249.93-1586-235.48-1598.34-227.42-1612.8-96.66-1612.8-96.66L-1619.73-36.21C-1619.73-36.21-1546.55-4.47-1483.18-24.9L-1472.77-82.11C-1472.77-82.11-1444.51-224.84-1463.77-232.11-1483.03-239.38-1514.8-249.48-1514.8-249.48Z" fill="#00B4E5" transform="translate(1965.85 470.58)"/><path d="M-1541.21-306.24C-1541.21-306.24-1543.11-310.61-1545.44-309.37-1551.38-306.23-1547.07-300.09-1543.79-298.32Z" fill="#CF7559" transform="translate(1965.85 470.58)"/><path d="M-1539.84-320.88-1539.84-320.88C-1539.78-321.29-1539.72-321.7-1539.65-322.12-1536.57-339.746-1519.78-351.536-1502.15-348.452-1501.43-348.326-1500.71-348.175-1500-348-1484.62-344.17-1474.24-329.807-1475.43-314-1475.87-308.431-1477.75-303.071-1480.87-298.44-1485.14-291.44-1488.87-285.56-1492.54-280.73-1498.6-272.718-1501.89-262.948-1501.91-252.9L-1501.91-245C-1523.35-238-1530.59-249.27-1530.59-249.27L-1528.48-263.42C-1528.23-265.257-1529.41-266.985-1531.21-267.42L-1531.21-267.42C-1555.31-273.26-1541.76-309.92-1539.84-320.88Z" fill="#FE906D" transform="translate(1965.85 470.58)"/><path d="M-1509.89-298.36C-1509.61-299.993-1508.06-301.093-1506.43-300.815-1506.42-300.814-1506.41-300.812-1506.4-300.81-1504.77-300.533-1503.67-298.983-1503.94-297.35-1503.95-297.34-1503.95-297.33-1503.95-297.32-1504.23-295.687-1505.78-294.587-1507.41-294.865-1507.42-294.866-1507.43-294.868-1507.44-294.87-1509.07-295.147-1510.17-296.697-1509.9-298.33-1509.89-298.34-1509.89-298.35-1509.89-298.36Z" fill="#21354E" transform="translate(1965.85 470.58)"/><path d="M-1535.37-308.28C-1535.09-309.913-1533.54-311.013-1531.91-310.735-1531.9-310.734-1531.89-310.732-1531.88-310.73-1530.25-310.454-1529.15-308.905-1529.42-307.271-1529.42-307.258-1529.43-307.244-1529.43-307.23-1529.71-305.597-1531.27-304.503-1532.9-304.786-1532.91-304.787-1532.91-304.789-1532.92-304.79-1534.55-305.067-1535.65-306.617-1535.38-308.25-1535.37-308.26-1535.37-308.27-1535.37-308.28Z" fill="#21354E" transform="translate(1965.85 470.58)"/><path d="M-1498.44-301.13C-1498.12-301.076-1497.8-301.107-1497.5-301.22-1496.59-301.578-1496.15-302.602-1496.5-303.51-1497.5-306.25-1501.5-310.88-1508.69-308.72-1509.62-308.447-1510.16-307.469-1509.88-306.537-1509.88-306.531-1509.88-306.526-1509.88-306.52-1509.6-305.584-1508.62-305.052-1507.68-305.33-1501.74-307.11-1499.87-302.44-1499.8-302.24-1499.57-301.658-1499.06-301.237-1498.44-301.13Z" fill="#845732" transform="translate(1965.85 470.58)"/><path d="M-1525.48-310.66C-1525.16-310.6-1524.84-310.631-1524.54-310.75-1523.63-311.103-1523.19-312.124-1523.54-313.029-1523.54-313.029-1523.54-313.03-1523.54-313.03-1524.54-315.78-1528.54-320.4-1535.73-318.24-1536.67-317.96-1537.2-316.976-1536.92-316.04-1536.64-315.108-1535.65-314.581-1534.72-314.86-1528.78-316.63-1526.91-311.96-1526.83-311.76-1526.61-311.178-1526.09-310.759-1525.48-310.66Z" fill="#845732" transform="translate(1965.85 470.58)"/><path d="M492.52 162.36 480.08 182.44 474.48 180.26 475.88 151.8 492.52 162.36Z" fill="#845732"/><path d="M-1492.14-291.17C-1491.44-292.107-1490.41-292.752-1489.26-292.98-1486.9-293.49-1482.85-293.77-1480.65-290.63-1477.41-286.03-1487.12-277.02-1494.01-283.55-1494-283.55-1495.85-286.17-1492.14-291.17Z" fill="#FE906D" transform="translate(1965.85 470.58)"/><path d="M-1527-290.28C-1525.42-289.149-1523.39-288.855-1521.55-289.49-1521.28-289.596-1521.15-289.898-1521.26-290.165-1521.26-290.167-1521.26-290.168-1521.26-290.17-1521.37-290.437-1521.67-290.568-1521.94-290.462-1521.94-290.461-1521.94-290.461-1521.94-290.46-1524.02-289.752-1526.31-290.502-1527.57-292.3-1527.88-292.607-1528.07-293.009-1528.11-293.44-1528.06-293.8-1527.56-294.18-1526.86-294.71-1523.91-296.798-1521.78-299.861-1520.86-303.36-1520.78-303.635-1520.93-303.925-1521.21-304.009-1521.21-304.009-1521.21-304.01-1521.21-304.01-1521.48-304.099-1521.77-303.954-1521.85-303.687-1521.86-303.681-1521.86-303.676-1521.86-303.67-1522.71-300.388-1524.69-297.512-1527.46-295.55-1528.33-294.89-1529.02-294.37-1529.12-293.55-1529.14-292.835-1528.87-292.142-1528.37-291.63-1527.98-291.119-1527.52-290.665-1527-290.28Z" fill="#CF7559" transform="translate(1965.85 470.58)"/><path d="M-1516-282.76C-1516-282.76-1528.38-283.4-1535.43-288.32-1535.43-288.32-1535.16-278.67-1528.25-276.69-1521.34-274.71-1516-282.76-1516-282.76Z" fill="#DDE7FE" transform="translate(1965.85 470.58)"/><path d="M-1532.53-332.37C-1532.53-332.37-1537.68-329.95-1542.21-310.78-1542.21-310.78-1539.98-332.65-1537.21-334.6-1534.44-336.55-1532.53-332.37-1532.53-332.37Z" fill="#845732" transform="translate(1965.85 470.58)"/><path d="M-1478.36-349.27C-1484.19-357-1496.05-357.35-1503.18-363.89-1501.17-358.726-1498.21-353.979-1494.47-349.89L-1527.61-362.55C-1524.41-358.708-1520.85-355.191-1516.96-352.05-1525.85-352.028-1534.72-352.821-1543.46-354.42-1544.46-353.13-1544.01-351.3-1543.53-349.75-1540.9-341.29-1537.53-331.95-1529.65-327.96-1527.15-326.788-1524.48-326.035-1521.74-325.73-1510.95-324.25-1498.74-325.91-1490.31-319.05-1486.39-315.86-1482.05-305.6-1476.02-306.53-1470.65-307.38-1460.31-325.32-1478.36-349.27Z" fill="#845732" transform="translate(1965.85 470.58)"/><path d="M-1545.37-247.58C-1545.37-247.58-1582.12-244.25-1591.07-232.71-1606.86-212.34-1629.16-158.07-1695.63-191.81L-1702.77-170.35C-1702.77-170.35-1665.77-133.35-1605.44-143.75-1545.11-154.15-1541.2-191.81-1541.2-191.81Z" fill="#00B4E5" transform="translate(1965.85 470.58)"/><path d="M-1666.13-117.23C-1666.48-117.57-1674.73-125.52-1677.02-134.97-1679.02-143.34-1690.75-149.22-1690.87-149.28L-1689.58-151.89C-1689.04-151.63-1676.58-145.34-1674.18-135.65-1672.09-127.04-1664.18-119.42-1664.11-119.34Z" fill="#21354E" transform="translate(1965.85 470.58)"/><rect x="-1732.6" y="-256.22" width="24.97" height="125.56" fill="#DDE7FE" transform="matrix(0.820252 -0.572003 0.572003 0.820252 1767.33 -548.06)"/><path d="M233.65 237.97 240.49 247.78 213.47 252.7 206.64 242.89 233.65 237.97Z" fill="#003160"/><path d="M220.07 218.5 226.1 227.14 201.17 231.68 220.07 218.5Z" fill="#003160"/><path d="M248.21 258.85 255.05 268.65 228.03 273.57 221.2 263.77 248.21 258.85Z" fill="#003160"/><path d="M262.38 279.17 269.21 288.97 242.2 293.89 235.36 284.09 262.38 279.17Z" fill="#003160"/><path d="M277.16 300.37 284 310.17 256.98 315.09 250.15 305.29 277.16 300.37Z" fill="#003160"/><path d="M291.1 320.36 291.89 321.49 272.92 334.72 270.92 335.08 264.08 325.28 291.1 320.36Z" fill="#003160"/><path d="M-1632.81-117.79C-1632.81-117.79-1645.21-129.91-1649.99-133.87-1654.77-137.83-1656.46-145.22-1659.55-143.39-1662.64-141.56-1657.21-130.91-1657.21-130.91-1657.21-130.91-1669.54-133.66-1673.21-135.08-1676.88-136.5-1684.07-137.38-1685.32-134.79-1686.57-132.2-1668.5-126.59-1668.5-126.59-1668.5-126.59-1684.17-129.81-1685.84-127.66-1687.51-125.51-1668.16-118.48-1668.16-118.48-1668.16-118.48-1684.71-122.73-1686.3-121.93-1687.89-121.13-1686.93-119.07-1681.44-116.14-1677.66-114.219-1673.68-112.71-1669.58-111.64-1669.58-111.64-1681.43-113.76-1682.94-113.51-1684.45-113.26-1686.35-111.84-1677.76-108.36-1669.17-104.88-1649.89-100.36-1639.09-102.09Z" fill="#FE906D" transform="translate(1965.85 470.58)"/><path d="M-1491.65-226.43C-1491.65-226.43-1503.43-220.93-1507.11-213.26-1518.91-188.67-1555.4-113.32-1638.24-125.26L-1640.41-102.38C-1640.41-102.38-1589.41-78.18-1525.23-106.82-1461.05-135.46-1466.81-172.97-1466.81-172.97Z" fill="#00B4E5" transform="translate(1965.85 470.58)"/><path d="M-1620.56-123.25C-1626.53-123.173-1632.49-123.699-1638.35-124.82L-1638.13-125.82C-1637.96-125.82-1620.94-122-1598.73-126.41-1578.25-130.49-1549.02-142.57-1526.13-177.01L-1525.32-176.47C-1548.41-141.74-1577.91-129.55-1598.58-125.47-1605.82-124.016-1613.18-123.273-1620.56-123.25Z" fill="#21354E" transform="translate(1965.85 470.58)"/><path d="M-1582-91.39-1584-91.39C-1602.85-91.7051-1621.52-95.166-1639.23-101.63L-1638.86-102.54C-1621.27-96.1111-1602.73-92.6736-1584-92.37-1555.73-91.97-1516-99.64-1486.8-138.18L-1486.02-137.6C-1514.78-99.61-1553.73-91.39-1582-91.39Z" fill="#21354E" transform="translate(1965.85 470.58)"/><rect x="-1771.22" y="-300.76" width="9.93" height="9.93" fill="#00B4E5" transform="matrix(0.866025 0.5 -0.5 0.866025 1581.32 1314.08)"/><rect x="-1777.59" y="-360.58" width="9.93" height="9.93" fill="#00B4E5" transform="matrix(0.866025 0.5 -0.5 0.866025 1550.52 1309.3)"/><rect x="-1833.2" y="-300.76" width="9.93" height="9.93" fill="#00B4E5" transform="matrix(0.866025 0.5 -0.5 0.866025 1573.05 1345.02)"/><rect x="-1833.2" y="-389.93" width="9.93" height="9.93" fill="#00B4E5" transform="matrix(0.866025 0.5 -0.5 0.866025 1528.44 1333.11)"/><rect x="-1934.35" y="-359.16" width="9.93" height="9.93" fill="#00B4E5" transform="matrix(0.866025 0.5 -0.5 0.866025 1530.26 1387.82)"/><rect x="-1735.45" y="-349.09" width="9.93" height="9.93" fill="#DDE7FE" transform="matrix(0.766044 -0.642788 0.642788 0.766044 1782.14 -722.36)"/><rect x="-1757.18" y="-468.55" width="9.93" height="9.93" fill="#DDE7FE" transform="matrix(0.766044 -0.642788 0.642788 0.766044 1853.84 -764.3)"/><rect x="-1886.02" y="-468.55" width="9.93" height="9.93" fill="#DDE7FE" transform="matrix(0.766044 -0.642788 0.642788 0.766044 1823.69 -847.12)"/><rect x="-1833.2" y="-355.34" width="9.93" height="9.93" fill="#DDE7FE" transform="matrix(0.765932 -0.642921 0.642921 0.765932 1763.24 -786.73)"/><rect x="-1797.16" y="-326.69" width="9.93" height="9.93" fill="#88BC24" transform="matrix(0.866025 0.5 -0.5 0.866025 1564.83 1323.62)"/><rect x="-1741.77" y="-382.08" width="9.93" height="9.93" fill="#88BC24" transform="matrix(0.866025 0.5 -0.5 0.866025 1544.61 1288.45)"/><rect x="-1964.03" y="-445.46" width="9.93" height="9.93" fill="#88BC24" transform="matrix(0.866025 0.5 -0.5 0.866025 1483.14 1391.1)"/><rect x="-1779.4" y="-269.7" width="9.93" height="9.93" fill="#88BC24" transform="matrix(0.866025 0.5 -0.5 0.866025 1595.76 1322.33)"/></svg>