<svg viewBox="0 0 1436.64 573.1" xmlns="http://www.w3.org/2000/svg" xmlns:xlink="http://www.w3.org/1999/xlink" id="Layer_1" overflow="hidden"><defs></defs><path d="M3785.49 689.82C3781.33 731.191 3764.01 770.138 3736.08 800.94 3732.23 804.811 3732.23 811.069 3736.08 814.94 3738.16 816.94 3766.08 844.86 3779.54 858.29 3783.32 862.156 3789.52 862.226 3793.38 858.446 3793.44 858.394 3793.49 858.342 3793.54 858.29 3858.95 787.959 3883.12 688.698 3857.37 596.17 3843.73 625.181 3825.15 651.606 3802.48 674.27 3797 679.74 3791.29 685 3785.49 689.82Z" fill="#003160" transform="translate(-3591.47 -288.13)"/><path d="M3759 570.69C3762.49 576.544 3765.68 582.572 3768.55 588.75 3774.89 579.486 3780.37 569.661 3784.92 559.4 3776.52 563.692 3767.86 567.462 3759 570.69Z" fill="#003160" transform="translate(-3591.47 -288.13)"/><path d="M3601.36 394.5C3595.96 394.434 3591.54 398.754 3591.47 404.149 3591.47 404.216 3591.47 404.283 3591.47 404.35L3591.47 465.66C3591.43 471.061 3595.78 475.471 3601.18 475.51 3601.24 475.511 3601.3 475.511 3601.36 475.51 3634.15 477.16 3665.99 487.104 3693.9 504.41 3724.91 499.423 3754.24 486.961 3779.35 468.1 3730.86 422.875 3667.63 396.731 3601.36 394.5Z" fill="#003160" transform="translate(-3591.47 -288.13)"/><path d="M3853.15 353.5C3841.53 330.755 3826.8 309.743 3809.38 291.07 3805.62 287.204 3799.43 287.121 3795.56 290.886 3795.5 290.946 3795.44 291.008 3795.38 291.07L3752 334.39C3748.13 338.178 3748.07 344.383 3751.86 348.249 3751.91 348.296 3751.95 348.343 3752 348.39 3777.77 376.815 3794.52 412.259 3800.1 450.22 3800.22 450.042 3800.36 449.881 3800.52 449.74 3826.94 423.381 3845.21 389.969 3853.15 353.5Z" fill="#88BC24" transform="translate(-3591.47 -288.13)"/><path d="M3768.54 588.75C3761.72 598.925 3753.89 608.389 3745.18 617 3716.47 645.21 3686.02 660.1 3655.12 668.42 3649.84 669.299 3646.27 674.292 3647.15 679.571 3647.18 679.721 3647.21 679.871 3647.24 680.02 3648.13 684.2 3655.51 721.63 3659.09 740.07 3660.05 745.392 3665.14 748.931 3670.46 747.975 3670.53 747.961 3670.61 747.946 3670.69 747.93 3670.69 747.93 3675.46 746.75 3677.09 746.32 3715.37 736.81 3753.09 717.24 3785.49 689.8 3786.1 683.5 3786.49 676.89 3786.49 670.27 3786.5 642.116 3780.37 614.297 3768.54 588.75Z" fill="#88BC24" transform="translate(-3591.47 -288.13)"/><path d="M3883.29 477.81C3868.12 498.083 3850.18 516.128 3830 531.42 3841.9 551.725 3851.09 573.495 3857.35 596.18 3874.49 559.514 3883.36 519.533 3883.35 479.06Z" fill="#88BC24" transform="translate(-3591.47 -288.13)"/><path d="M3784.91 559.4C3780.36 569.661 3774.88 579.486 3768.54 588.75 3780.36 614.306 3786.48 642.131 3786.46 670.29 3786.46 676.91 3786.1 683.52 3785.46 689.82 3791.26 684.96 3796.94 679.74 3802.46 674.28 3825.13 651.616 3843.71 625.191 3857.35 596.18 3851.09 573.495 3841.9 551.725 3830 531.42 3815.94 542.225 3800.83 551.598 3784.91 559.4Z" fill="#347121" transform="translate(-3591.47 -288.13)"/><path d="M3938.47 321.81C3938.49 316.392 3934.12 311.982 3928.7 311.96 3928.67 311.96 3928.65 311.96 3928.62 311.96L3867.33 311.96C3861.9 311.921 3857.46 316.295 3857.42 321.73 3857.42 321.757 3857.42 321.783 3857.42 321.81 3856.92 332.477 3855.49 343.08 3853.15 353.5 3872.79 392.005 3883.12 434.585 3883.29 477.81 3917.33 432.747 3936.61 378.257 3938.47 321.81Z" fill="#00B4E5" transform="translate(-3591.47 -288.13)"/><path d="M3801.83 491.66C3802.05 487.4 3802.27 483.25 3802.27 479.06 3802.22 469.402 3801.5 459.759 3800.12 450.2 3793.63 456.656 3786.69 462.638 3779.35 468.1 3781.81 470.42 3784.29 472.73 3786.66 475.1 3791.89 480.42 3796.9 485.83 3801.83 491.66Z" fill="#00B4E5" transform="translate(-3591.47 -288.13)"/><path d="M3801.83 491.66C3796.9 485.83 3791.89 480.42 3786.66 475.11 3784.29 472.73 3781.81 470.42 3779.35 468.11 3754.24 486.971 3724.91 499.433 3693.9 504.42 3720.62 520.946 3742.95 543.68 3759 570.69 3767.86 567.462 3776.52 563.692 3784.92 559.4 3794.59 538.023 3800.32 515.074 3801.83 491.66Z" fill="#005189" transform="translate(-3591.47 -288.13)"/><path d="M3801.83 491.66C3812.38 504.049 3821.81 517.355 3830 531.42 3850.19 516.13 3868.13 498.084 3883.31 477.81 3883.14 434.585 3872.81 392.005 3853.17 353.5 3845.24 389.96 3826.97 423.364 3800.56 449.72 3800.4 449.861 3800.26 450.022 3800.14 450.2 3801.52 459.759 3802.24 469.402 3802.29 479.06 3802.27 483.25 3802.05 487.4 3801.83 491.66Z" fill="#27A436" transform="translate(-3591.47 -288.13)"/><path d="M3784.91 559.4C3800.83 551.591 3815.93 542.211 3829.98 531.4 3821.8 517.336 3812.38 504.029 3801.83 491.64 3800.32 515.062 3794.59 538.017 3784.91 559.4Z" fill="#004B22" transform="translate(-3591.47 -288.13)"/><path d="M3693.9 504.41C3683.58 506.09 3673.14 506.953 3662.68 506.99 3653.22 506.929 3643.78 506.211 3634.42 504.84 3629.14 503.698 3623.93 507.056 3622.78 512.341 3622.77 512.394 3622.76 512.447 3622.75 512.5 3622.56 513.6 3614.92 553.64 3610.91 572.77 3609.8 578.079 3613.2 583.282 3618.51 584.392 3618.54 584.398 3618.57 584.404 3618.6 584.41 3633.17 586.799 3647.91 587.98 3662.68 587.94 3695.56 587.958 3728.17 582.116 3759 570.69 3742.96 543.678 3720.63 520.94 3693.91 504.41Z" fill="#00B4E5" transform="translate(-3591.47 -288.13)"/><path d="M4386.4 481.11 4386.4 574.78 4422.56 574.78 4422.56 482.68C4422.56 445.76 4410.21 424.12 4369.82 424.12 4346.27 424.12 4336.65 439.57 4330.74 447.84L4325.05 428.66 4291.72 428.66C4293.06 438.83 4295.62 447.44 4295.62 459.66L4295.62 574.78 4331.76 574.78 4331.76 479.46C4338.51 465.73 4348.76 451.93 4363.67 451.93 4385.13 451.93 4386.4 466.72 4386.4 481.11Z" fill="#003160" transform="translate(-3591.47 -288.13)"/><path d="M4482.22 573.34C4492.24 577.192 4502.91 579.09 4513.65 578.93 4526.46 578.93 4550.2 573.77 4554.74 572.53L4542.74 543.53C4539.32 544.96 4517.9 556.1 4499.33 548.36 4479.14 539.58 4478.43 511.36 4478.43 502.8 4478.43 493.43 4479.14 474.8 4487.43 463.55 4495.48 452.21 4508.31 452.27 4514.37 452.27 4525.76 452.27 4539.53 458.81 4542.64 460.2L4553.64 431.3C4549.64 430.17 4527.75 424.37 4514.81 424.37 4503.75 424.206 4492.75 426.119 4482.39 430.01 4464.76 437.329 4451.38 452.231 4446 470.55 4442.94 480.23 4437.53 507.81 4446 533.55 4454.47 559.29 4472.72 569.55 4482.22 573.34Z" fill="#003160" transform="translate(-3591.47 -288.13)"/><path d="M4632.11 579.24C4684.48 579.24 4703.96 542.81 4703.96 500.97 4703.96 458.36 4685.13 424.12 4632.11 424.12 4579.55 424.12 4559.77 460.25 4559.77 500.97 4559.77 543.12 4579.29 579.24 4632.11 579.24ZM4632.11 451.93C4656.41 451.93 4666.91 465.03 4666.91 500.93 4666.91 536.34 4654.35 551.38 4632.11 551.38 4607.75 551.38 4596.92 533.75 4596.92 500.93 4596.92 465 4609 451.93 4632.11 451.93Z" fill="#003160" transform="translate(-3591.47 -288.13)"/><path d="M4272.35 574.61C4272 570.44 4271.3 566.42 4270.7 562.25 4270.01 558.25 4269.35 554.25 4268.82 550.42 4268.29 546.59 4267.67 542.85 4267.3 539.42 4266.86 536.235 4266.64 533.025 4266.62 529.81L4266.62 471.05C4266.62 463.05 4265.31 456.18 4262.62 450.32 4259.87 443.95 4249.31 424.39 4211.47 424.39 4205.61 424.39 4182.8 424.73 4159.23 430.65L4167.6 460.22C4202.26 448.61 4217.08 452.61 4220.53 454.37 4229.86 458.99 4230.18 467.29 4230.18 478.37L4218.18 478.37C4202.58 478.37 4173.58 480.11 4156.85 496.06 4139.85 511.6 4138.42 556.98 4171.79 571.14 4206.73 586.01 4230.79 561.77 4232.87 559.91L4238.32 574.62ZM4230.59 535.85C4230.59 535.85 4219.24 549.85 4201.53 549.85 4187.18 549.85 4176.53 543.53 4175.1 531.3 4173.22 511.49 4194.3 505.67 4200.39 504.43 4207.72 503.118 4215.15 502.488 4222.6 502.55L4230.6 502.55Z" fill="#003160" transform="translate(-3591.47 -288.13)"/><path d="M4015 574.64 4020.4 560C4021.97 561.51 4036.12 575.93 4062.29 575.93 4096.59 575.93 4126.29 554.2 4126.29 516.55 4126.29 492.91 4109.68 471.96 4085.67 466.3 4093.77 463.6 4113.94 450.23 4113.94 421.54 4113.94 383.81 4081.13 367.9 4048.09 367.9L3986.59 367.9 3986.59 530C3986.58 533.176 3986.35 536.347 3985.9 539.49 3985.57 542.97 3981.33 570.58 3980.83 574.66ZM4042.32 542.55C4039.58 541.706 4036.92 540.604 4034.38 539.26 4031.9 537.89 4024.09 531.84 4022.67 529.92L4022.67 485.8 4051.07 485.8C4073.95 485.8 4089.96 496.92 4089.96 514.59 4089.96 536.25 4073.96 547.37 4051.96 544.71 4048.67 544.359 4045.43 543.634 4042.3 542.55ZM4022.43 398.82 4038.68 398.82C4061.03 398.82 4081.11 402.14 4081.11 425.12 4081.11 450.82 4057.24 452.93 4043.11 452.93L4022.41 452.93Z" fill="#003160" transform="translate(-3591.47 -288.13)"/><path d="M504.39 365.55 514.18 334.2 394.91 334.2 394.91 541.14 431.67 541.14 431.67 450.57 490.79 450.57 490.79 419.97 431.67 419.97 431.67 365.55 504.39 365.55Z" fill="#003160"/><path d="M4168.87 678.61C4116.39 678.61 4096.59 714.78 4096.59 755.42 4096.59 797.6 4116.11 833.73 4168.87 833.73 4221.26 833.73 4240.87 797.26 4240.87 755.42 4240.83 712.82 4221.91 678.61 4168.87 678.61ZM4168.87 805.9C4144.54 805.9 4133.64 788.25 4133.64 755.42 4133.64 719.47 4145.86 706.42 4168.87 706.42 4193.16 706.42 4203.71 719.48 4203.71 755.42 4203.71 790.81 4191.25 805.9 4168.87 805.9Z" fill="#003160" transform="translate(-3591.47 -288.13)"/><path d="M4293.37 708.1 4287.63 683.1 4254.31 683.1C4255.31 690.43 4258.14 701.32 4258.14 715.71L4258.14 829.27 4294.37 829.27 4294.37 754C4294.37 723.68 4307.12 706.4 4324.09 706.4 4332.01 706.4 4339.8 711.2 4345.15 715.4L4357.57 685.62C4349 681.17 4341.93 678.62 4329.86 678.62 4307.85 678.61 4295 697.7 4293.37 708.1Z" fill="#003160" transform="translate(-3591.47 -288.13)"/><path d="M4541.13 678.61C4520.08 678.61 4504.67 688.88 4496.34 702.35 4484 685 4474 678.61 4449.66 678.61 4429.76 678.61 4416.06 695.28 4410.97 702.61L4405.22 683.05 4372 683.05C4372.93 693.94 4375.76 704.42 4375.76 716.69L4375.76 829.27 4412 829.27 4412 733.59C4416.07 724.7 4427.93 706.41 4442.92 706.41 4458.7 706.41 4465.37 712.18 4465.37 736.47L4465.37 829.27 4501.52 829.27 4501.52 735.52C4506.88 720.87 4518.46 706.41 4535.71 706.41 4550.4 706.41 4556.52 714.78 4556.52 736.47L4556.52 829.27 4592.67 829.27 4592.67 735.87C4592.66 696.89 4575.67 678.61 4541.13 678.61Z" fill="#003160" transform="translate(-3591.47 -288.13)"/><path d="M4682.41 678.61C4629.95 678.61 4610.15 714.78 4610.15 755.42 4610.15 797.6 4629.61 833.73 4682.41 833.73 4734.85 833.73 4754.34 797.26 4754.34 755.42 4754.34 712.82 4735.38 678.61 4682.41 678.61ZM4682.41 805.9C4658.09 805.9 4647.2 788.25 4647.2 755.42 4647.2 719.47 4659.34 706.42 4682.41 706.42 4706.63 706.42 4717.23 719.48 4717.23 755.42 4717.23 790.81 4704.79 805.9 4682.41 805.9Z" fill="#003160" transform="translate(-3591.47 -288.13)"/><path d="M4835.79 739.05C4820.73 734.61 4808.55 730.72 4808.55 721.14 4808.55 710.59 4817.55 706.41 4833.95 706.41 4844.03 706.41 4853.22 709.41 4863.57 714.14L4875.84 685.48C4859.21 680.77 4847.1 678.61 4833.46 678.61 4803.99 678.61 4771.57 686.97 4771.57 722.11 4771.57 756.29 4799.26 765.24 4821.98 772.03 4837.34 776.45 4850.44 780.34 4850.44 789.52 4850.44 798.13 4847.62 805.9 4825.26 805.9 4808.26 805.9 4797.45 799.9 4781.11 793.73L4768.61 823.49C4784.61 829.27 4807.61 833.73 4824.61 833.73 4855.68 833.73 4887.67 823.49 4887.67 789.25 4887.67 755.01 4858.44 746.1 4835.79 739.05Z" fill="#003160" transform="translate(-3591.47 -288.13)"/><path d="M5028.12 829.18C5027.65 825.18 5027.06 821.05 5026.46 816.96 5025.86 812.87 5025.11 808.96 5024.56 805.1 5024.01 801.24 5023.4 797.54 5023.07 794.1 5022.65 790.933 5022.41 787.744 5022.37 784.55L5022.37 725.75C5022.52 718.621 5021.16 711.542 5018.37 704.98 5015.69 698.65 5005.1 679.22 4967.26 679.22 4961.44 679.22 4938.69 679.49 4915.03 685.42L4923.41 714.83C4958.18 703.27 4972.87 707.19 4976.41 709.05 4985.79 713.59 4986.02 721.94 4986.02 732.99L4973.89 732.99C4958.42 732.99 4929.38 734.73 4912.71 750.68 4895.78 766.41 4894.17 811.58 4927.49 825.75 4962.49 840.75 4986.67 816.46 4988.63 814.53L4994.11 829.2ZM4986.59 790.54C4986.59 790.54 4975.26 804.54 4957.5 804.54 4943.27 804.54 4932.5 798.17 4931.18 786.11 4929.18 766.28 4950.35 760.32 4956.55 759.11 4963.83 757.857 4971.21 757.261 4978.6 757.33L4986.6 757.33Z" fill="#003160" transform="translate(-3591.47 -288.13)"/></svg>