<svg viewBox="0 0 402.89 885.13" xmlns="http://www.w3.org/2000/svg" xmlns:xlink="http://www.w3.org/1999/xlink" id="Layer_1" overflow="hidden"><defs></defs><path d="M-2754.88-307.73C-2753.98-299.73-2749.45-292.16-2750.27-284.14-2751.37-273.53-2761.37-265.94-2764.35-255.69-2767.47-244.97-2762.55-232.5-2767.94-222.69-2769.85-219.2-2772.94-216.47-2775-213.1-2779.79-204.955-2778.62-194.622-2772.12-187.76-2764.94-180.51-2753.43-179.59-2743.39-181.47-2733.35-183.35-2723.82-187.47-2713.7-188.85-2703.4-190.21-2692.8-188.59-2682.7-190.77-2668.65-193.77-2656.82-203.99-2649.59-216.41-2642.36-228.83-2639.28-243.29-2638.25-257.63-2637.77-263.089-2637.83-268.582-2638.42-274.03-2641.05-295.2-2655.25-313.08-2670.6-327.88-2677.6-334.65-2685.35-341.23-2694.76-343.73-2716.09-349.41-2758-335.42-2754.88-307.73Z" fill="#21354E" transform="translate(2878.64 608.47)"/><path d="M-2736.3-194.21C-2736.3-194.21-2749.3-127.7-2820.47-100.7L-2822.97-113.94C-2822.97-113.94-2776.8-150.37-2763.52-200.03Z" fill="#FE906D" transform="translate(2878.64 608.47)"/><path d="M-2823-113.94C-2823-113.94-2836.68-119.09-2842-119.86-2847.32-120.63-2852-125.34-2853.45-122.57-2854.9-119.8-2846.02-114.36-2846.02-114.36-2846.02-114.36-2856.44-110.79-2859.8-110.18-2863.16-109.57-2868.91-106.94-2868.66-104.44-2868.41-101.94-2852.43-106.01-2852.43-106.01-2852.43-106.01-2865.54-101.26-2865.8-98.9-2866.06-96.54-2848.48-100.14-2848.48-100.14-2848.48-100.14-2862.71-95.76-2863.53-94.44-2864.35-93.12-2862.69-92.02-2857.28-92.35-2853.59-92.6466-2849.95-93.3372-2846.41-94.41-2846.41-94.41-2856.18-90.58-2857.19-89.72-2858.2-88.86-2858.97-86.91-2851-88.25-2843.03-89.59-2826.27-95.25-2819-101.53Z" fill="#FE906D" transform="translate(2878.64 608.47)"/><path d="M-2640.23 210.76C-2640.23 210.76-2643.88 246.76-2636.53 250.87-2623.21 258.27-2598.64 265.33-2600.7 271.69-2602.76 278.05-2661.64 278.29-2663.28 272.49-2664.92 266.69-2658.28 248.97-2665.28 214.49Z" fill="#FE906D" transform="translate(2878.64 608.47)"/><path d="M-2662.69 259.56C-2663.31 266.01-2663.86 270.43-2663.28 272.49-2661.64 278.29-2602.76 278.04-2600.7 271.69-2599.17 266.97-2612.18 261.69-2624.52 256.37-2627.43 261.27-2633.66 268.91-2662.69 259.56Z" fill="#21354E" transform="translate(2878.64 608.47)"/><path d="M-2814.89 159.23C-2814.89 159.23-2845.89 175.38-2844.82 183.73-2842.96 198.85-2834.52 224.98-2840.82 227.06-2847.12 229.14-2882.03 181.68-2878.31 176.95-2874.59 172.22-2856.44 172.14-2832.58 141.14Z" fill="#FE906D" transform="translate(2878.64 608.47)"/><path d="M-2867.14 171.06C-2875.22 173.35-2877.04 175.26-2878.36 176.95-2882.08 181.68-2847.22 229.14-2840.87 227.06-2836.16 225.52-2839.52 211.88-2842.51 198.79-2848.19 199.31-2857.61 200-2867.14 171.06Z" fill="#21354E" transform="translate(2878.64 608.47)"/><path d="M-2617.72-202.22C-2617.72-202.22-2605.35-185.65-2595.04-185.65-2584.73-185.65-2549.71-227.54-2549.71-227.54L-2543-218.12C-2543-218.12-2570.82-152.12-2597.62-151.63-2624.42-151.14-2644.52-181.01-2644.01-182.56-2643.5-184.11-2626.48-202.22-2626.48-202.22Z" fill="#FE906D" transform="translate(2878.64 608.47)"/><path d="M-2647.1-108.59C-2647.1-108.59-2631.1-89.22-2623.89-66.54-2616.68-43.86-2635.81 224.83-2635.81 224.83L-2667.81 224.83C-2667.81 224.83-2684.76-14.45-2684.76-16.58-2684.76-20.67-2691.3 40.05-2715.27 97.27-2730.58 133.81-2835.84 173.72-2835.84 173.72L-2849.47 159.12C-2849.47 159.12-2831.17 131.81-2796.26 106.88-2779.55 94.95-2768.77 92.66-2766.66 79.46-2760.9 43.29-2742.81-87.54-2722.26-108.54L-2684.76-106.23Z" fill="#003160" transform="translate(2878.64 608.47)"/><path d="M-2647.1-118.65-2647.1-108.59C-2647.1-108.59-2666.17-90.04-2722.22-108.59L-2722.35-118.65-2673.13-121.74Z" fill="#5483B0" transform="translate(2878.64 608.47)"/><path d="M-2666.15-239.87C-2666.15-239.87-2646.29-240.61-2636.21-233.65-2629-228.65-2613.08-200.6-2613.08-200.6L-2631.36-185.06C-2631.36-185.06-2627-168.13-2644.02-159.62L-2647.1-118.62C-2647.1-118.62-2679.1-100.06-2722.35-118.62-2722.35-118.62-2726.47-186.86-2731.08-180.62-2734.68-175.74-2742.53-163.84-2742.53-163.84L-2771.95-195.94C-2771.95-195.94-2742.48-233.2-2731.95-237.94-2715.06-245.62-2693.47-241.58-2693.47-241.58Z" fill="#DDE7FE" transform="translate(2878.64 608.47)"/><path d="M-2670.24-303.3C-2670.24-303.3-2668.85-307.91-2666.37-306.95-2660.04-304.51-2664-297.55-2667.07-295.38Z" fill="#FE906D" transform="translate(2878.64 608.47)"/><path d="M-2716.56-340.2C-2732-334.333-2740.68-317.912-2736.83-301.85-2735.61-296.815-2733.21-292.142-2729.83-288.22-2722.23-278.61-2716.01-270.9-2709.64-265.84-2703.15-260.773-2698.82-253.438-2697.52-245.31L-2696.27-237.08C-2674.19-227.9-2668.52-239.78-2668.52-239.78L-2675.57-263.19-2675.57-263.19C-2656.57-271.48-2670.15-307.06-2673.38-317.81L-2673.38-317.81C-2673.49-318.21-2673.6-318.62-2673.72-319.03-2678.94-336.326-2697.18-346.119-2714.48-340.904-2715.18-340.693-2715.88-340.458-2716.56-340.2Z" fill="#FE906D" transform="translate(2878.64 608.47)"/><path d="M-2709.49-307.78C-2713.03-299.62-2716.97-291.47-2718.84-282.78-2719.05-281.78-2720.42-274.7-2719.27-274.27-2725.52-276.6-2730.51-281.39-2734.98-286.32-2742.74-294.88-2744.98-307.32-2741.98-318.32-2738.98-329.32-2730.77-336.85-2720.42-340.91-2709.32-345.26-2695.76-345.18-2685.94-337.78-2676.72-330.83-2673.03-319.65-2669.1-309.3-2673.52-320.92-2692.1-324.96-2702.97-326.3-2702.65-326.3-2706.97-313.91-2707.24-313.3-2707.93-311.42-2708.7-309.6-2709.49-307.78Z" fill="#21354E" transform="translate(2878.64 608.47)"/><path d="M-2717.61-282.31C-2718.43-283.166-2719.53-283.692-2720.71-283.79-2723.14-284.01-2727.24-283.79-2729.07-280.4-2731.76-275.4-2720.95-267.53-2714.83-274.9-2714.83-274.9-2713.3-277.75-2717.61-282.31Z" fill="#FE906D" transform="translate(2878.64 608.47)"/><path d="M-2675.33-301.44C-2675.64-302.989-2677.14-303.996-2678.69-303.69-2680.24-303.378-2681.24-301.876-2680.93-300.33-2680.62-298.787-2679.12-297.784-2677.58-298.09-2676.04-298.392-2675.03-299.888-2675.33-301.433-2675.33-301.435-2675.33-301.438-2675.33-301.44Z" fill="#21354E" transform="translate(2878.64 608.47)"/><path d="M-2700.26-290.78C-2700.57-292.324-2702.07-293.328-2703.61-293.022-2703.61-293.021-2703.62-293.021-2703.62-293.02-2705.16-292.713-2706.17-291.214-2705.86-289.67-2705.55-288.126-2704.06-287.12-2702.51-287.42-2700.96-287.727-2699.95-289.231-2700.26-290.78Z" fill="#21354E" transform="translate(2878.64 608.47)"/><path d="M-2674.58-281.24C-2674.58-281.24-2678.76-283.24-2680.1-282.54-2680.99-281.931-2681.62-281.005-2681.86-279.95-2682.58-280.844-2683.72-281.295-2684.86-281.14-2686.6-280.79-2689.34-275.32-2689.34-275.32-2689.34-275.32-2682.77-268.73-2677.72-270.82-2672.67-272.91-2674.61-280.82-2674.61-280.82Z" fill="#FE906D" transform="translate(2878.64 608.47)"/><path d="M-2709.63-292.41C-2709.97-292.299-2710.33-292.346-2710.63-292.54-2711.18-292.888-2711.35-293.617-2711-294.168-2711-294.172-2710.99-294.176-2710.99-294.18-2709.09-296.84-2706.33-298.762-2703.17-299.62-2702.54-299.785-2701.89-299.411-2701.72-298.78-2701.57-298.15-2701.94-297.51-2702.56-297.33-2705.14-296.62-2707.41-295.059-2708.99-292.9-2709.14-292.668-2709.37-292.495-2709.63-292.41Z" fill="#21354E" transform="translate(2878.64 608.47)"/><path d="M-2684.32-305.52C-2684.67-305.492-2685.01-305.625-2685.25-305.88-2685.71-306.338-2685.72-307.085-2685.26-307.549-2685.26-307.552-2685.25-307.556-2685.25-307.56-2682.78-309.702-2679.64-310.919-2676.37-311-2675.72-311.011-2675.18-310.493-2675.16-309.84-2675.14-309.183-2675.66-308.637-2676.32-308.62-2676.32-308.62-2676.32-308.62-2676.32-308.62-2679-308.549-2681.57-307.569-2683.62-305.84-2683.81-305.658-2684.06-305.545-2684.32-305.52Z" fill="#21354E" transform="translate(2878.64 608.47)"/><path d="M-2684.82-284.07C-2682.58-284.972-2681.28-287.332-2681.72-289.71-2681.77-289.963-2681.93-290.186-2682.14-290.33-2686.14-292.99-2687.36-298.26-2687.37-298.33-2687.49-298.868-2688.03-299.204-2688.57-299.08-2688.57-299.08-2688.57-299.08-2688.57-299.08-2689.11-298.956-2689.44-298.419-2689.32-297.881-2689.32-297.881-2689.32-297.88-2689.32-297.88-2689.27-297.64-2687.96-292.12-2683.63-288.95-2683.63-288.14-2683.86-286.22-2686.97-285.45-2687.51-285.318-2687.83-284.777-2687.7-284.24-2687.7-284.237-2687.7-284.233-2687.7-284.23-2687.57-283.695-2687.03-283.368-2686.49-283.5-2685.92-283.637-2685.36-283.827-2684.82-284.07Z" fill="#CF7559" transform="translate(2878.64 608.47)"/><path d="M-2674.58-281.24-2689.3-275.32C-2689.3-275.32-2682.9-272.59-2678.86-273.97-2674.82-275.35-2674.58-281.24-2674.58-281.24Z" fill="#DDE7FE" transform="translate(2878.64 608.47)"/><path d="M-2696.32-165.27C-2710.82-165.27-2716.86-179.76-2716.92-179.91-2717.03-180.186-2716.9-180.499-2716.62-180.61-2716.34-180.72-2716.03-180.586-2715.92-180.31-2715.87-180.17-2710.09-166.31-2696.32-166.31-2682.55-166.31-2677.19-176.31-2677.13-176.46-2677-176.721-2676.68-176.826-2676.42-176.694-2676.42-176.693-2676.41-176.691-2676.41-176.69-2676.15-176.558-2676.04-176.239-2676.18-175.978-2676.18-175.975-2676.18-175.973-2676.18-175.97-2676.23-175.89-2681.86-165.27-2696.32-165.27Z" fill="#5483B0" transform="translate(2878.64 608.47)"/><path d="M-2631.36-184.53C-2631.63-184.533-2631.86-184.733-2631.89-185-2632.96-191.389-2636.02-197.276-2640.64-201.82-2640.84-202.033-2640.84-202.367-2640.64-202.58-2640.43-202.788-2640.09-202.788-2639.88-202.58-2635.05-197.882-2631.87-191.752-2630.8-185.1-2630.77-184.806-2630.98-184.541-2631.27-184.5Z" fill="#5483B0" transform="translate(2878.64 608.47)"/><path d="M-2673.55-96.19C-2678.77-96.19-2683-100.419-2683.01-105.64-2683-110.862-2678.77-115.094-2673.55-115.1-2668.33-115.089-2664.11-110.858-2664.1-105.64-2664.11-100.423-2668.33-96.1955-2673.55-96.19ZM-2673.55-110.8C-2676.4-110.8-2678.71-108.49-2678.71-105.64-2678.7-102.792-2676.4-100.486-2673.55-100.48-2670.7-100.485-2668.4-102.792-2668.39-105.64-2668.4-108.488-2670.7-110.794-2673.55-110.8Z" fill="#88BC24" transform="translate(2878.64 608.47)"/><path d="M-2526.82-234.28C-2527.82-236.28-2532.1-236.28-2532.71-238.38-2533.45-239.43-2534.16-240.49-2534.82-241.59-2535.23-242.246-2535.56-242.943-2535.82-243.67-2537.51-241.93-2540.47-239.42-2540.47-239.42-2540.47-239.42-2535.38-248.35-2537.47-248.49-2539.56-248.63-2543.27-242.24-2545.01-239.06-2550.63-228.8-2549.93-225.18-2549.93-225.18L-2544.35-217.64C-2538.92-219.34-2531.81-225.27-2528.17-229.02-2529-230-2526.24-233.11-2526.82-234.28Z" fill="#FE906D" transform="translate(2878.64 608.47)"/><path d="M-2519.13-221.55-2519.32-221.55C-2534.8-223.55-2547.17-239-2545.79-254.55-2544.47-269.35-2533.28-279.81-2522.46-289.92-2513.31-298.47-2503.85-307.3-2500.34-318.72-2495.77-333.57-2503.34-351.72-2517.52-360.09-2522.43-362.98-2528.02-364.84-2533.43-366.63-2536.31-367.63-2539.28-368.63-2542.16-369.72-2556.1-375.26-2566.74-384.32-2572.1-395.23-2578.56-408.36-2576.7-424.06-2567.58-433.41-2563.42-437.68-2558.1-440.41-2552.96-443.05-2549.54-444.703-2546.24-446.602-2543.09-448.73-2538.21-452.21-2534.59-457.73-2533.88-462.89-2533.35-465.777-2534.08-468.752-2535.88-471.07-2536.39-471.711-2536.29-472.645-2535.65-473.16-2535.01-473.666-2534.08-473.564-2533.56-472.93-2531.24-469.976-2530.27-466.185-2530.88-462.48-2531.7-456.58-2535.8-450.23-2541.32-446.3-2544.58-444.087-2548-442.118-2551.55-440.41-2556.7-437.76-2561.55-435.25-2565.41-431.33-2573.52-423-2575.2-408.33-2569.41-396.55-2564.41-386.3-2554.3-377.75-2541.04-372.49-2538.24-371.38-2535.31-370.4-2532.47-369.49-2526.92-367.64-2521.18-365.73-2515.99-362.68-2500.4-353.52-2492.44-334.26-2497.47-317.88-2501.22-305.7-2510.98-296.59-2520.41-287.77-2531.3-277.6-2541.59-267.98-2542.8-254.32-2544.05-240.27-2532.89-226.32-2518.92-224.52-2518.11-224.416-2517.53-223.674-2517.63-222.86-2517.73-222.118-2518.36-221.563-2519.11-221.56Z" fill="#003160" transform="translate(2878.64 608.47)"/><path d="M-2475.76-545.16C-2476.33-580.688-2505.59-609.028-2541.12-608.46-2576.65-607.89-2604.99-578.628-2604.42-543.1-2603.85-507.58-2574.24-457.59-2538.72-458.16-2503.2-458.73-2475.19-509.63-2475.72-545.16Z" fill="#003160" transform="translate(2878.64 608.47)"/><path d="M-2530.16-459.3C-2530.16-459.3-2522.7-453.54-2522.67-451.37-2522.64-449.2-2524.36-449.18-2529.99-448.73-2535.62-448.28-2532.83-449.04-2538.53-446.73-2544.23-444.42-2554.13-452.73-2554.13-452.73L-2545.19-459.06-2530.19-459.3Z" fill="#003160" transform="translate(2878.64 608.47)"/><path d="M-2534.65-245.11C-2534.65-245.11-2540.92-237.7-2540-236.69-2539.08-235.68-2532.9-240.3-2533-240.2-2533.1-240.1-2538.69-234.2-2537.93-232.44-2537.17-230.68-2530.31-236.31-2530.31-236.31-2530.31-236.31-2535.99-231.18-2535.41-230-2534.83-228.82-2528.85-233.13-2528.54-232.73-2528.23-232.33-2533.64-229-2532.98-227.51-2532.32-226.02-2524.5-230.4-2524.41-232.25-2524.39-233.338-2525.11-234.302-2526.16-234.59-2526.16-234.59-2526.36-237.71-2527.95-238.35-2527.95-238.35-2529.72-242.24-2531.57-241.8-2531.54-241.8-2531.56-245.54-2534.65-245.11Z" fill="#CF7559" transform="translate(2878.64 608.47)"/><path d="M-2741.16-321.94-2746.16-375.51-2708.74-339.56C-2708.74-339.56-2722.24-318.45-2741.16-321.94Z" fill="#00B4E5" transform="translate(2878.64 608.47)"/><path d="M129.62 226.55 118.84 215.19 115.06 222.47 126.99 228.59 111.85 234.12 117.67 241.11 128.16 230.92 125.54 247.22 132.5 247.22 132.5 232.96 145.47 237.91 145.54 227.13 134.27 228.88 141.26 213.45 132.5 213.45 129.62 226.55Z" fill="#88BC24"/><path d="M-2737-338.83C-2736.99-342.313-2734.17-345.134-2730.69-345.14-2727.21-345.14-2724.38-342.315-2724.38-338.83-2724.37-335.351-2727.19-332.526-2730.67-332.52-2730.68-332.52-2730.68-332.52-2730.69-332.52-2734.17-332.52-2737-335.345-2737-338.83Z" fill="#88BC24" transform="translate(2878.64 608.47)"/><path d="M-2740.34-351.54C-2740.34-349.35-2741.47-347.316-2743.34-346.17L-2744.39-357.42C-2741.95-356.493-2740.34-354.151-2740.34-351.54Z" fill="#88BC24" transform="translate(2878.64 608.47)"/><path d="M-2728.54-351.54C-2732.02-351.54-2734.85-354.365-2734.85-357.85-2734.84-359.715-2734.01-361.481-2732.57-362.67L-2723.57-354.01C-2724.75-352.458-2726.59-351.545-2728.54-351.54Z" fill="#88BC24" transform="translate(2878.64 608.47)"/></svg>