<svg viewBox="0 0 157.9 357.73" xmlns="http://www.w3.org/2000/svg" xmlns:xlink="http://www.w3.org/1999/xlink" id="Layer_1" overflow="hidden"><defs></defs><path d="M-2788.17-443C-2788.64-443.019-2789.04-443.333-2789.17-443.78-2795.28-463.95-2807.69-465.65-2820.82-467.44-2833.24-469.14-2846.09-470.9-2853.14-488.83-2859.67-505.47-2851.48-514.65-2842-525.29-2830.48-538.21-2817.43-552.86-2826.49-585.95-2834.49-615.24-2856.06-640.5-2856.28-640.75-2856.67-641.216-2856.62-641.909-2856.16-642.31-2855.7-642.708-2855-642.659-2854.6-642.2-2854.38-641.94-2832.51-616.31-2824.35-586.54-2814.97-552.29-2829.04-536.54-2840.35-523.82-2849.71-513.31-2857.11-505.01-2851.08-489.65-2844.5-472.91-2832.85-471.32-2820.52-469.65-2807.27-467.85-2793.58-465.98-2787.06-444.44-2786.88-443.865-2787.2-443.254-2787.78-443.076-2787.79-443.074-2787.79-443.072-2787.8-443.07-2787.9-443.038-2788.01-443.021-2788.12-443.02Z" fill="#003160" transform="translate(2944.96 800.71)"/><path d="M-2808.39-746.79C-2816.79-784.013-2853.77-807.384-2891-799-2928.24-790.602-2951.62-753.607-2943.22-716.368-2943.22-716.365-2943.22-716.363-2943.22-716.36-2934.81-679.12-2892.69-633.06-2855.46-641.46-2818.23-649.86-2799.96-709.55-2808.36-746.79Z" fill="#88BC24" transform="translate(2944.96 800.71)"/><path d="M-2846.74-644.54C-2846.74-644.54-2837.63-640.12-2837.12-637.85-2836.61-635.58-2838.42-635.17-2844.24-633.46-2850.06-631.75-2847.29-633.17-2852.8-629.54-2858.31-625.91-2870.5-632.36-2870.5-632.36L-2862.5-640.99-2846.74-644.54Z" fill="#88BC24" transform="translate(2944.96 800.71)"/></svg>