<svg viewBox="0 0 95.26 83.53" xmlns="http://www.w3.org/2000/svg" xmlns:xlink="http://www.w3.org/1999/xlink" id="OBJECTS" overflow="hidden"><defs></defs><path d="M1890.77 444.58 1847.05 520.3C1845.97 522.162 1846.6 524.549 1848.46 525.632 1849.06 525.979 1849.74 526.161 1850.43 526.16L1937.87 526.16C1940.03 526.155 1941.78 524.4 1941.77 522.241 1941.77 521.56 1941.59 520.891 1941.25 520.3L1897.53 444.58C1896.46 442.713 1894.07 442.071 1892.2 443.146 1891.61 443.489 1891.11 443.984 1890.77 444.58Z" fill="#FEC40B" transform="translate(-1846.52 -442.62)"/><path d="M1892.6 450.65 1853.23 518.85C1852.73 519.698 1853.02 520.789 1853.87 521.286 1854.14 521.446 1854.45 521.531 1854.77 521.53L1933.52 521.53C1934.51 521.528 1935.31 520.726 1935.31 519.737 1935.31 519.426 1935.22 519.12 1935.07 518.85L1895.7 450.65C1895.21 449.794 1894.11 449.501 1893.25 449.995 1892.98 450.152 1892.76 450.378 1892.6 450.65Z" stroke="#000000" stroke-width="1.64" stroke-miterlimit="10" fill="none" transform="translate(-1846.52 -442.62)"/></svg>