<svg width="589.6" height="515.7" viewBox="0 0 589.6 515.7" xmlns="http://www.w3.org/2000/svg" xmlns:xlink="http://www.w3.org/1999/xlink" overflow="visible"><style>
.MsftOfcResponsive_Fill_ef4123 {
 fill:#EF4123; 
}
.MsftOfcThm_Background1_lumMod_85_Stroke_v2 {
 stroke:#D9D9D9; 
}
</style>
<defs></defs><g><g><path d="M220.8 417.2C220.8 449.7 220.8 479.7 220.8 515.7 199.6 492 181.7 472 161.6 449.5 139.3 473.5 121.3 492.9 103.2 512.4 101.8 511.8 100.4 511.2 99 510.5 99 480.2 99 449.8 99 417.2 83.1 417.2 69.3 417.3 55.5 417.2 19.6 416.9 0.1 397.8 1.42109e-14 362.4 0 259.9 0 157.5 0.1 55 0.1 19.6 19.8 0.1 55.5 0.1 215 0 374.5 0 534 0.1 569.5 0.1 589.4 19.8 589.5 55 589.6 157.5 589.6 259.9 589.5 362.4 589.5 397.9 570.1 417.1 534.1 417.2 436.9 417.4 339.7 417.3 242.4 417.3 235.7 417.2 228.9 417.2 220.8 417.2ZM220.9 392.1C224.5 392.9 225.6 393.4 226.8 393.4 329.8 393.5 432.8 393.6 535.8 393.4 555.9 393.4 565.3 383.4 565.4 362.8 565.5 260.4 565.5 158 565.4 55.5 565.4 32.9 556.3 23.9 533.5 23.9 374.6 23.8 215.8 23.8 56.9 23.9 33.3 23.9 24.4 33 24.4 56.7 24.3 99.2 24.4 141.7 24.4 184.1 24.4 243.5 24.3 302.8 24.5 362.2 24.5 380.8 32.5 391.8 48.3 392.9 64.4 394.1 80.6 393.2 98.4 393.2 97.4 369 102.7 347.4 87.2 325.5 63.1 291.4 72.7 244 104.5 216.9 136.5 189.8 184.4 190.2 216.7 217.8 246.9 243.7 256.5 292.6 233 325.4 217 347.5 221.5 368.9 220.9 392.1ZM221.5 281.7C221.1 248.7 192.8 220.5 159.9 220.4 126.7 220.3 97.4 249.9 97.9 283.1 98.4 315.8 126.9 344.2 159.6 344.4 192.9 344.6 221.9 315.3 221.5 281.7ZM123 456.2C136.9 442.9 148.3 432 164.8 416.2 175.2 429.7 184.5 441.8 195.5 456.1 195.5 422 195.5 392.4 195.5 365 170.5 365 147.1 365 123 365 123 392.4 123 422.4 123 456.2Z" class="MsftOfcThm_Background1_lumMod_85_Stroke_v2 MsftOfcResponsive_Fill_ef4123" stroke="#D9D9D9" stroke-width="1.00046" fill="#EF4123"/><path d="M74.7 145C74.7 138.2 74.7 132 74.7 124.5 221.3 124.5 367.4 124.5 514.7 124.5 514.7 131.1 514.7 137.3 514.7 145 369 145 222.8 145 74.7 145Z" class="MsftOfcThm_Background1_lumMod_85_Stroke_v2 MsftOfcResponsive_Fill_ef4123" stroke="#D9D9D9" stroke-width="1.00046" fill="#EF4123"/><path d="M296.4 219C296.4 211.9 296.4 205.7 296.4 198.4 369.4 198.4 441.7 198.4 514.8 198.4 514.8 205.6 514.8 211.7 514.8 219 442.3 219 370.4 219 296.4 219Z" class="MsftOfcThm_Background1_lumMod_85_Stroke_v2 MsftOfcResponsive_Fill_ef4123" stroke="#D9D9D9" stroke-width="1.00046" fill="#EF4123"/><path d="M514.8 272.1C514.8 279.1 514.8 285.2 514.8 292.6 466.9 292.6 419.5 292.6 370.7 292.6 370.7 286.4 370.7 279.8 370.7 272.1 418.4 272.1 466.2 272.1 514.8 272.1Z" class="MsftOfcThm_Background1_lumMod_85_Stroke_v2 MsftOfcResponsive_Fill_ef4123" stroke="#D9D9D9" stroke-width="1.00046" fill="#EF4123"/></g></g></svg>