<svg width="655.1" height="878.2" viewBox="0 0 655.1 878.2" xmlns="http://www.w3.org/2000/svg" xmlns:xlink="http://www.w3.org/1999/xlink" overflow="visible"><style>
.MsftOfcResponsive_Fill_ef4123 {
 fill:#EF4123; 
}
.MsftOfcThm_Background1_lumMod_85_Stroke_v2 {
 stroke:#D9D9D9; 
}
</style>
<defs></defs><g><g><path d="M24.4 644.5C29.2 644.5 33.2 644.5 37.1 644.5 91.2 644.5 145.4 644.7 199.5 644.3 209.4 644.2 216.4 645.7 218.9 656.4 219.7 659.9 222 663 224 667.3 221 667.6 218.6 668.2 216.1 668.2 149.5 668.3 82.9 668.3 16.4 668.2 3.2 668.2 7.10543e-15 664.9 7.10543e-15 651.2 7.10543e-15 612.2 7.10543e-15 573.2 7.10543e-15 534.2 7.10543e-15 400.4 7.10543e-15 266.6 7.10543e-15 132.8 7.10543e-15 115.3 2.1 113.3 19.9 113.2 47.8 113.2 75.7 113.2 105.3 113.2 105.3 99.5 105.3 86.2 105.3 72.9 105.3 56.9 107.9 54.2 124 54.2 134.8 54.1 145.5 54.1 156.3 54 156.9 54 157.5 53.6 159.6 52.8 159.6 41.4 159.6 29.4 159.6 17.5 159.6 3.3 162.8-4.26326e-14 176.5-4.26326e-14 209.5-0.1 242.4-0.1 275.4-4.26326e-14 288.1-4.26326e-14 291.5 3.5 291.6 16.2 291.7 28.6 291.6 40.9 291.6 54.3 304.5 54.3 316.2 54.3 327.9 54.3 342.9 54.3 345.7 57.1 345.8 71.8 345.9 85.2 345.8 98.6 345.8 113.3 357.7 113.3 368.6 113.3 379.6 113.3 397.8 113.3 415.9 113.3 434.1 113.3 448 113.3 451.4 116.7 451.4 130.5 451.4 209.2 451.4 287.9 451.4 366.5 451.4 376.8 451.4 387.1 451.4 398.6 443.9 396.4 437 395.1 430.8 392.1 428.7 391.1 427.9 385.9 427.9 382.7 427.7 329.9 427.8 277.1 427.8 224.3 427.8 195.8 427.8 167.2 427.8 137.9 400.4 137.9 373.8 137.9 345.8 137.9 345.8 149.7 345.9 161.3 345.8 173 345.7 185.2 342.4 188.6 330.1 188.6 260.5 188.7 190.9 188.7 121.3 188.6 108.6 188.6 105.4 185.1 105.3 172.2 105.2 160.9 105.3 149.5 105.3 137.6 77.9 137.6 51.5 137.6 24.4 137.6 24.4 306.3 24.4 474.6 24.4 644.5ZM321.8 77.9C308.2 77.9 295.5 78.1 282.8 77.9 271.8 77.7 268.4 74.2 268.2 63.2 268 50.5 268.2 37.8 268.2 24.6 239.5 24.6 211.8 24.6 183.4 24.6 183.4 37.4 183.5 49.5 183.4 61.5 183.3 74.2 179.7 77.8 167.2 77.9 154.8 78 142.5 77.9 129.7 77.9 129.7 107.4 129.7 135.8 129.7 164.5 194 164.5 257.6 164.5 321.8 164.5 321.8 135.7 321.8 107.6 321.8 77.9Z" class="MsftOfcThm_Background1_lumMod_85_Stroke_v2 MsftOfcResponsive_Fill_ef4123" stroke="#D9D9D9" stroke-width="1.00044" fill="#EF4123"/><path d="M528.5 478.1C522 481.6 515.5 485 508.4 488.8 506.1 486.2 504 483.8 501.9 481.3 463.1 437.2 415 421.2 357 431.5 302.6 441.2 241.3 493.9 240.5 574.6 239.9 643.6 287.5 703.4 355.4 719.3 420.7 734.6 489.2 702.5 519.8 642.2 530.8 620.5 530.8 620.5 553.9 610.5 555.9 628.8 537.1 664.9 506.5 700.2 510.4 701.4 513.7 703.6 516.4 703.1 527.6 700.9 536.1 704.7 543.1 713.1 574.6 750.8 606.2 788.3 637.5 826.1 648.4 839.3 646.9 852.8 633.8 864.1 630.5 867 627.2 869.9 623.7 872.5 612.7 880.7 598.9 880.1 590.1 869.7 557 830.8 524.2 791.5 491.6 752.2 484.5 743.6 484.5 733.8 489.8 723.9 491.1 721.5 490.7 718.3 491.4 712.6 442.2 745.8 392.2 755.2 338.6 739.3 294.4 726.2 260.8 698.8 238.3 658.5 194.7 580.3 217.4 479.4 297.8 429.6 380.8 378.3 481.8 407.6 528.5 478.1ZM509.6 737C542.6 776.5 575.1 815.3 608.1 854.7 612.7 850.8 616.6 847.5 621.3 843.5 588.1 803.8 555.5 764.9 522.7 725.7 517.7 730 514 733.2 509.6 737Z" class="MsftOfcThm_Background1_lumMod_85_Stroke_v2 MsftOfcResponsive_Fill_ef4123" stroke="#D9D9D9" stroke-width="1.00044" fill="#EF4123"/><path d="M425.1 557.9C452.3 544 478.8 530.4 505.3 516.7 547.7 494.9 590.1 473.1 632.6 451.4 646.3 444.4 653.8 448.9 654.1 464.3 654.4 483.1 654.5 501.9 655.1 520.8 655.4 528.6 652.3 533.3 645.5 536.8 572.5 574.1 499.7 611.7 426.7 649 404.9 660.1 382.1 652.8 370.8 631.5 355.9 603.3 341.7 574.7 326.9 546.4 323.2 539.3 323.2 533.4 328.9 527.2 341.8 513 354.2 498.4 366.9 484.1 375.5 474.5 383.9 475.5 389.8 487 401.5 510.2 413 533.7 425.1 557.9ZM375 510.6C367.7 518.9 361.5 526.4 354.7 533.4 350.8 537.4 350.4 540.6 353.1 545.7 365.8 569.8 378 594.1 390.5 618.2 396.7 630.2 405.4 633.2 417.1 627.2 486.5 591.7 555.8 556 625 520.3 627.4 519.1 630.7 516.5 630.8 514.4 631.4 503.2 631.1 492 631.1 478.9 624.7 482.1 620.8 484 617 486 555.5 517.6 493.9 549.3 432.4 580.9 416.4 589.1 413.3 587.9 405.3 571.7 395.4 551.6 385.4 531.6 375 510.6Z" class="MsftOfcThm_Background1_lumMod_85_Stroke_v2 MsftOfcResponsive_Fill_ef4123" stroke="#D9D9D9" stroke-width="1.00044" fill="#EF4123"/><path d="M360.5 333.7C360.5 341.4 360.5 348.3 360.5 356.3 270.8 356.3 181.3 356.3 91.1 356.3 91.1 349.3 91.1 341.8 91.1 333.7 180.7 333.7 270 333.7 360.5 333.7Z" class="MsftOfcThm_Background1_lumMod_85_Stroke_v2 MsftOfcResponsive_Fill_ef4123" stroke="#D9D9D9" stroke-width="1.00044" fill="#EF4123"/><path d="M91.1 264.3C91.1 256.8 91.1 249.9 91.1 242.3 181 242.3 270.5 242.3 360.5 242.3 360.5 249.8 360.5 256.7 360.5 264.3 270.8 264.3 181.5 264.3 91.1 264.3Z" class="MsftOfcThm_Background1_lumMod_85_Stroke_v2 MsftOfcResponsive_Fill_ef4123" stroke="#D9D9D9" stroke-width="1.00044" fill="#EF4123"/><path d="M274.5 425.1C266.6 432.5 260.2 438.8 253.3 444.7 251.2 446.5 248.2 448.2 245.5 448.2 194.8 448.3 144.1 448.2 93.4 448.1 92.8 448.1 92.2 447.6 91 447.1 91 440.1 91 432.9 91 425.1 152 425.1 212.6 425.1 274.5 425.1Z" class="MsftOfcThm_Background1_lumMod_85_Stroke_v2 MsftOfcResponsive_Fill_ef4123" stroke="#D9D9D9" stroke-width="1.00044" fill="#EF4123"/><path d="M91.1 539.9C91.1 531.8 91.1 524.9 91.1 517.1 130.3 517.1 169.3 517.1 208.4 517.1 208.6 517.8 209 518.5 208.9 519 204.4 539.9 204.4 539.9 183 539.9 152.7 539.9 122.5 539.9 91.1 539.9Z" class="MsftOfcThm_Background1_lumMod_85_Stroke_v2 MsftOfcResponsive_Fill_ef4123" stroke="#D9D9D9" stroke-width="1.00044" fill="#EF4123"/></g></g></svg>