<svg width="678.4" height="481" viewBox="0 0 678.4 481" xmlns="http://www.w3.org/2000/svg" xmlns:xlink="http://www.w3.org/1999/xlink" overflow="visible"><style>
.MsftOfcResponsive_Fill_ef4123 {
 fill:#EF4123; 
}
.MsftOfcThm_Background1_lumMod_85_Stroke_v2 {
 stroke:#D9D9D9; 
}
</style>
<defs></defs><path d="M46.4 396.2C45 378.7 42.8 363.3 42.8 347.8 42.5 253.5 42.6 159.3 42.6 65 42.6 22.6 65.1 0.1 107.6 0 262.1 0 416.6 0 571 0 614.4 0 636.6 22.4 636.6 66 636.6 155.5 636.8 245.1 636.5 334.6 636.4 354.7 634.7 374.9 633.6 396.2 641.7 396.2 652.1 396 662.5 396.2 673.4 396.4 678.3 402 678.4 413.1 678.6 441.3 656.7 470 627.8 477.7 620.3 479.7 612.3 480.8 604.6 480.8 428.1 481 251.7 481 75.2 480.9 39.7 480.9 13.4 461.9 3.6 430.6-4.8 404 1 396.1 28.8 396.1 34.9 396.1 41.2 396.2 46.4 396.2ZM340 28.3C261.5 28.3 182.9 28.2 104.4 28.3 81.1 28.3 71 38.4 70.9 61.8 70.8 161.8 70.8 261.8 70.9 361.9 70.9 386.3 80.8 396.1 105.2 396.1 261.3 396.2 417.3 396.2 573.4 396.1 598.8 396.1 608.4 386.5 608.5 361 608.6 262 608.6 163.1 608.5 64.1 608.5 37.6 599.1 28.3 572.6 28.3 495 28.2 417.5 28.3 340 28.3ZM36.2 424.7C44.2 446.2 54 452.7 77.4 452.7 252.2 452.7 426.9 452.7 601.7 452.7 605.9 452.7 610.2 453 614.2 452.2 629.3 449.3 638.1 439.8 644.5 424.7 440.3 424.7 238.9 424.7 36.2 424.7Z" class="MsftOfcThm_Background1_lumMod_85_Stroke_v2 MsftOfcResponsive_Fill_ef4123" stroke="#D9D9D9" stroke-width="1.00038" fill="#EF4123"/><path d="M256.4 100.2C322.6 138 386.8 174.7 452.5 212.2 386.5 249.9 322.3 286.6 256.4 324.3 256.4 249.2 256.4 175.8 256.4 100.2ZM284 147.5C284 191.8 284 233.5 284 276.9 322.1 255 358.3 234.1 396.3 212.1 357.8 190 321.7 169.2 284 147.5Z" class="MsftOfcThm_Background1_lumMod_85_Stroke_v2 MsftOfcResponsive_Fill_ef4123" stroke="#D9D9D9" stroke-width="1.00038" fill="#EF4123"/></svg>