<svg width="729.6" height="545.2" viewBox="0 0 729.6 545.2" xmlns="http://www.w3.org/2000/svg" xmlns:xlink="http://www.w3.org/1999/xlink" overflow="visible"><style>
.MsftOfcResponsive_Fill_ef4123 {
 fill:#EF4123; 
}
.MsftOfcThm_Background1_lumMod_85_Stroke_v2 {
 stroke:#D9D9D9; 
}
</style>
<defs></defs><g><path d="M364.7 545.2C260.8 545.2 156.9 545.2 53 545.2 16.8 545.2 0.1 528.7 0.1 492.4 0 346.2 0 200 0.1 53.9 0.1 16.8 16.8 0.1 53.8 0.1 261.1 0 468.4 0 675.7 0 712.3 0 729.5 17.3 729.5 53.9 729.5 200.1 729.5 346.2 729.5 492.4 729.5 528.1 712.2 545.1 676.3 545.2 572.5 545.2 468.6 545.2 364.7 545.2ZM349.1 30.7C343.6 30.4 338.7 29.9 333.9 29.9 240.9 29.9 148 29.8 55 29.9 33.7 29.9 29.9 33.8 29.9 55.2 29.9 199.9 29.9 344.5 29.9 489.2 29.9 512.1 33.1 515.3 55.5 515.3 148.5 515.3 241.4 515.3 334.4 515.3 339.2 515.3 343.9 514.8 349.1 514.5 349.1 352.8 349.1 192.5 349.1 30.7ZM380.7 515.4C386.8 515.4 391.7 515.4 396.6 515.4 489 515.4 581.5 515.4 673.9 515.4 696.4 515.4 699.4 512.3 699.4 489.3 699.4 345.2 699.4 201.1 699.4 57 699.4 33.4 696.2 30 673.1 30 581.2 30 489.2 30 397.3 30 392 30 386.7 30.5 380.7 30.8 380.7 192.3 380.7 352.7 380.7 515.4Z" class="MsftOfcThm_Background1_lumMod_85_Stroke_v2 MsftOfcResponsive_Fill_ef4123" stroke="#D9D9D9" stroke-width="1.00047" fill="#EF4123"/><path d="M652.3 183.2C652.3 192.7 652.3 201.4 652.3 211 576.7 211 501.9 211 426.2 211 426.2 201.7 426.2 193 426.2 183.2 501 183.2 575.8 183.2 652.3 183.2Z" class="MsftOfcThm_Background1_lumMod_85_Stroke_v2 MsftOfcResponsive_Fill_ef4123" stroke="#D9D9D9" stroke-width="1.00047" fill="#EF4123"/><path d="M652.4 106.9C652.4 116.4 652.4 125.2 652.4 135 577.3 135 502.5 135 426.6 135 426.6 126.2 426.6 117.1 426.6 106.9 501 106.9 575.8 106.9 652.4 106.9Z" class="MsftOfcThm_Background1_lumMod_85_Stroke_v2 MsftOfcResponsive_Fill_ef4123" stroke="#D9D9D9" stroke-width="1.00047" fill="#EF4123"/><path d="M426 287.2C426 277.2 426 268.4 426 258.7 501.3 258.7 576.1 258.7 651.9 258.7 651.9 268 651.9 277.1 651.9 287.2 576.9 287.2 502.1 287.2 426 287.2Z" class="MsftOfcThm_Background1_lumMod_85_Stroke_v2 MsftOfcResponsive_Fill_ef4123" stroke="#D9D9D9" stroke-width="1.00047" fill="#EF4123"/><path d="M652.2 334.5C652.2 344 652.2 352.8 652.2 362.4 576.7 362.4 501.9 362.4 426.3 362.4 426.3 353.2 426.3 344.4 426.3 334.5 501 334.5 575.7 334.5 652.2 334.5Z" class="MsftOfcThm_Background1_lumMod_85_Stroke_v2 MsftOfcResponsive_Fill_ef4123" stroke="#D9D9D9" stroke-width="1.00047" fill="#EF4123"/><path d="M652.3 410.8C652.3 420.3 652.3 429 652.3 438.8 577.4 438.8 502.6 438.8 426.6 438.8 426.6 430.1 426.6 421 426.6 410.8 501 410.8 575.7 410.8 652.3 410.8Z" class="MsftOfcThm_Background1_lumMod_85_Stroke_v2 MsftOfcResponsive_Fill_ef4123" stroke="#D9D9D9" stroke-width="1.00047" fill="#EF4123"/></g></svg>