<svg viewBox="0 0 30.13 6.74" xmlns="http://www.w3.org/2000/svg" xmlns:xlink="http://www.w3.org/1999/xlink" id="Modo_de_aislamiento" overflow="hidden"><defs></defs><path d="M1512.68 446C1512.67 447.861 1511.16 449.366 1509.3 449.36 1507.44 449.354 1505.93 447.841 1505.94 445.98 1505.95 444.123 1507.45 442.62 1509.31 442.62 1511.17 442.62 1512.68 444.129 1512.68 445.99 1512.68 445.993 1512.68 445.997 1512.68 446Z" fill="#EA4934" transform="translate(-1505.94 -442.62)"/><path d="M1524.38 446C1524.38 447.867 1522.87 449.38 1521 449.38 1519.13 449.38 1517.62 447.867 1517.62 446 1517.62 444.133 1519.13 442.62 1521 442.62 1522.86 442.614 1524.37 444.119 1524.38 445.98 1524.38 445.987 1524.38 445.993 1524.38 446Z" fill="#FEC40B" transform="translate(-1505.94 -442.62)"/><path d="M1536.07 446C1536.07 447.867 1534.56 449.38 1532.69 449.38 1530.82 449.38 1529.31 447.867 1529.31 446 1529.31 444.133 1530.82 442.62 1532.69 442.62 1532.69 442.62 1532.7 442.62 1532.7 442.62 1534.56 442.62 1536.07 444.129 1536.07 445.99 1536.07 445.993 1536.07 445.997 1536.07 446Z" fill="#4EA753" transform="translate(-1505.94 -442.62)"/></svg>