<svg width="509.7" height="653.9" viewBox="0 0 509.7 653.9" xmlns="http://www.w3.org/2000/svg" xmlns:xlink="http://www.w3.org/1999/xlink" overflow="visible"><style>
.MsftOfcResponsive_Fill_ef4123 {
 fill:#EF4123; 
}
.MsftOfcThm_Background1_lumMod_85_Stroke_v2 {
 stroke:#D9D9D9; 
}
</style>
<defs></defs><g><g><path d="M0 630.7C0 454 0 277.2 0 100.4 5.4 93.6 9.8 85.4 16.6 80.5 21.5 77 29.5 77 36.2 76.8 58.6 76.4 81.1 76.6 103.5 76.6 104.1 73 104.5 71.4 104.6 69.7 106 45.5 110.3 41.4 135.1 41.3 146.5 41.3 157.9 41.3 170.4 41.3 169.3 22.7 169.8 5.9 190.6-0.2 233.5-0.2 276.4-0.2 319.3-0.2 340.1 5.8 340.5 22.8 339.5 41.3 354.6 41.3 368.6 41 382.6 41.4 397.5 41.8 404.3 48.8 405.1 63.5 405.3 67.6 405.7 71.7 406 76.5 428.3 76.5 449.3 77.3 470.2 76.3 488.3 75.4 501.7 81.1 509.8 97.7 509.8 275.3 509.8 453 509.8 630.6 504.5 643.4 494.8 650.7 481.5 653.8 330.5 653.8 179.4 653.8 28.4 653.8 15 650.9 5.5 643.2 0 630.7ZM26.2 103.5C26.2 109.3 26.2 113.5 26.2 117.7 26.2 282.4 26.3 447.2 25.9 611.9 25.9 624.2 29.7 626.9 41.2 626.8 183.6 626.5 326.1 626.5 468.5 626.8 479.9 626.8 483.9 624.3 483.8 611.9 483.4 447.2 483.5 282.4 483.5 117.7 483.5 113.1 483.1 108.6 482.8 103.7 456.4 103.7 431.4 103.7 405.8 103.7 405.6 108.3 405.4 112.1 405.3 115.9 405.2 120.2 405.4 124.5 405.2 128.8 404.4 142.2 397.6 149.5 384.3 149.6 298.1 149.8 211.8 149.8 125.6 149.6 112.2 149.6 105.3 142.4 104.7 128.9 104.3 120.5 104.6 112.1 104.6 103.5 77.9 103.5 53.1 103.5 26.2 103.5ZM131.3 122.4C214.5 122.4 296.2 122.4 377.7 122.4 377.7 103.8 377.7 86.1 377.7 67.6 362.5 67.6 348.4 67.7 334.3 67.6 316 67.4 313.3 64.6 313.2 46.7 313.2 40.5 313.2 34.2 313.2 27.9 273.3 27.9 235.4 27.9 196.6 27.9 196.6 34.9 196.6 40.9 196.6 46.8 196.4 64 193.3 67.2 176.4 67.3 161.5 67.4 146.7 67.3 131.4 67.3 131.3 86.5 131.3 104 131.3 122.4Z" class="MsftOfcThm_Background1_lumMod_85_Stroke_v2 MsftOfcResponsive_Fill_ef4123" stroke="#D9D9D9" stroke-width="0.999475" fill="#EF4123"/><path d="M315.9 529.5C288.1 529.5 260.3 529.4 232.4 529.5 223 529.5 214.3 527.7 213.9 516.6 213.6 504.7 222.5 502.4 232.4 502.4 288 502.5 343.7 502.5 399.3 502.4 408.7 502.4 417.3 504.1 417.7 515.4 418.1 527.5 409.2 529.6 399.2 529.5 371.6 529.4 343.7 529.5 315.9 529.5Z" class="MsftOfcThm_Background1_lumMod_85_Stroke_v2 MsftOfcResponsive_Fill_ef4123" stroke="#D9D9D9" stroke-width="0.999475" fill="#EF4123"/><path d="M316.7 371.2C344.1 371.2 371.5 371.2 398.9 371.2 408.7 371.2 418 372.7 418 384.8 417.9 397 408.4 398.2 398.7 398.2 343.9 398.2 289.2 398.2 234.4 398.2 232.3 398.2 230.1 398.2 228 398 219.7 397.3 213.9 393.5 213.9 384.6 214 375.7 220 371.5 228.2 371.4 245.7 371 263.3 371.2 280.8 371.2 292.7 371.2 304.7 371.2 316.7 371.2Z" class="MsftOfcThm_Background1_lumMod_85_Stroke_v2 MsftOfcResponsive_Fill_ef4123" stroke="#D9D9D9" stroke-width="0.999475" fill="#EF4123"/><path d="M316.6 243.9C344.4 243.9 372.2 244 400.1 243.8 409.7 243.7 418 245.5 417.9 257 417.9 268.2 409.9 270.5 400.2 270.4 344.1 270.2 288.1 270.2 232 270.4 222.2 270.4 214.2 267.8 214 257 213.8 245.7 222.3 243.8 231.9 243.8 260.1 244 288.4 243.9 316.6 243.9Z" class="MsftOfcThm_Background1_lumMod_85_Stroke_v2 MsftOfcResponsive_Fill_ef4123" stroke="#D9D9D9" stroke-width="0.999475" fill="#EF4123"/><path d="M124.6 381.7C133.1 371.5 140.8 362.4 148.3 353.1 153.3 346.9 159.4 344.2 166 349.1 173.4 354.6 171.7 361.7 166.4 368.1 155.6 381.4 145 394.8 133.9 407.8 126 417 119.6 416.5 112.2 406.5 107.9 400.7 104.1 394.5 99.9 388.5 95.3 381.8 93.4 374.8 101.3 369.6 108.2 365.1 114.3 367.8 118.9 374.4 120.4 376.6 122 378.5 124.6 381.7Z" class="MsftOfcThm_Background1_lumMod_85_Stroke_v2 MsftOfcResponsive_Fill_ef4123" stroke="#D9D9D9" stroke-width="0.999475" fill="#EF4123"/><path d="M124.6 258.1C132.9 248 140.7 238.9 148.2 229.6 153.6 222.9 161 219.9 166.5 226.5 169.5 230 169.2 239.9 166.3 244.1 156.6 258.1 145.3 271 134.2 284 126.4 293.1 119.5 292.7 112.3 283.1 108 277.3 104.2 271.1 100 265.1 95.4 258.4 93.4 251.3 101.3 246.2 108.9 241.2 115 245 119.6 251.9 120.7 253.7 122.2 255.2 124.6 258.1Z" class="MsftOfcThm_Background1_lumMod_85_Stroke_v2 MsftOfcResponsive_Fill_ef4123" stroke="#D9D9D9" stroke-width="0.999475" fill="#EF4123"/><path d="M124.7 510.3C132.7 500.5 140.4 491.4 147.9 482 153.2 475.3 159.8 472.6 166.6 478.2 173.6 484 171.3 490.9 166.1 497.3 155.5 510.1 145.2 523.2 134.4 535.9 126.7 545 119.4 544.8 112.5 535.4 107.9 529.2 103.9 522.7 99.6 516.3 95.2 509.8 94.1 503.1 101.1 498.4 107.8 493.9 114.1 496.1 118.7 502.8 120.3 505.2 122.3 507.4 124.7 510.3Z" class="MsftOfcThm_Background1_lumMod_85_Stroke_v2 MsftOfcResponsive_Fill_ef4123" stroke="#D9D9D9" stroke-width="0.999475" fill="#EF4123"/></g></g></svg>