<svg viewBox="0 0 100 119.28" xmlns="http://www.w3.org/2000/svg" xmlns:xlink="http://www.w3.org/1999/xlink" id="Capa_1" overflow="hidden"><defs></defs><path d="M1101.64 292.31 1101.64 292.31Z" fill="none" transform="translate(-1065.5 -173.93)"/><path d="M1101.13 293.06C1101.13 293.06 1101.13 293.06 1101.13 293.06 1101.13 293.06 1101.12 293 1101.13 293.06Z" fill="none" transform="translate(-1065.5 -173.93)"/><path d="M1111.26 235.84C1111.26 236.04 1111.33 236.14 1111.57 236.09 1112.03 236.01 1112.51 235.98 1112.97 235.9 1114.6 235.612 1116.19 235.129 1117.7 234.46 1117.92 234.304 1118.17 234.186 1118.43 234.11 1118.46 234.04 1118.54 234.003 1118.62 234.02 1118.82 233.836 1119.06 233.706 1119.32 233.64 1119.41 233.504 1119.56 233.413 1119.72 233.39 1119.93 233.195 1120.18 233.033 1120.44 232.91L1120.44 232.91 1120.76 232.66C1124.69 229.864 1127.43 225.691 1128.42 220.97 1128.42 220.82 1128.42 220.66 1128.52 220.54L1128.52 220.54C1128.61 219.77 1128.74 219 1128.78 218.23 1129.35 208.018 1121.81 199.152 1111.64 198.08 1111.35 198.08 1111.27 198.08 1111.28 198.41 1111.28 198.963 1111.28 199.513 1111.28 200.06 1111.26 200.897 1110.58 201.566 1109.74 201.56 1108.88 201.575 1108.18 200.893 1108.16 200.038 1108.16 199.978 1108.16 199.919 1108.17 199.86 1108.17 196.13 1108.17 192.4 1108.17 188.67 1108.17 188.28 1108.06 188.21 1107.71 188.25 1106.83 188.33 1105.95 188.41 1105.07 188.56 1097.78 189.697 1091.22 193.646 1086.81 199.56 1081.39 206.373 1079.48 215.329 1081.64 223.76 1083.73 232.56 1089.02 238.96 1097.07 243.07 1098.53 243.811 1100.06 244.411 1101.64 244.86 1101.84 244.878 1102.02 244.943 1102.19 245.05 1102.28 245.035 1102.37 245.035 1102.46 245.05 1104.16 245.485 1105.9 245.776 1107.65 245.92 1108.07 245.92 1108.18 245.85 1108.17 245.43 1108.17 243.55 1108.17 241.67 1108.17 239.79 1108.17 239.34 1108.06 239.21 1107.62 239.17 1095.41 237.986 1086.46 227.124 1087.65 214.909 1088.2 209.252 1090.89 204.02 1095.18 200.29 1095.57 199.887 1096.14 199.717 1096.69 199.84 1097.26 199.95 1097.71 200.391 1097.84 200.96 1098 201.585 1097.77 202.245 1097.25 202.63 1092.25 206.862 1089.82 213.399 1090.85 219.87 1092.12 228.535 1099.13 235.219 1107.85 236.08 1108.1 236.08 1108.17 236.08 1108.22 235.8 1108.34 235.043 1109 234.49 1109.77 234.5 1110.53 234.514 1111.17 235.085 1111.26 235.84ZM1108.55 227.84 1102.01 222.52C1101.8 222.37 1101.56 222.26 1101.45 221.99L1101.45 221.99C1101.24 221.921 1101.05 221.796 1100.91 221.63 1099.97 220.946 1099.1 220.183 1098.29 219.35 1096.49 217.323 1095.96 214.468 1096.91 211.93 1097.66 209.359 1099.84 207.463 1102.49 207.08 1104.89 206.659 1107.35 207.293 1109.24 208.82 1109.48 209.096 1109.89 209.127 1110.17 208.889 1110.2 208.868 1110.22 208.845 1110.24 208.82 1112.67 206.801 1116.04 206.354 1118.91 207.67 1121.88 209.176 1123.51 212.461 1122.91 215.74 1122.53 217.751 1121.4 219.54 1119.74 220.74 1116.74 223.09 1113.88 225.49 1110.95 227.86 1110.35 228.528 1109.33 228.586 1108.66 227.991 1108.62 227.956 1108.59 227.919 1108.55 227.88Z" fill="none" transform="translate(-1065.5 -173.93)"/><path d="M1101.69 291.83C1101.76 291.819 1101.82 291.819 1101.89 291.83 1101.82 291.819 1101.76 291.819 1101.69 291.83Z" fill="none" transform="translate(-1065.5 -173.93)"/><path d="M1101.64 292.62C1101.67 292.588 1101.7 292.551 1101.72 292.51 1101.7 292.551 1101.67 292.588 1101.64 292.62Z" fill="none" transform="translate(-1065.5 -173.93)"/><path d="M1119 211.72C1118.27 210.78 1117.18 210.183 1116 210.07L1115.26 210.07C1115.11 210.132 1114.94 210.156 1114.78 210.14 1113.34 210.392 1112.03 211.164 1111.12 212.31 1110.64 213.058 1109.64 213.276 1108.9 212.795 1108.7 212.67 1108.54 212.505 1108.41 212.31 1107.86 211.591 1107.14 211.018 1106.31 210.64 1104.8 209.813 1102.97 209.866 1101.51 210.78 1099.49 212.145 1098.96 214.886 1100.33 216.904 1100.55 217.229 1100.81 217.524 1101.11 217.78 1103.88 220.1 1106.72 222.35 1109.52 224.64 1109.72 224.81 1109.84 224.78 1110.02 224.64 1112.8 222.37 1115.6 220.13 1118.36 217.84 1120.19 216.308 1120.47 213.598 1119 211.72Z" fill="none" transform="translate(-1065.5 -173.93)"/><path d="M1101 292.5C1101.02 292.524 1101.05 292.542 1101.08 292.55L1101.13 292.55 1101.08 292.55C1101.05 292.542 1101.02 292.524 1101 292.5Z" fill="none" transform="translate(-1065.5 -173.93)"/><path d="M1101.58 291.82 1101.58 291.82C1101.39 291.809 1101.2 291.896 1101.09 292.05 1101.2 291.896 1101.39 291.809 1101.58 291.82Z" fill="none" transform="translate(-1065.5 -173.93)"/><path d="M1101.6 293.13C1101.64 293.12 1101.68 293.12 1101.72 293.13 1101.68 293.12 1101.64 293.12 1101.6 293.13Z" fill="none" transform="translate(-1065.5 -173.93)"/><path d="M1102.19 293.11 1102.12 293.11Z" fill="none" transform="translate(-1065.5 -173.93)"/><path d="M1101.6 293.13 1101.43 293.18Z" fill="none" transform="translate(-1065.5 -173.93)"/><path d="M1101.64 292.62 1101.64 292.62 1101.57 292.67 1101.64 292.62Z" fill="none" transform="translate(-1065.5 -173.93)"/><path d="M1102 293.13 1102 293.13Z" fill="none" transform="translate(-1065.5 -173.93)"/><path d="M1119.43 290.1C1119.8 290.146 1120.16 289.919 1120.27 289.56 1122.49 284.553 1124.72 279.553 1126.97 274.56 1127.11 274.26 1127.1 274.16 1126.74 274.1L1117.74 272.55C1117.4 272.508 1117.09 272.377 1116.82 272.17 1116.28 271.726 1116.11 270.975 1116.4 270.34 1116.71 269.64 1117.48 269.267 1118.22 269.46L1125.4 270.72 1143.18 273.8C1144.34 274.078 1145.54 274.142 1146.72 273.99 1150.18 273.393 1152.69 270.36 1152.62 266.85L1152.62 246.71C1152.53 245.916 1153.02 245.17 1153.79 244.95L1160.67 242.07C1161.99 241.636 1162.7 240.217 1162.27 238.9 1162.22 238.751 1162.16 238.607 1162.08 238.47 1161.6 237.4 1161.08 236.33 1160.61 235.27L1155 223.13 1154.39 221.82 1154.39 221.82 1154.39 221.58C1154.08 221.1 1153.83 220.591 1153.62 220.06 1153.53 219.787 1153.49 219.498 1153.51 219.21 1153.46 207.842 1148.83 196.975 1140.66 189.07 1139.96 188.38 1139.24 187.72 1138.54 187.07 1138.2 186.891 1137.89 186.65 1137.64 186.36 1136.88 185.81 1136.14 185.23 1135.36 184.7 1126.1 178.139 1114.57 175.637 1103.42 177.77 1095.25 179.202 1087.71 183.063 1081.77 188.85 1079.08 191.425 1076.73 194.327 1074.77 197.49L1074.06 198.74C1069.83 206.213 1068 214.802 1068.8 223.35 1069.19 227.753 1070.27 232.068 1071.99 236.14 1073.16 238.735 1074.5 241.254 1075.99 243.68 1078.64 248.154 1080.67 252.973 1082 258 1082.8 261.13 1083.47 264.3 1084.2 267.45 1085.37 272.51 1086.54 277.57 1087.72 282.63 1088.26 284.97 1088.8 287.3 1089.32 289.63 1089.4 290 1089.54 290.1 1089.92 290.1 1099.75 290.08 1109.59 290.08 1119.43 290.1ZM1092.67 260.78C1091.81 260.877 1091.03 260.257 1090.93 259.395 1090.91 259.164 1090.93 258.93 1091.01 258.71 1091.2 258.128 1091.73 257.728 1092.34 257.71 1092.72 257.71 1093.1 257.71 1093.48 257.71 1097.03 257.71 1100.58 257.71 1104.12 257.71 1106.25 257.824 1108.07 256.191 1108.18 254.062 1108.19 253.918 1108.19 253.774 1108.18 253.63 1108.11 252.26 1108.18 250.88 1108.18 249.5 1108.18 249.2 1108.13 249.09 1107.8 249.07 1103.3 248.833 1098.91 247.611 1094.94 245.49 1086.64 241.194 1080.65 233.467 1078.56 224.36 1078.56 224.23 1078.56 224.09 1078.49 223.96L1078.35 223.33C1078.22 223.23 1078.35 223.09 1078.35 222.98 1078.12 221.909 1077.96 220.823 1077.88 219.73 1077.36 213.899 1078.5 208.04 1081.17 202.83 1085.67 193.646 1094.34 187.209 1104.43 185.56 1107.93 184.935 1111.51 184.935 1115.01 185.56 1115.35 185.597 1115.68 185.667 1116.01 185.77 1117.92 186.088 1119.79 186.632 1121.58 187.39 1131.08 191.39 1137.58 198.24 1140.44 208.13 1143.44 218.36 1141.55 227.88 1135.24 236.46 1132.21 240.578 1128.19 243.871 1123.56 246.04 1122.82 246.474 1121.86 246.223 1121.43 245.479 1120.99 244.734 1121.24 243.779 1121.99 243.345 1122.05 243.309 1122.11 243.277 1122.18 243.25 1126.56 241.184 1130.35 238.035 1133.18 234.1 1135.9 230.438 1137.67 226.161 1138.33 221.65 1139.79 211.18 1136.54 202.36 1128.68 195.31 1124.58 191.623 1119.46 189.251 1114 188.5 1113.22 188.38 1112.43 188.31 1111.64 188.24 1111.4 188.24 1111.32 188.24 1111.32 188.53 1111.32 190.53 1111.32 192.6 1111.32 194.63 1111.32 194.91 1111.43 194.94 1111.67 194.96 1116.16 195.315 1120.44 197.063 1123.89 199.96 1128.61 203.702 1131.52 209.276 1131.89 215.29 1132.46 224.56 1128.61 231.61 1120.67 236.41 1118 237.987 1115.01 238.928 1111.92 239.16 1111.47 239.16 1111.34 239.34 1111.34 239.81 1111.34 244.477 1111.34 249.123 1111.34 253.75 1111.42 257.538 1108.41 260.673 1104.62 260.751 1104.51 260.754 1104.39 260.753 1104.28 260.75Z" fill="none" transform="translate(-1065.5 -173.93)"/><path d="M1165.41 238.79C1165.29 238.114 1165.07 237.459 1164.75 236.85L1158.5 223.28C1158.44 223.15 1158.41 222.99 1158.27 222.9 1158.15 222.434 1157.95 221.996 1157.66 221.61 1157.62 221.332 1157.51 221.07 1157.34 220.85L1157.34 220.85C1157.22 220.449 1157.05 220.068 1156.82 219.72 1156.63 219.224 1156.54 218.691 1156.58 218.16 1156.31 209.054 1153.31 200.238 1147.98 192.85 1146.62 190.95 1145.12 189.161 1143.48 187.5 1143.15 187.16 1142.69 186.96 1142.48 186.5 1142.25 186.245 1141.98 186.02 1141.69 185.83L1141.69 185.76C1141.54 185.569 1141.36 185.407 1141.16 185.28L1140.49 184.73C1140.31 184.486 1140.08 184.293 1139.8 184.17 1139.19 183.577 1138.52 183.044 1137.8 182.58 1132.09 178.396 1125.47 175.627 1118.48 174.5 1117.09 174.27 1115.69 174.12 1114.29 174.02 1114.15 174.02 1113.98 174.1 1113.88 173.92L1108.19 173.92C1107.9 174.13 1107.55 174.05 1107.19 174.08 1101.9 174.488 1096.73 175.843 1091.92 178.08 1083.38 182.025 1076.28 188.528 1071.6 196.69 1068.39 202.162 1066.4 208.26 1065.76 214.57 1065.69 215.24 1065.64 215.91 1065.58 216.57 1065.59 216.632 1065.55 216.691 1065.49 216.71L1065.49 222.21C1065.63 222.522 1065.69 222.868 1065.65 223.21 1066.23 230.381 1068.5 237.312 1072.29 243.43 1072.69 244.08 1073.07 244.74 1073.46 245.43L1073.97 246.33C1074.72 247.84 1075.51 249.33 1076.19 250.89 1077.71 254.435 1078.89 258.119 1079.7 261.89 1081.36 269.27 1083.1 276.63 1084.8 284.01 1085.4 286.61 1086.01 289.21 1086.6 291.81 1086.71 292.42 1087.11 292.939 1087.67 293.2L1121.53 293.2C1122.07 292.908 1122.47 292.411 1122.64 291.82 1125.13 286.273 1127.62 280.717 1130.09 275.15 1130.24 274.81 1130.4 274.74 1130.77 274.8 1135.2 275.59 1139.63 276.39 1144.08 277.11 1149.39 277.831 1154.35 274.345 1155.48 269.11 1155.64 268.33 1155.71 267.536 1155.71 266.74 1155.71 260.51 1155.71 254.27 1155.71 248.03 1155.66 247.683 1155.88 247.354 1156.22 247.27 1158.22 246.46 1160.22 245.65 1162.13 244.79 1163.9 244.04 1165.15 242.415 1165.42 240.51L1165.51 240.51 1165.51 238.8ZM1101.69 292.35C1101.7 292.375 1101.7 292.405 1101.69 292.43 1101.7 292.405 1101.7 292.375 1101.69 292.35ZM1101.36 291.86C1101.27 291.881 1101.19 291.926 1101.13 291.99 1101.19 291.926 1101.27 291.881 1101.36 291.86 1101.41 291.85 1101.46 291.85 1101.51 291.86 1101.46 291.85 1101.41 291.85 1101.36 291.86ZM1101.15 293.12C1101.15 293.136 1101.15 293.154 1101.15 293.17 1101.15 293.154 1101.15 293.136 1101.15 293.12ZM1160.65 242.07 1153.77 244.95C1153 245.17 1152.51 245.916 1152.6 246.71L1152.6 266.85C1152.67 270.36 1150.16 273.393 1146.7 273.99 1145.52 274.142 1144.32 274.078 1143.16 273.8L1125.38 270.72 1118.2 269.46C1117.46 269.267 1116.69 269.64 1116.38 270.34 1116.09 270.975 1116.26 271.726 1116.8 272.17 1117.07 272.377 1117.38 272.508 1117.72 272.55L1126.72 274.1C1127.08 274.16 1127.09 274.26 1126.95 274.56 1124.71 279.553 1122.48 284.553 1120.25 289.56 1120.14 289.919 1119.78 290.146 1119.41 290.1 1109.56 290.1 1099.71 290.1 1089.87 290.1 1089.49 290.1 1089.35 290 1089.27 289.63 1088.75 287.29 1088.21 284.96 1087.67 282.63 1086.5 277.57 1085.32 272.51 1084.15 267.45 1083.42 264.3 1082.75 261.13 1081.95 258 1080.64 252.973 1078.64 248.151 1076.01 243.67 1074.52 241.244 1073.18 238.725 1072.01 236.13 1070.29 232.058 1069.21 227.743 1068.82 223.34 1068.02 214.792 1069.85 206.203 1074.08 198.73L1074.79 197.48C1076.75 194.317 1079.1 191.415 1081.79 188.84 1087.73 183.053 1095.27 179.192 1103.44 177.76 1114.59 175.627 1126.12 178.129 1135.38 184.69 1136.16 185.22 1136.9 185.8 1137.66 186.35 1137.91 186.64 1138.22 186.881 1138.56 187.06 1139.26 187.73 1139.98 188.39 1140.68 189.06 1148.85 196.965 1153.48 207.832 1153.53 219.2 1153.51 219.488 1153.55 219.777 1153.64 220.05 1153.85 220.581 1154.1 221.09 1154.41 221.57L1154.41 221.81 1154.41 221.81 1155.02 223.12 1160.6 235.26C1161.09 236.32 1161.6 237.39 1162.07 238.46 1162.74 239.671 1162.31 241.2 1161.1 241.874 1160.96 241.954 1160.81 242.02 1160.65 242.07Z" fill="#030303" transform="translate(-1065.5 -173.93)"/><path d="M1101.52 292.34C1101.52 292.34 1101.52 292.34 1101.52 292.34 1101.52 292.34 1101.52 292.35 1101.52 292.34Z" fill="#030303" transform="translate(-1065.5 -173.93)"/><path d="M1101.37 292.56C1101.34 292.57 1101.31 292.57 1101.28 292.56 1101.31 292.57 1101.34 292.57 1101.37 292.56Z" fill="#030303" transform="translate(-1065.5 -173.93)"/><path d="M1101.73 292.43C1101.74 292.405 1101.74 292.375 1101.73 292.35 1101.74 292.375 1101.74 292.405 1101.73 292.43Z" fill="#030303" transform="translate(-1065.5 -173.93)"/><path d="M1101.13 293.09 1101.13 293.09C1101.15 293.131 1101.17 293.166 1101.21 293.19 1101.17 293.166 1101.15 293.131 1101.13 293.09Z" fill="#030303" transform="translate(-1065.5 -173.93)"/><path d="M1101.21 292.91 1101.28 292.85Z" fill="#030303" transform="translate(-1065.5 -173.93)"/><path d="M1111.29 253.76C1111.29 249.093 1111.29 244.447 1111.29 239.82 1111.29 239.35 1111.42 239.21 1111.87 239.17 1114.96 238.938 1117.95 237.997 1120.62 236.42 1128.56 231.62 1132.41 224.57 1131.84 215.3 1131.47 209.286 1128.56 203.712 1123.84 199.97 1120.39 197.073 1116.11 195.325 1111.62 194.97 1111.38 194.97 1111.27 194.92 1111.27 194.64 1111.27 192.64 1111.27 190.57 1111.27 188.54 1111.27 188.29 1111.35 188.23 1111.59 188.25 1112.38 188.32 1113.17 188.39 1113.95 188.51 1119.39 189.252 1124.49 191.602 1128.59 195.26 1136.45 202.31 1139.7 211.13 1138.24 221.6 1137.57 226.093 1135.81 230.351 1133.1 234 1130.27 237.935 1126.48 241.084 1122.1 243.15 1121.3 243.478 1120.92 244.39 1121.25 245.186 1121.58 245.983 1122.49 246.363 1123.29 246.035 1123.35 246.008 1123.42 245.976 1123.48 245.94 1128.11 243.771 1132.13 240.478 1135.16 236.36 1141.47 227.78 1143.36 218.26 1140.36 208.03 1137.46 198.14 1131 191.28 1121.5 187.29 1119.71 186.532 1117.84 185.988 1115.93 185.67 1115.6 185.567 1115.27 185.497 1114.93 185.46 1111.43 184.835 1107.85 184.835 1104.35 185.46 1094.26 187.109 1085.59 193.546 1081.09 202.73 1078.42 207.94 1077.28 213.799 1077.8 219.63 1077.88 220.723 1078.04 221.809 1078.27 222.88 1078.27 222.99 1078.19 223.13 1078.27 223.23L1078.41 223.86C1078.41 223.99 1078.41 224.13 1078.48 224.26 1080.57 233.367 1086.56 241.094 1094.86 245.39 1098.83 247.511 1103.22 248.733 1107.72 248.97 1108.05 248.97 1108.11 249.1 1108.1 249.4 1108.1 250.78 1108.04 252.16 1108.1 253.53 1108.22 255.658 1106.6 257.484 1104.47 257.609 1104.33 257.617 1104.18 257.618 1104.04 257.61 1100.5 257.56 1096.95 257.61 1093.4 257.61 1093.02 257.61 1092.64 257.61 1092.26 257.61 1091.65 257.628 1091.12 258.028 1090.93 258.61 1090.65 259.43 1091.09 260.323 1091.91 260.605 1092.12 260.68 1092.36 260.706 1092.59 260.68L1104.15 260.68C1107.94 260.835 1111.13 257.892 1111.28 254.106 1111.29 253.991 1111.29 253.875 1111.29 253.76ZM1108.2 235.81C1108.2 236.06 1108.08 236.11 1107.83 236.09 1099.11 235.229 1092.1 228.545 1090.83 219.88 1089.8 213.409 1092.23 206.872 1097.23 202.64 1097.75 202.255 1097.98 201.595 1097.82 200.97 1097.69 200.4 1097.24 199.96 1096.67 199.85 1096.12 199.727 1095.55 199.897 1095.16 200.3 1085.9 208.355 1084.93 222.39 1092.98 231.648 1096.71 235.936 1101.94 238.631 1107.6 239.18 1108.04 239.18 1108.16 239.35 1108.15 239.8 1108.15 241.68 1108.15 243.56 1108.15 245.44 1108.15 245.86 1108.05 245.96 1107.63 245.93 1105.88 245.786 1104.14 245.495 1102.44 245.06 1102.35 245.045 1102.26 245.045 1102.17 245.06 1102 244.953 1101.82 244.888 1101.62 244.87 1100.04 244.421 1098.51 243.821 1097.05 243.08 1089.05 238.97 1083.71 232.57 1081.62 223.77 1079.46 215.339 1081.37 206.383 1086.79 199.57 1091.2 193.656 1097.76 189.707 1105.05 188.57 1105.93 188.42 1106.81 188.34 1107.69 188.26 1108.04 188.26 1108.15 188.26 1108.15 188.68 1108.15 192.41 1108.15 196.14 1108.15 199.87 1108.07 200.722 1108.69 201.48 1109.54 201.563 1109.6 201.569 1109.66 201.571 1109.72 201.57 1110.56 201.576 1111.24 200.907 1111.26 200.07 1111.26 199.517 1111.26 198.967 1111.26 198.42 1111.26 198.13 1111.33 198.06 1111.62 198.09 1121.79 199.162 1129.33 208.028 1128.76 218.24 1128.76 219.01 1128.59 219.78 1128.5 220.55L1128.5 220.55C1128.37 220.67 1128.42 220.83 1128.4 220.98 1127.41 225.701 1124.67 229.874 1120.74 232.67L1120.42 232.92 1120.42 232.92C1120.16 233.043 1119.91 233.205 1119.7 233.4 1119.54 233.423 1119.39 233.514 1119.3 233.65 1119.04 233.716 1118.8 233.846 1118.6 234.03 1118.52 234.013 1118.45 234.05 1118.41 234.12 1118.15 234.196 1117.9 234.314 1117.68 234.47 1116.17 235.139 1114.58 235.622 1112.95 235.91 1112.49 235.99 1112.01 236.02 1111.55 236.1 1111.31 236.1 1111.28 236.05 1111.24 235.85 1111.14 235.091 1110.5 234.523 1109.73 234.52 1108.97 234.519 1108.33 235.064 1108.2 235.81Z" fill="#030303" transform="translate(-1065.5 -173.93)"/><path d="M1119.72 220.74C1121.38 219.54 1122.51 217.751 1122.89 215.74 1123.49 212.461 1121.86 209.176 1118.89 207.67 1116.02 206.354 1112.65 206.801 1110.22 208.82 1109.98 209.096 1109.57 209.127 1109.29 208.889 1109.26 208.868 1109.24 208.845 1109.22 208.82 1107.33 207.293 1104.87 206.659 1102.47 207.08 1099.82 207.463 1097.64 209.359 1096.89 211.93 1095.94 214.468 1096.47 217.323 1098.27 219.35 1099.08 220.183 1099.95 220.946 1100.89 221.63 1101.03 221.796 1101.22 221.921 1101.43 221.99L1101.43 221.99C1101.54 222.26 1101.78 222.37 1101.99 222.52L1108.53 227.84C1109.14 228.497 1110.16 228.538 1110.82 227.931 1110.85 227.902 1110.88 227.871 1110.91 227.84 1113.86 225.49 1116.77 223.09 1119.72 220.74ZM1109.49 224.63C1106.69 222.34 1103.85 220.09 1101.08 217.77 1099.23 216.184 1099.02 213.4 1100.6 211.552 1100.86 211.253 1101.15 210.99 1101.48 210.77 1102.94 209.856 1104.77 209.803 1106.28 210.63 1107.11 211.008 1107.83 211.581 1108.38 212.3 1108.86 213.048 1109.86 213.266 1110.6 212.785 1110.8 212.66 1110.96 212.495 1111.09 212.3 1112 211.154 1113.31 210.382 1114.75 210.13 1114.91 210.146 1115.08 210.122 1115.23 210.06L1115.97 210.06C1117.15 210.173 1118.24 210.77 1118.97 211.71 1120.43 213.585 1120.15 216.28 1118.33 217.81 1115.57 220.1 1112.77 222.34 1109.99 224.61 1109.81 224.77 1109.69 224.8 1109.49 224.63Z" fill="#030303" transform="translate(-1065.5 -173.93)"/><path d="M1101.33 293.21 1101.33 293.21Z" fill="#FDFDFD" transform="translate(-1065.5 -173.93)"/></svg>