<svg viewBox="0 0 191 191" xmlns="http://www.w3.org/2000/svg" xmlns:xlink="http://www.w3.org/1999/xlink" id="Capa_1" overflow="hidden"><style>
.MsftOfcThm_Text1_Fill_v2 {
 fill:#000000; 
}
</style>
<path d="M225.47 149C230.4 151.06 234.74 153.72 236.47 159.26 238.965 166.957 234.747 175.219 227.05 177.713 219.354 180.208 211.092 175.99 208.597 168.294 206.289 161.171 209.723 153.453 216.56 150.4L219.56 149ZM222.32 172.86C227.215 173.064 231.348 169.262 231.553 164.368 231.559 164.222 231.561 164.076 231.56 163.93 231.792 158.932 227.928 154.692 222.93 154.46 217.931 154.228 213.691 158.092 213.459 163.09 213.452 163.253 213.449 163.417 213.45 163.58 213.218 168.468 216.992 172.618 221.88 172.85 222.027 172.857 222.173 172.86 222.32 172.86Z" class="MsftOfcThm_Text1_Fill_v2" transform="translate(-127 -149)"/><path d="M127 241.53C129.06 236.6 131.72 232.26 137.26 230.53 144.957 228.035 153.219 232.253 155.713 239.95 158.208 247.646 153.99 255.908 146.294 258.403 139.171 260.711 131.453 257.277 128.4 250.44 127.94 249.44 127.47 248.44 127 247.44ZM150.86 244.53C150.983 239.627 147.108 235.553 142.205 235.431 142.067 235.427 141.928 235.427 141.79 235.43 136.784 235.248 132.578 239.158 132.396 244.164 132.214 249.17 136.125 253.376 141.131 253.558 141.33 253.565 141.53 253.566 141.73 253.56 146.627 253.704 150.713 249.852 150.858 244.955 150.862 244.814 150.863 244.672 150.86 244.53Z" class="MsftOfcThm_Text1_Fill_v2" transform="translate(-127 -149)"/><path d="M318 247.47C315.94 252.4 313.28 256.74 307.74 258.47 300.043 260.965 291.781 256.747 289.287 249.05 286.792 241.354 291.01 233.092 298.706 230.597 305.829 228.289 313.547 231.723 316.6 238.56 317.06 239.56 317.53 240.56 318 241.56ZM303.3 253.56C308.308 253.69 312.472 249.736 312.602 244.728 312.732 239.721 308.778 235.556 303.77 235.426 303.573 235.421 303.377 235.422 303.18 235.43 298.172 235.3 294.008 239.254 293.878 244.262 293.748 249.269 297.702 253.434 302.71 253.564 302.907 253.569 303.103 253.568 303.3 253.56Z" class="MsftOfcThm_Text1_Fill_v2" transform="translate(-127 -149)"/><path d="M219.53 340C214.6 337.94 210.26 335.28 208.53 329.74 206.035 322.043 210.253 313.781 217.95 311.287 225.646 308.792 233.908 313.01 236.403 320.706 238.711 327.829 235.277 335.547 228.44 338.6L225.44 340ZM222.71 316.15C217.822 315.924 213.676 319.702 213.449 324.59 213.442 324.74 213.439 324.89 213.44 325.04 213.205 330.038 217.067 334.28 222.065 334.515 227.063 334.75 231.305 330.889 231.54 325.891 231.547 325.744 231.55 325.597 231.55 325.45 231.799 320.569 228.043 316.41 223.161 316.161 223.011 316.154 222.861 316.15 222.71 316.15Z" class="MsftOfcThm_Text1_Fill_v2" transform="translate(-127 -149)"/><path d="M238.37 246.88C230.76 258.56 215.44 259.78 206.56 246.88 203.65 248.01 200.56 249.01 197.69 250.37 194.03 252.1 192.35 255.17 192.38 259.26 192.44 266.61 192.54 273.96 192.28 281.26 192.23 282.81 190.9 285.45 189.83 285.62 186.72 286.13 186.93 283.33 186.92 281.25 186.873 273.917 186.873 266.567 186.92 259.2 186.98 252.07 190.31 247.2 197.05 244.62 200.34 243.38 203.6 242.04 206.87 240.73 210.87 239.11 212.76 233.25 209.87 229.99 204.24 223.68 203.87 215.5 202.14 208.04 200.36 200.41 207.14 192.34 215 191.39 219.76 190.803 224.573 190.777 229.34 191.31 238.014 192.401 244.162 200.317 243.071 208.991 242.943 210.014 242.715 211.022 242.39 212 241.39 215.18 240.78 218.5 239.66 221.64 238.815 224.171 237.613 226.569 236.09 228.76 232.17 234.09 233.35 238.99 239.41 241.32 242.7 242.58 246.05 243.71 249.25 245.17 254.56 247.59 257.78 251.75 257.94 257.67 258.16 265.863 258.16 274.06 257.94 282.26 257.94 283.49 256.28 284.68 255.4 285.89 254.46 284.6 252.76 283.34 252.7 282.02 252.43 274.96 252.58 267.89 252.57 260.82 252.57 254.05 251.02 251.75 244.84 249.3 242.79 248.49 240.67 247.74 238.37 246.88ZM234.43 214.32C233.43 214.08 232.33 213.91 231.29 213.56 226.22 211.87 221.12 210.28 216.16 208.31 215.16 207.91 214.71 206.02 214.01 204.81 215.383 204.203 216.828 203.773 218.31 203.53 219.31 203.48 220.31 204.53 221.38 204.82 226.54 206.37 231.72 207.82 236.9 209.36L237.9 208.11C237.28 205.91 237.08 203.45 235.95 201.54 231.54 194.07 213.5 193.99 209.13 201.54 207.99 203.54 207.13 207.64 208.13 208.44 210.97 210.79 210.13 213.49 210.22 216.13 210.42 224.68 215.71 230.13 223.49 229.7 230.73 229.21 235.3 222.93 234.43 214.32ZM227.82 235 217.21 235 212.78 245.56C217.83 252.82 227.49 252.75 232.16 245.56Z" class="MsftOfcThm_Text1_Fill_v2" transform="translate(-127 -149)"/><path d="M198.92 164.63C199.5 165.24 201.03 166.23 200.92 166.82 200.622 168.195 199.791 169.396 198.61 170.16 193.83 172.52 188.67 174.16 184.04 176.79 167.16 186.32 155.52 200.38 149.04 218.65 148.66 219.71 148.49 221.02 147.75 221.72 146.897 222.515 145.753 222.92 144.59 222.84 143.9 222.72 143.21 221.31 142.96 220.36 142.891 219.515 143.057 218.667 143.44 217.91 152.647 192.123 170.143 174.617 195.93 165.39 196.65 165.11 197.49 165 198.92 164.63Z" class="MsftOfcThm_Text1_Fill_v2" transform="translate(-127 -149)"/><path d="M303.65 221.79C302.49 222.22 301.22 223.16 300.18 222.95 298.808 222.664 297.61 221.834 296.86 220.65 294.44 215.74 292.72 210.45 290.03 205.71 280.52 188.99 266.53 177.47 248.41 170.99 247.75 170.75 246.86 170.69 246.47 170.22 245.587 169.033 244.775 167.794 244.04 166.51 245.45 166.05 247.1 164.88 248.24 165.25 252.543 166.582 256.725 168.279 260.74 170.32 280.27 180.64 293.93 196.15 301.28 217.07 301.56 217.87 301.8 218.68 302.04 219.49 302.106 219.763 302.156 220.041 302.19 220.32Z" class="MsftOfcThm_Text1_Fill_v2" transform="translate(-127 -149)"/><path d="M146.56 265.94C147.409 267.147 148.132 268.437 148.72 269.79 154.2 285.5 163.49 298.47 177.22 307.79 183.45 312.03 190.63 314.9 197.43 318.28 199.31 319.22 201.96 319.58 200.88 322.5 199.8 325.42 197.36 324.1 195.49 323.43 169.95 314.27 152.617 296.907 143.49 271.34 142.17 267.71 143 265.8 146.56 265.94Z" class="MsftOfcThm_Text1_Fill_v2" transform="translate(-127 -149)"/><path d="M302.48 268.67C301.26 271.98 300.4 274.84 299.19 277.53 289.19 299.79 272.76 315.21 249.67 323.4 249.41 323.49 249.12 323.74 248.89 323.7 247.29 323.4 244.8 323.54 244.27 322.6 242.97 320.27 245.09 319.46 247.02 318.5 254.44 314.79 262.21 311.5 269.02 306.86 282.02 297.86 290.82 285.3 296.08 270.33 296.4 269.4 296.52 268.18 297.18 267.63 298.113 266.759 299.334 266.261 300.61 266.23 301.33 266.31 301.91 267.89 302.48 268.67Z" class="MsftOfcThm_Text1_Fill_v2" transform="translate(-127 -149)"/><path d="M204.3 278.61C204.3 282.85 204.5 287.11 204.18 291.33 204.08 292.61 202.53 293.78 201.64 295 200.73 293.81 199.06 292.65 199.03 291.45 198.803 283.11 198.803 274.777 199.03 266.45 199.03 265.21 200.66 264.02 201.53 262.8 202.46 264.12 204.05 265.38 204.18 266.8 204.54 270.67 204.3 274.65 204.3 278.61Z" class="MsftOfcThm_Text1_Fill_v2" transform="translate(-127 -149)"/><path d="M240.7 278.61C240.7 274.61 240.46 270.67 240.83 266.75 240.96 265.36 242.55 264.1 243.48 262.75 244.35 263.97 245.95 265.16 245.98 266.4 246.2 274.727 246.2 283.06 245.98 291.4 245.98 292.6 244.28 293.76 243.37 294.95 242.48 293.73 240.93 292.56 240.83 291.28 240.5 287.11 240.7 282.85 240.7 278.61Z" class="MsftOfcThm_Text1_Fill_v2" transform="translate(-127 -149)"/></svg>