<svg viewBox="0 0 140.7 158.03" xmlns="http://www.w3.org/2000/svg" xmlns:xlink="http://www.w3.org/1999/xlink" id="Capa_1" overflow="hidden"><path d="M459.86 535C455.77 536.26 452.06 537.66 448.23 538.52 435.6 541.37 426.06 536.52 420.91 524.6 420.397 523.21 419.3 522.113 417.91 521.6 410.75 518.6 407.11 512.69 405.19 505.54 402.65 496.08 403.3 486.61 405.63 477.22 409.06 463.36 415.07 450.95 426.2 441.5 434.696 434.379 444.66 429.223 455.38 426.4 457.5 425.81 458.79 426.34 459.25 427.87 459.71 429.4 458.93 430.67 456.72 431.29 446.193 434.061 436.461 439.256 428.3 446.46 418.69 455.11 413.58 466.26 410.53 478.52 408.501 486.27 408.198 494.37 409.64 502.25 409.824 503.185 410.057 504.11 410.34 505.02 413.47 515.37 420.84 519.91 431.44 517.86 434.653 517.236 437.815 516.374 440.9 515.28 452.96 511.06 465.32 510.55 477.9 512.11 482.02 512.63 486.12 513.39 490.25 513.79 498.45 514.58 505.98 512.79 512.49 507.53 515.134 505.551 516.897 502.614 517.4 499.35 515.86 499.35 514.33 499.4 512.81 499.35 510.52 499.27 509.42 498.35 509.52 496.63 509.62 494.91 510.7 494.25 512.92 494.31 519.037 494.605 525.081 492.879 530.12 489.4 537.85 483.98 540.81 475.72 538.35 466.61 537.57 463.74 537.92 462.47 539.6 461.97 541.28 461.47 542.44 462.35 543.27 465.3 547.08 479 540 492.16 526 497.17 524.073 497.633 522.616 499.212 522.31 501.17 520.51 508.62 515.11 512.99 508.42 515.95 502.488 518.694 495.896 519.683 489.42 518.8 488.158 518.513 486.863 519.13 486.29 520.29 480.788 528.375 477.003 537.503 475.17 547.11 474.75 549.29 473.53 550.36 471.93 549.88 470.33 549.4 469.81 548.2 470.11 546.52 471.841 536.969 475.429 527.85 480.67 519.68 480.96 519.22 481.25 518.76 481.52 518.28 481.58 518.19 481.52 518.03 481.52 517.76 469.58 515.98 457.71 515.51 445.94 519.06 440.94 520.55 435.94 521.83 430.94 523.06 429.4 523.321 427.842 523.464 426.28 523.49 427.48 528.55 433.55 533.49 439.28 534.06 444.53 534.61 449.42 533.24 454.23 531.38 456.64 530.44 459 529.38 461.41 528.38 464.08 527.33 465.79 528.63 465.35 531.48 464.53 536.8 463.61 542.11 462.66 547.4 462.32 549.28 461.04 550.18 459.53 549.86 458.02 549.54 457.33 548.22 457.68 546.33 458.44 542.68 459.14 538.94 459.86 535Z" transform="translate(-403.57 -392)"/><path d="M513.38 406.84C516.83 409.07 518.9 412.04 518.97 416.13 519.164 421.796 514.791 426.578 509.13 426.89 505.88 427.08 502.6 427 499.33 426.95 497.33 426.95 496.52 426.02 496.51 423.95 496.51 414.283 496.51 404.617 496.51 394.95 496.51 392.88 497.43 392.03 499.51 391.95 501.28 391.95 503.05 391.95 504.82 391.95 512.3 392.05 516.75 398.95 513.75 405.81ZM501.69 421.91 507.2 421.91C507.811 421.93 508.422 421.91 509.03 421.85 511.692 421.5 513.731 419.31 513.89 416.63 514.106 413.934 512.257 411.507 509.6 411 506.967 410.816 504.326 410.793 501.69 410.93ZM501.61 405.65 505.32 405.65C507.87 405.65 509.32 404.53 509.63 402.32 509.987 400.061 508.573 397.899 506.36 397.32 505.234 397.052 504.071 396.978 502.92 397.1 502.311 397.278 501.839 397.759 501.67 398.37 501.54 400.68 501.61 403 501.61 405.65Z" transform="translate(-403.57 -392)"/><path d="M491.91 438.85C491.32 439.4 490.66 440.4 489.75 440.76 488.44 441.28 487.35 440.51 486.84 439.21 486.09 437.31 485.53 435.34 484.69 433.48 484.337 432.775 483.681 432.271 482.91 432.11 479.99 431.97 477.06 431.97 474.14 432.11 473.366 432.276 472.706 432.778 472.34 433.48 471.54 435.2 471.03 437.06 470.34 438.83 469.65 440.6 468.34 441.34 466.87 440.7 465.25 439.98 465.01 438.65 465.56 437.11 469.02 427.44 472.45 417.75 476.03 408.11 476.532 407.066 477.501 406.323 478.64 406.11 479.41 406.11 480.64 407.22 481.01 408.11 484.59 417.74 488.01 427.42 491.48 437.11 491.62 437.5 491.68 437.91 491.91 438.85ZM482.37 426.85C481.11 423.33 479.93 420.01 478.74 416.69L478.3 416.69 474.67 426.85Z" transform="translate(-403.57 -392)"/><path d="M528 430.27C526.6 431.72 525.23 433.2 523.8 434.62 522.37 436.04 520.8 436.22 519.71 434.99 518.5 433.56 518.93 432.27 520.17 431.05 523.08 428.18 525.9 425.2 528.9 422.43 529.62 421.77 531.16 421.19 531.9 421.53 532.872 422.155 533.497 423.198 533.59 424.35 533.71 433.95 533.68 443.56 533.65 453.17 533.65 455.06 532.59 456.22 531.07 456.17 529.55 456.12 528.56 454.97 528.55 453.06 528.55 446.25 528.55 439.44 528.55 432.62L528.55 430.5Z" transform="translate(-403.57 -392)"/><path d="M499.46 467.38C502.43 471.424 504.562 476.02 505.73 480.9 506.18 482.72 505.42 484.18 503.91 484.42 502.576 484.756 501.223 483.947 500.888 482.613 500.854 482.477 500.831 482.339 500.82 482.2 500.761 481.859 500.671 481.524 500.55 481.2 499.1 477.99 497.72 474.73 496.16 471.57 494.47 468.18 491.53 466.32 487.92 465.43 487.12 465.24 486.33 465.03 485.53 464.88 484.195 464.824 483.157 463.696 483.213 462.361 483.218 462.25 483.23 462.139 483.25 462.03 483.298 460.75 484.375 459.751 485.655 459.799 485.9 459.808 486.141 459.856 486.37 459.94 488.878 460.543 491.338 461.332 493.73 462.3 495.01 462.83 496.05 463.03 497.15 462.24 499.63 460.46 502.15 458.72 504.5 456.79 506.17 455.44 507.44 455.14 508.61 456.3 509.78 457.46 509.71 459 508.11 460.4 505.35 462.8 502.43 465 499.46 467.38Z" transform="translate(-403.57 -392)"/><path d="M433.37 490.85C431.82 493.22 430.37 495.54 428.84 497.75 427.31 499.96 425.77 500.23 424.43 499.14 423.09 498.05 423.3 496.67 424.75 494.66 425.9 493.07 426.88 491.35 427.98 489.66 428.71 488.57 428.55 487.81 427.55 486.9 424.429 483.932 422.26 480.103 421.32 475.9 420.91 474.28 421.09 472.9 422.92 472.26 424.53 471.73 425.7 472.59 426.24 474.63 427.89 480.9 431.3 485.58 438.04 486.69 440.36 487.07 442.89 486.54 445.27 486.13 447.35 485.77 448.63 486.06 449.16 487.58 449.69 489.1 448.83 490.41 446.68 491.07 442.554 492.402 438.111 492.377 434 491 433.793 490.937 433.583 490.887 433.37 490.85Z" transform="translate(-403.57 -392)"/><path d="M465.27 502.18C463.15 502.29 461.95 501.49 461.82 499.88 461.69 498.27 462.82 497.36 464.9 497.16 469.753 496.926 473.93 493.655 475.32 489 476.08 486.86 477.32 486.08 478.91 486.68 480.35 487.22 480.78 488.68 480.13 490.68 478.074 497.247 472.143 501.837 465.27 502.18Z" transform="translate(-403.57 -392)"/></svg>