<svg viewBox="0 0 301.32 96.58" xmlns="http://www.w3.org/2000/svg" xmlns:xlink="http://www.w3.org/1999/xlink" id="Layer_1" overflow="hidden"><path d="M62.72 41.26 0 60.15 0 96.58 86.87 96.58 86.87 71.28 62.72 41.26Z"/><path d="M339.51 258.08 339.51 354.66 546.58 354.66 546.58 258.08ZM365.57 338.75 359.92 338.75 359.92 299.34 349.4 299.34 349.4 294.43 376.1 294.43 376.1 299.34 365.57 299.34ZM395.65 324.88 378.22 324.88C378.22 333.54 380.55 335.25 384.48 335.25 387.92 335.25 389.7 332.49 389.88 329.36L395.41 329.36C395.35 336.24 391.11 339.36 384.6 339.36 378.09 339.36 372.81 337.36 372.81 323.7 372.81 314.62 373.86 307.13 384.6 307.13 393.44 307.13 395.6 311.98 395.6 322.23ZM417.08 312.36 415.73 312.17C415.283 312.098 414.832 312.058 414.38 312.05 408.79 312.05 407.38 316.29 407.38 320.46L407.38 338.75 402.38 338.75 402.38 307.75 407.38 307.75 407.38 312.42 407.5 312.42C409.59 307.69 412.16 307.14 417.08 307.14ZM443.54 338.75 438.54 338.75 438.54 317.27C438.54 313.95 437.38 311.27 433.08 311.27 427.55 311.27 426.75 316.18 426.75 320.42L426.75 338.77 421.75 338.77 421.75 314.2C421.75 312.05 421.63 309.9 421.44 307.75L426.78 307.75 426.78 311.75 427 311.75C429 308.26 431.3 307.15 435.29 307.15 441.92 307.15 443.58 311.15 443.58 317.28ZM456.37 338.75 451.37 338.75 451.37 307.75 456.37 307.75ZM456.68 299.83 451 299.83 451 294.43 456.65 294.43ZM481.05 338.75 481.05 335 480.86 335C479.224 337.765 476.222 339.432 473.01 339.36 467.6 339.36 464.65 336.66 464.65 331.36L464.65 307.75 469.65 307.75 469.65 329.24C469.65 332.98 471.37 335.5 474.93 335.5 477.63 335.5 481.01 333.5 481.01 328.32L481.01 307.75 486.01 307.75 486.01 332.31C486.01 334.46 486.13 336.61 486.32 338.75ZM529.67 338.75 524.67 338.75 524.67 317.27C524.67 314.14 523.81 311.27 519.75 311.27 517.85 311.27 517.3 311.33 515.95 312.44 514.6 313.55 514.23 316.74 514.23 317.9L514.23 338.77 509.23 338.77 509.23 317.27C509.23 314.14 508.38 311.27 504.32 311.27 502.635 311.302 501.048 312.065 499.97 313.36 499.193 314.746 498.79 316.311 498.8 317.9L498.8 338.77 493.8 338.77 493.8 314.2C493.8 312.05 493.68 309.9 493.5 307.75L498.84 307.75 498.84 311.62 498.96 311.62C500.43 308.31 503.07 307.14 506.7 307.14 509.52 307.14 512.77 308.31 513.94 311.14 515.66 307.82 518.49 307.14 521.31 307.14 524.56 307.14 529.78 307.88 529.78 315.14ZM384.11 311C380.92 311 378.28 312.53 378.22 321.13L390.31 321.13C390.31 312.05 387.79 311 384.11 311Z" transform="translate(-245.26 -258.08)"/><path d="M0 53.84 33.09 19.25 86.87 49.53 86.87 0.01 0 0.01 0 53.84Z"/></svg>