<svg viewBox="0 0 200.27 187.37" xmlns="http://www.w3.org/2000/svg" xmlns:xlink="http://www.w3.org/1999/xlink" id="Capa_1" overflow="hidden"><path d="M497.45 318.29C500.87 325.01 500.33 330.53 496 334.89 492.151 338.766 486.266 339.77 481.35 337.39 475.78 334.69 473.51 329.59 474.54 321.76L410.1 291.34C404.9 297.76 397.41 298.73 391.58 294.24 386.745 290.398 385.437 283.602 388.5 278.24 391.8 272.48 398.12 270.59 405.5 273.38 412.35 263.94 419.24 254.44 426.28 244.72L405.28 215.72C401.43 217.42 397.55 217.77 393.68 215.84 391.021 214.551 388.921 212.341 387.77 209.62 385.381 204.118 387.226 197.695 392.17 194.3 397.84 190.44 403.84 191.55 410.02 197.76L474.49 168C473.19 160.79 475.39 155.17 482.38 152.18 487.392 150.184 493.119 151.618 496.6 155.74 500.37 160.04 500.73 165.36 497.48 171.49L566.24 234.24C574.77 230.36 580.24 231.02 584.37 236.34 587.948 240.935 587.869 247.394 584.18 251.9 579.93 257.13 574.23 257.78 566.29 253.83ZM460.45 258.03 478.45 274.46C478.669 274.409 478.883 274.338 479.09 274.25 486.01 270.09 491.22 270.77 496.94 276.46 497.641 276.917 498.517 277.014 499.3 276.72 519.807 267.327 540.287 257.88 560.74 248.38 561.36 248.09 561.74 247.25 562.22 246.67 561.53 246.34 560.85 245.72 560.16 245.72 540.57 245.67 520.98 245.72 501.4 245.66 500.21 245.66 499.54 245.92 499.23 247.2 497.503 254.015 490.578 258.14 483.763 256.412 481.064 255.728 478.664 254.178 476.93 252 476.356 251.503 475.577 251.316 474.84 251.5 470.15 253.54 465.51 255.72 460.49 258ZM564 251.35 563.71 250.79 499.17 280.56C499.34 281.23 499.47 281.68 499.55 282.14 500.689 288.573 496.815 294.836 490.55 296.69 484.39 298.54 477.43 295.69 475.33 289.61 474.2 286.36 472.58 285.87 469.75 286.1 467.63 286.28 465.49 286.1 463.36 286.1L460.28 286.1C467.12 295.57 473.57 304.53 480.11 313.42 480.698 313.904 481.482 314.079 482.22 313.89 485.95 312.71 489.63 312.73 492.97 314.75 494.77 315.84 495.67 315.29 496.97 314.1 511.81 300.153 526.677 286.23 541.57 272.33ZM478.42 214.51 460.98 230.51C465.63 232.61 469.98 234.51 474.23 236.51 475.52 237.12 476.23 236.98 477.17 235.82 480.008 232.151 484.719 230.465 489.24 231.5 493.987 232.241 497.852 235.71 499.1 240.35 499.55 241.83 500.1 242.35 501.65 242.35 521.08 242.35 540.51 242.35 559.94 242.28 560.758 242.117 561.54 241.809 562.25 241.37 561.66 240.77 561.17 239.94 560.46 239.62 548.69 234.26 536.89 228.97 525.1 223.62 516.053 219.547 507.027 215.473 498.02 211.4 491.38 218.28 486 219.18 478.46 214.51ZM460.72 202.83C464.88 202.83 468.43 202.75 471.97 202.83 473.57 202.83 474.25 202.46 474.73 200.83 476.311 195.594 481.091 191.977 486.56 191.88 492.124 191.658 497.159 195.157 498.89 200.45 499.62 202.85 499.54 205.5 499.89 208.52L563.67 237.26 563.99 236.79 495.19 174C490.6 177.35 485.8 177.71 480.63 175.41 474.09 184.44 467.59 193.42 460.76 202.83ZM478.03 316.43C471.1 306.83 464.24 297.38 457.46 287.87 456.715 286.674 455.365 285.991 453.96 286.1 440.69 286.16 427.43 286.1 414.16 286.1 413.926 286.055 413.685 286.055 413.45 286.1 412.82 286.4 412.22 286.75 411.61 287.1 412.05 287.72 412.46 288.35 412.94 288.94 413.07 289.11 413.36 289.14 413.57 289.24L462.12 312.17C466.74 314.35 471.38 316.5 476.03 318.68ZM476 171.07C454.9 180.77 434 190.37 413.13 200.07 412.47 200.38 412.13 201.33 411.6 201.98 412.246 202.389 412.961 202.677 413.71 202.83 427.36 202.88 441.01 202.83 454.66 202.91 455.996 202.971 457.254 202.28 457.92 201.12 464.17 192.41 470.48 183.73 476.77 175.04 477.17 174.49 477.51 173.89 477.87 173.33ZM445.17 265.07C449.27 270.74 453.26 276.31 457.32 281.82 457.772 282.336 458.415 282.647 459.1 282.68 463.68 282.75 468.26 282.76 472.83 282.68 473.523 282.552 474.122 282.119 474.46 281.5 475.121 280.004 475.705 278.476 476.21 276.92 470.21 271.42 464.09 265.83 457.94 260.31 457.394 259.964 456.718 259.89 456.11 260.11 452.49 261.7 448.93 263.38 445.16 265.11ZM445.74 223.54C449.59 225.28 453.16 226.93 456.74 228.46 457.371 228.601 458.032 228.443 458.53 228.03 464.097 223.023 469.63 217.963 475.13 212.85 475.587 212.404 475.818 211.776 475.76 211.14 475.26 209.49 474.54 207.91 473.83 206.14 469.12 206.14 464.31 206.14 459.51 206.14 458.76 206.204 458.065 206.564 457.58 207.14 453.67 212.57 449.8 218 445.73 223.58ZM474.37 240.17C469.44 237.94 464.3 235.59 459.13 233.31 458.631 233.16 458.09 233.252 457.67 233.56 453.67 237.11 449.77 240.72 445.89 244.26 446.07 244.64 446.1 244.81 446.21 244.91 448.64 247.15 451.09 249.38 453.52 251.63 457.73 255.51 457.73 255.52 462.97 253.12L474.37 247.86ZM411.66 280.55C411.53 282.48 412.51 282.75 414 282.74 426.61 282.74 439.23 282.74 451.84 282.74 452.412 282.686 452.98 282.592 453.54 282.46 451.25 279.28 449.15 276.34 447.01 273.46 445.39 271.24 444.01 267.72 442.01 267.23 439.8 266.71 436.89 269 434.33 270.16 426.72 273.6 419.16 277.12 411.65 280.59ZM454.17 206.15 438.17 206.15C429.98 206.15 421.78 206.15 413.58 206.15 412.891 206.299 412.234 206.57 411.64 206.95 412.09 207.56 412.42 208.37 413.02 208.73 414.271 209.394 415.56 209.985 416.88 210.5L442.61 222.1ZM399.35 214.79C404.992 214.791 409.588 210.261 409.67 204.62 409.64 198.991 405.147 194.401 399.52 194.25 393.848 194.203 389.212 198.763 389.165 204.435 389.118 210.107 393.678 214.743 399.35 214.79ZM584.68 244.04C584.741 238.39 580.21 233.761 574.561 233.7 574.551 233.7 574.54 233.7 574.53 233.7 568.853 233.67 564.225 238.248 564.195 243.925 564.165 249.602 568.742 254.23 574.42 254.26 580.058 254.271 584.642 249.718 584.67 244.08ZM409.68 284.36C409.627 278.802 405.167 274.293 399.61 274.18 393.994 274.125 389.396 278.633 389.34 284.25 389.285 289.866 393.794 294.464 399.41 294.519 405.026 294.574 409.624 290.066 409.68 284.449 409.68 284.42 409.68 284.39 409.68 284.36ZM440.57 225 410 211.2 409.69 211.7 434.05 233.92ZM410.2 277 410.5 277.46 440 263.75 433.85 255.27ZM436.57 236.3 443.16 242.3 454.93 231.52 443.7 226.52ZM454.46 257.19 443.16 246.88 436.4 253C438.51 255.94 440.4 258.71 442.5 261.38 443.052 261.796 443.773 261.916 444.43 261.7 447.68 260.27 450.87 258.75 454.46 257.1ZM411.88 218.34 411.5 218.62 428.34 241.92 432.05 236.75ZM428.32 247.69 412.13 270 412.49 270.3C418.92 264.41 425.36 258.53 431.88 252.57 430.67 250.84 429.58 249.33 428.32 247.6ZM434.41 250.29 440.65 244.58 434.58 239.08 430.42 244.79Z" transform="translate(-386.73 -151.3)"/></svg>